<svg xmlns="http://www.w3.org/2000/svg" xmlns:xlink="http://www.w3.org/1999/xlink" width="400" height="250.591" viewBox="0 0 400 250.591">
  <defs>
    <linearGradient id="linear-gradient" x1="0.477" y1="1.972" x2="0.519" y2="-0.375" gradientUnits="objectBoundingBox">
      <stop offset="0" stop-color="#4042e2"/>
      <stop offset="1" stop-color="#4f52ff"/>
    </linearGradient>
    <linearGradient id="linear-gradient-2" x1="0.477" y1="2.371" x2="0.501" y2="0.442" xlink:href="#linear-gradient"/>
    <linearGradient id="linear-gradient-3" x1="0.417" y1="1.631" x2="0.471" y2="0.865" xlink:href="#linear-gradient"/>
    <linearGradient id="linear-gradient-4" x1="0.013" y1="0.25" x2="0.987" y2="0.75" gradientUnits="objectBoundingBox">
      <stop offset="0" stop-color="#b37cff"/>
      <stop offset="1" stop-color="#f895e7"/>
    </linearGradient>
    <linearGradient id="linear-gradient-5" x1="-2.514" y1="-8.829" x2="-2.846" y2="-8.093" xlink:href="#linear-gradient"/>
    <linearGradient id="linear-gradient-6" x1="-48.135" y1="-71.565" x2="-48.46" y2="-70.821" xlink:href="#linear-gradient"/>
    <linearGradient id="linear-gradient-7" x1="-11.47" y1="-106.945" x2="-11.657" y2="-104.352" xlink:href="#linear-gradient"/>
    <linearGradient id="linear-gradient-8" x1="-12.162" y1="-34.506" x2="-11.182" y2="-34.306" gradientUnits="objectBoundingBox">
      <stop offset="0" stop-color="#09005d"/>
      <stop offset="1" stop-color="#1a0f91"/>
    </linearGradient>
    <linearGradient id="linear-gradient-10" x1="-1.966" y1="-9.275" x2="-2.298" y2="-8.538" xlink:href="#linear-gradient"/>
    <linearGradient id="linear-gradient-11" x1="-43.603" y1="-71.284" x2="-43.928" y2="-70.54" xlink:href="#linear-gradient"/>
    <linearGradient id="linear-gradient-12" x1="-10.249" y1="-107.497" x2="-10.436" y2="-104.904" xlink:href="#linear-gradient"/>
    <linearGradient id="linear-gradient-13" x1="-11.615" y1="-32.34" x2="-10.635" y2="-32.14" xlink:href="#linear-gradient-8"/>
    <linearGradient id="linear-gradient-14" x1="-0.502" y1="0.457" x2="1.502" y2="0.543" xlink:href="#linear-gradient-8"/>
    <linearGradient id="linear-gradient-15" x1="0.016" y1="-0.296" x2="0.987" y2="1.382" xlink:href="#linear-gradient-8"/>
    <linearGradient id="linear-gradient-16" x1="3.229" y1="-3.876" x2="-0.349" y2="1.866" xlink:href="#linear-gradient"/>
    <linearGradient id="linear-gradient-17" x1="2.492" y1="-2.716" x2="-1.079" y2="3.057" xlink:href="#linear-gradient"/>
    <linearGradient id="linear-gradient-18" x1="1.758" y1="-1.543" x2="-1.808" y2="4.26" xlink:href="#linear-gradient"/>
    <linearGradient id="linear-gradient-19" x1="3.497" y1="-4.337" x2="-0.075" y2="1.432" xlink:href="#linear-gradient"/>
    <linearGradient id="linear-gradient-20" x1="2.762" y1="-3.174" x2="-0.805" y2="2.626" xlink:href="#linear-gradient"/>
    <linearGradient id="linear-gradient-21" x1="2.028" y1="-1.999" x2="-1.533" y2="3.834" xlink:href="#linear-gradient"/>
    <linearGradient id="linear-gradient-22" x1="3.765" y1="-4.761" x2="0.198" y2="0.986" xlink:href="#linear-gradient"/>
    <linearGradient id="linear-gradient-23" x1="3.03" y1="-3.605" x2="-0.531" y2="2.173" xlink:href="#linear-gradient"/>
    <linearGradient id="linear-gradient-24" x1="2.286" y1="-2.44" x2="-1.239" y2="3.378" xlink:href="#linear-gradient"/>
    <linearGradient id="linear-gradient-25" x1="-0.536" y1="0.458" x2="1.536" y2="0.542" xlink:href="#linear-gradient-8"/>
    <linearGradient id="linear-gradient-26" x1="0.017" y1="-0.32" x2="0.986" y2="1.406" xlink:href="#linear-gradient-8"/>
    <linearGradient id="linear-gradient-30" x1="3.497" y1="-4.337" x2="-0.075" y2="1.432" xlink:href="#linear-gradient"/>
    <linearGradient id="linear-gradient-32" x1="2.028" y1="-1.999" x2="-1.533" y2="3.834" xlink:href="#linear-gradient"/>
    <linearGradient id="linear-gradient-33" x1="3.765" y1="-4.761" x2="0.198" y2="0.986" xlink:href="#linear-gradient"/>
    <linearGradient id="linear-gradient-35" x1="2.286" y1="-2.44" x2="-1.239" y2="3.378" xlink:href="#linear-gradient"/>
    <linearGradient id="linear-gradient-36" x1="2.811" y1="-13.979" x2="2.214" y2="-12.055" xlink:href="#linear-gradient-8"/>
    <linearGradient id="linear-gradient-37" x1="1.635" y1="-1.735" x2="1.124" y2="-0.766" gradientUnits="objectBoundingBox">
      <stop offset="0" stop-color="#fe7062"/>
      <stop offset="1" stop-color="#ff928e"/>
    </linearGradient>
    <linearGradient id="linear-gradient-38" x1="-0.16" y1="-0.191" x2="1.984" y2="2.225" gradientUnits="objectBoundingBox">
      <stop offset="0" stop-color="#a22b25"/>
      <stop offset="1" stop-color="#c0423c"/>
    </linearGradient>
    <linearGradient id="linear-gradient-39" x1="-171.365" y1="-0.196" x2="-169.094" y2="2.22" xlink:href="#linear-gradient-38"/>
    <linearGradient id="linear-gradient-40" x1="0.662" y1="-3.535" x2="0.662" y2="-1.288" xlink:href="#linear-gradient-8"/>
    <linearGradient id="linear-gradient-41" x1="2.58" y1="-4.058" x2="-0.86" y2="3.366" xlink:href="#linear-gradient-38"/>
    <linearGradient id="linear-gradient-42" x1="-150.141" y1="-4.62" x2="-150.141" y2="-2.326" xlink:href="#linear-gradient-8"/>
    <linearGradient id="linear-gradient-43" x1="3.788" y1="-6.36" x2="0.301" y2="1.144" xlink:href="#linear-gradient-38"/>
    <linearGradient id="linear-gradient-44" x1="0.394" y1="1.237" x2="0.714" y2="-0.937" xlink:href="#linear-gradient-8"/>
    <linearGradient id="linear-gradient-45" x1="1.154" y1="0.862" x2="0.194" y2="0.355" xlink:href="#linear-gradient-8"/>
    <linearGradient id="linear-gradient-46" x1="0.518" y1="-0.288" x2="0.481" y2="1.325" xlink:href="#linear-gradient-38"/>
    <linearGradient id="linear-gradient-47" x1="0.534" y1="0.073" x2="0.458" y2="0.95" xlink:href="#linear-gradient-38"/>
    <linearGradient id="linear-gradient-48" x1="2.785" y1="-10.719" x2="2.121" y2="-9.032" xlink:href="#linear-gradient-8"/>
    <linearGradient id="linear-gradient-49" x1="0.717" y1="-1.087" x2="0.228" y2="2.324" xlink:href="#linear-gradient-38"/>
    <linearGradient id="linear-gradient-50" x1="-22.845" y1="-0.551" x2="-22.946" y2="1.401" xlink:href="#linear-gradient-8"/>
    <linearGradient id="linear-gradient-51" x1="-21.392" y1="0.236" x2="-21.61" y2="9.823" xlink:href="#linear-gradient-8"/>
    <linearGradient id="linear-gradient-52" x1="-80.069" y1="0.5" x2="-79.069" y2="0.5" gradientUnits="objectBoundingBox">
      <stop offset="0" stop-color="#ff928e"/>
      <stop offset="1" stop-color="#feb3b1"/>
    </linearGradient>
    <linearGradient id="linear-gradient-53" x1="-35.581" y1="0.589" x2="-36.734" y2="1.431" xlink:href="#linear-gradient-8"/>
    <linearGradient id="linear-gradient-54" x1="-27.423" y1="0.5" x2="-26.423" y2="0.5" xlink:href="#linear-gradient-8"/>
    <linearGradient id="linear-gradient-55" x1="-50.762" y1="0.5" x2="-49.762" y2="0.5" xlink:href="#linear-gradient-52"/>
    <linearGradient id="linear-gradient-56" x1="-6.3" y1="0.083" x2="-7.31" y2="0.8" xlink:href="#linear-gradient-8"/>
    <linearGradient id="linear-gradient-57" x1="1.14" y1="0.579" x2="6.443" y2="1.23" xlink:href="#linear-gradient-8"/>
    <linearGradient id="linear-gradient-58" x1="-29.411" y1="0.5" x2="-28.411" y2="0.5" xlink:href="#linear-gradient-52"/>
    <linearGradient id="linear-gradient-59" x1="-14.141" y1="1.731" x2="-16.484" y2="-0.335" gradientUnits="objectBoundingBox">
      <stop offset="0" stop-color="#53d8ff"/>
      <stop offset="1" stop-color="#3840f7"/>
    </linearGradient>
    <linearGradient id="linear-gradient-60" x1="0.17" y1="-0.788" x2="0.712" y2="1.548" xlink:href="#linear-gradient-52"/>
    <linearGradient id="linear-gradient-61" x1="-34.596" y1="20.278" x2="-34.025" y2="19.236" xlink:href="#linear-gradient-52"/>
    <linearGradient id="linear-gradient-62" x1="-17.543" y1="0.154" x2="-16.814" y2="1.105" xlink:href="#linear-gradient-8"/>
    <linearGradient id="linear-gradient-63" x1="-145.827" y1="64.451" x2="-143.493" y2="61.051" xlink:href="#linear-gradient-52"/>
    <linearGradient id="linear-gradient-64" x1="0.452" y1="0.248" x2="1.03" y2="1.107" xlink:href="#linear-gradient-37"/>
    <linearGradient id="linear-gradient-65" x1="-35.91" y1="0.869" x2="-36.025" y2="15.64" gradientUnits="objectBoundingBox">
      <stop offset="0" stop-color="#e1473d"/>
      <stop offset="1" stop-color="#e9605a"/>
    </linearGradient>
    <linearGradient id="linear-gradient-66" x1="-61.892" y1="-36.914" x2="-62.526" y2="-36.539" xlink:href="#linear-gradient-52"/>
    <linearGradient id="linear-gradient-67" x1="0.854" y1="-0.126" x2="-1.841" y2="4.644" xlink:href="#linear-gradient-52"/>
    <linearGradient id="linear-gradient-68" x1="3.875" y1="-1.957" x2="-12.774" y2="11.031" xlink:href="#linear-gradient-52"/>
    <linearGradient id="linear-gradient-69" x1="1.541" y1="-0.477" x2="-15.109" y2="12.51" xlink:href="#linear-gradient-52"/>
    <linearGradient id="linear-gradient-70" x1="0.48" y1="1.262" x2="0.5" y2="0.352" xlink:href="#linear-gradient-37"/>
    <linearGradient id="linear-gradient-71" x1="4.707" y1="-1.282" x2="3.038" y2="-0.582" xlink:href="#linear-gradient-65"/>
    <linearGradient id="linear-gradient-72" x1="4.097" y1="-1.517" x2="2.393" y2="-0.559" xlink:href="#linear-gradient-65"/>
    <linearGradient id="linear-gradient-73" x1="1.257" y1="0.184" x2="-0.14" y2="0.653" xlink:href="#linear-gradient-8"/>
    <linearGradient id="linear-gradient-74" x1="232.142" y1="-25.477" x2="237.141" y2="-25.477" xlink:href="#linear-gradient-8"/>
    <linearGradient id="linear-gradient-75" x1="14.702" y1="-29.39" x2="14.717" y2="-27.882" xlink:href="#linear-gradient"/>
    <linearGradient id="linear-gradient-76" x1="0.912" y1="0.217" x2="0.088" y2="0.783" xlink:href="#linear-gradient-8"/>
    <linearGradient id="linear-gradient-77" x1="-7.364" y1="0.157" x2="-8.699" y2="0.651" xlink:href="#linear-gradient-8"/>
    <linearGradient id="linear-gradient-79" x1="-1.181" y1="3.771" x2="-0.181" y2="3.771" xlink:href="#linear-gradient-8"/>
    <linearGradient id="linear-gradient-80" x1="-1.025" y1="-3.641" x2="-1.01" y2="-2.133" xlink:href="#linear-gradient"/>
  </defs>
  <g id="Grupo_66205" data-name="Grupo 66205" transform="translate(-382.794 -197.773)">
    <g id="Grupo_66149" data-name="Grupo 66149" transform="translate(414.912 215.976)">
      <g id="Grupo_66147" data-name="Grupo 66147" transform="translate(17.612)">
        <path id="Trazado_115132" data-name="Trazado 115132" d="M661.906,354.8a1.339,1.339,0,0,1-1.262-.892l-1.87-5.283a27.22,27.22,0,0,1-7.334-2.971l-5.021,2.5a1.339,1.339,0,0,1-1.536-.245l-5.187-5.1a1.339,1.339,0,0,1-.27-1.531l2.415-5.062a27.219,27.219,0,0,1-3.091-7.284l-5.312-1.783a1.339,1.339,0,0,1-.913-1.258l-.06-7.278a1.34,1.34,0,0,1,.892-1.273l5.283-1.87a27.222,27.222,0,0,1,2.971-7.334l-2.5-5.021a1.339,1.339,0,0,1,.244-1.535l5.1-5.188a1.339,1.339,0,0,1,1.531-.27l5.061,2.415a27.215,27.215,0,0,1,7.284-3.091l1.784-5.313a1.34,1.34,0,0,1,1.259-.912l7.277-.06h.01a1.34,1.34,0,0,1,1.263.892l1.87,5.283a27.216,27.216,0,0,1,7.334,2.971l5.021-2.5a1.34,1.34,0,0,1,1.535.244l5.188,5.1a1.34,1.34,0,0,1,.27,1.531l-2.415,5.061a27.225,27.225,0,0,1,3.09,7.284l5.312,1.783a1.34,1.34,0,0,1,.913,1.258l.06,7.278a1.339,1.339,0,0,1-.892,1.273l-5.283,1.87a27.219,27.219,0,0,1-2.971,7.334l2.5,5.021a1.34,1.34,0,0,1-.244,1.535l-5.1,5.188a1.339,1.339,0,0,1-1.532.269l-5.061-2.414a27.221,27.221,0,0,1-7.284,3.09l-1.783,5.312a1.34,1.34,0,0,1-1.259.913l-7.277.06Zm-10.388-11.062.4.241A25.545,25.545,0,0,0,659.6,347.1l.453.1,2.1,5.923,6.79-.056,2-5.957.451-.109a25.548,25.548,0,0,0,7.632-3.238l.392-.248,5.674,2.707,4.761-4.84-2.8-5.629.241-.4a25.547,25.547,0,0,0,3.112-7.684l.1-.453,5.923-2.1-.055-6.789-5.957-2-.109-.451a25.56,25.56,0,0,0-3.238-7.632l-.248-.392,2.707-5.675-4.84-4.761-5.629,2.8-.4-.241a25.549,25.549,0,0,0-7.684-3.112l-.452-.1-2.1-5.923-6.79.056-2,5.956-.451.11a25.552,25.552,0,0,0-7.632,3.238l-.392.248-5.674-2.707-4.761,4.84,2.8,5.629-.241.4a25.553,25.553,0,0,0-3.112,7.684l-.1.453-5.923,2.1.056,6.789,5.957,2,.109.451a25.548,25.548,0,0,0,3.238,7.632l.248.392-2.707,5.675,4.84,4.761Zm7.471-47.594h0Zm6.2,44.353a18.4,18.4,0,0,1-.147-36.8,18.726,18.726,0,0,1,3.9.381.841.841,0,0,1-.341,1.646,16.716,16.716,0,1,0,10.873,7.67.841.841,0,1,1,1.435-.876A18.4,18.4,0,0,1,665.339,340.5Z" transform="translate(-632.466 -289.16)" fill="#bdd0fb"/>
        <path id="Trazado_115133" data-name="Trazado 115133" d="M767.865,431.875a7.3,7.3,0,0,1-1.833-14.371h0a7.3,7.3,0,1,1,3.691,14.131A7.35,7.35,0,0,1,767.865,431.875Zm-1.408-12.744a5.621,5.621,0,1,0,4.262.589,5.585,5.585,0,0,0-4.262-.589Z" transform="translate(-735.055 -391.748)" fill="#bdd0fb"/>
      </g>
      <g id="Grupo_66148" data-name="Grupo 66148" transform="translate(0 61.309)">
        <path id="Trazado_115134" data-name="Trazado 115134" d="M562.719,628.627a.87.87,0,0,1-.7-.354l-1.526-2.072a13.258,13.258,0,0,1-3.614-.327L555,627.642a.87.87,0,0,1-1,.137l-3.1-1.624a.87.87,0,0,1-.457-.9l.386-2.547a13.308,13.308,0,0,1-2.327-2.785l-2.572-.075a.872.872,0,0,1-.805-.61l-1.044-3.341a.869.869,0,0,1,.314-.96l2.072-1.527a13.327,13.327,0,0,1,.327-3.614l-1.767-1.874a.87.87,0,0,1-.138-1l1.624-3.1a.868.868,0,0,1,.9-.457l2.546.386a13.334,13.334,0,0,1,2.784-2.326l.075-2.573a.871.871,0,0,1,.61-.8L556.775,597a.871.871,0,0,1,.96.314l1.527,2.072a13.286,13.286,0,0,1,3.613.327l1.873-1.768a.872.872,0,0,1,1-.138l3.1,1.624a.87.87,0,0,1,.456.9l-.386,2.544a13.311,13.311,0,0,1,2.327,2.784l2.573.075a.87.87,0,0,1,.805.611l1.044,3.34a.872.872,0,0,1-.314.96l-2.072,1.527a13.315,13.315,0,0,1-.327,3.614l1.767,1.873a.87.87,0,0,1,.137,1l-1.623,3.1a.872.872,0,0,1-.9.456l-2.546-.386A13.3,13.3,0,0,1,567,624.165l-.075,2.573a.871.871,0,0,1-.609.8l-3.342,1.044A.867.867,0,0,1,562.719,628.627ZM561.1,624.9l1.771,2.4,2.809-.878.087-2.984.3-.177a12.066,12.066,0,0,0,3-2.509l.227-.263,2.954.448,1.365-2.607-2.05-2.173.087-.337a12.067,12.067,0,0,0,.352-3.9l-.025-.347,2.4-1.771-.878-2.809-2.984-.087-.177-.3a12.064,12.064,0,0,0-2.509-3l-.263-.228.447-2.954-2.607-1.365-2.173,2.05-.337-.087a12.047,12.047,0,0,0-3.9-.353l-.347.025-1.771-2.4-2.809.878-.087,2.984-.3.177a12.069,12.069,0,0,0-3,2.509l-.227.263-2.953-.447-1.366,2.607,2.05,2.173-.087.337a12.06,12.06,0,0,0-.352,3.9l.025.347-2.4,1.771.878,2.809,2.984.087.177.3a12.057,12.057,0,0,0,2.51,3l.264.228-.448,2.953,2.607,1.366,2.173-2.05.337.087a12.036,12.036,0,0,0,3.9.352Zm-6.51,1.765h0Zm19.156-8.579h0Zm-28.456-2.563v0Zm28.133-8.791h0Zm-20.052-4.943h0Zm14.691-1.638v0Zm-13.976-1.258h0Zm5.769,23.051a9.078,9.078,0,0,1-.819-18.118.63.63,0,1,1,.114,1.255,7.814,7.814,0,1,0,5.9,1.955.63.63,0,0,1,.839-.942,9.078,9.078,0,0,1-6.039,15.849Z" transform="translate(-544.045 -596.964)" fill="#bdd0fb"/>
      </g>
    </g>
    <g id="Grupo_66152" data-name="Grupo 66152" transform="translate(473.721 224.398)">
      <g id="Grupo_66151" data-name="Grupo 66151">
        <g id="Grupo_66150" data-name="Grupo 66150" transform="translate(0)">
          <rect id="Rectángulo_32381" data-name="Rectángulo 32381" width="92.046" height="207.209" rx="46.023" transform="translate(0 10.928)" fill="#91b3fa"/>
          <path id="Trazado_115135" data-name="Trazado 115135" d="M987.98,331.443H944.741a4.181,4.181,0,0,0-4.161,4.208v6.72h50.857v-6.72C991.437,333.211,990.166,331.443,987.98,331.443Z" transform="translate(-920.406 -331.443)" fill="url(#linear-gradient)"/>
        </g>
        <path id="Trazado_115136" data-name="Trazado 115136" d="M1016.4,493.443h-13.87v-14.29h-7.565v14.29h-14.29v7.565h14.29v13.87h7.565v-13.87h13.87Z" transform="translate(-952.512 -449.731)" fill="url(#linear-gradient-2)"/>
        <path id="Trazado_115137" data-name="Trazado 115137" d="M931.339,753.47V878.194a9.3,9.3,0,0,1-9.249,9.352H848.646a9.391,9.391,0,0,1-9.353-9.352V753.47Z" transform="translate(-839.293 -669.409)" fill="url(#linear-gradient-3)"/>
      </g>
      <path id="Trazado_115138" data-name="Trazado 115138" d="M1010.958,924.777a.366.366,0,0,0-.343-.182H994.868a.427.427,0,0,1-.375-.522l6.589-25.707a.392.392,0,0,0-.208-.449.387.387,0,0,0-.478.117l-28.088,37.66a.433.433,0,0,0-.036.431.412.412,0,0,0,.346.239h14.447a.366.366,0,0,1,.3.117.361.361,0,0,1,.08.309l-6,29.767a.384.384,0,0,0,.229.43.388.388,0,0,0,.47-.138l28.787-41.683A.367.367,0,0,0,1010.958,924.777Z" transform="translate(-945.751 -785.055)" fill="#bdd0fb"/>
    </g>
    <g id="Grupo_66157" data-name="Grupo 66157" transform="translate(673.877 265.823)">
      <g id="Grupo_66153" data-name="Grupo 66153" transform="translate(41.56 42.636)">
        <path id="Trazado_115139" data-name="Trazado 115139" d="M2065.306,836.767l1.853-83.3h4.867v85.211Z" transform="translate(-2062.821 -753.471)" fill="#7d97f4"/>
        <path id="Trazado_115140" data-name="Trazado 115140" d="M2064.481,1173.59c0,1.315-.624,2.312-1.393,2.312h-8.865c-.769,0-1.393-1-1.393-2.312h0c0-1.316.624-2.312,1.393-2.312h8.865c.769,0,1.393,1,1.393,2.312Z" transform="translate(-2052.83 -1088.058)" fill="url(#linear-gradient-4)"/>
      </g>
      <g id="Grupo_66156" data-name="Grupo 66156" transform="translate(0 0)">
        <path id="Trazado_115141" data-name="Trazado 115141" d="M2113.1,539.972c-.978-4.81-17.094,23.005-22.445,29.848s-1.177,8.992-1.177,8.992l.7.663h0a4.922,4.922,0,0,0,5.32-2.278C2100.45,568.391,2113.9,543.9,2113.1,539.972Z" transform="translate(-2039.379 -539.416)" fill="url(#linear-gradient-5)"/>
        <path id="Trazado_115142" data-name="Trazado 115142" d="M2113.528,805.727c4.69,1.448-11.994-26.031-15.432-34.008s-7.273-5.282-7.273-5.282l-.865.359,0,0a4.618,4.618,0,0,0-.6,5.7C2094.707,781.06,2109.7,804.545,2113.528,805.727Z" transform="translate(-2039.946 -720.868)" fill="url(#linear-gradient-6)"/>
        <path id="Trazado_115143" data-name="Trazado 115143" d="M1844.545,750.631c-4.121-2.667,27.659-7.511,35.983-9.994s8.485,2.187,8.485,2.187l.046.893v0a4.231,4.231,0,0,1-3.748,4.121C1875.306,749.231,1847.909,752.809,1844.545,750.631Z" transform="translate(-1844.178 -699.975)" fill="url(#linear-gradient-7)"/>
        <g id="Grupo_66155" data-name="Grupo 66155" transform="translate(42.494 36.399)">
          <circle id="Elipse_4754" data-name="Elipse 4754" cx="4.998" cy="4.998" r="4.998" transform="translate(0 9.534) rotate(-72.514)" fill="url(#linear-gradient-8)"/>
          <g id="Grupo_66154" data-name="Grupo 66154" transform="translate(2.752 2.766)">
            <path id="Trazado_115144" data-name="Trazado 115144" d="M2074.869,743.1a3.528,3.528,0,1,1,3.3-2.286h0a3.534,3.534,0,0,1-3.3,2.286Zm0-6.636a3.107,3.107,0,1,0,2.908,4.2h0a3.11,3.11,0,0,0-2.908-4.2Z" transform="translate(-2071.339 -736.047)" fill="#91b3fa"/>
          </g>
        </g>
      </g>
    </g>
    <g id="Grupo_66162" data-name="Grupo 66162" transform="translate(611.672 270.026)">
      <g id="Grupo_66158" data-name="Grupo 66158" transform="translate(41.56 42.636)">
        <path id="Trazado_115145" data-name="Trazado 115145" d="M1753.005,857.868l1.853-83.3h4.867v85.211Z" transform="translate(-1750.52 -774.572)" fill="#7d97f4"/>
        <path id="Trazado_115146" data-name="Trazado 115146" d="M1752.18,1194.691c0,1.316-.624,2.312-1.393,2.312h-8.865c-.77,0-1.393-1-1.393-2.312h0c0-1.316.623-2.312,1.393-2.312h8.865c.769,0,1.393,1,1.393,2.312Z" transform="translate(-1740.529 -1109.159)" fill="url(#linear-gradient-4)"/>
      </g>
      <g id="Grupo_66161" data-name="Grupo 66161" transform="translate(0 0)">
        <path id="Trazado_115147" data-name="Trazado 115147" d="M1800.8,561.073c-.978-4.81-17.094,23.005-22.445,29.848s-1.177,8.992-1.177,8.992l.7.663h0a4.921,4.921,0,0,0,5.319-2.278C1788.149,589.492,1801.6,565,1800.8,561.073Z" transform="translate(-1727.078 -560.517)" fill="url(#linear-gradient-10)"/>
        <path id="Trazado_115148" data-name="Trazado 115148" d="M1801.227,826.829c4.691,1.448-11.993-26.031-15.432-34.008s-7.273-5.282-7.273-5.282l-.865.359,0,0a4.618,4.618,0,0,0-.6,5.7C1782.406,802.161,1797.4,825.646,1801.227,826.829Z" transform="translate(-1727.645 -741.969)" fill="url(#linear-gradient-11)"/>
        <path id="Trazado_115149" data-name="Trazado 115149" d="M1532.244,771.733c-4.121-2.667,27.659-7.511,35.984-9.994s8.485,2.187,8.485,2.187l.046.893v0a4.231,4.231,0,0,1-3.748,4.121C1563.006,770.332,1535.609,773.911,1532.244,771.733Z" transform="translate(-1531.877 -721.076)" fill="url(#linear-gradient-12)"/>
        <g id="Grupo_66160" data-name="Grupo 66160" transform="translate(42.885 36.79)">
          <circle id="Elipse_4755" data-name="Elipse 4755" cx="4.998" cy="4.998" r="4.998" transform="matrix(0.195, -0.981, 0.981, 0.195, 0, 9.803)" fill="url(#linear-gradient-13)"/>
          <g id="Grupo_66159" data-name="Grupo 66159" transform="translate(2.361 2.375)">
            <path id="Trazado_115150" data-name="Trazado 115150" d="M1762.568,764.205a3.528,3.528,0,1,1,3.3-2.286h0a3.534,3.534,0,0,1-3.3,2.286Zm0-6.636a3.107,3.107,0,1,0,2.908,4.2h0a3.11,3.11,0,0,0-2.908-4.2Z" transform="translate(-1759.038 -757.149)" fill="#91b3fa"/>
          </g>
        </g>
      </g>
    </g>
    <g id="Grupo_66166" data-name="Grupo 66166" transform="translate(646.173 251.343)">
      <path id="Trazado_115151" data-name="Trazado 115151" d="M1744.839,510.847a.4.4,0,0,1-.217-.066.534.534,0,0,1-.212-.5l.718-6.946a.377.377,0,0,1-.155.036h-1.4c-.23,0-.351-.253-.448-.457l-.04-.081a.661.661,0,0,1-.067-.525l1.734-6.8a.3.3,0,0,1,.174-.222.345.345,0,0,1,.318.062.443.443,0,0,0,.071.039h5.937c-.02,0,.01-.026.027-.042a.338.338,0,0,1,.308-.112.275.275,0,0,1,.19.181.474.474,0,0,1-.028.495l-2.221,4.277a.711.711,0,0,0-.014.439.5.5,0,0,0,.15.229l1.052,0a.47.47,0,0,1,.54.311.718.718,0,0,1-.092.659l-6.014,8.858A.375.375,0,0,1,1744.839,510.847Zm.36-7.976a.274.274,0,0,1,.232.136.325.325,0,0,1,.12.324l-.723,6.992a.189.189,0,0,0,.006.07l5.983-8.811a.3.3,0,0,0,.041-.294c-.014-.021-.066-.021-.1-.02h-1.109c-.31,0-.48-.379-.525-.5a1.1,1.1,0,0,1,.032-.783l2.18-4.2a.322.322,0,0,1-.083.011h-5.944a.435.435,0,0,1-.187-.045l-1.7,6.65a.251.251,0,0,0,.032.226l.047.1a1.634,1.634,0,0,0,.118.219h1.349c-.005,0,.007-.01.02-.017A.431.431,0,0,1,1745.2,502.871Zm-.241-7.314.2.052,0-.006Z" transform="translate(-1735.444 -489.545)" fill="#91b3fa"/>
      <g id="Grupo_66165" data-name="Grupo 66165" transform="translate(0 0)">
        <g id="Grupo_66163" data-name="Grupo 66163" transform="translate(0 13.444)">
          <path id="Trazado_115152" data-name="Trazado 115152" d="M1812.963,559.587a.207.207,0,0,1-.125-.042.21.21,0,0,1-.043-.294c.205-.274.4-.561.581-.853a.21.21,0,1,1,.358.221c-.187.3-.389.6-.6.883A.21.21,0,0,1,1812.963,559.587Z" transform="translate(-1791.309 -553.501)" fill="#91b3fa"/>
          <path id="Trazado_115153" data-name="Trazado 115153" d="M1720.4,557.372a12.313,12.313,0,0,1-1.537-.1.211.211,0,0,1-.182-.235.213.213,0,0,1,.235-.182,11.811,11.811,0,0,0,2.062.079.21.21,0,0,1,.021.42Q1720.7,557.372,1720.4,557.372Zm2.669-.3a.21.21,0,0,1-.047-.415,11.7,11.7,0,0,0,1.962-.637.21.21,0,1,1,.165.387,12.086,12.086,0,0,1-2.033.66A.212.212,0,0,1,1723.067,557.071Zm-6.231-.239a.214.214,0,0,1-.063-.009,12.169,12.169,0,0,1-1.977-.81.21.21,0,1,1,.193-.373,11.761,11.761,0,0,0,1.909.782.21.21,0,0,1-.062.411Zm10.082-1.4a.21.21,0,0,1-.115-.386c.278-.181.552-.377.814-.582.28-.219.553-.452.81-.693a.21.21,0,0,1,.287.307c-.266.249-.549.491-.839.717-.272.212-.555.415-.842.6A.209.209,0,0,1,1726.917,555.433Zm-13.8-.523a.211.211,0,0,1-.128-.043,12.2,12.2,0,0,1-1.574-1.445.21.21,0,0,1,.31-.284,11.749,11.749,0,0,0,1.52,1.395.21.21,0,0,1-.128.377Zm-2.824-3.087a.21.21,0,0,1-.178-.1,12.205,12.205,0,0,1-.984-1.9.21.21,0,0,1,.389-.16,11.723,11.723,0,0,0,.95,1.831.21.21,0,0,1-.177.323Z" transform="translate(-1708.316 -546.487)" fill="#91b3fa"/>
          <path id="Trazado_115154" data-name="Trazado 115154" d="M1705.478,535.67a.21.21,0,0,1-.205-.166c-.074-.346-.135-.7-.179-1.053a.21.21,0,0,1,.417-.052c.042.341.1.683.173,1.017a.21.21,0,0,1-.161.25A.2.2,0,0,1,1705.478,535.67Z" transform="translate(-1705.093 -534.215)" fill="#91b3fa"/>
        </g>
        <g id="Grupo_66164" data-name="Grupo 66164" transform="translate(2.26)">
          <path id="Trazado_115155" data-name="Trazado 115155" d="M1716.647,488.107a.21.21,0,0,1-.169-.336c.212-.285.438-.564.675-.829a.21.21,0,0,1,.314.28c-.228.256-.447.525-.651.8A.21.21,0,0,1,1716.647,488.107Z" transform="translate(-1716.437 -482.857)" fill="#91b3fa"/>
          <path id="Trazado_115156" data-name="Trazado 115156" d="M1746.22,475.1a.21.21,0,0,1-.2-.14,11.7,11.7,0,0,0-.841-1.846.21.21,0,0,1,.366-.207,12.114,12.114,0,0,1,.872,1.913.21.21,0,0,1-.128.268A.212.212,0,0,1,1746.22,475.1Zm-2.023-3.583a.21.21,0,0,1-.163-.077,11.818,11.818,0,0,0-1.415-1.454.21.21,0,0,1,.275-.318,12.234,12.234,0,0,1,1.465,1.506.21.21,0,0,1-.162.343Zm-16.69-1.782a.21.21,0,0,1-.131-.374l.089-.07a12.255,12.255,0,0,1,1.662-1.093.21.21,0,1,1,.2.369,11.9,11.9,0,0,0-1.606,1.056l-.084.066A.209.209,0,0,1,1727.507,469.736Zm13.575-.908a.209.209,0,0,1-.108-.03,11.719,11.719,0,0,0-1.825-.885.21.21,0,1,1,.15-.393,12.165,12.165,0,0,1,1.891.917.21.21,0,0,1-.108.391Zm-9.963-1.064a.21.21,0,0,1-.067-.409,12.14,12.14,0,0,1,2.042-.5.21.21,0,0,1,.064.415,11.71,11.71,0,0,0-1.971.48A.208.208,0,0,1,1731.119,467.765Zm6.121-.4a.2.2,0,0,1-.041,0,11.822,11.822,0,0,0-2.017-.216.211.211,0,0,1-.206-.215.216.216,0,0,1,.214-.206,12.3,12.3,0,0,1,2.089.223.21.21,0,0,1-.04.416Z" transform="translate(-1725.134 -466.72)" fill="#91b3fa"/>
          <path id="Trazado_115157" data-name="Trazado 115157" d="M1824.193,518.246a.21.21,0,0,1-.209-.194c-.026-.341-.069-.686-.125-1.024a.21.21,0,1,1,.415-.069c.059.35.1.707.13,1.061a.21.21,0,0,1-.193.226Z" transform="translate(-1802.459 -506.811)" fill="#91b3fa"/>
        </g>
      </g>
    </g>
    <g id="Grupo_66170" data-name="Grupo 66170" transform="translate(624.595 278.429)">
      <path id="Trazado_115158" data-name="Trazado 115158" d="M1626.648,636.933a.365.365,0,0,1-.2-.06.459.459,0,0,1-.183-.429l.513-4.961-.037,0h-1.052c-.209,0-.3-.226-.372-.424-.016-.042-.03-.079-.042-.1a.426.426,0,0,1-.055-.375l1.3-5.06a.24.24,0,0,1,.2-.192c.16-.022.24.112.293.2.01.018.027.046.042.068h4.329c.013-.024.026-.051.035-.07.054-.111.112-.257.282-.242l.137.006.07.152c.009.022.015.035.018.042l.07.139-.113.129-1.671,3.168a.552.552,0,0,0-.007.3.538.538,0,0,0,.086.154h.77a.411.411,0,0,0,.05,0,.336.336,0,0,1,.406.23.547.547,0,0,1-.076.519l-4.526,6.655A.325.325,0,0,1,1626.648,636.933Zm-.076-.385h0Zm.491-5.6.183.08-.017.194-.531,5.138,4.4-6.469a.151.151,0,0,0,.038-.093c-.028,0-.049,0-.07,0h-.8c-.253,0-.395-.3-.444-.424a.925.925,0,0,1,.026-.649l1.431-2.71H1627a.273.273,0,0,1-.151-.045l-1.214,4.711a.27.27,0,0,0-.009.04l.028.035a1.48,1.48,0,0,1,.062.148c.015.039.042.108.064.155h.908l.005-.006a.3.3,0,0,1,.254-.135h.009l.011-.012Zm.058.076.01.013Z" transform="translate(-1619.537 -620.79)" fill="#91b3fa"/>
      <g id="Grupo_66169" data-name="Grupo 66169" transform="translate(0 0)">
        <g id="Grupo_66167" data-name="Grupo 66167" transform="translate(0 10.118)">
          <path id="Trazado_115159" data-name="Trazado 115159" d="M1677.184,672.9a.21.21,0,0,1-.164-.341,8.771,8.771,0,0,0,.59-.839.21.21,0,1,1,.357.221,9.1,9.1,0,0,1-.618.88A.21.21,0,0,1,1677.184,672.9Z" transform="translate(-1660.996 -668.016)" fill="#91b3fa"/>
          <path id="Trazado_115160" data-name="Trazado 115160" d="M1609.882,674.326c-.277,0-.558-.013-.835-.038a.21.21,0,1,1,.038-.419,8.879,8.879,0,0,0,2.169-.072.21.21,0,1,1,.065.415A9.292,9.292,0,0,1,1609.882,674.326Zm-2.987-.508a.206.206,0,0,1-.069-.012,9.184,9.184,0,0,1-2.036-1.011.21.21,0,1,1,.232-.351,8.758,8.758,0,0,0,1.943.965.21.21,0,0,1-.069.409Zm6.527-.219a.21.21,0,0,1-.083-.4,8.809,8.809,0,0,0,1.873-1.1.21.21,0,1,1,.255.334,9.2,9.2,0,0,1-1.962,1.149A.21.21,0,0,1,1613.422,673.6Zm-10.2-2.217a.209.209,0,0,1-.156-.069q-.231-.255-.447-.53a9.3,9.3,0,0,1-.865-1.327.21.21,0,1,1,.371-.2,8.857,8.857,0,0,0,.825,1.267q.206.263.426.507a.21.21,0,0,1-.156.351Z" transform="translate(-1600.739 -666.031)" fill="#91b3fa"/>
          <path id="Trazado_115161" data-name="Trazado 115161" d="M1597.157,654.956a.21.21,0,0,1-.2-.16,9.234,9.234,0,0,1-.2-1.057.21.21,0,0,1,.417-.052,8.821,8.821,0,0,0,.186,1.008.21.21,0,0,1-.2.26Z" transform="translate(-1596.757 -653.504)" fill="#91b3fa"/>
        </g>
        <g id="Grupo_66168" data-name="Grupo 66168" transform="translate(1.701)">
          <path id="Trazado_115162" data-name="Trazado 115162" d="M1605.5,618.14a.21.21,0,0,1-.169-.335,9.229,9.229,0,0,1,.691-.824.21.21,0,0,1,.306.289,8.664,8.664,0,0,0-.659.786A.21.21,0,0,1,1605.5,618.14Z" transform="translate(-1605.294 -614.085)" fill="#91b3fa"/>
          <path id="Trazado_115163" data-name="Trazado 115163" d="M1630.342,608.292a.21.21,0,0,1-.19-.12,8.887,8.887,0,0,0-1.026-1.665l-.112-.14a.21.21,0,1,1,.326-.265l.117.147a9.281,9.281,0,0,1,1.074,1.744.21.21,0,0,1-.1.28A.206.206,0,0,1,1630.342,608.292Zm-2.737-3.363a.209.209,0,0,1-.126-.042,8.733,8.733,0,0,0-1.848-1.064.21.21,0,1,1,.164-.387,9.15,9.15,0,0,1,1.937,1.115.21.21,0,0,1-.127.378Zm-10.277-.37a.21.21,0,0,1-.114-.387,9.163,9.163,0,0,1,2.012-.975.21.21,0,1,1,.136.4,8.75,8.75,0,0,0-1.919.931A.209.209,0,0,1,1617.328,604.559Zm6.286-1.321-.033,0a8.9,8.9,0,0,0-2.132-.078.21.21,0,1,1-.036-.419,9.271,9.271,0,0,1,2.234.082.21.21,0,0,1-.033.418Z" transform="translate(-1614.762 -602.706)" fill="#91b3fa"/>
          <path id="Trazado_115164" data-name="Trazado 115164" d="M1686.245,640.561a.21.21,0,0,1-.209-.194,8.825,8.825,0,0,0-.139-1.016.21.21,0,1,1,.412-.081,9.252,9.252,0,0,1,.146,1.065.21.21,0,0,1-.193.226Z" transform="translate(-1669.839 -631.851)" fill="#91b3fa"/>
        </g>
      </g>
    </g>
    <g id="Grupo_66171" data-name="Grupo 66171" transform="translate(632.256 327.617)">
      <path id="Trazado_115165" data-name="Trazado 115165" d="M1635.64,855.363a.42.42,0,0,1-.237-.768c2.788-1.9,6.257-4.255,9.994-4.265a16.326,16.326,0,0,1,5.973,1.509,20.045,20.045,0,0,0,4.461,1.371c2.219.313,4.074-.495,6.038-1.349a27.839,27.839,0,0,1,2.715-1.068c3.777-1.193,7.054-1.448,9.739-.756a16.382,16.382,0,0,1,3.8,1.678,13.885,13.885,0,0,0,4.238,1.75c5.623,1.03,13.419.325,17.251-3.659a.42.42,0,1,1,.606.583c-2.932,3.048-9.636,5.438-18.008,3.9a14.726,14.726,0,0,1-4.492-1.839,15.5,15.5,0,0,0-3.606-1.6c-2.531-.652-5.652-.4-9.276.743a27.179,27.179,0,0,0-2.633,1.037c-1.984.863-4.036,1.755-6.49,1.41a20.657,20.657,0,0,1-4.652-1.422,15.41,15.41,0,0,0-5.641-1.45h-.021c-3.48.009-6.831,2.288-9.524,4.12A.42.42,0,0,1,1635.64,855.363Z" transform="translate(-1635.219 -849.658)" fill="#fff"/>
      <path id="Trazado_115166" data-name="Trazado 115166" d="M1713.821,884.83c-1.429,0-2.593-.069-3.3-.124a21.672,21.672,0,0,1-6.976-2.171c-2.447-1.078-4.759-2.107-7.319-2.079a19.955,19.955,0,0,0-6.926,1.686c-1.125.42-2.287.855-3.485,1.187-4.608,1.277-9.208-.388-12.7-1.983a.42.42,0,1,1,.349-.765c3.363,1.535,7.781,3.143,12.127,1.937,1.163-.322,2.308-.75,3.415-1.164a20.893,20.893,0,0,1,7.214-1.739h.071c2.714,0,5.194,1.093,7.593,2.15a21.044,21.044,0,0,0,6.7,2.1c5.3.418,12.422-.141,16.485-2.961a.42.42,0,0,1,.479.69C1723.637,884.313,1717.736,884.83,1713.821,884.83Z" transform="translate(-1665.369 -873.648)" fill="#fff"/>
    </g>
    <g id="Grupo_66172" data-name="Grupo 66172" transform="translate(682.759 288.133)">
      <path id="Trazado_115167" data-name="Trazado 115167" d="M1889.191,657.131a.42.42,0,0,1-.237-.768c2.788-1.9,6.258-4.255,9.995-4.265h.023a16.267,16.267,0,0,1,5.95,1.509,20.042,20.042,0,0,0,4.461,1.371c2.221.313,4.075-.494,6.038-1.349a27.835,27.835,0,0,1,2.714-1.068c3.777-1.193,7.054-1.448,9.739-.755a16.366,16.366,0,0,1,3.8,1.679,13.872,13.872,0,0,0,4.238,1.749c5.622,1.03,13.42.325,17.25-3.659a.42.42,0,0,1,.606.583c-2.931,3.048-9.635,5.438-18.008,3.9a14.738,14.738,0,0,1-4.491-1.839,15.5,15.5,0,0,0-3.606-1.6c-2.531-.652-5.652-.4-9.276.743a27.224,27.224,0,0,0-2.633,1.037c-1.984.863-4.035,1.756-6.49,1.41a20.663,20.663,0,0,1-4.652-1.422,15.407,15.407,0,0,0-5.641-1.45h-.021c-3.479.009-6.831,2.288-9.524,4.12A.42.42,0,0,1,1889.191,657.131Z" transform="translate(-1888.77 -651.426)" fill="#fff"/>
      <path id="Trazado_115168" data-name="Trazado 115168" d="M1967.372,686.6c-1.429,0-2.593-.069-3.3-.125a21.665,21.665,0,0,1-6.976-2.171c-2.447-1.078-4.755-2.088-7.319-2.079a19.944,19.944,0,0,0-6.926,1.686c-1.125.421-2.287.855-3.485,1.187-4.608,1.278-9.208-.389-12.7-1.983a.42.42,0,1,1,.349-.765c3.363,1.535,7.781,3.142,12.127,1.937,1.163-.322,2.308-.75,3.415-1.164a20.886,20.886,0,0,1,7.214-1.739h.071c2.714,0,5.194,1.093,7.593,2.15a21.031,21.031,0,0,0,6.7,2.1c5.3.418,12.422-.141,16.485-2.961a.42.42,0,1,1,.479.691C1977.188,686.082,1971.287,686.6,1967.372,686.6Z" transform="translate(-1918.92 -675.417)" fill="#fff"/>
    </g>
    <g id="Grupo_66177" data-name="Grupo 66177" transform="translate(576.34 355.576)">
      <g id="Grupo_66173" data-name="Grupo 66173" transform="translate(39.023 21.392)">
        <rect id="Rectángulo_32382" data-name="Rectángulo 32382" width="11.768" height="59.263" transform="translate(7.565)" fill="url(#linear-gradient-14)"/>
        <path id="Trazado_115169" data-name="Trazado 115169" d="M1576.049,1392.706c0,.138.087.252-.076.253l-24.611.18a.947.947,0,0,1-.952-.987v-1.23a1.09,1.09,0,0,1,.369-.728,1.106,1.106,0,0,1,.77-.3l24.422.421c.157,0,.077.11.077.244Z" transform="translate(-1550.41 -1331.642)" fill="url(#linear-gradient-15)"/>
      </g>
      <g id="Grupo_66176" data-name="Grupo 66176" transform="translate(0)">
        <g id="Grupo_66175" data-name="Grupo 66175">
          <path id="Trazado_115170" data-name="Trazado 115170" d="M1475.734,990.026l-94.093,1.166a1.748,1.748,0,0,0-1.39.89l-25.656,50.6c-.25.492-.03.894.491.9l93.956.563a1.774,1.774,0,0,0,1.462-.916l25.792-52.3A.569.569,0,0,0,1475.734,990.026Z" transform="translate(-1354.492 -990.026)" fill="#bdd0fb"/>
          <g id="Grupo_66174" data-name="Grupo 66174" transform="translate(4.827 3.666)">
            <path id="Trazado_115171" data-name="Trazado 115171" d="M1492.947,1011.92l-25.6.286a1.747,1.747,0,0,0-1.392.89l-5.895,11.634c-.247.488-.024.88.5.877l25.592-.166a1.756,1.756,0,0,0,1.412-.9l5.9-11.746C1493.711,1012.306,1493.479,1011.914,1492.947,1011.92Z" transform="translate(-1443.777 -1011.224)" fill="url(#linear-gradient-16)"/>
            <path id="Trazado_115172" data-name="Trazado 115172" d="M1645.178,1010.193l-26.15.292a1.766,1.766,0,0,0-1.413.9l-5.905,11.757c-.247.493-.016.89.518.886l26.14-.17a1.775,1.775,0,0,0,1.433-.907l5.914-11.871C1645.962,1010.584,1645.721,1010.187,1645.178,1010.193Z" transform="translate(-1565.224 -1009.841)" fill="url(#linear-gradient-17)"/>
            <path id="Trazado_115173" data-name="Trazado 115173" d="M1800.674,1008.429l-26.715.3a1.784,1.784,0,0,0-1.435.91l-5.915,11.882c-.248.5-.007.9.538.9l26.706-.174a1.793,1.793,0,0,0,1.456-.917l5.923-12A.569.569,0,0,0,1800.674,1008.429Z" transform="translate(-1689.273 -1008.429)" fill="url(#linear-gradient-18)"/>
            <path id="Trazado_115174" data-name="Trazado 115174" d="M1452.444,1092.337l-25.59.144a1.74,1.74,0,0,0-1.394.889l-5.922,11.688c-.248.49-.026.887.5.886l25.58-.023a1.749,1.749,0,0,0,1.414-.9l5.932-11.8C1453.207,1092.731,1452.976,1092.334,1452.444,1092.337Z" transform="translate(-1411.328 -1075.624)" fill="url(#linear-gradient-19)"/>
            <path id="Trazado_115175" data-name="Trazado 115175" d="M1604.6,1091.467l-26.139.147a1.757,1.757,0,0,0-1.415.9l-5.933,11.812c-.249.5-.018.9.516.9l26.129-.024a1.765,1.765,0,0,0,1.435-.906l5.942-11.927C1605.385,1091.865,1605.146,1091.464,1604.6,1091.467Z" transform="translate(-1532.715 -1074.927)" fill="url(#linear-gradient-20)"/>
            <path id="Trazado_115176" data-name="Trazado 115176" d="M1760.032,1090.578l-26.7.15a1.776,1.776,0,0,0-1.437.908l-5.943,11.939c-.249.5-.009.906.536.905l26.7-.024a1.784,1.784,0,0,0,1.457-.916l5.951-12.056A.575.575,0,0,0,1760.032,1090.578Z" transform="translate(-1656.709 -1074.215)" fill="url(#linear-gradient-21)"/>
            <path id="Trazado_115177" data-name="Trazado 115177" d="M1411.752,1173.132h-25.578a1.732,1.732,0,0,0-1.4.888l-5.949,11.743c-.25.492-.029.893.493.9l25.567.121a1.739,1.739,0,0,0,1.415-.9l5.96-11.856C1412.514,1173.533,1412.284,1173.132,1411.752,1173.132Z" transform="translate(-1378.727 -1140.326)" fill="url(#linear-gradient-22)"/>
            <path id="Trazado_115178" data-name="Trazado 115178" d="M1563.835,1173.126h-26.127a1.748,1.748,0,0,0-1.416.9l-5.961,11.868c-.25.5-.02.9.513.905l26.117.124a1.757,1.757,0,0,0,1.437-.905l5.97-11.984C1564.617,1173.532,1564.378,1173.126,1563.835,1173.126Z" transform="translate(-1500.053 -1140.321)" fill="url(#linear-gradient-23)"/>
            <path id="Trazado_115179" data-name="Trazado 115179" d="M1717.773,1173.12h-26.694a1.767,1.767,0,0,0-1.438.907l-6.424,12.906,27.671.131a1.776,1.776,0,0,0,1.459-.915l5.979-12.114A.58.58,0,0,0,1717.773,1173.12Z" transform="translate(-1622.568 -1140.316)" fill="url(#linear-gradient-24)"/>
          </g>
        </g>
        <path id="Trazado_115180" data-name="Trazado 115180" d="M1752.123,1168.95h-.005l-18.194-.1a.21.21,0,0,1,0-.42h0l18.194.1h0c.437,0,.922-.506,1.157-.983l9.508-19.27a.21.21,0,0,1,.377.186l-9.508,19.27A2.009,2.009,0,0,1,1752.123,1168.95Z" transform="translate(-1658.18 -1116.662)" fill="#bdd0fb"/>
        <path id="Trazado_115181" data-name="Trazado 115181" d="M1448.031,1017.093a.2.2,0,0,1-.095-.023.21.21,0,0,1-.093-.282l8.126-16.033a1.943,1.943,0,0,1,1.676-.832l20.008-.239a.21.21,0,1,1,0,.42l-20.008.239a1.565,1.565,0,0,0-1.306.6l-8.126,16.033A.21.21,0,0,1,1448.031,1017.093Z" transform="translate(-1429.231 -997.76)" fill="#bdd0fb"/>
      </g>
    </g>
    <g id="Grupo_66182" data-name="Grupo 66182" transform="translate(682.051 368.965)">
      <g id="Grupo_66178" data-name="Grupo 66178" transform="translate(32.084 17.25)">
        <rect id="Rectángulo_32383" data-name="Rectángulo 32383" width="9.247" height="49.596" transform="translate(6.725)" fill="url(#linear-gradient-25)"/>
        <path id="Trazado_115182" data-name="Trazado 115182" d="M2068.149,1390.043c0,.115-.177.208-.312.209l-20.549.148c-.458,0-1-.362-1-.816v-1.016c0-.225.226-.442.389-.6a1.019,1.019,0,0,1,.678-.245l20.454.348c.13,0,.334.091.334.2Z" transform="translate(-2046.293 -1339.146)" fill="url(#linear-gradient-26)"/>
      </g>
      <g id="Grupo_66181" data-name="Grupo 66181">
        <g id="Grupo_66180" data-name="Grupo 66180">
          <path id="Trazado_115183" data-name="Trazado 115183" d="M1985.881,1057.984a.47.47,0,0,0-.464-.74l-77.764.964a1.445,1.445,0,0,0-1.149.735l-21.2,41.816c-.206.407-.025.739.406.741l77.65.466a1.467,1.467,0,0,0,1.208-.757Z" transform="translate(-1885.217 -1057.245)" fill="#bdd0fb"/>
          <g id="Grupo_66179" data-name="Grupo 66179" transform="translate(3.989 3.029)">
            <path id="Trazado_115184" data-name="Trazado 115184" d="M1999.643,1075.339l-21.16.236a1.444,1.444,0,0,0-1.151.736l-4.871,9.615c-.2.4-.02.727.412.724l21.151-.137a1.451,1.451,0,0,0,1.167-.742l4.879-9.708C2000.275,1075.659,2000.083,1075.334,1999.643,1075.339Z" transform="translate(-1959.006 -1074.764)" fill="url(#linear-gradient-16)"/>
            <path id="Trazado_115185" data-name="Trazado 115185" d="M2125.455,1073.912l-21.612.242a1.459,1.459,0,0,0-1.168.744l-4.88,9.717c-.2.407-.013.735.428.732l21.6-.141a1.466,1.466,0,0,0,1.185-.75l4.887-9.811C2126.1,1074.235,2125.9,1073.907,2125.455,1073.912Z" transform="translate(-2059.377 -1073.621)" fill="url(#linear-gradient-17)"/>
            <path id="Trazado_115186" data-name="Trazado 115186" d="M2253.967,1072.454l-22.079.247a1.475,1.475,0,0,0-1.186.752l-4.888,9.82c-.205.412-.006.743.445.74l22.072-.144a1.481,1.481,0,0,0,1.2-.758l4.895-9.917A.471.471,0,0,0,2253.967,1072.454Z" transform="translate(-2161.898 -1072.454)" fill="url(#linear-gradient-18)"/>
            <path id="Trazado_115187" data-name="Trazado 115187" d="M1966.169,1141.8l-21.149.119a1.437,1.437,0,0,0-1.152.735l-4.894,9.66c-.205.4-.021.733.41.732l21.141-.019a1.445,1.445,0,0,0,1.168-.741l4.9-9.753C1966.8,1142.127,1966.609,1141.8,1966.169,1141.8Z" transform="translate(-1932.188 -1127.988)" fill="url(#linear-gradient-30)"/>
            <path id="Trazado_115188" data-name="Trazado 115188" d="M2091.921,1141.082l-21.6.122a1.452,1.452,0,0,0-1.169.743l-4.9,9.762c-.206.409-.015.741.426.74l21.594-.02a1.459,1.459,0,0,0,1.186-.749l4.911-9.858C2092.569,1141.411,2092.37,1141.079,2091.921,1141.082Z" transform="translate(-2032.51 -1127.412)" fill="url(#linear-gradient-20)"/>
            <path id="Trazado_115189" data-name="Trazado 115189" d="M2220.377,1140.347l-22.07.124a1.467,1.467,0,0,0-1.187.751l-4.911,9.867c-.206.414-.008.749.443.748l22.063-.02a1.474,1.474,0,0,0,1.2-.757l4.918-9.964A.475.475,0,0,0,2220.377,1140.347Z" transform="translate(-2134.985 -1126.824)" fill="url(#linear-gradient-32)"/>
            <path id="Trazado_115190" data-name="Trazado 115190" d="M1932.539,1208.574H1911.4a1.431,1.431,0,0,0-1.153.734l-4.917,9.7c-.206.407-.023.738.408.74l21.13.1a1.437,1.437,0,0,0,1.17-.74l4.925-9.8C1933.168,1208.906,1932.979,1208.574,1932.539,1208.574Z" transform="translate(-1905.245 -1181.461)" fill="url(#linear-gradient-33)"/>
            <path id="Trazado_115191" data-name="Trazado 115191" d="M2058.229,1208.57h-21.593a1.445,1.445,0,0,0-1.17.742l-4.926,9.808c-.207.411-.017.746.424.748l21.584.1a1.452,1.452,0,0,0,1.188-.748l4.934-9.9C2058.875,1208.905,2058.678,1208.57,2058.229,1208.57Z" transform="translate(-2005.516 -1181.458)" fill="url(#linear-gradient-23)"/>
            <path id="Trazado_115192" data-name="Trazado 115192" d="M2185.452,1208.565h-22.062a1.46,1.46,0,0,0-1.188.75l-5.309,10.666,22.869.108a1.467,1.467,0,0,0,1.206-.756l4.942-10.012A.479.479,0,0,0,2185.452,1208.565Z" transform="translate(-2106.769 -1181.454)" fill="url(#linear-gradient-35)"/>
          </g>
        </g>
        <path id="Trazado_115193" data-name="Trazado 115193" d="M2213.694,1205.008h0l-15.037-.08a.21.21,0,0,1,0-.42h0l15.037.08h0c.346,0,.734-.407.924-.792l7.858-15.926a.21.21,0,1,1,.377.186l-7.857,15.926A1.7,1.7,0,0,1,2213.694,1205.008Z" transform="translate(-2136.054 -1161.757)" fill="#bdd0fb"/>
        <path id="Trazado_115194" data-name="Trazado 115194" d="M1962.375,1079.505a.21.21,0,0,1-.187-.305l6.716-13.25a1.642,1.642,0,0,1,1.417-.707l16.536-.2a.21.21,0,1,1,0,.42l-16.536.2a1.255,1.255,0,0,0-1.047.477l-6.716,13.25A.21.21,0,0,1,1962.375,1079.505Z" transform="translate(-1946.839 -1063.491)" fill="#bdd0fb"/>
      </g>
    </g>
    <g id="Grupo_66186" data-name="Grupo 66186" transform="translate(527.871 376.083)">
      <g id="Grupo_66185" data-name="Grupo 66185">
        <path id="Trazado_115195" data-name="Trazado 115195" d="M1206.879,1120.41c-.051.1-3.281,2.474-3.281,2.474s.713,5.1,3.61,7.117c3.184,2.215,7.681-1.824,7.681-1.824s3.579.851,5.482-6.6c.437-1.709-2.084-1.854-5.126-1.539C1211.322,1120.445,1206.879,1120.41,1206.879,1120.41Z" transform="translate(-1185.185 -1114.543)" fill="url(#linear-gradient-36)"/>
        <path id="Trazado_115196" data-name="Trazado 115196" d="M1167.92,1201.483a13.628,13.628,0,0,1,4.141-1.927c.556-.151,3.56.722,5.417.679,2.549-.058,5.143-1.218,7.244-.695a15.151,15.151,0,0,1,4.781,1.9c2.952,2.1,4.685,6.015,5.741,9.892a13.516,13.516,0,0,1-4.517,2.966l-.465,18.849-11.146,5.7-12.722-6.387.456-18.42s-4.04-1.881-4.336-2.566S1164.355,1203.933,1167.92,1201.483Z" transform="translate(-1152.263 -1178.207)" fill="url(#linear-gradient-37)"/>
        <path id="Trazado_115197" data-name="Trazado 115197" d="M1158.817,1259.6s-5.414,15.008,6.931,21.177c2.563-.341,1.578-4.6,1.578-4.6s-5.364-1.187-3.753-13.707A34.646,34.646,0,0,0,1158.817,1259.6Z" transform="translate(-1148.377 -1226.414)" fill="url(#linear-gradient-38)"/>
        <path id="Trazado_115198" data-name="Trazado 115198" d="M1290.679,1259.6s3.725,15.667-6.931,21.177c-2.563-.341-1.577-4.6-1.577-4.6s4.323-2.129,3.753-13.707A34.671,34.671,0,0,1,1290.679,1259.6Z" transform="translate(-1247.958 -1226.414)" fill="url(#linear-gradient-39)"/>
        <rect id="Rectángulo_32384" data-name="Rectángulo 32384" width="24.441" height="16.506" rx="8.253" transform="translate(13.985 38.913)" fill="#91b3fa"/>
        <g id="Grupo_66183" data-name="Grupo 66183" transform="translate(37.676 59.817)">
          <path id="Trazado_115199" data-name="Trazado 115199" d="M1317.854,1394.215c-2.8-.642-9.262-.3-9.262-.3l-.263.712-.436,3.54a73.56,73.56,0,0,0,9.191,1.107,2.862,2.862,0,0,0,.852-.127c.093-.083.183-.17.269-.263A3.336,3.336,0,0,0,1317.854,1394.215Z" transform="translate(-1306.383 -1393.719)" fill="url(#linear-gradient-40)"/>
          <path id="Trazado_115200" data-name="Trazado 115200" d="M1300.661,1393.29l1.095.047a2.109,2.109,0,0,1,1.538.8,2.594,2.594,0,0,1,.564,1.775,2.043,2.043,0,0,1-.592,1.35,1.658,1.658,0,0,1-1.281.486l-1.675-.119Z" transform="translate(-1300.31 -1393.29)" fill="url(#linear-gradient-41)"/>
        </g>
        <g id="Grupo_66184" data-name="Grupo 66184" transform="translate(0 59.722)">
          <path id="Trazado_115201" data-name="Trazado 115201" d="M1112.374,1393.065c2.812-.556,9.266-.012,9.266-.012l.245.72.347,3.551a73.43,73.43,0,0,1-9.215.825,2.864,2.864,0,0,1-.848-.153c-.091-.086-.179-.175-.262-.271A3.332,3.332,0,0,1,1112.374,1393.065Z" transform="translate(-1111.157 -1392.815)" fill="url(#linear-gradient-42)"/>
          <path id="Trazado_115202" data-name="Trazado 115202" d="M1160.022,1393.3l-1.1.013a2.1,2.1,0,0,0-1.557.748,2.581,2.581,0,0,0-.608,1.757,2.057,2.057,0,0,0,.558,1.368,1.668,1.668,0,0,0,1.268.525l1.677-.068Z" transform="translate(-1147.677 -1393.199)" fill="url(#linear-gradient-43)"/>
        </g>
        <path id="Trazado_115203" data-name="Trazado 115203" d="M1206.921,1328.978c-1.269-2.919-4.371-3.393-7.012-2.028-.046.06-16.769,8.631-31.517,12.388a16.028,16.028,0,0,1,.687,4.209q.012.473-.016.933c11.31-.581,23.584-4.353,34.131-7.667A5.83,5.83,0,0,0,1206.921,1328.978Z" transform="translate(-1156.992 -1279.761)" fill="url(#linear-gradient-44)"/>
        <path id="Trazado_115204" data-name="Trazado 115204" d="M1158.078,1342.166a9.722,9.722,0,0,1,.952-4.557c.019-.064.043-.126.063-.19-.842-.261-1.93-.614-3.359-1.1a161.209,161.209,0,0,1-26.087-11.368c-2.962-1.619-6.33-.534-7.278,2.971a5.492,5.492,0,0,0,3.833,6.739c8.441,2.809,4.046,2.028,6.8,2.916a115.335,115.335,0,0,0,25.091,4.944C1158.089,1342.4,1158.082,1342.284,1158.078,1342.166Z" transform="translate(-1119.97 -1278.158)" fill="url(#linear-gradient-45)"/>
        <path id="Trazado_115205" data-name="Trazado 115205" d="M1210.554,1180.672a6.46,6.46,0,0,0,6.595,4.78c5.569-.1,6.066-4.8,6.066-4.8l-3.638-.778-.3-4.054-5.473.405-.1,3.851Z" transform="translate(-1190.756 -1159.323)" fill="url(#linear-gradient-46)"/>
        <path id="Trazado_115206" data-name="Trazado 115206" d="M1220.772,1118.159s-6.272,12.149,1.168,15.1c5.248,2.079,8.538-8.068,7.556-10.816-1.517-4.249-2.517-3.745-2.517-3.745Z" transform="translate(-1196.959 -1113.144)" fill="url(#linear-gradient-47)"/>
        <path id="Trazado_115207" data-name="Trazado 115207" d="M1219.024,1096.889c3.1.851.45,7.571-4.214,5.982s-6.5-1.566-7.225-.285-.883,5.83-2.46,3.581c-1.729-2.465-2.693-7.412-.573-9.007,1.895-1.426,2.337-3.635,4.609-3.559,3.016.1,5.349-1.235,6.711-.271C1217.436,1094.438,1216.744,1096.263,1219.024,1096.889Z" transform="translate(-1184.978 -1092.979)" fill="url(#linear-gradient-48)"/>
        <path id="Trazado_115208" data-name="Trazado 115208" d="M1216.818,1144.2s-1.338-1.439-1.552.3.473,3.969,1.279,2.744A4.189,4.189,0,0,0,1216.818,1144.2Z" transform="translate(-1194.497 -1133.552)" fill="url(#linear-gradient-49)"/>
      </g>
    </g>
    <g id="Grupo_66192" data-name="Grupo 66192" transform="translate(543.038 295.541)">
      <g id="Grupo_66187" data-name="Grupo 66187" transform="translate(12.395 40.626)">
        <path id="Trazado_115209" data-name="Trazado 115209" d="M1391.029,1002.2l-53.3-102.792a1.179,1.179,0,1,1,2.094-1.085l53.3,102.792a1.179,1.179,0,1,1-2.094,1.085Z" transform="translate(-1320.059 -896.672)" fill="#7d97f4"/>
        <path id="Trazado_115210" data-name="Trazado 115210" d="M1295.182,998.9l-45.554-104.667a1.179,1.179,0,0,1,2.162-.941l45.554,104.668a1.179,1.179,0,1,1-2.162.941Z" transform="translate(-1249.53 -892.579)" fill="#7d97f4"/>
        <path id="Trazado_115211" data-name="Trazado 115211" d="M1295.7,994.965h18.477a.737.737,0,0,0,0-1.474H1295.7a.737.737,0,1,0,0,1.474Z" transform="translate(-1285.914 -973.391)" fill="#7d97f4"/>
        <path id="Trazado_115212" data-name="Trazado 115212" d="M1320.489,1052.433h18.477a.737.737,0,0,0,0-1.474h-18.477a.737.737,0,1,0,0,1.474Z" transform="translate(-1305.765 -1019.412)" fill="#7d97f4"/>
        <path id="Trazado_115213" data-name="Trazado 115213" d="M1353.183,1121.246h19.654a.737.737,0,0,0,0-1.474h-19.654a.737.737,0,0,0,0,1.474Z" transform="translate(-1331.947 -1074.519)" fill="#7d97f4"/>
        <path id="Trazado_115214" data-name="Trazado 115214" d="M1271.051,939.223h17.629a.737.737,0,1,0,0-1.474h-17.629a.737.737,0,0,0,0,1.474Z" transform="translate(-1266.174 -928.752)" fill="#7d97f4"/>
        <path id="Trazado_115215" data-name="Trazado 115215" d="M1385.74,1200.419h21.355a.737.737,0,0,0,0-1.474H1385.74a.737.737,0,0,0,0,1.474Z" transform="translate(-1358.019 -1137.922)" fill="#7d97f4"/>
        <path id="Trazado_115216" data-name="Trazado 115216" d="M1410.93,1261.833h22.905a.737.737,0,0,0,0-1.474H1410.93a.737.737,0,1,0,0,1.474Z" transform="translate(-1378.192 -1187.104)" fill="#7d97f4"/>
      </g>
      <g id="Grupo_66188" data-name="Grupo 66188" transform="translate(48.894 96.785)">
        <path id="Trazado_115217" data-name="Trazado 115217" d="M1436.508,1178.225c2.359-2.053,7.427-3.7,7.427-3.7l3.049.067a7.644,7.644,0,0,1,1.273,3.616,8.176,8.176,0,0,1-3.623.739A29.679,29.679,0,0,1,1436.508,1178.225Z" transform="translate(-1435.764 -1174.527)" fill="url(#linear-gradient-50)"/>
        <path id="Trazado_115218" data-name="Trazado 115218" d="M1433.515,1193.029a29.679,29.679,0,0,0,8.126.724,8.175,8.175,0,0,0,3.623-.739c.012.085.023.167.033.243a.9.9,0,0,1-.632.969c-2.785.854-8.912.579-11.3.431a.628.628,0,0,1-.45-1.024A5.357,5.357,0,0,1,1433.515,1193.029Z" transform="translate(-1432.771 -1189.331)" fill="url(#linear-gradient-51)"/>
      </g>
      <path id="Trazado_115219" data-name="Trazado 115219" d="M1473.777,1161.645v2.425a.99.99,0,0,1-.782.968,3.854,3.854,0,0,1-1.708.017.946.946,0,0,1-.7-.811l-.306-2.6Z" transform="translate(-1413.912 -1067.426)" fill="url(#linear-gradient-52)"/>
      <g id="Grupo_66189" data-name="Grupo 66189" transform="translate(38.444 76.923)">
        <path id="Trazado_115220" data-name="Trazado 115220" d="M1395.139,1087.724c.946-2.106.675-3.052,2.548-2.843a2.528,2.528,0,0,1,.57.125,1.683,1.683,0,0,1,0,1.1,20.828,20.828,0,0,1-3.279,5.981,2.056,2.056,0,0,1-1.579.771l-2.065.035A13.182,13.182,0,0,0,1395.139,1087.724Z" transform="translate(-1389.137 -1082.852)" fill="url(#linear-gradient-53)"/>
        <path id="Trazado_115221" data-name="Trazado 115221" d="M1382.372,1081.724c1.585-1.116,2.176-5.673,2.176-5.673l2.442-1.243,1.842,1.335a1.694,1.694,0,0,1,.594.819,2.532,2.532,0,0,0-.57-.125c-1.873-.209-1.6.737-2.548,2.843a13.186,13.186,0,0,1-3.806,5.166l-1.419.024a.762.762,0,0,1-.619-1.225A9.2,9.2,0,0,1,1382.372,1081.724Z" transform="translate(-1380.306 -1074.808)" fill="url(#linear-gradient-54)"/>
      </g>
      <path id="Trazado_115222" data-name="Trazado 115222" d="M1393.045,1063.291l1.474,2.294a.667.667,0,0,1-.148.886,2.191,2.191,0,0,1-2.294.357l-2.369-1.623Z" transform="translate(-1349.392 -988.662)" fill="url(#linear-gradient-55)"/>
      <path id="Trazado_115223" data-name="Trazado 115223" d="M1342.48,941.741s.776,2.186,1.9,9.866,1.865,13.265,2.479,16.31a133.62,133.62,0,0,1,1.393,17.2,1.051,1.051,0,0,1-1.083,1.04l-2.9-.091a.94.94,0,0,1-.9-.782c-.768-4.516-6.077-27.82-9.277-34.524,0,0-8.516,2.407-10.639,3.376,0,0,2.745,1.1,8.37,11.645a14.353,14.353,0,0,1-4.15,2.332s-12.31-10.21-13.61-11.278-2.485-2.909.834-6.263,13.5-8.642,13.5-8.642Z" transform="translate(-1287.758 -891.323)" fill="url(#linear-gradient-56)"/>
      <path id="Trazado_115224" data-name="Trazado 115224" d="M1421.688,969.183a.147.147,0,0,0,.063-.014l3.037-1.17a3.815,3.815,0,0,0,2.161-3.4.147.147,0,0,0-.146-.148.14.14,0,0,0-.148.147,3.519,3.519,0,0,1-1.993,3.141l-3.037,1.17a.147.147,0,0,0,.063.28Z" transform="translate(-1374.884 -909.505)" fill="url(#linear-gradient-57)"/>
      <path id="Trazado_115225" data-name="Trazado 115225" d="M1294.893,930.355s-3.2-2.421-4.654-1.966a6.03,6.03,0,0,0-2.529,1.819h3.217s.767,1.474,0,1.474h-1.136S1292.792,934.828,1294.893,930.355Z" transform="translate(-1267.709 -880.585)" fill="url(#linear-gradient-58)"/>
      <path id="Trazado_115226" data-name="Trazado 115226" d="M1315.434,823.859s-3.754,14.842-8.838,20.809a7.119,7.119,0,0,0,3.422,2.023s7.8-6.84,10.181-11.594S1315.434,823.859,1315.434,823.859Z" transform="translate(-1282.834 -796.921)" fill="url(#linear-gradient-59)"/>
      <path id="Trazado_115227" data-name="Trazado 115227" d="M1359.361,752.929l3.729,6.821h-5.884a12.028,12.028,0,0,0-2.021-5Z" transform="translate(-1321.745 -740.119)" fill="url(#linear-gradient-60)"/>
      <g id="Grupo_66190" data-name="Grupo 66190" transform="translate(29.544 0)">
        <path id="Trazado_115228" data-name="Trazado 115228" d="M1339.289,712.15s-1.868,4.292-1.994,6.544-.611,3.714,1.994,4.168a5.537,5.537,0,0,0,5.987-3.088s1.862-3.457,1.445-4.873S1339.289,712.15,1339.289,712.15Z" transform="translate(-1336.869 -707.463)" fill="url(#linear-gradient-61)"/>
        <path id="Trazado_115229" data-name="Trazado 115229" d="M1343.145,699.316h-.329s1.357-2.783.165-3.272-5.914-1.452-6.933-3.127a3.116,3.116,0,0,1,1.2-4.286.175.175,0,0,1,.223.082l.108.205a.177.177,0,0,0,.326-.033h0a.176.176,0,0,1,.317-.049c.312.5,1.156,1.316,3.421,1.734,3.214.593,5.338,1.894,5.391,4.115a.177.177,0,0,0,.274.145c.237-.145.617-.212,1.124.214.882.742.521,2.667-1.413,4.25a.176.176,0,0,0,.009.284c.351.228.873.771-.481,1.5a3.612,3.612,0,0,1-2.515.581.177.177,0,0,1-.134-.183l.122-1.968a.177.177,0,0,0-.176-.188Z" transform="translate(-1335.627 -688.617)" fill="url(#linear-gradient-62)"/>
        <path id="Trazado_115230" data-name="Trazado 115230" d="M1372.965,735.918s.713-2.741,1.942-1.973-.638,3.072-1.626,3.174Z" transform="translate(-1365.528 -724.808)" fill="url(#linear-gradient-63)"/>
      </g>
      <path id="Trazado_115231" data-name="Trazado 115231" d="M1249.139,747.829s-1.663-2.733-12.537-2.063c-5.653.348-18.366-4.578-21.2-7.056a5.3,5.3,0,0,0-3.546,1.769s11.743,12.392,25.433,13.976c0,0,10.39,21.412,10.317,24.887a17.1,17.1,0,0,0,14.534,1.176s.256-5.952-3.009-14.173A92.3,92.3,0,0,0,1249.139,747.829Z" transform="translate(-1206.967 -728.732)" fill="url(#linear-gradient-64)"/>
      <path id="Trazado_115232" data-name="Trazado 115232" d="M1349.192,818.3a.147.147,0,0,0,.012-.294c-.053,0-5.273-.429-6.087-.52a.147.147,0,0,0-.033.293c.819.092,6.043.517,6.1.522Z" transform="translate(-1311.95 -791.816)" fill="url(#linear-gradient-65)"/>
      <g id="Grupo_66191" data-name="Grupo 66191" transform="translate(0 0.094)">
        <path id="Trazado_115233" data-name="Trazado 115233" d="M1192.406,700.139c-.1.347,1.173.824,1.857-.606,0-.673.3-3.568-.117-4.1a53.668,53.668,0,0,0-6.527-6.344.987.987,0,0,0-.073,1.376l2.089,2.023a9.745,9.745,0,0,0-1.09,2.365,2.822,2.822,0,0,0,.357,2.065c.376.624.888,1.433,1.368,2.064A2.786,2.786,0,0,0,1192.406,700.139Z" transform="translate(-1187.299 -689.089)" fill="url(#linear-gradient-66)"/>
      </g>
    </g>
    <g id="Grupo_66194" data-name="Grupo 66194" transform="translate(419.013 197.94)">
      <path id="Trazado_115234" data-name="Trazado 115234" d="M769.759,519.288h0q-.634,0-1.267-.008a.7.7,0,0,1,.007-1.409h.007q.628.006,1.256.008a.7.7,0,0,1,0,1.409Zm2.942-.016a.7.7,0,0,1-.01-1.409q.628-.009,1.257-.022a.716.716,0,0,1,.719.69.7.7,0,0,1-.69.719q-.633.013-1.265.022Zm-7.146-.045h-.019q-.633-.017-1.266-.038a.7.7,0,0,1,.048-1.408q.627.021,1.256.038a.7.7,0,0,1-.018,1.409Zm11.347-.061a.7.7,0,0,1-.026-1.408q.627-.024,1.256-.051a.7.7,0,0,1,.061,1.408q-.633.028-1.265.051Zm-15.548-.1h-.036q-.633-.032-1.265-.069a.7.7,0,1,1,.082-1.407q.627.037,1.254.069a.7.7,0,0,1-.035,1.408Zm19.746-.1a.7.7,0,0,1-.041-1.408q.627-.037,1.254-.079a.7.7,0,0,1,.093,1.406q-.632.042-1.263.08Zm-23.941-.165-.054,0q-.631-.048-1.262-.1a.7.7,0,1,1,.117-1.4q.625.052,1.252.1a.7.7,0,0,1-.053,1.407Zm28.133-.13a.7.7,0,0,1-.056-1.407q.626-.051,1.252-.106a.7.7,0,1,1,.123,1.4q-.631.055-1.261.107Zm-32.32-.241a.656.656,0,0,1-.072,0q-.63-.063-1.26-.132a.7.7,0,1,1,.153-1.4q.624.068,1.248.131a.7.7,0,0,1-.07,1.405Zm36.506-.144a.7.7,0,0,1-.071-1.405q.624-.064,1.25-.132a.7.7,0,1,1,.153,1.4q-.63.069-1.259.134C789.529,518.282,789.5,518.283,789.48,518.283ZM748.8,517.95a.684.684,0,0,1-.09-.006q-.628-.08-1.255-.165a.7.7,0,0,1,.189-1.4q.622.084,1.244.164a.7.7,0,0,1-.088,1.4Zm44.858-.141a.7.7,0,0,1-.086-1.4q.623-.077,1.247-.158a.7.7,0,1,1,.182,1.4q-.628.082-1.255.16A.768.768,0,0,1,793.657,517.809Zm-49.019-.444a.735.735,0,0,1-.108-.008q-.626-.1-1.25-.2a.7.7,0,1,1,.225-1.391q.619.1,1.239.2a.7.7,0,0,1-.106,1.4Zm53.186-.116a.7.7,0,0,1-.1-1.4q.622-.09,1.244-.184a.7.7,0,0,1,.21,1.394q-.626.094-1.252.185A.726.726,0,0,1,797.824,517.25Zm-57.33-.578a.718.718,0,0,1-.126-.011q-.622-.113-1.244-.23a.7.7,0,1,1,.262-1.384q.617.116,1.234.228a.7.7,0,0,1-.125,1.4Zm61.483-.069a.7.7,0,0,1-.117-1.4q.617-.1,1.236-.216a.7.7,0,1,1,.248,1.387q-.626.112-1.249.218A.744.744,0,0,1,801.977,516.6Zm-65.607-.733a.716.716,0,0,1-.144-.015q-.619-.129-1.238-.263a.7.7,0,0,1,.3-1.377q.613.133,1.227.261a.7.7,0,0,1-.143,1.394Zm69.741-.033a.7.7,0,0,1-.137-1.4q.613-.123,1.23-.252a.7.7,0,1,1,.289,1.379q-.622.13-1.242.254A.7.7,0,0,1,806.111,515.838Zm-73.842-.879a.7.7,0,0,1-.163-.019q-.616-.145-1.23-.3a.7.7,0,1,1,.335-1.368q.609.149,1.219.293a.7.7,0,0,1-.161,1.391Zm77.953-.005a.7.7,0,0,1-.157-1.391q.61-.14,1.222-.286a.7.7,0,1,1,.327,1.371q-.617.147-1.234.289A.7.7,0,0,1,810.222,514.953Zm4.084-1a.7.7,0,0,1-.176-1.387q.607-.157,1.214-.32a.7.7,0,0,1,.364,1.361q-.613.164-1.225.323A.707.707,0,0,1,814.306,513.955Zm-86.112-.017a.7.7,0,0,1-.18-.024q-.611-.161-1.222-.329a.7.7,0,1,1,.372-1.359q.605.165,1.21.326a.7.7,0,0,1-.18,1.386Zm90.168-1.093a.7.7,0,0,1-.195-1.382q.6-.173,1.2-.352a.7.7,0,0,1,.4,1.351q-.608.18-1.216.356A.707.707,0,0,1,818.362,512.845Zm-94.213-.037a.7.7,0,0,1-.2-.029q-.607-.178-1.212-.362a.7.7,0,1,1,.408-1.348q.6.182,1.2.358a.7.7,0,0,1-.2,1.381Zm98.237-1.181a.7.7,0,0,1-.213-1.376q.6-.19,1.2-.385a.7.7,0,0,1,.437,1.34q-.6.2-1.206.388A.7.7,0,0,1,822.386,511.627Zm-102.25-.057a.705.705,0,0,1-.217-.034q-.6-.195-1.2-.394a.7.7,0,0,1,.444-1.337q.595.2,1.191.391a.7.7,0,0,1-.217,1.375Zm106.24-1.268a.7.7,0,0,1-.231-1.37q.593-.206,1.185-.416a.7.7,0,0,1,.473,1.328q-.6.213-1.2.42A.707.707,0,0,1,826.377,510.3Zm-110.218-.078a.7.7,0,0,1-.235-.041q-.6-.211-1.19-.426a.7.7,0,1,1,.48-1.325q.59.213,1.18.422a.7.7,0,0,1-.235,1.369Zm114.171-1.353a.7.7,0,0,1-.249-1.364q.587-.221,1.173-.448a.7.7,0,1,1,.508,1.314q-.591.229-1.184.452A.7.7,0,0,1,830.33,508.871Zm-118.11-.1a.7.7,0,0,1-.252-.047q-.591-.227-1.18-.458a.7.7,0,1,1,.515-1.311q.585.23,1.17.454a.7.7,0,0,1-.253,1.362Zm122.024-1.439a.7.7,0,0,1-.267-1.357q.581-.237,1.16-.48a.7.7,0,0,1,.544,1.3q-.585.245-1.171.484A.705.705,0,0,1,834.243,507.333Zm-125.929-.112a.7.7,0,0,1-.265-.052l-1.169-.478a.7.7,0,1,1,.535-1.3l1.165.476a.7.7,0,0,1-.266,1.357Zm129.806-1.536a.7.7,0,0,1-.285-1.349q.576-.254,1.15-.513a.7.7,0,0,1,.58,1.284q-.58.262-1.161.518A.707.707,0,0,1,838.12,505.685Zm-133.689-.071a.7.7,0,0,1-.273-.055l-1.163-.491a.7.7,0,0,1,.55-1.3l1.159.49a.7.7,0,0,1-.273,1.354Zm-3.865-1.649a.7.7,0,0,1-.279-.058l-1.158-.5a.7.7,0,0,1,.562-1.292l1.155.5a.7.7,0,0,1-.28,1.351Zm141.385-.036a.7.7,0,0,1-.3-1.341q.568-.27,1.133-.545a.7.7,0,0,1,.617,1.267q-.571.278-1.145.55A.7.7,0,0,1,841.95,503.93Zm-145.236-1.648a.7.7,0,0,1-.284-.06l-1.154-.51a.7.7,0,1,1,.57-1.288l1.152.51a.7.7,0,0,1-.285,1.349Zm149.011-.215a.7.7,0,0,1-.322-1.332q.559-.286,1.115-.577a.7.7,0,1,1,.653,1.248q-.562.294-1.127.584A.7.7,0,0,1,845.725,502.067Zm-152.851-1.492a.7.7,0,0,1-.287-.062L691.435,500a.7.7,0,1,1,.577-1.285l1.149.515a.7.7,0,0,1-.288,1.348Zm156.566-.481a.7.7,0,0,1-.341-1.321q.549-.3,1.1-.61a.7.7,0,1,1,.691,1.228q-.552.311-1.107.616A.7.7,0,0,1,849.44,500.094Zm-160.4-1.242a.7.7,0,0,1-.289-.063l-1.15-.519a.7.7,0,0,1,.581-1.284l1.148.518a.7.7,0,0,1-.29,1.347Zm164.049-.842a.7.7,0,0,1-.359-1.311q.539-.319,1.075-.644a.7.7,0,0,1,.729,1.205q-.542.328-1.087.651A.7.7,0,0,1,853.089,498.01Zm-167.879-.888a.7.7,0,0,1-.29-.063l-1.149-.519a.7.7,0,1,1,.581-1.284l1.149.519a.7.7,0,0,1-.29,1.347Zm171.458-1.309a.7.7,0,0,1-.379-1.3q.528-.336,1.053-.678a.7.7,0,0,1,.769,1.181q-.53.345-1.064.685A.7.7,0,0,1,856.668,495.812Zm-175.289-.419a.7.7,0,0,1-.288-.062l-1.15-.517a.7.7,0,1,1,.577-1.285l1.151.517a.7.7,0,0,1-.289,1.347Zm-3.836-1.717a.7.7,0,0,1-.286-.061L676.1,493.1a.7.7,0,0,1,.571-1.288l1.153.512a.7.7,0,0,1-.287,1.348Zm182.626-.178a.7.7,0,0,1-.4-1.285q.516-.354,1.028-.713a.7.7,0,1,1,.809,1.153q-.517.363-1.039.721A.7.7,0,0,1,860.168,493.5ZM673.7,491.979a.7.7,0,0,1-.282-.059l-1.155-.5a.7.7,0,1,1,.562-1.292l1.157.5a.7.7,0,0,1-.283,1.35Zm189.888-.913a.7.7,0,0,1-.42-1.271q.5-.372,1-.748a.7.7,0,1,1,.85,1.123q-.5.381-1.012.757A.7.7,0,0,1,863.584,491.066Zm-193.746-.755a.705.705,0,0,1-.276-.057l-1.158-.493a.7.7,0,1,1,.55-1.3l1.162.495a.7.7,0,0,1-.277,1.353Zm-104.5-.142a.7.7,0,0,1-.376-1.3l.058-.037a.7.7,0,0,1,.76,1.187l-.066.042A.7.7,0,0,1,565.339,490.168Zm100.626-1.488a.7.7,0,0,1-.269-.054l-1.164-.48a.7.7,0,0,1,.534-1.3l1.168.482a.7.7,0,0,1-.27,1.356Zm-98.056-.088a.7.7,0,0,1-.359-1.311q.547-.323,1.1-.637a.7.7,0,1,1,.7,1.223q-.541.309-1.079.627A.7.7,0,0,1,567.908,488.592Zm299-.081a.7.7,0,0,1-.44-1.255q.487-.389.969-.785a.7.7,0,0,1,.893,1.09q-.489.4-.983.8A.7.7,0,0,1,866.906,488.511ZM662.071,487.1a.7.7,0,0,1-.261-.051q-.584-.233-1.169-.463a.7.7,0,0,1,.516-1.311q.588.232,1.175.466a.7.7,0,0,1-.261,1.359Zm-90.5-.553a.7.7,0,0,1-.329-1.328q.561-.3,1.125-.584a.7.7,0,0,1,.641,1.255q-.555.284-1.108.575A.7.7,0,0,1,571.573,486.543Zm298.553-.712a.7.7,0,0,1-.461-1.237q.471-.409.937-.822a.7.7,0,0,1,.936,1.053q-.472.42-.951.834A.7.7,0,0,1,870.126,485.831Zm-211.971-.262a.7.7,0,0,1-.25-.046q-.588-.224-1.176-.445a.7.7,0,0,1,.495-1.319q.593.222,1.183.447a.7.7,0,0,1-.251,1.363Zm-82.824-.9a.7.7,0,0,1-.3-1.343q.575-.269,1.152-.53a.7.7,0,1,1,.58,1.284q-.568.256-1.135.522A.7.7,0,0,1,575.331,484.67Zm78.884-.563a.7.7,0,0,1-.239-.042q-.591-.213-1.184-.423a.7.7,0,0,1,.471-1.328q.6.211,1.191.425a.7.7,0,0,1-.239,1.368Zm219.025-1.091a.7.7,0,0,1-.484-1.217q.456-.43.905-.865a.7.7,0,1,1,.98,1.012q-.456.441-.918.877A.7.7,0,0,1,873.24,483.016Zm-294.066-.037a.7.7,0,0,1-.268-1.356q.587-.242,1.177-.475a.7.7,0,0,1,.517,1.311q-.58.23-1.158.467A.7.7,0,0,1,579.175,482.979Zm71.074-.258a.7.7,0,0,1-.226-.037q-.595-.2-1.191-.4a.7.7,0,1,1,.443-1.338q.6.2,1.2.4a.7.7,0,0,1-.225,1.372ZM583.1,481.472a.7.7,0,0,1-.237-1.368q.6-.213,1.2-.418a.7.7,0,1,1,.455,1.333q-.591.2-1.18.412A.7.7,0,0,1,583.1,481.472Zm63.159-.053a.7.7,0,0,1-.211-.032q-.6-.188-1.2-.371a.7.7,0,1,1,.412-1.348q.6.185,1.209.374a.7.7,0,0,1-.21,1.377Zm-4.026-1.206a.706.706,0,0,1-.192-.027q-.6-.171-1.208-.334a.7.7,0,0,1,.368-1.36q.612.166,1.224.339a.7.7,0,0,1-.192,1.383Zm-55.144-.059a.7.7,0,0,1-.205-1.379q.608-.185,1.217-.361a.7.7,0,0,1,.391,1.354q-.6.173-1.2.355A.706.706,0,0,1,587.084,480.154Zm289.149-.089a.7.7,0,0,1-.505-1.2q.436-.449.865-.9a.7.7,0,1,1,1.025.967q-.436.462-.879.918A.7.7,0,0,1,876.233,480.065Zm-238.071-.92a.71.71,0,0,1-.166-.02q-.61-.147-1.22-.288a.7.7,0,0,1,.316-1.373q.618.142,1.235.291a.7.7,0,0,1-.165,1.389Zm-47.032-.12a.7.7,0,0,1-.173-1.388q.616-.156,1.234-.3a.7.7,0,0,1,.327,1.371q-.608.145-1.214.3A.708.708,0,0,1,591.13,479.025Zm42.928-.789a.715.715,0,0,1-.14-.014q-.615-.123-1.23-.24a.7.7,0,1,1,.261-1.384q.623.117,1.246.243a.7.7,0,0,1-.138,1.4Zm-38.833-.149a.7.7,0,0,1-.141-1.395q.623-.128,1.247-.246a.7.7,0,0,1,.263,1.385q-.614.116-1.227.242A.706.706,0,0,1,595.226,478.088Zm34.7-.6a.719.719,0,0,1-.112-.009q-.619-.1-1.238-.19a.7.7,0,1,1,.206-1.394q.628.093,1.255.193a.7.7,0,0,1-.111,1.4Zm-30.451-.157a.693.693,0,0,1-.11.009.7.7,0,0,1-.109-1.4q.628-.1,1.256-.188a.7.7,0,0,1,.2,1.395Q600.089,477.235,599.471,477.332Zm279.617-.351a.7.7,0,0,1-.528-1.171q.414-.469.82-.944a.7.7,0,1,1,1.07.916q-.413.483-.834.959A.7.7,0,0,1,879.088,476.981Zm-253.329-.072a.7.7,0,0,1-.084-.005q-.622-.074-1.245-.14a.7.7,0,1,1,.149-1.4q.631.067,1.262.142a.7.7,0,0,1-.082,1.4Zm-22.154-.131a.692.692,0,0,1-.078,0,.7.7,0,0,1-.077-1.4q.631-.07,1.264-.131a.7.7,0,1,1,.136,1.4Q604.227,476.71,603.6,476.779Zm17.971-.278-.055,0q-.625-.048-1.25-.088a.7.7,0,0,1,.09-1.406q.634.041,1.267.089a.7.7,0,0,1-.053,1.407Zm-13.815-.088-.047,0a.7.7,0,0,1-.045-1.407q.634-.042,1.268-.075a.7.7,0,1,1,.073,1.407Q608.384,476.372,607.76,476.413Zm9.618-.145h-.025q-.626-.022-1.252-.035a.7.7,0,0,1-.689-.72.693.693,0,0,1,.72-.689q.635.014,1.27.036a.7.7,0,0,1-.024,1.409Zm-5.465-.036a.7.7,0,0,1-.015-1.409q.635-.014,1.271-.019h.006a.7.7,0,0,1,.006,1.409q-.626.005-1.252.019Zm269.872-2.462a.7.7,0,0,1-.55-1.144q.388-.487.769-.979a.7.7,0,1,1,1.115.862q-.388.5-.782,1A.7.7,0,0,1,881.784,473.77Zm2.526-3.341a.7.7,0,0,1-.572-1.114q.363-.507.716-1.019a.7.7,0,0,1,1.159.8q-.361.521-.73,1.037A.7.7,0,0,1,884.311,470.428Zm2.345-3.474a.7.7,0,0,1-.594-1.082q.334-.526.659-1.057a.7.7,0,1,1,1.2.735q-.331.541-.672,1.078A.7.7,0,0,1,886.656,466.954Zm2.147-3.6a.7.7,0,0,1-.615-1.048q.3-.545.6-1.095a.7.7,0,0,1,1.243.664q-.3.561-.609,1.117A.7.7,0,0,1,888.8,463.35Zm1.933-3.728a.7.7,0,0,1-.635-1.01q.271-.563.53-1.13a.7.7,0,1,1,1.281.586q-.265.58-.541,1.154A.7.7,0,0,1,890.736,459.622Zm1.7-3.844a.705.705,0,0,1-.653-.97q.235-.579.459-1.162a.7.7,0,1,1,1.316.5q-.229.6-.469,1.188A.7.7,0,0,1,892.439,455.778Zm1.459-3.951a.7.7,0,0,1-.223-.036.7.7,0,0,1-.445-.891q.2-.59.383-1.186a.7.7,0,0,1,1.345.419q-.19.609-.391,1.213A.7.7,0,0,1,893.9,451.827Zm1.2-4.025a.706.706,0,0,1-.682-.884q.134-.511.26-1.025l.045-.183a.7.7,0,1,1,1.37.33l-.046.191q-.128.523-.266,1.045A.7.7,0,0,1,895.1,447.8Zm.942-4.1a.714.714,0,0,1-.137-.013.7.7,0,0,1-.555-.828q.121-.615.231-1.226a.7.7,0,1,1,1.387.249q-.112.624-.236,1.25A.7.7,0,0,1,896.039,443.707Zm.689-4.144a.687.687,0,0,1-.094-.006.7.7,0,0,1-.6-.792q.083-.62.155-1.238a.7.7,0,0,1,1.4.162q-.073.63-.158,1.263A.7.7,0,0,1,896.728,439.563Zm.428-4.18-.049,0a.7.7,0,0,1-.654-.752q.043-.624.075-1.245a.7.7,0,0,1,1.407.071q-.032.634-.076,1.271A.7.7,0,0,1,897.156,435.383Zm.156-4.2h0a.7.7,0,0,1-.7-.709v-.3q0-.472-.007-.943a.7.7,0,0,1,.694-.715h.011a.7.7,0,0,1,.7.694q.007.481.007.964v.311A.7.7,0,0,1,897.311,431.185Zm-.118-4.2a.7.7,0,0,1-.7-.662q-.038-.624-.088-1.243a.7.7,0,0,1,1.4-.113q.051.634.09,1.271a.7.7,0,0,1-.661.746ZM896.8,422.8a.7.7,0,0,1-.7-.616q-.078-.619-.168-1.235a.7.7,0,1,1,1.394-.2q.092.63.172,1.262a.7.7,0,0,1-.7.793Zm-.657-4.148a.7.7,0,0,1-.691-.572q-.117-.613-.246-1.223a.7.7,0,0,1,1.379-.29q.131.623.251,1.248a.7.7,0,0,1-.56.824A.724.724,0,0,1,896.146,418.657Zm-.913-4.092a.705.705,0,0,1-.682-.53q-.154-.6-.319-1.2a.7.7,0,1,1,1.358-.373q.168.612.326,1.228a.706.706,0,0,1-.683.879Zm-1.158-4.032a.7.7,0,0,1-.671-.49q-.19-.595-.39-1.186a.7.7,0,0,1,1.335-.452q.2.6.4,1.209a.705.705,0,0,1-.672.919Zm-1.39-3.966a.7.7,0,0,1-.658-.453q-.223-.584-.456-1.165a.7.7,0,1,1,1.308-.523q.236.592.464,1.186a.705.705,0,0,1-.658.956Zm-1.6-3.89a.7.7,0,0,1-.644-.419q-.254-.573-.517-1.143a.7.7,0,1,1,1.279-.59q.268.579.526,1.161a.7.7,0,0,1-.644.99Zm-1.8-3.808a.705.705,0,0,1-.63-.388q-.283-.561-.573-1.118a.7.7,0,0,1,1.249-.651q.295.566.582,1.135a.7.7,0,0,1-.629,1.022Zm-1.978-3.713a.7.7,0,0,1-.615-.359q-.307-.545-.621-1.087a.7.7,0,1,1,1.219-.706q.319.55.63,1.1a.7.7,0,0,1-.614,1.05Zm-2.137-3.619a.7.7,0,0,1-.6-.334q-.329-.532-.666-1.061a.7.7,0,0,1,1.189-.756q.34.536.675,1.075a.7.7,0,0,1-.6,1.076Zm-2.282-3.529a.7.7,0,0,1-.585-.31q-.35-.519-.707-1.035a.7.7,0,0,1,1.159-.8q.361.523.715,1.047a.7.7,0,0,1-.583,1.1Zm-2.414-3.44a.7.7,0,0,1-.57-.289q-.369-.507-.744-1.01a.7.7,0,0,1,1.13-.841q.379.509.752,1.021a.7.7,0,0,1-.569,1.12Zm-2.532-3.355a.7.7,0,0,1-.556-.271q-.386-.494-.776-.985a.7.7,0,0,1,1.1-.877q.4.5.785,1a.7.7,0,0,1-.555,1.138Zm-2.637-3.273a.7.7,0,0,1-.542-.254q-.4-.482-.806-.962a.7.7,0,0,1,1.076-.91q.41.484.814.971a.7.7,0,0,1-.542,1.155Zm-2.739-3.2a.7.7,0,0,1-.529-.239q-.416-.473-.836-.943a.7.7,0,1,1,1.05-.939q.424.474.844.951a.7.7,0,0,1-.529,1.17Zm-2.826-3.128a.7.7,0,0,1-.517-.225q-.428-.462-.86-.921a.7.7,0,0,1,1.026-.966q.436.463.867.928a.7.7,0,0,1-.516,1.184Zm-2.9-3.054a.7.7,0,0,1-.505-.213q-.438-.451-.881-.9a.7.7,0,0,1,1-.99q.445.452.888.906a.7.7,0,0,1-.5,1.2Zm-2.969-2.985a.7.7,0,0,1-.494-.2q-.449-.441-.9-.88a.7.7,0,0,1,.982-1.01q.454.441.906.885a.7.7,0,0,1-.493,1.207Zm-3.029-2.919a.7.7,0,0,1-.484-.193q-.457-.431-.916-.861a.7.7,0,0,1,.962-1.03q.463.432.922.866a.7.7,0,0,1-.484,1.217Zm-3.082-2.858a.7.7,0,0,1-.474-.183q-.464-.423-.931-.843a.7.7,0,1,1,.943-1.047q.469.422.937.848a.7.7,0,0,1-.474,1.226Zm-3.129-2.8a.7.7,0,0,1-.466-.176q-.471-.415-.944-.827a.7.7,0,1,1,.926-1.062q.476.414.95.832a.7.7,0,0,1-.466,1.233Zm-3.171-2.746a.7.7,0,0,1-.457-.169q-.478-.407-.956-.812a.7.7,0,0,1,.91-1.076q.48.406.96.815a.7.7,0,0,1-.458,1.241Zm-3.215-2.7a.7.7,0,0,1-.449-.162q-.484-.4-.97-.8a.7.7,0,0,1,.9-1.088l.975.8a.7.7,0,0,1-.45,1.247Zm-3.254-2.663a.7.7,0,0,1-.442-.156q-.49-.4-.981-.789a.7.7,0,1,1,.882-1.1l.984.792a.7.7,0,0,1-.443,1.253ZM841.7,346.26a.7.7,0,0,1-.436-.151l-.99-.779a.7.7,0,0,1,.869-1.109l.993.781a.7.7,0,0,1-.436,1.258Zm-3.314-2.588a.7.7,0,0,1-.43-.147l-1-.769a.7.7,0,0,1,.859-1.117l1,.771a.7.7,0,0,1-.431,1.262Zm-3.339-2.557a.7.7,0,0,1-.425-.143l-1-.761a.7.7,0,1,1,.85-1.124l1.006.762a.7.7,0,0,1-.426,1.266Zm-3.359-2.53a.7.7,0,0,1-.422-.141l-1.009-.754a.7.7,0,0,1,.842-1.13l1.012.755a.7.7,0,0,1-.423,1.269Zm-3.375-2.508a.7.7,0,0,1-.418-.138l-1.014-.748a.7.7,0,1,1,.836-1.134l1.016.749a.7.7,0,0,1-.419,1.271Z" transform="translate(-564.633 -306.968)" fill="#fff"/>
      <g id="Grupo_66193" data-name="Grupo 66193" transform="translate(227.448 0)">
        <path id="Trazado_115235" data-name="Trazado 115235" d="M1845.6,276.494l-2.474,7.649-4.117-4.964Z" transform="translate(-1812.627 -260.98)" fill="#7d97f4"/>
        <path id="Trazado_115236" data-name="Trazado 115236" d="M1706.537,198.609l14.8,24.8a2.035,2.035,0,0,0,2.855.664l24.339-15.8a.816.816,0,0,0-.287-1.485Z" transform="translate(-1706.537 -198.609)" fill="#91b3fa"/>
        <path id="Trazado_115237" data-name="Trazado 115237" d="M1739.512,214.122l-32.975-15.513,29.055,18.075-.6,2.15Z" transform="translate(-1706.537 -198.609)" fill="#7d97f4"/>
        <path id="Trazado_115238" data-name="Trazado 115238" d="M1840.681,290.855l3.785,3.587-1.449-5.088Z" transform="translate(-1813.962 -271.279)" fill="#7d97f4"/>
      </g>
    </g>
    <g id="Grupo_66204" data-name="Grupo 66204" transform="translate(382.794 197.773)">
      <g id="Grupo_66196" data-name="Grupo 66196" transform="translate(19.334 185.448)">
        <ellipse id="Elipse_4756" data-name="Elipse 4756" cx="40.245" cy="32.571" rx="40.245" ry="32.571" transform="translate(6.91)" fill="url(#linear-gradient-67)"/>
        <g id="Grupo_66195" data-name="Grupo 66195" transform="translate(0 21.046)">
          <path id="Trazado_115239" data-name="Trazado 115239" d="M488.877,1237.02a36.765,36.765,0,0,1-6.049,3.047,4.6,4.6,0,0,0-2.967,4.21v4.837a4.794,4.794,0,0,0,3.2,4.4,36.266,36.266,0,0,1,5.439,2.454l4.391,2.439v-23.927Z" transform="translate(-479.86 -1234.481)" fill="url(#linear-gradient-68)"/>
          <path id="Trazado_115240" data-name="Trazado 115240" d="M891.086,1237.02a36.974,36.974,0,0,0,6.071,3.047,4.615,4.615,0,0,1,2.989,4.21v4.837a4.836,4.836,0,0,1-3.244,4.4,36.028,36.028,0,0,0-5.417,2.454l-4.369,2.439v-23.927Z" transform="translate(-805.998 -1234.481)" fill="url(#linear-gradient-69)"/>
        </g>
      </g>
      <g id="Grupo_66198" data-name="Grupo 66198" transform="translate(26.481 0)">
        <path id="Trazado_115241" data-name="Trazado 115241" d="M668.192,682.822c-.012-.662-.648-1.274-1.758-1.8,1.281-.6,2.011-1.292,2-2.013-.038-2.182-6.835-3.832-15.181-3.687s-15.081,2.031-15.043,4.213c.011.661.648,1.274,1.758,1.8-1.281.6-2.011,1.292-2,2.013.011.662.648,1.274,1.758,1.8-1.281.6-2.011,1.292-2,2.013.012.662.648,1.274,1.758,1.8-1.281.6-2.011,1.292-2,2.013.017.965,1.357,1.826,3.567,2.473a19.318,19.318,0,0,0-.091,2.349c.072,4.02,4.373,7.44,10.323,7.815s11.37-3.575,11.682-7.583a20.348,20.348,0,0,0,.049-2.625c2.907-.771,4.714-1.823,4.694-2.955-.011-.662-.648-1.274-1.758-1.8,1.281-.6,2.011-1.292,2-2.013-.012-.662-.648-1.274-1.758-1.8C667.474,684.231,668.2,683.543,668.192,682.822Z" transform="translate(-613.237 -580.193)" fill="#91b3fa"/>
        <g id="Grupo_66197" data-name="Grupo 66197" transform="translate(26.827 100.976)">
          <path id="Trazado_115242" data-name="Trazado 115242" d="M664.157,767.585a35.957,35.957,0,0,1-6.553-.954.2.2,0,1,1,.1-.387,43.043,43.043,0,0,0,10.95,1.039,47.261,47.261,0,0,0,9.3-1.006.2.2,0,0,1,.088.39,47.666,47.666,0,0,1-9.383,1.016C667.109,767.709,665.6,767.675,664.157,767.585Z" transform="translate(-656.054 -753.984)" fill="#7d97f4"/>
          <path id="Trazado_115243" data-name="Trazado 115243" d="M659.7,745.092a31.4,31.4,0,0,1-8.032-1.387.2.2,0,1,1,.133-.377c2.826,1,7.444,1.548,12.354,1.463a39.042,39.042,0,0,0,12.219-1.862.2.2,0,1,1,.144.373,39.431,39.431,0,0,1-12.356,1.888C662.631,745.217,661.129,745.182,659.7,745.092Z" transform="translate(-651.313 -735.308)" fill="#7d97f4"/>
          <path id="Trazado_115244" data-name="Trazado 115244" d="M659.011,725.934a29.188,29.188,0,0,1-8.46-1.564A.2.2,0,0,1,650.7,724c2.777,1.114,7.565,1.725,12.808,1.634a39.04,39.04,0,0,0,12.219-1.862.2.2,0,1,1,.144.373,39.437,39.437,0,0,1-12.356,1.888C661.962,726.059,660.447,726.025,659.011,725.934Z" transform="translate(-650.426 -719.966)" fill="#7d97f4"/>
          <path id="Trazado_115245" data-name="Trazado 115245" d="M665.588,706.875a34.462,34.462,0,0,1-7.14-1.106.2.2,0,0,1,.111-.384,41.667,41.667,0,0,0,11.5,1.189,39.331,39.331,0,0,0,12.156-1.837.2.2,0,0,1,.142.373,39.715,39.715,0,0,1-12.291,1.863C668.53,707,667.023,706.966,665.588,706.875Z" transform="translate(-656.735 -704.723)" fill="#7d97f4"/>
        </g>
        <path id="Trazado_115246" data-name="Trazado 115246" d="M534.875,280.138a28.138,28.138,0,0,0-5.039-9.838,65.122,65.122,0,0,1-14.028-36.265c-1.447-25.2,20.905-37.821,41.3-36.108s40.523,16.9,38.32,40.346c-1.356,14.427-9.43,25.369-15.443,31.654a33.389,33.389,0,0,0-8.015,14.2c-1.8,6.514-6.1,14.632-16.3,15.127C542.462,299.9,536.978,287.586,534.875,280.138Z" transform="translate(-515.741 -197.773)" fill="url(#linear-gradient-70)"/>
        <path id="Trazado_115247" data-name="Trazado 115247" d="M733.068,489.519,740.2,443.1c.147-.959.619-1.6,1.054-1.439s.667,1.075.52,2.034c0,.026-.009.057-.014.082l-8.129,45.987c-.061.346-.237.564-.392.488S733.017,489.854,733.068,489.519Z" transform="translate(-689.768 -393.064)" fill="url(#linear-gradient-71)"/>
        <path id="Trazado_115248" data-name="Trazado 115248" d="M660.738,491.37,653.6,444.952c-.147-.959-.619-1.6-1.054-1.438s-.668,1.075-.52,2.034c0,.026.009.057.014.082l8.13,45.987c.061.346.237.564.392.488S660.789,491.705,660.738,491.37Z" transform="translate(-624.846 -394.546)" fill="url(#linear-gradient-72)"/>
        <path id="Trazado_115249" data-name="Trazado 115249" d="M684.511,406.405a.748.748,0,0,0-.937-.243l-3.974,1.857-1.379-3.93a.843.843,0,0,0-.483-.486.982.982,0,0,0-1.221.376l-.007.013-3.268,5.959-3.033-8.483-.005-.014a.969.969,0,0,0-.459-.518,1.191,1.191,0,0,0-1.5.3l-4.569,6.29a.551.551,0,0,0,.161.794.766.766,0,0,0,.972-.106l4.023-4.487,3.622,8.07,0,.006a.64.64,0,0,0,.319.313.757.757,0,0,0,.948-.245l3.5-5.609,1.315,2.837.012.025a.548.548,0,0,0,.033.06.748.748,0,0,0,.936.243l4.717-2.2A.561.561,0,0,0,684.511,406.405Z" transform="translate(-634.125 -360.353)" fill="#fff" opacity="0.76"/>
        <path id="Trazado_115250" data-name="Trazado 115250" d="M836.536,502.959a.631.631,0,0,1-.506-1.006,52.853,52.853,0,0,0,3.328-5.055.63.63,0,0,1,1.092.631,54.14,54.14,0,0,1-3.407,5.176A.63.63,0,0,1,836.536,502.959Z" transform="translate(-772.134 -437.064)" fill="#fff" opacity="0.69"/>
        <path id="Trazado_115251" data-name="Trazado 115251" d="M866.011,340.953a.631.631,0,0,1-.578-.882,42.586,42.586,0,0,0,.969-32.315.63.63,0,1,1,1.146-.525,43.963,43.963,0,0,1-.958,33.343A.631.631,0,0,1,866.011,340.953Z" transform="translate(-795.739 -285.134)" fill="#fff" opacity="0.69"/>
      </g>
      <g id="Grupo_66203" data-name="Grupo 66203" transform="translate(0 104.33)">
        <g id="Grupo_66200" data-name="Grupo 66200">
          <path id="Trazado_115252" data-name="Trazado 115252" d="M403.611,820.742l-12.495-10.276a22.681,22.681,0,0,1-8.322-17.447V743.683a7.353,7.353,0,0,1,7.407-7.094h33.782v2.1H390.2a5.225,5.225,0,0,0-5.306,4.992v49.336a20.584,20.584,0,0,0,7.559,15.827l12.491,10.273Z" transform="translate(-382.794 -733.596)" fill="url(#linear-gradient-73)"/>
          <g id="Grupo_66199" data-name="Grupo 66199" transform="translate(16.748 80.571)">
            <rect id="Rectángulo_32385" data-name="Rectángulo 32385" width="1.261" height="6.305" transform="translate(17.44 14.665) rotate(-55.565)" fill="url(#linear-gradient-74)"/>
            <path id="Trazado_115253" data-name="Trazado 115253" d="M486.716,1138.726a2.872,2.872,0,0,0-.745-3.993l-11.9-8.16a2.872,2.872,0,0,0-3.993.745l-2.694,3.929a2.872,2.872,0,0,0,.745,3.993l11.9,8.16a2.872,2.872,0,0,0,3.993-.745Z" transform="translate(-466.879 -1126.069)" fill="url(#linear-gradient-75)"/>
            <rect id="Rectángulo_32386" data-name="Rectángulo 32386" width="11.768" height="1.681" rx="0.841" transform="translate(9.844 16.082) rotate(-55.563)" fill="#7d97f4"/>
          </g>
          <circle id="Elipse_4757" data-name="Elipse 4757" cx="3.918" cy="3.918" r="3.918" transform="translate(40.34)" fill="url(#linear-gradient-76)"/>
          <path id="Trazado_115254" data-name="Trazado 115254" d="M598.011,730.25H596.33v-2.1h-.841v2.1h-1.681v.841h1.681v1.681h.841v-1.681h1.681Z" transform="translate(-551.777 -726.837)" fill="#91b3fa"/>
        </g>
        <g id="Grupo_66202" data-name="Grupo 66202" transform="translate(83.211)">
          <path id="Trazado_115255" data-name="Trazado 115255" d="M844.943,820.732l-1.359-1.6L855.7,808.853a20.409,20.409,0,0,0,7.187-15.834V743.683c0-2.893-1.922-4.992-4.572-4.992H819.593v-2.1h38.719c3.8,0,6.673,3.05,6.673,7.094v49.336a22.5,22.5,0,0,1-7.937,17.444Z" transform="translate(-815.801 -733.596)" fill="url(#linear-gradient-77)"/>
          <circle id="Elipse_4758" data-name="Elipse 4758" cx="3.918" cy="3.918" r="3.918" transform="translate(0)" fill="url(#linear-gradient-76)"/>
          <rect id="Rectángulo_32387" data-name="Rectángulo 32387" width="4.203" height="0.841" transform="translate(1.69 3.413)" fill="#91b3fa"/>
          <g id="Grupo_66201" data-name="Grupo 66201" transform="translate(8.772 80.571)">
            <rect id="Rectángulo_32388" data-name="Rectángulo 32388" width="6.305" height="1.261" transform="translate(0 17.191) rotate(-34.435)" fill="url(#linear-gradient-79)"/>
            <path id="Trazado_115256" data-name="Trazado 115256" d="M860.967,1134.733l11.9-8.16a2.872,2.872,0,0,1,3.993.745l2.694,3.929a2.872,2.872,0,0,1-.745,3.993l-11.9,8.16a2.872,2.872,0,0,1-3.993-.745l-2.693-3.929A2.872,2.872,0,0,1,860.967,1134.733Z" transform="translate(-856.706 -1126.069)" fill="url(#linear-gradient-80)"/>
            <rect id="Rectángulo_32389" data-name="Rectángulo 32389" width="1.681" height="11.769" rx="0.841" transform="translate(5.468 7.327) rotate(-34.435)" fill="#7d97f4"/>
          </g>
        </g>
      </g>
    </g>
  </g>
</svg>
