<svg xmlns="http://www.w3.org/2000/svg" width="614" height="320" viewBox="0 0 614 320">
  <g id="Grupo_974090" data-name="Grupo 974090" transform="translate(-258 -9714)">
    <g id="Trazado_704936" data-name="Trazado 704936" transform="translate(258 9714)" fill="#fff">
      <path d="M 574 318.5 L 40 318.5 C 34.80184555053711 318.5 29.76000022888184 317.4822998046875 25.0145378112793 315.4750671386719 C 20.43015289306641 313.5360717773438 16.31261444091797 310.7598571777344 12.7763843536377 307.2236022949219 C 9.240154266357422 303.6873779296875 6.46392297744751 299.5698547363281 4.524922847747803 294.9854736328125 C 2.51769232749939 290.239990234375 1.5 285.1981506347656 1.5 280 L 1.5 40 C 1.5 34.80184555053711 2.51769232749939 29.76000022888184 4.524922847747803 25.0145378112793 C 6.46392297744751 20.43015289306641 9.240154266357422 16.31261444091797 12.7763843536377 12.7763843536377 C 16.31261444091797 9.240154266357422 20.43015289306641 6.46392297744751 25.0145378112793 4.524922847747803 C 29.76000022888184 2.51769232749939 34.80184555053711 1.5 40 1.5 L 574 1.5 C 579.1981811523438 1.5 584.239990234375 2.51769232749939 588.9854736328125 4.524922847747803 C 593.56982421875 6.46392297744751 597.6873779296875 9.240154266357422 601.2236328125 12.7763843536377 C 604.7598266601562 16.31261444091797 607.5360717773438 20.43015289306641 609.47509765625 25.0145378112793 C 611.4822998046875 29.76000022888184 612.5 34.80184555053711 612.5 40 L 612.5 280 C 612.5 285.1981506347656 611.4822998046875 290.239990234375 609.47509765625 294.9854736328125 C 607.5360717773438 299.5698547363281 604.7598266601562 303.6873779296875 601.2236328125 307.2236022949219 C 597.6873779296875 310.7598571777344 593.56982421875 313.5360717773438 588.9854736328125 315.4750671386719 C 584.239990234375 317.4822998046875 579.1981811523438 318.5 574 318.5 Z" stroke="none"/>
      <path d="M 40 3 C 35.003662109375 3 30.158447265625 3.97784423828125 25.59881591796875 5.9063720703125 C 21.19329833984375 7.76983642578125 17.23602294921875 10.43807983398438 13.83709716796875 13.83706665039062 C 10.43804931640625 17.23599243164062 7.76983642578125 21.19329833984375 5.9063720703125 25.59884643554688 C 3.97784423828125 30.158447265625 3 35.00369262695312 3 40 L 3 280 C 3 284.9963073730469 3.97784423828125 289.841552734375 5.9063720703125 294.4011535644531 C 7.76983642578125 298.8067016601562 10.43804931640625 302.7640075683594 13.83709716796875 306.1629333496094 C 17.23602294921875 309.5619201660156 21.19329833984375 312.2301635742188 25.59881591796875 314.0936279296875 C 30.158447265625 316.0221557617188 35.003662109375 317 40 317 L 574 317 C 578.996337890625 317 583.841552734375 316.0221557617188 588.401123046875 314.0936279296875 C 592.8067016601562 312.2301635742188 596.7639770507812 309.5619201660156 600.1629028320312 306.1629333496094 C 603.5619506835938 302.7640075683594 606.2301635742188 298.8067016601562 608.0936279296875 294.4011535644531 C 610.0221557617188 289.841552734375 611 284.9963073730469 611 280 L 611 40 C 611 35.00369262695312 610.0221557617188 30.158447265625 608.0936279296875 25.59884643554688 C 606.2301635742188 21.19329833984375 603.5619506835938 17.23599243164062 600.1629028320312 13.83706665039062 C 596.7639770507812 10.43807983398438 592.8067016601562 7.76983642578125 588.401123046875 5.9063720703125 C 583.841552734375 3.97784423828125 578.996337890625 3 574 3 L 40 3 M 40 0 L 574 0 C 596.0913696289062 0 614 17.90863037109375 614 40 L 614 280 C 614 302.0913696289062 596.0913696289062 320 574 320 L 40 320 C 17.90863037109375 320 0 302.0913696289062 0 280 L 0 40 C 0 17.90863037109375 17.90863037109375 0 40 0 Z" stroke="none" fill="#7125c8"/>
    </g>
    <g id="Grupo_974089" data-name="Grupo 974089" transform="translate(294.146 9812.18)">
      <g id="Trazado_704938" data-name="Trazado 704938" transform="translate(37.936 -0.18)" fill="#fff">
        <path d="M 15.5 29.5 C 11.76047039031982 29.5 8.244759559631348 28.04375076293945 5.600510120391846 25.39949035644531 C 2.956249952316284 22.75523948669434 1.5 19.23953056335449 1.5 15.5 C 1.5 11.76047039031982 2.956249952316284 8.244759559631348 5.600510120391846 5.600510120391846 C 8.244759559631348 2.956249952316284 11.76047039031982 1.5 15.5 1.5 C 19.23953056335449 1.5 22.75523948669434 2.956249952316284 25.39949035644531 5.600510120391846 C 28.04375076293945 8.244759559631348 29.5 11.76047039031982 29.5 15.5 C 29.5 19.23953056335449 28.04375076293945 22.75523948669434 25.39949035644531 25.39949035644531 C 22.75523948669434 28.04375076293945 19.23953056335449 29.5 15.5 29.5 Z" stroke="none"/>
        <path d="M 15.5 3 C 12.16113090515137 3 9.022109985351562 4.300230026245117 6.661169052124023 6.661169052124023 C 4.300230026245117 9.022109985351562 3 12.16113090515137 3 15.5 C 3 18.83887100219727 4.300230026245117 21.97789001464844 6.661169052124023 24.33882904052734 C 9.022109985351562 26.69976997375488 12.16113090515137 28 15.5 28 C 18.83887100219727 28 21.97789001464844 26.69976997375488 24.33882904052734 24.33882904052734 C 26.69976997375488 21.97789001464844 28 18.83887100219727 28 15.5 C 28 12.16113090515137 26.69976997375488 9.022109985351562 24.33882904052734 6.661169052124023 C 21.97789001464844 4.300230026245117 18.83887100219727 3 15.5 3 M 15.5 0 C 24.06040954589844 0 31 6.939590454101562 31 15.5 C 31 24.06040954589844 24.06040954589844 31 15.5 31 C 6.939590454101562 31 0 24.06040954589844 0 15.5 C 0 6.939590454101562 6.939590454101562 0 15.5 0 Z" stroke="none" fill="#7125c8"/>
      </g>
      <g id="Trazado_704939" data-name="Trazado 704939" transform="translate(369.936 -0.18)" fill="#fff">
        <path d="M 15 29.5 C 11.40334033966064 29.5 8.019319534301758 28.04997062683105 5.47130012512207 25.41702079772949 C 2.910370111465454 22.77071952819824 1.5 19.2487907409668 1.5 15.5 C 1.5 11.75121021270752 2.910370111465454 8.229280471801758 5.47130012512207 5.582980155944824 C 8.019319534301758 2.950030088424683 11.40334033966064 1.5 15 1.5 C 18.59666061401367 1.5 21.98068046569824 2.950030088424683 24.52869987487793 5.582980155944824 C 27.08963012695312 8.229280471801758 28.5 11.75121021270752 28.5 15.5 C 28.5 19.2487907409668 27.08963012695312 22.77071952819824 24.52869987487793 25.41702079772949 C 21.98068046569824 28.04997062683105 18.59666061401367 29.5 15 29.5 Z" stroke="none"/>
        <path d="M 15 3 C 11.81332015991211 3 8.812110900878906 4.28778076171875 6.549209594726562 6.626110076904297 C 4.260469436645508 8.991140365600586 3 12.14262008666992 3 15.5 C 3 18.85737991333008 4.260469436645508 22.00885963439941 6.549209594726562 24.3738899230957 C 8.812110900878906 26.71221923828125 11.81332015991211 28 15 28 C 18.18667984008789 28 21.18788909912109 26.71221923828125 23.45079040527344 24.3738899230957 C 25.73953056335449 22.00885963439941 27 18.85737991333008 27 15.5 C 27 12.14262008666992 25.73953056335449 8.991140365600586 23.45079040527344 6.626110076904297 C 21.18788909912109 4.28778076171875 18.18667984008789 3 15 3 M 15 0 C 23.28426933288574 0 30 6.939590454101562 30 15.5 C 30 24.06040954589844 23.28426933288574 31 15 31 C 6.715730667114258 31 0 24.06040954589844 0 15.5 C 0 6.939590454101562 6.715730667114258 0 15 0 Z" stroke="none" fill="#7125c8"/>
      </g>
      <g id="Trazado_704940" data-name="Trazado 704940" transform="translate(37.936 147.82)" fill="#fff">
        <path d="M 15.5 28.5 C 11.75121021270752 28.5 8.229280471801758 27.08963012695312 5.582980155944824 24.52869987487793 C 2.950030088424683 21.98068046569824 1.5 18.59666061401367 1.5 15 C 1.5 11.40334033966064 2.950030088424683 8.019319534301758 5.582980155944824 5.47130012512207 C 8.229280471801758 2.910370111465454 11.75121021270752 1.5 15.5 1.5 C 19.2487907409668 1.5 22.77071952819824 2.910370111465454 25.41702079772949 5.47130012512207 C 28.04997062683105 8.019319534301758 29.5 11.40334033966064 29.5 15 C 29.5 18.59666061401367 28.04997062683105 21.98068046569824 25.41702079772949 24.52869987487793 C 22.77071952819824 27.08963012695312 19.2487907409668 28.5 15.5 28.5 Z" stroke="none"/>
        <path d="M 15.5 3 C 12.14262008666992 3 8.991140365600586 4.260469436645508 6.626110076904297 6.549209594726562 C 4.28778076171875 8.812110900878906 3 11.81332015991211 3 15 C 3 18.18667984008789 4.28778076171875 21.18788909912109 6.626110076904297 23.45079040527344 C 8.991140365600586 25.73953056335449 12.14262008666992 27 15.5 27 C 18.85737991333008 27 22.00885963439941 25.73953056335449 24.3738899230957 23.45079040527344 C 26.71221923828125 21.18788909912109 28 18.18667984008789 28 15 C 28 11.81332015991211 26.71221923828125 8.812110900878906 24.3738899230957 6.549209594726562 C 22.00885963439941 4.260469436645508 18.85737991333008 3 15.5 3 M 15.5 0 C 24.06040954589844 0 31 6.715730667114258 31 15 C 31 23.28426933288574 24.06040954589844 30 15.5 30 C 6.939590454101562 30 0 23.28426933288574 0 15 C 0 6.715730667114258 6.939590454101562 0 15.5 0 Z" stroke="none" fill="#7125c8"/>
      </g>
      <g id="Trazado_704941" data-name="Trazado 704941" transform="translate(369.936 147.82)" fill="#fff">
        <path d="M 15 28.5 C 11.39402008056641 28.5 8.003870010375977 27.09575080871582 5.454060077667236 24.54594039916992 C 2.904249906539917 21.99612998962402 1.5 18.60597991943359 1.5 15 C 1.5 11.39402008056641 2.904249906539917 8.003870010375977 5.454060077667236 5.454060077667236 C 8.003870010375977 2.904249906539917 11.39402008056641 1.5 15 1.5 C 18.60597991943359 1.5 21.99612998962402 2.904249906539917 24.54594039916992 5.454060077667236 C 27.09575080871582 8.003870010375977 28.5 11.39402008056641 28.5 15 C 28.5 18.60597991943359 27.09575080871582 21.99612998962402 24.54594039916992 24.54594039916992 C 21.99612998962402 27.09575080871582 18.60597991943359 28.5 15 28.5 Z" stroke="none"/>
        <path d="M 15 3 C 11.79467964172363 3 8.781219482421875 4.248220443725586 6.514720916748047 6.514720916748047 C 4.248220443725586 8.781219482421875 3 11.79467964172363 3 15 C 3 18.20532035827637 4.248220443725586 21.21878051757812 6.514720916748047 23.48527908325195 C 8.781219482421875 25.75177955627441 11.79467964172363 27 15 27 C 18.20532035827637 27 21.21878051757812 25.75177955627441 23.48527908325195 23.48527908325195 C 25.75177955627441 21.21878051757812 27 18.20532035827637 27 15 C 27 11.79467964172363 25.75177955627441 8.781219482421875 23.48527908325195 6.514720916748047 C 21.21878051757812 4.248220443725586 18.20532035827637 3 15 3 M 15 0 C 23.28426933288574 0 30 6.715730667114258 30 15 C 30 23.28426933288574 23.28426933288574 30 15 30 C 6.715730667114258 30 0 23.28426933288574 0 15 C 0 6.715730667114258 6.715730667114258 0 15 0 Z" stroke="none" fill="#7125c8"/>
      </g>
      <g id="Trazado_704942" data-name="Trazado 704942" transform="translate(225.83 118.828) rotate(-90)" fill="#fff">
        <path d="M 54.62891387939453 27.78469848632812 L 1.500005006790161 27.78469848632812 L 1.500005006790161 1.499998331069946 L 54.62891387939453 1.499998331069946 L 54.62891387939453 27.78469848632812 Z" stroke="none"/>
        <path d="M 2.999996185302734 2.999998092651367 L 2.999996185302734 26.28469848632812 L 53.12890625 26.28469848632812 L 53.12890625 2.999998092651367 L 2.999996185302734 2.999998092651367 M -3.814697265625e-06 -1.9073486328125e-06 L 56.12890625 -1.9073486328125e-06 L 56.12890625 29.28469848632812 L -3.814697265625e-06 29.28469848632812 L -3.814697265625e-06 -1.9073486328125e-06 Z" stroke="none" fill="#7125c8"/>
      </g>
      <g id="Trazado_704943" data-name="Trazado 704943" transform="translate(130.092 118.828) rotate(-90)" fill="#fff">
        <path d="M 54.62891387939453 27.78469848632812 L 1.500005006790161 27.78469848632812 L 1.500005006790161 1.499998331069946 L 54.62891387939453 1.499998331069946 L 54.62891387939453 27.78469848632812 Z" stroke="none"/>
        <path d="M 2.999996185302734 2.999998092651367 L 2.999996185302734 26.28469848632812 L 53.12890625 26.28469848632812 L 53.12890625 2.999998092651367 L 2.999996185302734 2.999998092651367 M -3.814697265625e-06 -1.9073486328125e-06 L 56.12890625 -1.9073486328125e-06 L 56.12890625 29.28469848632812 L -3.814697265625e-06 29.28469848632812 L -3.814697265625e-06 -1.9073486328125e-06 Z" stroke="none" fill="#7125c8"/>
      </g>
      <g id="Trazado_704944" data-name="Trazado 704944" transform="translate(458.418 118.828) rotate(-90)" fill="#fff">
        <path d="M 54.62891387939453 27.78469848632812 L 1.500005006790161 27.78469848632812 L 1.500005006790161 1.499998331069946 L 54.62891387939453 1.499998331069946 L 54.62891387939453 27.78469848632812 Z" stroke="none"/>
        <path d="M 2.999996185302734 2.999998092651367 L 2.999996185302734 26.28469848632812 L 53.12890625 26.28469848632812 L 53.12890625 2.999998092651367 L 2.999996185302734 2.999998092651367 M -3.814697265625e-06 -1.9073486328125e-06 L 56.12890625 -1.9073486328125e-06 L 56.12890625 29.28469848632812 L -3.814697265625e-06 29.28469848632812 L -3.814697265625e-06 -1.9073486328125e-06 Z" stroke="none" fill="#7125c8"/>
      </g>
      <path id="Trazado_704881" data-name="Trazado 704881" d="M2967-2444h94.237v49.559" transform="translate(-2822.079 2458.643)" fill="none" stroke="#7125c8" stroke-width="3"/>
      <path id="Trazado_704887" data-name="Trazado 704887" d="M2967-2444h74.713v49.559" transform="translate(-2898.294 2458.643)" fill="none" stroke="#7125c8" stroke-width="3"/>
      <path id="Trazado_704886" data-name="Trazado 704886" d="M2967-2444h71.9v49.559" transform="translate(-2567.152 2458.643)" fill="none" stroke="#7125c8" stroke-width="3"/>
      <path id="Trazado_704882" data-name="Trazado 704882" d="M2967-2307.51h97.24V-2352" transform="translate(-2823.581 2470.265)" fill="none" stroke="#7125c8" stroke-width="3"/>
      <path id="Trazado_704888" data-name="Trazado 704888" d="M2967-2307.51h76.215V-2352" transform="translate(-2898.294 2470.265)" fill="none" stroke="#7125c8" stroke-width="3"/>
      <path id="Trazado_704884" data-name="Trazado 704884" d="M2967-2307.51h73.4V-2352" transform="translate(-2567.152 2470.265)" fill="none" stroke="#7125c8" stroke-width="3"/>
      <path id="Trazado_704945" data-name="Trazado 704945" d="M7.9-2.49H3.536L2.706,0H.058l4.5-12.086H6.865L11.389,0H8.741ZM4.208-4.507H7.23L5.711-9.031Z" transform="translate(17.936 20.82)" fill="#12263f"/>
      <path id="Trazado_704946" data-name="Trazado 704946" d="M7.9-2.49H3.536L2.706,0H.058l4.5-12.086H6.865L11.389,0H8.741ZM4.208-4.507H7.23L5.711-9.031Z" transform="translate(338.936 20.82)" fill="#12263f"/>
      <path id="Trazado_704947" data-name="Trazado 704947" d="M5.553-4.424H3.569V0H1.079V-12.086H5.57a5.076,5.076,0,0,1,3.3.955,3.3,3.3,0,0,1,1.162,2.7A3.718,3.718,0,0,1,9.5-6.371,3.651,3.651,0,0,1,7.877-5.055L10.492-.116V0H7.819ZM3.569-6.441H5.578a2.057,2.057,0,0,0,1.453-.477,1.706,1.706,0,0,0,.515-1.316A1.826,1.826,0,0,0,7.06-9.579a2.018,2.018,0,0,0-1.49-.49h-2ZM14.727,6h-1.4V.606l-1.67.518V-.014l2.92-1.046h.15Z" transform="translate(107.198 95.623)" fill="#12263f"/>
      <path id="Trazado_704948" data-name="Trazado 704948" d="M5.553-4.424H3.569V0H1.079V-12.086H5.57a5.076,5.076,0,0,1,3.3.955,3.3,3.3,0,0,1,1.162,2.7A3.718,3.718,0,0,1,9.5-6.371,3.651,3.651,0,0,1,7.877-5.055L10.492-.116V0H7.819ZM3.569-6.441H5.578a2.057,2.057,0,0,0,1.453-.477,1.706,1.706,0,0,0,.515-1.316A1.826,1.826,0,0,0,7.06-9.579a2.018,2.018,0,0,0-1.49-.49h-2ZM16.161,6H11.328V5.041l2.281-2.431a5.626,5.626,0,0,0,.695-.9,1.439,1.439,0,0,0,.225-.726A1.077,1.077,0,0,0,14.292.25a.856.856,0,0,0-.678-.269.924.924,0,0,0-.748.327,1.3,1.3,0,0,0-.274.859h-1.4A2.311,2.311,0,0,1,11.5-.009a2.167,2.167,0,0,1,.869-.835,2.642,2.642,0,0,1,1.273-.3,2.5,2.5,0,0,1,1.692.523,1.85,1.85,0,0,1,.6,1.477,2.37,2.37,0,0,1-.271,1.065,5.92,5.92,0,0,1-.93,1.264l-1.6,1.69h3.031Z" transform="translate(202.936 94.82)" fill="#12263f"/>
      <path id="Trazado_704949" data-name="Trazado 704949" d="M5.553-4.424H3.569V0H1.079V-12.086H5.57a5.076,5.076,0,0,1,3.3.955,3.3,3.3,0,0,1,1.162,2.7A3.718,3.718,0,0,1,9.5-6.371,3.651,3.651,0,0,1,7.877-5.055L10.492-.116V0H7.819ZM3.569-6.441H5.578a2.057,2.057,0,0,0,1.453-.477,1.706,1.706,0,0,0,.515-1.316A1.826,1.826,0,0,0,7.06-9.579a2.018,2.018,0,0,0-1.49-.49h-2ZM15.9.166a4.409,4.409,0,0,1-3.217-1.212,4.308,4.308,0,0,1-1.241-3.229v-.232a5.426,5.426,0,0,1,.523-2.42,3.838,3.838,0,0,1,1.482-1.644,4.159,4.159,0,0,1,2.187-.577,3.727,3.727,0,0,1,2.9,1.162A4.722,4.722,0,0,1,19.6-4.69v.979H13.879a2.229,2.229,0,0,0,.7,1.411,2.12,2.12,0,0,0,1.482.531,2.589,2.589,0,0,0,2.167-1l1.179,1.32A3.6,3.6,0,0,1,17.946-.261,4.793,4.793,0,0,1,15.9.166ZM15.63-7.213a1.5,1.5,0,0,0-1.158.484A2.5,2.5,0,0,0,13.9-5.346h3.337v-.192a1.786,1.786,0,0,0-.432-1.238A1.547,1.547,0,0,0,15.63-7.213Zm4.956,2.64a5.369,5.369,0,0,1,.942-3.345,3.08,3.08,0,0,1,2.586-1.229,2.758,2.758,0,0,1,2.3,1.1l.158-.938h2.108V3.453H26.272V-.772A2.765,2.765,0,0,1,24.1.166a3.057,3.057,0,0,1-2.557-1.245A5.632,5.632,0,0,1,20.586-4.574Zm2.4.17a3.522,3.522,0,0,0,.452,1.962,1.448,1.448,0,0,0,1.274.673,1.613,1.613,0,0,0,1.561-.881V-6.365a1.6,1.6,0,0,0-1.544-.848,1.466,1.466,0,0,0-1.287.673A3.889,3.889,0,0,0,22.985-4.4Z" transform="translate(492.771 94.843)" fill="#12263f"/>
      <path id="Trazado_704950" data-name="Trazado 704950" d="M1.079,0V-12.086H5.313a5.559,5.559,0,0,1,3.337.843A2.881,2.881,0,0,1,9.787-8.774,2.731,2.731,0,0,1,9.33-7.209a2.637,2.637,0,0,1-1.27.992,2.551,2.551,0,0,1,1.465.938,2.773,2.773,0,0,1,.535,1.727A3.19,3.19,0,0,1,8.948-.913,5.007,5.007,0,0,1,5.777,0Zm2.49-5.263V-2H5.7A2.059,2.059,0,0,0,7.076-2.42,1.437,1.437,0,0,0,7.57-3.578,1.518,1.518,0,0,0,5.852-5.263Zm0-1.76H5.412Q7.3-7.056,7.3-8.525a1.388,1.388,0,0,0-.477-1.183,2.51,2.51,0,0,0-1.507-.361H3.569Z" transform="translate(17.936 167.82)" fill="#12263f"/>
      <path id="Trazado_704951" data-name="Trazado 704951" d="M1.079,0V-12.086H5.313a5.559,5.559,0,0,1,3.337.843A2.881,2.881,0,0,1,9.787-8.774,2.731,2.731,0,0,1,9.33-7.209a2.637,2.637,0,0,1-1.27.992,2.551,2.551,0,0,1,1.465.938,2.773,2.773,0,0,1,.535,1.727A3.19,3.19,0,0,1,8.948-.913,5.007,5.007,0,0,1,5.777,0Zm2.49-5.263V-2H5.7A2.059,2.059,0,0,0,7.076-2.42,1.437,1.437,0,0,0,7.57-3.578,1.518,1.518,0,0,0,5.852-5.263Zm0-1.76H5.412Q7.3-7.056,7.3-8.525a1.388,1.388,0,0,0-.477-1.183,2.51,2.51,0,0,0-1.507-.361H3.569Z" transform="translate(338.936 167.82)" fill="#12263f"/>
      <path id="Trazado_704952" data-name="Trazado 704952" d="M0,0H37.169" transform="translate(296.789 84.475)" fill="none" stroke="#707070" stroke-width="2"/>
      <path id="Trazado_704953" data-name="Trazado 704953" d="M0,0H37.169" transform="translate(296.789 99.117)" fill="none" stroke="#707070" stroke-width="2"/>
      <path id="Trazado_704883" data-name="Trazado 704883" d="M3110.667-2387l12.39,12.906s-9.292,9.507-12.39,11.873" transform="translate(-2781.777 2465.844)" fill="none" stroke="#707070" stroke-width="2"/>
    </g>
    <path id="Trazado_704937" data-name="Trazado 704937" d="M11.065-4.166A4.621,4.621,0,0,1,9.554-.971,5.154,5.154,0,0,1,6.047.176,4.99,4.99,0,0,1,3.353-.549a4.759,4.759,0,0,1-1.8-2.061A7.438,7.438,0,0,1,.9-5.713v-1.2a7.491,7.491,0,0,1,.642-3.19,4.835,4.835,0,0,1,1.841-2.127,5.136,5.136,0,0,1,2.773-.747,4.946,4.946,0,0,1,3.41,1.147,4.793,4.793,0,0,1,1.5,3.248H8.851a3.161,3.161,0,0,0-.8-1.991,2.658,2.658,0,0,0-1.894-.611,2.6,2.6,0,0,0-2.228,1.06,5.3,5.3,0,0,0-.8,3.11v1.135a5.62,5.62,0,0,0,.743,3.167A2.464,2.464,0,0,0,6.047-1.617a2.875,2.875,0,0,0,1.969-.589,3.071,3.071,0,0,0,.835-1.96ZM15.117,0H12.981V-9.51h2.136ZM12.85-11.979a1.133,1.133,0,0,1,.312-.817,1.179,1.179,0,0,1,.892-.325,1.193,1.193,0,0,1,.9.325,1.125,1.125,0,0,1,.316.817,1.1,1.1,0,0,1-.316.8,1.2,1.2,0,0,1-.9.321,1.188,1.188,0,0,1-.892-.321A1.107,1.107,0,0,1,12.85-11.979Zm9.571,4.421a5.285,5.285,0,0,0-.87-.07A1.959,1.959,0,0,0,19.573-6.5V0H17.438V-9.51h2.039l.053,1.063a2.406,2.406,0,0,1,2.145-1.239,2,2,0,0,1,.756.123ZM27.51-1.529A1.931,1.931,0,0,0,28.837-2,1.591,1.591,0,0,0,29.4-3.146h2.013a3.137,3.137,0,0,1-.554,1.657A3.632,3.632,0,0,1,29.452-.272a4.191,4.191,0,0,1-1.916.448,4.055,4.055,0,0,1-3.164-1.292A5.124,5.124,0,0,1,23.2-4.685V-4.9a5.039,5.039,0,0,1,1.16-3.476,4.018,4.018,0,0,1,3.164-1.305,3.907,3.907,0,0,1,2.764.989,3.542,3.542,0,0,1,1.121,2.6H29.4a1.956,1.956,0,0,0-.558-1.345,1.8,1.8,0,0,0-1.332-.527,1.879,1.879,0,0,0-1.6.751,3.834,3.834,0,0,0-.571,2.281V-4.6A3.9,3.9,0,0,0,25.9-2.29,1.878,1.878,0,0,0,27.51-1.529Zm11.276.6A3.312,3.312,0,0,1,36.114.176a2.952,2.952,0,0,1-2.342-.905,3.851,3.851,0,0,1-.8-2.619V-9.51h2.136v6.135q0,1.811,1.5,1.811a2.111,2.111,0,0,0,2.1-1.116V-9.51h2.136V0H38.839ZM45.3,0H43.163V-9.51H45.3ZM43.031-11.979a1.133,1.133,0,0,1,.312-.817,1.179,1.179,0,0,1,.892-.325,1.193,1.193,0,0,1,.9.325,1.125,1.125,0,0,1,.316.817,1.1,1.1,0,0,1-.316.8,1.2,1.2,0,0,1-.9.321,1.188,1.188,0,0,1-.892-.321A1.107,1.107,0,0,1,43.031-11.979Zm7.269.158V-9.51h1.679v1.582H50.3v5.309a1.169,1.169,0,0,0,.215.787,1,1,0,0,0,.769.242,3.29,3.29,0,0,0,.747-.088V-.026a5.26,5.26,0,0,1-1.406.2q-2.461,0-2.461-2.716V-7.928H46.6V-9.51h1.564v-2.312Zm2.646,6.979A5.607,5.607,0,0,1,53.5-7.361a4.044,4.044,0,0,1,1.556-1.723,4.383,4.383,0,0,1,2.3-.6,4.154,4.154,0,0,1,3.125,1.239,4.874,4.874,0,0,1,1.3,3.287l.009.5a5.658,5.658,0,0,1-.541,2.514A4,4,0,0,1,59.7-.431a4.415,4.415,0,0,1-2.325.606,4.125,4.125,0,0,1-3.221-1.34,5.133,5.133,0,0,1-1.208-3.573Zm2.136.185a3.832,3.832,0,0,0,.606,2.3,1.971,1.971,0,0,0,1.688.831,1.95,1.95,0,0,0,1.683-.844,4.232,4.232,0,0,0,.6-2.47,3.782,3.782,0,0,0-.62-2.285,1.979,1.979,0,0,0-1.683-.844,1.96,1.96,0,0,0-1.661.831A4.152,4.152,0,0,0,55.081-4.658Zm17.974-2.9a5.285,5.285,0,0,0-.87-.07A1.959,1.959,0,0,0,70.207-6.5V0H68.071V-9.51H70.11l.053,1.063a2.406,2.406,0,0,1,2.145-1.239,2,2,0,0,1,.756.123ZM78.425.176A4.419,4.419,0,0,1,75.133-1.1a4.639,4.639,0,0,1-1.261-3.406v-.264a5.706,5.706,0,0,1,.549-2.544,4.181,4.181,0,0,1,1.542-1.745,4.078,4.078,0,0,1,2.215-.624,3.733,3.733,0,0,1,3,1.239,5.24,5.24,0,0,1,1.059,3.507v.861H76.025a2.856,2.856,0,0,0,.787,1.863,2.362,2.362,0,0,0,1.736.686,2.892,2.892,0,0,0,2.391-1.187l1.151,1.1A3.845,3.845,0,0,1,80.565-.294,4.774,4.774,0,0,1,78.425.176ZM78.17-7.972a1.8,1.8,0,0,0-1.419.615,3.189,3.189,0,0,0-.69,1.714H80.13V-5.8a2.6,2.6,0,0,0-.571-1.622A1.785,1.785,0,0,0,78.17-7.972ZM89.227-2.584a.968.968,0,0,0-.47-.87,5,5,0,0,0-1.56-.527,8.02,8.02,0,0,1-1.819-.58,2.428,2.428,0,0,1-1.6-2.241,2.531,2.531,0,0,1,1.037-2.057,4.1,4.1,0,0,1,2.637-.826,4.266,4.266,0,0,1,2.755.844,2.677,2.677,0,0,1,1.05,2.188H89.121a1.316,1.316,0,0,0-.457-1.024,1.752,1.752,0,0,0-1.213-.409,1.893,1.893,0,0,0-1.147.325,1.025,1.025,0,0,0-.444.87.866.866,0,0,0,.413.765,5.68,5.68,0,0,0,1.67.549,7.9,7.9,0,0,1,1.973.659A2.794,2.794,0,0,1,90.98-4a2.342,2.342,0,0,1,.347,1.3A2.478,2.478,0,0,1,90.264-.62a4.535,4.535,0,0,1-2.786.8,4.917,4.917,0,0,1-2.083-.422,3.428,3.428,0,0,1-1.424-1.16A2.746,2.746,0,0,1,83.461-3h2.074a1.5,1.5,0,0,0,.571,1.165,2.22,2.22,0,0,0,1.4.409,2.16,2.16,0,0,0,1.283-.321A.993.993,0,0,0,89.227-2.584ZM95.458,0H93.322V-9.51h2.136ZM93.19-11.979A1.133,1.133,0,0,1,93.5-12.8a1.179,1.179,0,0,1,.892-.325,1.193,1.193,0,0,1,.9.325,1.125,1.125,0,0,1,.316.817,1.1,1.1,0,0,1-.316.8,1.2,1.2,0,0,1-.9.321,1.188,1.188,0,0,1-.892-.321A1.107,1.107,0,0,1,93.19-11.979Zm9.923,9.4a.968.968,0,0,0-.47-.87,5,5,0,0,0-1.56-.527,8.02,8.02,0,0,1-1.819-.58,2.428,2.428,0,0,1-1.6-2.241A2.531,2.531,0,0,1,98.7-8.859a4.1,4.1,0,0,1,2.637-.826,4.266,4.266,0,0,1,2.755.844,2.677,2.677,0,0,1,1.05,2.188h-2.136a1.316,1.316,0,0,0-.457-1.024,1.752,1.752,0,0,0-1.213-.409,1.893,1.893,0,0,0-1.147.325,1.025,1.025,0,0,0-.444.87.866.866,0,0,0,.413.765,5.68,5.68,0,0,0,1.67.549,7.9,7.9,0,0,1,1.973.659A2.794,2.794,0,0,1,104.867-4a2.342,2.342,0,0,1,.347,1.3A2.478,2.478,0,0,1,104.15-.62a4.535,4.535,0,0,1-2.786.8,4.917,4.917,0,0,1-2.083-.422,3.428,3.428,0,0,1-1.424-1.16A2.746,2.746,0,0,1,97.348-3h2.074a1.5,1.5,0,0,0,.571,1.165,2.22,2.22,0,0,0,1.4.409,2.16,2.16,0,0,0,1.283-.321A.993.993,0,0,0,103.113-2.584Zm6.636-9.237V-9.51h1.679v1.582h-1.679v5.309a1.169,1.169,0,0,0,.215.787,1,1,0,0,0,.769.242,3.29,3.29,0,0,0,.747-.088V-.026a5.26,5.26,0,0,1-1.406.2q-2.461,0-2.461-2.716V-7.928h-1.564V-9.51h1.564v-2.312ZM115.33,0h-2.136V-9.51h2.136Zm-2.268-11.979a1.133,1.133,0,0,1,.312-.817,1.179,1.179,0,0,1,.892-.325,1.193,1.193,0,0,1,.9.325,1.125,1.125,0,0,1,.316.817,1.1,1.1,0,0,1-.316.8,1.2,1.2,0,0,1-.9.321,1.188,1.188,0,0,1-.892-.321A1.107,1.107,0,0,1,113.063-11.979Zm7.945,9.272,2.013-6.8h2.206L121.931,0h-1.854l-3.322-9.51h2.215Zm5.019-2.136a5.607,5.607,0,0,1,.554-2.518,4.044,4.044,0,0,1,1.556-1.723,4.383,4.383,0,0,1,2.3-.6,4.154,4.154,0,0,1,3.125,1.239,4.874,4.874,0,0,1,1.3,3.287l.009.5a5.658,5.658,0,0,1-.541,2.514,4,4,0,0,1-1.547,1.714,4.415,4.415,0,0,1-2.325.606,4.125,4.125,0,0,1-3.221-1.34,5.133,5.133,0,0,1-1.208-3.573Zm2.136.185a3.832,3.832,0,0,0,.606,2.3,1.971,1.971,0,0,0,1.688.831,1.95,1.95,0,0,0,1.683-.844,4.232,4.232,0,0,0,.6-2.47,3.782,3.782,0,0,0-.62-2.285,1.979,1.979,0,0,0-1.683-.844,1.96,1.96,0,0,0-1.661.831A4.152,4.152,0,0,0,128.162-4.658Zm21.322,0a5.662,5.662,0,0,1-1,3.52A3.209,3.209,0,0,1,145.793.176a3.23,3.23,0,0,1-2.5-1.028V3.656h-2.136V-9.51h1.969l.088.967a3.137,3.137,0,0,1,2.558-1.143,3.242,3.242,0,0,1,2.729,1.3,5.813,5.813,0,0,1,.989,3.6Zm-2.127-.185a3.966,3.966,0,0,0-.567-2.259,1.843,1.843,0,0,0-1.622-.835,1.965,1.965,0,0,0-1.881,1.081v4.219a1.983,1.983,0,0,0,1.9,1.107,1.841,1.841,0,0,0,1.6-.822A4.366,4.366,0,0,0,147.357-4.843ZM156.973,0a3.3,3.3,0,0,1-.246-.888,3.325,3.325,0,0,1-2.5,1.063,3.355,3.355,0,0,1-2.338-.817,2.615,2.615,0,0,1-.905-2.021A2.7,2.7,0,0,1,152.117-5a5.473,5.473,0,0,1,3.23-.813h1.31v-.624a1.666,1.666,0,0,0-.413-1.182,1.638,1.638,0,0,0-1.257-.444,1.881,1.881,0,0,0-1.2.365,1.129,1.129,0,0,0-.466.927h-2.136a2.37,2.37,0,0,1,.519-1.463A3.455,3.455,0,0,1,153.119-9.3a4.955,4.955,0,0,1,1.991-.387,3.99,3.99,0,0,1,2.663.839,2.993,2.993,0,0,1,1.02,2.36V-2.2a4.861,4.861,0,0,0,.36,2.048V0Zm-2.347-1.538a2.429,2.429,0,0,0,1.191-.308,2.055,2.055,0,0,0,.839-.826V-4.465H155.5a3.148,3.148,0,0,0-1.784.413,1.338,1.338,0,0,0-.6,1.169,1.248,1.248,0,0,0,.409.98A1.583,1.583,0,0,0,154.626-1.538Zm11.382-6.021a5.285,5.285,0,0,0-.87-.07A1.959,1.959,0,0,0,163.16-6.5V0h-2.136V-9.51h2.039l.053,1.063a2.406,2.406,0,0,1,2.145-1.239,2,2,0,0,1,.756.123ZM172.775,0a3.3,3.3,0,0,1-.246-.888,3.325,3.325,0,0,1-2.5,1.063A3.355,3.355,0,0,1,167.7-.642a2.615,2.615,0,0,1-.905-2.021A2.7,2.7,0,0,1,167.919-5a5.473,5.473,0,0,1,3.23-.813h1.31v-.624a1.666,1.666,0,0,0-.413-1.182,1.638,1.638,0,0,0-1.257-.444,1.881,1.881,0,0,0-1.2.365,1.129,1.129,0,0,0-.466.927h-2.136a2.37,2.37,0,0,1,.519-1.463A3.455,3.455,0,0,1,168.921-9.3a4.955,4.955,0,0,1,1.991-.387,3.99,3.99,0,0,1,2.663.839,2.993,2.993,0,0,1,1.02,2.36V-2.2a4.861,4.861,0,0,0,.36,2.048V0Zm-2.347-1.538a2.429,2.429,0,0,0,1.191-.308,2.055,2.055,0,0,0,.839-.826V-4.465h-1.151a3.148,3.148,0,0,0-1.784.413,1.338,1.338,0,0,0-.6,1.169,1.248,1.248,0,0,0,.409.98A1.583,1.583,0,0,0,170.429-1.538ZM179.1,0h-2.136V-13.5H179.1Zm6.513.176A4.419,4.419,0,0,1,182.325-1.1a4.639,4.639,0,0,1-1.261-3.406v-.264a5.706,5.706,0,0,1,.549-2.544,4.181,4.181,0,0,1,1.542-1.745,4.078,4.078,0,0,1,2.215-.624,3.733,3.733,0,0,1,3,1.239,5.24,5.24,0,0,1,1.059,3.507v.861h-6.214A2.856,2.856,0,0,0,184-2.215a2.362,2.362,0,0,0,1.736.686,2.892,2.892,0,0,0,2.391-1.187l1.151,1.1a3.845,3.845,0,0,1-1.525,1.323A4.774,4.774,0,0,1,185.616.176Zm-.255-8.147a1.8,1.8,0,0,0-1.419.615,3.189,3.189,0,0,0-.69,1.714h4.069V-5.8a2.6,2.6,0,0,0-.571-1.622A1.785,1.785,0,0,0,185.361-7.972Zm8,7.972h-2.136V-13.5h2.136Zm1.925-4.843a5.607,5.607,0,0,1,.554-2.518,4.044,4.044,0,0,1,1.556-1.723,4.383,4.383,0,0,1,2.3-.6,4.154,4.154,0,0,1,3.125,1.239,4.874,4.874,0,0,1,1.3,3.287l.009.5a5.658,5.658,0,0,1-.541,2.514,4,4,0,0,1-1.547,1.714,4.415,4.415,0,0,1-2.325.606,4.125,4.125,0,0,1-3.221-1.34,5.133,5.133,0,0,1-1.208-3.573Zm2.136.185a3.832,3.832,0,0,0,.606,2.3,1.971,1.971,0,0,0,1.688.831,1.95,1.95,0,0,0,1.683-.844,4.232,4.232,0,0,0,.6-2.47,3.782,3.782,0,0,0-.62-2.285,1.979,1.979,0,0,0-1.683-.844,1.96,1.96,0,0,0-1.661.831A4.152,4.152,0,0,0,197.42-4.658Zm12.595-.167a5.654,5.654,0,0,1,1.02-3.529,3.267,3.267,0,0,1,2.733-1.332,3.1,3.1,0,0,1,2.443,1.055V-13.5h2.136V0h-1.934l-.105-.984A3.148,3.148,0,0,1,213.75.176a3.248,3.248,0,0,1-2.7-1.345A5.861,5.861,0,0,1,210.015-4.825Zm2.136.185a3.958,3.958,0,0,0,.558,2.263,1.811,1.811,0,0,0,1.586.813,2.017,2.017,0,0,0,1.916-1.169V-6.794a1.986,1.986,0,0,0-1.9-1.143,1.824,1.824,0,0,0-1.6.822A4.408,4.408,0,0,0,212.15-4.641ZM224.763.176A4.419,4.419,0,0,1,221.471-1.1a4.639,4.639,0,0,1-1.261-3.406v-.264a5.706,5.706,0,0,1,.549-2.544A4.181,4.181,0,0,1,222.3-9.062a4.078,4.078,0,0,1,2.215-.624,3.733,3.733,0,0,1,3,1.239,5.24,5.24,0,0,1,1.059,3.507v.861h-6.214a2.856,2.856,0,0,0,.787,1.863,2.362,2.362,0,0,0,1.736.686,2.892,2.892,0,0,0,2.391-1.187l1.151,1.1A3.845,3.845,0,0,1,226.9-.294,4.774,4.774,0,0,1,224.763.176Zm-.255-8.147a1.8,1.8,0,0,0-1.419.615,3.189,3.189,0,0,0-.69,1.714h4.069V-5.8a2.6,2.6,0,0,0-.571-1.622A1.785,1.785,0,0,0,224.508-7.972Zm9.809,3.146a5.654,5.654,0,0,1,1.02-3.529,3.267,3.267,0,0,1,2.733-1.332,3.1,3.1,0,0,1,2.443,1.055V-13.5h2.136V0h-1.934l-.105-.984a3.148,3.148,0,0,1-2.558,1.16,3.248,3.248,0,0,1-2.7-1.345A5.861,5.861,0,0,1,234.316-4.825Zm2.136.185a3.958,3.958,0,0,0,.558,2.263,1.811,1.811,0,0,0,1.586.813,2.017,2.017,0,0,0,1.916-1.169V-6.794a1.986,1.986,0,0,0-1.9-1.143,1.824,1.824,0,0,0-1.6.822A4.408,4.408,0,0,0,236.452-4.641Zm8.024-.2a5.607,5.607,0,0,1,.554-2.518,4.044,4.044,0,0,1,1.556-1.723,4.383,4.383,0,0,1,2.3-.6,4.154,4.154,0,0,1,3.125,1.239,4.874,4.874,0,0,1,1.3,3.287l.009.5a5.658,5.658,0,0,1-.541,2.514,4,4,0,0,1-1.547,1.714,4.415,4.415,0,0,1-2.325.606,4.125,4.125,0,0,1-3.221-1.34,5.133,5.133,0,0,1-1.208-3.573Zm2.136.185a3.832,3.832,0,0,0,.606,2.3,1.971,1.971,0,0,0,1.688.831,1.95,1.95,0,0,0,1.683-.844,4.232,4.232,0,0,0,.6-2.47,3.782,3.782,0,0,0-.62-2.285,1.979,1.979,0,0,0-1.683-.844,1.96,1.96,0,0,0-1.661.831A4.152,4.152,0,0,0,246.612-4.658Zm13.843,2.074a.968.968,0,0,0-.47-.87,5,5,0,0,0-1.56-.527,8.02,8.02,0,0,1-1.819-.58,2.428,2.428,0,0,1-1.6-2.241,2.531,2.531,0,0,1,1.037-2.057,4.1,4.1,0,0,1,2.637-.826,4.266,4.266,0,0,1,2.755.844,2.677,2.677,0,0,1,1.05,2.188H260.35a1.316,1.316,0,0,0-.457-1.024,1.752,1.752,0,0,0-1.213-.409,1.893,1.893,0,0,0-1.147.325,1.025,1.025,0,0,0-.444.87.866.866,0,0,0,.413.765,5.68,5.68,0,0,0,1.67.549,7.9,7.9,0,0,1,1.973.659A2.794,2.794,0,0,1,262.208-4a2.342,2.342,0,0,1,.347,1.3A2.478,2.478,0,0,1,261.492-.62a4.535,4.535,0,0,1-2.786.8,4.917,4.917,0,0,1-2.083-.422,3.428,3.428,0,0,1-1.424-1.16A2.746,2.746,0,0,1,254.689-3h2.074a1.5,1.5,0,0,0,.571,1.165,2.22,2.22,0,0,0,1.4.409,2.16,2.16,0,0,0,1.283-.321A.993.993,0,0,0,260.455-2.584Zm13.421-4.975a5.285,5.285,0,0,0-.87-.07A1.959,1.959,0,0,0,271.028-6.5V0h-2.136V-9.51h2.039l.053,1.063a2.406,2.406,0,0,1,2.145-1.239,2,2,0,0,1,.756.123Zm5.37,7.734A4.419,4.419,0,0,1,275.955-1.1a4.639,4.639,0,0,1-1.261-3.406v-.264a5.706,5.706,0,0,1,.549-2.544,4.181,4.181,0,0,1,1.542-1.745A4.078,4.078,0,0,1,279-9.686a3.733,3.733,0,0,1,3,1.239,5.24,5.24,0,0,1,1.059,3.507v.861h-6.214a2.856,2.856,0,0,0,.787,1.863,2.362,2.362,0,0,0,1.736.686,2.892,2.892,0,0,0,2.391-1.187l1.151,1.1a3.845,3.845,0,0,1-1.525,1.323A4.774,4.774,0,0,1,279.246.176Zm-.255-8.147a1.8,1.8,0,0,0-1.419.615,3.189,3.189,0,0,0-.69,1.714h4.069V-5.8a2.6,2.6,0,0,0-.571-1.622A1.785,1.785,0,0,0,278.991-7.972Zm11.057,5.388a.968.968,0,0,0-.47-.87,5,5,0,0,0-1.56-.527,8.02,8.02,0,0,1-1.819-.58A2.428,2.428,0,0,1,284.6-6.8a2.531,2.531,0,0,1,1.037-2.057,4.1,4.1,0,0,1,2.637-.826,4.266,4.266,0,0,1,2.755.844,2.677,2.677,0,0,1,1.05,2.188h-2.136a1.316,1.316,0,0,0-.457-1.024,1.752,1.752,0,0,0-1.213-.409,1.893,1.893,0,0,0-1.147.325,1.025,1.025,0,0,0-.444.87.866.866,0,0,0,.413.765,5.68,5.68,0,0,0,1.67.549,7.9,7.9,0,0,1,1.973.659A2.794,2.794,0,0,1,291.8-4a2.342,2.342,0,0,1,.347,1.3A2.478,2.478,0,0,1,291.085-.62a4.535,4.535,0,0,1-2.786.8,4.917,4.917,0,0,1-2.083-.422,3.428,3.428,0,0,1-1.424-1.16A2.746,2.746,0,0,1,284.282-3h2.074a1.5,1.5,0,0,0,.571,1.165,2.22,2.22,0,0,0,1.4.409,2.16,2.16,0,0,0,1.283-.321A.993.993,0,0,0,290.048-2.584ZM296.279,0h-2.136V-9.51h2.136Zm-2.268-11.979a1.133,1.133,0,0,1,.312-.817,1.179,1.179,0,0,1,.892-.325,1.193,1.193,0,0,1,.9.325,1.125,1.125,0,0,1,.316.817,1.1,1.1,0,0,1-.316.8,1.2,1.2,0,0,1-.9.321,1.188,1.188,0,0,1-.892-.321A1.107,1.107,0,0,1,294.012-11.979Zm9.923,9.4a.968.968,0,0,0-.47-.87,5,5,0,0,0-1.56-.527,8.02,8.02,0,0,1-1.819-.58,2.428,2.428,0,0,1-1.6-2.241,2.531,2.531,0,0,1,1.037-2.057,4.1,4.1,0,0,1,2.637-.826,4.266,4.266,0,0,1,2.755.844,2.677,2.677,0,0,1,1.05,2.188h-2.136a1.316,1.316,0,0,0-.457-1.024,1.752,1.752,0,0,0-1.213-.409,1.893,1.893,0,0,0-1.147.325,1.025,1.025,0,0,0-.444.87.866.866,0,0,0,.413.765,5.68,5.68,0,0,0,1.67.549,7.9,7.9,0,0,1,1.973.659A2.794,2.794,0,0,1,305.688-4a2.342,2.342,0,0,1,.347,1.3A2.478,2.478,0,0,1,304.972-.62a4.535,4.535,0,0,1-2.786.8A4.917,4.917,0,0,1,300.1-.246a3.428,3.428,0,0,1-1.424-1.16A2.746,2.746,0,0,1,298.169-3h2.074a1.5,1.5,0,0,0,.571,1.165,2.22,2.22,0,0,0,1.4.409,2.16,2.16,0,0,0,1.283-.321A.993.993,0,0,0,303.935-2.584Zm6.636-9.237V-9.51h1.679v1.582H310.57v5.309a1.169,1.169,0,0,0,.215.787,1,1,0,0,0,.769.242,3.29,3.29,0,0,0,.747-.088V-.026a5.26,5.26,0,0,1-1.406.2q-2.461,0-2.461-2.716V-7.928H306.87V-9.51h1.564v-2.312Zm7.5,12A4.419,4.419,0,0,1,314.776-1.1a4.639,4.639,0,0,1-1.261-3.406v-.264a5.706,5.706,0,0,1,.549-2.544,4.181,4.181,0,0,1,1.542-1.745,4.078,4.078,0,0,1,2.215-.624,3.733,3.733,0,0,1,3,1.239,5.24,5.24,0,0,1,1.059,3.507v.861h-6.214a2.856,2.856,0,0,0,.787,1.863,2.362,2.362,0,0,0,1.736.686,2.892,2.892,0,0,0,2.391-1.187l1.151,1.1a3.845,3.845,0,0,1-1.525,1.323A4.774,4.774,0,0,1,318.067.176Zm-.255-8.147a1.8,1.8,0,0,0-1.419.615,3.189,3.189,0,0,0-.69,1.714h4.069V-5.8a2.6,2.6,0,0,0-.571-1.622A1.785,1.785,0,0,0,317.813-7.972Zm7.708-1.538.062,1.1a3.419,3.419,0,0,1,2.769-1.274q2.971,0,3.023,3.4V0h-2.136V-6.161a1.958,1.958,0,0,0-.391-1.34,1.645,1.645,0,0,0-1.279-.435,2.058,2.058,0,0,0-1.925,1.169V0h-2.136V-9.51Zm11.936,7.98A1.931,1.931,0,0,0,338.783-2a1.591,1.591,0,0,0,.563-1.151h2.013A3.137,3.137,0,0,1,340.8-1.49,3.632,3.632,0,0,1,339.4-.272a4.191,4.191,0,0,1-1.916.448,4.055,4.055,0,0,1-3.164-1.292,5.124,5.124,0,0,1-1.169-3.568V-4.9a5.039,5.039,0,0,1,1.16-3.476,4.018,4.018,0,0,1,3.164-1.305,3.907,3.907,0,0,1,2.764.989,3.542,3.542,0,0,1,1.121,2.6h-2.013a1.956,1.956,0,0,0-.558-1.345,1.8,1.8,0,0,0-1.332-.527,1.879,1.879,0,0,0-1.6.751,3.834,3.834,0,0,0-.571,2.281V-4.6a3.9,3.9,0,0,0,.558,2.307A1.878,1.878,0,0,0,337.456-1.529ZM345.243,0h-2.136V-9.51h2.136Zm-2.268-11.979a1.133,1.133,0,0,1,.312-.817,1.179,1.179,0,0,1,.892-.325,1.193,1.193,0,0,1,.9.325,1.125,1.125,0,0,1,.316.817,1.1,1.1,0,0,1-.316.8,1.2,1.2,0,0,1-.9.321,1.188,1.188,0,0,1-.892-.321A1.107,1.107,0,0,1,342.976-11.979ZM353.25,0A3.3,3.3,0,0,1,353-.888a3.325,3.325,0,0,1-2.5,1.063,3.355,3.355,0,0,1-2.338-.817,2.615,2.615,0,0,1-.905-2.021A2.7,2.7,0,0,1,348.394-5a5.473,5.473,0,0,1,3.23-.813h1.31v-.624a1.666,1.666,0,0,0-.413-1.182,1.638,1.638,0,0,0-1.257-.444,1.881,1.881,0,0,0-1.2.365,1.129,1.129,0,0,0-.466.927h-2.136a2.37,2.37,0,0,1,.519-1.463A3.455,3.455,0,0,1,349.4-9.3a4.955,4.955,0,0,1,1.991-.387,3.99,3.99,0,0,1,2.663.839,2.993,2.993,0,0,1,1.02,2.36V-2.2a4.861,4.861,0,0,0,.36,2.048V0ZM350.9-1.538a2.429,2.429,0,0,0,1.191-.308,2.055,2.055,0,0,0,.839-.826V-4.465h-1.151A3.148,3.148,0,0,0,350-4.052a1.338,1.338,0,0,0-.6,1.169,1.248,1.248,0,0,0,.409.98A1.583,1.583,0,0,0,350.9-1.538Zm11.733-1.046a.968.968,0,0,0-.47-.87,5,5,0,0,0-1.56-.527,8.02,8.02,0,0,1-1.819-.58,2.428,2.428,0,0,1-1.6-2.241,2.531,2.531,0,0,1,1.037-2.057,4.1,4.1,0,0,1,2.637-.826,4.266,4.266,0,0,1,2.755.844,2.677,2.677,0,0,1,1.05,2.188h-2.136a1.316,1.316,0,0,0-.457-1.024,1.752,1.752,0,0,0-1.213-.409,1.893,1.893,0,0,0-1.147.325,1.025,1.025,0,0,0-.444.87.866.866,0,0,0,.413.765,5.68,5.68,0,0,0,1.67.549,7.9,7.9,0,0,1,1.973.659A2.794,2.794,0,0,1,364.39-4a2.342,2.342,0,0,1,.347,1.3A2.478,2.478,0,0,1,363.674-.62a4.535,4.535,0,0,1-2.786.8A4.917,4.917,0,0,1,358.8-.246a3.428,3.428,0,0,1-1.424-1.16A2.746,2.746,0,0,1,356.871-3h2.074a1.5,1.5,0,0,0,.571,1.165,2.22,2.22,0,0,0,1.4.409,2.16,2.16,0,0,0,1.283-.321A.993.993,0,0,0,362.637-2.584Z" transform="translate(381 9756)" fill="#12263f"/>
  </g>
</svg>
