<svg xmlns="http://www.w3.org/2000/svg" width="590" height="308" viewBox="0 0 590 308">
  <g id="Grupo_974102" data-name="Grupo 974102" transform="translate(-771 -9560)">
    <g id="Grupo_974093" data-name="Grupo 974093" transform="translate(532 -154)">
      <g id="Trazado_704954" data-name="Trazado 704954" transform="translate(239 9714)" fill="#fff">
        <path d="M 550 306.5 L 40 306.5 C 34.80184555053711 306.5 29.76000022888184 305.4822998046875 25.0145378112793 303.4750671386719 C 20.43015289306641 301.5360717773438 16.31261444091797 298.7598571777344 12.7763843536377 295.2236022949219 C 9.240154266357422 291.6873779296875 6.46392297744751 287.5698547363281 4.524922847747803 282.9854736328125 C 2.51769232749939 278.239990234375 1.5 273.1981506347656 1.5 268 L 1.5 40 C 1.5 34.80184555053711 2.51769232749939 29.76000022888184 4.524922847747803 25.0145378112793 C 6.46392297744751 20.43015289306641 9.240154266357422 16.31261444091797 12.7763843536377 12.7763843536377 C 16.31261444091797 9.240154266357422 20.43015289306641 6.46392297744751 25.0145378112793 4.524922847747803 C 29.76000022888184 2.51769232749939 34.80184555053711 1.5 40 1.5 L 550 1.5 C 555.1981811523438 1.5 560.239990234375 2.51769232749939 564.9854736328125 4.524922847747803 C 569.56982421875 6.46392297744751 573.6873779296875 9.240154266357422 577.2236328125 12.7763843536377 C 580.7598266601562 16.31261444091797 583.5360717773438 20.43015289306641 585.47509765625 25.0145378112793 C 587.4822998046875 29.76000022888184 588.5 34.80184555053711 588.5 40 L 588.5 268 C 588.5 273.1981506347656 587.4822998046875 278.239990234375 585.47509765625 282.9854736328125 C 583.5360717773438 287.5698547363281 580.7598266601562 291.6873779296875 577.2236328125 295.2236022949219 C 573.6873779296875 298.7598571777344 569.56982421875 301.5360717773438 564.9854736328125 303.4750671386719 C 560.239990234375 305.4822998046875 555.1981811523438 306.5 550 306.5 Z" stroke="none"/>
        <path d="M 40 3 C 35.003662109375 3 30.158447265625 3.97784423828125 25.59881591796875 5.9063720703125 C 21.19329833984375 7.76983642578125 17.23602294921875 10.43807983398438 13.83709716796875 13.83706665039062 C 10.43804931640625 17.23599243164062 7.76983642578125 21.19329833984375 5.9063720703125 25.59884643554688 C 3.97784423828125 30.158447265625 3 35.00369262695312 3 40 L 3 268 C 3 272.9963073730469 3.97784423828125 277.841552734375 5.9063720703125 282.4011535644531 C 7.76983642578125 286.8067016601562 10.43804931640625 290.7640075683594 13.83709716796875 294.1629333496094 C 17.23602294921875 297.5619201660156 21.19329833984375 300.2301635742188 25.59881591796875 302.0936279296875 C 30.158447265625 304.0221557617188 35.003662109375 305 40 305 L 550 305 C 554.996337890625 305 559.841552734375 304.0221557617188 564.401123046875 302.0936279296875 C 568.8067016601562 300.2301635742188 572.7639770507812 297.5619201660156 576.1629028320312 294.1629333496094 C 579.5619506835938 290.7640075683594 582.2301635742188 286.8067016601562 584.0936279296875 282.4011535644531 C 586.0221557617188 277.841552734375 587 272.9963073730469 587 268 L 587 40 C 587 35.00369262695312 586.0221557617188 30.158447265625 584.0936279296875 25.59884643554688 C 582.2301635742188 21.19329833984375 579.5619506835938 17.23599243164062 576.1629028320312 13.83706665039062 C 572.7639770507812 10.43807983398438 568.8067016601562 7.76983642578125 564.401123046875 5.9063720703125 C 559.841552734375 3.97784423828125 554.996337890625 3 550 3 L 40 3 M 40 0 L 550 0 C 572.0913696289062 0 590 17.90863037109375 590 40 L 590 268 C 590 290.0913696289062 572.0913696289062 308 550 308 L 40 308 C 17.90863037109375 308 0 290.0913696289062 0 268 L 0 40 C 0 17.90863037109375 17.90863037109375 0 40 0 Z" stroke="none" fill="#7125c8"/>
      </g>
      <g id="Grupo_974089" data-name="Grupo 974089" transform="translate(307.118 9805.343)">
        <g id="Trazado_704956" data-name="Trazado 704956" transform="translate(18.641 0)" fill="#fff">
          <path d="M 14.44707775115967 27.39415740966797 C 10.98878765106201 27.39415740966797 7.73748779296875 26.04742813110352 5.292107582092285 23.60204696655273 C 2.846727848052979 21.15666770935059 1.499997735023499 17.90536689758301 1.499997735023499 14.44707775115967 C 1.499997735023499 10.98878765106201 2.846727848052979 7.73748779296875 5.292107582092285 5.292107582092285 C 7.73748779296875 2.846727848052979 10.98878765106201 1.499997735023499 14.44707775115967 1.499997735023499 C 17.90536689758301 1.499997735023499 21.15666770935059 2.846727848052979 23.60204696655273 5.292107582092285 C 26.04742813110352 7.73748779296875 27.39415740966797 10.98878765106201 27.39415740966797 14.44707775115967 C 27.39415740966797 17.90536689758301 26.04742813110352 21.15666770935059 23.60204696655273 23.60204696655273 C 21.15666770935059 26.04742813110352 17.90536689758301 27.39415740966797 14.44707775115967 27.39415740966797 Z" stroke="none"/>
          <path d="M 14.44707775115967 2.999998092651367 C 11.38945770263672 2.999998092651367 8.514837265014648 4.190698623657227 6.352767944335938 6.352767944335938 C 4.190698623657227 8.514837265014648 2.999998092651367 11.38945770263672 2.999998092651367 14.44707775115967 C 2.999998092651367 17.50469779968262 4.190698623657227 20.37931823730469 6.352767944335938 22.5413875579834 C 8.514837265014648 24.70345687866211 11.38945770263672 25.89415740966797 14.44707775115967 25.89415740966797 C 17.50469779968262 25.89415740966797 20.37931823730469 24.70345687866211 22.5413875579834 22.5413875579834 C 24.70345687866211 20.37931823730469 25.89415740966797 17.50469779968262 25.89415740966797 14.44707775115967 C 25.89415740966797 11.38945770263672 24.70345687866211 8.514837265014648 22.5413875579834 6.352767944335938 C 20.37931823730469 4.190698623657227 17.50469779968262 2.999998092651367 14.44707775115967 2.999998092651367 M 14.44707775115967 -1.9073486328125e-06 C 22.42597770690918 -1.9073486328125e-06 28.89415740966797 6.468177795410156 28.89415740966797 14.44707775115967 C 28.89415740966797 22.42597770690918 22.42597770690918 28.89415740966797 14.44707775115967 28.89415740966797 C 6.468177795410156 28.89415740966797 -1.9073486328125e-06 22.42597770690918 -1.9073486328125e-06 14.44707775115967 C -1.9073486328125e-06 6.468177795410156 6.468177795410156 -1.9073486328125e-06 14.44707775115967 -1.9073486328125e-06 Z" stroke="none" fill="#7125c8"/>
        </g>
        <g id="Trazado_704957" data-name="Trazado 704957" transform="translate(328.088 0)" fill="#fff">
          <path d="M 13.98104286193848 27.39415740966797 C 10.65655326843262 27.39415740966797 7.528412818908691 26.05364799499512 5.172852993011475 23.61957740783691 C 2.804382801055908 21.17214775085449 1.500002861022949 17.91462707519531 1.500002861022949 14.44707775115967 C 1.500002861022949 10.97952747344971 2.804382801055908 7.722007751464844 5.172852993011475 5.274577617645264 C 7.528412818908691 2.840507745742798 10.65655326843262 1.499997735023499 13.98104286193848 1.499997735023499 C 17.30553245544434 1.499997735023499 20.43367195129395 2.840507745742798 22.78923225402832 5.274577617645264 C 25.1577033996582 7.722007751464844 26.46208190917969 10.97952747344971 26.46208190917969 14.44707775115967 C 26.46208190917969 17.91462707519531 25.1577033996582 21.17214775085449 22.78923225402832 23.61957740783691 C 20.43367195129395 26.05364799499512 17.30553245544434 27.39415740966797 13.98104286193848 27.39415740966797 Z" stroke="none"/>
          <path d="M 13.98104286193848 2.999998092651367 C 7.92607307434082 2.999998092651367 3.000003814697266 8.135137557983398 3.000003814697266 14.44707775115967 C 3.000003814697266 20.75901794433594 7.92607307434082 25.89415740966797 13.98104286193848 25.89415740966797 C 20.03601264953613 25.89415740966797 24.96208190917969 20.75901794433594 24.96208190917969 14.44707775115967 C 24.96208190917969 8.135137557983398 20.03601264953613 2.999998092651367 13.98104286193848 2.999998092651367 M 13.98104286193848 -1.9073486328125e-06 C 21.70256233215332 -1.9073486328125e-06 27.96208190917969 6.468177795410156 27.96208190917969 14.44707775115967 C 27.96208190917969 22.42597770690918 21.70256233215332 28.89415740966797 13.98104286193848 28.89415740966797 C 6.259523391723633 28.89415740966797 3.814697265625e-06 22.42597770690918 3.814697265625e-06 14.44707775115967 C 3.814697265625e-06 6.468177795410156 6.259523391723633 -1.9073486328125e-06 13.98104286193848 -1.9073486328125e-06 Z" stroke="none" fill="#7125c8"/>
        </g>
        <g id="Trazado_704958" data-name="Trazado 704958" transform="translate(18.641 137.946)" fill="#fff">
          <path d="M 14.44707775115967 26.46208190917969 C 10.97952747344971 26.46208190917969 7.722007751464844 25.1577033996582 5.274577617645264 22.78923225402832 C 2.840507745742798 20.43367195129395 1.499997735023499 17.30553245544434 1.499997735023499 13.98104286193848 C 1.499997735023499 10.65655326843262 2.840507745742798 7.528412818908691 5.274577617645264 5.172852993011475 C 7.722007751464844 2.804382801055908 10.97952747344971 1.500002861022949 14.44707775115967 1.500002861022949 C 17.91462707519531 1.500002861022949 21.17214775085449 2.804382801055908 23.61957740783691 5.172852993011475 C 26.05364799499512 7.528412818908691 27.39415740966797 10.65655326843262 27.39415740966797 13.98104286193848 C 27.39415740966797 17.30553245544434 26.05364799499512 20.43367195129395 23.61957740783691 22.78923225402832 C 21.17214775085449 25.1577033996582 17.91462707519531 26.46208190917969 14.44707775115967 26.46208190917969 Z" stroke="none"/>
          <path d="M 14.44707775115967 3.000003814697266 C 8.135137557983398 3.000003814697266 2.999998092651367 7.92607307434082 2.999998092651367 13.98104286193848 C 2.999998092651367 20.03601264953613 8.135137557983398 24.96208190917969 14.44707775115967 24.96208190917969 C 20.75901794433594 24.96208190917969 25.89415740966797 20.03601264953613 25.89415740966797 13.98104286193848 C 25.89415740966797 7.92607307434082 20.75901794433594 3.000003814697266 14.44707775115967 3.000003814697266 M 14.44707775115967 3.814697265625e-06 C 22.42597770690918 3.814697265625e-06 28.89415740966797 6.259523391723633 28.89415740966797 13.98104286193848 C 28.89415740966797 21.70256233215332 22.42597770690918 27.96208190917969 14.44707775115967 27.96208190917969 C 6.468177795410156 27.96208190917969 -1.9073486328125e-06 21.70256233215332 -1.9073486328125e-06 13.98104286193848 C -1.9073486328125e-06 6.259523391723633 6.468177795410156 3.814697265625e-06 14.44707775115967 3.814697265625e-06 Z" stroke="none" fill="#7125c8"/>
        </g>
        <g id="Trazado_704959" data-name="Trazado 704959" transform="translate(328.088 137.946)" fill="#fff">
          <path d="M 13.98104286193848 26.46208190917969 C 10.64723300933838 26.46208190917969 7.512972831726074 25.16383361816406 5.155612945556641 22.80647277832031 C 2.798252820968628 20.44911193847656 1.500002861022949 17.31485366821289 1.500002861022949 13.98104286193848 C 1.500002861022949 10.64723300933838 2.798252820968628 7.512972831726074 5.155612945556641 5.155612945556641 C 7.512972831726074 2.798252820968628 10.64723300933838 1.500002861022949 13.98104286193848 1.500002861022949 C 17.31485366821289 1.500002861022949 20.44911193847656 2.798252820968628 22.80647277832031 5.155612945556641 C 25.16383361816406 7.512972831726074 26.46208190917969 10.64723300933838 26.46208190917969 13.98104286193848 C 26.46208190917969 17.31485366821289 25.16383361816406 20.44911193847656 22.80647277832031 22.80647277832031 C 20.44911193847656 25.16383361816406 17.31485366821289 26.46208190917969 13.98104286193848 26.46208190917969 Z" stroke="none"/>
          <path d="M 13.98104286193848 3.000003814697266 C 11.04790306091309 3.000003814697266 8.290313720703125 4.142232894897461 6.216272354125977 6.216272354125977 C 4.142232894897461 8.290313720703125 3.000003814697266 11.04790306091309 3.000003814697266 13.98104286193848 C 3.000003814697266 16.91418266296387 4.142232894897461 19.67177200317383 6.216272354125977 21.74581336975098 C 8.290313720703125 23.81985282897949 11.04790306091309 24.96208190917969 13.98104286193848 24.96208190917969 C 16.91418266296387 24.96208190917969 19.67177200317383 23.81985282897949 21.74581336975098 21.74581336975098 C 23.81985282897949 19.67177200317383 24.96208190917969 16.91418266296387 24.96208190917969 13.98104286193848 C 24.96208190917969 11.04790306091309 23.81985282897949 8.290313720703125 21.74581336975098 6.216272354125977 C 19.67177200317383 4.142232894897461 16.91418266296387 3.000003814697266 13.98104286193848 3.000003814697266 M 13.98104286193848 3.814697265625e-06 C 21.70256233215332 3.814697265625e-06 27.96208190917969 6.259523391723633 27.96208190917969 13.98104286193848 C 27.96208190917969 21.70256233215332 21.70256233215332 27.96208190917969 13.98104286193848 27.96208190917969 C 6.259523391723633 27.96208190917969 3.814697265625e-06 21.70256233215332 3.814697265625e-06 13.98104286193848 C 3.814697265625e-06 6.259523391723633 6.259523391723633 3.814697265625e-06 13.98104286193848 3.814697265625e-06 Z" stroke="none" fill="#7125c8"/>
        </g>
        <g id="Trazado_704960" data-name="Trazado 704960" transform="translate(218.006 110.924) rotate(-90)" fill="#fff">
          <path d="M 50.8160400390625 25.79537582397461 L 1.500001907348633 25.79537582397461 L 1.500001907348633 1.499995946884155 L 50.8160400390625 1.499995946884155 L 50.8160400390625 25.79537582397461 Z" stroke="none"/>
          <path d="M 3.000003814697266 2.999996185302734 L 3.000003814697266 24.29537582397461 L 49.3160400390625 24.29537582397461 L 49.3160400390625 2.999996185302734 L 3.000003814697266 2.999996185302734 M 3.814697265625e-06 -3.814697265625e-06 L 52.3160400390625 -3.814697265625e-06 L 52.3160400390625 27.29537582397461 L 3.814697265625e-06 27.29537582397461 L 3.814697265625e-06 -3.814697265625e-06 Z" stroke="none" fill="#7125c8"/>
        </g>
        <g id="Trazado_704961" data-name="Trazado 704961" transform="translate(79.862 110.924) rotate(-90)" fill="#fff">
          <path d="M 50.8160400390625 25.79537582397461 L 1.500001907348633 25.79537582397461 L 1.500001907348633 1.499995946884155 L 50.8160400390625 1.499995946884155 L 50.8160400390625 25.79537582397461 Z" stroke="none"/>
          <path d="M 3.000003814697266 2.999996185302734 L 3.000003814697266 24.29537582397461 L 49.3160400390625 24.29537582397461 L 49.3160400390625 2.999996185302734 L 3.000003814697266 2.999996185302734 M 3.814697265625e-06 -3.814697265625e-06 L 52.3160400390625 -3.814697265625e-06 L 52.3160400390625 27.29537582397461 L 3.814697265625e-06 27.29537582397461 L 3.814697265625e-06 -3.814697265625e-06 Z" stroke="none" fill="#7125c8"/>
        </g>
        <g id="Trazado_704962" data-name="Trazado 704962" transform="translate(144.175 110.984) rotate(-90)" fill="#fff">
          <path d="M 50.8160400390625 25.79537582397461 L 1.500001907348633 25.79537582397461 L 1.500001907348633 1.499995946884155 L 50.8160400390625 1.499995946884155 L 50.8160400390625 25.79537582397461 Z" stroke="none"/>
          <path d="M 3.000003814697266 2.999996185302734 L 3.000003814697266 24.29537582397461 L 49.3160400390625 24.29537582397461 L 49.3160400390625 2.999996185302734 L 3.000003814697266 2.999996185302734 M 3.814697265625e-06 -3.814697265625e-06 L 52.3160400390625 -3.814697265625e-06 L 52.3160400390625 27.29537582397461 L 3.814697265625e-06 27.29537582397461 L 3.814697265625e-06 -3.814697265625e-06 Z" stroke="none" fill="#7125c8"/>
        </g>
        <g id="Trazado_704963" data-name="Trazado 704963" transform="translate(410.56 110.924) rotate(-90)" fill="#fff">
          <path d="M 50.8160400390625 25.79537582397461 L 1.500001907348633 25.79537582397461 L 1.500001907348633 1.499995946884155 L 50.8160400390625 1.499995946884155 L 50.8160400390625 25.79537582397461 Z" stroke="none"/>
          <path d="M 3.000003814697266 2.999996185302734 L 3.000003814697266 24.29537582397461 L 49.3160400390625 24.29537582397461 L 49.3160400390625 2.999996185302734 L 3.000003814697266 2.999996185302734 M 3.814697265625e-06 -3.814697265625e-06 L 52.3160400390625 -3.814697265625e-06 L 52.3160400390625 27.29537582397461 L 3.814697265625e-06 27.29537582397461 L 3.814697265625e-06 -3.814697265625e-06 Z" stroke="none" fill="#7125c8"/>
        </g>
        <path id="Trazado_704881" data-name="Trazado 704881" d="M2967-2444h87.835v46.192" transform="translate(-2824.407 2457.816)" fill="none" stroke="#7125c8" stroke-width="3"/>
        <path id="Trazado_704887" data-name="Trazado 704887" d="M2967-2444h44.788v46.192" transform="translate(-2919.679 2457.816)" fill="none" stroke="#7125c8" stroke-width="3"/>
        <path id="Trazado_704890" data-name="Trazado 704890" d="M2943.147-2444h67.021v46.192" transform="translate(-2853.745 2457.876)" fill="none" stroke="#7125c8" stroke-width="3"/>
        <path id="Trazado_704886" data-name="Trazado 704886" d="M2967-2444h67.013v46.192" transform="translate(-2611.031 2457.816)" fill="none" stroke="#7125c8" stroke-width="3"/>
        <path id="Trazado_704882" data-name="Trazado 704882" d="M2967-2310.532h90.635V-2352" transform="translate(-2825.807 2462.399)" fill="none" stroke="#7125c8" stroke-width="3"/>
        <path id="Trazado_704888" data-name="Trazado 704888" d="M2967-2310.532h46.188V-2352" transform="translate(-2919.679 2462.399)" fill="none" stroke="#7125c8" stroke-width="3"/>
        <path id="Trazado_704889" data-name="Trazado 704889" d="M2947.148-2310.532h64.692V-2352" transform="translate(-2854.018 2462.459)" fill="none" stroke="#7125c8" stroke-width="3"/>
        <path id="Trazado_704884" data-name="Trazado 704884" d="M2967-2310.532h68.414V-2352" transform="translate(-2611.031 2462.399)" fill="none" stroke="#7125c8" stroke-width="3"/>
        <path id="Trazado_704964" data-name="Trazado 704964" d="M6.973-2.2H3.12L2.388,0H.051l3.97-10.664H6.057L10.049,0H7.712ZM3.713-3.977H6.379L5.039-7.969Z" transform="translate(0 18.66)" fill="#12263f"/>
        <path id="Trazado_704965" data-name="Trazado 704965" d="M6.973-2.2H3.12L2.388,0H.051l3.97-10.664H6.057L10.049,0H7.712ZM3.713-3.977H6.379L5.039-7.969Z" transform="translate(299.194 18.66)" fill="#12263f"/>
        <path id="Trazado_704966" data-name="Trazado 704966" d="M4.9-3.9H3.149V0H.952V-10.664H4.915a4.479,4.479,0,0,1,2.915.842,2.907,2.907,0,0,1,1.025,2.38,3.281,3.281,0,0,1-.472,1.82A3.222,3.222,0,0,1,6.951-4.46L9.258-.1V0H6.9Zm-1.75-1.78H4.922A1.815,1.815,0,0,0,6.2-6.1a1.505,1.505,0,0,0,.454-1.161,1.611,1.611,0,0,0-.428-1.187,1.781,1.781,0,0,0-1.315-.432H3.149ZM12.995,5H11.76V.241L10.286.7v-1l2.576-.923h.132Z" transform="translate(58.523 88.381)" fill="#12263f"/>
        <path id="Trazado_704967" data-name="Trazado 704967" d="M4.9-3.9H3.149V0H.952V-10.664H4.915a4.479,4.479,0,0,1,2.915.842,2.907,2.907,0,0,1,1.025,2.38,3.281,3.281,0,0,1-.472,1.82A3.222,3.222,0,0,1,6.951-4.46L9.258-.1V0H6.9Zm-1.75-1.78H4.922A1.815,1.815,0,0,0,6.2-6.1a1.505,1.505,0,0,0,.454-1.161,1.611,1.611,0,0,0-.428-1.187,1.781,1.781,0,0,0-1.315-.432H3.149ZM14.259,5H10V4.154l2.012-2.145a4.964,4.964,0,0,0,.613-.79,1.27,1.27,0,0,0,.2-.641.95.95,0,0,0-.209-.652.756.756,0,0,0-.6-.237.815.815,0,0,0-.66.288,1.142,1.142,0,0,0-.241.758H9.872A2.039,2.039,0,0,1,10.143-.3a1.912,1.912,0,0,1,.767-.737,2.331,2.331,0,0,1,1.124-.267,2.207,2.207,0,0,1,1.493.461,1.632,1.632,0,0,1,.532,1.3,2.091,2.091,0,0,1-.239.94A5.223,5.223,0,0,1,13,2.514L11.585,4h2.674Z" transform="translate(125.534 88.382)" fill="#12263f"/>
        <path id="Trazado_704968" data-name="Trazado 704968" d="M4.9-3.9H3.149V0H.952V-10.664H4.915a4.479,4.479,0,0,1,2.915.842,2.907,2.907,0,0,1,1.025,2.38,3.281,3.281,0,0,1-.472,1.82A3.222,3.222,0,0,1,6.951-4.46L9.258-.1V0H6.9Zm-1.75-1.78H4.922A1.815,1.815,0,0,0,6.2-6.1a1.505,1.505,0,0,0,.454-1.161,1.611,1.611,0,0,0-.428-1.187,1.781,1.781,0,0,0-1.315-.432H3.149Zm8.1,7.027h.658a.927.927,0,0,0,.7-.235.861.861,0,0,0,.226-.624A.761.761,0,0,0,12.608-.1a.869.869,0,0,0-.617-.209.911.911,0,0,0-.594.194.622.622,0,0,0-.239.506H9.923a1.518,1.518,0,0,1,.263-.874,1.751,1.751,0,0,1,.735-.6,2.452,2.452,0,0,1,1.04-.218,2.326,2.326,0,0,1,1.547.472,1.611,1.611,0,0,1,.56,1.3,1.309,1.309,0,0,1-.261.786,1.693,1.693,0,0,1-.684.551,1.546,1.546,0,0,1,.784.564,1.53,1.53,0,0,1,.258.889,1.637,1.637,0,0,1-.6,1.329,2.431,2.431,0,0,1-1.6.5,2.3,2.3,0,0,1-1.523-.491,1.6,1.6,0,0,1-.592-1.3h1.235a.715.715,0,0,0,.263.572,1.1,1.1,0,0,0,1.337-.011.8.8,0,0,0,.25-.617q0-.931-1.025-.931h-.654Z" transform="translate(197.436 88.382)" fill="#12263f"/>
        <path id="Trazado_704969" data-name="Trazado 704969" d="M4.9-3.9H3.149V0H.952V-10.664H4.915a4.479,4.479,0,0,1,2.915.842,2.907,2.907,0,0,1,1.025,2.38,3.281,3.281,0,0,1-.472,1.82A3.222,3.222,0,0,1,6.951-4.46L9.258-.1V0H6.9Zm-1.75-1.78H4.922A1.815,1.815,0,0,0,6.2-6.1a1.505,1.505,0,0,0,.454-1.161,1.611,1.611,0,0,0-.428-1.187,1.781,1.781,0,0,0-1.315-.432H3.149ZM14.033.146A3.89,3.89,0,0,1,11.2-.923,3.8,3.8,0,0,1,10.1-3.772v-.205a4.787,4.787,0,0,1,.461-2.135,3.386,3.386,0,0,1,1.307-1.45,3.669,3.669,0,0,1,1.93-.509,3.289,3.289,0,0,1,2.56,1.025,4.167,4.167,0,0,1,.934,2.908v.864H12.246a1.966,1.966,0,0,0,.619,1.245,1.871,1.871,0,0,0,1.307.469,2.285,2.285,0,0,0,1.912-.886l1.04,1.165A3.178,3.178,0,0,1,15.835-.231,4.229,4.229,0,0,1,14.033.146Zm-.242-6.511a1.323,1.323,0,0,0-1.022.427,2.209,2.209,0,0,0-.5,1.221h2.944v-.169a1.576,1.576,0,0,0-.381-1.092A1.365,1.365,0,0,0,13.792-6.365Zm4.373,2.329A4.737,4.737,0,0,1,19-6.987a2.718,2.718,0,0,1,2.281-1.084,2.433,2.433,0,0,1,2.029.974l.139-.828h1.86V3.047H23.181V-.681a2.44,2.44,0,0,1-1.919.828,2.7,2.7,0,0,1-2.256-1.1A4.969,4.969,0,0,1,18.164-4.036Zm2.117.15a3.107,3.107,0,0,0,.4,1.731A1.278,1.278,0,0,0,21.8-1.56a1.423,1.423,0,0,0,1.377-.778V-5.617a1.412,1.412,0,0,0-1.362-.748,1.293,1.293,0,0,0-1.135.594A3.432,3.432,0,0,0,20.281-3.885Z" transform="translate(442.58 87.655)" fill="#12263f"/>
        <path id="Trazado_704970" data-name="Trazado 704970" d="M.952,0V-10.664H4.688a4.9,4.9,0,0,1,2.944.743,2.542,2.542,0,0,1,1,2.179,2.409,2.409,0,0,1-.4,1.381,2.327,2.327,0,0,1-1.121.875A2.251,2.251,0,0,1,8.4-4.658a2.447,2.447,0,0,1,.472,1.523A2.814,2.814,0,0,1,7.9-.806,4.418,4.418,0,0,1,5.1,0Zm2.2-4.644v2.878H5.032a1.816,1.816,0,0,0,1.212-.37A1.268,1.268,0,0,0,6.68-3.157,1.339,1.339,0,0,0,5.164-4.644Zm0-1.553H4.775q1.663-.029,1.663-1.326a1.225,1.225,0,0,0-.421-1.044,2.215,2.215,0,0,0-1.329-.319H3.149Z" transform="translate(0 155.675)" fill="#12263f"/>
        <path id="Trazado_704971" data-name="Trazado 704971" d="M.952,0V-10.664H4.688a4.9,4.9,0,0,1,2.944.743,2.542,2.542,0,0,1,1,2.179,2.409,2.409,0,0,1-.4,1.381,2.327,2.327,0,0,1-1.121.875A2.251,2.251,0,0,1,8.4-4.658a2.447,2.447,0,0,1,.472,1.523A2.814,2.814,0,0,1,7.9-.806,4.418,4.418,0,0,1,5.1,0Zm2.2-4.644v2.878H5.032a1.816,1.816,0,0,0,1.212-.37A1.268,1.268,0,0,0,6.68-3.157,1.339,1.339,0,0,0,5.164-4.644Zm0-1.553H4.775q1.663-.029,1.663-1.326a1.225,1.225,0,0,0-.421-1.044,2.215,2.215,0,0,0-1.329-.319H3.149Z" transform="translate(299.194 155.675)" fill="#12263f"/>
        <path id="Trazado_704972" data-name="Trazado 704972" d="M0,0H34.644" transform="translate(259.91 78.904)" fill="none" stroke="#707070" stroke-width="2"/>
        <path id="Trazado_704973" data-name="Trazado 704973" d="M0,0H34.644" transform="translate(259.91 92.552)" fill="none" stroke="#707070" stroke-width="2"/>
        <path id="Trazado_704883" data-name="Trazado 704883" d="M3110.667-2387l11.548,12.029s-8.661,8.862-11.548,11.067" transform="translate(-2820.836 2460.655)" fill="none" stroke="#707070" stroke-width="2"/>
      </g>
      <path id="Trazado_704955" data-name="Trazado 704955" d="M11.065-4.166A4.621,4.621,0,0,1,9.554-.971,5.154,5.154,0,0,1,6.047.176,4.99,4.99,0,0,1,3.353-.549a4.759,4.759,0,0,1-1.8-2.061A7.438,7.438,0,0,1,.9-5.713v-1.2a7.491,7.491,0,0,1,.642-3.19,4.835,4.835,0,0,1,1.841-2.127,5.136,5.136,0,0,1,2.773-.747,4.946,4.946,0,0,1,3.41,1.147,4.793,4.793,0,0,1,1.5,3.248H8.851a3.161,3.161,0,0,0-.8-1.991,2.658,2.658,0,0,0-1.894-.611,2.6,2.6,0,0,0-2.228,1.06,5.3,5.3,0,0,0-.8,3.11v1.135a5.62,5.62,0,0,0,.743,3.167A2.464,2.464,0,0,0,6.047-1.617a2.875,2.875,0,0,0,1.969-.589,3.071,3.071,0,0,0,.835-1.96ZM15.117,0H12.981V-9.51h2.136ZM12.85-11.979a1.133,1.133,0,0,1,.312-.817,1.179,1.179,0,0,1,.892-.325,1.193,1.193,0,0,1,.9.325,1.125,1.125,0,0,1,.316.817,1.1,1.1,0,0,1-.316.8,1.2,1.2,0,0,1-.9.321,1.188,1.188,0,0,1-.892-.321A1.107,1.107,0,0,1,12.85-11.979Zm9.571,4.421a5.285,5.285,0,0,0-.87-.07A1.959,1.959,0,0,0,19.573-6.5V0H17.438V-9.51h2.039l.053,1.063a2.406,2.406,0,0,1,2.145-1.239,2,2,0,0,1,.756.123ZM27.51-1.529A1.931,1.931,0,0,0,28.837-2,1.591,1.591,0,0,0,29.4-3.146h2.013a3.137,3.137,0,0,1-.554,1.657A3.632,3.632,0,0,1,29.452-.272a4.191,4.191,0,0,1-1.916.448,4.055,4.055,0,0,1-3.164-1.292A5.124,5.124,0,0,1,23.2-4.685V-4.9a5.039,5.039,0,0,1,1.16-3.476,4.018,4.018,0,0,1,3.164-1.305,3.907,3.907,0,0,1,2.764.989,3.542,3.542,0,0,1,1.121,2.6H29.4a1.956,1.956,0,0,0-.558-1.345,1.8,1.8,0,0,0-1.332-.527,1.879,1.879,0,0,0-1.6.751,3.834,3.834,0,0,0-.571,2.281V-4.6A3.9,3.9,0,0,0,25.9-2.29,1.878,1.878,0,0,0,27.51-1.529Zm11.276.6A3.312,3.312,0,0,1,36.114.176a2.952,2.952,0,0,1-2.342-.905,3.851,3.851,0,0,1-.8-2.619V-9.51h2.136v6.135q0,1.811,1.5,1.811a2.111,2.111,0,0,0,2.1-1.116V-9.51h2.136V0H38.839ZM45.3,0H43.163V-9.51H45.3ZM43.031-11.979a1.133,1.133,0,0,1,.312-.817,1.179,1.179,0,0,1,.892-.325,1.193,1.193,0,0,1,.9.325,1.125,1.125,0,0,1,.316.817,1.1,1.1,0,0,1-.316.8,1.2,1.2,0,0,1-.9.321,1.188,1.188,0,0,1-.892-.321A1.107,1.107,0,0,1,43.031-11.979Zm7.269.158V-9.51h1.679v1.582H50.3v5.309a1.169,1.169,0,0,0,.215.787,1,1,0,0,0,.769.242,3.29,3.29,0,0,0,.747-.088V-.026a5.26,5.26,0,0,1-1.406.2q-2.461,0-2.461-2.716V-7.928H46.6V-9.51h1.564v-2.312Zm2.646,6.979A5.607,5.607,0,0,1,53.5-7.361a4.044,4.044,0,0,1,1.556-1.723,4.383,4.383,0,0,1,2.3-.6,4.154,4.154,0,0,1,3.125,1.239,4.874,4.874,0,0,1,1.3,3.287l.009.5a5.658,5.658,0,0,1-.541,2.514A4,4,0,0,1,59.7-.431a4.415,4.415,0,0,1-2.325.606,4.125,4.125,0,0,1-3.221-1.34,5.133,5.133,0,0,1-1.208-3.573Zm2.136.185a3.832,3.832,0,0,0,.606,2.3,1.971,1.971,0,0,0,1.688.831,1.95,1.95,0,0,0,1.683-.844,4.232,4.232,0,0,0,.6-2.47,3.782,3.782,0,0,0-.62-2.285,1.979,1.979,0,0,0-1.683-.844,1.96,1.96,0,0,0-1.661.831A4.152,4.152,0,0,0,55.081-4.658Zm17.974-2.9a5.285,5.285,0,0,0-.87-.07A1.959,1.959,0,0,0,70.207-6.5V0H68.071V-9.51H70.11l.053,1.063a2.406,2.406,0,0,1,2.145-1.239,2,2,0,0,1,.756.123ZM78.425.176A4.419,4.419,0,0,1,75.133-1.1a4.639,4.639,0,0,1-1.261-3.406v-.264a5.706,5.706,0,0,1,.549-2.544,4.181,4.181,0,0,1,1.542-1.745,4.078,4.078,0,0,1,2.215-.624,3.733,3.733,0,0,1,3,1.239,5.24,5.24,0,0,1,1.059,3.507v.861H76.025a2.856,2.856,0,0,0,.787,1.863,2.362,2.362,0,0,0,1.736.686,2.892,2.892,0,0,0,2.391-1.187l1.151,1.1A3.845,3.845,0,0,1,80.565-.294,4.774,4.774,0,0,1,78.425.176ZM78.17-7.972a1.8,1.8,0,0,0-1.419.615,3.189,3.189,0,0,0-.69,1.714H80.13V-5.8a2.6,2.6,0,0,0-.571-1.622A1.785,1.785,0,0,0,78.17-7.972ZM89.227-2.584a.968.968,0,0,0-.47-.87,5,5,0,0,0-1.56-.527,8.02,8.02,0,0,1-1.819-.58,2.428,2.428,0,0,1-1.6-2.241,2.531,2.531,0,0,1,1.037-2.057,4.1,4.1,0,0,1,2.637-.826,4.266,4.266,0,0,1,2.755.844,2.677,2.677,0,0,1,1.05,2.188H89.121a1.316,1.316,0,0,0-.457-1.024,1.752,1.752,0,0,0-1.213-.409,1.893,1.893,0,0,0-1.147.325,1.025,1.025,0,0,0-.444.87.866.866,0,0,0,.413.765,5.68,5.68,0,0,0,1.67.549,7.9,7.9,0,0,1,1.973.659A2.794,2.794,0,0,1,90.98-4a2.342,2.342,0,0,1,.347,1.3A2.478,2.478,0,0,1,90.264-.62a4.535,4.535,0,0,1-2.786.8,4.917,4.917,0,0,1-2.083-.422,3.428,3.428,0,0,1-1.424-1.16A2.746,2.746,0,0,1,83.461-3h2.074a1.5,1.5,0,0,0,.571,1.165,2.22,2.22,0,0,0,1.4.409,2.16,2.16,0,0,0,1.283-.321A.993.993,0,0,0,89.227-2.584ZM95.458,0H93.322V-9.51h2.136ZM93.19-11.979A1.133,1.133,0,0,1,93.5-12.8a1.179,1.179,0,0,1,.892-.325,1.193,1.193,0,0,1,.9.325,1.125,1.125,0,0,1,.316.817,1.1,1.1,0,0,1-.316.8,1.2,1.2,0,0,1-.9.321,1.188,1.188,0,0,1-.892-.321A1.107,1.107,0,0,1,93.19-11.979Zm9.923,9.4a.968.968,0,0,0-.47-.87,5,5,0,0,0-1.56-.527,8.02,8.02,0,0,1-1.819-.58,2.428,2.428,0,0,1-1.6-2.241A2.531,2.531,0,0,1,98.7-8.859a4.1,4.1,0,0,1,2.637-.826,4.266,4.266,0,0,1,2.755.844,2.677,2.677,0,0,1,1.05,2.188h-2.136a1.316,1.316,0,0,0-.457-1.024,1.752,1.752,0,0,0-1.213-.409,1.893,1.893,0,0,0-1.147.325,1.025,1.025,0,0,0-.444.87.866.866,0,0,0,.413.765,5.68,5.68,0,0,0,1.67.549,7.9,7.9,0,0,1,1.973.659A2.794,2.794,0,0,1,104.867-4a2.342,2.342,0,0,1,.347,1.3A2.478,2.478,0,0,1,104.15-.62a4.535,4.535,0,0,1-2.786.8,4.917,4.917,0,0,1-2.083-.422,3.428,3.428,0,0,1-1.424-1.16A2.746,2.746,0,0,1,97.348-3h2.074a1.5,1.5,0,0,0,.571,1.165,2.22,2.22,0,0,0,1.4.409,2.16,2.16,0,0,0,1.283-.321A.993.993,0,0,0,103.113-2.584Zm6.636-9.237V-9.51h1.679v1.582h-1.679v5.309a1.169,1.169,0,0,0,.215.787,1,1,0,0,0,.769.242,3.29,3.29,0,0,0,.747-.088V-.026a5.26,5.26,0,0,1-1.406.2q-2.461,0-2.461-2.716V-7.928h-1.564V-9.51h1.564v-2.312ZM115.33,0h-2.136V-9.51h2.136Zm-2.268-11.979a1.133,1.133,0,0,1,.312-.817,1.179,1.179,0,0,1,.892-.325,1.193,1.193,0,0,1,.9.325,1.125,1.125,0,0,1,.316.817,1.1,1.1,0,0,1-.316.8,1.2,1.2,0,0,1-.9.321,1.188,1.188,0,0,1-.892-.321A1.107,1.107,0,0,1,113.063-11.979Zm7.945,9.272,2.013-6.8h2.206L121.931,0h-1.854l-3.322-9.51h2.215Zm5.019-2.136a5.607,5.607,0,0,1,.554-2.518,4.044,4.044,0,0,1,1.556-1.723,4.383,4.383,0,0,1,2.3-.6,4.154,4.154,0,0,1,3.125,1.239,4.874,4.874,0,0,1,1.3,3.287l.009.5a5.658,5.658,0,0,1-.541,2.514,4,4,0,0,1-1.547,1.714,4.415,4.415,0,0,1-2.325.606,4.125,4.125,0,0,1-3.221-1.34,5.133,5.133,0,0,1-1.208-3.573Zm2.136.185a3.832,3.832,0,0,0,.606,2.3,1.971,1.971,0,0,0,1.688.831,1.95,1.95,0,0,0,1.683-.844,4.232,4.232,0,0,0,.6-2.47,3.782,3.782,0,0,0-.62-2.285,1.979,1.979,0,0,0-1.683-.844,1.96,1.96,0,0,0-1.661.831A4.152,4.152,0,0,0,128.162-4.658Zm21.322,0a5.662,5.662,0,0,1-1,3.52A3.209,3.209,0,0,1,145.793.176a3.23,3.23,0,0,1-2.5-1.028V3.656h-2.136V-9.51h1.969l.088.967a3.137,3.137,0,0,1,2.558-1.143,3.242,3.242,0,0,1,2.729,1.3,5.813,5.813,0,0,1,.989,3.6Zm-2.127-.185a3.966,3.966,0,0,0-.567-2.259,1.843,1.843,0,0,0-1.622-.835,1.965,1.965,0,0,0-1.881,1.081v4.219a1.983,1.983,0,0,0,1.9,1.107,1.841,1.841,0,0,0,1.6-.822A4.366,4.366,0,0,0,147.357-4.843ZM156.973,0a3.3,3.3,0,0,1-.246-.888,3.325,3.325,0,0,1-2.5,1.063,3.355,3.355,0,0,1-2.338-.817,2.615,2.615,0,0,1-.905-2.021A2.7,2.7,0,0,1,152.117-5a5.473,5.473,0,0,1,3.23-.813h1.31v-.624a1.666,1.666,0,0,0-.413-1.182,1.638,1.638,0,0,0-1.257-.444,1.881,1.881,0,0,0-1.2.365,1.129,1.129,0,0,0-.466.927h-2.136a2.37,2.37,0,0,1,.519-1.463A3.455,3.455,0,0,1,153.119-9.3a4.955,4.955,0,0,1,1.991-.387,3.99,3.99,0,0,1,2.663.839,2.993,2.993,0,0,1,1.02,2.36V-2.2a4.861,4.861,0,0,0,.36,2.048V0Zm-2.347-1.538a2.429,2.429,0,0,0,1.191-.308,2.055,2.055,0,0,0,.839-.826V-4.465H155.5a3.148,3.148,0,0,0-1.784.413,1.338,1.338,0,0,0-.6,1.169,1.248,1.248,0,0,0,.409.98A1.583,1.583,0,0,0,154.626-1.538Zm11.382-6.021a5.285,5.285,0,0,0-.87-.07A1.959,1.959,0,0,0,163.16-6.5V0h-2.136V-9.51h2.039l.053,1.063a2.406,2.406,0,0,1,2.145-1.239,2,2,0,0,1,.756.123ZM172.775,0a3.3,3.3,0,0,1-.246-.888,3.325,3.325,0,0,1-2.5,1.063A3.355,3.355,0,0,1,167.7-.642a2.615,2.615,0,0,1-.905-2.021A2.7,2.7,0,0,1,167.919-5a5.473,5.473,0,0,1,3.23-.813h1.31v-.624a1.666,1.666,0,0,0-.413-1.182,1.638,1.638,0,0,0-1.257-.444,1.881,1.881,0,0,0-1.2.365,1.129,1.129,0,0,0-.466.927h-2.136a2.37,2.37,0,0,1,.519-1.463A3.455,3.455,0,0,1,168.921-9.3a4.955,4.955,0,0,1,1.991-.387,3.99,3.99,0,0,1,2.663.839,2.993,2.993,0,0,1,1.02,2.36V-2.2a4.861,4.861,0,0,0,.36,2.048V0Zm-2.347-1.538a2.429,2.429,0,0,0,1.191-.308,2.055,2.055,0,0,0,.839-.826V-4.465h-1.151a3.148,3.148,0,0,0-1.784.413,1.338,1.338,0,0,0-.6,1.169,1.248,1.248,0,0,0,.409.98A1.583,1.583,0,0,0,170.429-1.538ZM179.1,0h-2.136V-13.5H179.1Zm6.513.176A4.419,4.419,0,0,1,182.325-1.1a4.639,4.639,0,0,1-1.261-3.406v-.264a5.706,5.706,0,0,1,.549-2.544,4.181,4.181,0,0,1,1.542-1.745,4.078,4.078,0,0,1,2.215-.624,3.733,3.733,0,0,1,3,1.239,5.24,5.24,0,0,1,1.059,3.507v.861h-6.214A2.856,2.856,0,0,0,184-2.215a2.362,2.362,0,0,0,1.736.686,2.892,2.892,0,0,0,2.391-1.187l1.151,1.1a3.845,3.845,0,0,1-1.525,1.323A4.774,4.774,0,0,1,185.616.176Zm-.255-8.147a1.8,1.8,0,0,0-1.419.615,3.189,3.189,0,0,0-.69,1.714h4.069V-5.8a2.6,2.6,0,0,0-.571-1.622A1.785,1.785,0,0,0,185.361-7.972Zm8,7.972h-2.136V-13.5h2.136Zm1.925-4.843a5.607,5.607,0,0,1,.554-2.518,4.044,4.044,0,0,1,1.556-1.723,4.383,4.383,0,0,1,2.3-.6,4.154,4.154,0,0,1,3.125,1.239,4.874,4.874,0,0,1,1.3,3.287l.009.5a5.658,5.658,0,0,1-.541,2.514,4,4,0,0,1-1.547,1.714,4.415,4.415,0,0,1-2.325.606,4.125,4.125,0,0,1-3.221-1.34,5.133,5.133,0,0,1-1.208-3.573Zm2.136.185a3.832,3.832,0,0,0,.606,2.3,1.971,1.971,0,0,0,1.688.831,1.95,1.95,0,0,0,1.683-.844,4.232,4.232,0,0,0,.6-2.47,3.782,3.782,0,0,0-.62-2.285,1.979,1.979,0,0,0-1.683-.844,1.96,1.96,0,0,0-1.661.831A4.152,4.152,0,0,0,197.42-4.658Zm12.595-.167a5.654,5.654,0,0,1,1.02-3.529,3.267,3.267,0,0,1,2.733-1.332,3.1,3.1,0,0,1,2.443,1.055V-13.5h2.136V0h-1.934l-.105-.984A3.148,3.148,0,0,1,213.75.176a3.248,3.248,0,0,1-2.7-1.345A5.861,5.861,0,0,1,210.015-4.825Zm2.136.185a3.958,3.958,0,0,0,.558,2.263,1.811,1.811,0,0,0,1.586.813,2.017,2.017,0,0,0,1.916-1.169V-6.794a1.986,1.986,0,0,0-1.9-1.143,1.824,1.824,0,0,0-1.6.822A4.408,4.408,0,0,0,212.15-4.641ZM224.763.176A4.419,4.419,0,0,1,221.471-1.1a4.639,4.639,0,0,1-1.261-3.406v-.264a5.706,5.706,0,0,1,.549-2.544A4.181,4.181,0,0,1,222.3-9.062a4.078,4.078,0,0,1,2.215-.624,3.733,3.733,0,0,1,3,1.239,5.24,5.24,0,0,1,1.059,3.507v.861h-6.214a2.856,2.856,0,0,0,.787,1.863,2.362,2.362,0,0,0,1.736.686,2.892,2.892,0,0,0,2.391-1.187l1.151,1.1A3.845,3.845,0,0,1,226.9-.294,4.774,4.774,0,0,1,224.763.176Zm-.255-8.147a1.8,1.8,0,0,0-1.419.615,3.189,3.189,0,0,0-.69,1.714h4.069V-5.8a2.6,2.6,0,0,0-.571-1.622A1.785,1.785,0,0,0,224.508-7.972Zm12.885-3.85V-9.51h1.679v1.582h-1.679v5.309a1.169,1.169,0,0,0,.215.787,1,1,0,0,0,.769.242,3.29,3.29,0,0,0,.747-.088V-.026a5.26,5.26,0,0,1-1.406.2q-2.461,0-2.461-2.716V-7.928h-1.564V-9.51h1.564v-2.312Zm8.288,4.263a5.285,5.285,0,0,0-.87-.07A1.959,1.959,0,0,0,242.833-6.5V0H240.7V-9.51h2.039l.053,1.063a2.406,2.406,0,0,1,2.145-1.239,2,2,0,0,1,.756.123Zm5.37,7.734A4.419,4.419,0,0,1,247.759-1.1,4.639,4.639,0,0,1,246.5-4.509v-.264a5.706,5.706,0,0,1,.549-2.544,4.181,4.181,0,0,1,1.542-1.745,4.078,4.078,0,0,1,2.215-.624,3.733,3.733,0,0,1,3,1.239,5.24,5.24,0,0,1,1.059,3.507v.861h-6.214a2.856,2.856,0,0,0,.787,1.863,2.362,2.362,0,0,0,1.736.686,2.892,2.892,0,0,0,2.391-1.187l1.151,1.1a3.845,3.845,0,0,1-1.525,1.323A4.774,4.774,0,0,1,251.051.176ZM250.8-7.972a1.8,1.8,0,0,0-1.419.615,3.189,3.189,0,0,0-.69,1.714h4.069V-5.8a2.6,2.6,0,0,0-.571-1.622A1.785,1.785,0,0,0,250.8-7.972Zm11.057,5.388a.968.968,0,0,0-.47-.87,5,5,0,0,0-1.56-.527A8.02,8.02,0,0,1,258-4.562,2.428,2.428,0,0,1,256.4-6.8a2.531,2.531,0,0,1,1.037-2.057,4.1,4.1,0,0,1,2.637-.826,4.266,4.266,0,0,1,2.755.844,2.677,2.677,0,0,1,1.05,2.188h-2.136a1.316,1.316,0,0,0-.457-1.024,1.752,1.752,0,0,0-1.213-.409,1.893,1.893,0,0,0-1.147.325,1.025,1.025,0,0,0-.444.87.866.866,0,0,0,.413.765,5.68,5.68,0,0,0,1.67.549,7.9,7.9,0,0,1,1.973.659A2.794,2.794,0,0,1,263.606-4a2.342,2.342,0,0,1,.347,1.3A2.478,2.478,0,0,1,262.89-.62a4.535,4.535,0,0,1-2.786.8,4.917,4.917,0,0,1-2.083-.422,3.428,3.428,0,0,1-1.424-1.16A2.746,2.746,0,0,1,256.087-3h2.074a1.5,1.5,0,0,0,.571,1.165,2.22,2.22,0,0,0,1.4.409,2.16,2.16,0,0,0,1.283-.321A.993.993,0,0,0,261.853-2.584Zm13.421-4.975a5.285,5.285,0,0,0-.87-.07A1.959,1.959,0,0,0,272.426-6.5V0H270.29V-9.51h2.039l.053,1.063a2.406,2.406,0,0,1,2.145-1.239,2,2,0,0,1,.756.123Zm5.37,7.734A4.419,4.419,0,0,1,277.352-1.1a4.639,4.639,0,0,1-1.261-3.406v-.264a5.706,5.706,0,0,1,.549-2.544,4.181,4.181,0,0,1,1.542-1.745,4.078,4.078,0,0,1,2.215-.624,3.733,3.733,0,0,1,3,1.239,5.24,5.24,0,0,1,1.059,3.507v.861h-6.214a2.856,2.856,0,0,0,.787,1.863,2.362,2.362,0,0,0,1.736.686,2.892,2.892,0,0,0,2.391-1.187l1.151,1.1a3.845,3.845,0,0,1-1.525,1.323A4.774,4.774,0,0,1,280.644.176Zm-.255-8.147a1.8,1.8,0,0,0-1.419.615,3.189,3.189,0,0,0-.69,1.714h4.069V-5.8a2.6,2.6,0,0,0-.571-1.622A1.785,1.785,0,0,0,280.389-7.972Zm11.057,5.388a.968.968,0,0,0-.47-.87,5,5,0,0,0-1.56-.527,8.02,8.02,0,0,1-1.819-.58A2.428,2.428,0,0,1,286-6.8a2.531,2.531,0,0,1,1.037-2.057,4.1,4.1,0,0,1,2.637-.826,4.266,4.266,0,0,1,2.755.844,2.677,2.677,0,0,1,1.05,2.188H291.34a1.316,1.316,0,0,0-.457-1.024,1.752,1.752,0,0,0-1.213-.409,1.893,1.893,0,0,0-1.147.325,1.025,1.025,0,0,0-.444.87.866.866,0,0,0,.413.765,5.68,5.68,0,0,0,1.67.549,7.9,7.9,0,0,1,1.973.659A2.794,2.794,0,0,1,293.2-4a2.342,2.342,0,0,1,.347,1.3A2.478,2.478,0,0,1,292.482-.62a4.535,4.535,0,0,1-2.786.8,4.917,4.917,0,0,1-2.083-.422,3.428,3.428,0,0,1-1.424-1.16A2.746,2.746,0,0,1,285.68-3h2.074a1.5,1.5,0,0,0,.571,1.165,2.22,2.22,0,0,0,1.4.409,2.16,2.16,0,0,0,1.283-.321A.993.993,0,0,0,291.445-2.584ZM297.677,0h-2.136V-9.51h2.136Zm-2.268-11.979a1.133,1.133,0,0,1,.312-.817,1.179,1.179,0,0,1,.892-.325,1.193,1.193,0,0,1,.9.325,1.125,1.125,0,0,1,.316.817,1.1,1.1,0,0,1-.316.8,1.2,1.2,0,0,1-.9.321,1.188,1.188,0,0,1-.892-.321A1.107,1.107,0,0,1,295.409-11.979Zm9.923,9.4a.968.968,0,0,0-.47-.87,5,5,0,0,0-1.56-.527,8.02,8.02,0,0,1-1.819-.58,2.428,2.428,0,0,1-1.6-2.241,2.531,2.531,0,0,1,1.037-2.057,4.1,4.1,0,0,1,2.637-.826,4.266,4.266,0,0,1,2.755.844,2.677,2.677,0,0,1,1.05,2.188h-2.136a1.316,1.316,0,0,0-.457-1.024,1.752,1.752,0,0,0-1.213-.409,1.893,1.893,0,0,0-1.147.325,1.025,1.025,0,0,0-.444.87.866.866,0,0,0,.413.765,5.68,5.68,0,0,0,1.67.549,7.9,7.9,0,0,1,1.973.659A2.794,2.794,0,0,1,307.085-4a2.342,2.342,0,0,1,.347,1.3A2.478,2.478,0,0,1,306.369-.62a4.535,4.535,0,0,1-2.786.8A4.917,4.917,0,0,1,301.5-.246a3.428,3.428,0,0,1-1.424-1.16A2.746,2.746,0,0,1,299.566-3h2.074a1.5,1.5,0,0,0,.571,1.165,2.22,2.22,0,0,0,1.4.409,2.16,2.16,0,0,0,1.283-.321A.993.993,0,0,0,305.332-2.584Zm6.636-9.237V-9.51h1.679v1.582h-1.679v5.309a1.169,1.169,0,0,0,.215.787,1,1,0,0,0,.769.242,3.29,3.29,0,0,0,.747-.088V-.026a5.26,5.26,0,0,1-1.406.2q-2.461,0-2.461-2.716V-7.928h-1.564V-9.51h1.564v-2.312Zm7.5,12A4.419,4.419,0,0,1,316.173-1.1a4.639,4.639,0,0,1-1.261-3.406v-.264a5.706,5.706,0,0,1,.549-2.544A4.181,4.181,0,0,1,317-9.062a4.078,4.078,0,0,1,2.215-.624,3.733,3.733,0,0,1,3,1.239,5.24,5.24,0,0,1,1.059,3.507v.861h-6.214a2.856,2.856,0,0,0,.787,1.863,2.362,2.362,0,0,0,1.736.686,2.892,2.892,0,0,0,2.391-1.187l1.151,1.1A3.845,3.845,0,0,1,321.6-.294,4.774,4.774,0,0,1,319.465.176Zm-.255-8.147a1.8,1.8,0,0,0-1.419.615,3.189,3.189,0,0,0-.69,1.714h4.069V-5.8a2.6,2.6,0,0,0-.571-1.622A1.785,1.785,0,0,0,319.21-7.972Zm7.708-1.538.062,1.1a3.419,3.419,0,0,1,2.769-1.274q2.971,0,3.023,3.4V0h-2.136V-6.161a1.958,1.958,0,0,0-.391-1.34,1.645,1.645,0,0,0-1.279-.435,2.058,2.058,0,0,0-1.925,1.169V0h-2.136V-9.51Zm11.936,7.98A1.931,1.931,0,0,0,340.181-2a1.591,1.591,0,0,0,.563-1.151h2.013A3.137,3.137,0,0,1,342.2-1.49,3.632,3.632,0,0,1,340.8-.272a4.191,4.191,0,0,1-1.916.448,4.055,4.055,0,0,1-3.164-1.292,5.124,5.124,0,0,1-1.169-3.568V-4.9a5.039,5.039,0,0,1,1.16-3.476,4.018,4.018,0,0,1,3.164-1.305,3.907,3.907,0,0,1,2.764.989,3.542,3.542,0,0,1,1.121,2.6h-2.013a1.956,1.956,0,0,0-.558-1.345,1.8,1.8,0,0,0-1.332-.527,1.879,1.879,0,0,0-1.6.751,3.834,3.834,0,0,0-.571,2.281V-4.6a3.9,3.9,0,0,0,.558,2.307A1.878,1.878,0,0,0,338.854-1.529ZM346.641,0H344.5V-9.51h2.136Zm-2.268-11.979a1.133,1.133,0,0,1,.312-.817,1.179,1.179,0,0,1,.892-.325,1.193,1.193,0,0,1,.9.325,1.125,1.125,0,0,1,.316.817,1.1,1.1,0,0,1-.316.8,1.2,1.2,0,0,1-.9.321,1.188,1.188,0,0,1-.892-.321A1.107,1.107,0,0,1,344.373-11.979ZM354.647,0a3.3,3.3,0,0,1-.246-.888,3.325,3.325,0,0,1-2.5,1.063,3.355,3.355,0,0,1-2.338-.817,2.615,2.615,0,0,1-.905-2.021A2.7,2.7,0,0,1,349.792-5a5.473,5.473,0,0,1,3.23-.813h1.31v-.624a1.666,1.666,0,0,0-.413-1.182,1.638,1.638,0,0,0-1.257-.444,1.881,1.881,0,0,0-1.2.365,1.129,1.129,0,0,0-.466.927h-2.136a2.37,2.37,0,0,1,.519-1.463A3.455,3.455,0,0,1,350.793-9.3a4.955,4.955,0,0,1,1.991-.387,3.99,3.99,0,0,1,2.663.839,2.993,2.993,0,0,1,1.02,2.36V-2.2a4.861,4.861,0,0,0,.36,2.048V0ZM352.3-1.538a2.429,2.429,0,0,0,1.191-.308,2.055,2.055,0,0,0,.839-.826V-4.465H353.18a3.148,3.148,0,0,0-1.784.413,1.338,1.338,0,0,0-.6,1.169,1.248,1.248,0,0,0,.409.98A1.583,1.583,0,0,0,352.3-1.538Zm11.733-1.046a.968.968,0,0,0-.47-.87A5,5,0,0,0,362-3.981a8.02,8.02,0,0,1-1.819-.58,2.428,2.428,0,0,1-1.6-2.241,2.531,2.531,0,0,1,1.037-2.057,4.1,4.1,0,0,1,2.637-.826,4.266,4.266,0,0,1,2.755.844,2.677,2.677,0,0,1,1.05,2.188h-2.136a1.316,1.316,0,0,0-.457-1.024,1.752,1.752,0,0,0-1.213-.409,1.893,1.893,0,0,0-1.147.325,1.025,1.025,0,0,0-.444.87.866.866,0,0,0,.413.765,5.68,5.68,0,0,0,1.67.549,7.9,7.9,0,0,1,1.973.659A2.794,2.794,0,0,1,365.788-4a2.342,2.342,0,0,1,.347,1.3A2.478,2.478,0,0,1,365.071-.62a4.535,4.535,0,0,1-2.786.8A4.917,4.917,0,0,1,360.2-.246a3.428,3.428,0,0,1-1.424-1.16A2.746,2.746,0,0,1,358.269-3h2.074a1.5,1.5,0,0,0,.571,1.165,2.22,2.22,0,0,0,1.4.409,2.16,2.16,0,0,0,1.283-.321A.993.993,0,0,0,364.034-2.584Z" transform="translate(371 9752)"/>
    </g>
  </g>
</svg>
