<svg xmlns="http://www.w3.org/2000/svg" width="1062" height="288.536" viewBox="0 0 1062 288.536">
  <g id="Grupo_974109" data-name="Grupo 974109" transform="translate(-265 -10976)">
    <g id="Grupo_974096" data-name="Grupo 974096" transform="translate(5 1226)">
      <g id="Trazado_705008" data-name="Trazado 705008" transform="translate(260 9750)" fill="#fff">
        <path d="M 1022 252.5 L 40 252.5 C 34.8018684387207 252.5 29.76000022888184 251.4822692871094 25.01453399658203 249.4750671386719 C 20.43013381958008 247.5359954833984 16.31266593933105 244.7598724365234 12.77639961242676 241.2236022949219 C 9.240133285522461 237.6873321533203 6.464000225067139 233.5698699951172 4.524933338165283 228.9854736328125 C 2.517733335494995 224.2400054931641 1.5 219.1981353759766 1.5 214 L 1.5 40 C 1.5 34.8018684387207 2.517733335494995 29.76000022888184 4.524933338165283 25.01453399658203 C 6.464000225067139 20.43013381958008 9.240133285522461 16.31266593933105 12.77639961242676 12.77639961242676 C 16.31266593933105 9.240133285522461 20.43013381958008 6.464000225067139 25.01453399658203 4.524933338165283 C 29.76000022888184 2.517733335494995 34.8018684387207 1.5 40 1.5 L 1022 1.5 C 1027.198120117188 1.5 1032.239990234375 2.517733335494995 1036.985473632812 4.524933338165283 C 1041.56982421875 6.464000225067139 1045.687377929688 9.240133285522461 1049.2236328125 12.77639961242676 C 1052.759887695312 16.31266593933105 1055.5361328125 20.43013381958008 1057.47509765625 25.01453399658203 C 1059.482299804688 29.76000022888184 1060.5 34.8018684387207 1060.5 40 L 1060.5 214 C 1060.5 219.1981353759766 1059.482299804688 224.2400054931641 1057.47509765625 228.9854736328125 C 1055.5361328125 233.5698699951172 1052.759887695312 237.6873321533203 1049.2236328125 241.2236022949219 C 1045.687377929688 244.7598724365234 1041.56982421875 247.5359954833984 1036.985473632812 249.4750671386719 C 1032.239990234375 251.4822692871094 1027.198120117188 252.5 1022 252.5 Z" stroke="none"/>
        <path d="M 40 3 C 35.0037841796875 3 30.158447265625 3.977859497070312 25.5987548828125 5.906402587890625 C 21.1932373046875 7.769866943359375 17.2359619140625 10.43814086914062 13.8370361328125 13.83706665039062 C 10.43798828125 17.23599243164062 7.769775390625 21.19332885742188 5.9063720703125 25.59893798828125 C 3.9779052734375 30.15853881835938 3 35.00373840332031 3 40 L 3 214 C 3 218.9962615966797 3.9779052734375 223.8414611816406 5.9063720703125 228.4010620117188 C 7.769775390625 232.8066711425781 10.43798828125 236.7640075683594 13.8370361328125 240.1629333496094 C 17.2359619140625 243.5618591308594 21.1932373046875 246.2301330566406 25.5987548828125 248.0935974121094 C 30.158447265625 250.0221405029297 35.0037841796875 251 40 251 L 1022 251 C 1026.996215820312 251 1031.841552734375 250.0221405029297 1036.401245117188 248.0935974121094 C 1040.806762695312 246.2301330566406 1044.764038085938 243.5618591308594 1048.162963867188 240.1629333496094 C 1051.56201171875 236.7640075683594 1054.230224609375 232.8066711425781 1056.093627929688 228.4010620117188 C 1058.022094726562 223.8414611816406 1059 218.9962615966797 1059 214 L 1059 40 C 1059 35.00373840332031 1058.022094726562 30.15853881835938 1056.093627929688 25.59893798828125 C 1054.230224609375 21.19332885742188 1051.56201171875 17.23599243164062 1048.162963867188 13.83706665039062 C 1044.764038085938 10.43814086914062 1040.806762695312 7.769866943359375 1036.401245117188 5.906402587890625 C 1031.841552734375 3.977859497070312 1026.996215820312 3 1022 3 L 40 3 M 40 0 L 1022 0 C 1044.091430664062 0 1062 17.90866088867188 1062 40 L 1062 214 C 1062 236.0913391113281 1044.091430664062 254 1022 254 L 40 254 C 17.9085693359375 254 0 236.0913391113281 0 214 L 0 40 C 0 17.90866088867188 17.9085693359375 0 40 0 Z" stroke="none" fill="#7125c8"/>
      </g>
      <path id="Trazado_705009" data-name="Trazado 705009" d="M6-4.922H3.524V0H1.3V-12.8H5.8A5.235,5.235,0,0,1,9.22-11.8a3.516,3.516,0,0,1,1.2,2.876A3.6,3.6,0,0,1,9.8-6.776,3.943,3.943,0,0,1,8.077-5.443L10.951-.114V0H8.569ZM3.524-6.715H5.81a2.541,2.541,0,0,0,1.758-.567A1.977,1.977,0,0,0,8.2-8.833a2.1,2.1,0,0,0-.584-1.591A2.483,2.483,0,0,0,5.871-11H3.524ZM16.515.176A4.419,4.419,0,0,1,13.223-1.1a4.639,4.639,0,0,1-1.261-3.406v-.264a5.706,5.706,0,0,1,.549-2.544,4.181,4.181,0,0,1,1.542-1.745,4.078,4.078,0,0,1,2.215-.624,3.733,3.733,0,0,1,3,1.239,5.24,5.24,0,0,1,1.059,3.507v.861H14.115A2.856,2.856,0,0,0,14.9-2.215a2.362,2.362,0,0,0,1.736.686,2.892,2.892,0,0,0,2.391-1.187l1.151,1.1A3.845,3.845,0,0,1,18.655-.294,4.774,4.774,0,0,1,16.515.176ZM16.26-7.972a1.8,1.8,0,0,0-1.419.615,3.189,3.189,0,0,0-.69,1.714H18.22V-5.8a2.6,2.6,0,0,0-.571-1.622A1.785,1.785,0,0,0,16.26-7.972Zm5.326,3.146a5.654,5.654,0,0,1,1.02-3.529,3.267,3.267,0,0,1,2.733-1.332,3.1,3.1,0,0,1,2.443,1.055V-13.5h2.136V0H27.984l-.105-.984A3.148,3.148,0,0,1,25.321.176a3.248,3.248,0,0,1-2.7-1.345A5.861,5.861,0,0,1,21.586-4.825Zm2.136.185a3.958,3.958,0,0,0,.558,2.263,1.811,1.811,0,0,0,1.586.813,2.017,2.017,0,0,0,1.916-1.169V-6.794a1.986,1.986,0,0,0-1.9-1.143,1.824,1.824,0,0,0-1.6.822A4.408,4.408,0,0,0,23.722-4.641ZM37.907-.932A3.312,3.312,0,0,1,35.235.176a2.952,2.952,0,0,1-2.342-.905,3.851,3.851,0,0,1-.8-2.619V-9.51h2.136v6.135q0,1.811,1.5,1.811a2.111,2.111,0,0,0,2.1-1.116V-9.51h2.136V0H37.96Zm8.147-.6A1.931,1.931,0,0,0,47.382-2a1.591,1.591,0,0,0,.563-1.151h2.013A3.137,3.137,0,0,1,49.4-1.49,3.632,3.632,0,0,1,48-.272a4.191,4.191,0,0,1-1.916.448,4.055,4.055,0,0,1-3.164-1.292,5.124,5.124,0,0,1-1.169-3.568V-4.9a5.039,5.039,0,0,1,1.16-3.476,4.018,4.018,0,0,1,3.164-1.305,3.907,3.907,0,0,1,2.764.989,3.542,3.542,0,0,1,1.121,2.6H47.944a1.956,1.956,0,0,0-.558-1.345,1.8,1.8,0,0,0-1.332-.527,1.879,1.879,0,0,0-1.6.751,3.834,3.834,0,0,0-.571,2.281V-4.6a3.9,3.9,0,0,0,.558,2.307A1.878,1.878,0,0,0,46.055-1.529Zm9.422,0A1.931,1.931,0,0,0,56.8-2a1.591,1.591,0,0,0,.563-1.151h2.013a3.137,3.137,0,0,1-.554,1.657A3.632,3.632,0,0,1,57.419-.272,4.191,4.191,0,0,1,55.5.176a4.055,4.055,0,0,1-3.164-1.292A5.124,5.124,0,0,1,51.17-4.685V-4.9A5.039,5.039,0,0,1,52.33-8.38a4.018,4.018,0,0,1,3.164-1.305,3.907,3.907,0,0,1,2.764.989,3.542,3.542,0,0,1,1.121,2.6H57.366a1.956,1.956,0,0,0-.558-1.345,1.8,1.8,0,0,0-1.332-.527,1.879,1.879,0,0,0-1.6.751,3.834,3.834,0,0,0-.571,2.281V-4.6a3.9,3.9,0,0,0,.558,2.307A1.878,1.878,0,0,0,55.477-1.529ZM63.264,0H61.128V-9.51h2.136ZM61-11.979a1.133,1.133,0,0,1,.312-.817,1.179,1.179,0,0,1,.892-.325,1.193,1.193,0,0,1,.9.325,1.125,1.125,0,0,1,.316.817,1.1,1.1,0,0,1-.316.8,1.2,1.2,0,0,1-.9.321,1.188,1.188,0,0,1-.892-.321A1.107,1.107,0,0,1,61-11.979Zm4.192,7.137a5.607,5.607,0,0,1,.554-2.518A4.044,4.044,0,0,1,67.3-9.083a4.383,4.383,0,0,1,2.3-.6,4.154,4.154,0,0,1,3.125,1.239,4.874,4.874,0,0,1,1.3,3.287l.009.5a5.658,5.658,0,0,1-.541,2.514A4,4,0,0,1,71.943-.431a4.415,4.415,0,0,1-2.325.606A4.125,4.125,0,0,1,66.4-1.165a5.133,5.133,0,0,1-1.208-3.573Zm2.136.185a3.832,3.832,0,0,0,.606,2.3,1.971,1.971,0,0,0,1.688.831A1.95,1.95,0,0,0,71.3-2.373a4.232,4.232,0,0,0,.6-2.47,3.782,3.782,0,0,0-.62-2.285A1.979,1.979,0,0,0,69.6-7.972a1.96,1.96,0,0,0-1.661.831A4.152,4.152,0,0,0,67.324-4.658ZM70.189-13.5h2.435l-2.435,2.663-1.714,0Zm7.629,3.99.062,1.1a3.419,3.419,0,0,1,2.769-1.274q2.971,0,3.023,3.4V0H81.536V-6.161a1.958,1.958,0,0,0-.391-1.34,1.645,1.645,0,0,0-1.279-.435,2.058,2.058,0,0,0-1.925,1.169V0H75.806V-9.51ZM89.93-4.825a5.654,5.654,0,0,1,1.02-3.529,3.267,3.267,0,0,1,2.733-1.332,3.1,3.1,0,0,1,2.443,1.055V-13.5h2.136V0H96.328l-.105-.984A3.148,3.148,0,0,1,93.665.176a3.248,3.248,0,0,1-2.7-1.345A5.861,5.861,0,0,1,89.93-4.825Zm2.136.185a3.958,3.958,0,0,0,.558,2.263,1.811,1.811,0,0,0,1.586.813,2.017,2.017,0,0,0,1.916-1.169V-6.794a1.986,1.986,0,0,0-1.9-1.143,1.824,1.824,0,0,0-1.6.822A4.408,4.408,0,0,0,92.065-4.641ZM104.678.176A4.419,4.419,0,0,1,101.386-1.1a4.639,4.639,0,0,1-1.261-3.406v-.264a5.706,5.706,0,0,1,.549-2.544,4.181,4.181,0,0,1,1.542-1.745,4.078,4.078,0,0,1,2.215-.624,3.733,3.733,0,0,1,3,1.239,5.24,5.24,0,0,1,1.059,3.507v.861h-6.214a2.856,2.856,0,0,0,.787,1.863,2.362,2.362,0,0,0,1.736.686,2.892,2.892,0,0,0,2.391-1.187l1.151,1.1a3.845,3.845,0,0,1-1.525,1.323A4.774,4.774,0,0,1,104.678.176Zm-.255-8.147A1.8,1.8,0,0,0,103-7.356a3.189,3.189,0,0,0-.69,1.714h4.069V-5.8a2.6,2.6,0,0,0-.571-1.622A1.785,1.785,0,0,0,104.423-7.972Zm14.115,6.442A1.931,1.931,0,0,0,119.865-2a1.591,1.591,0,0,0,.563-1.151h2.013a3.137,3.137,0,0,1-.554,1.657A3.632,3.632,0,0,1,120.48-.272a4.191,4.191,0,0,1-1.916.448A4.055,4.055,0,0,1,115.4-1.116a5.124,5.124,0,0,1-1.169-3.568V-4.9a5.039,5.039,0,0,1,1.16-3.476,4.018,4.018,0,0,1,3.164-1.305,3.907,3.907,0,0,1,2.764.989,3.542,3.542,0,0,1,1.121,2.6h-2.013a1.956,1.956,0,0,0-.558-1.345,1.8,1.8,0,0,0-1.332-.527,1.879,1.879,0,0,0-1.6.751,3.834,3.834,0,0,0-.571,2.281V-4.6a3.9,3.9,0,0,0,.558,2.307A1.878,1.878,0,0,0,118.538-1.529ZM126.325,0h-2.136V-9.51h2.136Zm-2.268-11.979a1.133,1.133,0,0,1,.312-.817,1.179,1.179,0,0,1,.892-.325,1.193,1.193,0,0,1,.9.325,1.125,1.125,0,0,1,.316.817,1.1,1.1,0,0,1-.316.8,1.2,1.2,0,0,1-.9.321,1.188,1.188,0,0,1-.892-.321A1.107,1.107,0,0,1,124.058-11.979Zm9.571,4.421a5.285,5.285,0,0,0-.87-.07A1.959,1.959,0,0,0,130.781-6.5V0h-2.136V-9.51h2.039l.053,1.063a2.406,2.406,0,0,1,2.145-1.239,2,2,0,0,1,.756.123Zm5.089,6.029A1.931,1.931,0,0,0,140.045-2a1.591,1.591,0,0,0,.563-1.151h2.013a3.137,3.137,0,0,1-.554,1.657A3.632,3.632,0,0,1,140.66-.272a4.191,4.191,0,0,1-1.916.448,4.055,4.055,0,0,1-3.164-1.292,5.124,5.124,0,0,1-1.169-3.568V-4.9a5.039,5.039,0,0,1,1.16-3.476,4.018,4.018,0,0,1,3.164-1.305A3.907,3.907,0,0,1,141.5-8.7a3.542,3.542,0,0,1,1.121,2.6h-2.013a1.956,1.956,0,0,0-.558-1.345,1.8,1.8,0,0,0-1.332-.527,1.879,1.879,0,0,0-1.6.751,3.834,3.834,0,0,0-.571,2.281V-4.6A3.9,3.9,0,0,0,137.1-2.29,1.878,1.878,0,0,0,138.718-1.529Zm11.276.6A3.312,3.312,0,0,1,147.322.176a2.952,2.952,0,0,1-2.342-.905,3.851,3.851,0,0,1-.8-2.619V-9.51h2.136v6.135q0,1.811,1.5,1.811a2.111,2.111,0,0,0,2.1-1.116V-9.51h2.136V0h-2.013ZM156.507,0h-2.136V-9.51h2.136Zm-2.268-11.979a1.133,1.133,0,0,1,.312-.817,1.179,1.179,0,0,1,.892-.325,1.193,1.193,0,0,1,.9.325,1.125,1.125,0,0,1,.316.817,1.1,1.1,0,0,1-.316.8,1.2,1.2,0,0,1-.9.321,1.188,1.188,0,0,1-.892-.321A1.107,1.107,0,0,1,154.239-11.979Zm7.269.158V-9.51h1.679v1.582h-1.679v5.309a1.169,1.169,0,0,0,.215.787,1,1,0,0,0,.769.242,3.29,3.29,0,0,0,.747-.088V-.026a5.26,5.26,0,0,1-1.406.2q-2.461,0-2.461-2.716V-7.928h-1.564V-9.51h1.564v-2.312Zm2.646,6.979a5.607,5.607,0,0,1,.554-2.518,4.044,4.044,0,0,1,1.556-1.723,4.383,4.383,0,0,1,2.3-.6,4.154,4.154,0,0,1,3.125,1.239,4.874,4.874,0,0,1,1.3,3.287l.009.5a5.658,5.658,0,0,1-.541,2.514,4,4,0,0,1-1.547,1.714,4.415,4.415,0,0,1-2.325.606,4.125,4.125,0,0,1-3.221-1.34,5.133,5.133,0,0,1-1.208-3.573Zm2.136.185a3.832,3.832,0,0,0,.606,2.3,1.971,1.971,0,0,0,1.688.831,1.95,1.95,0,0,0,1.683-.844,4.232,4.232,0,0,0,.6-2.47,3.782,3.782,0,0,0-.62-2.285,1.979,1.979,0,0,0-1.683-.844,1.96,1.96,0,0,0-1.661.831A4.152,4.152,0,0,0,166.289-4.658Zm15-4.852.062.993A3.422,3.422,0,0,1,184.1-9.686a2.629,2.629,0,0,1,2.61,1.459,3.373,3.373,0,0,1,2.918-1.459,2.965,2.965,0,0,1,2.342.87,3.831,3.831,0,0,1,.787,2.566V0h-2.136V-6.187a1.891,1.891,0,0,0-.4-1.327,1.731,1.731,0,0,0-1.31-.422,1.778,1.778,0,0,0-1.191.391,2.063,2.063,0,0,0-.646,1.024L187.084,0h-2.136V-6.258a1.523,1.523,0,0,0-1.714-1.679,1.88,1.88,0,0,0-1.819,1.046V0h-2.136V-9.51ZM197.218,0h-2.136V-9.51h2.136ZM194.95-11.979a1.133,1.133,0,0,1,.312-.817,1.179,1.179,0,0,1,.892-.325,1.193,1.193,0,0,1,.9.325,1.125,1.125,0,0,1,.316.817,1.1,1.1,0,0,1-.316.8,1.2,1.2,0,0,1-.9.321,1.188,1.188,0,0,1-.892-.321A1.107,1.107,0,0,1,194.95-11.979Zm8.007,5.6,1.811-3.129h2.373l-2.909,4.685L207.237,0h-2.355l-1.9-3.252L201.094,0h-2.373l3.006-4.825-2.9-4.685h2.355Zm8.314-5.44V-9.51h1.679v1.582h-1.679v5.309a1.169,1.169,0,0,0,.215.787,1,1,0,0,0,.769.242A3.29,3.29,0,0,0,213-1.679V-.026a5.26,5.26,0,0,1-1.406.2q-2.461,0-2.461-2.716V-7.928h-1.564V-9.51h1.564v-2.312Zm2.646,6.979a5.607,5.607,0,0,1,.554-2.518,4.044,4.044,0,0,1,1.556-1.723,4.383,4.383,0,0,1,2.3-.6,4.154,4.154,0,0,1,3.125,1.239,4.874,4.874,0,0,1,1.3,3.287l.009.5a5.658,5.658,0,0,1-.541,2.514,4,4,0,0,1-1.547,1.714,4.415,4.415,0,0,1-2.325.606,4.125,4.125,0,0,1-3.221-1.34,5.133,5.133,0,0,1-1.208-3.573Zm2.136.185a3.832,3.832,0,0,0,.606,2.3,1.971,1.971,0,0,0,1.688.831,1.95,1.95,0,0,0,1.683-.844,4.232,4.232,0,0,0,.6-2.47,3.782,3.782,0,0,0-.62-2.285,1.979,1.979,0,0,0-1.683-.844,1.96,1.96,0,0,0-1.661.831A4.152,4.152,0,0,0,216.053-4.658Zm17.974-2.9a5.285,5.285,0,0,0-.87-.07A1.959,1.959,0,0,0,231.179-6.5V0h-2.136V-9.51h2.039l.053,1.063a2.406,2.406,0,0,1,2.145-1.239,2,2,0,0,1,.756.123ZM239.4.176A4.419,4.419,0,0,1,236.1-1.1a4.639,4.639,0,0,1-1.261-3.406v-.264a5.706,5.706,0,0,1,.549-2.544,4.181,4.181,0,0,1,1.542-1.745,4.078,4.078,0,0,1,2.215-.624,3.733,3.733,0,0,1,3,1.239,5.24,5.24,0,0,1,1.059,3.507v.861H237a2.856,2.856,0,0,0,.787,1.863,2.362,2.362,0,0,0,1.736.686,2.892,2.892,0,0,0,2.391-1.187l1.151,1.1a3.845,3.845,0,0,1-1.525,1.323A4.774,4.774,0,0,1,239.4.176Zm-.255-8.147a1.8,1.8,0,0,0-1.419.615,3.189,3.189,0,0,0-.69,1.714H241.1V-5.8a2.6,2.6,0,0,0-.571-1.622A1.785,1.785,0,0,0,239.142-7.972ZM250.2-2.584a.968.968,0,0,0-.47-.87,5,5,0,0,0-1.56-.527,8.02,8.02,0,0,1-1.819-.58,2.428,2.428,0,0,1-1.6-2.241,2.531,2.531,0,0,1,1.037-2.057,4.1,4.1,0,0,1,2.637-.826,4.266,4.266,0,0,1,2.755.844,2.677,2.677,0,0,1,1.05,2.188h-2.136a1.316,1.316,0,0,0-.457-1.024,1.752,1.752,0,0,0-1.213-.409,1.893,1.893,0,0,0-1.147.325,1.025,1.025,0,0,0-.444.87.866.866,0,0,0,.413.765,5.68,5.68,0,0,0,1.67.549,7.9,7.9,0,0,1,1.973.659A2.794,2.794,0,0,1,251.952-4a2.342,2.342,0,0,1,.347,1.3A2.478,2.478,0,0,1,251.235-.62a4.535,4.535,0,0,1-2.786.8,4.917,4.917,0,0,1-2.083-.422,3.428,3.428,0,0,1-1.424-1.16A2.746,2.746,0,0,1,244.433-3h2.074a1.5,1.5,0,0,0,.571,1.165,2.22,2.22,0,0,0,1.4.409,2.16,2.16,0,0,0,1.283-.321A.993.993,0,0,0,250.2-2.584ZM256.43,0h-2.136V-9.51h2.136Zm-2.268-11.979a1.133,1.133,0,0,1,.312-.817,1.179,1.179,0,0,1,.892-.325,1.193,1.193,0,0,1,.9.325,1.125,1.125,0,0,1,.316.817,1.1,1.1,0,0,1-.316.8,1.2,1.2,0,0,1-.9.321,1.188,1.188,0,0,1-.892-.321A1.107,1.107,0,0,1,254.162-11.979Zm9.923,9.4a.968.968,0,0,0-.47-.87,5,5,0,0,0-1.56-.527,8.02,8.02,0,0,1-1.819-.58,2.428,2.428,0,0,1-1.6-2.241,2.531,2.531,0,0,1,1.037-2.057,4.1,4.1,0,0,1,2.637-.826,4.266,4.266,0,0,1,2.755.844,2.677,2.677,0,0,1,1.05,2.188h-2.136a1.316,1.316,0,0,0-.457-1.024,1.752,1.752,0,0,0-1.213-.409,1.893,1.893,0,0,0-1.147.325,1.025,1.025,0,0,0-.444.87.866.866,0,0,0,.413.765,5.68,5.68,0,0,0,1.67.549,7.9,7.9,0,0,1,1.973.659A2.794,2.794,0,0,1,265.838-4a2.342,2.342,0,0,1,.347,1.3A2.478,2.478,0,0,1,265.122-.62a4.535,4.535,0,0,1-2.786.8,4.917,4.917,0,0,1-2.083-.422,3.428,3.428,0,0,1-1.424-1.16A2.746,2.746,0,0,1,258.319-3h2.074a1.5,1.5,0,0,0,.571,1.165,2.22,2.22,0,0,0,1.4.409,2.16,2.16,0,0,0,1.283-.321A.993.993,0,0,0,264.085-2.584Zm6.636-9.237V-9.51H272.4v1.582h-1.679v5.309a1.169,1.169,0,0,0,.215.787,1,1,0,0,0,.769.242,3.29,3.29,0,0,0,.747-.088V-.026a5.26,5.26,0,0,1-1.406.2q-2.461,0-2.461-2.716V-7.928h-1.564V-9.51h1.564v-2.312ZM276.3,0h-2.136V-9.51H276.3Zm-2.268-11.979a1.133,1.133,0,0,1,.312-.817,1.179,1.179,0,0,1,.892-.325,1.193,1.193,0,0,1,.9.325,1.125,1.125,0,0,1,.316.817,1.1,1.1,0,0,1-.316.8,1.2,1.2,0,0,1-.9.321,1.188,1.188,0,0,1-.892-.321A1.107,1.107,0,0,1,274.034-11.979Zm7.945,9.272,2.013-6.8H286.2L282.9,0h-1.854l-3.322-9.51h2.215ZM287-4.843a5.607,5.607,0,0,1,.554-2.518,4.044,4.044,0,0,1,1.556-1.723,4.383,4.383,0,0,1,2.3-.6,4.154,4.154,0,0,1,3.125,1.239,4.874,4.874,0,0,1,1.3,3.287l.009.5a5.658,5.658,0,0,1-.541,2.514,4,4,0,0,1-1.547,1.714,4.415,4.415,0,0,1-2.325.606,4.125,4.125,0,0,1-3.221-1.34A5.133,5.133,0,0,1,287-4.737Zm2.136.185a3.832,3.832,0,0,0,.606,2.3,1.971,1.971,0,0,0,1.688.831,1.95,1.95,0,0,0,1.683-.844,4.232,4.232,0,0,0,.6-2.47,3.782,3.782,0,0,0-.62-2.285,1.979,1.979,0,0,0-1.683-.844,1.96,1.96,0,0,0-1.661.831A4.152,4.152,0,0,0,289.134-4.658Z" transform="translate(617 9782)" fill="#12263f"/>
    </g>
    <path id="Trazado_705010" data-name="Trazado 705010" d="M20.391,15.9a3.764,3.764,0,0,1,.854.923,4.377,4.377,0,0,1,.454,1.294l.283,1.367a5.808,5.808,0,0,0,.3,1.06,1.411,1.411,0,0,0,.381.518,1.569,1.569,0,0,0,.659.3L23.184,22H19.7a15.607,15.607,0,0,1-.566-2.178L18.818,18.2a5.4,5.4,0,0,0-.322-1.152,1.347,1.347,0,0,0-.469-.605,1.374,1.374,0,0,0-.762-.186H16.66l-.7,3.105q-.068.322-.1.557a4.858,4.858,0,0,0-.029.586.773.773,0,0,0,.229.635,1.26,1.26,0,0,0,.718.215L16.641,22H11.592l.137-.645a1.4,1.4,0,0,0,.82-.547,4.625,4.625,0,0,0,.5-1.445l1.777-8.057a5.3,5.3,0,0,0,.127-1.143.821.821,0,0,0-.19-.6,1.065,1.065,0,0,0-.62-.249l.137-.645H19.15q1.016,0,1.655.063a4.917,4.917,0,0,1,1.25.293,3.139,3.139,0,0,1,1.011.591,2.421,2.421,0,0,1,.615.874,3.023,3.023,0,0,1,.215,1.177,3.736,3.736,0,0,1-.869,2.5,5.919,5.919,0,0,1-2.646,1.641Zm-2.861-.781a4.154,4.154,0,0,0,1.968-.386,2.779,2.779,0,0,0,1.128-1.177,3.9,3.9,0,0,0,.42-1.855,1.9,1.9,0,0,0-.479-1.416,2.1,2.1,0,0,0-1.514-.469q-.742,0-1,.02l-1.143,5.283Zm17.012,4.854a6.66,6.66,0,0,1-2.124,1.65,5.7,5.7,0,0,1-2.466.537,4.309,4.309,0,0,1-1.943-.4A2.66,2.66,0,0,1,26.8,20.569a4.056,4.056,0,0,1-.405-1.88,7.932,7.932,0,0,1,.137-1.3,7.868,7.868,0,0,1,.566-1.914A5.833,5.833,0,0,1,28.35,13.7a5.358,5.358,0,0,1,1.812-1.143,6.3,6.3,0,0,1,2.28-.4q2.988,0,2.988,2.158a2.771,2.771,0,0,1-.3,1.309,2.864,2.864,0,0,1-.991,1.025,5.947,5.947,0,0,1-1.958.742,15.754,15.754,0,0,1-3.052.322A5.521,5.521,0,0,0,29,18.9a2.1,2.1,0,0,0,.381,1.367,1.411,1.411,0,0,0,1.152.459,3.424,3.424,0,0,0,1.553-.347,7.27,7.27,0,0,0,1.631-1.235Zm-5.176-3.281A5.186,5.186,0,0,0,32.114,16a2.057,2.057,0,0,0,.952-1.812,1.107,1.107,0,0,0-.229-.757.81.81,0,0,0-.64-.259,2.091,2.091,0,0,0-1.636.9A7.169,7.169,0,0,0,29.365,16.688Zm14.219,3.477A6.505,6.505,0,0,1,42,21.673a3.465,3.465,0,0,1-1.88.493,2.036,2.036,0,0,1-1.724-.806,3.786,3.786,0,0,1-.61-2.319,9.258,9.258,0,0,1,.381-2.617,6.887,6.887,0,0,1,1.094-2.241A5.063,5.063,0,0,1,41.05,12.7a5.376,5.376,0,0,1,2.446-.542,4.279,4.279,0,0,1,2.48.7l.879-.7,1.094.156L45.469,23.6q-.107.479-.137.713a3.3,3.3,0,0,0-.029.4.743.743,0,0,0,.215.605,1.549,1.549,0,0,0,.762.244l-.107.645H42.119L43.711,20.2Zm.918-4.238a6.733,6.733,0,0,0,.156-1.426,1.677,1.677,0,0,0-.244-1,.928.928,0,0,0-.8-.332,2.008,2.008,0,0,0-1.611.9,7.165,7.165,0,0,0-1.128,2.446,10.425,10.425,0,0,0-.435,2.788,2.124,2.124,0,0,0,.21,1.064.7.7,0,0,0,.649.352,1.955,1.955,0,0,0,1.313-.63,4.994,4.994,0,0,0,1.079-1.479,10.815,10.815,0,0,0,.732-2.324Zm12.637,3.35a4.275,4.275,0,0,0,.063.854,1.019,1.019,0,0,0,.225.469,1.063,1.063,0,0,0,.464.283,3.793,3.793,0,0,0,.762.156q.459.054,1.211.073V22H51.436v-.889a13.386,13.386,0,0,0,1.548-.132,1.855,1.855,0,0,0,.708-.249.947.947,0,0,0,.356-.469,3.1,3.1,0,0,0,.112-.986V12.215a.879.879,0,0,0-.151-.576.519.519,0,0,0-.415-.176,1.7,1.7,0,0,0-.688.225,15.324,15.324,0,0,0-1.46.918l-.6-1.035,5.1-3.057H57.2q-.059.938-.059,2.6Zm16.309-4.111H63.936v-2h9.512Zm0,4.238H63.936V17.42h9.512Zm9.521,5.781h-2.52a12.251,12.251,0,0,1-3.154-8.545A13.034,13.034,0,0,1,80.449,8h2.5a14.035,14.035,0,0,0-2.959,8.643A13.573,13.573,0,0,0,82.969,25.184ZM92.49,15.9a3.764,3.764,0,0,1,.854.923,4.377,4.377,0,0,1,.454,1.294l.283,1.367a5.808,5.808,0,0,0,.3,1.06,1.411,1.411,0,0,0,.381.518,1.569,1.569,0,0,0,.659.3L95.283,22H91.8a15.607,15.607,0,0,1-.566-2.178L90.918,18.2a5.4,5.4,0,0,0-.322-1.152,1.347,1.347,0,0,0-.469-.605,1.374,1.374,0,0,0-.762-.186H88.76l-.7,3.105q-.068.322-.1.557a4.858,4.858,0,0,0-.029.586.773.773,0,0,0,.229.635,1.26,1.26,0,0,0,.718.215L88.74,22H83.691l.137-.645a1.4,1.4,0,0,0,.82-.547,4.625,4.625,0,0,0,.5-1.445l1.777-8.057a5.3,5.3,0,0,0,.127-1.143.821.821,0,0,0-.19-.6,1.065,1.065,0,0,0-.62-.249l.137-.645H91.25q1.016,0,1.655.063a4.917,4.917,0,0,1,1.25.293,3.139,3.139,0,0,1,1.011.591,2.421,2.421,0,0,1,.615.874A3.023,3.023,0,0,1,96,11.668a3.736,3.736,0,0,1-.869,2.5,5.919,5.919,0,0,1-2.646,1.641Zm-2.861-.781a4.154,4.154,0,0,0,1.968-.386,2.779,2.779,0,0,0,1.128-1.177,3.9,3.9,0,0,0,.42-1.855,1.9,1.9,0,0,0-.479-1.416,2.1,2.1,0,0,0-1.514-.469q-.742,0-1,.02l-1.143,5.283Zm9.326-3.232V9.568a11.557,11.557,0,0,1,4.482-1.055,5.155,5.155,0,0,1,2.949.752,2.4,2.4,0,0,1,1.1,2.1,3.051,3.051,0,0,1-.649,1.953,5.88,5.88,0,0,1-2.173,1.523v.088a3.976,3.976,0,0,1,2.251,1.143,3.06,3.06,0,0,1,.825,2.178,3.728,3.728,0,0,1-.552,2.017,3.67,3.67,0,0,1-1.675,1.387,6.644,6.644,0,0,1-2.725.5,11.7,11.7,0,0,1-2.168-.2,8.054,8.054,0,0,1-1.855-.562V18.943h1.758a3.393,3.393,0,0,0,.8,1.616,1.865,1.865,0,0,0,1.357.5q2.07,0,2.07-2.559a2.665,2.665,0,0,0-.728-2.051,3.161,3.161,0,0,0-2.212-.674h-.771V14.666a4.237,4.237,0,0,0,2.578-.8,2.576,2.576,0,0,0,.879-2.1,2.587,2.587,0,0,0-.439-1.636,1.538,1.538,0,0,0-1.279-.552,1.732,1.732,0,0,0-1.348.586,3.387,3.387,0,0,0-.723,1.719ZM112.51,22.244a1.8,1.8,0,0,1-1.27-.469,1.507,1.507,0,0,1-.508-1.152,1.451,1.451,0,0,1,.522-1.152,1.929,1.929,0,0,1,1.3-.449,1.857,1.857,0,0,1,1.294.454,1.573,1.573,0,0,1-.01,2.314A1.936,1.936,0,0,1,112.51,22.244Zm12.1-6.348a3.764,3.764,0,0,1,.854.923,4.377,4.377,0,0,1,.454,1.294l.283,1.367a5.808,5.808,0,0,0,.3,1.06,1.411,1.411,0,0,0,.381.518,1.569,1.569,0,0,0,.659.3L127.4,22h-3.486a15.607,15.607,0,0,1-.566-2.178l-.312-1.621a5.4,5.4,0,0,0-.322-1.152,1.347,1.347,0,0,0-.469-.605,1.374,1.374,0,0,0-.762-.186h-.605l-.7,3.105q-.068.322-.1.557a4.858,4.858,0,0,0-.029.586.773.773,0,0,0,.229.635,1.26,1.26,0,0,0,.718.215l-.137.645h-5.049l.137-.645a1.4,1.4,0,0,0,.82-.547,4.625,4.625,0,0,0,.5-1.445l1.777-8.057a5.3,5.3,0,0,0,.127-1.143.821.821,0,0,0-.19-.6,1.065,1.065,0,0,0-.62-.249l.137-.645h4.873q1.016,0,1.655.063a4.917,4.917,0,0,1,1.25.293,3.139,3.139,0,0,1,1.011.591,2.421,2.421,0,0,1,.615.874,3.023,3.023,0,0,1,.215,1.177,3.736,3.736,0,0,1-.869,2.5,5.919,5.919,0,0,1-2.646,1.641Zm-2.861-.781a4.154,4.154,0,0,0,1.968-.386,2.779,2.779,0,0,0,1.128-1.177,3.9,3.9,0,0,0,.42-1.855,1.9,1.9,0,0,0-.479-1.416,2.1,2.1,0,0,0-1.514-.469q-.742,0-1,.02l-1.143,5.283Zm12.6,6.24a1.8,1.8,0,0,0,.708-.308.893.893,0,0,0,.264-.454,4.636,4.636,0,0,0,.073-1.006V18.133h-5.234V17.078L136.084,8.6h2.2v8.3h.3a2.458,2.458,0,0,0,.674-.063.711.711,0,0,0,.337-.239,1.86,1.86,0,0,0,.269-.625h1.025l-.117,2.158h-2.49v1.455a4.129,4.129,0,0,0,.088,1.03.869.869,0,0,0,.269.444,2.124,2.124,0,0,0,.7.293V22h-4.99ZM132.051,16.9h3.34V14.666q0-1.406.1-2.959h-.1l-3.34,5.029Zm12.578,8.281h-2.5a13.493,13.493,0,0,0,2.988-8.545A14,14,0,0,0,142.129,8h2.52a13.035,13.035,0,0,1,3.164,8.643A12.275,12.275,0,0,1,144.629,25.184ZM158.438,8l-6.826,16.328h-2.754L155.654,8Zm6.982,17.188H162.9a12.251,12.251,0,0,1-3.154-8.545A13.035,13.035,0,0,1,162.9,8h2.5a14.035,14.035,0,0,0-2.959,8.643A13.574,13.574,0,0,0,165.42,25.184Zm9.521-9.287a3.764,3.764,0,0,1,.854.923,4.378,4.378,0,0,1,.454,1.294l.283,1.367a5.808,5.808,0,0,0,.3,1.06,1.412,1.412,0,0,0,.381.518,1.569,1.569,0,0,0,.659.3l-.137.645h-3.486a15.608,15.608,0,0,1-.566-2.178l-.312-1.621a5.394,5.394,0,0,0-.322-1.152,1.347,1.347,0,0,0-.469-.605,1.374,1.374,0,0,0-.762-.186h-.605l-.7,3.105q-.068.322-.1.557a4.858,4.858,0,0,0-.029.586.773.773,0,0,0,.229.635,1.26,1.26,0,0,0,.718.215l-.137.645h-5.049l.137-.645a1.4,1.4,0,0,0,.82-.547,4.625,4.625,0,0,0,.5-1.445l1.777-8.057a5.3,5.3,0,0,0,.127-1.143.821.821,0,0,0-.19-.6,1.065,1.065,0,0,0-.62-.249l.137-.645H173.7q1.016,0,1.655.063a4.917,4.917,0,0,1,1.25.293,3.138,3.138,0,0,1,1.011.591,2.421,2.421,0,0,1,.615.874,3.023,3.023,0,0,1,.215,1.177,3.736,3.736,0,0,1-.869,2.5,5.919,5.919,0,0,1-2.646,1.641Zm-2.861-.781a4.154,4.154,0,0,0,1.968-.386,2.779,2.779,0,0,0,1.128-1.177,3.9,3.9,0,0,0,.42-1.855,1.9,1.9,0,0,0-.479-1.416,2.1,2.1,0,0,0-1.514-.469q-.742,0-1,.02l-1.143,5.283Zm9.326-3.232V9.568a11.557,11.557,0,0,1,4.482-1.055,5.155,5.155,0,0,1,2.949.752,2.4,2.4,0,0,1,1.1,2.1,3.051,3.051,0,0,1-.649,1.953,5.88,5.88,0,0,1-2.173,1.523v.088a3.976,3.976,0,0,1,2.251,1.143,3.06,3.06,0,0,1,.825,2.178,3.728,3.728,0,0,1-.552,2.017,3.67,3.67,0,0,1-1.675,1.387,6.644,6.644,0,0,1-2.725.5,11.7,11.7,0,0,1-2.168-.2,8.054,8.054,0,0,1-1.855-.562V18.943h1.758a3.393,3.393,0,0,0,.8,1.616,1.865,1.865,0,0,0,1.357.5q2.07,0,2.07-2.559a2.665,2.665,0,0,0-.728-2.051,3.161,3.161,0,0,0-2.212-.674H183.5V14.666a4.237,4.237,0,0,0,2.578-.8,2.576,2.576,0,0,0,.879-2.1,2.587,2.587,0,0,0-.439-1.636,1.538,1.538,0,0,0-1.279-.552,1.732,1.732,0,0,0-1.348.586,3.387,3.387,0,0,0-.723,1.719Zm22.715,5.381h-3.76v3.76h-1.973v-3.76h-3.779V15.281h3.779V11.5h1.973v3.779h3.76Zm11.66-1.367a3.764,3.764,0,0,1,.854.923,4.378,4.378,0,0,1,.454,1.294l.283,1.367a5.808,5.808,0,0,0,.3,1.06,1.412,1.412,0,0,0,.381.518,1.569,1.569,0,0,0,.659.3l-.137.645h-3.486a15.608,15.608,0,0,1-.566-2.178l-.312-1.621a5.394,5.394,0,0,0-.322-1.152,1.347,1.347,0,0,0-.469-.605,1.374,1.374,0,0,0-.762-.186h-.605l-.7,3.105q-.068.322-.1.557a4.858,4.858,0,0,0-.029.586.773.773,0,0,0,.229.635,1.26,1.26,0,0,0,.718.215l-.137.645h-5.049l.137-.645a1.4,1.4,0,0,0,.82-.547,4.625,4.625,0,0,0,.5-1.445l1.777-8.057a5.3,5.3,0,0,0,.127-1.143.821.821,0,0,0-.19-.6,1.065,1.065,0,0,0-.62-.249l.137-.645h4.873q1.016,0,1.655.063a4.917,4.917,0,0,1,1.25.293,3.138,3.138,0,0,1,1.011.591,2.421,2.421,0,0,1,.615.874,3.023,3.023,0,0,1,.215,1.177,3.736,3.736,0,0,1-.869,2.5,5.919,5.919,0,0,1-2.646,1.641Zm-2.861-.781a4.154,4.154,0,0,0,1.968-.386,2.779,2.779,0,0,0,1.128-1.177,3.9,3.9,0,0,0,.42-1.855,1.9,1.9,0,0,0-.479-1.416,2.1,2.1,0,0,0-1.514-.469q-.742,0-1,.02L212.3,15.115Zm12.6,6.24a1.8,1.8,0,0,0,.708-.308.893.893,0,0,0,.264-.454,4.636,4.636,0,0,0,.073-1.006V18.133h-5.234V17.078L227.256,8.6h2.2v8.3h.3a2.458,2.458,0,0,0,.674-.063.711.711,0,0,0,.337-.239,1.86,1.86,0,0,0,.269-.625h1.025l-.117,2.158h-2.49v1.455a4.129,4.129,0,0,0,.088,1.03.869.869,0,0,0,.269.444,2.124,2.124,0,0,0,.7.293V22h-4.99ZM223.223,16.9h3.34V14.666q0-1.406.1-2.959h-.1l-3.34,5.029ZM235.8,25.184h-2.5a13.493,13.493,0,0,0,2.988-8.545A14,14,0,0,0,233.3,8h2.52a13.035,13.035,0,0,1,3.164,8.643A12.275,12.275,0,0,1,235.8,25.184Z" transform="translate(485.959 11235.827)"/>
    <path id="Trazado_705011" data-name="Trazado 705011" d="M9.355,15.9a3.764,3.764,0,0,1,.854.923,4.378,4.378,0,0,1,.454,1.294l.283,1.367a5.808,5.808,0,0,0,.3,1.06,1.411,1.411,0,0,0,.381.518,1.569,1.569,0,0,0,.659.3L12.148,22H8.662A15.607,15.607,0,0,1,8.1,19.822L7.783,18.2a5.4,5.4,0,0,0-.322-1.152,1.347,1.347,0,0,0-.469-.605,1.374,1.374,0,0,0-.762-.186H5.625l-.7,3.105q-.068.322-.1.557a4.858,4.858,0,0,0-.029.586.773.773,0,0,0,.229.635,1.26,1.26,0,0,0,.718.215L5.605,22H.557l.137-.645a1.4,1.4,0,0,0,.82-.547,4.625,4.625,0,0,0,.5-1.445l1.777-8.057a5.3,5.3,0,0,0,.127-1.143.821.821,0,0,0-.19-.6,1.065,1.065,0,0,0-.62-.249l.137-.645H8.115q1.016,0,1.655.063a4.917,4.917,0,0,1,1.25.293,3.138,3.138,0,0,1,1.011.591,2.421,2.421,0,0,1,.615.874,3.023,3.023,0,0,1,.215,1.177,3.736,3.736,0,0,1-.869,2.5,5.919,5.919,0,0,1-2.646,1.641Zm-2.861-.781a4.154,4.154,0,0,0,1.968-.386A2.779,2.779,0,0,0,9.59,13.553a3.9,3.9,0,0,0,.42-1.855,1.9,1.9,0,0,0-.479-1.416,2.1,2.1,0,0,0-1.514-.469q-.742,0-1,.02L5.879,15.115Zm17.012,4.854a6.66,6.66,0,0,1-2.124,1.65,5.7,5.7,0,0,1-2.466.537,4.309,4.309,0,0,1-1.943-.4,2.66,2.66,0,0,1-1.206-1.187,4.056,4.056,0,0,1-.405-1.88,7.932,7.932,0,0,1,.137-1.3,7.868,7.868,0,0,1,.566-1.914,5.833,5.833,0,0,1,1.25-1.777,5.358,5.358,0,0,1,1.812-1.143,6.3,6.3,0,0,1,2.28-.4q2.988,0,2.988,2.158a2.771,2.771,0,0,1-.3,1.309,2.864,2.864,0,0,1-.991,1.025,5.947,5.947,0,0,1-1.958.742,15.754,15.754,0,0,1-3.052.322,5.521,5.521,0,0,0-.127,1.191,2.1,2.1,0,0,0,.381,1.367,1.411,1.411,0,0,0,1.152.459,3.424,3.424,0,0,0,1.553-.347,7.27,7.27,0,0,0,1.631-1.235ZM18.33,16.688A5.186,5.186,0,0,0,21.079,16a2.057,2.057,0,0,0,.952-1.812,1.107,1.107,0,0,0-.229-.757.81.81,0,0,0-.64-.259,2.091,2.091,0,0,0-1.636.9A7.169,7.169,0,0,0,18.33,16.688Zm14.219,3.477a6.505,6.505,0,0,1-1.587,1.509,3.465,3.465,0,0,1-1.88.493,2.036,2.036,0,0,1-1.724-.806,3.786,3.786,0,0,1-.61-2.319,9.258,9.258,0,0,1,.381-2.617,6.887,6.887,0,0,1,1.094-2.241A5.063,5.063,0,0,1,30.015,12.7a5.376,5.376,0,0,1,2.446-.542,4.279,4.279,0,0,1,2.48.7l.879-.7,1.094.156L34.434,23.6q-.107.479-.137.713a3.3,3.3,0,0,0-.029.4.743.743,0,0,0,.215.605,1.549,1.549,0,0,0,.762.244l-.107.645H31.084L32.676,20.2Zm.918-4.238a6.733,6.733,0,0,0,.156-1.426,1.677,1.677,0,0,0-.244-1,.928.928,0,0,0-.8-.332,2.008,2.008,0,0,0-1.611.9,7.165,7.165,0,0,0-1.128,2.446A10.425,10.425,0,0,0,29.4,19.3a2.124,2.124,0,0,0,.21,1.064.7.7,0,0,0,.649.352,1.955,1.955,0,0,0,1.313-.63,4.994,4.994,0,0,0,1.079-1.479,10.815,10.815,0,0,0,.732-2.324Zm16.582-.762H40.537v-2h9.512Zm0,4.238H40.537V17.42h9.512ZM67.227,15.9a3.764,3.764,0,0,1,.854.923,4.377,4.377,0,0,1,.454,1.294l.283,1.367a5.808,5.808,0,0,0,.3,1.06,1.411,1.411,0,0,0,.381.518,1.569,1.569,0,0,0,.659.3L70.02,22H66.533a15.607,15.607,0,0,1-.566-2.178L65.654,18.2a5.4,5.4,0,0,0-.322-1.152,1.347,1.347,0,0,0-.469-.605,1.374,1.374,0,0,0-.762-.186H63.5l-.7,3.105q-.068.322-.1.557a4.858,4.858,0,0,0-.029.586.773.773,0,0,0,.229.635,1.26,1.26,0,0,0,.718.215L63.477,22H58.428l.137-.645a1.4,1.4,0,0,0,.82-.547,4.625,4.625,0,0,0,.5-1.445l1.777-8.057a5.3,5.3,0,0,0,.127-1.143.821.821,0,0,0-.19-.6,1.065,1.065,0,0,0-.62-.249l.137-.645h4.873q1.016,0,1.655.063a4.917,4.917,0,0,1,1.25.293,3.139,3.139,0,0,1,1.011.591,2.421,2.421,0,0,1,.615.874,3.023,3.023,0,0,1,.215,1.177,3.736,3.736,0,0,1-.869,2.5,5.919,5.919,0,0,1-2.646,1.641Zm-2.861-.781a4.154,4.154,0,0,0,1.968-.386,2.779,2.779,0,0,0,1.128-1.177,3.9,3.9,0,0,0,.42-1.855,1.9,1.9,0,0,0-.479-1.416,2.1,2.1,0,0,0-1.514-.469q-.742,0-1,.02L63.75,15.115ZM80.1,19.275a4.274,4.274,0,0,0,.063.854,1.019,1.019,0,0,0,.225.469,1.063,1.063,0,0,0,.464.283,3.793,3.793,0,0,0,.762.156q.459.054,1.211.073V22H74.395v-.889a13.386,13.386,0,0,0,1.548-.132,1.855,1.855,0,0,0,.708-.249.947.947,0,0,0,.356-.469,3.1,3.1,0,0,0,.112-.986V12.215a.879.879,0,0,0-.151-.576.519.519,0,0,0-.415-.176,1.7,1.7,0,0,0-.688.225,15.324,15.324,0,0,0-1.46.918l-.6-1.035,5.1-3.057h1.25q-.059.938-.059,2.6Zm16.309-2.012h-3.76v3.76H90.674v-3.76H86.895V15.281h3.779V11.5h1.973v3.779h3.76Zm11.66-1.367a3.764,3.764,0,0,1,.854.923,4.377,4.377,0,0,1,.454,1.294l.283,1.367a5.808,5.808,0,0,0,.3,1.06,1.411,1.411,0,0,0,.381.518,1.569,1.569,0,0,0,.659.3l-.137.645h-3.486a15.607,15.607,0,0,1-.566-2.178l-.312-1.621a5.4,5.4,0,0,0-.322-1.152,1.347,1.347,0,0,0-.469-.605,1.374,1.374,0,0,0-.762-.186h-.605l-.7,3.105q-.068.322-.1.557a4.858,4.858,0,0,0-.029.586.773.773,0,0,0,.229.635,1.26,1.26,0,0,0,.718.215l-.137.645H99.268l.137-.645a1.4,1.4,0,0,0,.82-.547,4.625,4.625,0,0,0,.5-1.445l1.777-8.057a5.3,5.3,0,0,0,.127-1.143.821.821,0,0,0-.19-.6,1.065,1.065,0,0,0-.62-.249l.137-.645h4.873q1.016,0,1.655.063a4.917,4.917,0,0,1,1.25.293,3.139,3.139,0,0,1,1.011.591,2.421,2.421,0,0,1,.615.874,3.023,3.023,0,0,1,.215,1.177,3.736,3.736,0,0,1-.869,2.5,5.919,5.919,0,0,1-2.646,1.641Zm-2.861-.781a4.154,4.154,0,0,0,1.968-.386,2.779,2.779,0,0,0,1.128-1.177,3.9,3.9,0,0,0,.42-1.855,1.9,1.9,0,0,0-.479-1.416,2.1,2.1,0,0,0-1.514-.469q-.742,0-1,.02l-1.143,5.283Zm15.264,4.492a3.579,3.579,0,0,0,.947-.093.953.953,0,0,0,.493-.322,1.874,1.874,0,0,0,.3-.688h1.123l-.225,3.5H114.16v-.645a19.725,19.725,0,0,1,3.076-4.453q1.055-1.24,1.606-2.041a7.344,7.344,0,0,0,.825-1.514,4.084,4.084,0,0,0,.273-1.475,2.665,2.665,0,0,0-.479-1.685,1.573,1.573,0,0,0-1.309-.61q-1.592,0-2.041,2.295h-1.758v-2.3a16.074,16.074,0,0,1,2.568-.85,10.008,10.008,0,0,1,2.061-.205,6.053,6.053,0,0,1,2.344.386,2.727,2.727,0,0,1,1.313,1.045,2.877,2.877,0,0,1,.405,1.538,3.568,3.568,0,0,1-.288,1.436,6.556,6.556,0,0,1-1,1.514,31.252,31.252,0,0,1-2.388,2.432q-.518.488-1.235,1.284T117,19.51v.1Zm16.777-2.344h-3.76v3.76h-1.973v-3.76h-3.779V15.281h3.779V11.5h1.973v3.779h3.76Zm11.66-1.367a3.764,3.764,0,0,1,.854.923,4.378,4.378,0,0,1,.454,1.294l.283,1.367a5.808,5.808,0,0,0,.3,1.06,1.412,1.412,0,0,0,.381.518,1.569,1.569,0,0,0,.659.3L151.7,22h-3.486a15.608,15.608,0,0,1-.566-2.178l-.312-1.621a5.394,5.394,0,0,0-.322-1.152,1.347,1.347,0,0,0-.469-.605,1.374,1.374,0,0,0-.762-.186h-.605l-.7,3.105q-.068.322-.1.557a4.858,4.858,0,0,0-.029.586.773.773,0,0,0,.229.635,1.26,1.26,0,0,0,.718.215l-.137.645h-5.049l.137-.645a1.4,1.4,0,0,0,.82-.547,4.625,4.625,0,0,0,.5-1.445l1.777-8.057a5.3,5.3,0,0,0,.127-1.143.821.821,0,0,0-.19-.6,1.065,1.065,0,0,0-.62-.249l.137-.645h4.873q1.016,0,1.655.063a4.917,4.917,0,0,1,1.25.293,3.138,3.138,0,0,1,1.011.591,2.421,2.421,0,0,1,.615.874,3.023,3.023,0,0,1,.215,1.177,3.736,3.736,0,0,1-.869,2.5,5.919,5.919,0,0,1-2.646,1.641Zm-2.861-.781a4.154,4.154,0,0,0,1.968-.386,2.779,2.779,0,0,0,1.128-1.177,3.9,3.9,0,0,0,.42-1.855,1.9,1.9,0,0,0-.479-1.416,2.1,2.1,0,0,0-1.514-.469q-.742,0-1,.02l-1.143,5.283Zm17.012,4.854a6.66,6.66,0,0,1-2.124,1.65,5.7,5.7,0,0,1-2.466.537,4.309,4.309,0,0,1-1.943-.4,2.66,2.66,0,0,1-1.206-1.187,4.056,4.056,0,0,1-.405-1.88,7.932,7.932,0,0,1,.137-1.3,7.868,7.868,0,0,1,.566-1.914,5.833,5.833,0,0,1,1.25-1.777,5.358,5.358,0,0,1,1.812-1.143,6.3,6.3,0,0,1,2.28-.4q2.988,0,2.988,2.158a2.771,2.771,0,0,1-.3,1.309,2.864,2.864,0,0,1-.991,1.025,5.947,5.947,0,0,1-1.958.742,15.754,15.754,0,0,1-3.052.322,5.521,5.521,0,0,0-.127,1.191,2.1,2.1,0,0,0,.381,1.367,1.411,1.411,0,0,0,1.152.459,3.424,3.424,0,0,0,1.553-.347,7.271,7.271,0,0,0,1.631-1.235Zm-5.176-3.281A5.186,5.186,0,0,0,160.63,16a2.057,2.057,0,0,0,.952-1.812,1.107,1.107,0,0,0-.229-.757.81.81,0,0,0-.64-.259,2.091,2.091,0,0,0-1.636.9A7.169,7.169,0,0,0,157.881,16.688ZM172.1,20.164a6.505,6.505,0,0,1-1.587,1.509,3.465,3.465,0,0,1-1.88.493,2.036,2.036,0,0,1-1.724-.806,3.786,3.786,0,0,1-.61-2.319,9.258,9.258,0,0,1,.381-2.617,6.887,6.887,0,0,1,1.094-2.241,5.063,5.063,0,0,1,1.792-1.484,5.376,5.376,0,0,1,2.446-.542,4.28,4.28,0,0,1,2.48.7l.879-.7,1.094.156L173.984,23.6q-.107.479-.137.713a3.3,3.3,0,0,0-.029.4.743.743,0,0,0,.215.605,1.549,1.549,0,0,0,.762.244l-.107.645h-4.053l1.592-6.006Zm.918-4.238a6.732,6.732,0,0,0,.156-1.426,1.677,1.677,0,0,0-.244-1,.928.928,0,0,0-.8-.332,2.008,2.008,0,0,0-1.611.9,7.165,7.165,0,0,0-1.128,2.446,10.424,10.424,0,0,0-.435,2.788,2.125,2.125,0,0,0,.21,1.064.7.7,0,0,0,.649.352,1.955,1.955,0,0,0,1.313-.63,4.994,4.994,0,0,0,1.079-1.479,10.815,10.815,0,0,0,.732-2.324Zm12.637,3.35a4.275,4.275,0,0,0,.063.854,1.019,1.019,0,0,0,.225.469,1.063,1.063,0,0,0,.464.283,3.793,3.793,0,0,0,.762.156q.459.054,1.211.073V22h-8.428v-.889a13.387,13.387,0,0,0,1.548-.132,1.855,1.855,0,0,0,.708-.249.947.947,0,0,0,.356-.469,3.1,3.1,0,0,0,.112-.986V12.215a.879.879,0,0,0-.151-.576.519.519,0,0,0-.415-.176,1.7,1.7,0,0,0-.688.225,15.324,15.324,0,0,0-1.46.918l-.6-1.035,5.1-3.057h1.25q-.059.938-.059,2.6Z" transform="translate(909.93 11238.327)"/>
    <path id="Trazado_705012" data-name="Trazado 705012" d="M2.82,10.547V15H1.32V3.625h4.2a4.215,4.215,0,0,1,2.926.953A3.231,3.231,0,0,1,9.5,7.1,3.189,3.189,0,0,1,8.465,9.652a4.4,4.4,0,0,1-2.965.895Zm0-1.227h2.7a2.7,2.7,0,0,0,1.844-.567A2.075,2.075,0,0,0,8,7.113a2.143,2.143,0,0,0-.641-1.628A2.525,2.525,0,0,0,5.6,4.852H2.82ZM16.32,15a3.036,3.036,0,0,1-.2-.891,3.225,3.225,0,0,1-2.406,1.047,2.984,2.984,0,0,1-2.051-.707,2.287,2.287,0,0,1-.8-1.793,2.39,2.39,0,0,1,1-2.051,4.733,4.733,0,0,1,2.824-.73h1.406V9.211A1.623,1.623,0,0,0,15.641,8,1.821,1.821,0,0,0,14.3,7.555a2.107,2.107,0,0,0-1.3.391,1.151,1.151,0,0,0-.523.945H11.031a2,2,0,0,1,.449-1.223A3.066,3.066,0,0,1,12.7,6.734a4.1,4.1,0,0,1,1.691-.344,3.342,3.342,0,0,1,2.289.73,2.635,2.635,0,0,1,.859,2.012v3.891a4.757,4.757,0,0,0,.3,1.852V15Zm-2.4-1.1a2.54,2.54,0,0,0,1.289-.352,2.127,2.127,0,0,0,.883-.914V10.9H14.961q-2.656,0-2.656,1.555a1.316,1.316,0,0,0,.453,1.063A1.742,1.742,0,0,0,13.922,13.9Zm10.8-1.141a1.064,1.064,0,0,0-.441-.91,4.249,4.249,0,0,0-1.539-.559A7.277,7.277,0,0,1,21,10.727a2.479,2.479,0,0,1-.953-.781,1.869,1.869,0,0,1-.309-1.078,2.193,2.193,0,0,1,.879-1.758,3.432,3.432,0,0,1,2.246-.719,3.532,3.532,0,0,1,2.332.742,2.357,2.357,0,0,1,.895,1.9H24.641a1.3,1.3,0,0,0-.5-1.023,1.888,1.888,0,0,0-1.27-.43,1.976,1.976,0,0,0-1.234.344,1.082,1.082,0,0,0-.445.9.877.877,0,0,0,.414.789,5.1,5.1,0,0,0,1.5.508,7.8,7.8,0,0,1,1.754.578,2.558,2.558,0,0,1,1,.809,1.988,1.988,0,0,1,.324,1.152,2.163,2.163,0,0,1-.906,1.816,3.8,3.8,0,0,1-2.352.684,4.257,4.257,0,0,1-1.8-.359,2.922,2.922,0,0,1-1.223-1,2.42,2.42,0,0,1-.441-1.395H20.9a1.5,1.5,0,0,0,.582,1.152,2.258,2.258,0,0,0,1.434.426,2.331,2.331,0,0,0,1.316-.332A1.02,1.02,0,0,0,24.727,12.758ZM27.672,10.7a4.993,4.993,0,0,1,.488-2.234A3.643,3.643,0,0,1,29.52,6.93a3.7,3.7,0,0,1,1.988-.539,3.565,3.565,0,0,1,2.793,1.2,4.6,4.6,0,0,1,1.066,3.18v.1a5.036,5.036,0,0,1-.473,2.215,3.589,3.589,0,0,1-1.352,1.527,3.743,3.743,0,0,1-2.02.547,3.556,3.556,0,0,1-2.785-1.2A4.575,4.575,0,0,1,27.672,10.8Zm1.453.172a3.616,3.616,0,0,0,.652,2.258,2.211,2.211,0,0,0,3.5-.012,3.955,3.955,0,0,0,.648-2.418,3.61,3.61,0,0,0-.66-2.254,2.1,2.1,0,0,0-1.754-.863,2.075,2.075,0,0,0-1.727.852A3.925,3.925,0,0,0,29.125,10.867ZM45.742,15H44.289V5.367l-2.914,1.07V5.125L45.516,3.57h.227Zm4.336-.758a.905.905,0,0,1,.223-.625.848.848,0,0,1,.668-.25.874.874,0,0,1,.676.25.887.887,0,0,1,.23.625.839.839,0,0,1-.23.6.89.89,0,0,1-.676.242.8.8,0,0,1-.891-.844Zm.008-6.9a.905.905,0,0,1,.223-.625.848.848,0,0,1,.668-.25.874.874,0,0,1,.676.25.887.887,0,0,1,.23.625.839.839,0,0,1-.23.6.89.89,0,0,1-.676.242.8.8,0,0,1-.891-.844Z" transform="translate(433.973 11241.494)" fill="#12263f"/>
    <path id="Trazado_705013" data-name="Trazado 705013" d="M2.82,10.547V15H1.32V3.625h4.2a4.215,4.215,0,0,1,2.926.953A3.231,3.231,0,0,1,9.5,7.1,3.189,3.189,0,0,1,8.465,9.652a4.4,4.4,0,0,1-2.965.895Zm0-1.227h2.7a2.7,2.7,0,0,0,1.844-.567A2.075,2.075,0,0,0,8,7.113a2.143,2.143,0,0,0-.641-1.628A2.525,2.525,0,0,0,5.6,4.852H2.82ZM16.32,15a3.036,3.036,0,0,1-.2-.891,3.225,3.225,0,0,1-2.406,1.047,2.984,2.984,0,0,1-2.051-.707,2.287,2.287,0,0,1-.8-1.793,2.39,2.39,0,0,1,1-2.051,4.733,4.733,0,0,1,2.824-.73h1.406V9.211A1.623,1.623,0,0,0,15.641,8,1.821,1.821,0,0,0,14.3,7.555a2.107,2.107,0,0,0-1.3.391,1.151,1.151,0,0,0-.523.945H11.031a2,2,0,0,1,.449-1.223A3.066,3.066,0,0,1,12.7,6.734a4.1,4.1,0,0,1,1.691-.344,3.342,3.342,0,0,1,2.289.73,2.635,2.635,0,0,1,.859,2.012v3.891a4.757,4.757,0,0,0,.3,1.852V15Zm-2.4-1.1a2.54,2.54,0,0,0,1.289-.352,2.127,2.127,0,0,0,.883-.914V10.9H14.961q-2.656,0-2.656,1.555a1.316,1.316,0,0,0,.453,1.063A1.742,1.742,0,0,0,13.922,13.9Zm10.8-1.141a1.064,1.064,0,0,0-.441-.91,4.249,4.249,0,0,0-1.539-.559A7.277,7.277,0,0,1,21,10.727a2.479,2.479,0,0,1-.953-.781,1.869,1.869,0,0,1-.309-1.078,2.193,2.193,0,0,1,.879-1.758,3.432,3.432,0,0,1,2.246-.719,3.532,3.532,0,0,1,2.332.742,2.357,2.357,0,0,1,.895,1.9H24.641a1.3,1.3,0,0,0-.5-1.023,1.888,1.888,0,0,0-1.27-.43,1.976,1.976,0,0,0-1.234.344,1.082,1.082,0,0,0-.445.9.877.877,0,0,0,.414.789,5.1,5.1,0,0,0,1.5.508,7.8,7.8,0,0,1,1.754.578,2.558,2.558,0,0,1,1,.809,1.988,1.988,0,0,1,.324,1.152,2.163,2.163,0,0,1-.906,1.816,3.8,3.8,0,0,1-2.352.684,4.257,4.257,0,0,1-1.8-.359,2.922,2.922,0,0,1-1.223-1,2.42,2.42,0,0,1-.441-1.395H20.9a1.5,1.5,0,0,0,.582,1.152,2.258,2.258,0,0,0,1.434.426,2.331,2.331,0,0,0,1.316-.332A1.02,1.02,0,0,0,24.727,12.758ZM27.672,10.7a4.993,4.993,0,0,1,.488-2.234A3.643,3.643,0,0,1,29.52,6.93a3.7,3.7,0,0,1,1.988-.539,3.565,3.565,0,0,1,2.793,1.2,4.6,4.6,0,0,1,1.066,3.18v.1a5.036,5.036,0,0,1-.473,2.215,3.589,3.589,0,0,1-1.352,1.527,3.743,3.743,0,0,1-2.02.547,3.556,3.556,0,0,1-2.785-1.2A4.575,4.575,0,0,1,27.672,10.8Zm1.453.172a3.616,3.616,0,0,0,.652,2.258,2.211,2.211,0,0,0,3.5-.012,3.955,3.955,0,0,0,.648-2.418,3.61,3.61,0,0,0-.66-2.254,2.1,2.1,0,0,0-1.754-.863,2.075,2.075,0,0,0-1.727.852A3.925,3.925,0,0,0,29.125,10.867ZM48.445,15H40.992V13.961L44.93,9.586a9.355,9.355,0,0,0,1.207-1.613,2.693,2.693,0,0,0,.332-1.285,2.041,2.041,0,0,0-.539-1.461,1.885,1.885,0,0,0-1.437-.57,2.232,2.232,0,0,0-1.676.613,2.343,2.343,0,0,0-.6,1.707H40.773a3.355,3.355,0,0,1,1.012-2.539,3.751,3.751,0,0,1,2.707-.969A3.6,3.6,0,0,1,47,4.3a2.838,2.838,0,0,1,.922,2.215q0,1.68-2.141,4l-3.047,3.3h5.711Zm1.633-.758a.905.905,0,0,1,.223-.625.848.848,0,0,1,.668-.25.874.874,0,0,1,.676.25.887.887,0,0,1,.23.625.839.839,0,0,1-.23.6.89.89,0,0,1-.676.242.8.8,0,0,1-.891-.844Zm.008-6.9a.905.905,0,0,1,.223-.625.848.848,0,0,1,.668-.25.874.874,0,0,1,.676.25.887.887,0,0,1,.23.625.839.839,0,0,1-.23.6.89.89,0,0,1-.676.242.8.8,0,0,1-.891-.844Z" transform="translate(845.944 11242.327)" fill="#12263f"/>
    <g id="Trazado_705014" data-name="Trazado 705014" transform="translate(427.615 11029.023)" fill="#fff">
      <path d="M 15.5 29.5 C 11.76047039031982 29.5 8.244759559631348 28.04375076293945 5.600510120391846 25.39949035644531 C 2.956249952316284 22.75523948669434 1.5 19.23953056335449 1.5 15.5 C 1.5 11.76047039031982 2.956249952316284 8.244759559631348 5.600510120391846 5.600510120391846 C 8.244759559631348 2.956249952316284 11.76047039031982 1.5 15.5 1.5 C 19.23953056335449 1.5 22.75523948669434 2.956249952316284 25.39949035644531 5.600510120391846 C 28.04375076293945 8.244759559631348 29.5 11.76047039031982 29.5 15.5 C 29.5 19.23953056335449 28.04375076293945 22.75523948669434 25.39949035644531 25.39949035644531 C 22.75523948669434 28.04375076293945 19.23953056335449 29.5 15.5 29.5 Z" stroke="none"/>
      <path d="M 15.5 3 C 12.16113090515137 3 9.022109985351562 4.300230026245117 6.661169052124023 6.661169052124023 C 4.300230026245117 9.022109985351562 3 12.16113090515137 3 15.5 C 3 18.83887100219727 4.300230026245117 21.97789001464844 6.661169052124023 24.33882904052734 C 9.022109985351562 26.69976997375488 12.16113090515137 28 15.5 28 C 18.83887100219727 28 21.97789001464844 26.69976997375488 24.33882904052734 24.33882904052734 C 26.69976997375488 21.97789001464844 28 18.83887100219727 28 15.5 C 28 12.16113090515137 26.69976997375488 9.022109985351562 24.33882904052734 6.661169052124023 C 21.97789001464844 4.300230026245117 18.83887100219727 3 15.5 3 M 15.5 0 C 24.06040954589844 0 31 6.939590454101562 31 15.5 C 31 24.06040954589844 24.06040954589844 31 15.5 31 C 6.939590454101562 31 0 24.06040954589844 0 15.5 C 0 6.939590454101562 6.939590454101562 0 15.5 0 Z" stroke="none" fill="#7125c8"/>
    </g>
    <g id="Trazado_705015" data-name="Trazado 705015" transform="translate(766.773 11029.023)" fill="#fff">
      <path d="M 15.5 29.5 C 11.76047039031982 29.5 8.244759559631348 28.04375076293945 5.600510120391846 25.39949035644531 C 2.956249952316284 22.75523948669434 1.5 19.23953056335449 1.5 15.5 C 1.5 11.76047039031982 2.956249952316284 8.244759559631348 5.600510120391846 5.600510120391846 C 8.244759559631348 2.956249952316284 11.76047039031982 1.5 15.5 1.5 C 19.23953056335449 1.5 22.75523948669434 2.956249952316284 25.39949035644531 5.600510120391846 C 28.04375076293945 8.244759559631348 29.5 11.76047039031982 29.5 15.5 C 29.5 19.23953056335449 28.04375076293945 22.75523948669434 25.39949035644531 25.39949035644531 C 22.75523948669434 28.04375076293945 19.23953056335449 29.5 15.5 29.5 Z" stroke="none"/>
      <path d="M 15.5 3 C 12.16113090515137 3 9.022109985351562 4.300230026245117 6.661169052124023 6.661169052124023 C 4.300230026245117 9.022109985351562 3 12.16113090515137 3 15.5 C 3 18.83887100219727 4.300230026245117 21.97789001464844 6.661169052124023 24.33882904052734 C 9.022109985351562 26.69976997375488 12.16113090515137 28 15.5 28 C 18.83887100219727 28 21.97789001464844 26.69976997375488 24.33882904052734 24.33882904052734 C 26.69976997375488 21.97789001464844 28 18.83887100219727 28 15.5 C 28 12.16113090515137 26.69976997375488 9.022109985351562 24.33882904052734 6.661169052124023 C 21.97789001464844 4.300230026245117 18.83887100219727 3 15.5 3 M 15.5 0 C 24.06040954589844 0 31 6.939590454101562 31 15.5 C 31 24.06040954589844 24.06040954589844 31 15.5 31 C 6.939590454101562 31 0 24.06040954589844 0 15.5 C 0 6.939590454101562 6.939590454101562 0 15.5 0 Z" stroke="none" fill="#7125c8"/>
    </g>
    <g id="Trazado_705016" data-name="Trazado 705016" transform="translate(1017.618 11039)" fill="#fff">
      <path d="M 15 29.5 C 11.40334033966064 29.5 8.019319534301758 28.04997062683105 5.47130012512207 25.41702079772949 C 2.910370111465454 22.77071952819824 1.5 19.2487907409668 1.5 15.5 C 1.5 11.75121021270752 2.910370111465454 8.229280471801758 5.47130012512207 5.582980155944824 C 8.019319534301758 2.950030088424683 11.40334033966064 1.5 15 1.5 C 18.59666061401367 1.5 21.98068046569824 2.950030088424683 24.52869987487793 5.582980155944824 C 27.08963012695312 8.229280471801758 28.5 11.75121021270752 28.5 15.5 C 28.5 19.2487907409668 27.08963012695312 22.77071952819824 24.52869987487793 25.41702079772949 C 21.98068046569824 28.04997062683105 18.59666061401367 29.5 15 29.5 Z" stroke="none"/>
      <path d="M 15 3 C 11.81332015991211 3 8.812110900878906 4.28778076171875 6.549209594726562 6.626110076904297 C 4.260469436645508 8.991140365600586 3 12.14262008666992 3 15.5 C 3 18.85737991333008 4.260469436645508 22.00885963439941 6.549209594726562 24.3738899230957 C 8.812110900878906 26.71221923828125 11.81332015991211 28 15 28 C 18.18667984008789 28 21.18788909912109 26.71221923828125 23.45079040527344 24.3738899230957 C 25.73953056335449 22.00885963439941 27 18.85737991333008 27 15.5 C 27 12.14262008666992 25.73953056335449 8.991140365600586 23.45079040527344 6.626110076904297 C 21.18788909912109 4.28778076171875 18.18667984008789 3 15 3 M 15 0 C 23.28426933288574 0 30 6.939590454101562 30 15.5 C 30 24.06040954589844 23.28426933288574 31 15 31 C 6.715730667114258 31 0 24.06040954589844 0 15.5 C 0 6.939590454101562 6.715730667114258 0 15 0 Z" stroke="none" fill="#7125c8"/>
    </g>
    <g id="Trazado_705017" data-name="Trazado 705017" transform="translate(427.615 11177.023)" fill="#fff">
      <path d="M 15.5 28.5 C 11.75121021270752 28.5 8.229280471801758 27.08963012695312 5.582980155944824 24.52869987487793 C 2.950030088424683 21.98068046569824 1.5 18.59666061401367 1.5 15 C 1.5 11.40334033966064 2.950030088424683 8.019319534301758 5.582980155944824 5.47130012512207 C 8.229280471801758 2.910370111465454 11.75121021270752 1.5 15.5 1.5 C 19.2487907409668 1.5 22.77071952819824 2.910370111465454 25.41702079772949 5.47130012512207 C 28.04997062683105 8.019319534301758 29.5 11.40334033966064 29.5 15 C 29.5 18.59666061401367 28.04997062683105 21.98068046569824 25.41702079772949 24.52869987487793 C 22.77071952819824 27.08963012695312 19.2487907409668 28.5 15.5 28.5 Z" stroke="none"/>
      <path d="M 15.5 3 C 12.14262008666992 3 8.991140365600586 4.260469436645508 6.626110076904297 6.549209594726562 C 4.28778076171875 8.812110900878906 3 11.81332015991211 3 15 C 3 18.18667984008789 4.28778076171875 21.18788909912109 6.626110076904297 23.45079040527344 C 8.991140365600586 25.73953056335449 12.14262008666992 27 15.5 27 C 18.85737991333008 27 22.00885963439941 25.73953056335449 24.3738899230957 23.45079040527344 C 26.71221923828125 21.18788909912109 28 18.18667984008789 28 15 C 28 11.81332015991211 26.71221923828125 8.812110900878906 24.3738899230957 6.549209594726562 C 22.00885963439941 4.260469436645508 18.85737991333008 3 15.5 3 M 15.5 0 C 24.06040954589844 0 31 6.715730667114258 31 15 C 31 23.28426933288574 24.06040954589844 30 15.5 30 C 6.939590454101562 30 0 23.28426933288574 0 15 C 0 6.715730667114258 6.939590454101562 0 15.5 0 Z" stroke="none" fill="#7125c8"/>
    </g>
    <g id="Trazado_705018" data-name="Trazado 705018" transform="translate(766.773 11177.023)" fill="#fff">
      <path d="M 15.5 28.5 C 11.75121021270752 28.5 8.229280471801758 27.08963012695312 5.582980155944824 24.52869987487793 C 2.950030088424683 21.98068046569824 1.5 18.59666061401367 1.5 15 C 1.5 11.40334033966064 2.950030088424683 8.019319534301758 5.582980155944824 5.47130012512207 C 8.229280471801758 2.910370111465454 11.75121021270752 1.5 15.5 1.5 C 19.2487907409668 1.5 22.77071952819824 2.910370111465454 25.41702079772949 5.47130012512207 C 28.04997062683105 8.019319534301758 29.5 11.40334033966064 29.5 15 C 29.5 18.59666061401367 28.04997062683105 21.98068046569824 25.41702079772949 24.52869987487793 C 22.77071952819824 27.08963012695312 19.2487907409668 28.5 15.5 28.5 Z" stroke="none"/>
      <path d="M 15.5 3 C 12.14262008666992 3 8.991140365600586 4.260469436645508 6.626110076904297 6.549209594726562 C 4.28778076171875 8.812110900878906 3 11.81332015991211 3 15 C 3 18.18667984008789 4.28778076171875 21.18788909912109 6.626110076904297 23.45079040527344 C 8.991140365600586 25.73953056335449 12.14262008666992 27 15.5 27 C 18.85737991333008 27 22.00885963439941 25.73953056335449 24.3738899230957 23.45079040527344 C 26.71221923828125 21.18788909912109 28 18.18667984008789 28 15 C 28 11.81332015991211 26.71221923828125 8.812110900878906 24.3738899230957 6.549209594726562 C 22.00885963439941 4.260469436645508 18.85737991333008 3 15.5 3 M 15.5 0 C 24.06040954589844 0 31 6.715730667114258 31 15 C 31 23.28426933288574 24.06040954589844 30 15.5 30 C 6.939590454101562 30 0 23.28426933288574 0 15 C 0 6.715730667114258 6.939590454101562 0 15.5 0 Z" stroke="none" fill="#7125c8"/>
    </g>
    <g id="Trazado_705019" data-name="Trazado 705019" transform="translate(1017.618 11187)" fill="#fff">
      <path d="M 15 28.5 C 11.39402008056641 28.5 8.003870010375977 27.09575080871582 5.454060077667236 24.54594039916992 C 2.904249906539917 21.99612998962402 1.5 18.60597991943359 1.5 15 C 1.5 11.39402008056641 2.904249906539917 8.003870010375977 5.454060077667236 5.454060077667236 C 8.003870010375977 2.904249906539917 11.39402008056641 1.5 15 1.5 C 18.60597991943359 1.5 21.99612998962402 2.904249906539917 24.54594039916992 5.454060077667236 C 27.09575080871582 8.003870010375977 28.5 11.39402008056641 28.5 15 C 28.5 18.60597991943359 27.09575080871582 21.99612998962402 24.54594039916992 24.54594039916992 C 21.99612998962402 27.09575080871582 18.60597991943359 28.5 15 28.5 Z" stroke="none"/>
      <path d="M 15 3 C 11.79467964172363 3 8.781219482421875 4.248220443725586 6.514720916748047 6.514720916748047 C 4.248220443725586 8.781219482421875 3 11.79467964172363 3 15 C 3 18.20532035827637 4.248220443725586 21.21878051757812 6.514720916748047 23.48527908325195 C 8.781219482421875 25.75177955627441 11.79467964172363 27 15 27 C 18.20532035827637 27 21.21878051757812 25.75177955627441 23.48527908325195 23.48527908325195 C 25.75177955627441 21.21878051757812 27 18.20532035827637 27 15 C 27 11.79467964172363 25.75177955627441 8.781219482421875 23.48527908325195 6.514720916748047 C 21.21878051757812 4.248220443725586 18.20532035827637 3 15 3 M 15 0 C 23.28426933288574 0 30 6.715730667114258 30 15 C 30 23.28426933288574 23.28426933288574 30 15 30 C 6.715730667114258 30 0 23.28426933288574 0 15 C 0 6.715730667114258 6.715730667114258 0 15 0 Z" stroke="none" fill="#7125c8"/>
    </g>
    <g id="Trazado_705020" data-name="Trazado 705020" transform="translate(491.965 11029.023)" fill="#fff">
      <path d="M 51.5 27.5 L 1.5 27.5 L 1.5 1.5 L 51.5 1.5 L 51.5 27.5 Z" stroke="none"/>
      <path d="M 3 3 L 3 26 L 50 26 L 50 3 L 3 3 M 0 0 L 53 0 L 53 29 L 0 29 L 0 0 Z" stroke="none" fill="#7125c8"/>
    </g>
    <g id="Trazado_705021" data-name="Trazado 705021" transform="translate(831.123 11029.023)" fill="#fff">
      <path d="M 51.5 27.5 L 1.5 27.5 L 1.5 1.5 L 51.5 1.5 L 51.5 27.5 Z" stroke="none"/>
      <path d="M 3 3 L 3 26 L 50 26 L 50 3 L 3 3 M 0 0 L 53 0 L 53 29 L 0 29 L 0 0 Z" stroke="none" fill="#7125c8"/>
    </g>
    <g id="Trazado_705022" data-name="Trazado 705022" transform="translate(590.482 11148.031) rotate(-90)" fill="#fff">
      <path d="M 54.62891387939453 27.78469848632812 L 1.500005006790161 27.78469848632812 L 1.500005006790161 1.499998331069946 L 54.62891387939453 1.499998331069946 L 54.62891387939453 27.78469848632812 Z" stroke="none"/>
      <path d="M 2.999996185302734 2.999998092651367 L 2.999996185302734 26.28469848632812 L 53.12890625 26.28469848632812 L 53.12890625 2.999998092651367 L 2.999996185302734 2.999998092651367 M -3.814697265625e-06 -1.9073486328125e-06 L 56.12890625 -1.9073486328125e-06 L 56.12890625 29.28469848632812 L -3.814697265625e-06 29.28469848632812 L -3.814697265625e-06 -1.9073486328125e-06 Z" stroke="none" fill="#7125c8"/>
    </g>
    <g id="Trazado_705023" data-name="Trazado 705023" transform="translate(929.64 11148.031) rotate(-90)" fill="#fff">
      <path d="M 54.62891387939453 27.78469848632812 L 1.500005006790161 27.78469848632812 L 1.500005006790161 1.499998331069946 L 54.62891387939453 1.499998331069946 L 54.62891387939453 27.78469848632812 Z" stroke="none"/>
      <path d="M 2.999996185302734 2.999998092651367 L 2.999996185302734 26.28469848632812 L 53.12890625 26.28469848632812 L 53.12890625 2.999998092651367 L 2.999996185302734 2.999998092651367 M -3.814697265625e-06 -1.9073486328125e-06 L 56.12890625 -1.9073486328125e-06 L 56.12890625 29.28469848632812 L -3.814697265625e-06 29.28469848632812 L -3.814697265625e-06 -1.9073486328125e-06 Z" stroke="none" fill="#7125c8"/>
    </g>
    <g id="Trazado_705024" data-name="Trazado 705024" transform="translate(648.686 11148.031) rotate(-90)" fill="#fff">
      <path d="M 54.62891387939453 27.78469848632812 L 1.500005006790161 27.78469848632812 L 1.500005006790161 1.499998331069946 L 54.62891387939453 1.499998331069946 L 54.62891387939453 27.78469848632812 Z" stroke="none"/>
      <path d="M 2.999996185302734 2.999998092651367 L 2.999996185302734 26.28469848632812 L 53.12890625 26.28469848632812 L 53.12890625 2.999998092651367 L 2.999996185302734 2.999998092651367 M -3.814697265625e-06 -1.9073486328125e-06 L 56.12890625 -1.9073486328125e-06 L 56.12890625 29.28469848632812 L -3.814697265625e-06 29.28469848632812 L -3.814697265625e-06 -1.9073486328125e-06 Z" stroke="none" fill="#7125c8"/>
    </g>
    <g id="Trazado_705025" data-name="Trazado 705025" transform="translate(1106.1 11158.008) rotate(-90)" fill="#fff">
      <path d="M 54.62891387939453 27.78469848632812 L 1.500005006790161 27.78469848632812 L 1.500005006790161 1.499998331069946 L 54.62891387939453 1.499998331069946 L 54.62891387939453 27.78469848632812 Z" stroke="none"/>
      <path d="M 2.999996185302734 2.999998092651367 L 2.999996185302734 26.28469848632812 L 53.12890625 26.28469848632812 L 53.12890625 2.999998092651367 L 2.999996185302734 2.999998092651367 M -3.814697265625e-06 -1.9073486328125e-06 L 56.12890625 -1.9073486328125e-06 L 56.12890625 29.28469848632812 L -3.814697265625e-06 29.28469848632812 L -3.814697265625e-06 -1.9073486328125e-06 Z" stroke="none" fill="#7125c8"/>
    </g>
    <g id="Trazado_705026" data-name="Trazado 705026" transform="translate(491.965 11177.023)" fill="#fff">
      <path d="M 51.5 27.5 L 1.5 27.5 L 1.5 1.5 L 51.5 1.5 L 51.5 27.5 Z" stroke="none"/>
      <path d="M 3 3 L 3 26 L 50 26 L 50 3 L 3 3 M 0 0 L 53 0 L 53 29 L 0 29 L 0 0 Z" stroke="none" fill="#7125c8"/>
    </g>
    <g id="Trazado_705027" data-name="Trazado 705027" transform="translate(831.123 11177.023)" fill="#fff">
      <path d="M 51.5 27.5 L 1.5 27.5 L 1.5 1.5 L 51.5 1.5 L 51.5 27.5 Z" stroke="none"/>
      <path d="M 3 3 L 3 26 L 50 26 L 50 3 L 3 3 M 0 0 L 53 0 L 53 29 L 0 29 L 0 0 Z" stroke="none" fill="#7125c8"/>
    </g>
    <path id="Trazado_704879" data-name="Trazado 704879" d="M2875-2443.5h33.35" transform="translate(-2416.385 13487.908)" fill="none" stroke="#7125c8" stroke-width="3"/>
    <path id="Trazado_704901" data-name="Trazado 704901" d="M2875-2443.5h33.35" transform="translate(-2077.227 13487.908)" fill="none" stroke="#7125c8" stroke-width="3"/>
    <path id="Trazado_704880" data-name="Trazado 704880" d="M2875-2443.5h33.35" transform="translate(-2416.385 13634.896)" fill="none" stroke="#7125c8" stroke-width="3"/>
    <path id="Trazado_704898" data-name="Trazado 704898" d="M2875-2443.5h33.35" transform="translate(-2077.228 13634.896)" fill="none" stroke="#7125c8" stroke-width="3"/>
    <path id="Trazado_704881" data-name="Trazado 704881" d="M2967-2444h63.958v49.559" transform="translate(-2422.035 13487.846)" fill="none" stroke="#7125c8" stroke-width="3"/>
    <path id="Trazado_704899" data-name="Trazado 704899" d="M2967-2444h63.958v49.559" transform="translate(-2082.877 13487.846)" fill="none" stroke="#7125c8" stroke-width="3"/>
    <path id="Trazado_704892" data-name="Trazado 704892" d="M2967-2444h74.713v49.559" transform="translate(-2378.385 13487.846)" fill="none" stroke="#7125c8" stroke-width="3"/>
    <path id="Trazado_704886" data-name="Trazado 704886" d="M2967-2444h71.9v49.559" transform="translate(-1919.47 13497.822)" fill="none" stroke="#7125c8" stroke-width="3"/>
    <path id="Trazado_704882" data-name="Trazado 704882" d="M2967-2307.51h65.311V-2352" transform="translate(-2422.035 13499.469)" fill="none" stroke="#7125c8" stroke-width="3"/>
    <path id="Trazado_704895" data-name="Trazado 704895" d="M2967-2307.51h65.311V-2352" transform="translate(-2082.877 13499.469)" fill="none" stroke="#7125c8" stroke-width="3"/>
    <path id="Trazado_704893" data-name="Trazado 704893" d="M2967-2307.51h76.215V-2352" transform="translate(-2378.385 13499.469)" fill="none" stroke="#7125c8" stroke-width="3"/>
    <path id="Trazado_704884" data-name="Trazado 704884" d="M2967-2307.51h73.4V-2352" transform="translate(-1919.47 13509.445)" fill="none" stroke="#7125c8" stroke-width="3"/>
    <path id="Trazado_705028" data-name="Trazado 705028" d="M7.9-2.49H3.536L2.706,0H.058l4.5-12.086H6.865L11.389,0H8.741ZM4.208-4.507H7.23L5.711-9.031Z" transform="translate(411.547 11050.023)" fill="#12263f"/>
    <path id="Trazado_705029" data-name="Trazado 705029" d="M7.9-2.49H3.536L2.706,0H.058l4.5-12.086H6.865L11.389,0H8.741ZM4.208-4.507H7.23L5.711-9.031Z" transform="translate(750.705 11050.023)" fill="#12263f"/>
    <path id="Trazado_705030" data-name="Trazado 705030" d="M7.9-2.49H3.536L2.706,0H.058l4.5-12.086H6.865L11.389,0H8.741ZM4.208-4.507H7.23L5.711-9.031Z" transform="translate(1004.413 11060)" fill="#12263f"/>
    <path id="Trazado_705031" data-name="Trazado 705031" d="M5.553-4.424H3.569V0H1.079V-12.086H5.57a5.076,5.076,0,0,1,3.3.955,3.3,3.3,0,0,1,1.162,2.7A3.718,3.718,0,0,1,9.5-6.371,3.651,3.651,0,0,1,7.877-5.055L10.492-.116V0H7.819ZM3.569-6.441H5.578a2.057,2.057,0,0,0,1.453-.477,1.706,1.706,0,0,0,.515-1.316A1.826,1.826,0,0,0,7.06-9.579a2.018,2.018,0,0,0-1.49-.49h-2ZM14.727,6h-1.4V.606l-1.67.518V-.014l2.92-1.046h.15Z" transform="translate(506.717 11076.023)" fill="#12263f"/>
    <path id="Trazado_705032" data-name="Trazado 705032" d="M5.553-4.424H3.569V0H1.079V-12.086H5.57a5.076,5.076,0,0,1,3.3.955,3.3,3.3,0,0,1,1.162,2.7A3.718,3.718,0,0,1,9.5-6.371,3.651,3.651,0,0,1,7.877-5.055L10.492-.116V0H7.819ZM3.569-6.441H5.578a2.057,2.057,0,0,0,1.453-.477,1.706,1.706,0,0,0,.515-1.316A1.826,1.826,0,0,0,7.06-9.579a2.018,2.018,0,0,0-1.49-.49h-2ZM14.727,6h-1.4V.606l-1.67.518V-.014l2.92-1.046h.15Z" transform="translate(845.875 11076.023)" fill="#12263f"/>
    <path id="Trazado_705033" data-name="Trazado 705033" d="M5.553-4.424H3.569V0H1.079V-12.086H5.57a5.076,5.076,0,0,1,3.3.955,3.3,3.3,0,0,1,1.162,2.7A3.718,3.718,0,0,1,9.5-6.371,3.651,3.651,0,0,1,7.877-5.055L10.492-.116V0H7.819ZM3.569-6.441H5.578a2.057,2.057,0,0,0,1.453-.477,1.706,1.706,0,0,0,.515-1.316A1.826,1.826,0,0,0,7.06-9.579a2.018,2.018,0,0,0-1.49-.49h-2Zm9.183,8.3H13.5a1.051,1.051,0,0,0,.789-.266.976.976,0,0,0,.257-.707.863.863,0,0,0-.254-.663.985.985,0,0,0-.7-.237,1.033,1.033,0,0,0-.673.22.7.7,0,0,0-.271.574h-1.4a1.721,1.721,0,0,1,.3-.99A1.984,1.984,0,0,1,12.377-.9a2.779,2.779,0,0,1,1.179-.247,2.636,2.636,0,0,1,1.753.535A1.825,1.825,0,0,1,15.943.863a1.483,1.483,0,0,1-.3.891,1.919,1.919,0,0,1-.775.625,1.752,1.752,0,0,1,.888.639,1.734,1.734,0,0,1,.293,1.007,1.856,1.856,0,0,1-.685,1.506,2.755,2.755,0,0,1-1.813.566A2.612,2.612,0,0,1,11.83,5.54a1.818,1.818,0,0,1-.671-1.472h1.4a.811.811,0,0,0,.3.649A1.242,1.242,0,0,0,14.372,4.7a.911.911,0,0,0,.283-.7q0-1.056-1.162-1.056h-.741Z" transform="translate(571.006 11124.023)" fill="#12263f"/>
    <path id="Trazado_705034" data-name="Trazado 705034" d="M5.553-4.424H3.569V0H1.079V-12.086H5.57a5.076,5.076,0,0,1,3.3.955,3.3,3.3,0,0,1,1.162,2.7A3.718,3.718,0,0,1,9.5-6.371,3.651,3.651,0,0,1,7.877-5.055L10.492-.116V0H7.819ZM3.569-6.441H5.578a2.057,2.057,0,0,0,1.453-.477,1.706,1.706,0,0,0,.515-1.316A1.826,1.826,0,0,0,7.06-9.579a2.018,2.018,0,0,0-1.49-.49h-2ZM15.9.166a4.409,4.409,0,0,1-3.217-1.212,4.308,4.308,0,0,1-1.241-3.229v-.232a5.426,5.426,0,0,1,.523-2.42,3.838,3.838,0,0,1,1.482-1.644,4.159,4.159,0,0,1,2.187-.577,3.727,3.727,0,0,1,2.9,1.162A4.722,4.722,0,0,1,19.6-4.69v.979H13.879a2.229,2.229,0,0,0,.7,1.411,2.12,2.12,0,0,0,1.482.531,2.589,2.589,0,0,0,2.167-1l1.179,1.32A3.6,3.6,0,0,1,17.946-.261,4.793,4.793,0,0,1,15.9.166ZM15.63-7.213a1.5,1.5,0,0,0-1.158.484A2.5,2.5,0,0,0,13.9-5.346h3.337v-.192a1.786,1.786,0,0,0-.432-1.238A1.547,1.547,0,0,0,15.63-7.213Zm4.956,2.64a5.369,5.369,0,0,1,.942-3.345,3.08,3.08,0,0,1,2.586-1.229,2.758,2.758,0,0,1,2.3,1.1l.158-.938h2.108V3.453H26.272V-.772A2.765,2.765,0,0,1,24.1.166a3.057,3.057,0,0,1-2.557-1.245A5.632,5.632,0,0,1,20.586-4.574Zm2.4.17a3.522,3.522,0,0,0,.452,1.962,1.448,1.448,0,0,0,1.274.673,1.613,1.613,0,0,0,1.561-.881V-6.365a1.6,1.6,0,0,0-1.544-.848,1.466,1.466,0,0,0-1.287.673A3.889,3.889,0,0,0,22.985-4.4ZM33.52,6h-1.4V.606l-1.67.518V-.014l2.92-1.046h.15Z" transform="translate(891.602 11124.023)" fill="#12263f"/>
    <path id="Trazado_705035" data-name="Trazado 705035" d="M5.553-4.424H3.569V0H1.079V-12.086H5.57a5.076,5.076,0,0,1,3.3.955,3.3,3.3,0,0,1,1.162,2.7A3.718,3.718,0,0,1,9.5-6.371,3.651,3.651,0,0,1,7.877-5.055L10.492-.116V0H7.819ZM3.569-6.441H5.578a2.057,2.057,0,0,0,1.453-.477,1.706,1.706,0,0,0,.515-1.316A1.826,1.826,0,0,0,7.06-9.579a2.018,2.018,0,0,0-1.49-.49h-2Zm11.9,9.788h.8V4.475h-.8V6h-1.4V4.475H11.178l-.063-.881L14.054-1.05h1.414Zm-2.958,0h1.559V.858l-.092.16Z" transform="translate(630.579 11124.023)" fill="#12263f"/>
    <path id="Trazado_705036" data-name="Trazado 705036" d="M5.553-4.424H3.569V0H1.079V-12.086H5.57a5.076,5.076,0,0,1,3.3.955,3.3,3.3,0,0,1,1.162,2.7A3.718,3.718,0,0,1,9.5-6.371,3.651,3.651,0,0,1,7.877-5.055L10.492-.116V0H7.819ZM3.569-6.441H5.578a2.057,2.057,0,0,0,1.453-.477,1.706,1.706,0,0,0,.515-1.316A1.826,1.826,0,0,0,7.06-9.579a2.018,2.018,0,0,0-1.49-.49h-2ZM15.9.166a4.409,4.409,0,0,1-3.217-1.212,4.308,4.308,0,0,1-1.241-3.229v-.232a5.426,5.426,0,0,1,.523-2.42,3.838,3.838,0,0,1,1.482-1.644,4.159,4.159,0,0,1,2.187-.577,3.727,3.727,0,0,1,2.9,1.162A4.722,4.722,0,0,1,19.6-4.69v.979H13.879a2.229,2.229,0,0,0,.7,1.411,2.12,2.12,0,0,0,1.482.531,2.589,2.589,0,0,0,2.167-1l1.179,1.32A3.6,3.6,0,0,1,17.946-.261,4.793,4.793,0,0,1,15.9.166ZM15.63-7.213a1.5,1.5,0,0,0-1.158.484A2.5,2.5,0,0,0,13.9-5.346h3.337v-.192a1.786,1.786,0,0,0-.432-1.238A1.547,1.547,0,0,0,15.63-7.213Zm4.956,2.64a5.369,5.369,0,0,1,.942-3.345,3.08,3.08,0,0,1,2.586-1.229,2.758,2.758,0,0,1,2.3,1.1l.158-.938h2.108V3.453H26.272V-.772A2.765,2.765,0,0,1,24.1.166a3.057,3.057,0,0,1-2.557-1.245A5.632,5.632,0,0,1,20.586-4.574Zm2.4.17a3.522,3.522,0,0,0,.452,1.962,1.448,1.448,0,0,0,1.274.673,1.613,1.613,0,0,0,1.561-.881V-6.365a1.6,1.6,0,0,0-1.544-.848,1.466,1.466,0,0,0-1.287.673A3.889,3.889,0,0,0,22.985-4.4Z" transform="translate(1140.453 11134.023)" fill="#12263f"/>
    <path id="Trazado_705037" data-name="Trazado 705037" d="M5.553-4.424H3.569V0H1.079V-12.086H5.57a5.076,5.076,0,0,1,3.3.955,3.3,3.3,0,0,1,1.162,2.7A3.718,3.718,0,0,1,9.5-6.371,3.651,3.651,0,0,1,7.877-5.055L10.492-.116V0H7.819ZM3.569-6.441H5.578a2.057,2.057,0,0,0,1.453-.477,1.706,1.706,0,0,0,.515-1.316A1.826,1.826,0,0,0,7.06-9.579a2.018,2.018,0,0,0-1.49-.49h-2Zm9.183,8.3H13.5a1.051,1.051,0,0,0,.789-.266.976.976,0,0,0,.257-.707.863.863,0,0,0-.254-.663.985.985,0,0,0-.7-.237,1.033,1.033,0,0,0-.673.22.7.7,0,0,0-.271.574h-1.4a1.721,1.721,0,0,1,.3-.99A1.984,1.984,0,0,1,12.377-.9a2.779,2.779,0,0,1,1.179-.247,2.636,2.636,0,0,1,1.753.535A1.825,1.825,0,0,1,15.943.863a1.483,1.483,0,0,1-.3.891,1.919,1.919,0,0,1-.775.625,1.752,1.752,0,0,1,.888.639,1.734,1.734,0,0,1,.293,1.007,1.856,1.856,0,0,1-.685,1.506,2.755,2.755,0,0,1-1.813.566A2.612,2.612,0,0,1,11.83,5.54a1.818,1.818,0,0,1-.671-1.472h1.4a.811.811,0,0,0,.3.649A1.242,1.242,0,0,0,14.372,4.7a.911.911,0,0,0,.283-.7q0-1.056-1.162-1.056h-.741Z" transform="translate(509.294 11167.023)" fill="#12263f"/>
    <path id="Trazado_705038" data-name="Trazado 705038" d="M5.553-4.424H3.569V0H1.079V-12.086H5.57a5.076,5.076,0,0,1,3.3.955,3.3,3.3,0,0,1,1.162,2.7A3.718,3.718,0,0,1,9.5-6.371,3.651,3.651,0,0,1,7.877-5.055L10.492-.116V0H7.819ZM3.569-6.441H5.578a2.057,2.057,0,0,0,1.453-.477,1.706,1.706,0,0,0,.515-1.316A1.826,1.826,0,0,0,7.06-9.579a2.018,2.018,0,0,0-1.49-.49h-2Zm9.183,8.3H13.5a1.051,1.051,0,0,0,.789-.266.976.976,0,0,0,.257-.707.863.863,0,0,0-.254-.663.985.985,0,0,0-.7-.237,1.033,1.033,0,0,0-.673.22.7.7,0,0,0-.271.574h-1.4a1.721,1.721,0,0,1,.3-.99A1.984,1.984,0,0,1,12.377-.9a2.779,2.779,0,0,1,1.179-.247,2.636,2.636,0,0,1,1.753.535A1.825,1.825,0,0,1,15.943.863a1.483,1.483,0,0,1-.3.891,1.919,1.919,0,0,1-.775.625,1.752,1.752,0,0,1,.888.639,1.734,1.734,0,0,1,.293,1.007,1.856,1.856,0,0,1-.685,1.506,2.755,2.755,0,0,1-1.813.566A2.612,2.612,0,0,1,11.83,5.54a1.818,1.818,0,0,1-.671-1.472h1.4a.811.811,0,0,0,.3.649A1.242,1.242,0,0,0,14.372,4.7a.911.911,0,0,0,.283-.7q0-1.056-1.162-1.056h-.741Z" transform="translate(848.452 11167.023)" fill="#12263f"/>
    <path id="Trazado_705039" data-name="Trazado 705039" d="M1.079,0V-12.086H5.313a5.559,5.559,0,0,1,3.337.843A2.881,2.881,0,0,1,9.787-8.774,2.731,2.731,0,0,1,9.33-7.209a2.637,2.637,0,0,1-1.27.992,2.551,2.551,0,0,1,1.465.938,2.773,2.773,0,0,1,.535,1.727A3.19,3.19,0,0,1,8.948-.913,5.007,5.007,0,0,1,5.777,0Zm2.49-5.263V-2H5.7A2.059,2.059,0,0,0,7.076-2.42,1.437,1.437,0,0,0,7.57-3.578,1.518,1.518,0,0,0,5.852-5.263Zm0-1.76H5.412Q7.3-7.056,7.3-8.525a1.388,1.388,0,0,0-.477-1.183,2.51,2.51,0,0,0-1.507-.361H3.569Z" transform="translate(411.547 11197.023)" fill="#12263f"/>
    <path id="Trazado_705040" data-name="Trazado 705040" d="M1.079,0V-12.086H5.313a5.559,5.559,0,0,1,3.337.843A2.881,2.881,0,0,1,9.787-8.774,2.731,2.731,0,0,1,9.33-7.209a2.637,2.637,0,0,1-1.27.992,2.551,2.551,0,0,1,1.465.938,2.773,2.773,0,0,1,.535,1.727A3.19,3.19,0,0,1,8.948-.913,5.007,5.007,0,0,1,5.777,0Zm2.49-5.263V-2H5.7A2.059,2.059,0,0,0,7.076-2.42,1.437,1.437,0,0,0,7.57-3.578,1.518,1.518,0,0,0,5.852-5.263Zm0-1.76H5.412Q7.3-7.056,7.3-8.525a1.388,1.388,0,0,0-.477-1.183,2.51,2.51,0,0,0-1.507-.361H3.569Z" transform="translate(750.705 11197.023)" fill="#12263f"/>
    <path id="Trazado_705041" data-name="Trazado 705041" d="M1.079,0V-12.086H5.313a5.559,5.559,0,0,1,3.337.843A2.881,2.881,0,0,1,9.787-8.774,2.731,2.731,0,0,1,9.33-7.209a2.637,2.637,0,0,1-1.27.992,2.551,2.551,0,0,1,1.465.938,2.773,2.773,0,0,1,.535,1.727A3.19,3.19,0,0,1,8.948-.913,5.007,5.007,0,0,1,5.777,0Zm2.49-5.263V-2H5.7A2.059,2.059,0,0,0,7.076-2.42,1.437,1.437,0,0,0,7.57-3.578,1.518,1.518,0,0,0,5.852-5.263Zm0-1.76H5.412Q7.3-7.056,7.3-8.525a1.388,1.388,0,0,0-.477-1.183,2.51,2.51,0,0,0-1.507-.361H3.569Z" transform="translate(1004.413 11207)" fill="#12263f"/>
    <g id="Grupo_974107" data-name="Grupo 974107" transform="translate(-254.699 -468.643)">
      <line id="Lnea_455" data-name="Lnea 455" x2="26.234" transform="translate(1220 11577.654)" fill="none" stroke="#707070" stroke-width="2"/>
      <line id="Lnea_456" data-name="Lnea 456" x2="26.234" transform="translate(1220 11592.297)" fill="none" stroke="#707070" stroke-width="2"/>
      <path id="Trazado_704883" data-name="Trazado 704883" d="M3110.667-2387l12.39,12.906s-9.292,9.507-12.39,11.873" transform="translate(-1870.322 13959.023)" fill="none" stroke="#707070" stroke-width="2"/>
    </g>
    <g id="Grupo_974108" data-name="Grupo 974108" transform="translate(-496.53 -468.643)">
      <line id="Lnea_455-2" data-name="Lnea 455" x2="26.234" transform="translate(1220 11577.654)" fill="none" stroke="#707070" stroke-width="2"/>
      <line id="Lnea_456-2" data-name="Lnea 456" x2="26.234" transform="translate(1220 11592.297)" fill="none" stroke="#707070" stroke-width="2"/>
      <path id="Trazado_704883-2" data-name="Trazado 704883" d="M3110.667-2387l12.39,12.906s-9.292,9.507-12.39,11.873" transform="translate(-1870.322 13959.023)" fill="none" stroke="#707070" stroke-width="2"/>
    </g>
    <g id="Trazado_704894" data-name="Trazado 704894" transform="translate(540.205 11075.023)" fill="none">
      <path d="M87,0c48.049,0,87,19.252,87,43S135.049,86,87,86,0,66.748,0,43,38.951,0,87,0Z" stroke="none"/>
      <path d="M 87 1 C 75.32368469238281 1 63.99893188476562 2.129798889160156 53.34029388427734 4.358001708984375 C 43.06300354003906 6.506477355957031 33.83909606933594 9.5792236328125 25.92478942871094 13.49088287353516 C 22.03932189941406 15.41129302978516 18.51466369628906 17.5223388671875 15.44868469238281 19.76536560058594 C 12.3687744140625 22.01861190795898 9.726959228515625 24.42329406738281 7.596664428710938 26.91263580322266 C 3.219436645507812 32.02763748168945 1 37.44020462036133 1 43 C 1 48.55979537963867 3.219436645507812 53.97236251831055 7.596664428710938 59.08736419677734 C 9.726959228515625 61.57670593261719 12.3687744140625 63.98138427734375 15.44868469238281 66.23463439941406 C 18.51466369628906 68.4776611328125 22.03932189941406 70.58870697021484 25.92478942871094 72.50910949707031 C 33.83909606933594 76.4207763671875 43.06300354003906 79.49352264404297 53.34029388427734 81.64199829101562 C 63.99893188476562 83.87020111083984 75.32368469238281 85 87 85 C 98.67631530761719 85 110.0010681152344 83.87020111083984 120.6597061157227 81.64199829101562 C 130.9369964599609 79.49352264404297 140.1609039306641 76.4207763671875 148.0752105712891 72.50910949707031 C 151.9606781005859 70.58870697021484 155.4853363037109 68.4776611328125 158.5513153076172 66.23463439941406 C 161.6312255859375 63.98138427734375 164.2730407714844 61.57670593261719 166.4033355712891 59.08736419677734 C 170.7805633544922 53.97236251831055 173 48.55979537963867 173 43 C 173 37.44020462036133 170.7805633544922 32.02763748168945 166.4033355712891 26.91263580322266 C 164.2730407714844 24.42329406738281 161.6312255859375 22.01861190795898 158.5513153076172 19.76536560058594 C 155.4853363037109 17.5223388671875 151.9606781005859 15.41129302978516 148.0752105712891 13.49088287353516 C 140.1609039306641 9.5792236328125 130.9369964599609 6.506477355957031 120.6597061157227 4.358001708984375 C 110.0010681152344 2.129798889160156 98.67631530761719 1 87 1 M 87 0 C 135.0487670898438 0 174 19.25174713134766 174 43 C 174 66.74824523925781 135.0487670898438 86 87 86 C 38.95123291015625 86 0 66.74824523925781 0 43 C 0 19.25174713134766 38.95123291015625 0 87 0 Z" stroke="none" fill="#25ffff"/>
    </g>
    <g id="Trazado_704897" data-name="Trazado 704897" transform="translate(820.036 11029.023)" fill="none">
      <path d="M69.445,0c38.353,0,69.445,40.737,69.445,90.988S107.8,181.977,69.445,181.977,0,141.24,0,90.988,31.091,0,69.445,0Z" stroke="none"/>
      <path d="M 69.444580078125 1 C 64.82027435302734 1 60.19863128662109 1.6104736328125 55.70803070068359 2.814453125 C 51.32791137695312 3.988800048828125 47.01810455322266 5.74188232421875 42.89833831787109 8.024978637695312 C 38.84712982177734 10.27006530761719 34.93824768066406 13.05021667480469 31.2802734375 16.28816223144531 C 27.65148162841797 19.50025939941406 24.23802947998047 23.19056701660156 21.13477325439453 27.25656127929688 C 18.02774810791016 31.32746887207031 15.20632171630859 35.80816650390625 12.74884033203125 40.57415771484375 C 10.26570129394531 45.38995361328125 8.132644653320312 50.53916931152344 6.408935546875 55.87875366210938 C 2.819839477539062 66.996826171875 1.000015258789062 78.80940246582031 1.000015258789062 90.98828125 C 1.000015258789062 103.1671829223633 2.819839477539062 114.979736328125 6.408935546875 126.0978240966797 C 8.132644653320312 131.4374237060547 10.26570129394531 136.5866088867188 12.74884033203125 141.4024200439453 C 15.20632171630859 146.1684265136719 18.02774810791016 150.6490936279297 21.13477325439453 154.7200164794922 C 24.23802947998047 158.7859954833984 27.65148162841797 162.4763031005859 31.2802734375 165.6884002685547 C 34.93824768066406 168.9263458251953 38.84712982177734 171.7064971923828 42.89833831787109 173.9515838623047 C 47.01810455322266 176.2346801757812 51.32791137695312 177.9877624511719 55.70803070068359 179.162109375 C 60.19863128662109 180.3660888671875 64.82027435302734 180.9765625 69.444580078125 180.9765625 C 74.06888580322266 180.9765625 78.69053649902344 180.3660888671875 83.18110656738281 179.162109375 C 87.56124877929688 177.9877624511719 91.87105560302734 176.2346801757812 95.99081420898438 173.9515838623047 C 100.0420379638672 171.7064971923828 103.9509124755859 168.9263458251953 107.60888671875 165.6884002685547 C 111.2376708984375 162.4763031005859 114.6511077880859 158.7859954833984 117.7543869018555 154.7200164794922 C 120.8613891601562 150.6490936279297 123.6828460693359 146.1684265136719 126.1402969360352 141.4024047851562 C 128.6234436035156 136.5866088867188 130.7564849853516 131.4374237060547 132.4801940917969 126.0978240966797 C 136.0693206787109 114.979736328125 137.8891448974609 103.1671829223633 137.8891448974609 90.98828125 C 137.8891448974609 78.80940246582031 136.0693206787109 66.996826171875 132.4801940917969 55.87875366210938 C 130.7564849853516 50.53916931152344 128.6234436035156 45.38995361328125 126.1402969360352 40.57415771484375 C 123.6828460693359 35.80816650390625 120.8613891601562 31.32746887207031 117.7543869018555 27.25656127929688 C 114.6511077880859 23.19056701660156 111.2376708984375 19.50025939941406 107.60888671875 16.28816223144531 C 103.9509124755859 13.05021667480469 100.0420379638672 10.27006530761719 95.99081420898438 8.024978637695312 C 91.87105560302734 5.74188232421875 87.56124877929688 3.988800048828125 83.18110656738281 2.814453125 C 78.69053649902344 1.6104736328125 74.06888580322266 1 69.444580078125 1 M 69.444580078125 0 C 107.7977447509766 0 138.8891448974609 40.73684692382812 138.8891448974609 90.98828125 C 138.8891448974609 141.2397308349609 107.7977447509766 181.9765625 69.444580078125 181.9765625 C 31.09139251708984 181.9765625 1.52587890625e-05 141.2397308349609 1.52587890625e-05 90.98828125 C 1.52587890625e-05 40.73684692382812 31.09139251708984 0 69.444580078125 0 Z" stroke="none" fill="#25ffff"/>
    </g>
  </g>
</svg>
