<svg xmlns="http://www.w3.org/2000/svg" width="732" height="426" viewBox="0 0 732 426">
  <g id="Grupo_72916" data-name="Grupo 72916" transform="translate(-470 -8149)">
    <g id="Rectángulo_32485" data-name="Rectángulo 32485" transform="translate(470 8149)" fill="#ad84ff" stroke="#707070" stroke-width="1" opacity="0.1">
      <rect width="732" height="426" stroke="none"/>
      <rect x="0.5" y="0.5" width="731" height="425" fill="none"/>
    </g>
    <g id="Grupo_72914" data-name="Grupo 72914" transform="translate(1119.06 4290.734)">
      <g id="Layer_1" data-name="Layer 1">
        <text id="C1" transform="translate(-564.433 4025.799)" fill="#1b2d5b" font-size="18" font-family="Roboto-Regular, Roboto"><tspan x="0" y="0">C1</tspan></text>
        <text id="C2" transform="translate(-443.091 4025.799)" fill="#1b2d5b" font-size="18" font-family="Roboto-Regular, Roboto"><tspan x="0" y="0">C2</tspan></text>
        <text id="C3" transform="translate(-291.812 4025.798)" fill="#1b2d5b" font-size="18" font-family="Roboto-Regular, Roboto"><tspan x="0" y="0">C3</tspan></text>
        <text id="CT" transform="translate(-69.521 4025.798)" fill="#25ffff" font-size="18" font-family="Roboto-Regular, Roboto"><tspan x="0" y="0">CT</tspan></text>
        <text id="C4" transform="translate(-158.661 4025.798)" fill="#1b2d5b" font-size="18" font-family="Roboto-Regular, Roboto"><tspan x="0" y="0">C4</tspan></text>
      </g>
      <g id="Layer_5" data-name="Layer 5">
        <circle id="Elipse_4782" data-name="Elipse 4782" cx="8.156" cy="8.156" r="8.156" transform="translate(-473.79 3887.892)" fill="#1b2d5b"/>
        <circle id="Elipse_4783" data-name="Elipse 4783" cx="8.156" cy="8.156" r="8.156" transform="translate(-473.79 4209.366)" fill="#1b2d5b"/>
        <rect id="Rectángulo_32469" data-name="Rectángulo 32469" width="4" height="143.814" transform="translate(-467.634 3896.048)" fill="#1b2d5b"/>
        <rect id="Rectángulo_32470" data-name="Rectángulo 32470" width="45.087" height="4" transform="translate(-488.178 4037.862)" fill="#1b2d5b"/>
        <rect id="Rectángulo_32471" data-name="Rectángulo 32471" width="45.087" height="4" transform="translate(-488.178 4053.158)" fill="#1b2d5b"/>
        <rect id="Rectángulo_32472" data-name="Rectángulo 32472" width="4" height="162.363" transform="translate(-467.634 4055.158)" fill="#1b2d5b"/>
        <circle id="Elipse_4784" data-name="Elipse 4784" cx="8.156" cy="8.156" r="8.156" transform="translate(-326.724 3886.266)" fill="#1b2d5b"/>
        <circle id="Elipse_4785" data-name="Elipse 4785" cx="8.156" cy="8.156" r="8.156" transform="translate(-326.724 4207.739)" fill="#1b2d5b"/>
        <rect id="Rectángulo_32473" data-name="Rectángulo 32473" width="4" height="143.813" transform="translate(-320.568 3894.422)" fill="#1b2d5b"/>
        <rect id="Rectángulo_32474" data-name="Rectángulo 32474" width="45.088" height="4" transform="translate(-341.112 4036.235)" fill="#1b2d5b"/>
        <rect id="Rectángulo_32475" data-name="Rectángulo 32475" width="45.088" height="4" transform="translate(-341.112 4051.531)" fill="#1b2d5b"/>
        <rect id="Rectángulo_32476" data-name="Rectángulo 32476" width="4" height="162.363" transform="translate(-320.568 4053.531)" fill="#1b2d5b"/>
        <path id="Trazado_144363" data-name="Trazado 144363" d="M-179.2,4038.235h-4V3896.422H-590.822v141.813h-4V3892.422H-179.2Z" fill="#1b2d5b"/>
        <rect id="Rectángulo_32477" data-name="Rectángulo 32477" width="45.087" height="4" transform="translate(-203.748 4036.235)" fill="#1b2d5b"/>
        <rect id="Rectángulo_32478" data-name="Rectángulo 32478" width="45.087" height="4" transform="translate(-203.748 4051.531)" fill="#1b2d5b"/>
        <rect id="Rectángulo_32479" data-name="Rectángulo 32479" width="45.087" height="4" transform="translate(-615.366 4036.235)" fill="#1b2d5b"/>
        <rect id="Rectángulo_32480" data-name="Rectángulo 32480" width="45.087" height="4" transform="translate(-615.366 4051.531)" fill="#1b2d5b"/>
        <path id="Trazado_144364" data-name="Trazado 144364" d="M-179.2,4217.895H-594.822V4053.531h4v160.363H-183.2V4053.531h4Z" fill="#1b2d5b"/>
        <circle id="Elipse_4786" data-name="Elipse 4786" cx="8.156" cy="8.156" r="8.156" transform="translate(-29.453 3886.266)" fill="#1b2d5b"/>
        <circle id="Elipse_4787" data-name="Elipse 4787" cx="8.156" cy="8.156" r="8.156" transform="translate(-29.453 4207.739)" fill="#1b2d5b"/>
        <rect id="Rectángulo_32481" data-name="Rectángulo 32481" width="4" height="143.813" transform="translate(-23.298 3894.422)" fill="#1b2d5b"/>
        <rect id="Rectángulo_32482" data-name="Rectángulo 32482" width="45.087" height="4" transform="translate(-43.841 4036.235)" fill="#1b2d5b"/>
        <rect id="Rectángulo_32483" data-name="Rectángulo 32483" width="45.087" height="4" transform="translate(-43.841 4051.531)" fill="#1b2d5b"/>
        <rect id="Rectángulo_32484" data-name="Rectángulo 32484" width="4" height="162.363" transform="translate(-23.298 4053.531)" fill="#1b2d5b"/>
      </g>
    </g>
  </g>
</svg>
