<?xml version="1.0" encoding="utf-8"?>
<!-- Generator: Adobe Illustrator 25.2.3, SVG Export Plug-In . SVG Version: 6.00 Build 0)  -->
<!DOCTYPE svg PUBLIC "-//W3C//DTD SVG 1.1//EN" "http://www.w3.org/Graphics/SVG/1.1/DTD/svg11.dtd" [
	<!ENTITY ns_extend "http://ns.adobe.com/Extensibility/1.0/">
	<!ENTITY ns_ai "http://ns.adobe.com/AdobeIllustrator/10.0/">
	<!ENTITY ns_graphs "http://ns.adobe.com/Graphs/1.0/">
	<!ENTITY ns_vars "http://ns.adobe.com/Variables/1.0/">
	<!ENTITY ns_imrep "http://ns.adobe.com/ImageReplacement/1.0/">
	<!ENTITY ns_sfw "http://ns.adobe.com/SaveForWeb/1.0/">
	<!ENTITY ns_custom "http://ns.adobe.com/GenericCustomNamespace/1.0/">
	<!ENTITY ns_adobe_xpath "http://ns.adobe.com/XPath/1.0/">
]>
<svg version="1.1" id="Capa_1" xmlns:x="&ns_extend;" xmlns:i="&ns_ai;" xmlns:graph="&ns_graphs;"
	 xmlns="http://www.w3.org/2000/svg" xmlns:xlink="http://www.w3.org/1999/xlink" x="0px" y="0px" viewBox="0 0 1048 236.8"
	 style="enable-background:new 0 0 1048 236.8;" xml:space="preserve">
<style type="text/css">
	.st0{fill:#F6F6F6;}
	.st1{fill:#0F58B9;}
	.st2{fill:#FF0000;}
	.st3{fill:#05FF78;}
	.st4{fill:#E0D80B;}
	.st5{enable-background:new    ;}
	.st6{fill:#FFFFFF;}
	.st7{fill:#A7020C;}
	.st8{fill:#05C45D;}
	.st9{fill:#BFB90D;}
</style>
<metadata>
	<sfw  xmlns="&ns_sfw;">
		<slices></slices>
		<sliceSourceBounds  bottomLeftOrigin="true" height="249.9" width="1061" x="-4" y="-13"></sliceSourceBounds>
	</sfw>
</metadata>
<g>
	<g transform="matrix(1, 0, 0, 1, 276.5, 5030.7)">
		
			<image style="overflow:visible;opacity:0.4;" width="1061" height="178" xlink:href="FA695BE7.png"  transform="matrix(1 0 0 1 -280.5 -4958.9004)">
		</image>
		<g>
			<g>
				<path id="Trazado_110720-2_13_" class="st0" d="M734.3-4946.9h-973.7c-15.6,0-28.2,14.1-28.2,31.5v84.1
					c0,17.4,12.6,31.5,28.2,31.5h973.7c15.6,0,28.2-14.1,28.2-31.5v-84.1C762.5-4932.8,749.9-4946.9,734.3-4946.9z"/>
			</g>
		</g>
	</g>
	<ellipse id="Elipse_4128" class="st1" cx="168.5" cy="110.7" rx="82.1" ry="82.1"/>
	<circle id="Elipse_4129" class="st2" cx="405.3" cy="110.8" r="82"/>
	<circle id="Elipse_4130" class="st3" cx="637.8" cy="110.8" r="82"/>
	<circle id="Elipse_4131" class="st4" cx="871" cy="110.8" r="82"/>
	<g class="st5">
		<path class="st6" d="M152.8,100.4c-0.1,1.4-0.6,2.5-1.5,3.3s-2.1,1.2-3.6,1.2c-1.6,0-2.9-0.6-3.9-1.7s-1.4-2.6-1.4-4.5v-0.8
			c0-1.2,0.2-2.3,0.7-3.3s1.1-1.7,1.9-2.2c0.8-0.5,1.7-0.8,2.8-0.8c1.5,0,2.7,0.4,3.6,1.2s1.4,1.9,1.6,3.3h-2.6
			c-0.1-0.8-0.3-1.4-0.7-1.8s-1-0.6-1.8-0.6c-0.9,0-1.5,0.3-2,0.9s-0.7,1.6-0.7,2.9v1c0,1.4,0.2,2.4,0.6,3s1.1,1,2,1
			c0.8,0,1.4-0.2,1.8-0.6s0.6-0.9,0.7-1.7h2.5V100.4z"/>
		<path class="st6" d="M154,99.8c0-0.9,0.2-1.8,0.5-2.5s0.9-1.3,1.6-1.7s1.5-0.6,2.4-0.6c1.3,0,2.3,0.4,3.1,1.2s1.3,1.9,1.4,3.2v0.7
			c0,1.5-0.4,2.6-1.2,3.5s-1.9,1.3-3.3,1.3s-2.5-0.4-3.3-1.3s-1.2-2.1-1.2-3.6V99.8z M156.5,100c0,0.9,0.2,1.6,0.5,2.1
			s0.8,0.7,1.5,0.7c0.6,0,1.1-0.2,1.4-0.7c0.3-0.5,0.5-1.2,0.5-2.3c0-0.9-0.2-1.6-0.5-2.1s-0.8-0.7-1.5-0.7c-0.6,0-1.1,0.2-1.4,0.7
			C156.7,98.2,156.5,99,156.5,100z"/>
		<path class="st6" d="M167.2,104.7h-2.5V91.2h2.5V104.7z"/>
		<path class="st6" d="M168.9,99.8c0-0.9,0.2-1.8,0.5-2.5s0.9-1.3,1.6-1.7s1.5-0.6,2.4-0.6c1.3,0,2.3,0.4,3.1,1.2s1.3,1.9,1.4,3.2
			v0.7c0,1.5-0.4,2.6-1.2,3.5s-1.9,1.3-3.3,1.3s-2.5-0.4-3.3-1.3s-1.2-2.1-1.2-3.6V99.8z M171.4,100c0,0.9,0.2,1.6,0.5,2.1
			s0.8,0.7,1.5,0.7c0.6,0,1.1-0.2,1.4-0.7c0.3-0.5,0.5-1.2,0.5-2.3c0-0.9-0.2-1.6-0.5-2.1S174,97,173.4,97s-1.1,0.2-1.4,0.7
			C171.6,98.2,171.4,99,171.4,100z"/>
		<path class="st6" d="M184.8,97.5c-0.3,0-0.7-0.1-0.9-0.1c-1,0-1.6,0.3-1.9,1v6.2h-2.5v-9.5h2.4l0.1,1.1c0.5-0.9,1.2-1.3,2.1-1.3
			c0.3,0,0.5,0,0.8,0.1L184.8,97.5z"/>
		<path class="st6" d="M196.6,104.7h-2.5v-9.8l-3,0.9v-2.1l5.3-1.9h0.3v12.9H196.6z"/>
	</g>
	<g class="st5">
		<path class="st6" d="M158.7,127h-4.6l-0.9,2.6h-2.8l4.8-12.8h2.4l4.8,12.8h-2.8L158.7,127z M154.8,124.9h3.2l-1.6-4.8L154.8,124.9
			z"/>
		<path class="st6" d="M166.5,127.6h4.6v2h-7.9v-1.5l4.5-5.9h-4.3v-2h7.6v1.5L166.5,127.6z"/>
		<path class="st6" d="M178.4,128.7c-0.6,0.8-1.5,1.1-2.6,1.1c-1,0-1.8-0.3-2.3-0.9s-0.8-1.4-0.8-2.6v-6.2h2.5v6.2
			c0,1,0.5,1.5,1.4,1.5s1.5-0.3,1.8-0.9v-6.7h2.5v9.5h-2.4L178.4,128.7z"/>
		<path class="st6" d="M185.4,129.7h-2.5v-13.5h2.5V129.7z"/>
	</g>
	<g class="st5">
		<path class="st6" d="M171.3,141.7v2.1H171c-1.1,0-2.1,0.3-2.8,0.9s-1.1,1.4-1.3,2.4c0.7-0.7,1.5-1,2.6-1s2,0.4,2.7,1.2
			s1,1.8,1,3.1c0,0.8-0.2,1.6-0.5,2.3s-0.9,1.2-1.5,1.6s-1.4,0.6-2.2,0.6c-1.3,0-2.4-0.5-3.3-1.4s-1.2-2.2-1.2-3.8v-0.9
			c0-1.4,0.3-2.6,0.8-3.7c0.5-1.1,1.3-1.9,2.3-2.5s2.1-0.9,3.4-0.9L171.3,141.7L171.3,141.7z M168.8,148.2c-0.4,0-0.8,0.1-1.1,0.3
			s-0.6,0.5-0.7,0.8v0.8c0,0.8,0.2,1.5,0.5,2s0.8,0.7,1.4,0.7c0.5,0,1-0.2,1.3-0.6s0.5-1,0.5-1.7s-0.2-1.3-0.5-1.7
			C169.8,148.4,169.4,148.2,168.8,148.2z"/>
	</g>
	<g class="st5">
		<path class="st6" d="M389.6,100.5c-0.1,1.4-0.6,2.5-1.5,3.3s-2.1,1.2-3.6,1.2c-1.6,0-2.9-0.6-3.9-1.7s-1.4-2.6-1.4-4.5V98
			c0-1.2,0.2-2.3,0.7-3.3s1.1-1.7,1.9-2.2s1.7-0.8,2.8-0.8c1.5,0,2.7,0.4,3.6,1.2s1.4,1.9,1.6,3.3H387c-0.1-0.8-0.3-1.4-0.7-1.8
			s-1-0.6-1.8-0.6c-0.9,0-1.5,0.3-2,0.9s-0.7,1.6-0.7,2.9v1c0,1.4,0.2,2.4,0.6,3s1.1,1,2,1c0.8,0,1.4-0.2,1.8-0.6s0.6-0.9,0.7-1.7
			h2.7V100.5z"/>
		<path class="st6" d="M390.7,99.9c0-0.9,0.2-1.8,0.5-2.5s0.9-1.3,1.6-1.7s1.5-0.6,2.4-0.6c1.3,0,2.3,0.4,3.1,1.2s1.3,1.9,1.4,3.2
			v0.7c0,1.5-0.4,2.6-1.2,3.5s-1.9,1.3-3.3,1.3s-2.5-0.4-3.3-1.3s-1.2-2.1-1.2-3.6V99.9z M393.3,100.1c0,0.9,0.2,1.6,0.5,2.1
			s0.8,0.7,1.5,0.7c0.6,0,1.1-0.2,1.4-0.7s0.5-1.2,0.5-2.3c0-0.9-0.2-1.6-0.5-2.1s-0.8-0.7-1.5-0.7c-0.6,0-1.1,0.2-1.4,0.7
			C393.5,98.4,393.3,99.1,393.3,100.1z"/>
		<path class="st6" d="M404,104.8h-2.5V91.3h2.5V104.8z"/>
		<path class="st6" d="M405.7,99.9c0-0.9,0.2-1.8,0.5-2.5s0.9-1.3,1.6-1.7s1.5-0.6,2.4-0.6c1.3,0,2.3,0.4,3.1,1.2s1.3,1.9,1.4,3.2
			v0.7c0,1.5-0.4,2.6-1.2,3.5s-1.9,1.3-3.3,1.3s-2.5-0.4-3.3-1.3s-1.2-2.1-1.2-3.6V99.9z M408.2,100.1c0,0.9,0.2,1.6,0.5,2.1
			s0.8,0.7,1.5,0.7c0.6,0,1.1-0.2,1.4-0.7s0.5-1.2,0.5-2.3c0-0.9-0.2-1.6-0.5-2.1s-0.8-0.7-1.5-0.7c-0.6,0-1.1,0.2-1.4,0.7
			C408.4,98.4,408.2,99.1,408.2,100.1z"/>
		<path class="st6" d="M421.6,97.6c-0.3,0-0.7-0.1-0.9-0.1c-1,0-1.6,0.3-1.9,1v6.2h-2.5v-9.5h2.4l0.1,1.1c0.5-0.9,1.2-1.3,2.1-1.3
			c0.3,0,0.5,0,0.8,0.1L421.6,97.6z"/>
		<path class="st6" d="M436,104.8h-8.8V103l4.1-4.4c0.6-0.6,1-1.2,1.3-1.6s0.4-0.9,0.4-1.3c0-0.6-0.1-1-0.4-1.3s-0.7-0.5-1.2-0.5
			c-0.6,0-1,0.2-1.4,0.6c-0.3,0.4-0.5,0.9-0.5,1.6H427c0-0.8,0.2-1.5,0.6-2.1s0.9-1.1,1.6-1.5s1.5-0.5,2.3-0.5
			c1.3,0,2.3,0.3,3.1,0.9s1.1,1.5,1.1,2.7c0,0.6-0.2,1.3-0.5,1.9s-0.9,1.4-1.7,2.3l-2.9,3.1h5.5v1.9H436z"/>
	</g>
	<g class="st5">
		<path class="st6" d="M393,125.1h-2.1v4.7h-2.6V117h4.8c1.5,0,2.7,0.3,3.5,1s1.2,1.6,1.2,2.9c0,0.9-0.2,1.6-0.6,2.2s-1,1-1.7,1.4
			l2.8,5.2v0.1h-2.8L393,125.1z M390.9,123h2.1c0.7,0,1.2-0.2,1.5-0.5c0.4-0.3,0.5-0.8,0.5-1.4s-0.2-1.1-0.5-1.4s-0.9-0.5-1.6-0.5
			h-2.1v3.8H390.9z"/>
		<path class="st6" d="M399.2,124.9c0-0.9,0.2-1.8,0.5-2.5s0.9-1.3,1.6-1.7s1.5-0.6,2.4-0.6c1.3,0,2.3,0.4,3.1,1.2s1.3,1.9,1.4,3.2
			v0.7c0,1.5-0.4,2.6-1.2,3.5c-0.8,0.9-1.9,1.3-3.3,1.3s-2.5-0.4-3.3-1.3s-1.2-2.1-1.2-3.6V124.9z M401.7,125.1
			c0,0.9,0.2,1.6,0.5,2.1s0.8,0.7,1.5,0.7c0.6,0,1.1-0.2,1.4-0.7s0.5-1.2,0.5-2.3c0-0.9-0.2-1.6-0.5-2.1s-0.8-0.7-1.5-0.7
			c-0.6,0-1.1,0.2-1.4,0.7C401.9,123.3,401.7,124.1,401.7,125.1z"/>
		<path class="st6" d="M412.4,120.3v10c0,1-0.3,1.9-0.8,2.4c-0.6,0.6-1.4,0.9-2.4,0.9c-0.4,0-0.9-0.1-1.3-0.2v-2
			c0.3,0.1,0.6,0.1,0.8,0.1c0.8,0,1.2-0.4,1.2-1.2v-10H412.4z M409.7,117.8c0-0.4,0.1-0.7,0.4-0.9s0.6-0.4,1-0.4s0.8,0.1,1,0.4
			s0.4,0.6,0.4,0.9c0,0.4-0.1,0.7-0.4,0.9c-0.3,0.2-0.6,0.4-1,0.4s-0.8-0.1-1-0.4C409.8,118.5,409.7,118.2,409.7,117.8z"/>
		<path class="st6" d="M414,124.9c0-0.9,0.2-1.8,0.5-2.5s0.9-1.3,1.6-1.7s1.5-0.6,2.4-0.6c1.3,0,2.3,0.4,3.1,1.2s1.3,1.9,1.4,3.2
			v0.7c0,1.5-0.4,2.6-1.2,3.5c-0.8,0.9-1.9,1.3-3.3,1.3s-2.5-0.4-3.3-1.3s-1.2-2.1-1.2-3.6V124.9z M416.5,125.1
			c0,0.9,0.2,1.6,0.5,2.1s0.8,0.7,1.5,0.7c0.6,0,1.1-0.2,1.4-0.7s0.5-1.2,0.5-2.3c0-0.9-0.2-1.6-0.5-2.1s-0.8-0.7-1.5-0.7
			c-0.6,0-1.1,0.2-1.4,0.7C416.7,123.3,416.5,124.1,416.5,125.1z"/>
	</g>
	<g class="st5">
		<path class="st6" d="M409.9,154.8h-8.8V153l4.1-4.4c0.6-0.6,1-1.2,1.3-1.6s0.4-0.9,0.4-1.3c0-0.6-0.1-1-0.4-1.3s-0.7-0.5-1.2-0.5
			c-0.6,0-1,0.2-1.4,0.6c-0.3,0.4-0.5,0.9-0.5,1.6h-2.5c0-0.8,0.2-1.5,0.6-2.1s0.9-1.2,1.6-1.5c0.7-0.4,1.5-0.5,2.3-0.5
			c1.3,0,2.3,0.3,3.1,0.9s1.1,1.5,1.1,2.7c0,0.6-0.2,1.3-0.5,1.9s-0.9,1.4-1.7,2.3l-2.9,3.1h5.5v1.9H409.9z"/>
	</g>
	<g class="st5">
		<path class="st6" d="M622.1,100.5c-0.1,1.4-0.6,2.5-1.5,3.3s-2.1,1.2-3.6,1.2c-1.6,0-2.9-0.6-3.9-1.7s-1.4-2.6-1.4-4.5V98
			c0-1.2,0.2-2.3,0.7-3.3s1.1-1.7,1.9-2.2c0.8-0.5,1.7-0.8,2.8-0.8c1.5,0,2.7,0.4,3.6,1.2s1.4,1.9,1.6,3.3h-2.6
			c-0.1-0.8-0.3-1.4-0.7-1.8s-1-0.6-1.8-0.6c-0.9,0-1.5,0.3-2,0.9s-0.7,1.6-0.7,2.9v1c0,1.4,0.2,2.4,0.6,3s1.1,1,2,1
			c0.8,0,1.4-0.2,1.8-0.6s0.6-0.9,0.7-1.7h2.5V100.5z"/>
		<path class="st6" d="M623.2,99.9c0-0.9,0.2-1.8,0.5-2.5s0.9-1.3,1.6-1.7s1.5-0.6,2.4-0.6c1.3,0,2.3,0.4,3.1,1.2s1.3,1.9,1.4,3.2
			v0.7c0,1.5-0.4,2.6-1.2,3.5s-1.9,1.3-3.3,1.3s-2.5-0.4-3.3-1.3s-1.2-2.1-1.2-3.6V99.9z M625.8,100.1c0,0.9,0.2,1.6,0.5,2.1
			s0.8,0.7,1.5,0.7c0.6,0,1.1-0.2,1.4-0.7c0.3-0.5,0.5-1.2,0.5-2.3c0-0.9-0.2-1.6-0.5-2.1s-0.8-0.7-1.5-0.7c-0.6,0-1.1,0.2-1.4,0.7
			C626,98.4,625.8,99.1,625.8,100.1z"/>
		<path class="st6" d="M636.5,104.8H634V91.3h2.5V104.8z"/>
		<path class="st6" d="M638.2,99.9c0-0.9,0.2-1.8,0.5-2.5s0.9-1.3,1.6-1.7s1.5-0.6,2.4-0.6c1.3,0,2.3,0.4,3.1,1.2s1.3,1.9,1.4,3.2
			v0.7c0,1.5-0.4,2.6-1.2,3.5s-1.9,1.3-3.3,1.3s-2.5-0.4-3.3-1.3s-1.2-2.1-1.2-3.6V99.9z M640.7,100.1c0,0.9,0.2,1.6,0.5,2.1
			s0.8,0.7,1.5,0.7c0.6,0,1.1-0.2,1.4-0.7c0.3-0.5,0.5-1.2,0.5-2.3c0-0.9-0.2-1.6-0.5-2.1s-0.8-0.7-1.5-0.7c-0.6,0-1.1,0.2-1.4,0.7
			C640.9,98.4,640.7,99.1,640.7,100.1z"/>
		<path class="st6" d="M654.1,97.6c-0.3,0-0.7-0.1-0.9-0.1c-1,0-1.6,0.3-1.9,1v6.2h-2.5v-9.5h2.4l0.1,1.1c0.5-0.9,1.2-1.3,2.1-1.3
			c0.3,0,0.5,0,0.8,0.1L654.1,97.6z"/>
		<path class="st6" d="M662.3,97.3h1.4c0.6,0,1.1-0.2,1.4-0.5s0.5-0.8,0.5-1.3s-0.2-0.9-0.5-1.2s-0.7-0.4-1.3-0.4
			c-0.5,0-0.9,0.1-1.2,0.4s-0.5,0.6-0.5,1h-2.5c0-0.7,0.2-1.3,0.5-1.8c0.4-0.5,0.9-0.9,1.5-1.2s1.4-0.4,2.1-0.4c1.4,0,2.4,0.3,3.2,1
			c0.8,0.6,1.2,1.5,1.2,2.7c0,0.6-0.2,1.1-0.5,1.6s-0.8,0.9-1.4,1.1c0.7,0.3,1.3,0.6,1.6,1.2s0.5,1.1,0.5,1.8c0,1.1-0.4,2-1.2,2.7
			s-1.9,1-3.3,1c-1.3,0-2.3-0.3-3.1-1s-1.2-1.6-1.2-2.7h2.5c0,0.5,0.2,0.9,0.5,1.2s0.8,0.5,1.3,0.5c0.6,0,1.1-0.2,1.4-0.5
			c0.3-0.3,0.5-0.7,0.5-1.3c0-1.3-0.7-1.9-2.1-1.9h-1.3L662.3,97.3L662.3,97.3z"/>
	</g>
	<g class="st5">
		<path class="st6" d="M619.6,126.6l2.9-9.6h2.9l-4.5,12.8h-2.8l-4.4-12.8h2.9L619.6,126.6z"/>
		<path class="st6" d="M630.9,130c-1.4,0-2.5-0.4-3.4-1.3s-1.3-2-1.3-3.4V125c0-1,0.2-1.8,0.6-2.6c0.4-0.8,0.9-1.3,1.6-1.7
			c0.7-0.4,1.4-0.6,2.3-0.6c1.3,0,2.3,0.4,3.1,1.2s1.1,2,1.1,3.5v1h-6.1c0.1,0.6,0.3,1.1,0.7,1.5s0.9,0.6,1.6,0.6
			c1,0,1.7-0.4,2.3-1.1l1.2,1.4c-0.4,0.5-0.9,1-1.5,1.3C632.4,129.8,631.7,130,630.9,130z M630.6,122.1c-0.5,0-0.9,0.2-1.2,0.5
			s-0.5,0.8-0.6,1.5h3.5v-0.2c0-0.6-0.2-1-0.5-1.3S631.1,122.1,630.6,122.1z"/>
		<path class="st6" d="M641.6,122.7c-0.3,0-0.7-0.1-0.9-0.1c-1,0-1.6,0.3-1.9,1v6.2h-2.5v-9.5h2.4l0.1,1.1c0.5-0.9,1.2-1.3,2.1-1.3
			c0.3,0,0.5,0,0.8,0.1L641.6,122.7z"/>
		<path class="st6" d="M642.4,125c0-1.5,0.3-2.7,1-3.5s1.6-1.3,2.7-1.3c0.9,0,1.7,0.3,2.3,1v-4.9h2.5v13.5h-2.3l-0.1-1
			c-0.6,0.8-1.4,1.2-2.4,1.2c-1.1,0-2-0.4-2.7-1.3C642.8,127.8,642.4,126.5,642.4,125z M645,125.1c0,0.9,0.2,1.6,0.5,2.1
			s0.8,0.7,1.4,0.7c0.8,0,1.3-0.3,1.7-1v-3.8c-0.3-0.7-0.9-1-1.6-1C645.6,122.2,645,123.2,645,125.1z"/>
		<path class="st6" d="M657.3,130c-1.4,0-2.5-0.4-3.4-1.3s-1.3-2-1.3-3.4V125c0-1,0.2-1.8,0.6-2.6c0.4-0.8,0.9-1.3,1.6-1.7
			c0.7-0.4,1.4-0.6,2.3-0.6c1.3,0,2.3,0.4,3.1,1.2s1.1,2,1.1,3.5v1h-6.1c0.1,0.6,0.3,1.1,0.7,1.5s0.9,0.6,1.6,0.6
			c1,0,1.7-0.4,2.3-1.1l1.2,1.4c-0.4,0.5-0.9,1-1.5,1.3C658.8,129.8,658.1,130,657.3,130z M657,122.1c-0.5,0-0.9,0.2-1.2,0.5
			s-0.5,0.8-0.6,1.5h3.5v-0.2c0-0.6-0.2-1-0.5-1.3S657.6,122.1,657,122.1z"/>
	</g>
	<g class="st5">
		<path class="st6" d="M634,148.5l0.7-6.5h7.2v2.1h-5.1l-0.3,2.8c0.6-0.3,1.2-0.5,1.9-0.5c1.2,0,2.2,0.4,2.9,1.1s1,1.8,1,3.2
			c0,0.8-0.2,1.6-0.5,2.2c-0.3,0.7-0.8,1.2-1.5,1.5c-0.7,0.4-1.4,0.5-2.3,0.5c-0.8,0-1.5-0.2-2.2-0.5s-1.2-0.8-1.6-1.3
			s-0.6-1.2-0.6-1.9h2.5c0.1,0.5,0.2,0.9,0.6,1.2c0.3,0.3,0.7,0.4,1.3,0.4s1-0.2,1.3-0.6c0.3-0.4,0.5-1,0.5-1.8
			c0-0.7-0.2-1.3-0.5-1.7s-0.9-0.6-1.5-0.6s-1.1,0.2-1.5,0.5L636,149L634,148.5z"/>
	</g>
	<g class="st5">
		<path class="st6" d="M841.8,92.1h-3.9v10.7h-2.6V92.1h-3.9V90h10.4V92.1z"/>
		<path class="st6" d="M841,97.9c0-0.9,0.2-1.8,0.5-2.5s0.9-1.3,1.6-1.7s1.5-0.6,2.4-0.6c1.3,0,2.3,0.4,3.1,1.2s1.3,1.9,1.4,3.2v0.7
			c0,1.5-0.4,2.6-1.2,3.5s-1.9,1.3-3.3,1.3s-2.5-0.4-3.3-1.3S841,99.6,841,97.9L841,97.9z M843.5,98.1c0,0.9,0.2,1.6,0.5,2.1
			s0.8,0.7,1.5,0.7c0.6,0,1.1-0.2,1.4-0.7c0.3-0.5,0.5-1.2,0.5-2.3c0-0.9-0.2-1.6-0.5-2.1s-0.8-0.7-1.5-0.7c-0.6,0-1.1,0.2-1.4,0.7
			C843.7,96.4,843.5,97.1,843.5,98.1z"/>
		<path class="st6" d="M854.2,102.8h-2.5V89.3h2.5V102.8z"/>
		<path class="st6" d="M860.7,103c-1.4,0-2.5-0.4-3.4-1.3s-1.3-2-1.3-3.4V98c0-1,0.2-1.8,0.6-2.6s0.9-1.3,1.6-1.7s1.4-0.6,2.3-0.6
			c1.3,0,2.3,0.4,3.1,1.2s1.1,2,1.1,3.5v1h-6.1c0.1,0.6,0.3,1.1,0.7,1.5s0.9,0.6,1.6,0.6c1,0,1.7-0.4,2.3-1.1l1.2,1.4
			c-0.4,0.5-0.9,1-1.5,1.3C862.2,102.8,861.5,103,860.7,103z M860.4,95.1c-0.5,0-0.9,0.2-1.2,0.5s-0.5,0.8-0.6,1.5h3.5v-0.2
			c0-0.6-0.2-1-0.5-1.3C861.3,95.3,860.9,95.1,860.4,95.1z"/>
		<path class="st6" d="M871.4,95.6c-0.3,0-0.7-0.1-0.9-0.1c-1,0-1.6,0.3-1.9,1v6.2H866v-9.5h2.4l0.1,1.1c0.5-0.9,1.2-1.3,2.1-1.3
			c0.3,0,0.5,0,0.8,0.1L871.4,95.6z"/>
		<path class="st6" d="M877.8,102.8c-0.1-0.2-0.2-0.5-0.3-0.9c-0.6,0.7-1.4,1-2.4,1c-0.9,0-1.7-0.3-2.3-0.8s-0.9-1.2-0.9-2
			c0-1,0.4-1.8,1.1-2.3s1.8-0.8,3.2-0.8h1.2v-0.5c0-0.4-0.1-0.8-0.3-1.1S876.5,95,876,95c-0.4,0-0.8,0.1-1,0.3s-0.4,0.5-0.4,0.8
			h-2.5c0-0.6,0.2-1.1,0.5-1.5s0.8-0.8,1.4-1.1s1.3-0.4,2.1-0.4c1.2,0,2.1,0.3,2.8,0.9s1,1.4,1,2.5v4.1c0,0.9,0.1,1.6,0.4,2v0.1
			h-2.5V102.8z M875.7,101c0.4,0,0.7-0.1,1-0.3c0.3-0.2,0.6-0.4,0.7-0.7v-1.6h-0.9c-1.3,0-1.9,0.4-2,1.3v0.1c0,0.3,0.1,0.6,0.3,0.8
			S875.4,101,875.7,101z"/>
		<path class="st6" d="M884.3,93.3l0.1,1.1c0.7-0.8,1.6-1.3,2.7-1.3c1,0,1.8,0.3,2.2,0.9s0.7,1.5,0.8,2.7v6.1h-2.5v-6.1
			c0-0.5-0.1-0.9-0.4-1.2c-0.2-0.2-0.6-0.4-1.2-0.4c-0.7,0-1.3,0.3-1.6,0.9v6.7h-2.5v-9.5h2.4V93.3z"/>
		<path class="st6" d="M896,100.9c0.5,0,0.8-0.1,1.1-0.4s0.4-0.6,0.5-1h2.4c0,0.6-0.2,1.2-0.5,1.8c-0.3,0.5-0.8,1-1.4,1.2
			c-0.6,0.3-1.3,0.4-2,0.4c-1.4,0-2.4-0.4-3.2-1.3s-1.2-2.1-1.2-3.6v-0.2c0-1.5,0.4-2.6,1.2-3.5s1.8-1.3,3.2-1.3
			c1.2,0,2.1,0.3,2.9,1c0.7,0.7,1.1,1.6,1.1,2.7h-2.4c0-0.5-0.2-0.9-0.5-1.2S896.5,95,896,95c-0.6,0-1,0.2-1.3,0.6s-0.5,1.1-0.5,2.1
			V98c0,1,0.1,1.7,0.4,2.1S895.4,100.9,896,100.9z"/>
		<path class="st6" d="M901.4,90.8c0-0.4,0.1-0.7,0.4-0.9s0.6-0.4,1-0.4s0.8,0.1,1,0.4s0.4,0.6,0.4,0.9c0,0.4-0.1,0.7-0.4,0.9
			s-0.6,0.4-1,0.4s-0.8-0.1-1-0.4S901.4,91.2,901.4,90.8z M904.1,102.8h-2.5v-9.5h2.5V102.8z"/>
		<path class="st6" d="M911.7,102.8c-0.1-0.2-0.2-0.5-0.3-0.9c-0.6,0.7-1.4,1-2.4,1c-0.9,0-1.7-0.3-2.3-0.8s-0.9-1.2-0.9-2
			c0-1,0.4-1.8,1.1-2.3s1.8-0.8,3.2-0.8h1.2v-0.5c0-0.4-0.1-0.8-0.3-1.1s-0.6-0.4-1-0.4s-0.8,0.1-1,0.3s-0.4,0.5-0.4,0.8h-2.5
			c0-0.6,0.2-1.1,0.5-1.5s0.8-0.8,1.4-1.1s1.3-0.4,2.1-0.4c1.2,0,2.1,0.3,2.8,0.9s1,1.4,1,2.5v4.1c0,0.9,0.1,1.6,0.4,2v0.1
			L911.7,102.8L911.7,102.8z M909.6,101c0.4,0,0.7-0.1,1-0.3c0.3-0.2,0.6-0.4,0.7-0.7v-1.6h-0.9c-1.3,0-1.9,0.4-2,1.3v0.1
			c0,0.3,0.1,0.6,0.3,0.8S909.2,101,909.6,101z"/>
	</g>
	<g class="st5">
		<path class="st6" d="M843.4,127.8V115h3.9c1.1,0,2.1,0.3,3,0.8s1.6,1.2,2.1,2.2c0.5,0.9,0.7,2,0.7,3.2v0.6c0,1.2-0.2,2.2-0.7,3.2
			s-1.2,1.6-2.1,2.2s-1.9,0.8-3,0.8h-3.9V127.8z M846.1,117.1v8.5h1.3c1,0,1.8-0.3,2.4-1s0.8-1.6,0.8-2.9V121c0-1.3-0.3-2.3-0.8-3
			s-1.3-1-2.4-1L846.1,117.1L846.1,117.1z"/>
		<path class="st6" d="M854.6,122.9c0-0.9,0.2-1.8,0.5-2.5s0.9-1.3,1.6-1.7c0.7-0.4,1.5-0.6,2.4-0.6c1.3,0,2.3,0.4,3.1,1.2
			c0.8,0.8,1.3,1.9,1.4,3.2v0.7c0,1.5-0.4,2.6-1.2,3.5s-1.9,1.3-3.3,1.3s-2.5-0.4-3.3-1.3s-1.2-2.1-1.2-3.6V122.9z M857.1,123.1
			c0,0.9,0.2,1.6,0.5,2.1s0.8,0.7,1.5,0.7c0.6,0,1.1-0.2,1.4-0.7s0.5-1.2,0.5-2.3c0-0.9-0.2-1.6-0.5-2.1s-0.8-0.7-1.5-0.7
			c-0.6,0-1.1,0.2-1.4,0.7C857.3,121.3,857.1,122.1,857.1,123.1z"/>
		<path class="st6" d="M870.5,120.7c-0.3,0-0.7-0.1-0.9-0.1c-1,0-1.6,0.3-1.9,1v6.2h-2.5v-9.5h2.4l0.1,1.1c0.5-0.9,1.2-1.3,2.1-1.3
			c0.3,0,0.5,0,0.8,0.1L870.5,120.7z"/>
		<path class="st6" d="M877,127.8c-0.1-0.2-0.2-0.5-0.3-0.9c-0.6,0.7-1.4,1-2.4,1c-0.9,0-1.7-0.3-2.3-0.8s-0.9-1.2-0.9-2
			c0-1,0.4-1.8,1.1-2.3s1.8-0.8,3.2-0.8h1.2v-0.5c0-0.4-0.1-0.8-0.3-1.1s-0.6-0.4-1.1-0.4c-0.4,0-0.8,0.1-1,0.3s-0.4,0.5-0.4,0.8
			h-2.5c0-0.6,0.2-1.1,0.5-1.5s0.8-0.8,1.4-1.1s1.3-0.4,2.1-0.4c1.2,0,2.1,0.3,2.8,0.9s1,1.4,1,2.5v4.1c0,0.9,0.1,1.6,0.4,2v0.1H877
			V127.8z M874.8,126c0.4,0,0.7-0.1,1-0.3c0.3-0.2,0.6-0.4,0.7-0.7v-1.6h-0.9c-1.3,0-1.9,0.4-2,1.3v0.2c0,0.3,0.1,0.6,0.3,0.8
			S874.5,126,874.8,126z"/>
		<path class="st6" d="M880.7,123c0-1.5,0.3-2.7,1-3.5c0.7-0.9,1.6-1.3,2.7-1.3c0.9,0,1.7,0.3,2.3,1v-4.9h2.5v13.5H887l-0.1-1
			c-0.6,0.8-1.4,1.2-2.4,1.2c-1.1,0-2-0.4-2.7-1.3C881,125.8,880.7,124.5,880.7,123z M883.2,123.1c0,0.9,0.2,1.6,0.5,2.1
			s0.8,0.7,1.4,0.7c0.8,0,1.3-0.3,1.7-1v-3.8c-0.3-0.7-0.9-1-1.6-1C883.8,120.2,883.2,121.2,883.2,123.1z"/>
		<path class="st6" d="M890.8,122.9c0-0.9,0.2-1.8,0.5-2.5s0.9-1.3,1.6-1.7c0.7-0.4,1.5-0.6,2.4-0.6c1.3,0,2.3,0.4,3.1,1.2
			c0.8,0.8,1.3,1.9,1.4,3.2v0.7c0,1.5-0.4,2.6-1.2,3.5s-1.9,1.3-3.3,1.3s-2.5-0.4-3.3-1.3s-1.2-2.1-1.2-3.6V122.9z M893.4,123.1
			c0,0.9,0.2,1.6,0.5,2.1s0.8,0.7,1.5,0.7c0.6,0,1.1-0.2,1.4-0.7s0.5-1.2,0.5-2.3c0-0.9-0.2-1.6-0.5-2.1s-0.8-0.7-1.5-0.7
			c-0.6,0-1.1,0.2-1.4,0.7C893.5,121.3,893.4,122.1,893.4,123.1z"/>
	</g>
	<g class="st5">
		<path class="st6" d="M860.7,146.5l0.7-6.5h7.2v2.1h-5.1l-0.3,2.8c0.6-0.3,1.2-0.5,1.9-0.5c1.2,0,2.2,0.4,2.9,1.1s1,1.8,1,3.2
			c0,0.8-0.2,1.6-0.5,2.2c-0.3,0.7-0.8,1.2-1.5,1.5c-0.7,0.4-1.4,0.5-2.3,0.5c-0.8,0-1.5-0.2-2.2-0.5s-1.2-0.8-1.6-1.3
			s-0.6-1.2-0.6-1.9h2.5c0.1,0.5,0.2,0.9,0.6,1.2c0.3,0.3,0.7,0.4,1.3,0.4s1-0.2,1.3-0.6c0.3-0.4,0.5-1,0.5-1.8
			c0-0.7-0.2-1.3-0.5-1.7s-0.9-0.6-1.5-0.6s-1.1,0.2-1.5,0.5l-0.2,0.2L860.7,146.5z"/>
		<path class="st6" d="M870.6,142.4c0-0.8,0.3-1.4,0.8-1.9s1.2-0.7,2-0.7s1.5,0.2,2,0.7s0.8,1.1,0.8,2v0.6c0,0.8-0.3,1.4-0.8,1.9
			s-1.2,0.7-2,0.7s-1.5-0.2-2-0.7s-0.8-1.1-0.8-2V142.4z M872.3,143.1c0,0.4,0.1,0.6,0.3,0.8s0.5,0.3,0.8,0.3s0.6-0.1,0.8-0.3
			s0.3-0.5,0.3-0.9v-0.7c0-0.4-0.1-0.6-0.3-0.9s-0.5-0.3-0.8-0.3s-0.6,0.1-0.8,0.3s-0.3,0.5-0.3,0.9V143.1z M873.9,151.8l-1.2-0.7
			l6.2-10l1.2,0.7L873.9,151.8z M876.7,149.6c0-0.8,0.3-1.4,0.8-1.9s1.2-0.7,2-0.7s1.5,0.2,2,0.7s0.8,1.1,0.8,2v0.6
			c0,0.8-0.3,1.4-0.8,1.9s-1.2,0.7-2,0.7s-1.5-0.2-2-0.7s-0.8-1.1-0.8-1.9V149.6z M878.4,150.3c0,0.3,0.1,0.6,0.3,0.8
			s0.5,0.3,0.8,0.3c0.7,0,1.1-0.4,1.1-1.2v-0.7c0-0.4-0.1-0.6-0.3-0.8s-0.5-0.3-0.8-0.3s-0.6,0.1-0.8,0.3s-0.3,0.5-0.3,0.9V150.3z"
			/>
	</g>
	<path id="Trazado_110721" class="st1" d="M168.5,15.2c43.5,0.1,82.3,27.5,96.8,68.5h16C262.5,21.5,196.8-13.8,134.5,5
		C96.7,16.4,67.1,46,55.7,83.8h16C86.2,42.7,125,15.3,168.5,15.2z"/>
	<path id="Trazado_110722" class="st7" d="M405.3,15.2c43.5,0.1,82.3,27.5,96.8,68.5h16C499.3,21.5,433.6-13.8,371.3,5
		c-37.8,11.4-67.4,41-78.8,78.8h16C323,42.7,361.8,15.3,405.3,15.2z"/>
	<path id="Trazado_110723" class="st8" d="M637.8,15.2c43.5,0.1,82.3,27.5,96.8,68.5h16C731.8,21.5,666.1-13.8,603.8,5
		C566,16.4,536.4,46,525,83.8h16C555.5,42.7,594.3,15.3,637.8,15.2z"/>
	<path id="Trazado_110724" class="st9" d="M871,15.2c43.5,0.1,82.3,27.5,96.8,68.5h16C965,21.5,899.3-13.8,837,5
		c-37.8,11.4-67.4,41-78.8,78.8h16C788.7,42.7,827.5,15.3,871,15.2z"/>
</g>
</svg>
