<?xml version="1.0" encoding="utf-8"?>
<!-- Generator: Adobe Illustrator 25.2.3, SVG Export Plug-In . SVG Version: 6.00 Build 0)  -->
<!DOCTYPE svg PUBLIC "-//W3C//DTD SVG 1.1//EN" "http://www.w3.org/Graphics/SVG/1.1/DTD/svg11.dtd" [
	<!ENTITY ns_extend "http://ns.adobe.com/Extensibility/1.0/">
	<!ENTITY ns_ai "http://ns.adobe.com/AdobeIllustrator/10.0/">
	<!ENTITY ns_graphs "http://ns.adobe.com/Graphs/1.0/">
	<!ENTITY ns_vars "http://ns.adobe.com/Variables/1.0/">
	<!ENTITY ns_imrep "http://ns.adobe.com/ImageReplacement/1.0/">
	<!ENTITY ns_sfw "http://ns.adobe.com/SaveForWeb/1.0/">
	<!ENTITY ns_custom "http://ns.adobe.com/GenericCustomNamespace/1.0/">
	<!ENTITY ns_adobe_xpath "http://ns.adobe.com/XPath/1.0/">
]>
<svg version="1.1" id="Capa_1" xmlns:x="&ns_extend;" xmlns:i="&ns_ai;" xmlns:graph="&ns_graphs;"
	 xmlns="http://www.w3.org/2000/svg" xmlns:xlink="http://www.w3.org/1999/xlink" x="0px" y="0px" viewBox="0 0 303.6 266.7"
	 style="enable-background:new 0 0 303.6 266.7;" xml:space="preserve">
<style type="text/css">
	.st0{opacity:0.9;}
	.st1{fill:url(#Trazado_110725_1_);}
	.st2{opacity:0.2;fill:url(#Trazado_110726_1_);enable-background:new    ;}
	.st3{opacity:0.2;fill:url(#Trazado_110727_1_);enable-background:new    ;}
	.st4{opacity:0.4;fill:url(#Trazado_110728_1_);enable-background:new    ;}
	.st5{opacity:0.2;}
	.st6{fill-opacity:0;}
	.st7{opacity:3.800000e-02;fill:#0A0A0A;enable-background:new    ;}
	.st8{opacity:7.700000e-02;fill:#141414;enable-background:new    ;}
	.st9{opacity:0.115;fill:#1D1D1D;enable-background:new    ;}
	.st10{opacity:0.154;fill:#272727;enable-background:new    ;}
	.st11{opacity:0.192;fill:#313131;enable-background:new    ;}
	.st12{opacity:0.231;fill:#3B3B3B;enable-background:new    ;}
	.st13{opacity:0.269;fill:#454545;enable-background:new    ;}
	.st14{opacity:0.308;fill:#4E4E4E;enable-background:new    ;}
	.st15{opacity:0.346;fill:#585858;enable-background:new    ;}
	.st16{opacity:0.385;fill:#626262;enable-background:new    ;}
	.st17{opacity:0.423;fill:#6C6C6C;enable-background:new    ;}
	.st18{opacity:0.462;fill:#767676;enable-background:new    ;}
	.st19{opacity:0.5;fill:#7F7F7F;enable-background:new    ;}
	.st20{opacity:0.538;fill:#898989;enable-background:new    ;}
	.st21{opacity:0.577;fill:#939393;enable-background:new    ;}
	.st22{opacity:0.615;fill:#9D9D9D;enable-background:new    ;}
	.st23{opacity:0.654;fill:#A7A7A7;enable-background:new    ;}
	.st24{opacity:0.692;fill:#B1B1B1;enable-background:new    ;}
	.st25{opacity:0.731;fill:#BABABA;enable-background:new    ;}
	.st26{opacity:0.769;fill:#C4C4C4;enable-background:new    ;}
	.st27{opacity:0.808;fill:#CECECE;enable-background:new    ;}
	.st28{opacity:0.846;fill:#D8D8D8;enable-background:new    ;}
	.st29{opacity:0.885;fill:#E2E2E2;enable-background:new    ;}
	.st30{opacity:0.923;fill:#EBEBEB;enable-background:new    ;}
	.st31{opacity:0.962;fill:#F5F5F5;enable-background:new    ;}
	.st32{fill:#FFFFFF;}
	.st33{fill:url(#Trazado_110756_1_);}
	.st34{opacity:0.2;fill:url(#Trazado_110757_1_);enable-background:new    ;}
	.st35{opacity:0.4;fill:url(#Trazado_110758_1_);enable-background:new    ;}
	.st36{fill:url(#Trazado_110786_1_);}
	.st37{opacity:0.2;fill:url(#Trazado_110787_1_);enable-background:new    ;}
	.st38{opacity:0.2;fill:url(#Trazado_110788_1_);enable-background:new    ;}
	.st39{opacity:0.4;fill:url(#Trazado_110789_1_);enable-background:new    ;}
	.st40{opacity:0.2;fill:url(#Trazado_110817_1_);enable-background:new    ;}
	.st41{enable-background:new    ;}
	.st42{fill:#1B2D5B;}
</style>
<metadata>
	<sfw  xmlns="&ns_sfw;">
		<slices></slices>
		<sliceSourceBounds  bottomLeftOrigin="true" height="260.5" width="299.1" x="0.2" y="2.9"></sliceSourceBounds>
	</sfw>
</metadata>
<g id="Grupo_64270" transform="translate(766.76 -910.63)">
	<g id="Grupo_64264" class="st0">
		
			<radialGradient id="Trazado_110725_1_" cx="-855.7593" cy="1638.139" r="0.829" gradientTransform="matrix(63.0562 -37.5829 -37.5841 -63.0541 114910.6797 72170.2266)" gradientUnits="userSpaceOnUse">
			<stop  offset="0" style="stop-color:#CACBCC"/>
			<stop  offset="0.634" style="stop-color:#CACBCC"/>
			<stop  offset="1" style="stop-color:#CACBCC"/>
		</radialGradient>
		<path id="Trazado_110725" class="st1" d="M-490.6,1065.9c10.4,17.4,4.7,39.9-12.7,50.3c0,0,0,0,0,0c-17.4,10.4-39.9,4.7-50.3-12.7
			c-10.4-17.4-4.7-39.9,12.7-50.3C-523.6,1042.8-501,1048.5-490.6,1065.9z"/>
		<g id="Grupo_64262">
			
				<radialGradient id="Trazado_110726_1_" cx="-856.117" cy="1634.0413" r="0.72" gradientTransform="matrix(41.2743 -18.8777 -18.8746 -41.2495 65616.7891 52304.5625)" gradientUnits="userSpaceOnUse">
				<stop  offset="0" style="stop-color:#CACBCC"/>
				<stop  offset="0.634" style="stop-color:#CACBCC"/>
				<stop  offset="1" style="stop-color:#CACBCC"/>
			</radialGradient>
			<path id="Trazado_110726" class="st2" d="M-526.8,1048.3c-5,0.6-9.8,2.3-14.2,4.9c-13.9,8.3-20.7,24.8-16.8,40.5
				C-543.5,1081.7-532.8,1066-526.8,1048.3z"/>
			
				<radialGradient id="Trazado_110727_1_" cx="-856.0108" cy="1634.7754" r="0.671" gradientTransform="matrix(44.5171 -20.3636 -20.3606 -44.4965 70878.4766 56387.5938)" gradientUnits="userSpaceOnUse">
				<stop  offset="0" style="stop-color:#CACBCC"/>
				<stop  offset="0.634" style="stop-color:#CACBCC"/>
				<stop  offset="1" style="stop-color:#CACBCC"/>
			</radialGradient>
			<path id="Trazado_110727" class="st3" d="M-514.2,1120.6c3.8-0.8,7.5-2.3,10.9-4.3c15.3-9.1,21.8-28,15.4-44.7
				C-498.6,1080.6-510.3,1095.8-514.2,1120.6z"/>
		</g>
		
			<linearGradient id="Trazado_110728_1_" gradientUnits="userSpaceOnUse" x1="-850.7711" y1="1635.0433" x2="-849.7531" y2="1635.7714" gradientTransform="matrix(22.9169 0 0 -57.792 18923.4219 95635.0703)">
			<stop  offset="0" style="stop-color:#CACBCC"/>
			<stop  offset="1" style="stop-color:#CACBCC"/>
		</linearGradient>
		<path id="Trazado_110728" class="st4" d="M-532.2,1054.6c-3.8,1.2-7.4,3.1-10.7,5.4c-12.6,9.7-16,27.3-7.8,40.9
			c2.9,4.8,7,8.7,11.8,11.4c-1.2-1.4-2.2-2.9-3.1-4.5C-550.9,1093-550,1071.5-532.2,1054.6z"/>
		<g id="Grupo_64263" class="st5">
			<path id="Trazado_110729" class="st6" d="M-491.3,1102.4c0.7,1.8-5.6,10.6-16.1,15.4c-9.6,4.4-20.2,3.6-21,1.9
				c-0.7-1.8,10.2-5.2,18.3-9.1C-500.9,1106.1-492,1100.6-491.3,1102.4z"/>
			<path id="Trazado_110730" class="st7" d="M-491.5,1102.5c0.7,1.8-5.6,10.5-15.9,15.2c-9.5,4.3-20,3.7-20.7,1.9s10.1-5.1,18.1-9
				C-500.9,1106.3-492.2,1100.8-491.5,1102.5z"/>
			<path id="Trazado_110731" class="st8" d="M-491.7,1102.7c0.7,1.7-5.6,10.4-15.7,15c-9.3,4.3-19.7,3.7-20.4,1.9s10-5,17.9-8.8
				C-501,1106.4-492.4,1100.9-491.7,1102.7z"/>
			<path id="Trazado_110732" class="st9" d="M-491.9,1102.8c0.7,1.7-5.6,10.2-15.6,14.8c-9.2,4.2-19.4,3.7-20.1,2s9.9-4.9,17.6-8.7
				C-501.1,1106.6-492.6,1101.1-491.9,1102.8z"/>
			<path id="Trazado_110733" class="st10" d="M-492.1,1103c0.7,1.7-5.6,10.1-15.4,14.5c-9,4.1-19.2,3.7-19.8,2s9.7-4.8,17.4-8.5
				C-501.2,1106.8-492.8,1101.3-492.1,1103z"/>
			<path id="Trazado_110734" class="st11" d="M-492.3,1103.1c0.7,1.7-5.6,9.9-15.2,14.3c-8.8,4-18.9,3.7-19.6,2s9.6-4.7,17.2-8.4
				C-501.3,1106.9-493,1101.4-492.3,1103.1z"/>
			<path id="Trazado_110735" class="st12" d="M-492.5,1103.3c0.7,1.6-5.6,9.8-15,14.1c-8.7,4-18.6,3.7-19.3,2.1s9.5-4.6,17-8.2
				C-501.4,1107.1-493.2,1101.6-492.5,1103.3z"/>
			<path id="Trazado_110736" class="st13" d="M-492.7,1103.4c0.7,1.6-5.6,9.6-14.8,13.9c-8.5,3.9-18.3,3.7-19,2.1s9.4-4.6,16.7-8.1
				C-501.4,1107.3-493.4,1101.8-492.7,1103.4z"/>
			<path id="Trazado_110737" class="st14" d="M-492.9,1103.5c0.6,1.6-5.6,9.5-14.7,13.6c-8.3,3.8-18.1,3.7-18.7,2.2
				s9.3-4.5,16.5-7.9C-501.5,1107.4-493.6,1102-492.9,1103.5z"/>
			<path id="Trazado_110738" class="st15" d="M-493.1,1103.7c0.6,1.6-5.6,9.3-14.5,13.4c-8.2,3.7-17.8,3.7-18.4,2.2
				s9.1-4.4,16.3-7.8C-501.6,1107.6-493.8,1102.1-493.1,1103.7z"/>
			<path id="Trazado_110739" class="st16" d="M-493.3,1103.8c0.6,1.5-5.6,9.2-14.3,13.2c-8,3.7-17.5,3.8-18.1,2.2s9-4.3,16.1-7.6
				C-501.7,1107.8-493.9,1102.3-493.3,1103.8z"/>
			<path id="Trazado_110740" class="st17" d="M-493.5,1104c0.6,1.5-5.6,9.1-14.1,12.9c-7.8,3.6-17.2,3.8-17.9,2.3s8.9-4.2,15.8-7.5
				C-501.8,1107.9-494.1,1102.5-493.5,1104z"/>
			<path id="Trazado_110741" class="st18" d="M-493.7,1104.1c0.6,1.5-5.6,8.9-13.9,12.7c-7.7,3.5-17,3.8-17.6,2.3s8.8-4.1,15.6-7.3
				C-501.8,1108.1-494.3,1102.6-493.7,1104.1z"/>
			<path id="Trazado_110742" class="st19" d="M-493.9,1104.3c0.6,1.4-5.6,8.8-13.8,12.5c-7.5,3.4-16.7,3.8-17.3,2.3s8.7-4,15.4-7.2
				C-501.9,1108.2-494.5,1102.8-493.9,1104.3z"/>
			<path id="Trazado_110743" class="st20" d="M-494.1,1104.4c0.6,1.4-5.6,8.6-13.6,12.3c-7.4,3.4-16.4,3.8-17,2.4s8.5-3.9,15.2-7
				C-502,1108.4-494.7,1103-494.1,1104.4z"/>
			<path id="Trazado_110744" class="st21" d="M-494.3,1104.6c0.6,1.4-5.6,8.5-13.4,12c-7.2,3.3-16.1,3.8-16.7,2.4s8.4-3.8,14.9-6.9
				C-502.1,1108.6-494.9,1103.2-494.3,1104.6z"/>
			<path id="Trazado_110745" class="st22" d="M-494.5,1104.7c0.6,1.4-5.6,8.3-13.2,11.8c-7,3.2-15.9,3.8-16.4,2.5s8.3-3.7,14.7-6.7
				C-502.2,1108.7-495.1,1103.3-494.5,1104.7z"/>
			<path id="Trazado_110746" class="st23" d="M-494.7,1104.8c0.5,1.3-5.6,8.2-13.1,11.6c-6.9,3.1-15.6,3.8-16.1,2.5
				s8.2-3.6,14.5-6.6C-502.3,1108.9-495.3,1103.5-494.7,1104.8z"/>
			<path id="Trazado_110747" class="st24" d="M-494.9,1105c0.5,1.3-5.6,8-12.9,11.4c-6.7,3.1-15.3,3.8-15.9,2.5s8.1-3.5,14.3-6.4
				C-502.3,1109.1-495.5,1103.7-494.9,1105z"/>
			<path id="Trazado_110748" class="st25" d="M-495.1,1105.1c0.5,1.3-5.6,7.9-12.7,11.1c-6.5,3-15,3.9-15.6,2.6s7.9-3.4,14-6.3
				C-502.4,1109.2-495.7,1103.8-495.1,1105.1z"/>
			<path id="Trazado_110749" class="st26" d="M-495.3,1105.3c0.5,1.3-5.6,7.7-12.5,10.9c-6.4,2.9-14.8,3.9-15.3,2.6
				s7.8-3.3,13.8-6.2C-502.5,1109.4-495.8,1104-495.3,1105.3z"/>
			<path id="Trazado_110750" class="st27" d="M-495.5,1105.4c0.5,1.2-5.6,7.6-12.3,10.7c-6.2,2.8-14.5,3.9-15,2.6s7.7-3.2,13.6-6
				C-502.6,1109.6-496,1104.2-495.5,1105.4z"/>
			<path id="Trazado_110751" class="st28" d="M-495.7,1105.6c0.5,1.2-5.6,7.5-12.2,10.5c-6,2.7-14.2,3.9-14.7,2.7s7.6-3.1,13.4-5.9
				C-502.7,1109.7-496.2,1104.4-495.7,1105.6z"/>
			<path id="Trazado_110752" class="st29" d="M-495.9,1105.7c0.5,1.2-5.6,7.3-12,10.2c-5.9,2.7-13.9,3.9-14.4,2.7s7.5-3,13.1-5.7
				C-502.7,1109.9-496.4,1104.5-495.9,1105.7z"/>
			<path id="Trazado_110753" class="st30" d="M-496.1,1105.9c0.5,1.2-5.6,7.2-11.8,10c-5.7,2.6-13.7,3.9-14.2,2.8s7.3-2.9,12.9-5.6
				C-502.8,1110.1-496.6,1104.7-496.1,1105.9z"/>
			<path id="Trazado_110754" class="st31" d="M-496.3,1106c0.5,1.1-5.6,7-11.6,9.8c-5.6,2.5-13.4,3.9-13.9,2.8s7.2-2.8,12.7-5.4
				C-502.9,1110.2-496.8,1104.9-496.3,1106z"/>
			<path id="Trazado_110755" class="st32" d="M-496.5,1106.2c0.5,1.1-5.6,6.9-11.4,9.5c-5.4,2.4-13.1,3.9-13.6,2.8s7.1-2.7,12.5-5.3
				C-503,1110.4-497,1105-496.5,1106.2z"/>
		</g>
	</g>
	<g id="Grupo_64266" class="st0">
		
			<radialGradient id="Trazado_110756_1_" cx="-855.4565" cy="1638.9609" r="0.829" gradientTransform="matrix(72.9498 -43.4796 -43.4812 -72.9473 132917.625 83399.5469)" gradientUnits="userSpaceOnUse">
			<stop  offset="0" style="stop-color:#CACBCC"/>
			<stop  offset="0.634" style="stop-color:#CACBCC"/>
			<stop  offset="1" style="stop-color:#CACBCC"/>
		</radialGradient>
		<path id="Trazado_110756" class="st33" d="M-668.5,1058.2c12,20.1,5.4,46.2-14.7,58.2c0,0,0,0,0,0c-20.1,12-46.2,5.4-58.2-14.7
			c0,0,0,0,0,0c-12-20.1-5.4-46.2,14.7-58.2c0,0,0,0,0,0C-706.6,1031.5-680.5,1038.1-668.5,1058.2z"/>
		
			<radialGradient id="Trazado_110757_1_" cx="-855.109" cy="1637.7294" r="0.734" gradientTransform="matrix(63.3198 -28.9643 -28.931 -63.2897 100841.7734 79940.5078)" gradientUnits="userSpaceOnUse">
			<stop  offset="0" style="stop-color:#CACBCC"/>
			<stop  offset="0.634" style="stop-color:#CACBCC"/>
			<stop  offset="1" style="stop-color:#CACBCC"/>
		</radialGradient>
		<path id="Trazado_110757" class="st34" d="M-672.4,1107.2c11.5-13.8,13-33.4,3.8-48.9c-8.7-14.7-25.4-22.6-42.3-20.3
			C-709.6,1054.8-703,1087.2-672.4,1107.2z"/>
		
			<linearGradient id="Trazado_110758_1_" gradientUnits="userSpaceOnUse" x1="-850.1497" y1="1636.95" x2="-849.1328" y2="1637.679" gradientTransform="matrix(26.5148 0 0 -66.8632 21807.1543 110544.3203)">
			<stop  offset="0" style="stop-color:#CACBCC"/>
			<stop  offset="1" style="stop-color:#CACBCC"/>
		</linearGradient>
		<path id="Trazado_110758" class="st35" d="M-716.6,1045.2c-4.4,1.4-8.6,3.5-12.3,6.3c-14.6,11.2-18.5,31.6-9,47.4
			c3.3,5.6,8,10.1,13.7,13.2c-1.3-1.7-2.5-3.4-3.6-5.2C-738.2,1089.6-737.2,1064.7-716.6,1045.2z"/>
		<g id="Grupo_64265" class="st5">
			<path id="Trazado_110759" class="st6" d="M-669.3,1100.4c0.8,2.1-6.5,12.3-18.6,17.9c-11.2,5.1-23.4,4.2-24.3,2.2
				s11.8-6,21.2-10.6C-680.4,1104.7-670.2,1098.3-669.3,1100.4z"/>
			<path id="Trazado_110760" class="st7" d="M-669.5,1100.6c0.8,2-6.5,12.1-18.4,17.6c-11,5-23.1,4.2-23.9,2.2s11.7-5.9,20.9-10.4
				C-680.5,1104.9-670.4,1098.5-669.5,1100.6z"/>
			<path id="Trazado_110761" class="st8" d="M-669.8,1100.8c0.8,2-6.5,12-18.2,17.3c-10.8,4.9-22.8,4.2-23.6,2.2s11.5-5.8,20.7-10.2
				C-680.5,1105.1-670.6,1098.7-669.8,1100.8z"/>
			<path id="Trazado_110762" class="st9" d="M-670,1100.9c0.8,2-6.5,11.8-18,17.1c-10.6,4.8-22.5,4.3-23.3,2.3s11.4-5.7,20.4-10.1
				C-680.6,1105.3-670.8,1098.9-670,1100.9z"/>
			<path id="Trazado_110763" class="st10" d="M-670.2,1101.1c0.8,1.9-6.5,11.6-17.8,16.8c-10.4,4.8-22.2,4.3-23,2.3
				s11.3-5.6,20.1-9.9C-680.7,1105.5-671,1099.1-670.2,1101.1z"/>
			<path id="Trazado_110764" class="st11" d="M-670.5,1101.3c0.8,1.9-6.5,11.5-17.6,16.5c-10.2,4.7-21.8,4.3-22.6,2.4
				s11.1-5.5,19.9-9.7C-680.8,1105.7-671.3,1099.3-670.5,1101.3z"/>
			<path id="Trazado_110765" class="st12" d="M-670.7,1101.4c0.8,1.9-6.5,11.3-17.4,16.3c-10,4.6-21.5,4.3-22.3,2.4s11-5.4,19.6-9.5
				C-680.9,1105.9-671.5,1099.5-670.7,1101.4z"/>
			<path id="Trazado_110766" class="st13" d="M-670.9,1101.6c0.8,1.9-6.5,11.1-17.2,16c-9.8,4.5-21.2,4.3-22,2.5s10.8-5.3,19.4-9.4
				C-681,1106-671.7,1099.7-670.9,1101.6z"/>
			<path id="Trazado_110767" class="st14" d="M-671.2,1101.8c0.7,1.8-6.5,11-17,15.8c-9.6,4.4-20.9,4.3-21.6,2.5s10.7-5.2,19.1-9.2
				C-681.1,1106.2-671.9,1099.9-671.2,1101.8z"/>
			<path id="Trazado_110768" class="st15" d="M-671.4,1101.9c0.7,1.8-6.5,10.8-16.8,15.5c-9.5,4.3-20.6,4.3-21.3,2.5s10.6-5,18.8-9
				C-681.2,1106.4-672.1,1100.1-671.4,1101.9z"/>
			<path id="Trazado_110769" class="st16" d="M-671.6,1102.1c0.7,1.8-6.5,10.6-16.5,15.2c-9.3,4.2-20.3,4.4-21,2.6
				s10.4-4.9,18.6-8.8C-681.3,1106.6-672.4,1100.3-671.6,1102.1z"/>
			<path id="Trazado_110770" class="st17" d="M-671.9,1102.3c0.7,1.7-6.5,10.5-16.3,15c-9.1,4.1-19.9,4.4-20.7,2.6
				s10.3-4.8,18.3-8.7C-681.4,1106.8-672.6,1100.5-671.9,1102.3z"/>
			<path id="Trazado_110771" class="st18" d="M-672.1,1102.4c0.7,1.7-6.5,10.3-16.1,14.7c-8.9,4.1-19.6,4.4-20.3,2.7
				s10.2-4.7,18.1-8.5C-681.5,1107-672.8,1100.7-672.1,1102.4z"/>
			<path id="Trazado_110772" class="st19" d="M-672.3,1102.6c0.7,1.7-6.5,10.1-15.9,14.4c-8.7,4-19.3,4.4-20,2.7s10-4.6,17.8-8.3
				C-681.6,1107.2-673,1100.9-672.3,1102.6z"/>
			<path id="Trazado_110773" class="st20" d="M-672.6,1102.8c0.7,1.6-6.5,10-15.7,14.2c-8.5,3.9-19,4.4-19.7,2.8s9.9-4.5,17.5-8.2
				C-681.7,1107.4-673.2,1101.1-672.6,1102.8z"/>
			<path id="Trazado_110774" class="st21" d="M-672.8,1102.9c0.7,1.6-6.5,9.8-15.5,13.9c-8.3,3.8-18.7,4.4-19.3,2.8s9.7-4.4,17.3-8
				C-681.8,1107.6-673.5,1101.3-672.8,1102.9z"/>
			<path id="Trazado_110775" class="st22" d="M-673,1103.1c0.7,1.6-6.5,9.6-15.3,13.7c-8.1,3.7-18.4,4.4-19,2.8s9.6-4.3,17-7.8
				C-681.9,1107.8-673.7,1101.5-673,1103.1z"/>
			<path id="Trazado_110776" class="st23" d="M-673.3,1103.3c0.6,1.6-6.5,9.5-15.1,13.4c-7.9,3.6-18,4.4-18.7,2.9s9.5-4.2,16.8-7.6
				C-682,1108-673.9,1101.7-673.3,1103.3z"/>
			<path id="Trazado_110777" class="st24" d="M-673.5,1103.4c0.6,1.5-6.5,9.3-14.9,13.1c-7.7,3.5-17.7,4.5-18.3,2.9
				s9.3-4.1,16.5-7.5C-682.1,1108.1-674.1,1101.9-673.5,1103.4z"/>
			<path id="Trazado_110778" class="st25" d="M-673.7,1103.6c0.6,1.5-6.4,9.1-14.7,12.9c-7.6,3.4-17.4,4.5-18,3s9.2-3.9,16.2-7.3
				C-682.2,1108.3-674.3,1102.1-673.7,1103.6z"/>
			<path id="Trazado_110779" class="st26" d="M-674,1103.8c0.6,1.5-6.4,9-14.5,12.6c-7.4,3.4-17.1,4.5-17.7,3s9.1-3.8,16-7.1
				C-682.3,1108.5-674.6,1102.3-674,1103.8z"/>
			<path id="Trazado_110780" class="st27" d="M-674.2,1103.9c0.6,1.4-6.4,8.8-14.3,12.4c-7.2,3.3-16.8,4.5-17.4,3.1
				s8.9-3.7,15.7-6.9C-682.3,1108.7-674.8,1102.5-674.2,1103.9z"/>
			<path id="Trazado_110781" class="st28" d="M-674.4,1104.1c0.6,1.4-6.4,8.6-14.1,12.1c-7,3.2-16.5,4.5-17,3.1s8.8-3.6,15.5-6.8
				C-682.4,1108.9-675,1102.7-674.4,1104.1z"/>
			<path id="Trazado_110782" class="st29" d="M-674.7,1104.3c0.6,1.4-6.4,8.5-13.9,11.8c-6.8,3.1-16.1,4.5-16.7,3.1
				s8.6-3.5,15.2-6.6C-682.5,1109.1-675.2,1102.9-674.7,1104.3z"/>
			<path id="Trazado_110783" class="st30" d="M-674.9,1104.4c0.5,1.3-6.4,8.3-13.7,11.6c-6.6,3-15.8,4.5-16.4,3.2s8.5-3.4,15-6.4
				C-682.6,1109.3-675.4,1103.1-674.9,1104.4z"/>
			<path id="Trazado_110784" class="st31" d="M-675.1,1104.6c0.5,1.3-6.4,8.1-13.5,11.3c-6.4,2.9-15.5,4.5-16,3.2s8.4-3.3,14.7-6.3
				C-682.7,1109.5-675.7,1103.3-675.1,1104.6z"/>
			<path id="Trazado_110785" class="st32" d="M-675.4,1104.8c0.5,1.3-6.4,8-13.2,11c-6.2,2.8-15.2,4.6-15.7,3.3
				c-0.5-1.3,8.2-3.2,14.4-6.1C-682.8,1109.7-675.9,1103.5-675.4,1104.8z"/>
		</g>
	</g>
	<g id="Grupo_64269" class="st0">
		
			<radialGradient id="Trazado_110786_1_" cx="-854.4709" cy="1641.6366" r="0.829" gradientTransform="matrix(149.1248 -88.8817 -88.8847 -149.1198 272632.6562 169847.7656)" gradientUnits="userSpaceOnUse">
			<stop  offset="0" style="stop-color:#B6E7FA"/>
			<stop  offset="0.634" style="stop-color:#55C3E5"/>
			<stop  offset="1" style="stop-color:#1991C2"/>
		</radialGradient>
		<path id="Trazado_110786" class="st36" d="M-543.9,982c24.6,41.2,11.1,94.4-30.1,119c-41.2,24.5-94.4,11.1-119-30.1
			c-24.6-41.1-11.1-94.4,30-119c0,0,0,0,0,0C-621.8,927.4-568.5,940.9-543.9,982C-543.9,982-543.9,982-543.9,982z"/>
		<g id="Grupo_64267">
			
				<radialGradient id="Trazado_110787_1_" cx="-863.5382" cy="1603.79" r="3.01" gradientTransform="matrix(10.3653 -4.74 -4.7434 -10.3574 15960.3506 13467.0635)" gradientUnits="userSpaceOnUse">
				<stop  offset="0" style="stop-color:#B6E7FA"/>
				<stop  offset="0.634" style="stop-color:#55C3E5"/>
				<stop  offset="1" style="stop-color:#1991C2"/>
			</radialGradient>
			<path id="Trazado_110787" class="st37" d="M-649.2,945.4c12.5,5.5,33,10,58.6-1.1C-609.7,937.8-630.4,938.2-649.2,945.4z"/>
			
				<radialGradient id="Trazado_110788_1_" cx="-854.768" cy="1639.3865" r="0.708" gradientTransform="matrix(85.1076 -38.9302 -38.9345 -85.0662 135889.375 107226.4453)" gradientUnits="userSpaceOnUse">
				<stop  offset="0" style="stop-color:#B6E7FA"/>
				<stop  offset="0.634" style="stop-color:#55C3E5"/>
				<stop  offset="1" style="stop-color:#1991C2"/>
			</radialGradient>
			<path id="Trazado_110788" class="st38" d="M-663.8,1042.1c-14.7-26-29.4-31.1-40.2-30c-3.4,20.3,0.5,41.1,11.1,58.8
				c9.1,15.3,22.7,27.4,38.9,34.6C-649.2,1093.7-646.5,1072.7-663.8,1042.1z"/>
		</g>
		
			<linearGradient id="Trazado_110789_1_" gradientUnits="userSpaceOnUse" x1="-851.8514" y1="1640.4911" x2="-850.8334" y2="1641.2201" gradientTransform="matrix(54.192 0 0 -136.6689 45483.5117 225259.0469)">
			<stop  offset="0" style="stop-color:#76A6FA"/>
			<stop  offset="1" style="stop-color:#FFFDFC"/>
		</linearGradient>
		<path id="Trazado_110789" class="st39" d="M-642.3,955.3c-7.8,2.1-17.4,7.3-25.2,12.8c-29.8,22.9-37.8,64.5-18.5,96.8
			c6.8,11.4,16.4,20.7,28,27c-2.7-3.4-5.2-6.9-7.4-10.7C-686.4,1046.1-684.4,995.2-642.3,955.3z"/>
		<g id="Grupo_64268" class="st5">
			<path id="Trazado_110790" class="st6" d="M-545.5,1068.2c1.7,4.2-13.3,25.2-38,36.5c-22.8,10.4-47.9,8.6-49.6,4.4
				c-1.7-4.2,24.2-12.4,43.3-21.6C-568.1,1077-547.3,1064-545.5,1068.2z"/>
			<path id="Trazado_110791" class="st7" d="M-546,1068.6c1.7,4.2-13.3,24.8-37.6,36c-22.4,10.3-47.2,8.7-48.9,4.5
				c-1.7-4.2,23.9-12.1,42.8-21.2C-568.3,1077.4-547.7,1064.4-546,1068.6z"/>
			<path id="Trazado_110792" class="st8" d="M-546.5,1068.9c1.7,4.1-13.3,24.5-37.2,35.4c-22,10.1-46.6,8.7-48.3,4.6
				c-1.7-4.1,23.6-11.9,42.2-20.9C-568.5,1077.8-548.2,1064.8-546.5,1068.9z"/>
			<path id="Trazado_110793" class="st9" d="M-546.9,1069.3c1.7,4-13.3,24.1-36.8,34.9c-21.7,9.9-45.9,8.7-47.6,4.7
				s23.3-11.7,41.7-20.5C-568.7,1078.2-548.6,1065.2-546.9,1069.3z"/>
			<path id="Trazado_110794" class="st10" d="M-547.4,1069.6c1.6,4-13.3,23.8-36.4,34.4c-21.3,9.7-45.3,8.7-46.9,4.8
				s23-11.4,41.2-20.2C-568.9,1078.6-549.1,1065.6-547.4,1069.6z"/>
			<path id="Trazado_110795" class="st11" d="M-547.9,1070c1.6,3.9-13.3,23.4-35.9,33.8c-20.9,9.5-44.6,8.8-46.3,4.8
				s22.7-11.2,40.6-19.8C-569.1,1079-549.5,1066-547.9,1070z"/>
			<path id="Trazado_110796" class="st12" d="M-548.4,1070.3c1.6,3.9-13.2,23.1-35.5,33.3c-20.5,9.4-44,8.8-45.6,4.9
				s22.5-11,40.1-19.5C-569.3,1079.4-550,1066.4-548.4,1070.3z"/>
			<path id="Trazado_110797" class="st13" d="M-548.8,1070.6c1.6,3.8-13.2,22.8-35.1,32.7c-20.1,9.2-43.3,8.8-44.9,5
				s22.2-10.8,39.6-19.1C-569.5,1079.8-550.4,1066.8-548.8,1070.6z"/>
			<path id="Trazado_110798" class="st14" d="M-549.3,1071c1.5,3.7-13.2,22.4-34.7,32.2c-19.7,9-42.7,8.8-44.2,5.1
				s21.9-10.5,39-18.8C-569.7,1080.1-550.9,1067.2-549.3,1071z"/>
			<path id="Trazado_110799" class="st15" d="M-549.8,1071.3c1.5,3.7-13.2,22.1-34.2,31.7c-19.3,8.8-42.1,8.9-43.6,5.2
				s21.6-10.3,38.5-18.4C-569.8,1080.5-551.3,1067.7-549.8,1071.3z"/>
			<path id="Trazado_110800" class="st16" d="M-550.3,1071.7c1.5,3.6-13.2,21.7-33.8,31.1c-18.9,8.6-41.4,8.9-42.9,5.3
				s21.3-10.1,38-18.1C-570,1080.9-551.8,1068.1-550.3,1071.7z"/>
			<path id="Trazado_110801" class="st17" d="M-550.8,1072c1.5,3.5-13.2,21.4-33.4,30.6c-18.6,8.5-40.8,8.9-42.2,5.4
				s21-9.9,37.5-17.7C-570.2,1081.3-552.2,1068.5-550.8,1072z"/>
			<path id="Trazado_110802" class="st18" d="M-551.2,1072.4c1.4,3.5-13.2,21-33,30.1c-18.2,8.3-40.1,8.9-41.5,5.5
				s20.8-9.6,36.9-17.4C-570.4,1081.7-552.7,1068.9-551.2,1072.4z"/>
			<path id="Trazado_110803" class="st19" d="M-551.7,1072.7c1.4,3.4-13.2,20.7-32.6,29.5c-17.8,8.1-39.5,9-40.9,5.5
				s20.5-9.4,36.4-17C-570.6,1082.1-553.1,1069.3-551.7,1072.7z"/>
			<path id="Trazado_110804" class="st20" d="M-552.2,1073c1.4,3.4-13.2,20.4-32.1,29c-17.4,7.9-38.8,9-40.2,5.6s20.2-9.2,35.9-16.7
				C-570.8,1082.5-553.6,1069.7-552.2,1073z"/>
			<path id="Trazado_110805" class="st21" d="M-552.7,1073.4c1.3,3.3-13.2,20-31.7,28.5c-17,7.8-38.2,9-39.5,5.7s19.9-9,35.3-16.3
				C-571,1082.9-554,1070.1-552.7,1073.4z"/>
			<path id="Trazado_110806" class="st22" d="M-553.1,1073.7c1.3,3.2-13.2,19.7-31.3,27.9c-16.6,7.6-37.5,9-38.9,5.8
				s19.6-8.7,34.8-16C-571.2,1083.3-554.5,1070.5-553.1,1073.7z"/>
			<path id="Trazado_110807" class="st23" d="M-553.6,1074.1c1.3,3.2-13.2,19.3-30.9,27.4c-16.2,7.4-36.9,9.1-38.2,5.9
				s19.4-8.5,34.3-15.6C-571.4,1083.7-554.9,1070.9-553.6,1074.1z"/>
			<path id="Trazado_110808" class="st24" d="M-554.1,1074.4c1.3,3.1-13.2,19-30.5,26.9c-15.8,7.2-36.2,9.1-37.5,6
				s19.1-8.3,33.7-15.3C-571.6,1084.1-555.4,1071.3-554.1,1074.4z"/>
			<path id="Trazado_110809" class="st25" d="M-554.6,1074.7c1.2,3-13.2,18.6-30,26.3c-15.5,7-35.6,9.1-36.8,6.1s18.8-8.1,33.2-14.9
				C-571.8,1084.4-555.8,1071.7-554.6,1074.7z"/>
			<path id="Trazado_110810" class="st26" d="M-555,1075.1c1.2,3-13.2,18.3-29.6,25.8c-15.1,6.9-34.9,9.2-36.2,6.2
				s18.5-7.8,32.7-14.6C-572,1084.8-556.3,1072.1-555,1075.1z"/>
			<path id="Trazado_110811" class="st27" d="M-555.5,1075.4c1.2,2.9-13.2,18-29.2,25.3c-14.7,6.7-34.3,9.2-35.5,6.3
				s18.2-7.6,32.2-14.2C-572.2,1085.2-556.7,1072.5-555.5,1075.4z"/>
			<path id="Trazado_110812" class="st28" d="M-556,1075.8c1.2,2.9-13.2,17.6-28.8,24.7c-14.3,6.5-33.6,9.2-34.8,6.3
				s17.9-7.4,31.6-13.8C-572.4,1085.6-557.2,1072.9-556,1075.8z"/>
			<path id="Trazado_110813" class="st29" d="M-556.5,1076.1c1.1,2.8-13.2,17.3-28.3,24.2c-13.9,6.3-33,9.2-34.1,6.4
				s17.7-7.2,31.1-13.5C-572.6,1086-557.6,1073.3-556.5,1076.1z"/>
			<path id="Trazado_110814" class="st30" d="M-556.9,1076.5c1.1,2.7-13.2,16.9-27.9,23.6c-13.5,6.2-32.3,9.3-33.5,6.5
				s17.4-6.9,30.6-13.1C-572.8,1086.4-558.1,1073.7-556.9,1076.5z"/>
			<path id="Trazado_110815" class="st31" d="M-557.4,1076.8c1.1,2.7-13.2,16.6-27.5,23.1c-13.1,6-31.7,9.3-32.8,6.6
				s17.1-6.7,30-12.8C-573,1086.8-558.5,1074.1-557.4,1076.8z"/>
			<path id="Trazado_110816" class="st32" d="M-557.9,1077.1c1.1,2.6-13.2,16.2-27.1,22.6c-12.7,5.8-31.1,9.3-32.1,6.7
				s16.8-6.5,29.5-12.4C-573.1,1087.2-559,1074.5-557.9,1077.1z"/>
		</g>
		
			<radialGradient id="Trazado_110817_1_" cx="-855.2663" cy="1637.4244" r="0.731" gradientTransform="matrix(62.1804 -28.4461 -28.4485 -62.1574 99183.7969 78513.4141)" gradientUnits="userSpaceOnUse">
			<stop  offset="0" style="stop-color:#B6E7FA"/>
			<stop  offset="0.634" style="stop-color:#55C3E5"/>
			<stop  offset="1" style="stop-color:#1991C2"/>
		</radialGradient>
		<path id="Trazado_110817" class="st40" d="M-583.2,1105.8c3.2-1.4,6.2-3,9.2-4.7c22.9-13.7,38.3-37.1,41.6-63.6
			C-552.4,1044.4-580.9,1062.1-583.2,1105.8z"/>
	</g>
	<g class="st41">
		<path class="st42" d="M-760.7,1145.5h-3.8l-0.9,2.4h-1.2l3.5-9.1h1.1l3.5,9.1h-1.2L-760.7,1145.5z M-764.1,1144.6h3.1l-1.6-4.3
			L-764.1,1144.6z M-762,1136.4h1.4l-1.7,1.8l-0.9,0L-762,1136.4z"/>
		<path class="st42" d="M-755.9,1139.5v1.6h1.3v0.9h-1.3v4.2c0,0.3,0.1,0.5,0.2,0.6s0.3,0.2,0.6,0.2c0.1,0,0.3,0,0.6-0.1v0.9
			c-0.3,0.1-0.6,0.1-0.9,0.1c-0.5,0-0.9-0.2-1.2-0.5s-0.4-0.8-0.4-1.3v-4.2h-1.2v-0.9h1.2v-1.6H-755.9z"/>
		<path class="st42" d="M-753.7,1144.5c0-0.7,0.1-1.3,0.4-1.8c0.3-0.5,0.6-0.9,1.1-1.2s1-0.4,1.6-0.4c0.9,0,1.7,0.3,2.2,1
			c0.6,0.6,0.9,1.5,0.9,2.6v0.1c0,0.7-0.1,1.3-0.4,1.8s-0.6,0.9-1.1,1.2c-0.5,0.3-1,0.4-1.6,0.4c-0.9,0-1.7-0.3-2.2-1
			C-753.5,1146.5-753.7,1145.6-753.7,1144.5L-753.7,1144.5z M-752.6,1144.6c0,0.8,0.2,1.4,0.5,1.8c0.3,0.5,0.8,0.7,1.4,0.7
			c0.6,0,1.1-0.2,1.4-0.7c0.3-0.5,0.5-1.1,0.5-1.9c0-0.7-0.2-1.3-0.5-1.8s-0.8-0.7-1.4-0.7c-0.6,0-1,0.2-1.4,0.7
			C-752.4,1143.1-752.6,1143.8-752.6,1144.6z"/>
		<path class="st42" d="M-745,1141.1l0,0.8c0.5-0.6,1.2-0.9,2-0.9c0.9,0,1.6,0.4,1.9,1.1c0.2-0.3,0.5-0.6,0.9-0.8
			c0.4-0.2,0.8-0.3,1.3-0.3c1.5,0,2.2,0.8,2.3,2.4v4.5h-1.2v-4.5c0-0.5-0.1-0.8-0.3-1.1c-0.2-0.2-0.6-0.4-1.1-0.4
			c-0.4,0-0.8,0.1-1.1,0.4s-0.4,0.6-0.5,1v4.5h-1.2v-4.4c0-1-0.5-1.5-1.4-1.5c-0.8,0-1.3,0.3-1.6,1v5h-1.2v-6.8H-745z"/>
		<path class="st42" d="M-735.2,1144.5c0-0.7,0.1-1.3,0.4-1.8c0.3-0.5,0.6-0.9,1.1-1.2s1-0.4,1.6-0.4c0.9,0,1.7,0.3,2.2,1
			c0.6,0.6,0.9,1.5,0.9,2.6v0.1c0,0.7-0.1,1.3-0.4,1.8s-0.6,0.9-1.1,1.2c-0.5,0.3-1,0.4-1.6,0.4c-0.9,0-1.7-0.3-2.2-1
			C-734.9,1146.5-735.2,1145.6-735.2,1144.5L-735.2,1144.5z M-734,1144.6c0,0.8,0.2,1.4,0.5,1.8c0.3,0.5,0.8,0.7,1.4,0.7
			c0.6,0,1.1-0.2,1.4-0.7c0.3-0.5,0.5-1.1,0.5-1.9c0-0.7-0.2-1.3-0.5-1.8s-0.8-0.7-1.4-0.7c-0.6,0-1,0.2-1.4,0.7
			C-733.8,1143.1-734,1143.8-734,1144.6z"/>
		<path class="st42" d="M-724.7,1144.5c0-1,0.2-1.9,0.7-2.5c0.5-0.6,1.1-1,1.9-1c0.8,0,1.4,0.3,1.9,0.8v-3.5h1.2v9.6h-1.1l-0.1-0.7
			c-0.5,0.6-1.1,0.9-1.9,0.9c-0.8,0-1.4-0.3-1.9-1C-724.4,1146.4-724.7,1145.6-724.7,1144.5L-724.7,1144.5z M-723.5,1144.6
			c0,0.8,0.2,1.4,0.5,1.8c0.3,0.4,0.8,0.7,1.3,0.7c0.7,0,1.3-0.3,1.6-1v-3.1c-0.3-0.6-0.9-1-1.6-1c-0.6,0-1,0.2-1.3,0.7
			C-723.3,1143.1-723.5,1143.7-723.5,1144.6z"/>
		<path class="st42" d="M-714.3,1148c-0.9,0-1.7-0.3-2.2-0.9s-0.9-1.4-0.9-2.4v-0.2c0-0.7,0.1-1.3,0.4-1.8s0.6-0.9,1.1-1.2
			c0.5-0.3,1-0.4,1.5-0.4c0.9,0,1.6,0.3,2.1,0.9c0.5,0.6,0.7,1.4,0.7,2.5v0.5h-4.6c0,0.7,0.2,1.2,0.6,1.6c0.4,0.4,0.8,0.6,1.4,0.6
			c0.4,0,0.8-0.1,1-0.2c0.3-0.2,0.5-0.4,0.7-0.7l0.7,0.6C-712.3,1147.6-713.2,1148-714.3,1148z M-714.5,1142c-0.5,0-0.9,0.2-1.2,0.5
			s-0.5,0.8-0.6,1.4h3.4v-0.1c0-0.6-0.2-1-0.5-1.4C-713.6,1142.1-714,1142-714.5,1142z"/>
		<path class="st42" d="M-706,1142c0.5-0.6,1.2-0.9,2-0.9c1.4,0,2.2,0.8,2.2,2.4v4.5h-1.2v-4.5c0-0.5-0.1-0.9-0.3-1.1
			c-0.2-0.2-0.6-0.4-1-0.4c-0.4,0-0.7,0.1-1,0.3s-0.5,0.5-0.7,0.8v4.8h-1.2v-9.6h1.2V1142z"/>
		<path class="st42" d="M-700.1,1139.3c0-0.2,0.1-0.3,0.2-0.5c0.1-0.1,0.3-0.2,0.5-0.2s0.4,0.1,0.5,0.2c0.1,0.1,0.2,0.3,0.2,0.5
			c0,0.2-0.1,0.3-0.2,0.5c-0.1,0.1-0.3,0.2-0.5,0.2s-0.4-0.1-0.5-0.2C-700,1139.7-700.1,1139.5-700.1,1139.3z M-698.8,1147.9h-1.2
			v-6.8h1.2V1147.9z"/>
		<path class="st42" d="M-697.3,1144.5c0-1,0.2-1.9,0.7-2.5c0.5-0.6,1.1-1,1.9-1c0.8,0,1.4,0.3,1.9,0.8v-3.5h1.2v9.6h-1.1l-0.1-0.7
			c-0.5,0.6-1.1,0.9-1.9,0.9c-0.8,0-1.4-0.3-1.9-1C-697,1146.4-697.3,1145.6-697.3,1144.5L-697.3,1144.5z M-696.1,1144.6
			c0,0.8,0.2,1.4,0.5,1.8c0.3,0.4,0.8,0.7,1.3,0.7c0.7,0,1.3-0.3,1.6-1v-3.1c-0.3-0.6-0.9-1-1.6-1c-0.6,0-1,0.2-1.3,0.7
			C-695.9,1143.1-696.1,1143.7-696.1,1144.6z"/>
		<path class="st42" d="M-686.5,1142.2c-0.2,0-0.4,0-0.6,0c-0.8,0-1.3,0.3-1.5,1v4.8h-1.2v-6.8h1.1l0,0.8c0.4-0.6,0.9-0.9,1.6-0.9
			c0.2,0,0.4,0,0.5,0.1V1142.2z"/>
		<path class="st42" d="M-685.7,1144.5c0-0.7,0.1-1.3,0.4-1.8c0.3-0.5,0.6-0.9,1.1-1.2s1-0.4,1.6-0.4c0.9,0,1.7,0.3,2.2,1
			c0.6,0.6,0.9,1.5,0.9,2.6v0.1c0,0.7-0.1,1.3-0.4,1.8s-0.6,0.9-1.1,1.2c-0.5,0.3-1,0.4-1.6,0.4c-0.9,0-1.7-0.3-2.2-1
			C-685.4,1146.5-685.7,1145.6-685.7,1144.5L-685.7,1144.5z M-684.5,1144.6c0,0.8,0.2,1.4,0.5,1.8c0.3,0.5,0.8,0.7,1.4,0.7
			c0.6,0,1.1-0.2,1.4-0.7c0.3-0.5,0.5-1.1,0.5-1.9c0-0.7-0.2-1.3-0.5-1.8s-0.8-0.7-1.4-0.7c-0.6,0-1,0.2-1.4,0.7
			C-684.4,1143.1-684.5,1143.8-684.5,1144.6z M-682.1,1138.3h1.4l-1.7,1.8l-0.9,0L-682.1,1138.3z"/>
		<path class="st42" d="M-678.3,1144.5c0-1.1,0.2-1.9,0.7-2.5s1.1-0.9,1.9-0.9c0.8,0,1.5,0.3,1.9,0.9l0.1-0.8h1.1v6.6
			c0,0.9-0.3,1.6-0.8,2.1c-0.5,0.5-1.2,0.8-2.1,0.8c-0.5,0-1-0.1-1.4-0.3s-0.8-0.5-1.1-0.9l0.6-0.7c0.5,0.6,1.1,0.9,1.8,0.9
			c0.6,0,1-0.2,1.3-0.5s0.5-0.8,0.5-1.3v-0.6c-0.5,0.5-1.1,0.8-1.9,0.8c-0.8,0-1.4-0.3-1.9-1
			C-678.1,1146.5-678.3,1145.6-678.3,1144.5z M-677.2,1144.6c0,0.8,0.2,1.4,0.5,1.8c0.3,0.4,0.8,0.7,1.3,0.7c0.7,0,1.3-0.3,1.6-1
			v-3.1c-0.4-0.6-0.9-1-1.6-1c-0.6,0-1,0.2-1.3,0.7C-677,1143.1-677.2,1143.7-677.2,1144.6z"/>
		<path class="st42" d="M-668.1,1148c-0.9,0-1.7-0.3-2.2-0.9s-0.9-1.4-0.9-2.4v-0.2c0-0.7,0.1-1.3,0.4-1.8s0.6-0.9,1.1-1.2
			c0.5-0.3,1-0.4,1.5-0.4c0.9,0,1.6,0.3,2.1,0.9c0.5,0.6,0.7,1.4,0.7,2.5v0.5h-4.6c0,0.7,0.2,1.2,0.6,1.6c0.4,0.4,0.8,0.6,1.4,0.6
			c0.4,0,0.8-0.1,1-0.2c0.3-0.2,0.5-0.4,0.7-0.7l0.7,0.6C-666.1,1147.6-666.9,1148-668.1,1148z M-668.2,1142c-0.5,0-0.9,0.2-1.2,0.5
			s-0.5,0.8-0.6,1.4h3.4v-0.1c0-0.6-0.2-1-0.5-1.4C-667.3,1142.1-667.7,1142-668.2,1142z"/>
		<path class="st42" d="M-663,1141.1l0,0.9c0.5-0.7,1.2-1,2-1c1.4,0,2.2,0.8,2.2,2.4v4.5h-1.2v-4.5c0-0.5-0.1-0.9-0.3-1.1
			c-0.2-0.2-0.6-0.4-1-0.4c-0.4,0-0.7,0.1-1,0.3s-0.5,0.5-0.7,0.8v4.8h-1.2v-6.8H-663z"/>
		<path class="st42" d="M-657.3,1144.5c0-0.7,0.1-1.3,0.4-1.8c0.3-0.5,0.6-0.9,1.1-1.2s1-0.4,1.6-0.4c0.9,0,1.7,0.3,2.2,1
			c0.6,0.6,0.9,1.5,0.9,2.6v0.1c0,0.7-0.1,1.3-0.4,1.8s-0.6,0.9-1.1,1.2c-0.5,0.3-1,0.4-1.6,0.4c-0.9,0-1.7-0.3-2.2-1
			C-657,1146.5-657.3,1145.6-657.3,1144.5L-657.3,1144.5z M-656.1,1144.6c0,0.8,0.2,1.4,0.5,1.8c0.3,0.5,0.8,0.7,1.4,0.7
			c0.6,0,1.1-0.2,1.4-0.7c0.3-0.5,0.5-1.1,0.5-1.9c0-0.7-0.2-1.3-0.5-1.8s-0.8-0.7-1.4-0.7c-0.6,0-1,0.2-1.4,0.7
			C-655.9,1143.1-656.1,1143.8-656.1,1144.6z"/>
	</g>
	<g class="st41">
		<path class="st42" d="M-577.1,1145.5h-3.8l-0.9,2.4h-1.2l3.5-9.1h1.1l3.5,9.1h-1.2L-577.1,1145.5z M-580.5,1144.6h3.1l-1.6-4.3
			L-580.5,1144.6z M-578.4,1136.4h1.4l-1.7,1.8l-0.9,0L-578.4,1136.4z"/>
		<path class="st42" d="M-572.3,1139.5v1.6h1.3v0.9h-1.3v4.2c0,0.3,0.1,0.5,0.2,0.6c0.1,0.1,0.3,0.2,0.6,0.2c0.1,0,0.3,0,0.6-0.1
			v0.9c-0.3,0.1-0.6,0.1-0.9,0.1c-0.5,0-0.9-0.2-1.2-0.5c-0.3-0.3-0.4-0.8-0.4-1.3v-4.2h-1.2v-0.9h1.2v-1.6H-572.3z"/>
		<path class="st42" d="M-570.2,1144.5c0-0.7,0.1-1.3,0.4-1.8c0.3-0.5,0.6-0.9,1.1-1.2s1-0.4,1.6-0.4c0.9,0,1.7,0.3,2.2,1
			c0.6,0.6,0.9,1.5,0.9,2.6v0.1c0,0.7-0.1,1.3-0.4,1.8s-0.6,0.9-1.1,1.2c-0.5,0.3-1,0.4-1.6,0.4c-0.9,0-1.7-0.3-2.2-1
			C-569.9,1146.5-570.2,1145.6-570.2,1144.5L-570.2,1144.5z M-569,1144.6c0,0.8,0.2,1.4,0.5,1.8c0.3,0.5,0.8,0.7,1.4,0.7
			c0.6,0,1.1-0.2,1.4-0.7c0.3-0.5,0.5-1.1,0.5-1.9c0-0.7-0.2-1.3-0.5-1.8c-0.4-0.5-0.8-0.7-1.4-0.7c-0.6,0-1,0.2-1.4,0.7
			C-568.8,1143.1-569,1143.8-569,1144.6z"/>
		<path class="st42" d="M-561.4,1141.1l0,0.8c0.5-0.6,1.2-0.9,2-0.9c0.9,0,1.6,0.4,1.9,1.1c0.2-0.3,0.5-0.6,0.9-0.8
			c0.4-0.2,0.8-0.3,1.3-0.3c1.5,0,2.2,0.8,2.3,2.4v4.5h-1.2v-4.5c0-0.5-0.1-0.8-0.3-1.1s-0.6-0.4-1.1-0.4c-0.4,0-0.8,0.1-1.1,0.4
			s-0.4,0.6-0.5,1v4.5h-1.2v-4.4c0-1-0.5-1.5-1.4-1.5c-0.8,0-1.3,0.3-1.6,1v5h-1.2v-6.8H-561.4z"/>
		<path class="st42" d="M-551.6,1144.5c0-0.7,0.1-1.3,0.4-1.8c0.3-0.5,0.6-0.9,1.1-1.2s1-0.4,1.6-0.4c0.9,0,1.7,0.3,2.2,1
			c0.6,0.6,0.9,1.5,0.9,2.6v0.1c0,0.7-0.1,1.3-0.4,1.8s-0.6,0.9-1.1,1.2c-0.5,0.3-1,0.4-1.6,0.4c-0.9,0-1.7-0.3-2.2-1
			C-551.3,1146.5-551.6,1145.6-551.6,1144.5L-551.6,1144.5z M-550.4,1144.6c0,0.8,0.2,1.4,0.5,1.8c0.3,0.5,0.8,0.7,1.4,0.7
			c0.6,0,1.1-0.2,1.4-0.7s0.5-1.1,0.5-1.9c0-0.7-0.2-1.3-0.5-1.8c-0.4-0.5-0.8-0.7-1.4-0.7c-0.6,0-1,0.2-1.4,0.7
			C-550.3,1143.1-550.4,1143.8-550.4,1144.6z"/>
		<path class="st42" d="M-541.1,1144.5c0-1,0.2-1.9,0.7-2.5c0.5-0.6,1.1-1,1.9-1c0.8,0,1.4,0.3,1.9,0.8v-3.5h1.2v9.6h-1.1l-0.1-0.7
			c-0.5,0.6-1.1,0.9-1.9,0.9c-0.8,0-1.4-0.3-1.9-1S-541.1,1145.6-541.1,1144.5L-541.1,1144.5z M-539.9,1144.6c0,0.8,0.2,1.4,0.5,1.8
			c0.3,0.4,0.8,0.7,1.3,0.7c0.7,0,1.3-0.3,1.6-1v-3.1c-0.3-0.6-0.9-1-1.6-1c-0.6,0-1,0.2-1.3,0.7
			C-539.8,1143.1-539.9,1143.7-539.9,1144.6z"/>
		<path class="st42" d="M-530.7,1148c-0.9,0-1.7-0.3-2.2-0.9c-0.6-0.6-0.9-1.4-0.9-2.4v-0.2c0-0.7,0.1-1.3,0.4-1.8s0.6-0.9,1.1-1.2
			c0.5-0.3,1-0.4,1.5-0.4c0.9,0,1.6,0.3,2.1,0.9c0.5,0.6,0.7,1.4,0.7,2.5v0.5h-4.6c0,0.7,0.2,1.2,0.6,1.6c0.4,0.4,0.8,0.6,1.4,0.6
			c0.4,0,0.8-0.1,1-0.2c0.3-0.2,0.5-0.4,0.7-0.7l0.7,0.6C-528.7,1147.6-529.6,1148-530.7,1148z M-530.9,1142c-0.5,0-0.9,0.2-1.2,0.5
			s-0.5,0.8-0.6,1.4h3.4v-0.1c0-0.6-0.2-1-0.5-1.4C-530,1142.1-530.4,1142-530.9,1142z"/>
		<path class="st42" d="M-522.4,1142c0.5-0.6,1.2-0.9,2-0.9c1.4,0,2.2,0.8,2.2,2.4v4.5h-1.2v-4.5c0-0.5-0.1-0.9-0.3-1.1
			c-0.2-0.2-0.6-0.4-1-0.4c-0.4,0-0.7,0.1-1,0.3s-0.5,0.5-0.7,0.8v4.8h-1.2v-9.6h1.2V1142z"/>
		<path class="st42" d="M-516.5,1139.3c0-0.2,0.1-0.3,0.2-0.5c0.1-0.1,0.3-0.2,0.5-0.2s0.4,0.1,0.5,0.2s0.2,0.3,0.2,0.5
			c0,0.2-0.1,0.3-0.2,0.5s-0.3,0.2-0.5,0.2s-0.4-0.1-0.5-0.2C-516.4,1139.7-516.5,1139.5-516.5,1139.3z M-515.2,1147.9h-1.2v-6.8
			h1.2V1147.9z"/>
		<path class="st42" d="M-513.7,1144.5c0-1,0.2-1.9,0.7-2.5c0.5-0.6,1.1-1,1.9-1c0.8,0,1.4,0.3,1.9,0.8v-3.5h1.2v9.6h-1.1l-0.1-0.7
			c-0.5,0.6-1.1,0.9-1.9,0.9c-0.8,0-1.4-0.3-1.9-1C-513.4,1146.4-513.7,1145.6-513.7,1144.5L-513.7,1144.5z M-512.5,1144.6
			c0,0.8,0.2,1.4,0.5,1.8s0.8,0.7,1.3,0.7c0.7,0,1.3-0.3,1.6-1v-3.1c-0.3-0.6-0.9-1-1.6-1c-0.6,0-1,0.2-1.3,0.7
			S-512.5,1143.7-512.5,1144.6z"/>
		<path class="st42" d="M-502.9,1142.2c-0.2,0-0.4,0-0.6,0c-0.8,0-1.3,0.3-1.5,1v4.8h-1.2v-6.8h1.1l0,0.8c0.4-0.6,0.9-0.9,1.6-0.9
			c0.2,0,0.4,0,0.5,0.1V1142.2z"/>
		<path class="st42" d="M-502.1,1144.5c0-0.7,0.1-1.3,0.4-1.8c0.3-0.5,0.6-0.9,1.1-1.2s1-0.4,1.6-0.4c0.9,0,1.7,0.3,2.2,1
			c0.6,0.6,0.9,1.5,0.9,2.6v0.1c0,0.7-0.1,1.3-0.4,1.8s-0.6,0.9-1.1,1.2c-0.5,0.3-1,0.4-1.6,0.4c-0.9,0-1.7-0.3-2.2-1
			C-501.8,1146.5-502.1,1145.6-502.1,1144.5L-502.1,1144.5z M-500.9,1144.6c0,0.8,0.2,1.4,0.5,1.8c0.3,0.5,0.8,0.7,1.4,0.7
			c0.6,0,1.1-0.2,1.4-0.7c0.3-0.5,0.5-1.1,0.5-1.9c0-0.7-0.2-1.3-0.5-1.8c-0.4-0.5-0.8-0.7-1.4-0.7c-0.6,0-1,0.2-1.4,0.7
			C-500.8,1143.1-500.9,1143.8-500.9,1144.6z M-498.5,1138.3h1.4l-1.7,1.8l-0.9,0L-498.5,1138.3z"/>
		<path class="st42" d="M-494.8,1144.5c0-1.1,0.2-1.9,0.7-2.5c0.5-0.6,1.1-0.9,1.9-0.9c0.8,0,1.5,0.3,1.9,0.9l0.1-0.8h1.1v6.6
			c0,0.9-0.3,1.6-0.8,2.1c-0.5,0.5-1.2,0.8-2.1,0.8c-0.5,0-1-0.1-1.4-0.3s-0.8-0.5-1.1-0.9l0.6-0.7c0.5,0.6,1.1,0.9,1.8,0.9
			c0.6,0,1-0.2,1.3-0.5s0.5-0.8,0.5-1.3v-0.6c-0.5,0.5-1.1,0.8-1.9,0.8c-0.8,0-1.4-0.3-1.9-1
			C-494.5,1146.5-494.8,1145.6-494.8,1144.5z M-493.6,1144.6c0,0.8,0.2,1.4,0.5,1.8s0.8,0.7,1.3,0.7c0.7,0,1.3-0.3,1.6-1v-3.1
			c-0.4-0.6-0.9-1-1.6-1c-0.6,0-1,0.2-1.3,0.7C-493.4,1143.1-493.6,1143.7-493.6,1144.6z"/>
		<path class="st42" d="M-484.5,1148c-0.9,0-1.7-0.3-2.2-0.9c-0.6-0.6-0.9-1.4-0.9-2.4v-0.2c0-0.7,0.1-1.3,0.4-1.8s0.6-0.9,1.1-1.2
			c0.5-0.3,1-0.4,1.5-0.4c0.9,0,1.6,0.3,2.1,0.9c0.5,0.6,0.7,1.4,0.7,2.5v0.5h-4.6c0,0.7,0.2,1.2,0.6,1.6c0.4,0.4,0.8,0.6,1.4,0.6
			c0.4,0,0.8-0.1,1-0.2c0.3-0.2,0.5-0.4,0.7-0.7l0.7,0.6C-482.5,1147.6-483.3,1148-484.5,1148z M-484.6,1142c-0.5,0-0.9,0.2-1.2,0.5
			s-0.5,0.8-0.6,1.4h3.4v-0.1c0-0.6-0.2-1-0.5-1.4C-483.7,1142.1-484.1,1142-484.6,1142z"/>
		<path class="st42" d="M-479.4,1141.1l0,0.9c0.5-0.7,1.2-1,2-1c1.4,0,2.2,0.8,2.2,2.4v4.5h-1.2v-4.5c0-0.5-0.1-0.9-0.3-1.1
			c-0.2-0.2-0.6-0.4-1-0.4c-0.4,0-0.7,0.1-1,0.3s-0.5,0.5-0.7,0.8v4.8h-1.2v-6.8H-479.4z"/>
		<path class="st42" d="M-473.7,1144.5c0-0.7,0.1-1.3,0.4-1.8c0.3-0.5,0.6-0.9,1.1-1.2s1-0.4,1.6-0.4c0.9,0,1.7,0.3,2.2,1
			c0.6,0.6,0.9,1.5,0.9,2.6v0.1c0,0.7-0.1,1.3-0.4,1.8s-0.6,0.9-1.1,1.2c-0.5,0.3-1,0.4-1.6,0.4c-0.9,0-1.7-0.3-2.2-1
			C-473.4,1146.5-473.7,1145.6-473.7,1144.5L-473.7,1144.5z M-472.5,1144.6c0,0.8,0.2,1.4,0.5,1.8c0.3,0.5,0.8,0.7,1.4,0.7
			c0.6,0,1.1-0.2,1.4-0.7c0.3-0.5,0.5-1.1,0.5-1.9c0-0.7-0.2-1.3-0.5-1.8c-0.4-0.5-0.8-0.7-1.4-0.7c-0.6,0-1,0.2-1.4,0.7
			C-472.4,1143.1-472.5,1143.8-472.5,1144.6z"/>
	</g>
	<g class="st41">
		<path class="st42" d="M-663.1,1029.4h-3.8l-0.9,2.4h-1.2l3.5-9.1h1.1l3.5,9.1h-1.2L-663.1,1029.4z M-666.6,1028.4h3.1l-1.6-4.3
			L-666.6,1028.4z M-664.5,1020.2h1.4l-1.7,1.8l-0.9,0L-664.5,1020.2z"/>
		<path class="st42" d="M-658.4,1023.3v1.6h1.3v0.9h-1.3v4.2c0,0.3,0.1,0.5,0.2,0.6s0.3,0.2,0.6,0.2c0.1,0,0.3,0,0.6-0.1v0.9
			c-0.3,0.1-0.6,0.1-0.9,0.1c-0.5,0-0.9-0.2-1.2-0.5s-0.4-0.8-0.4-1.3v-4.2h-1.2v-0.9h1.2v-1.6H-658.4z"/>
		<path class="st42" d="M-656.2,1028.3c0-0.7,0.1-1.3,0.4-1.8c0.3-0.5,0.6-0.9,1.1-1.2s1-0.4,1.6-0.4c0.9,0,1.7,0.3,2.2,1
			c0.6,0.6,0.9,1.5,0.9,2.6v0.1c0,0.7-0.1,1.3-0.4,1.8s-0.6,0.9-1.1,1.2c-0.5,0.3-1,0.4-1.6,0.4c-0.9,0-1.7-0.3-2.2-1
			C-655.9,1030.3-656.2,1029.4-656.2,1028.3L-656.2,1028.3z M-655.1,1028.4c0,0.8,0.2,1.4,0.5,1.8c0.3,0.5,0.8,0.7,1.4,0.7
			c0.6,0,1.1-0.2,1.4-0.7c0.3-0.5,0.5-1.1,0.5-1.9c0-0.7-0.2-1.3-0.5-1.8s-0.8-0.7-1.4-0.7c-0.6,0-1,0.2-1.4,0.7
			C-654.9,1026.9-655.1,1027.6-655.1,1028.4z"/>
		<path class="st42" d="M-647.5,1025l0,0.8c0.5-0.6,1.2-0.9,2-0.9c0.9,0,1.6,0.4,1.9,1.1c0.2-0.3,0.5-0.6,0.9-0.8
			c0.4-0.2,0.8-0.3,1.3-0.3c1.5,0,2.2,0.8,2.3,2.4v4.5h-1.2v-4.5c0-0.5-0.1-0.8-0.3-1.1c-0.2-0.2-0.6-0.4-1.1-0.4
			c-0.4,0-0.8,0.1-1.1,0.4s-0.4,0.6-0.5,1v4.5h-1.2v-4.4c0-1-0.5-1.5-1.4-1.5c-0.8,0-1.3,0.3-1.6,1v5h-1.2v-6.8H-647.5z"/>
		<path class="st42" d="M-637.7,1028.3c0-0.7,0.1-1.3,0.4-1.8c0.3-0.5,0.6-0.9,1.1-1.2s1-0.4,1.6-0.4c0.9,0,1.7,0.3,2.2,1
			c0.6,0.6,0.9,1.5,0.9,2.6v0.1c0,0.7-0.1,1.3-0.4,1.8s-0.6,0.9-1.1,1.2c-0.5,0.3-1,0.4-1.6,0.4c-0.9,0-1.7-0.3-2.2-1
			C-637.4,1030.3-637.7,1029.4-637.7,1028.3L-637.7,1028.3z M-636.5,1028.4c0,0.8,0.2,1.4,0.5,1.8c0.3,0.5,0.8,0.7,1.4,0.7
			c0.6,0,1.1-0.2,1.4-0.7c0.3-0.5,0.5-1.1,0.5-1.9c0-0.7-0.2-1.3-0.5-1.8s-0.8-0.7-1.4-0.7c-0.6,0-1,0.2-1.4,0.7
			C-636.3,1026.9-636.5,1027.6-636.5,1028.4z"/>
		<path class="st42" d="M-627.1,1028.3c0-1,0.2-1.9,0.7-2.5c0.5-0.6,1.1-1,1.9-1c0.8,0,1.4,0.3,1.9,0.8v-3.5h1.2v9.6h-1.1l-0.1-0.7
			c-0.5,0.6-1.1,0.9-1.9,0.9c-0.8,0-1.4-0.3-1.9-1C-626.9,1030.3-627.1,1029.4-627.1,1028.3L-627.1,1028.3z M-626,1028.4
			c0,0.8,0.2,1.4,0.5,1.8c0.3,0.4,0.8,0.7,1.3,0.7c0.7,0,1.3-0.3,1.6-1v-3.1c-0.3-0.6-0.9-1-1.6-1c-0.6,0-1,0.2-1.3,0.7
			C-625.8,1026.9-626,1027.6-626,1028.4z"/>
		<path class="st42" d="M-616.8,1031.9c-0.9,0-1.7-0.3-2.2-0.9s-0.9-1.4-0.9-2.4v-0.2c0-0.7,0.1-1.3,0.4-1.8s0.6-0.9,1.1-1.2
			c0.5-0.3,1-0.4,1.5-0.4c0.9,0,1.6,0.3,2.1,0.9c0.5,0.6,0.7,1.4,0.7,2.5v0.5h-4.6c0,0.7,0.2,1.2,0.6,1.6c0.4,0.4,0.8,0.6,1.4,0.6
			c0.4,0,0.8-0.1,1-0.2c0.3-0.2,0.5-0.4,0.7-0.7l0.7,0.6C-614.8,1031.4-615.7,1031.9-616.8,1031.9z M-616.9,1025.8
			c-0.5,0-0.9,0.2-1.2,0.5s-0.5,0.8-0.6,1.4h3.4v-0.1c0-0.6-0.2-1-0.5-1.4C-616.1,1026-616.5,1025.8-616.9,1025.8z"/>
		<path class="st42" d="M-602.4,1027.5c0,0.9-0.2,1.7-0.5,2.3c-0.3,0.7-0.7,1.2-1.3,1.5c-0.6,0.4-1.2,0.5-1.9,0.5
			c-0.7,0-1.4-0.2-1.9-0.5c-0.6-0.4-1-0.9-1.3-1.5c-0.3-0.7-0.5-1.4-0.5-2.3v-0.7c0-0.9,0.2-1.7,0.5-2.3s0.7-1.2,1.3-1.5
			c0.6-0.4,1.2-0.5,1.9-0.5c0.7,0,1.4,0.2,1.9,0.5c0.6,0.4,1,0.9,1.3,1.5c0.3,0.7,0.5,1.5,0.5,2.3V1027.5z M-603.6,1026.9
			c0-1.1-0.2-1.9-0.7-2.5s-1-0.9-1.8-0.9c-0.8,0-1.4,0.3-1.8,0.9s-0.7,1.4-0.7,2.4v0.7c0,1,0.2,1.9,0.7,2.5c0.4,0.6,1,0.9,1.8,0.9
			c0.8,0,1.4-0.3,1.8-0.8c0.4-0.6,0.6-1.4,0.7-2.4V1026.9z"/>
		<path class="st42" d="M-598.5,1027.4l1.5-2.5h1.4l-2.2,3.4l2.3,3.4h-1.3l-1.6-2.5l-1.6,2.5h-1.3l2.3-3.4l-2.2-3.4h1.3
			L-598.5,1027.4z"/>
		<path class="st42" d="M-594.4,1023.2c0-0.2,0.1-0.3,0.2-0.5c0.1-0.1,0.3-0.2,0.5-0.2s0.4,0.1,0.5,0.2s0.2,0.3,0.2,0.5
			c0,0.2-0.1,0.3-0.2,0.5s-0.3,0.2-0.5,0.2s-0.4-0.1-0.5-0.2C-594.4,1023.5-594.4,1023.4-594.4,1023.2z M-593.2,1031.7h-1.2v-6.8
			h1.2V1031.7z"/>
		<path class="st42" d="M-591.6,1028.3c0-1.1,0.2-1.9,0.7-2.5c0.5-0.6,1.1-0.9,1.9-0.9c0.8,0,1.5,0.3,1.9,0.9l0.1-0.8h1.1v6.6
			c0,0.9-0.3,1.6-0.8,2.1c-0.5,0.5-1.2,0.8-2.1,0.8c-0.5,0-1-0.1-1.4-0.3s-0.8-0.5-1.1-0.9l0.6-0.7c0.5,0.6,1.1,0.9,1.8,0.9
			c0.6,0,1-0.2,1.3-0.5s0.5-0.8,0.5-1.3v-0.6c-0.5,0.5-1.1,0.8-1.9,0.8c-0.8,0-1.4-0.3-1.9-1
			C-591.4,1030.3-591.6,1029.4-591.6,1028.3z M-590.4,1028.4c0,0.8,0.2,1.4,0.5,1.8s0.8,0.7,1.3,0.7c0.7,0,1.3-0.3,1.6-1v-3.1
			c-0.4-0.6-0.9-1-1.6-1c-0.6,0-1,0.2-1.3,0.7C-590.3,1026.9-590.4,1027.6-590.4,1028.4z"/>
		<path class="st42" d="M-581.3,1031.9c-0.9,0-1.7-0.3-2.2-0.9c-0.6-0.6-0.9-1.4-0.9-2.4v-0.2c0-0.7,0.1-1.3,0.4-1.8
			s0.6-0.9,1.1-1.2c0.5-0.3,1-0.4,1.5-0.4c0.9,0,1.6,0.3,2.1,0.9c0.5,0.6,0.7,1.4,0.7,2.5v0.5h-4.6c0,0.7,0.2,1.2,0.6,1.6
			c0.4,0.4,0.8,0.6,1.4,0.6c0.4,0,0.8-0.1,1-0.2c0.3-0.2,0.5-0.4,0.7-0.7l0.7,0.6C-579.3,1031.4-580.2,1031.9-581.3,1031.9z
			 M-581.5,1025.8c-0.5,0-0.9,0.2-1.2,0.5s-0.5,0.8-0.6,1.4h3.4v-0.1c0-0.6-0.2-1-0.5-1.4C-580.6,1026-581,1025.8-581.5,1025.8z"/>
		<path class="st42" d="M-576.2,1025l0,0.9c0.5-0.7,1.2-1,2-1c1.4,0,2.2,0.8,2.2,2.4v4.5h-1.2v-4.5c0-0.5-0.1-0.9-0.3-1.1
			c-0.2-0.2-0.6-0.4-1-0.4c-0.4,0-0.7,0.1-1,0.3s-0.5,0.5-0.7,0.8v4.8h-1.2v-6.8H-576.2z"/>
		<path class="st42" d="M-570.6,1028.3c0-0.7,0.1-1.3,0.4-1.8c0.3-0.5,0.6-0.9,1.1-1.2s1-0.4,1.6-0.4c0.9,0,1.7,0.3,2.2,1
			c0.6,0.6,0.9,1.5,0.9,2.6v0.1c0,0.7-0.1,1.3-0.4,1.8s-0.6,0.9-1.1,1.2c-0.5,0.3-1,0.4-1.6,0.4c-0.9,0-1.7-0.3-2.2-1
			C-570.3,1030.3-570.6,1029.4-570.6,1028.3L-570.6,1028.3z M-569.4,1028.4c0,0.8,0.2,1.4,0.5,1.8c0.3,0.5,0.8,0.7,1.4,0.7
			c0.6,0,1.1-0.2,1.4-0.7c0.3-0.5,0.5-1.1,0.5-1.9c0-0.7-0.2-1.3-0.5-1.8c-0.4-0.5-0.8-0.7-1.4-0.7c-0.6,0-1,0.2-1.4,0.7
			C-569.2,1026.9-569.4,1027.6-569.4,1028.4z"/>
	</g>
	<g class="st41">
		<path class="st42" d="M-669.7,914.5l2.3,6.6l2.3-6.6h2.5v9.1h-1.9v-2.5l0.2-4.3l-2.5,6.8h-1.3l-2.5-6.8l0.2,4.3v2.5h-1.9v-9.1
			H-669.7z"/>
		<path class="st42" d="M-661.3,920.2c0-0.7,0.1-1.3,0.4-1.8c0.3-0.5,0.6-0.9,1.1-1.2s1.1-0.4,1.7-0.4c0.9,0,1.7,0.3,2.2,0.8
			c0.6,0.6,0.9,1.3,1,2.3l0,0.5c0,1-0.3,1.9-0.9,2.5c-0.6,0.6-1.4,0.9-2.3,0.9s-1.8-0.3-2.3-0.9C-661,922.2-661.3,921.3-661.3,920.2
			L-661.3,920.2z M-659.5,920.3c0,0.6,0.1,1.1,0.4,1.5s0.6,0.5,1,0.5c0.4,0,0.8-0.2,1-0.5c0.2-0.3,0.4-0.9,0.4-1.6
			c0-0.6-0.1-1.1-0.4-1.5c-0.2-0.3-0.6-0.5-1-0.5c-0.4,0-0.8,0.2-1,0.5C-659.4,919-659.5,919.6-659.5,920.3z"/>
		<path class="st42" d="M-651.9,923.6h-1.8V914h1.8V923.6z"/>
		<path class="st42" d="M-647.2,923.8c-1,0-1.8-0.3-2.4-0.9c-0.6-0.6-0.9-1.4-0.9-2.4v-0.2c0-0.7,0.1-1.3,0.4-1.8s0.6-1,1.1-1.2
			c0.5-0.3,1-0.4,1.7-0.4c0.9,0,1.7,0.3,2.2,0.9c0.5,0.6,0.8,1.4,0.8,2.5v0.7h-4.3c0.1,0.4,0.2,0.8,0.5,1.1c0.3,0.3,0.7,0.4,1.1,0.4
			c0.7,0,1.2-0.3,1.6-0.8l0.9,1c-0.3,0.4-0.6,0.7-1.1,0.9S-646.7,923.8-647.2,923.8z M-647.4,918.2c-0.4,0-0.7,0.1-0.9,0.4
			c-0.2,0.2-0.4,0.6-0.4,1h2.5v-0.1c0-0.4-0.1-0.7-0.3-0.9C-646.8,918.3-647.1,918.2-647.4,918.2z M-647.3,914h2l-1.7,1.9h-1.5
			L-647.3,914z"/>
		<path class="st42" d="M-640.6,922.3c0.3,0,0.6-0.1,0.8-0.3c0.2-0.2,0.3-0.4,0.3-0.7h1.7c0,0.5-0.1,0.9-0.4,1.3
			c-0.2,0.4-0.6,0.7-1,0.9c-0.4,0.2-0.9,0.3-1.4,0.3c-1,0-1.7-0.3-2.3-0.9s-0.8-1.5-0.8-2.6v-0.1c0-1,0.3-1.9,0.8-2.5
			c0.6-0.6,1.3-0.9,2.3-0.9c0.8,0,1.5,0.2,2,0.7c0.5,0.5,0.8,1.1,0.8,1.9h-1.7c0-0.4-0.1-0.6-0.3-0.9c-0.2-0.2-0.5-0.3-0.8-0.3
			c-0.4,0-0.7,0.2-1,0.5c-0.2,0.3-0.3,0.8-0.3,1.5v0.2c0,0.7,0.1,1.2,0.3,1.5C-641.4,922.1-641,922.3-640.6,922.3z"/>
		<path class="st42" d="M-632.7,922.9c-0.4,0.5-1.1,0.8-1.9,0.8c-0.7,0-1.3-0.2-1.7-0.6c-0.4-0.4-0.6-1-0.6-1.8v-4.4h1.8v4.4
			c0,0.7,0.3,1.1,1,1.1c0.6,0,1-0.2,1.3-0.6v-4.8h1.8v6.8h-1.7L-632.7,922.9z"/>
		<path class="st42" d="M-627.6,923.6h-1.8V914h1.8V923.6z"/>
		<path class="st42" d="M-622.2,923.6c-0.1-0.2-0.1-0.4-0.2-0.6c-0.4,0.5-1,0.7-1.7,0.7c-0.7,0-1.2-0.2-1.7-0.6s-0.7-0.9-0.7-1.5
			c0-0.7,0.3-1.3,0.8-1.7c0.5-0.4,1.3-0.6,2.3-0.6h0.8v-0.4c0-0.3-0.1-0.6-0.2-0.8c-0.2-0.2-0.4-0.3-0.8-0.3c-0.3,0-0.5,0.1-0.7,0.2
			c-0.2,0.1-0.3,0.3-0.3,0.6h-1.8c0-0.4,0.1-0.8,0.4-1.1c0.2-0.3,0.6-0.6,1-0.8c0.4-0.2,0.9-0.3,1.5-0.3c0.8,0,1.5,0.2,2,0.6
			c0.5,0.4,0.7,1,0.7,1.8v2.9c0,0.6,0.1,1.1,0.3,1.5v0.1H-622.2z M-623.7,922.4c0.3,0,0.5-0.1,0.7-0.2s0.4-0.3,0.5-0.5v-1.2h-0.7
			c-0.9,0-1.4,0.3-1.4,0.9l0,0.1c0,0.2,0.1,0.4,0.2,0.6C-624.2,922.3-624,922.4-623.7,922.4z"/>
		<path class="st42" d="M-616.4,920.2c0-1.1,0.2-1.9,0.7-2.5s1.1-0.9,1.9-0.9c0.7,0,1.2,0.2,1.6,0.7V914h1.8v9.6h-1.6l-0.1-0.7
			c-0.5,0.6-1,0.8-1.7,0.8c-0.8,0-1.4-0.3-1.9-0.9C-616.1,922.2-616.4,921.3-616.4,920.2z M-614.5,920.3c0,0.6,0.1,1.1,0.3,1.5
			s0.5,0.5,1,0.5c0.6,0,1-0.2,1.2-0.7v-2.7c-0.2-0.5-0.6-0.7-1.2-0.7C-614.1,918.2-614.5,918.9-614.5,920.3z"/>
		<path class="st42" d="M-605.7,923.8c-1,0-1.8-0.3-2.4-0.9c-0.6-0.6-0.9-1.4-0.9-2.4v-0.2c0-0.7,0.1-1.3,0.4-1.8
			c0.3-0.5,0.6-1,1.1-1.2c0.5-0.3,1-0.4,1.7-0.4c0.9,0,1.7,0.3,2.2,0.9s0.8,1.4,0.8,2.5v0.7h-4.3c0.1,0.4,0.2,0.8,0.5,1.1
			c0.3,0.3,0.7,0.4,1.1,0.4c0.7,0,1.2-0.3,1.6-0.8l0.9,1c-0.3,0.4-0.6,0.7-1.1,0.9S-605.1,923.8-605.7,923.8z M-605.9,918.2
			c-0.4,0-0.7,0.1-0.9,0.4c-0.2,0.2-0.4,0.6-0.4,1h2.5v-0.1c0-0.4-0.1-0.7-0.3-0.9C-605.2,918.3-605.5,918.2-605.9,918.2z"/>
		<path class="st42" d="M-600,923.6h-1.8V914h1.8V923.6z"/>
		<path class="st42" d="M-591.4,923.6c-0.1-0.2-0.1-0.4-0.2-0.6c-0.4,0.5-1,0.7-1.7,0.7c-0.7,0-1.2-0.2-1.7-0.6s-0.7-0.9-0.7-1.5
			c0-0.7,0.3-1.3,0.8-1.7c0.5-0.4,1.3-0.6,2.3-0.6h0.8v-0.4c0-0.3-0.1-0.6-0.2-0.8c-0.2-0.2-0.4-0.3-0.8-0.3c-0.3,0-0.5,0.1-0.7,0.2
			c-0.2,0.1-0.3,0.3-0.3,0.6h-1.8c0-0.4,0.1-0.8,0.4-1.1c0.2-0.3,0.6-0.6,1-0.8c0.4-0.2,0.9-0.3,1.5-0.3c0.8,0,1.5,0.2,2,0.6
			s0.7,1,0.7,1.8v2.9c0,0.6,0.1,1.1,0.3,1.5v0.1H-591.4z M-592.9,922.4c0.3,0,0.5-0.1,0.7-0.2s0.4-0.3,0.5-0.5v-1.2h-0.7
			c-0.9,0-1.4,0.3-1.4,0.9l0,0.1c0,0.2,0.1,0.4,0.2,0.6C-593.4,922.3-593.1,922.4-592.9,922.4z"/>
		<path class="st42" d="M-588.7,920.2c0-1,0.2-1.9,0.7-2.5s1.2-1,2-1c0.7,0,1.3,0.3,1.7,0.8l0.1-0.6h1.6v6.6c0,0.6-0.1,1.1-0.4,1.5
			s-0.6,0.8-1.1,1c-0.5,0.2-1.1,0.3-1.7,0.3c-0.5,0-1-0.1-1.5-0.3c-0.5-0.2-0.8-0.5-1.1-0.8l0.8-1.1c0.5,0.5,1,0.8,1.6,0.8
			c0.5,0,0.9-0.1,1.1-0.4s0.4-0.6,0.4-1.1V923c-0.4,0.5-1,0.7-1.6,0.7c-0.8,0-1.5-0.3-2-1C-588.4,922.2-588.7,921.3-588.7,920.2
			L-588.7,920.2z M-586.9,920.3c0,0.6,0.1,1.1,0.4,1.4s0.6,0.5,1,0.5c0.6,0,0.9-0.2,1.2-0.6v-2.9c-0.2-0.4-0.6-0.6-1.2-0.6
			c-0.4,0-0.8,0.2-1,0.5C-586.7,919.1-586.9,919.6-586.9,920.3z"/>
		<path class="st42" d="M-577,922.9c-0.4,0.5-1.1,0.8-1.9,0.8c-0.7,0-1.3-0.2-1.7-0.6c-0.4-0.4-0.6-1-0.6-1.8v-4.4h1.8v4.4
			c0,0.7,0.3,1.1,1,1.1c0.6,0,1-0.2,1.3-0.6v-4.8h1.8v6.8h-1.7L-577,922.9z"/>
		<path class="st42" d="M-570,923.6c-0.1-0.2-0.1-0.4-0.2-0.6c-0.4,0.5-1,0.7-1.7,0.7c-0.7,0-1.2-0.2-1.7-0.6s-0.7-0.9-0.7-1.5
			c0-0.7,0.3-1.3,0.8-1.7c0.5-0.4,1.3-0.6,2.3-0.6h0.8v-0.4c0-0.3-0.1-0.6-0.2-0.8c-0.2-0.2-0.4-0.3-0.8-0.3c-0.3,0-0.5,0.1-0.7,0.2
			c-0.2,0.1-0.3,0.3-0.3,0.6h-1.8c0-0.4,0.1-0.8,0.4-1.1s0.6-0.6,1-0.8c0.4-0.2,0.9-0.3,1.5-0.3c0.8,0,1.5,0.2,2,0.6
			c0.5,0.4,0.7,1,0.7,1.8v2.9c0,0.6,0.1,1.1,0.3,1.5v0.1H-570z M-571.5,922.4c0.3,0,0.5-0.1,0.7-0.2s0.4-0.3,0.5-0.5v-1.2h-0.7
			c-0.9,0-1.4,0.3-1.4,0.9l0,0.1c0,0.2,0.1,0.4,0.2,0.6C-572,922.3-571.8,922.4-571.5,922.4z"/>
	</g>
	<g class="st41">
		<path class="st42" d="M-625,1174.3h-1.9v-3.9h-3.7v3.9h-1.9v-9.1h1.9v3.7h3.7v-3.7h1.9V1174.3z"/>
		<path class="st42" d="M-617.3,1174.3h-6.3v-1.2l3-3.1c0.4-0.4,0.7-0.8,0.9-1.2c0.2-0.3,0.3-0.6,0.3-0.9c0-0.4-0.1-0.7-0.3-1
			c-0.2-0.2-0.5-0.3-0.9-0.3c-0.4,0-0.7,0.1-1,0.4c-0.2,0.3-0.4,0.7-0.4,1.1h-1.8c0-0.6,0.1-1.1,0.4-1.5c0.3-0.5,0.6-0.8,1.1-1.1
			c0.5-0.3,1-0.4,1.6-0.4c0.9,0,1.7,0.2,2.2,0.7c0.5,0.5,0.8,1.1,0.8,1.9c0,0.5-0.1,0.9-0.4,1.4c-0.2,0.5-0.6,1-1.2,1.6l-2.1,2.2
			h3.9V1174.3z"/>
		<path class="st42" d="M-608.5,1170c0,0.9-0.2,1.7-0.5,2.4c-0.3,0.7-0.8,1.2-1.4,1.6c-0.6,0.4-1.3,0.6-2,0.6c-0.8,0-1.4-0.2-2-0.5
			s-1.1-0.9-1.4-1.6c-0.3-0.7-0.5-1.5-0.5-2.3v-0.5c0-0.9,0.2-1.7,0.5-2.4c0.3-0.7,0.8-1.2,1.4-1.6c0.6-0.4,1.3-0.5,2-0.5
			c0.8,0,1.4,0.2,2,0.5c0.6,0.4,1,0.9,1.4,1.6c0.3,0.7,0.5,1.5,0.5,2.4V1170z M-610.4,1169.6c0-1-0.2-1.7-0.5-2.2
			c-0.3-0.5-0.8-0.7-1.5-0.7c-0.6,0-1.1,0.2-1.5,0.7c-0.3,0.5-0.5,1.2-0.5,2.2v0.4c0,0.9,0.2,1.7,0.5,2.2c0.3,0.5,0.8,0.8,1.5,0.8
			c0.6,0,1.1-0.2,1.5-0.7s0.5-1.2,0.5-2.2V1169.6z"/>
	</g>
</g>
</svg>
