<svg xmlns="http://www.w3.org/2000/svg" width="1227.5" height="407.21" viewBox="0 0 1227.5 407.21">
  <g id="Grupo_974072" data-name="Grupo 974072" transform="translate(-186.25 -5177.283)">
    <g id="Grupo_73082" data-name="Grupo 73082" transform="translate(1149.012 7540.967)">
      <path id="Trazado_602978" data-name="Trazado 602978" d="M236.392-2309.01v274.152a54.674,54.674,0,0,1-54.674,54.674H-300.539a34.672,34.672,0,0,1-24.518-10.156l-130.131-160.131a30,30,0,0,1,0-42.426l130.631-160.631a34.672,34.672,0,0,1,24.518-10.156H181.718A54.675,54.675,0,0,1,236.392-2309.01Z" fill="#3c18a1"/>
      <rect id="Rectángulo_293643" data-name="Rectángulo 293643" width="1227.5" height="299.526" rx="17.675" transform="translate(-962.762 -2256)" fill="#25ffff"/>
      <g id="Grupo_877639" data-name="Grupo 877639">
        <circle id="Elipse_5672" data-name="Elipse 5672" cx="172.522" cy="172.522" r="172.522" transform="translate(-922.393 -2310.747)" fill="#3c18a1"/>
        <g id="Grupo_877616" data-name="Grupo 877616">
          <g id="Grupo_877614" data-name="Grupo 877614">
            <path id="Trazado_602979" data-name="Trazado 602979" d="M-646.035-2263.072a3.632,3.632,0,0,0,2.859-1.385,3.638,3.638,0,0,0-.6-5.11,160.026,160.026,0,0,0-15.789-10.989,3.638,3.638,0,0,0-5,1.212,3.637,3.637,0,0,0,1.212,5,152.989,152.989,0,0,1,15.07,10.489A3.62,3.62,0,0,0-646.035-2263.072Z" fill="#cfaff3"/>
          </g>
          <g id="Grupo_877615" data-name="Grupo 877615">
            <path id="Trazado_602980" data-name="Trazado 602980" d="M-593.46-2186.933a3.636,3.636,0,0,0,1.082-.166,3.638,3.638,0,0,0,2.393-4.555,160.021,160.021,0,0,0-39.585-65.274,3.637,3.637,0,0,0-5.145,0,3.638,3.638,0,0,0,0,5.145,152.734,152.734,0,0,1,37.782,62.291A3.64,3.64,0,0,0-593.46-2186.933Z" fill="#cfaff3"/>
          </g>
        </g>
        <circle id="Elipse_5673" data-name="Elipse 5673" cx="151.761" cy="151.761" r="151.761" transform="translate(-901.632 -2289.986)" fill="#fff"/>
        <g id="Grupo_877638" data-name="Grupo 877638">
          <g id="Grupo_877637" data-name="Grupo 877637">
            <g id="Grupo_877617" data-name="Grupo 877617">
              <path id="Trazado_602981" data-name="Trazado 602981" d="M-839.245-2015.561a151.1,151.1,0,0,0,23.342,14.013,151.115,151.115,0,0,0,66.032,15.084,152.656,152.656,0,0,0,21.793-1.555q3.445-.493,6.839-1.142a150.353,150.353,0,0,0,40.735-14.058l-1.632-18.619-1.407-16.123-1.367-15.6-1.058-12.09-.433-3.652-2.541-21.361-.891-7.5-2.671-22.419-6.5-54.664-20.051-9.271-.019-.013-14.355-6.645h-.007l-1.974-.917-8.535-3.948-41.045-.71-2.736.736-.6.161-6.116,1.645-38.967,10.471-1.368,31.065-3.058,69.438-1.284,29.161-.052,15.394-.032,8.509v.007l-.032,10.645Z" fill="#1dc7f3"/>
              <path id="Trazado_602982" data-name="Trazado 602982" d="M-839.245-2015.561a151.1,151.1,0,0,0,23.342,14.013,104.235,104.235,0,0,0,37.232-8.555c17.671-7.529,34.471-18.322,50.038-30.09q2.865-2.158,5.665-4.368,3.261-2.546,6.432-5.135a249.378,249.378,0,0,0,34.4,27.858h.006l-1.413-16.123-1.367-15.6-1.058-12.09-.433-3.652a204.413,204.413,0,0,0-40.012-8.142c-1.413-.141-2.82-.27-4.239-.374-.523-.051-1.045-.09-1.574-.122q-7.52-.552-15.071-.542a200.754,200.754,0,0,0-39.084,3.877c-.032-.1-.064-.206-.09-.309h-.006q-.389-1.326-.807-2.633c-1.748-5.593-3.677-11.058-5.839-16.387a169.313,169.313,0,0,0-20.393-37.025c-.194-.271-.387-.536-.587-.8a101.46,101.46,0,0,0-20.671-20.916l-3.058,69.438-1.284,29.161-.052,15.394-.025,8.516-.039,10.645Z" fill="#006190"/>
              <path id="Trazado_602983" data-name="Trazado 602983" d="M-735.413-2127.457q1.19,9.87,2.18,19.768,1.51,14.911,2.581,29.87c.019.258.039.523.058.781q.339,4.791.632,9.574.493,7.974.865,15.942v.006c.026.458.045.923.064,1.381q.224,4.974.4,9.942.939,26.08.555,52.174,3.445-.493,6.839-1.142c.419-19.026-.355-37.929-1.729-55.4q-.348-4.335-.736-8.542c-.006-.064-.013-.122-.019-.187q-.522-5.583-1.11-10.909v-.007q-.57-5.313-1.206-10.329c-.123-.98-.245-1.948-.374-2.91-1.491-11.49-3.11-21.606-4.587-29.754C-732.871-2117.5-734.523-2124.644-735.413-2127.457Z" fill="#006190"/>
            </g>
            <path id="Trazado_602984" data-name="Trazado 602984" d="M-699-2175.253l8.617,3.987a48.742,48.742,0,0,1,25.244,27.314l25.187,68.034L-699-2093.692Z" fill="#1dc7f3"/>
            <path id="Trazado_602985" data-name="Trazado 602985" d="M-743.943-2196.045l5.485,10.974a40.841,40.841,0,0,1,3.955,23.614L-738.4-2132l-36-31.6a33.317,33.317,0,0,1-11.082-29.166l.5-3.98Z" fill="#e7e6ff"/>
            <g id="Grupo_877625" data-name="Grupo 877625">
              <g id="Grupo_877619" data-name="Grupo 877619">
                <g id="Grupo_877618" data-name="Grupo 877618">
                  <path id="Trazado_602986" data-name="Trazado 602986" d="M-743.943-2196.045h0l-3.91-27.176-38.216-10.832,1.083,37.3,5.578,6.47A21.079,21.079,0,0,0-743.943-2196.045Z" fill="#ffaf8f"/>
                  <path id="Trazado_602987" data-name="Trazado 602987" d="M-785.907-2234.007l38.054,10.786,1.463,10.171C-762.977-2195.059-782.447-2221.483-785.907-2234.007Z" fill="#e38174"/>
                </g>
              </g>
              <g id="Grupo_877624" data-name="Grupo 877624">
                <g id="Grupo_877620" data-name="Grupo 877620">
                  <path id="Trazado_602988" data-name="Trazado 602988" d="M-718.594-2257.065c1.324-3.567,3.267-6.446,5.48-6.921s4.639,1.952,5.355,6.153a20.282,20.282,0,0,1-.467,8.188,26.111,26.111,0,0,1-2.724,6.438c-1.592,2.8-3.456,5.328-5.572,5.688-1.884.32-4.771-2.084-4.938-6.438C-721.615-2248-719.74-2253.981-718.594-2257.065Z" fill="#ffaf8f"/>
                  <path id="Trazado_602989" data-name="Trazado 602989" d="M-710.291-2257.643c-1.36-1.225-3.059-.7-4.339.774a17.632,17.632,0,0,0-2.929,6.177,14.858,14.858,0,0,0-.791,4.511c.019,1.595.551,3.271,1.411,3.658.749.337,1.535-.362,2.088-1.329a12.688,12.688,0,0,0,.371-9.962C-713.664-2256.067-711.786-2257.643-710.291-2257.643Z" fill="#f6917c"/>
                </g>
                <path id="Trazado_602990" data-name="Trazado 602990" d="M-718.351-2323.266h0a103.435,103.435,0,0,1,6.363,44.17h0A93.761,93.761,0,0,1-718.941-2250l-2.519,6.044-.009-49.582-7.609-21.644-55.021.783-2.607,25.554-10.182,10.952,8.617,23.005-4.511,14.187-18.6-13.5-8.071-22.493a71.477,71.477,0,0,1-2.614-39.121h0a20.966,20.966,0,0,1,20.5-16.573h0a54.808,54.808,0,0,1,49.506-31.291h10.991c-.045,3.355-1.877,6.543-4.192,8.971h.24a32.078,32.078,0,0,0,19.858-6.885h0c.522,6.91-3.65,13.3-3.65,13.3h0a22.4,22.4,0,0,0,13.134-12.275l1.338-3.11,2.534,6.622a32.578,32.578,0,0,1-6.54,33.8Z" fill="#2d2a46"/>
                <path id="Trazado_602991" data-name="Trazado 602991" d="M-724.645-2317.529l2.683,9a110.7,110.7,0,0,1,4.482,37l-.479,9.845a60.1,60.1,0,0,1-13.19,34.739h0a30.451,30.451,0,0,1-23.733,11.372h0a30.45,30.45,0,0,1-21.429-8.817l-16.471-16.313-.249-6.986a38.179,38.179,0,0,0-1.9-10.6l-6.641-20.13,6.365-6.62a24.624,24.624,0,0,0,6.87-16.566l.325-15.928Z" fill="#ffaf8f"/>
                <g id="Grupo_877621" data-name="Grupo 877621">
                  <path id="Trazado_602992" data-name="Trazado 602992" d="M-796.45-2253.628c-2.381-3.566-5.877-6.446-9.858-6.921a9.085,9.085,0,0,0-9.63,6.154,11.657,11.657,0,0,0,.84,8.188,22.629,22.629,0,0,0,4.9,6.437c2.865,2.8,6.217,5.329,10.023,5.689,3.388.32,8.58-2.084,8.88-6.439C-791.018-2244.559-794.39-2250.544-796.45-2253.628Z" fill="#ffaf8f"/>
                  <path id="Trazado_602993" data-name="Trazado 602993" d="M-811.385-2254.206a8.088,8.088,0,0,1,7.8.774,16.569,16.569,0,0,1,5.268,6.178,9.189,9.189,0,0,1,1.423,4.511,3.781,3.781,0,0,1-2.538,3.658,4.182,4.182,0,0,1-3.755-1.329,7.721,7.721,0,0,1-.667-9.962A9.772,9.772,0,0,0-811.385-2254.206Z" fill="#f6917c"/>
                </g>
                <path id="Trazado_602994" data-name="Trazado 602994" d="M-751.7-2259.059l12.974.1a7.462,7.462,0,0,1-6.311,4.574C-747.757-2254.3-750.48-2256.626-751.7-2259.059Z" fill="#f6917c"/>
                <ellipse id="Elipse_5674" data-name="Elipse 5674" cx="4.52" cy="5.085" rx="4.52" ry="5.085" transform="translate(-776.492 -2280.241)" fill="#2d2a46"/>
                <g id="Grupo_877622" data-name="Grupo 877622">
                  <path id="Trazado_602995" data-name="Trazado 602995" d="M-769.061-2295.89a14.954,14.954,0,0,1,12.082,6.265h-24.164A14.952,14.952,0,0,1-769.061-2295.89Z" fill="#2d2a46"/>
                </g>
                <path id="Trazado_602996" data-name="Trazado 602996" d="M-735.072-2275.156c0,2.808,1.3,5.085,2.911,5.085s2.911-2.277,2.911-5.085-1.3-5.085-2.911-5.085S-735.072-2277.964-735.072-2275.156Z" fill="#2d2a46"/>
                <g id="Grupo_877623" data-name="Grupo 877623">
                  <path id="Trazado_602997" data-name="Trazado 602997" d="M-729.25-2295.89c3.178,0,5.994,2.464,7.781,6.265h-15.562C-735.243-2293.426-732.428-2295.89-729.25-2295.89Z" fill="#2d2a46"/>
                </g>
                <path id="Trazado_602998" data-name="Trazado 602998" d="M-768.582-2248l35.721.566c-.234,3.843-1.422,7.766-4.136,10.5-4.8,4.835-12.6,6.1-18.982,3.722S-766.361-2241.559-768.582-2248Z" fill="#f4f4f2"/>
                <circle id="Elipse_5675" data-name="Elipse 5675" cx="9.485" cy="9.485" r="9.485" transform="translate(-786.069 -2265.349)" fill="#f6917c"/>
                <path id="Trazado_602999" data-name="Trazado 602999" d="M-729.188-2256.2c-.4,5.223,1.2,9.606,3.586,9.789s4.637-3.9,5.039-9.126-1.2-9.6-3.586-9.788S-728.787-2261.419-729.188-2256.2Z" fill="#f6917c"/>
                <path id="Trazado_603000" data-name="Trazado 603000" d="M-745.037-2254.389h0a23.989,23.989,0,0,1,13.107,2.813l8.589,4.632h0a26.245,26.245,0,0,1-20.513-2.636l-1.359-.8h0a22.511,22.511,0,0,1-17.728,5.076l-11.379-1.638,12.1-5.545a23.989,23.989,0,0,1,11-2.159Z" fill="#2d2a46"/>
              </g>
            </g>
            <g id="Grupo_877627" data-name="Grupo 877627">
              <path id="Trazado_603001" data-name="Trazado 603001" d="M-799.42-2073.055l49.47-7.109,75.566,48.029,10.137-7.669a28.171,28.171,0,0,0,8.649-34.122l-8.446-18.581-73.071-16.032a56.7,56.7,0,0,0-39.047,5.466l-26.975,14.531Z" fill="#ffaf8f"/>
              <path id="Trazado_603002" data-name="Trazado 603002" d="M-664.044-2092.507l8.446,18.581a28.171,28.171,0,0,1-8.649,34.122l-10.137,7.669-7.414-4.712,1.016,3.122a9.447,9.447,0,0,0,8.983,6.522h5.471a33.3,33.3,0,0,0,25.7-12.127h0a33.3,33.3,0,0,0,6.434-29.9l-.121-.445a33.3,33.3,0,0,0-11.483-17.4l-6.136-4.851a17.666,17.666,0,0,0-14.577-3.435l-5.388,1.127Z" fill="#009dce"/>
              <g id="Grupo_877626" data-name="Grupo 877626">
                <path id="Trazado_603003" data-name="Trazado 603003" d="M-799.338-2073.066a265.506,265.506,0,0,1,50.065-14.618,840.473,840.473,0,0,0,88.235,45.038,28.4,28.4,0,0,1-3.209,2.842l-1.889,1.429-8.248,6.24-75.566-48.029Z" fill="#f6917c"/>
                <path id="Trazado_603004" data-name="Trazado 603004" d="M-639.715-2040.492c-.295.392-.6.781-.91,1.162h0a33.3,33.3,0,0,1-25.7,12.127H-671.8a9.447,9.447,0,0,1-8.983-6.522l-1.016-3.122,7.414,4.712,8.248-6.24A54.246,54.246,0,0,0-639.715-2040.492Z" fill="#1dc7f3"/>
                <line id="Línea_344" data-name="Línea 344" x1="7.851" y1="1.723" transform="translate(-671.896 -2094.229)" fill="none"/>
              </g>
            </g>
            <g id="Grupo_877629" data-name="Grupo 877629">
              <path id="Trazado_603005" data-name="Trazado 603005" d="M-718.351-2104.422l2.581-5.27a8.65,8.65,0,0,1,4.5-4.2l14.415-5.88a10.994,10.994,0,0,1,11.906,2.387l9.716,9.669a13.4,13.4,0,0,1,3.338,13.489h0Z" fill="#f6917c"/>
              <path id="Trazado_603006" data-name="Trazado 603006" d="M-829.5-2085.274a36.785,36.785,0,0,0-24.3,13.648l-6.04,7.616-2.786-9.537a213.3,213.3,0,0,1-7.967-75.7h0a35.352,35.352,0,0,1,26.079-31.507l11.109-2.985,10.877,26.623a246.442,246.442,0,0,1,11.5,35.7l7.89,32.874h0Z" fill="#1dc7f3"/>
              <path id="Trazado_603007" data-name="Trazado 603007" d="M-841.1-2036.029a122.094,122.094,0,0,1,41.677-37.026h0l49.47-7.109,34.955,22.217-40.772,22.689a168.346,168.346,0,0,1-64.2,20.315h0a29.83,29.83,0,0,1-27.353-12.26h0Z" fill="#ffaf8f"/>
              <path id="Trazado_603008" data-name="Trazado 603008" d="M-859.843-2064.01l6.04-7.616a36.785,36.785,0,0,1,24.3-13.648l26.367-3.268h0a3.957,3.957,0,0,1,3.516,2.985l3.021,12.1-2.82.405h0a122.094,122.094,0,0,0-41.677,37.026l-6.223,8.826h0a14.353,14.353,0,0,1-9.426-8.741l-5.29-14.107a14.353,14.353,0,0,1,2.193-13.959Z" fill="#009dce"/>
              <path id="Trazado_603009" data-name="Trazado 603009" d="M-749.95-2080.164-715-2057.947l-13.33,7.109-25.377-22.316-42.9.093-2.821.006Z" fill="#e38174"/>
              <g id="Grupo_877628" data-name="Grupo 877628">
                <path id="Trazado_603010" data-name="Trazado 603010" d="M-862.629-2073.547a213.3,213.3,0,0,1-7.967-75.7h0a35.517,35.517,0,0,1,.7-4.81c.108,1.627.263,3.253.432,4.871a391.155,391.155,0,0,0,16.033,77.115c-.123.15-.251.294-.372.446l-2.528,3.188-3.512,4.428Z" fill="#006190"/>
                <path id="Trazado_603011" data-name="Trazado 603011" d="M-843.186-2033.065a42.6,42.6,0,0,0,19.74,8.84c7.684,1.427,15.581,1.234,23.367.549a187.948,187.948,0,0,0,33.4-6.027,168.346,168.346,0,0,1-53.291,14.76h0a29.83,29.83,0,0,1-27.353-12.26h0Z" fill="#f6917c"/>
                <path id="Trazado_603012" data-name="Trazado 603012" d="M-856.331-2068.438a60.811,60.811,0,0,0,4.319,19.341c2.183,5.4,5.591,10.8,10.384,13.821l-1.558,2.211-4.134,5.862h0a14.353,14.353,0,0,1-9.426-8.741l-5.29-14.107a14.353,14.353,0,0,1,2.193-13.959Z" fill="#1dc7f3"/>
              </g>
            </g>
            <g id="Grupo_877630" data-name="Grupo 877630">
              <path id="Trazado_603013" data-name="Trazado 603013" d="M-738.4-2132l3.9-29.453a40.841,40.841,0,0,0-3.955-23.614l-5.485-10.974-1.07-8.436,26.068,20.045,8.689,24.291-13.626-2.666Z" fill="#009dce"/>
              <path id="Trazado_603014" data-name="Trazado 603014" d="M-740.4-2198.554a66.263,66.263,0,0,1,15.512,32.863c1.631-6.129.264-12.321-2.938-17.8S-735.882-2194.1-740.4-2198.554Z" fill="#1dc7f3"/>
            </g>
            <g id="Grupo_877631" data-name="Grupo 877631">
              <path id="Trazado_603015" data-name="Trazado 603015" d="M-784.986-2196.752l-.5,3.98a33.317,33.317,0,0,0,11.082,29.166l36,31.6-51.243-29.03-17.773,10.664,1.481-30.511,20.884-24.217Z" fill="#009dce"/>
              <path id="Trazado_603016" data-name="Trazado 603016" d="M-787.047-2198.335a83.813,83.813,0,0,0-3.077,35.316A43.855,43.855,0,0,1-787.047-2198.335Z" fill="#1dc7f3"/>
            </g>
            <g id="Grupo_877632" data-name="Grupo 877632">
              <path id="Trazado_603017" data-name="Trazado 603017" d="M-714.625-2352.851c-4.383,5.761-12.284,8.175-19.4,6.872a11.844,11.844,0,0,0,1.843-8.171c-6.979,2.351-15.191,2.909-22.2.657a10.686,10.686,0,0,0,4.609-7.107,65.491,65.491,0,0,0-33.858,6.935,54.763,54.763,0,0,1,31.574-10.019h10.991c-.045,3.355-1.877,6.543-4.192,8.971h.24a32.078,32.078,0,0,0,19.858-6.885c.522,6.91-3.65,13.3-3.65,13.3h0a22.4,22.4,0,0,0,13.134-12.275l1.338-3.11,2.534,6.622a32.583,32.583,0,0,1-2.424,28.294A53.162,53.162,0,0,0-714.625-2352.851Z" fill="#44416b"/>
              <path id="Trazado_603018" data-name="Trazado 603018" d="M-822.07-2315.82h0a20.964,20.964,0,0,1,13.6-15.4,26.876,26.876,0,0,0-8.182,9.812c-2.814,5.589-4,11.85-4.754,18.062a145.085,145.085,0,0,0-1.04,15.547A71.46,71.46,0,0,1-822.07-2315.82Z" fill="#44416b"/>
              <path id="Trazado_603019" data-name="Trazado 603019" d="M-726.086-2330.206a19.416,19.416,0,0,1-10.116,7.883,58.663,58.663,0,0,0,13.03-20.371A19.413,19.413,0,0,1-726.086-2330.206Z" fill="#44416b"/>
              <path id="Trazado_603020" data-name="Trazado 603020" d="M-739.116-2343.884a12.181,12.181,0,0,1,1.169,9.6,16.353,16.353,0,0,1-5.525,8.089,25.08,25.08,0,0,1-8.83,4.444A35.534,35.534,0,0,0-739.116-2343.884Z" fill="#44416b"/>
              <path id="Trazado_603021" data-name="Trazado 603021" d="M-753.874-2341.572a14.052,14.052,0,0,1-2.272,13.275,14.053,14.053,0,0,1-12.5,5C-762.379-2327.766-756.6-2334.37-753.874-2341.572Z" fill="#44416b"/>
            </g>
            <g id="Grupo_877636" data-name="Grupo 877636">
              <g id="Grupo_877633" data-name="Grupo 877633">
                <path id="Trazado_603022" data-name="Trazado 603022" d="M-714.544-1998h.636v.114a2.952,2.952,0,0,1,1.7,2.856,2.951,2.951,0,0,1-1.7,2.856v.115h-.636c-1.289,0-2.334-1.33-2.334-2.971S-715.833-1998-714.544-1998Z" fill="#ffc332"/>
                <path id="Trazado_603023" data-name="Trazado 603023" d="M-716.242-1995.033c0,1.641,1.045,2.971,2.334,2.971s2.335-1.33,2.335-2.971-1.045-2.97-2.335-2.97S-716.242-1996.673-716.242-1995.033Z" fill="#ffeaa5"/>
              </g>
              <g id="Grupo_877634" data-name="Grupo 877634">
                <path id="Trazado_603024" data-name="Trazado 603024" d="M-715.314-2030.851h.637v.114a2.953,2.953,0,0,1,1.7,2.856,2.952,2.952,0,0,1-1.7,2.856v.115h-.637c-1.289,0-2.334-1.33-2.334-2.971S-716.6-2030.851-715.314-2030.851Z" fill="#ffc332"/>
                <ellipse id="Elipse_5676" data-name="Elipse 5676" cx="2.334" cy="2.971" rx="2.334" ry="2.971" transform="translate(-717.011 -2030.851)" fill="#ffeaa5"/>
              </g>
              <g id="Grupo_877635" data-name="Grupo 877635">
                <path id="Trazado_603025" data-name="Trazado 603025" d="M-728.527-2130.308l.624-.124.023.112a2.954,2.954,0,0,1,2.223,2.469,2.955,2.955,0,0,1-1.107,3.133l.022.112-.624.125c-1.264.252-2.549-.848-2.87-2.457S-729.791-2130.056-728.527-2130.308Z" fill="#ffc332"/>
                <path id="Trazado_603026" data-name="Trazado 603026" d="M-729.611-2127.063c.32,1.609,1.605,2.709,2.869,2.458s2.03-1.761,1.709-3.37-1.6-2.709-2.87-2.457S-729.932-2128.672-729.611-2127.063Z" fill="#ffeaa5"/>
              </g>
            </g>
          </g>
        </g>
      </g>
      <text id="La_notación_científica_consiste_en_escribir_un_número_utilizando_potencias_de_base_diez_con_exponente_positivo_o_negativo_Herasme_Medina_et_al._2012_pp._7-13_._Es_decir_abreviar_números_muy_grandes_expresándolos_como_multiplicación_entre_un_número_en" data-name="La notación científica consiste en escribir un número utilizando potencias de base diez, con exponente positivo o negativo (Herasme Medina et al., 2012, pp. 7-13). 

Es decir abreviar números muy grandes expresándolos como multiplicación entre un número en" transform="translate(-492.464 -2163.935)" font-size="18" font-family="Roboto-Regular, Roboto"><tspan x="0" y="17">La notación científica consiste en escribir un número utilizando potencias de base </tspan><tspan x="0" y="38.6">diez, con exponente positivo o negativo (Herasme Medina et al., 2012, pp. 7-13). </tspan><tspan x="0" y="60.2"></tspan><tspan x="0" y="81.8">Es decir abreviar números muy grandes expresándolos como multiplicación entre un </tspan><tspan x="0" y="103.4">número entero por otro de base 10. A continuación se muestra sus partes: </tspan></text>
      <text id="Notación_científica" data-name="Notación científica" transform="translate(44.972 -2295.694)" fill="#fff" font-size="32" font-family="Roboto-Bold, Roboto" font-weight="700"><tspan x="-135.547" y="0">Notación científica</tspan></text>
    </g>
  </g>
</svg>
