<svg xmlns="http://www.w3.org/2000/svg" xmlns:xlink="http://www.w3.org/1999/xlink" width="460" height="460" viewBox="0 0 460 460">
  <defs>
    <linearGradient id="linear-gradient" y1="0.5" x2="1" y2="0.5" gradientUnits="objectBoundingBox">
      <stop offset="0" stop-color="#4ba8eb"/>
      <stop offset="0.492" stop-color="#7dcff6"/>
      <stop offset="1" stop-color="#49a7eb"/>
    </linearGradient>
  </defs>
  <g id="Grupo_63567" data-name="Grupo 63567" transform="translate(-904.333 -96)">
    <rect id="Rectángulo_31473" data-name="Rectángulo 31473" width="460" height="460" transform="translate(904.333 96)" fill="none"/>
    <g id="Grupo_63566" data-name="Grupo 63566" transform="translate(944.309 111.929)">
      <g id="Grupo_63461" data-name="Grupo 63461" transform="translate(0 320.666)">
        <path id="Trazado_105686" data-name="Trazado 105686" d="M1562.908,740.884c-40.568,0-73.574-19.353-73.574-43.14s33.005-43.14,73.574-43.14,73.576,19.353,73.576,43.14S1603.477,740.884,1562.908,740.884Zm0-84.866c-39.789,0-72.16,18.718-72.16,41.726s32.371,41.726,72.16,41.726,72.161-18.718,72.161-41.726S1602.7,656.018,1562.908,656.018Z" transform="translate(-1489.334 -654.604)" fill="#0fbab8"/>
      </g>
      <g id="Grupo_63462" data-name="Grupo 63462" transform="translate(90.457 232.609)">
        <path id="Trazado_105687" data-name="Trazado 105687" d="M1625.843,642.389,1581.632,619.4a.707.707,0,0,1-.031-1.238l90.356-53.033.715,1.221-89.252,52.385,43.075,22.4Z" transform="translate(-1581.251 -565.126)" fill="#0fbab8"/>
      </g>
      <g id="Grupo_63463" data-name="Grupo 63463" transform="translate(146.884 250.194)">
        <path id="Trazado_105688" data-name="Trazado 105688" d="M1639.3,595.607a.707.707,0,0,1-.358-1.318l2.44-1.433a.708.708,0,0,1,.716,1.221l-2.44,1.433A.708.708,0,0,1,1639.3,595.607Zm6.1-3.58a.707.707,0,0,1-.358-1.318l2.44-1.431a.707.707,0,1,1,.715,1.22l-2.44,1.431A.712.712,0,0,1,1645.4,592.026Zm6.1-3.579a.707.707,0,0,1-.358-1.318l2.44-1.432a.707.707,0,1,1,.715,1.22l-2.44,1.433A.708.708,0,0,1,1651.494,588.447Zm6.1-3.58a.707.707,0,0,1-.358-1.317l.78-.458a.706.706,0,1,1,.715,1.217l-.781.459A.689.689,0,0,1,1657.593,584.867Z" transform="translate(-1638.588 -582.994)" fill="#a8cff0"/>
      </g>
      <g id="Grupo_63464" data-name="Grupo 63464" transform="translate(140.678 233.769)">
        <path id="Trazado_105689" data-name="Trazado 105689" d="M1632.992,680.759l-.71-1.223,37.845-21.96-32.648-18.982a.707.707,0,0,1,0-1.223L1759.787,566.3l.71,1.224-121.255,70.453,32.648,18.982a.708.708,0,0,1,0,1.224Z" transform="translate(-1632.282 -566.305)" fill="#0fbab8"/>
      </g>
      <g id="Grupo_63477" data-name="Grupo 63477" transform="translate(212.376 2.247)">
        <g id="Grupo_63465" data-name="Grupo 63465" transform="translate(59.068 222.897)">
          <path id="Trazado_105690" data-name="Trazado 105690" d="M1783.615,562.065c0,2.5-4.131,4.525-9.228,4.525s-9.229-2.026-9.229-4.525,4.133-4.525,9.229-4.525S1783.615,559.565,1783.615,562.065Z" transform="translate(-1765.158 -557.54)" fill="#92b4d1" opacity="0.2"/>
        </g>
        <g id="Grupo_63467" data-name="Grupo 63467" transform="translate(53.158 74.128)">
          <g id="Grupo_63466" data-name="Grupo 63466" transform="translate(0 145.379)">
            <path id="Trazado_105691" data-name="Trazado 105691" d="M1772,569.655c-7.207,0-12.852-3.418-12.852-7.779S1764.8,554.1,1772,554.1s12.851,3.417,12.851,7.779S1779.211,569.655,1772,569.655Zm0-14.145c-6.2,0-11.437,2.915-11.437,6.365s5.237,6.364,11.437,6.364,11.437-2.914,11.437-6.364S1778.2,555.51,1772,555.51Z" transform="translate(-1759.153 -554.096)" fill="#0fbab8"/>
          </g>
          <path id="Trazado_105692" data-name="Trazado 105692" d="M1778.391,543.206h-12.559v18.908c0,2.037,2.811,3.675,6.28,3.675s6.28-1.638,6.28-3.657Z" transform="translate(-1759.259 -408.544)" fill="#a8cff0"/>
          <ellipse id="Elipse_4132" data-name="Elipse 4132" cx="6.28" cy="3.657" rx="6.28" ry="3.657" transform="translate(6.572 131.161)" fill="#d1ebff"/>
          <path id="Trazado_105693" data-name="Trazado 105693" d="M1776.622,409.005h-8.964V540.751h0v.036c0,1.442,2.007,2.61,4.483,2.61s4.482-1.168,4.482-2.61v-.036h0Z" transform="translate(-1759.288 -406.413)" fill="#a8cff0"/>
          <path id="Trazado_105694" data-name="Trazado 105694" d="M1769.151,541.289V412.59h3.672V542.284C1772.519,542.46,1769.707,542.431,1769.151,541.289Z" transform="translate(-1759.312 -406.47)" fill="#d1ebff" opacity="0.3"/>
          <path id="Trazado_105695" data-name="Trazado 105695" d="M1776.622,408.981c0,1.442-2.007,2.61-4.482,2.61s-4.483-1.168-4.483-2.61,2.007-2.61,4.483-2.61S1776.622,407.539,1776.622,408.981Z" transform="translate(-1759.288 -406.371)" fill="#d1ebff"/>
          <path id="Trazado_105696" data-name="Trazado 105696" d="M1771.367,548.375a8.156,8.156,0,0,1-4.117-1.332v15.912a4.79,4.79,0,0,0,3.633,1.395c.17,0,.326-.013.484-.022Z" transform="translate(-1759.281 -408.605)" fill="#d1ebff" opacity="0.3"/>
        </g>
        <g id="Grupo_63470" data-name="Grupo 63470" transform="translate(66.939 59.164)">
          <g id="Grupo_63469" data-name="Grupo 63469">
            <g id="Grupo_63468" data-name="Grupo 63468">
              <path id="Trazado_105697" data-name="Trazado 105697" d="M1788.223,402.965c0,1.962-.677,3.351-1.777,4.024-.033.02-2.176,1.361-2.209,1.38-1.145.641-.412-.812-2.151-1.817a13.962,13.962,0,0,1-6.337-10.93c0-1.985-1.836-2-.712-2.664.031-.019,2.393-1.394,2.426-1.412,1.142-.618,2.7-.5,4.424.489A13.964,13.964,0,0,1,1788.223,402.965Z" transform="translate(-1773.18 -391.165)" fill="#a8cff0"/>
              <path id="Trazado_105698" data-name="Trazado 105698" d="M1785.83,404.419c0,4.016-2.837,5.634-6.337,3.614a13.965,13.965,0,0,1-6.337-10.931c0-4.015,2.837-5.633,6.337-3.613A13.964,13.964,0,0,1,1785.83,404.419Z" transform="translate(-1773.156 -391.188)" fill="#d1ebff"/>
              <path id="Trazado_105699" data-name="Trazado 105699" d="M1779.834,393.335a4.576,4.576,0,0,0-4.335-.532,4.988,4.988,0,0,1,3.788.745,13.963,13.963,0,0,1,6.337,10.93c0,2.091-.771,3.53-2,4.145,1.547-.432,2.549-1.971,2.549-4.358A13.962,13.962,0,0,0,1779.834,393.335Z" transform="translate(-1773.193 -391.186)" fill="#fff"/>
            </g>
          </g>
        </g>
        <g id="Grupo_63473" data-name="Grupo 63473" transform="translate(52.726 61.474)">
          <g id="Grupo_63472" data-name="Grupo 63472">
            <g id="Grupo_63471" data-name="Grupo 63471">
              <path id="Trazado_105700" data-name="Trazado 105700" d="M1784.775,404.457a4.128,4.128,0,0,1-1.648,3.732c-.03.019-14.1,8.448-14.136,8.465-1.062.593-.383-.754-2-1.685a12.954,12.954,0,0,1-5.877-10.138c0-1.841-1.7-1.856-.66-2.471.03-.018,14.308-8.478,14.338-8.494a4.19,4.19,0,0,1,4.1.454A12.948,12.948,0,0,1,1784.775,404.457Z" transform="translate(-1758.737 -393.513)" fill="#a8cff0"/>
              <path id="Trazado_105701" data-name="Trazado 105701" d="M1770.469,413.106c0,3.725-2.632,5.226-5.877,3.351a12.949,12.949,0,0,1-5.878-10.137c0-3.725,2.632-5.225,5.878-3.351A12.951,12.951,0,0,1,1770.469,413.106Z" transform="translate(-1758.714 -393.65)" fill="#d1ebff"/>
              <path id="Trazado_105702" data-name="Trazado 105702" d="M1764.908,402.826a4.245,4.245,0,0,0-4.021-.494,4.621,4.621,0,0,1,3.513.691,12.952,12.952,0,0,1,5.878,10.138c0,1.939-.714,3.273-1.857,3.844,1.436-.4,2.365-1.828,2.365-4.042A12.949,12.949,0,0,0,1764.908,402.826Z" transform="translate(-1758.749 -393.648)" fill="#fff"/>
            </g>
          </g>
        </g>
        <path id="Trazado_105703" data-name="Trazado 105703" d="M1763.359,410.773l-2.375.2-13.677,6.168a7.9,7.9,0,0,1-3.651.647l-35.922-.986c-1.786-.086-3.28-3.708-1.749-4.242l35.207-12.542c2.631-.917,5.914-.345,9.295,1.622l10.632,6.183,1.055-.091Z" transform="translate(-1705.141 -332.135)" fill="#f0f8ff"/>
        <path id="Trazado_105704" data-name="Trazado 105704" d="M1762.006,411.639l-2.374.2-13.677,6.168a7.909,7.909,0,0,1-3.651.647l-34.782-1.65c-1.787-.085-3.281-3.707-1.75-4.242l34.067-11.878c2.631-.917,5.914-.344,9.3,1.622l10.632,6.183,1.055-.09Z" transform="translate(-1705.137 -332.149)" fill="#d1ebff"/>
        <path id="Trazado_105705" data-name="Trazado 105705" d="M1705.842,412.963l34.067-11.878c2.631-.917,5.914-.344,9.3,1.622l10.631,6.183,1.056-.09,1.012,2.6.439-.037-1.185-3.038-1.055.09-10.632-6.183c-3.381-1.966-6.663-2.539-9.295-1.622l-34.066,11.878a.905.905,0,0,0-.583.681A.877.877,0,0,1,1705.842,412.963Z" transform="translate(-1705.143 -332.144)" fill="#f0f8ff"/>
        <path id="Trazado_105706" data-name="Trazado 105706" d="M1707.523,417.143l12.344.586-3.343-8.576-10.75,3.749C1704.241,413.436,1705.735,417.059,1707.523,417.143Z" transform="translate(-1705.137 -332.287)" fill="#b49cfc"/>
        <g id="Grupo_63476" data-name="Grupo 63476" transform="translate(50.152 72.618)">
          <g id="Grupo_63475" data-name="Grupo 63475">
            <g id="Grupo_63474" data-name="Grupo 63474">
              <path id="Trazado_105707" data-name="Trazado 105707" d="M1768,412.168a2.763,2.763,0,0,1-1.1,2.5c-.021.013-9.009,2.345-10.55-.337-1.565-2.722,4.949-9.247,4.969-9.258a2.807,2.807,0,0,1,2.749.3A8.678,8.678,0,0,1,1768,412.168Z" transform="translate(-1756.099 -404.836)" fill="#a8cff0"/>
            </g>
          </g>
        </g>
        <path id="Trazado_105708" data-name="Trazado 105708" d="M1763.384,404.2v-3.145l-3.776-22.8a21.05,21.05,0,0,1-.253-5.153l2.147-40.936c.179-2.145,3.009-.616,3.314,1.791l8.541,52.6c.523,4.135-.119,7.687-1.821,10.058l-5.776,7.682v1.4l-1.437.731Z" transform="translate(-1705.997 -331.048)" fill="#a8cff0"/>
        <path id="Trazado_105709" data-name="Trazado 105709" d="M1767.982,410.857l2.375,2.944,17.453,16.637a32.5,32.5,0,0,1,3.9,4.505l30,44.264c1.608,2.231.273,4.324-1.564,2.451l-39.538-42.5a35.082,35.082,0,0,1-7.474-11.68l-5.283-13.638-1.2-2.071Z" transform="translate(-1706.114 -332.314)" fill="#a8cff0"/>
        <path id="Trazado_105710" data-name="Trazado 105710" d="M1811.2,464.837l.641-.318,10.531,15.539c1.608,2.231.273,4.324-1.564,2.451l-12.557-13.5Z" transform="translate(-1706.775 -333.166)" fill="#51427e"/>
        <path id="Trazado_105711" data-name="Trazado 105711" d="M1762.014,405.052v-3.145l-3.776-22.805a21.045,21.045,0,0,1-.254-5.152l3.481-41.771c.179-2.146,3.009-.617,3.314,1.79l6.776,53.54c.524,4.135-.12,7.687-1.822,10.058l-5.349,7.455v1.4Z" transform="translate(-1705.975 -331.048)" fill="#d1ebff"/>
        <path id="Trazado_105712" data-name="Trazado 105712" d="M1766.962,350.863l.6-.162-2.72-16.749c-.305-2.407-3.135-3.936-3.314-1.791l-.775,14.783Z" transform="translate(-1706.02 -331.048)" fill="#51427e"/>
        <path id="Trazado_105713" data-name="Trazado 105713" d="M1761.5,332.179,1760.267,347l6.687,3.861-2.139-16.9C1764.512,331.561,1761.681,330.032,1761.5,332.179Z" transform="translate(-1706.013 -331.048)" fill="#b49cfc"/>
        <path id="Trazado_105714" data-name="Trazado 105714" d="M1766.614,411.723l2.374,2.943,17.454,16.637a32.441,32.441,0,0,1,3.9,4.505l31.3,43.42c1.608,2.231.272,4.324-1.565,2.451l-40.842-41.662a35.054,35.054,0,0,1-7.473-11.679l-5.283-13.639-1.055-1.308Z" transform="translate(-1706.095 -332.328)" fill="#d1ebff"/>
        <path id="Trazado_105715" data-name="Trazado 105715" d="M1822.321,480.069l-11.109-15.41-3.343,4.715,12.888,13.147C1822.594,484.394,1823.93,482.3,1822.321,480.069Z" transform="translate(-1706.769 -333.168)" fill="#b49cfc"/>
        <path id="Trazado_105716" data-name="Trazado 105716" d="M1771.84,387.4l-6.775-53.539c-.21-1.65-1.605-2.887-2.52-2.811a3.383,3.383,0,0,1,2.094,2.758l6.776,53.539c.523,4.135-.12,7.687-1.822,10.058l-5.35,7.456v1.206l.426.245v-1.4l5.35-7.456C1771.721,395.087,1772.364,391.535,1771.84,387.4Z" transform="translate(-1706.049 -331.047)" fill="#fff"/>
        <path id="Trazado_105717" data-name="Trazado 105717" d="M1821.661,479.229l-31.3-43.42a32.414,32.414,0,0,0-3.9-4.505L1769,414.667l-2.374-2.943-.315.444,2.317,2.872,17.453,16.637a32.429,32.429,0,0,1,3.9,4.505l31.3,43.421a2.672,2.672,0,0,1,.534,2.714C1822.522,481.965,1822.667,480.623,1821.661,479.229Z" transform="translate(-1706.109 -332.328)" fill="#fff"/>
      </g>
      <g id="Grupo_63490" data-name="Grupo 63490" transform="translate(277.642 88.262)">
        <g id="Grupo_63478" data-name="Grupo 63478" transform="translate(59.067 222.946)">
          <path id="Trazado_105718" data-name="Trazado 105718" d="M1849.733,649.469c0,2.472-4.087,4.476-9.128,4.476s-9.129-2-9.129-4.476,4.087-4.476,9.129-4.476S1849.733,647,1849.733,649.469Z" transform="translate(-1831.476 -644.993)" fill="#92b4d1" opacity="0.2"/>
        </g>
        <g id="Grupo_63480" data-name="Grupo 63480" transform="translate(53.158 74.128)">
          <g id="Grupo_63479" data-name="Grupo 63479" transform="translate(0 146.016)">
            <path id="Trazado_105719" data-name="Trazado 105719" d="M1838.323,657.7c-7.206,0-12.852-3.417-12.852-7.778s5.646-7.78,12.852-7.78,12.852,3.417,12.852,7.78S1845.53,657.7,1838.323,657.7Zm0-14.144c-6.2,0-11.437,2.914-11.437,6.365s5.237,6.364,11.437,6.364,11.437-2.914,11.437-6.364S1844.522,643.56,1838.323,643.56Z" transform="translate(-1825.471 -642.146)" fill="#0fbab8"/>
          </g>
          <path id="Trazado_105720" data-name="Trazado 105720" d="M1844.708,630.609h-12.559v18.909c0,2.036,2.812,3.674,6.28,3.674s6.28-1.638,6.28-3.657Z" transform="translate(-1825.577 -495.947)" fill="#a8cff0"/>
          <path id="Trazado_105721" data-name="Trazado 105721" d="M1844.708,630.709c0,2.019-2.812,3.656-6.28,3.656s-6.28-1.636-6.28-3.656,2.812-3.657,6.28-3.657S1844.708,628.689,1844.708,630.709Z" transform="translate(-1825.577 -495.89)" fill="#d1ebff"/>
          <path id="Trazado_105722" data-name="Trazado 105722" d="M1842.94,496.408h-8.965V628.154h0l0,.036c0,1.442,2.008,2.61,4.483,2.61s4.483-1.168,4.483-2.61l0-.036h0Z" transform="translate(-1825.606 -493.816)" fill="#a8cff0"/>
          <path id="Trazado_105723" data-name="Trazado 105723" d="M1835.469,628.693v-128.7h3.673V629.687C1838.838,629.864,1836.025,629.834,1835.469,628.693Z" transform="translate(-1825.63 -493.873)" fill="#d1ebff" opacity="0.3"/>
          <path id="Trazado_105724" data-name="Trazado 105724" d="M1842.94,496.385c0,1.441-2.008,2.61-4.483,2.61s-4.483-1.169-4.483-2.61,2.008-2.611,4.483-2.611S1842.94,494.943,1842.94,496.385Z" transform="translate(-1825.606 -493.774)" fill="#d1ebff"/>
          <path id="Trazado_105725" data-name="Trazado 105725" d="M1837.686,635.778a8.145,8.145,0,0,1-4.117-1.332v15.913a4.791,4.791,0,0,0,3.634,1.394c.169,0,.325-.012.484-.022Z" transform="translate(-1825.6 -496.008)" fill="#d1ebff" opacity="0.3"/>
        </g>
        <g id="Grupo_63483" data-name="Grupo 63483" transform="translate(66.939 59.164)">
          <g id="Grupo_63482" data-name="Grupo 63482">
            <g id="Grupo_63481" data-name="Grupo 63481">
              <path id="Trazado_105726" data-name="Trazado 105726" d="M1854.541,490.369c0,1.961-.677,3.351-1.777,4.023-.034.021-2.175,1.361-2.209,1.381-1.145.64-.412-.813-2.151-1.817a13.963,13.963,0,0,1-6.337-10.93c0-1.986-1.835-2-.711-2.665.031-.019,2.394-1.395,2.426-1.411,1.143-.619,2.7-.5,4.424.489A13.962,13.962,0,0,1,1854.541,490.369Z" transform="translate(-1839.499 -478.568)" fill="#a8cff0"/>
              <path id="Trazado_105727" data-name="Trazado 105727" d="M1852.149,491.823c0,4.015-2.837,5.633-6.337,3.613a13.963,13.963,0,0,1-6.337-10.93c0-4.016,2.837-5.633,6.337-3.613A13.962,13.962,0,0,1,1852.149,491.823Z" transform="translate(-1839.475 -478.591)" fill="#d1ebff"/>
              <path id="Trazado_105728" data-name="Trazado 105728" d="M1846.153,480.738a4.578,4.578,0,0,0-4.336-.532,4.987,4.987,0,0,1,3.789.746,13.961,13.961,0,0,1,6.336,10.93c0,2.09-.77,3.529-2,4.145,1.547-.433,2.548-1.972,2.548-4.359A13.962,13.962,0,0,0,1846.153,480.738Z" transform="translate(-1839.512 -478.589)" fill="#fff"/>
            </g>
          </g>
        </g>
        <g id="Grupo_63486" data-name="Grupo 63486" transform="translate(52.727 61.474)">
          <g id="Grupo_63485" data-name="Grupo 63485">
            <g id="Grupo_63484" data-name="Grupo 63484">
              <path id="Trazado_105729" data-name="Trazado 105729" d="M1851.094,491.86a4.13,4.13,0,0,1-1.648,3.733c-.031.019-14.105,8.447-14.137,8.464-1.062.594-.383-.754-1.995-1.685a12.949,12.949,0,0,1-5.878-10.137c0-1.842-1.7-1.857-.66-2.472.029-.017,14.307-8.478,14.338-8.494a4.193,4.193,0,0,1,4.1.454A12.95,12.95,0,0,1,1851.094,491.86Z" transform="translate(-1825.055 -480.916)" fill="#a8cff0"/>
              <path id="Trazado_105730" data-name="Trazado 105730" d="M1836.788,500.51c0,3.725-2.632,5.225-5.877,3.351a12.952,12.952,0,0,1-5.877-10.137c0-3.725,2.632-5.226,5.877-3.352A12.954,12.954,0,0,1,1836.788,500.51Z" transform="translate(-1825.033 -481.053)" fill="#d1ebff"/>
              <path id="Trazado_105731" data-name="Trazado 105731" d="M1831.227,490.229a4.245,4.245,0,0,0-4.021-.494,4.628,4.628,0,0,1,3.513.692,12.951,12.951,0,0,1,5.877,10.137c0,1.94-.714,3.274-1.856,3.845,1.435-.4,2.364-1.829,2.364-4.043A12.952,12.952,0,0,0,1831.227,490.229Z" transform="translate(-1825.068 -481.051)" fill="#fff"/>
            </g>
          </g>
        </g>
        <path id="Trazado_105732" data-name="Trazado 105732" d="M1829.677,498.177l-2.374.2-13.678,6.167a7.892,7.892,0,0,1-3.65.648l-35.922-.987c-1.787-.085-3.281-3.707-1.75-4.242l35.208-12.542c2.631-.917,5.914-.344,9.294,1.622l10.633,6.183,1.056-.09Z" transform="translate(-1771.459 -419.538)" fill="#f0f8ff"/>
        <path id="Trazado_105733" data-name="Trazado 105733" d="M1828.326,499.042l-2.375.2-13.677,6.167a7.9,7.9,0,0,1-3.651.647l-34.782-1.65c-1.787-.085-3.281-3.707-1.749-4.241l34.066-11.878c2.631-.917,5.913-.345,9.295,1.621l10.633,6.183,1.055-.09Z" transform="translate(-1771.456 -419.552)" fill="#d1ebff"/>
        <path id="Trazado_105734" data-name="Trazado 105734" d="M1772.16,500.366l34.067-11.877c2.632-.918,5.914-.345,9.3,1.621l10.632,6.183,1.055-.09,1.013,2.6.438-.037-1.184-3.038-1.056.09-10.632-6.183c-3.38-1.966-6.664-2.538-9.3-1.621l-34.066,11.878a.9.9,0,0,0-.582.681A.86.86,0,0,1,1772.16,500.366Z" transform="translate(-1771.462 -419.547)" fill="#f0f8ff"/>
        <path id="Trazado_105735" data-name="Trazado 105735" d="M1773.841,504.546l12.344.587-3.343-8.576-10.75,3.749C1770.56,500.839,1772.054,504.462,1773.841,504.546Z" transform="translate(-1771.456 -419.69)" fill="#b49cfc"/>
        <g id="Grupo_63489" data-name="Grupo 63489" transform="translate(50.153 72.618)">
          <g id="Grupo_63488" data-name="Grupo 63488">
            <g id="Grupo_63487" data-name="Grupo 63487">
              <path id="Trazado_105736" data-name="Trazado 105736" d="M1834.314,499.571a2.768,2.768,0,0,1-1.1,2.5c-.021.013-9.01,2.344-10.55-.337-1.565-2.723,4.948-9.248,4.968-9.259a2.81,2.81,0,0,1,2.749.3A8.673,8.673,0,0,1,1834.314,499.571Z" transform="translate(-1822.417 -492.24)" fill="#a8cff0"/>
            </g>
          </g>
        </g>
        <path id="Trazado_105737" data-name="Trazado 105737" d="M1829.7,491.6v-3.145l-3.776-22.8a21.043,21.043,0,0,1-.254-5.152l2.147-40.937c.179-2.146,3.009-.617,3.313,1.79l8.542,52.6c.524,4.135-.12,7.687-1.822,10.058l-5.776,7.682v1.4l-1.437.731Z" transform="translate(-1772.316 -418.451)" fill="#a8cff0"/>
        <path id="Trazado_105738" data-name="Trazado 105738" d="M1834.3,498.261l2.374,2.944,17.453,16.636a32.4,32.4,0,0,1,3.905,4.505l30,44.264c1.608,2.231.272,4.324-1.565,2.45l-39.538-42.5a35.072,35.072,0,0,1-7.473-11.679l-5.283-13.639-1.2-2.07Z" transform="translate(-1772.433 -419.717)" fill="#a8cff0"/>
        <path id="Trazado_105739" data-name="Trazado 105739" d="M1877.518,552.24l.642-.318,10.531,15.54c1.608,2.231.272,4.324-1.565,2.45l-12.557-13.5Z" transform="translate(-1773.093 -420.569)" fill="#51427e"/>
        <path id="Trazado_105740" data-name="Trazado 105740" d="M1828.332,492.455v-3.145l-3.776-22.805a21.046,21.046,0,0,1-.253-5.152l3.481-41.771c.179-2.145,3.008-.616,3.313,1.791l6.775,53.539c.524,4.135-.12,7.687-1.821,10.058l-5.351,7.455v1.4Z" transform="translate(-1772.294 -418.451)" fill="#d1ebff"/>
        <path id="Trazado_105741" data-name="Trazado 105741" d="M1833.28,438.267l.6-.162-2.72-16.75c-.3-2.407-3.135-3.936-3.314-1.79l-.775,14.783Z" transform="translate(-1772.339 -418.451)" fill="#51427e"/>
        <path id="Trazado_105742" data-name="Trazado 105742" d="M1827.821,419.582l-1.235,14.825,6.686,3.861-2.138-16.894C1830.83,418.965,1828,417.436,1827.821,419.582Z" transform="translate(-1772.331 -418.451)" fill="#b49cfc"/>
        <path id="Trazado_105743" data-name="Trazado 105743" d="M1832.932,499.126l2.375,2.943,17.453,16.637a32.412,32.412,0,0,1,3.9,4.505l31.3,43.421c1.608,2.231.272,4.324-1.565,2.451l-40.842-41.661a35.085,35.085,0,0,1-7.473-11.68L1832.8,502.1l-1.055-1.309Z" transform="translate(-1772.413 -419.731)" fill="#d1ebff"/>
        <path id="Trazado_105744" data-name="Trazado 105744" d="M1888.64,567.473l-11.109-15.41-3.344,4.715,12.888,13.146C1888.912,571.8,1890.248,569.7,1888.64,567.473Z" transform="translate(-1773.087 -420.571)" fill="#b49cfc"/>
        <path id="Trazado_105745" data-name="Trazado 105745" d="M1838.159,474.8l-6.776-53.539c-.209-1.651-1.6-2.888-2.519-2.812a3.382,3.382,0,0,1,2.093,2.758l6.776,53.54c.523,4.135-.12,7.687-1.822,10.058l-5.35,7.455v1.206l.426.246v-1.4l5.349-7.455C1838.039,482.491,1838.682,478.939,1838.159,474.8Z" transform="translate(-1772.367 -418.45)" fill="#fff"/>
        <path id="Trazado_105746" data-name="Trazado 105746" d="M1887.98,566.633l-31.3-43.421a32.479,32.479,0,0,0-3.9-4.505l-17.453-16.637-2.375-2.943-.315.444,2.317,2.873,17.453,16.637a32.4,32.4,0,0,1,3.905,4.505l31.3,43.42a2.669,2.669,0,0,1,.534,2.715C1888.84,569.368,1888.985,568.027,1887.98,566.633Z" transform="translate(-1772.427 -419.731)" fill="#fff"/>
      </g>
      <g id="Grupo_63503" data-name="Grupo 63503" transform="translate(123.825 0)">
        <g id="Grupo_63491" data-name="Grupo 63491" transform="translate(59.067 223.005)">
          <path id="Trazado_105747" data-name="Trazado 105747" d="M1693.2,559.784c0,2.44-4.033,4.418-9.009,4.418s-9.01-1.978-9.01-4.418,4.034-4.417,9.01-4.417S1693.2,557.344,1693.2,559.784Z" transform="translate(-1675.177 -555.367)" fill="#92b4d1" opacity="0.2"/>
        </g>
        <g id="Grupo_63493" data-name="Grupo 63493" transform="translate(53.158 74.128)">
          <g id="Grupo_63492" data-name="Grupo 63492" transform="translate(0 145.969)">
            <path id="Trazado_105748" data-name="Trazado 105748" d="M1682.024,567.97c-7.207,0-12.852-3.417-12.852-7.78s5.645-7.778,12.852-7.778,12.853,3.417,12.853,7.778S1689.231,567.97,1682.024,567.97Zm0-14.144c-6.2,0-11.437,2.914-11.437,6.364s5.238,6.365,11.438,6.365,11.437-2.914,11.437-6.365S1688.224,553.826,1682.024,553.826Z" transform="translate(-1669.172 -552.412)" fill="#0fbab8"/>
          </g>
          <path id="Trazado_105749" data-name="Trazado 105749" d="M1688.41,540.923H1675.85v18.909c0,2.036,2.812,3.674,6.28,3.674s6.28-1.638,6.28-3.657Z" transform="translate(-1669.278 -406.261)" fill="#a8cff0"/>
          <path id="Trazado_105750" data-name="Trazado 105750" d="M1688.41,541.023c0,2.019-2.812,3.656-6.28,3.656s-6.28-1.637-6.28-3.656,2.812-3.657,6.28-3.657S1688.41,539,1688.41,541.023Z" transform="translate(-1669.278 -406.204)" fill="#d1ebff"/>
          <path id="Trazado_105751" data-name="Trazado 105751" d="M1686.641,406.722h-8.965V538.468h0l0,.036c0,1.442,2.007,2.61,4.483,2.61s4.483-1.168,4.483-2.61l0-.036h0Z" transform="translate(-1669.307 -404.13)" fill="#a8cff0"/>
          <path id="Trazado_105752" data-name="Trazado 105752" d="M1679.17,539.007v-128.7h3.673V540C1682.539,540.177,1679.726,540.148,1679.17,539.007Z" transform="translate(-1669.331 -404.187)" fill="#d1ebff" opacity="0.3"/>
          <path id="Trazado_105753" data-name="Trazado 105753" d="M1686.641,406.7c0,1.441-2.007,2.61-4.483,2.61s-4.483-1.169-4.483-2.61,2.007-2.611,4.483-2.611S1686.641,405.257,1686.641,406.7Z" transform="translate(-1669.307 -404.088)" fill="#d1ebff"/>
          <path id="Trazado_105754" data-name="Trazado 105754" d="M1681.387,546.092a8.154,8.154,0,0,1-4.118-1.332v15.913a4.791,4.791,0,0,0,3.633,1.394c.169,0,.325-.012.484-.022Z" transform="translate(-1669.301 -406.322)" fill="#d1ebff" opacity="0.3"/>
        </g>
        <g id="Grupo_63496" data-name="Grupo 63496" transform="translate(64.315 58.421)">
          <g id="Grupo_63495" data-name="Grupo 63495" transform="translate(0 0)">
            <g id="Grupo_63494" data-name="Grupo 63494">
              <path id="Trazado_105755" data-name="Trazado 105755" d="M1698.241,400.683c0,1.961-.677,3.351-1.777,4.023-.034.021-2.175,1.361-2.208,1.381-1.146.64-.413-.813-2.152-1.817a13.963,13.963,0,0,1-6.337-10.93c0-1.986-1.836-2-.711-2.665.031-.019,2.393-1.395,2.425-1.411,1.143-.619,2.7-.5,4.424.489A13.962,13.962,0,0,1,1698.241,400.683Z" transform="translate(-1680.575 -388.14)" fill="#a8cff0"/>
              <ellipse id="Elipse_4133" data-name="Elipse 4133" cx="5.158" cy="8.934" rx="5.158" ry="8.934" transform="translate(0 5.206) rotate(-30.311)" fill="#d1ebff"/>
              <path id="Trazado_105756" data-name="Trazado 105756" d="M1689.854,391.052a4.578,4.578,0,0,0-4.336-.532,4.989,4.989,0,0,1,3.789.746,13.961,13.961,0,0,1,6.336,10.93c0,2.09-.77,3.529-2,4.145,1.547-.433,2.548-1.972,2.548-4.359A13.963,13.963,0,0,0,1689.854,391.052Z" transform="translate(-1680.589 -388.16)" fill="#fff"/>
            </g>
          </g>
        </g>
        <g id="Grupo_63499" data-name="Grupo 63499" transform="translate(52.727 61.474)">
          <g id="Grupo_63498" data-name="Grupo 63498">
            <g id="Grupo_63497" data-name="Grupo 63497">
              <path id="Trazado_105757" data-name="Trazado 105757" d="M1694.8,402.174a4.13,4.13,0,0,1-1.649,3.733c-.03.019-14.105,8.447-14.137,8.464-1.062.594-.383-.754-1.995-1.685a12.949,12.949,0,0,1-5.878-10.137c0-1.842-1.7-1.857-.659-2.472.029-.017,14.307-8.478,14.338-8.494a4.192,4.192,0,0,1,4.1.454A12.95,12.95,0,0,1,1694.8,402.174Z" transform="translate(-1668.756 -391.23)" fill="#a8cff0"/>
              <path id="Trazado_105758" data-name="Trazado 105758" d="M1680.488,410.824c0,3.725-2.63,5.225-5.877,3.351a12.954,12.954,0,0,1-5.877-10.138c0-3.724,2.632-5.225,5.877-3.351A12.951,12.951,0,0,1,1680.488,410.824Z" transform="translate(-1668.734 -391.367)" fill="#d1ebff"/>
              <path id="Trazado_105759" data-name="Trazado 105759" d="M1674.928,400.543a4.246,4.246,0,0,0-4.021-.494,4.63,4.63,0,0,1,3.514.692,12.951,12.951,0,0,1,5.877,10.137c0,1.94-.715,3.274-1.856,3.845,1.435-.4,2.364-1.83,2.364-4.043A12.952,12.952,0,0,0,1674.928,400.543Z" transform="translate(-1668.769 -391.365)" fill="#fff"/>
            </g>
          </g>
        </g>
        <path id="Trazado_105760" data-name="Trazado 105760" d="M1673.378,408.491l-2.374.2-13.677,6.169a7.912,7.912,0,0,1-3.651.647l-35.922-.987c-1.787-.085-3.281-3.707-1.75-4.242l35.208-12.542c2.63-.917,5.913-.344,9.294,1.622l10.632,6.183,1.056-.09Z" transform="translate(-1615.16 -329.852)" fill="#f0f8ff"/>
        <path id="Trazado_105761" data-name="Trazado 105761" d="M1672.026,409.356l-2.375.2-13.677,6.168a7.9,7.9,0,0,1-3.651.647l-34.781-1.649c-1.787-.086-3.281-3.708-1.749-4.242l34.066-11.878c2.632-.917,5.914-.345,9.3,1.621l10.632,6.183,1.055-.09Z" transform="translate(-1615.157 -329.866)" fill="#d1ebff"/>
        <path id="Trazado_105762" data-name="Trazado 105762" d="M1615.862,410.68l34.066-11.877c2.632-.918,5.913-.345,9.295,1.621l10.632,6.183,1.055-.09,1.012,2.6.439-.037-1.184-3.038-1.056.091-10.633-6.184c-3.38-1.966-6.663-2.538-9.295-1.621L1616.128,410.2a.9.9,0,0,0-.582.681A.858.858,0,0,1,1615.862,410.68Z" transform="translate(-1615.163 -329.861)" fill="#f0f8ff"/>
        <path id="Trazado_105763" data-name="Trazado 105763" d="M1617.542,414.86l12.344.587-3.343-8.576-10.749,3.749C1614.261,411.153,1615.755,414.776,1617.542,414.86Z" transform="translate(-1615.157 -330.004)" fill="#b49cfc"/>
        <g id="Grupo_63502" data-name="Grupo 63502" transform="translate(50.153 72.618)">
          <g id="Grupo_63501" data-name="Grupo 63501">
            <g id="Grupo_63500" data-name="Grupo 63500">
              <path id="Trazado_105764" data-name="Trazado 105764" d="M1678.015,409.885a2.768,2.768,0,0,1-1.1,2.5c-.021.013-9.01,2.344-10.55-.337-1.565-2.723,4.948-9.248,4.968-9.259a2.811,2.811,0,0,1,2.749.3A8.675,8.675,0,0,1,1678.015,409.885Z" transform="translate(-1666.119 -402.554)" fill="#a8cff0"/>
            </g>
          </g>
        </g>
        <path id="Trazado_105765" data-name="Trazado 105765" d="M1673.4,401.917v-3.145l-3.776-22.8a21.045,21.045,0,0,1-.254-5.152l2.147-40.937c.179-2.146,3.01-.617,3.314,1.79l8.542,52.6c.524,4.135-.12,7.687-1.822,10.058l-5.776,7.682v1.4l-1.437.731Z" transform="translate(-1616.017 -328.765)" fill="#a8cff0"/>
        <path id="Trazado_105766" data-name="Trazado 105766" d="M1678,408.575l2.374,2.944,17.453,16.637a32.385,32.385,0,0,1,3.9,4.505l30,44.264c1.608,2.231.272,4.324-1.565,2.45l-39.538-42.5a35.068,35.068,0,0,1-7.473-11.679l-5.283-13.639-1.2-2.071Z" transform="translate(-1616.134 -330.031)" fill="#a8cff0"/>
        <path id="Trazado_105767" data-name="Trazado 105767" d="M1721.219,462.554l.641-.318,10.531,15.54c1.608,2.231.272,4.324-1.565,2.45l-12.557-13.5Z" transform="translate(-1616.794 -330.883)" fill="#51427e"/>
        <path id="Trazado_105768" data-name="Trazado 105768" d="M1672.033,402.769v-3.145l-3.776-22.805a21.034,21.034,0,0,1-.253-5.152l3.481-41.771c.179-2.145,3.009-.616,3.314,1.791l6.775,53.539c.524,4.135-.12,7.687-1.821,10.058l-5.35,7.455v1.4Z" transform="translate(-1615.995 -328.765)" fill="#d1ebff"/>
        <path id="Trazado_105769" data-name="Trazado 105769" d="M1676.981,348.581l.6-.162-2.72-16.75c-.3-2.407-3.134-3.936-3.313-1.79l-.776,14.783Z" transform="translate(-1616.04 -328.765)" fill="#51427e"/>
        <path id="Trazado_105770" data-name="Trazado 105770" d="M1671.522,329.9l-1.235,14.825,6.686,3.861-2.138-16.894C1674.531,329.279,1671.7,327.75,1671.522,329.9Z" transform="translate(-1616.032 -328.765)" fill="#b49cfc"/>
        <path id="Trazado_105771" data-name="Trazado 105771" d="M1676.633,409.44l2.375,2.944,17.453,16.637a32.382,32.382,0,0,1,3.9,4.505l31.3,43.421c1.608,2.231.271,4.324-1.565,2.45l-40.842-41.661a35.082,35.082,0,0,1-7.473-11.68l-5.283-13.638-1.055-1.309Z" transform="translate(-1616.114 -330.045)" fill="#d1ebff"/>
        <path id="Trazado_105772" data-name="Trazado 105772" d="M1732.341,477.787l-11.109-15.41-3.344,4.715,12.888,13.146C1732.613,482.111,1733.949,480.018,1732.341,477.787Z" transform="translate(-1616.788 -330.885)" fill="#b49cfc"/>
        <path id="Trazado_105773" data-name="Trazado 105773" d="M1681.86,385.118l-6.776-53.54c-.209-1.65-1.6-2.887-2.519-2.811a3.382,3.382,0,0,1,2.093,2.758l6.776,53.54c.524,4.135-.12,7.687-1.821,10.058l-5.351,7.455v1.206l.426.246v-1.4l5.35-7.455C1681.74,392.8,1682.383,389.253,1681.86,385.118Z" transform="translate(-1616.068 -328.764)" fill="#fff"/>
        <path id="Trazado_105774" data-name="Trazado 105774" d="M1731.681,476.947l-31.3-43.421a32.374,32.374,0,0,0-3.9-4.505l-17.453-16.637-2.375-2.944-.315.444,2.317,2.873,17.453,16.637a32.394,32.394,0,0,1,3.905,4.505l31.3,43.42a2.668,2.668,0,0,1,.534,2.714C1732.541,479.682,1732.686,478.341,1731.681,476.947Z" transform="translate(-1616.128 -330.045)" fill="#fff"/>
      </g>
      <g id="Grupo_63504" data-name="Grupo 63504" transform="translate(130.555 11.772)">
        <path id="Trazado_105775" data-name="Trazado 105775" d="M1623.411,377.275H1622c0-14.182,4.476-25.348,12.6-31.441,7.072-5.305,16.3-6.506,26.677-3.476l-.395,1.358c-9.94-2.9-18.73-1.776-25.435,3.249C1627.684,352.785,1623.411,363.55,1623.411,377.275Z" transform="translate(-1621.996 -340.725)" fill="#ffd70f"/>
      </g>
      <g id="Grupo_63505" data-name="Grupo 63505" transform="translate(143.52 93.93)">
        <path id="Trazado_105776" data-name="Trazado 105776" d="M1659.093,455.9a.7.7,0,0,1-.478-.186,117.273,117.273,0,0,1-23.36-30.463.708.708,0,0,1,1.246-.671,115.881,115.881,0,0,0,23.07,30.093.706.706,0,0,1-.477,1.227Z" transform="translate(-1635.17 -424.209)" fill="#d1ebff"/>
      </g>
      <g id="Grupo_63506" data-name="Grupo 63506" transform="translate(198.782 32.496)">
        <path id="Trazado_105777" data-name="Trazado 105777" d="M1703.481,376.705a.705.705,0,0,1-.573-.292,111.993,111.993,0,0,0-11.379-13.422.707.707,0,1,1,1-1,113.327,113.327,0,0,1,11.523,13.593.706.706,0,0,1-.573,1.121Z" transform="translate(-1691.323 -361.784)" fill="#d1ebff"/>
      </g>
      <g id="Grupo_63507" data-name="Grupo 63507" transform="translate(144.739 111.28)">
        <path id="Trazado_105778" data-name="Trazado 105778" d="M1673.572,478.3a.7.7,0,0,1-.353-.094q-1.228-.71-2.444-1.466a.707.707,0,1,1,.746-1.2q1.2.744,2.406,1.443a.708.708,0,0,1-.354,1.32Zm-5.974-3.782a.713.713,0,0,1-.4-.125q-1.166-.806-2.321-1.652a.707.707,0,0,1,.837-1.141q1.139.834,2.288,1.629a.707.707,0,0,1-.4,1.289Zm-5.669-4.222a.7.7,0,0,1-.443-.154q-1.106-.886-2.2-1.809a.707.707,0,0,1,.912-1.08q1.079.911,2.17,1.784a.707.707,0,0,1-.442,1.259Zm-5.368-4.6a.705.705,0,0,1-.476-.185q-1.046-.955-2.078-1.942a.708.708,0,0,1,.978-1.023q1.02.976,2.054,1.921a.707.707,0,0,1-.477,1.229Zm-5.074-4.918a.708.708,0,0,1-.507-.214q-.989-1.017-1.962-2.06a.708.708,0,0,1,1.036-.964q.959,1.032,1.94,2.036a.708.708,0,0,1-.507,1.2Zm-4.789-5.2a.708.708,0,0,1-.533-.242q-.931-1.07-1.845-2.162a.707.707,0,1,1,1.086-.907q.9,1.082,1.825,2.14a.706.706,0,0,1-.069,1A.7.7,0,0,1,1646.7,455.585Zm-4.506-5.448a.709.709,0,0,1-.557-.27q-.875-1.118-1.732-2.254a.707.707,0,0,1,1.13-.851q.849,1.126,1.716,2.23a.709.709,0,0,1-.12.994A.7.7,0,0,1,1642.192,450.137Zm-4.225-5.669a.705.705,0,0,1-.578-.3q-.431-.608-.855-1.222a.707.707,0,1,1,1.163-.805q.421.607.846,1.209a.708.708,0,0,1-.577,1.116Z" transform="translate(-1636.408 -441.839)" fill="#0fbab8"/>
      </g>
      <g id="Grupo_63508" data-name="Grupo 63508" transform="translate(201.341 150.364)">
        <path id="Trazado_105779" data-name="Trazado 105779" d="M1701.668,487.25a.708.708,0,0,1,0-1.415c.934,0,1.865-.035,2.77-.107a.732.732,0,0,1,.759.649.706.706,0,0,1-.649.761C1703.608,487.212,1702.639,487.25,1701.668,487.25Zm-4.235-.23c-.026,0-.051,0-.076,0q-1.407-.151-2.847-.4a.707.707,0,0,1,.24-1.393q1.395.241,2.755.387a.707.707,0,0,1-.073,1.41Zm11.256-.479a.707.707,0,0,1-.144-1.4c.9-.189,1.8-.42,2.674-.689a.708.708,0,0,1,.417,1.352c-.914.28-1.856.523-2.8.72A.688.688,0,0,1,1708.69,486.541Zm6.691-2.238a.707.707,0,0,1-.3-1.346c.83-.394,1.647-.833,2.431-1.3a.707.707,0,0,1,.729,1.212c-.823.494-1.681.955-2.553,1.369A.709.709,0,0,1,1715.381,484.3Z" transform="translate(-1693.924 -481.553)" fill="#0fbab8"/>
      </g>
      <g id="Grupo_63509" data-name="Grupo 63509" transform="translate(237.867 117.575)">
        <path id="Trazado_105780" data-name="Trazado 105780" d="M1731.747,466.154a.729.729,0,0,1-.267-.051.707.707,0,0,1-.388-.922q.515-1.268.962-2.611a.708.708,0,0,1,1.343.448q-.464,1.386-1,2.7A.706.706,0,0,1,1731.747,466.154Zm2.151-6.73a.692.692,0,0,1-.166-.02.708.708,0,0,1-.523-.853q.323-1.335.589-2.731a.707.707,0,0,1,1.389.263q-.271,1.432-.6,2.8A.707.707,0,0,1,1733.9,459.423Zm1.238-6.959a.6.6,0,0,1-.084,0,.706.706,0,0,1-.619-.785q.161-1.368.27-2.786a.736.736,0,0,1,.76-.651.707.707,0,0,1,.652.759q-.112,1.448-.278,2.845A.705.705,0,0,1,1735.136,452.465Z" transform="translate(-1731.04 -448.236)" fill="#0fbab8"/>
      </g>
      <g id="Grupo_63510" data-name="Grupo 63510" transform="translate(188.658 12.205)">
        <path id="Trazado_105781" data-name="Trazado 105781" d="M1704.155,364.027a.71.71,0,0,1-.549-.261q-.89-1.094-1.8-2.164a.707.707,0,1,1,1.078-.916q.92,1.082,1.818,2.187a.708.708,0,0,1-.548,1.154Zm-4.6-5.367a.7.7,0,0,1-.524-.232c-.633-.7-1.267-1.385-1.912-2.064a.708.708,0,1,1,1.028-.972q.973,1.029,1.931,2.086a.707.707,0,0,1-.524,1.182Zm-4.887-5.109a.7.7,0,0,1-.5-.2q-1.007-.991-2.024-1.952a.707.707,0,0,1,.969-1.03q1.032.973,2.047,1.975a.707.707,0,0,1-.5,1.21Zm-5.178-4.814a.7.7,0,0,1-.466-.175q-1.06-.927-2.138-1.821a.707.707,0,0,1,.9-1.088q1.091.9,2.166,1.844a.708.708,0,0,1-.465,1.24Zm-5.471-4.475a.71.71,0,0,1-.43-.145q-1.12-.856-2.255-1.67a.707.707,0,0,1,.824-1.149q1.154.827,2.29,1.695a.707.707,0,0,1-.429,1.27Z" transform="translate(-1681.036 -341.165)" fill="#0fbab8"/>
      </g>
      <g id="Grupo_63511" data-name="Grupo 63511" transform="translate(120.648 7.941)">
        <path id="Trazado_105782" data-name="Trazado 105782" d="M1617.251,401.519a.707.707,0,0,1-.677-.5q-.412-1.367-.787-2.735a.708.708,0,0,1,1.365-.375q.37,1.351.776,2.7a.707.707,0,0,1-.473.881A.727.727,0,0,1,1617.251,401.519Zm-1.833-6.832a.709.709,0,0,1-.688-.544q-.329-1.391-.623-2.778a.708.708,0,1,1,1.385-.292q.289,1.37.614,2.744a.707.707,0,0,1-.525.851A.715.715,0,0,1,1615.418,394.688ZM1614,387.756a.707.707,0,0,1-.7-.589q-.241-1.41-.439-2.814a.707.707,0,1,1,1.4-.2q.2,1.385.433,2.777a.708.708,0,0,1-.579.817A.809.809,0,0,1,1614,387.756Zm-.943-7.01a.708.708,0,0,1-.7-.638q-.139-1.426-.234-2.842a.708.708,0,0,1,.657-.754.724.724,0,0,1,.754.658q.093,1.395.232,2.8a.709.709,0,0,1-.636.774C1613.108,380.745,1613.085,380.746,1613.062,380.746Zm-.412-7.061a.707.707,0,0,1-.707-.695c-.009-.5-.013-1-.014-1.495q0-.685.011-1.357a.745.745,0,0,1,.719-.7.708.708,0,0,1,.7.718q-.01.663-.011,1.334c0,.488.006.98.014,1.473a.708.708,0,0,1-.695.718Zm.188-7.067-.053,0a.708.708,0,0,1-.653-.757q.108-1.45.269-2.846a.708.708,0,1,1,1.406.164q-.161,1.368-.264,2.785A.708.708,0,0,1,1612.838,366.618Zm.9-7.011a.649.649,0,0,1-.131-.012.707.707,0,0,1-.566-.825q.266-1.432.594-2.8a.707.707,0,1,1,1.376.329q-.319,1.336-.581,2.733A.705.705,0,0,1,1613.733,359.608Zm1.739-6.848a.728.728,0,0,1-.222-.035.707.707,0,0,1-.45-.894q.456-1.386.983-2.7a.707.707,0,1,1,1.313.527q-.511,1.271-.954,2.614A.707.707,0,0,1,1615.472,352.759Zm2.743-6.509a.707.707,0,0,1-.625-1.036c.446-.846.928-1.686,1.435-2.5a.707.707,0,0,1,1.2.75c-.487.781-.953,1.59-1.383,2.405A.709.709,0,0,1,1618.215,346.25Zm3.881-5.9a.708.708,0,0,1-.546-1.155c.617-.755,1.267-1.48,1.929-2.154a.707.707,0,1,1,1.009.992c-.633.644-1.253,1.336-1.844,2.059A.706.706,0,0,1,1622.1,340.354Z" transform="translate(-1611.929 -336.833)" fill="#0fbab8"/>
      </g>
      <g id="Grupo_63512" data-name="Grupo 63512" transform="translate(218.634 21.519)">
        <path id="Trazado_105783" data-name="Trazado 105783" d="M1713.792,399.274a82.56,82.56,0,0,1-2.3-18.755c0-13.15,3.709-23.485,10.727-29.889l.954,1.044c-6.716,6.13-10.265,16.1-10.265,28.845a81.183,81.183,0,0,0,2.257,18.433Z" transform="translate(-1711.496 -350.63)" fill="#ffd70f"/>
      </g>
      <g id="Grupo_63513" data-name="Grupo 63513" transform="translate(288.185 140.701)">
        <path id="Trazado_105784" data-name="Trazado 105784" d="M1786.653,477.446a33.714,33.714,0,0,1-3.857-.224.707.707,0,1,1,.162-1.405c6.82.782,13.056-.584,18.02-3.959a.708.708,0,0,1,.8,1.17A26.574,26.574,0,0,1,1786.653,477.446Z" transform="translate(-1782.169 -471.735)" fill="#d1ebff"/>
      </g>
      <g id="Grupo_63514" data-name="Grupo 63514" transform="translate(293.413 42.778)">
        <path id="Trazado_105785" data-name="Trazado 105785" d="M1801.98,394.2a.706.706,0,0,1-.624-.374,121.053,121.053,0,0,0-13.711-20.439.706.706,0,1,1,1.085-.9,122.343,122.343,0,0,1,13.874,20.677.708.708,0,0,1-.625,1.04Z" transform="translate(-1787.481 -372.232)" fill="#d1ebff"/>
      </g>
      <g id="Grupo_63515" data-name="Grupo 63515" transform="translate(221.362 94.759)">
        <path id="Trazado_105786" data-name="Trazado 105786" d="M1727.01,446.9a.708.708,0,0,1-.578-.3q-.816-1.163-1.612-2.342a.708.708,0,0,1,1.174-.79q.787,1.168,1.6,2.319a.706.706,0,0,1-.172.985A.7.7,0,0,1,1727.01,446.9Zm-3.926-5.882a.707.707,0,0,1-.6-.329q-.759-1.2-1.5-2.416a.708.708,0,0,1,1.211-.734q.729,1.2,1.483,2.392a.708.708,0,0,1-.6,1.086Zm-3.641-6.063a.7.7,0,0,1-.614-.357q-.7-1.236-1.382-2.484a.708.708,0,0,1,1.244-.676q.67,1.238,1.367,2.461a.707.707,0,0,1-.615,1.056Zm-3.345-6.229a.707.707,0,0,1-.631-.387q-.574-1.134-1.129-2.274a.707.707,0,1,1,1.271-.62q.551,1.131,1.12,2.255a.706.706,0,0,1-.312.951A.7.7,0,0,1,1716.1,428.729Z" transform="translate(-1714.267 -425.051)" fill="#0fbab8"/>
      </g>
      <g id="Grupo_63516" data-name="Grupo 63516" transform="translate(250.2 134.885)">
        <path id="Trazado_105787" data-name="Trazado 105787" d="M1763.353,481.771a.7.7,0,0,1-.353-.1q-1.228-.709-2.445-1.465a.707.707,0,1,1,.746-1.2q1.2.744,2.406,1.443a.708.708,0,0,1-.354,1.32Zm-5.973-3.782a.713.713,0,0,1-.4-.125q-1.166-.806-2.321-1.653a.707.707,0,1,1,.838-1.14q1.137.836,2.287,1.629a.708.708,0,0,1-.4,1.289Zm-5.667-4.222a.7.7,0,0,1-.442-.156q-1.106-.884-2.2-1.808a.707.707,0,0,1,.912-1.081q1.079.911,2.17,1.784a.707.707,0,0,1-.443,1.26Zm-5.368-4.6a.706.706,0,0,1-.476-.185q-1.047-.955-2.08-1.943a.707.707,0,0,1,.978-1.022q1.02.976,2.054,1.919a.708.708,0,0,1-.476,1.23Z" transform="translate(-1743.571 -465.825)" fill="#0fbab8"/>
      </g>
      <g id="Grupo_63517" data-name="Grupo 63517" transform="translate(284.628 21.577)">
        <path id="Trazado_105788" data-name="Trazado 105788" d="M1820.9,419.862a.707.707,0,0,1-.684-.526q-.36-1.354-.754-2.71a.708.708,0,0,1,1.359-.394q.4,1.37.762,2.741a.707.707,0,0,1-.5.866A.737.737,0,0,1,1820.9,419.862Zm-2.012-6.782a.709.709,0,0,1-.672-.487q-.435-1.333-.9-2.666a.707.707,0,1,1,1.335-.468q.471,1.345.914,2.694a.709.709,0,0,1-.673.928Zm-2.377-6.662a.709.709,0,0,1-.66-.453q-.5-1.309-1.042-2.615a.708.708,0,0,1,1.31-.537q.541,1.32,1.053,2.643a.709.709,0,0,1-.407.914A.7.7,0,0,1,1816.517,406.419Zm-2.716-6.532a.706.706,0,0,1-.645-.418q-.574-1.283-1.173-2.56a.707.707,0,1,1,1.279-.6q.607,1.289,1.184,2.584a.706.706,0,0,1-.646,1Zm-3.039-6.387a.706.706,0,0,1-.631-.388q-.635-1.255-1.294-2.5a.707.707,0,1,1,1.249-.663q.667,1.258,1.308,2.524a.707.707,0,0,1-.632,1.026Zm-3.342-6.232a.707.707,0,0,1-.616-.36l-.282-.495q-.556-.973-1.13-1.938a.708.708,0,0,1,1.218-.721q.576.974,1.139,1.955l.287.5a.707.707,0,0,1-.616,1.054Zm-3.637-6.066a.708.708,0,0,1-.6-.33q-.753-1.191-1.526-2.366a.707.707,0,0,1,1.182-.777q.779,1.185,1.54,2.387a.707.707,0,0,1-.6,1.085Zm-3.92-5.886a.7.7,0,0,1-.579-.3q-.807-1.153-1.638-2.288a.707.707,0,1,1,1.141-.835q.837,1.147,1.654,2.311a.706.706,0,0,1-.579,1.113Zm-4.2-5.686a.709.709,0,0,1-.558-.273q-.867-1.114-1.752-2.2a.707.707,0,0,1,1.1-.891q.893,1.1,1.768,2.226a.708.708,0,0,1-.558,1.142Zm-4.483-5.468a.7.7,0,0,1-.535-.245q-.921-1.067-1.862-2.109a.707.707,0,1,1,1.05-.948q.951,1.054,1.881,2.133a.706.706,0,0,1-.535,1.169Zm-4.764-5.223a.7.7,0,0,1-.508-.216q-.981-1.016-1.976-2a.708.708,0,1,1,1-1q1.005,1,2,2.024a.707.707,0,0,1-.509,1.2Zm-5.052-4.945a.7.7,0,0,1-.479-.187q-1.038-.955-2.09-1.88a.707.707,0,0,1,.933-1.063q1.066.934,2.115,1.9a.707.707,0,0,1-.479,1.227Z" transform="translate(-1778.555 -350.689)" fill="#0fbab8"/>
      </g>
      <g id="Grupo_63518" data-name="Grupo 63518" transform="translate(213.107 2.143)">
        <path id="Trazado_105789" data-name="Trazado 105789" d="M1706.587,351.727a.706.706,0,0,1-.646-.992c.392-.891.813-1.762,1.252-2.59a.708.708,0,0,1,1.251.661c-.422.8-.83,1.64-1.209,2.5A.707.707,0,0,1,1706.587,351.727Zm3.424-6.173a.692.692,0,0,1-.4-.125.707.707,0,0,1-.182-.983c.552-.8,1.137-1.579,1.736-2.307a.707.707,0,1,1,1.092.9c-.573.7-1.133,1.443-1.661,2.211A.711.711,0,0,1,1710.011,345.553Zm4.607-5.344a.707.707,0,0,1-.479-1.227c.71-.655,1.457-1.282,2.217-1.862a.707.707,0,0,1,.856,1.126c-.725.553-1.437,1.149-2.115,1.775A.7.7,0,0,1,1714.617,340.21Zm5.719-4.127a.707.707,0,0,1-.339-1.328c.839-.462,1.715-.888,2.6-1.267a.708.708,0,0,1,.559,1.3c-.844.362-1.679.768-2.48,1.207A.71.71,0,0,1,1720.336,336.082Zm6.546-2.621a.707.707,0,0,1-.183-1.39c.915-.245,1.866-.455,2.821-.621a.707.707,0,0,1,.243,1.393c-.915.159-1.823.359-2.7.593A.7.7,0,0,1,1726.881,333.461Zm16.061-.423a.683.683,0,0,1-.127-.012c-.672-.121-1.337-.225-2-.313a.707.707,0,0,1-.607-.794.719.719,0,0,1,.794-.608q1.021.136,2.061.323a.708.708,0,0,1-.124,1.4Zm-9.082-.642a.707.707,0,0,1-.033-1.414c.947-.045,1.9-.052,2.88-.025a.708.708,0,0,1,.688.726.725.725,0,0,1-.726.688c-.941-.026-1.865-.02-2.775.024Z" transform="translate(-1705.879 -330.941)" fill="#0fbab8"/>
      </g>
      <g id="Grupo_63519" data-name="Grupo 63519" transform="translate(307.443 99.735)">
        <path id="Trazado_105790" data-name="Trazado 105790" d="M1821.538,434.12a.724.724,0,0,1-.243-.042c-6.744-2.472-13.039-3.157-18.713-2.032a.708.708,0,0,1-.274-1.389c5.933-1.171,12.483-.468,19.473,2.091a.708.708,0,0,1-.243,1.372Z" transform="translate(-1801.737 -430.108)" fill="#d1ebff"/>
      </g>
      <g id="Grupo_63520" data-name="Grupo 63520" transform="translate(302.814 189.923)">
        <path id="Trazado_105791" data-name="Trazado 105791" d="M1825.245,552.686a.7.7,0,0,1-.406-.129c-10.264-7.182-19.841-17.459-27.693-29.716a.707.707,0,0,1,1.19-.763c7.755,12.1,17.2,22.243,27.315,29.322a.708.708,0,0,1-.406,1.286Z" transform="translate(-1797.034 -521.751)" fill="#d1ebff"/>
      </g>
      <g id="Grupo_63521" data-name="Grupo 63521" transform="translate(357.201 225.998)">
        <path id="Trazado_105792" data-name="Trazado 105792" d="M1854.284,563.691c-.432,0-.866-.008-1.3-.025a.71.71,0,0,1-.68-.735.692.692,0,0,1,.735-.679q.629.025,1.25.025l.593-.006a.671.671,0,0,1,.722.693.708.708,0,0,1-.692.722Zm4.829-.395a.708.708,0,0,1-.115-1.405,25,25,0,0,0,2.683-.6.708.708,0,0,1,.384,1.362,26.5,26.5,0,0,1-2.834.633A.673.673,0,0,1,1859.113,563.3Zm6.726-2.108a.707.707,0,0,1-.3-1.345,23.3,23.3,0,0,0,2.4-1.326.707.707,0,0,1,.757,1.2,24.53,24.53,0,0,1-2.548,1.406A.7.7,0,0,1,1865.839,561.188Z" transform="translate(-1852.299 -558.408)" fill="#0fbab8"/>
      </g>
      <g id="Grupo_63522" data-name="Grupo 63522" transform="translate(349.869 117.102)">
        <path id="Trazado_105793" data-name="Trazado 105793" d="M1876.243,497.045c-6.288-18.308-17.73-35.89-31.394-48.24l.948-1.05c13.837,12.506,25.422,30.3,31.784,48.83Z" transform="translate(-1844.848 -447.755)" fill="#ffd70f"/>
      </g>
      <g id="Grupo_63523" data-name="Grupo 63523" transform="translate(288.535 181.039)">
        <path id="Trazado_105794" data-name="Trazado 105794" d="M1804.506,545.719a.7.7,0,0,1-.527-.236q-.945-1.058-1.87-2.144a.708.708,0,1,1,1.078-.917q.914,1.075,1.848,2.12a.707.707,0,0,1-.529,1.178Zm-4.56-5.4a.706.706,0,0,1-.553-.265q-.886-1.109-1.754-2.236a.707.707,0,1,1,1.122-.862q.859,1.116,1.737,2.214a.706.706,0,0,1-.552,1.148Zm-4.284-5.627a.709.709,0,0,1-.573-.292q-.831-1.153-1.642-2.321a.708.708,0,1,1,1.163-.807q.8,1.16,1.626,2.3a.706.706,0,0,1-.159.987A.7.7,0,0,1,1795.662,534.691Zm-4-5.83a.706.706,0,0,1-.593-.322q-.774-1.19-1.527-2.4a.707.707,0,1,1,1.2-.749q.748,1.193,1.514,2.375a.708.708,0,0,1-.593,1.092Zm-3.717-6.017a.708.708,0,0,1-.611-.35q-.716-1.227-1.413-2.466a.708.708,0,0,1,1.235-.692q.688,1.228,1.4,2.443a.707.707,0,0,1-.253.968A.718.718,0,0,1,1787.946,522.844Zm-3.427-6.186a.708.708,0,0,1-.627-.379q-.658-1.261-1.292-2.533a.706.706,0,1,1,1.265-.63q.628,1.258,1.282,2.506a.708.708,0,0,1-.3.955A.7.7,0,0,1,1784.518,516.658Z" transform="translate(-1782.524 -512.723)" fill="#0fbab8"/>
      </g>
      <g id="Grupo_63524" data-name="Grupo 63524" transform="translate(361.547 116.818)">
        <path id="Trazado_105795" data-name="Trazado 105795" d="M1892.076,527.76a.707.707,0,0,1-.706-.674q-.066-1.394-.179-2.8a.706.706,0,1,1,1.408-.113c.078.954.139,1.9.183,2.847a.706.706,0,0,1-.673.739Zm-.617-7.044a.708.708,0,0,1-.7-.619q-.171-1.388-.387-2.783a.707.707,0,1,1,1.4-.214q.217,1.413.392,2.821a.707.707,0,0,1-.614.79C1891.518,520.714,1891.488,520.716,1891.459,520.716Zm-1.119-6.983a.707.707,0,0,1-.692-.572q-.272-1.373-.575-2.753a.708.708,0,1,1,1.382-.305q.309,1.395.58,2.786a.706.706,0,0,1-.556.83A.755.755,0,0,1,1890.341,513.733Zm-1.568-6.895a.708.708,0,0,1-.685-.53q-.35-1.355-.738-2.712a.707.707,0,1,1,1.36-.388q.393,1.373.748,2.746a.709.709,0,0,1-.508.862A.7.7,0,0,1,1888.773,506.838Zm-1.976-6.791a.708.708,0,0,1-.673-.49q-.431-1.336-.893-2.669a.708.708,0,0,1,1.338-.463q.466,1.348.9,2.7a.707.707,0,0,1-.456.891A.72.72,0,0,1,1886.8,500.047Zm-2.347-6.671a.706.706,0,0,1-.66-.456q-.5-1.312-1.033-2.624a.707.707,0,1,1,1.31-.532q.539,1.324,1.044,2.652a.707.707,0,0,1-.66.96Zm-2.694-6.551a.706.706,0,0,1-.647-.421q-.57-1.289-1.165-2.569a.707.707,0,0,1,1.282-.6q.6,1.293,1.175,2.594a.705.705,0,0,1-.36.933A.718.718,0,0,1,1881.755,486.824Zm-3.015-6.407a.707.707,0,0,1-.633-.39q-.63-1.259-1.286-2.509a.707.707,0,0,1,1.252-.657q.663,1.261,1.3,2.531a.709.709,0,0,1-.316.95A.694.694,0,0,1,1878.74,480.417Zm-3.322-6.249a.706.706,0,0,1-.615-.36q-.693-1.228-1.4-2.443a.707.707,0,0,1,1.218-.716q.722,1.227,1.417,2.465a.706.706,0,0,1-.616,1.054Zm-3.613-6.082a.7.7,0,0,1-.6-.332q-.747-1.193-1.518-2.371a.708.708,0,0,1,1.186-.774q.775,1.19,1.53,2.394a.706.706,0,0,1-.6,1.082Zm-3.9-5.9a.709.709,0,0,1-.582-.3q-.8-1.154-1.626-2.292a.707.707,0,1,1,1.145-.83q.834,1.148,1.645,2.316a.707.707,0,0,1-.582,1.11Zm-4.173-5.7a.7.7,0,0,1-.559-.276q-.861-1.114-1.74-2.207a.708.708,0,0,1,1.1-.887q.886,1.1,1.755,2.23a.707.707,0,0,1-.559,1.14Zm-4.456-5.481a.708.708,0,0,1-.538-.248q-.914-1.069-1.848-2.111a.708.708,0,0,1,1.056-.944c.628.7,1.253,1.416,1.867,2.137a.706.706,0,0,1-.537,1.166Z" transform="translate(-1856.715 -447.467)" fill="#0fbab8"/>
      </g>
      <g id="Grupo_63538" data-name="Grupo 63538" transform="translate(202.684 214.944)">
        <g id="Grupo_63528" data-name="Grupo 63528" transform="translate(44.424 78.177)">
          <g id="Grupo_63525" data-name="Grupo 63525" transform="translate(4.769 64.079)">
            <path id="Trazado_105796" data-name="Trazado 105796" d="M1762.854,696.165c0,2.451-3.936,4.438-8.789,4.438s-8.79-1.987-8.79-4.438,3.936-4.438,8.79-4.438S1762.854,693.714,1762.854,696.165Z" transform="translate(-1745.275 -691.727)" fill="#92b4d1" opacity="0.2"/>
          </g>
          <g id="Grupo_63527" data-name="Grupo 63527">
            <g id="Grupo_63526" data-name="Grupo 63526" transform="translate(0 61.44)">
              <path id="Trazado_105797" data-name="Trazado 105797" d="M1752.347,703.517c-6.682,0-11.918-3.179-11.918-7.237s5.236-7.234,11.918-7.234,11.918,3.178,11.918,7.234S1759.03,703.517,1752.347,703.517Zm0-13.057c-5.693,0-10.5,2.666-10.5,5.82s4.809,5.822,10.5,5.822,10.5-2.666,10.5-5.822S1758.041,690.459,1752.347,690.459Z" transform="translate(-1740.429 -689.045)" fill="#ffd70f"/>
            </g>
            <path id="Trazado_105798" data-name="Trazado 105798" d="M1758.9,679.927h-12.934v16.207c0,2.1,2.9,3.784,6.467,3.784s6.468-1.687,6.468-3.766Z" transform="translate(-1740.517 -627.461)" fill="#a8cff0"/>
            <path id="Trazado_105799" data-name="Trazado 105799" d="M1758.9,680.029c0,2.079-2.9,3.765-6.468,3.765s-6.467-1.686-6.467-3.765,2.9-3.766,6.467-3.766S1758.9,677.949,1758.9,680.029Z" transform="translate(-1740.517 -627.403)" fill="#d1ebff"/>
            <path id="Trazado_105800" data-name="Trazado 105800" d="M1757.081,629.327h-9.232V678.79h0l0,.037c0,1.484,2.067,2.688,4.615,2.688s4.617-1.2,4.617-2.688l0-.037h0Z" transform="translate(-1740.547 -626.657)" fill="#a8cff0"/>
            <path id="Trazado_105801" data-name="Trazado 105801" d="M1749.388,679.345V633.019h3.781v47.349C1752.856,680.549,1749.96,680.52,1749.388,679.345Z" transform="translate(-1740.571 -626.716)" fill="#d1ebff" opacity="0.3"/>
            <path id="Trazado_105802" data-name="Trazado 105802" d="M1757.081,629.3c0,1.484-2.067,2.688-4.617,2.688s-4.615-1.2-4.615-2.688,2.067-2.689,4.615-2.689S1757.081,627.818,1757.081,629.3Z" transform="translate(-1740.547 -626.614)" fill="#d1ebff"/>
            <path id="Trazado_105803" data-name="Trazado 105803" d="M1751.67,685.249a8.4,8.4,0,0,1-4.241-1.371V697a4.936,4.936,0,0,0,3.742,1.436c.175,0,.336-.013.5-.023Z" transform="translate(-1740.54 -627.523)" fill="#d1ebff" opacity="0.3"/>
          </g>
        </g>
        <g id="Grupo_63532" data-name="Grupo 63532" transform="translate(0.065 0)">
          <path id="Trazado_105804" data-name="Trazado 105804" d="M1739.78,655.64l38.512-72.06-.02-3.332-44.339-23.784-38.578,69.763.067,3.514Z" transform="translate(-1695.354 -547.323)" fill="#a8cff0"/>
          <path id="Trazado_105805" data-name="Trazado 105805" d="M1739.781,652.056,1778.292,580l-44.359-25.9-38.512,72.06Z" transform="translate(-1695.355 -547.285)" fill="#d1ebff"/>
          <g id="Grupo_63529" data-name="Grupo 63529" transform="translate(18.536)">
            <path id="Trazado_105806" data-name="Trazado 105806" d="M1714.9,582.272a.707.707,0,0,1-.624-1.04l1.332-2.495a.708.708,0,0,1,1.249.666l-1.333,2.495A.711.711,0,0,1,1714.9,582.272Zm3.333-6.237a.7.7,0,0,1-.333-.084.706.706,0,0,1-.291-.957l1.332-2.495a.708.708,0,0,1,1.249.665l-1.332,2.495A.71.71,0,0,1,1718.23,576.034Zm3.333-6.237a.7.7,0,0,1-.332-.083.707.707,0,0,1-.292-.957l1.333-2.5a.708.708,0,0,1,1.249.666l-1.333,2.5A.708.708,0,0,1,1721.563,569.8Zm3.333-6.237a.689.689,0,0,1-.333-.085.7.7,0,0,1-.29-.956l1.335-2.495a.706.706,0,0,1,1.246.666l-1.334,2.495A.707.707,0,0,1,1724.9,563.56Zm25.892-5.8a.693.693,0,0,1-.357-.1l-2.444-1.426a.707.707,0,1,1,.714-1.221l2.443,1.427a.707.707,0,0,1-.356,1.318Zm-22.558-.443a.7.7,0,0,1-.333-.083.706.706,0,0,1-.291-.957l1.332-2.495a.708.708,0,0,1,1.249.665l-1.333,2.495A.707.707,0,0,1,1728.231,557.321Zm16.449-3.123a.7.7,0,0,1-.356-.1l-2.443-1.427a.707.707,0,0,1,.713-1.221l2.442,1.427a.707.707,0,0,1-.356,1.318Zm-13.116-3.114a.7.7,0,0,1-.333-.083.708.708,0,0,1-.292-.957l1.333-2.495a.707.707,0,1,1,1.249.665l-1.333,2.495A.707.707,0,0,1,1731.564,551.085Zm7.01-.453a.7.7,0,0,1-.356-.1l-2.444-1.426a.707.707,0,0,1,.713-1.22l2.444,1.425a.707.707,0,0,1-.356,1.318Z" transform="translate(-1714.189 -547.175)" fill="#ffd70f"/>
          </g>
          <path id="Trazado_105807" data-name="Trazado 105807" d="M1773.61,581.725l-38.394-22.031-34.645,65.6,38.394,22.031Z" transform="translate(-1695.437 -547.374)" fill="#2672ab"/>
          <path id="Trazado_105808" data-name="Trazado 105808" d="M1735.216,560.51l38.063,21.841.331-.626-38.394-22.031-34.644,65.6.331.19Z" transform="translate(-1695.437 -547.374)" fill="#03336e"/>
          <g id="Grupo_63530" data-name="Grupo 63530" transform="translate(9.94 14.95)" opacity="0.2">
            <path id="Trazado_105809" data-name="Trazado 105809" d="M1706.271,628.421l34.638-65.59-.81-.465-34.645,65.6Z" transform="translate(-1705.454 -562.366)" fill="#d1ebff"/>
            <path id="Trazado_105810" data-name="Trazado 105810" d="M1711.169,631.246l34.638-65.59-.81-.465-34.645,65.6Z" transform="translate(-1705.532 -562.411)" fill="#d1ebff"/>
            <path id="Trazado_105811" data-name="Trazado 105811" d="M1716.067,634.072l34.639-65.59-.81-.465-34.645,65.6Z" transform="translate(-1705.61 -562.456)" fill="#d1ebff"/>
            <path id="Trazado_105812" data-name="Trazado 105812" d="M1720.965,636.9l34.638-65.59-.81-.465-34.645,65.6Z" transform="translate(-1705.688 -562.501)" fill="#d1ebff"/>
            <path id="Trazado_105813" data-name="Trazado 105813" d="M1725.864,639.722l34.638-65.59-.81-.465-34.645,65.6Z" transform="translate(-1705.766 -562.546)" fill="#d1ebff"/>
            <path id="Trazado_105814" data-name="Trazado 105814" d="M1730.762,642.548l34.638-65.59-.81-.465-34.645,65.6Z" transform="translate(-1705.843 -562.59)" fill="#d1ebff"/>
            <path id="Trazado_105815" data-name="Trazado 105815" d="M1735.66,645.373l34.639-65.59-.81-.465-34.645,65.6Z" transform="translate(-1705.921 -562.635)" fill="#d1ebff"/>
          </g>
          <g id="Grupo_63531" data-name="Grupo 63531" transform="translate(7.38 16.532)" opacity="0.2">
            <path id="Trazado_105816" data-name="Trazado 105816" d="M1771.431,586.845l.578-.71-38.339-22.161-.578.71Z" transform="translate(-1703.333 -563.974)" fill="#d1ebff"/>
            <path id="Trazado_105817" data-name="Trazado 105817" d="M1768.682,592.067l.578-.71L1730.92,569.2l-.578.71Z" transform="translate(-1703.289 -564.057)" fill="#d1ebff"/>
            <path id="Trazado_105818" data-name="Trazado 105818" d="M1765.932,597.289l.578-.71-38.339-22.161-.578.71Z" transform="translate(-1703.246 -564.14)" fill="#d1ebff"/>
            <path id="Trazado_105819" data-name="Trazado 105819" d="M1763.184,602.512l.578-.71-38.339-22.161-.578.71Z" transform="translate(-1703.202 -564.222)" fill="#d1ebff"/>
            <path id="Trazado_105820" data-name="Trazado 105820" d="M1760.435,607.734l.578-.71-38.339-22.161-.578.71Z" transform="translate(-1703.158 -564.305)" fill="#d1ebff"/>
            <path id="Trazado_105821" data-name="Trazado 105821" d="M1757.686,612.956l.578-.71-38.339-22.161-.578.71Z" transform="translate(-1703.115 -564.388)" fill="#d1ebff"/>
            <path id="Trazado_105822" data-name="Trazado 105822" d="M1754.937,618.179l.578-.71-38.339-22.161-.577.71Z" transform="translate(-1703.072 -564.471)" fill="#d1ebff"/>
            <path id="Trazado_105823" data-name="Trazado 105823" d="M1752.188,623.4l.578-.71-38.339-22.161-.578.71Z" transform="translate(-1703.028 -564.554)" fill="#d1ebff"/>
            <path id="Trazado_105824" data-name="Trazado 105824" d="M1749.439,628.624l.578-.71-38.339-22.161-.577.71Z" transform="translate(-1702.984 -564.637)" fill="#d1ebff"/>
            <path id="Trazado_105825" data-name="Trazado 105825" d="M1746.69,633.846l.578-.71-38.339-22.161-.578.71Z" transform="translate(-1702.94 -564.72)" fill="#d1ebff"/>
            <path id="Trazado_105826" data-name="Trazado 105826" d="M1743.941,639.068l.577-.71L1706.18,616.2l-.577.71Z" transform="translate(-1702.897 -564.803)" fill="#d1ebff"/>
            <path id="Trazado_105827" data-name="Trazado 105827" d="M1741.192,644.291l.578-.71-38.339-22.161-.578.71Z" transform="translate(-1702.853 -564.886)" fill="#d1ebff"/>
          </g>
          <path id="Trazado_105828" data-name="Trazado 105828" d="M1740.5,652.477v3.546l38.512-72.06-.02-3.332Z" transform="translate(-1696.071 -547.707)" fill="#72b5e8"/>
        </g>
        <g id="Grupo_63536" data-name="Grupo 63536" transform="translate(45.399 33.104)">
          <path id="Trazado_105829" data-name="Trazado 105829" d="M1785.845,682.358l38.512-72.06-.021-3.332L1780,583.181l-38.578,69.763.066,3.514Z" transform="translate(-1741.42 -580.852)" fill="#a8cff0"/>
          <g id="Grupo_63533" data-name="Grupo 63533" transform="translate(25.09 80.738)">
            <path id="Trazado_105830" data-name="Trazado 105830" d="M1786.528,691.132l-.94-.549a.707.707,0,0,1,.333-1.317l.873-1.631a.707.707,0,1,1,1.246.666Zm-4.248-2.591a.687.687,0,0,1-.356-.1l-2.444-1.427a.707.707,0,1,1,.712-1.22l2.444,1.427a.707.707,0,0,1-.356,1.318Zm-6.108-3.566a.692.692,0,0,1-.356-.1l-2.442-1.425a.707.707,0,1,1,.712-1.221l2.442,1.426a.707.707,0,0,1-.356,1.318Zm13.245-.04a.707.707,0,0,1-.624-1.04l1.333-2.5a.707.707,0,0,1,1.249.665l-1.333,2.5A.711.711,0,0,1,1789.417,684.934Zm-19.352-3.525a.7.7,0,0,1-.356-.1l-2.444-1.427a.707.707,0,1,1,.712-1.221l2.444,1.427a.707.707,0,0,1-.356,1.318Zm22.685-2.713a.7.7,0,0,1-.333-.083.709.709,0,0,1-.292-.958l1.333-2.494a.707.707,0,0,1,1.249.665l-1.333,2.495A.708.708,0,0,1,1792.75,678.7Zm3.333-6.236a.7.7,0,0,1-.334-.083.71.71,0,0,1-.291-.958l1.334-2.5a.708.708,0,1,1,1.249.666l-1.334,2.5A.707.707,0,0,1,1796.083,672.459Zm3.334-6.237a.706.706,0,0,1-.624-1.04l1.042-1.952a.707.707,0,0,1,1.249.665l-1.043,1.952A.709.709,0,0,1,1799.418,666.222Z" transform="translate(-1766.915 -662.855)" fill="#ffd70f"/>
          </g>
          <path id="Trazado_105831" data-name="Trazado 105831" d="M1785.846,678.774l38.512-72.06L1780,580.814l-38.512,72.06Z" transform="translate(-1741.421 -580.814)" fill="#d1ebff"/>
          <path id="Trazado_105832" data-name="Trazado 105832" d="M1819.676,608.443l-38.394-22.031-34.644,65.6,38.394,22.031Z" transform="translate(-1741.502 -580.903)" fill="#2672ab"/>
          <path id="Trazado_105833" data-name="Trazado 105833" d="M1781.282,587.228l38.063,21.841.331-.626-38.394-22.031-34.644,65.6.331.19Z" transform="translate(-1741.503 -580.903)" fill="#03336e"/>
          <g id="Grupo_63534" data-name="Grupo 63534" transform="translate(9.94 8.139)" opacity="0.2">
            <path id="Trazado_105834" data-name="Trazado 105834" d="M1752.336,655.139l34.638-65.59-.81-.465-34.644,65.6Z" transform="translate(-1751.52 -589.084)" fill="#d1ebff"/>
            <path id="Trazado_105835" data-name="Trazado 105835" d="M1757.234,657.964l34.638-65.59-.81-.465-34.644,65.6Z" transform="translate(-1751.598 -589.129)" fill="#d1ebff"/>
            <path id="Trazado_105836" data-name="Trazado 105836" d="M1762.133,660.79l34.638-65.59-.81-.465-34.645,65.6Z" transform="translate(-1751.676 -589.174)" fill="#d1ebff"/>
            <path id="Trazado_105837" data-name="Trazado 105837" d="M1767.031,663.615l34.638-65.59-.81-.465-34.645,65.6Z" transform="translate(-1751.754 -589.219)" fill="#d1ebff"/>
            <path id="Trazado_105838" data-name="Trazado 105838" d="M1771.929,666.44l34.638-65.59-.81-.465-34.644,65.6Z" transform="translate(-1751.831 -589.264)" fill="#d1ebff"/>
            <path id="Trazado_105839" data-name="Trazado 105839" d="M1776.828,669.266l34.638-65.59-.81-.465-34.644,65.6Z" transform="translate(-1751.909 -589.309)" fill="#d1ebff"/>
            <path id="Trazado_105840" data-name="Trazado 105840" d="M1781.726,672.091l34.638-65.59-.81-.465-34.644,65.6Z" transform="translate(-1751.987 -589.354)" fill="#d1ebff"/>
          </g>
          <g id="Grupo_63535" data-name="Grupo 63535" transform="translate(7.38 9.721)" opacity="0.2">
            <path id="Trazado_105841" data-name="Trazado 105841" d="M1817.5,613.563l.578-.71-38.339-22.161-.578.71Z" transform="translate(-1749.399 -590.692)" fill="#d1ebff"/>
            <path id="Trazado_105842" data-name="Trazado 105842" d="M1814.747,618.785l.577-.71-38.339-22.161-.578.71Z" transform="translate(-1749.355 -590.775)" fill="#d1ebff"/>
            <path id="Trazado_105843" data-name="Trazado 105843" d="M1812,624.007l.578-.71-38.339-22.161-.578.71Z" transform="translate(-1749.312 -590.858)" fill="#d1ebff"/>
            <path id="Trazado_105844" data-name="Trazado 105844" d="M1809.249,629.23l.577-.71-38.339-22.161-.577.71Z" transform="translate(-1749.268 -590.941)" fill="#d1ebff"/>
            <path id="Trazado_105845" data-name="Trazado 105845" d="M1806.5,634.452l.578-.71-38.339-22.161-.578.71Z" transform="translate(-1749.224 -591.024)" fill="#d1ebff"/>
            <path id="Trazado_105846" data-name="Trazado 105846" d="M1803.752,639.674l.577-.71L1765.99,616.8l-.578.71Z" transform="translate(-1749.181 -591.106)" fill="#d1ebff"/>
            <path id="Trazado_105847" data-name="Trazado 105847" d="M1801,644.9l.578-.71-38.339-22.161-.577.71Z" transform="translate(-1749.137 -591.189)" fill="#d1ebff"/>
            <path id="Trazado_105848" data-name="Trazado 105848" d="M1798.253,650.119l.578-.71-38.339-22.161-.577.71Z" transform="translate(-1749.093 -591.272)" fill="#d1ebff"/>
            <path id="Trazado_105849" data-name="Trazado 105849" d="M1795.5,655.342l.577-.71-38.339-22.161-.578.71Z" transform="translate(-1749.05 -591.355)" fill="#d1ebff"/>
            <path id="Trazado_105850" data-name="Trazado 105850" d="M1792.756,660.564l.578-.71-38.339-22.161-.578.71Z" transform="translate(-1749.006 -591.438)" fill="#d1ebff"/>
            <path id="Trazado_105851" data-name="Trazado 105851" d="M1790.007,665.786l.578-.71-38.339-22.161-.577.71Z" transform="translate(-1748.963 -591.521)" fill="#d1ebff"/>
            <path id="Trazado_105852" data-name="Trazado 105852" d="M1787.258,671.009l.578-.71L1749.5,648.138l-.578.71Z" transform="translate(-1748.919 -591.604)" fill="#d1ebff"/>
          </g>
          <path id="Trazado_105853" data-name="Trazado 105853" d="M1786.562,679.2v3.546l38.512-72.06-.02-3.332Z" transform="translate(-1742.137 -581.235)" fill="#72b5e8"/>
        </g>
        <g id="Grupo_63537" data-name="Grupo 63537" transform="translate(0 51.354)" opacity="0.3" style="mix-blend-mode: multiply;isolation: isolate">
          <path id="Trazado_105854" data-name="Trazado 105854" d="M1720,601.371c-5.187-3.033-10.883-2.587-12.723,1l-11.418,22.255c-1.839,3.584.876,8.949,6.063,11.982l49.535,29.328c5.188,3.033,13.435,2.883,15.275-.7l11.418-22.255c1.839-3.584-3.427-9.244-8.615-12.277Z" transform="translate(-1695.288 -599.358)" fill="#03336e" opacity="0"/>
          <path id="Trazado_105855" data-name="Trazado 105855" d="M1719.859,601.893c-5.118-2.993-10.721-2.581-12.514.918L1696.228,624.5c-1.793,3.5.9,8.763,6.021,11.755l49.077,29.028c5.118,2.992,13.041,2.849,14.834-.651l11.117-21.694c1.793-3.5-3.222-9.03-8.34-12.023Z" transform="translate(-1695.294 -599.367)" fill="#03336e" opacity="0.091"/>
          <path id="Trazado_105856" data-name="Trazado 105856" d="M1719.712,602.415c-5.048-2.951-10.558-2.575-12.305.839l-10.815,21.135c-1.748,3.415.929,8.576,5.979,11.527l48.619,28.728c5.049,2.951,12.646,2.818,14.394-.6l10.814-21.134c1.747-3.415-3.017-8.817-8.066-11.768Z" transform="translate(-1695.301 -599.375)" fill="#03336e" opacity="0.182"/>
          <path id="Trazado_105857" data-name="Trazado 105857" d="M1719.567,602.938c-4.98-2.911-10.4-2.571-12.1.759l-10.513,20.574c-1.7,3.33.956,8.389,5.935,11.3L1751.054,664c4.98,2.91,12.251,2.785,13.952-.545l10.513-20.574c1.7-3.33-2.812-8.6-7.791-11.514Z" transform="translate(-1695.307 -599.383)" fill="#03336e" opacity="0.273"/>
          <path id="Trazado_105858" data-name="Trazado 105858" d="M1719.421,603.46c-4.91-2.87-10.232-2.566-11.888.679l-10.211,20.015c-1.656,3.245.983,8.2,5.893,11.071l47.7,28.128c4.911,2.87,11.857,2.754,13.512-.492l10.212-20.014c1.655-3.246-2.607-8.39-7.517-11.259Z" transform="translate(-1695.313 -599.392)" fill="#03336e" opacity="0.364"/>
          <path id="Trazado_105859" data-name="Trazado 105859" d="M1719.275,603.982c-4.841-2.828-10.069-2.56-11.679.6l-9.91,19.455c-1.61,3.16,1.01,8.015,5.851,10.843l47.246,27.829c4.841,2.828,11.461,2.721,13.071-.44l9.91-19.454c1.61-3.161-2.4-8.176-7.242-11.005Z" transform="translate(-1695.319 -599.4)" fill="#03336e" opacity="0.455"/>
          <path id="Trazado_105860" data-name="Trazado 105860" d="M1719.13,604.5c-4.772-2.788-9.907-2.555-11.472.522l-9.608,18.894c-1.564,3.075,1.036,7.829,5.808,10.617l46.787,27.529c4.772,2.787,11.067,2.688,12.631-.388l9.608-18.9c1.564-3.075-2.2-7.963-6.968-10.75Z" transform="translate(-1695.325 -599.409)" fill="#03336e" opacity="0.545"/>
          <path id="Trazado_105861" data-name="Trazado 105861" d="M1718.983,605.027c-4.7-2.747-9.744-2.549-11.262.442l-9.307,18.335c-1.517,2.991,1.063,7.642,5.765,10.388l46.33,27.229c4.7,2.747,10.672,2.656,12.19-.335l9.307-18.335c1.518-2.991-1.991-7.749-6.693-10.495Z" transform="translate(-1695.331 -599.417)" fill="#03336e" opacity="0.636"/>
          <path id="Trazado_105862" data-name="Trazado 105862" d="M1718.838,605.549c-4.633-2.705-9.582-2.543-11.054.363l-9.006,17.774c-1.472,2.906,1.09,7.456,5.723,10.161l45.872,26.929c4.633,2.705,10.278,2.624,11.75-.282l9-17.775c1.472-2.906-1.786-7.535-6.418-10.241Z" transform="translate(-1695.337 -599.426)" fill="#03336e" opacity="0.727"/>
          <path id="Trazado_105863" data-name="Trazado 105863" d="M1718.691,606.071c-4.563-2.664-9.419-2.538-10.845.283l-8.7,17.215c-1.426,2.822,1.117,7.269,5.68,9.933l45.414,26.629c4.563,2.665,9.883,2.592,11.308-.229l8.7-17.215c1.427-2.82-1.58-7.322-6.144-9.986Z" transform="translate(-1695.344 -599.434)" fill="#03336e" opacity="0.818"/>
          <path id="Trazado_105864" data-name="Trazado 105864" d="M1718.546,606.594c-4.495-2.625-9.257-2.533-10.636.2l-8.4,16.655c-1.38,2.736,1.144,7.081,5.638,9.7l44.957,26.33c4.494,2.624,9.488,2.56,10.868-.177l8.4-16.655c1.38-2.736-1.376-7.108-5.869-9.732Z" transform="translate(-1695.349 -599.443)" fill="#03336e" opacity="0.909"/>
          <path id="Trazado_105865" data-name="Trazado 105865" d="M1718.4,607.116c-4.425-2.583-9.094-2.527-10.428.124l-8.1,16.1c-1.334,2.652,1.171,6.895,5.595,9.478l44.5,26.03c4.425,2.582,9.093,2.526,10.428-.125l8.1-16.1c1.335-2.651-1.17-6.895-5.595-9.477Z" transform="translate(-1695.355 -599.451)" fill="#03336e"/>
        </g>
      </g>
      <g id="Grupo_63539" data-name="Grupo 63539" transform="translate(213.033 365.9)">
        <rect id="Rectángulo_31472" data-name="Rectángulo 31472" width="42.252" height="1.415" transform="matrix(0.865, -0.502, 0.502, 0.865, 0, 21.204)" fill="#ffd70f"/>
      </g>
      <g id="Grupo_63540" data-name="Grupo 63540" transform="translate(128.655 396.448)">
        <path id="Trazado_105866" data-name="Trazado 105866" d="M1650.948,754.732a.717.717,0,0,1-.355-.1l-30.527-17.681.711-1.223,30.172,17.474,37.314-21.6.708,1.223L1651.3,754.636A.708.708,0,0,1,1650.948,754.732Z" transform="translate(-1620.065 -731.608)" fill="#ffd70f"/>
      </g>
      <g id="Grupo_63541" data-name="Grupo 63541" transform="translate(102.491 320.657)">
        <path id="Trazado_105867" data-name="Trazado 105867" d="M1652.648,771.779a.712.712,0,0,1-.352-.094l-58.816-33.829.7-1.226,58.463,33.625,87.04-50.3a.712.712,0,0,1,.722.008l13.618,8.327,107.6-61.769-18.5-10.7.708-1.224,19.565,11.315a.706.706,0,0,1,0,1.225l-109.029,62.588a.706.706,0,0,1-.72-.01l-13.617-8.325L1653,771.684A.707.707,0,0,1,1652.648,771.779Z" transform="translate(-1593.479 -654.594)" fill="#0fbab8"/>
      </g>
      <g id="Grupo_63542" data-name="Grupo 63542" transform="translate(127.006 399.652)">
        <path id="Trazado_105868" data-name="Trazado 105868" d="M1620.865,740.167a.7.7,0,0,1-.644-.414l-1.768-3.889a.708.708,0,0,1,.742-.993l5.069.707a.708.708,0,0,1-.2,1.4l-3.8-.53,1.237,2.718a.707.707,0,0,1-.351.937A.721.721,0,0,1,1620.865,740.167Z" transform="translate(-1618.39 -734.864)" fill="#ffd70f"/>
      </g>
      <g id="Grupo_63543" data-name="Grupo 63543" transform="translate(144.644 259.034)">
        <path id="Trazado_105869" data-name="Trazado 105869" d="M1641.777,596.438h-.018l-5.447-.141,2.353-3.974a.708.708,0,1,1,1.218.721l-1.127,1.9,3.039.078a.707.707,0,0,1-.019,1.414Z" transform="translate(-1636.312 -591.977)" fill="#a8cff0"/>
      </g>
      <g id="Grupo_63544" data-name="Grupo 63544" transform="translate(159.85 394.7)">
        <path id="Trazado_105870" data-name="Trazado 105870" d="M1652.471,742.445a.708.708,0,0,1-.358-1.318l2.44-1.432a.708.708,0,1,1,.715,1.221l-2.439,1.432A.712.712,0,0,1,1652.471,742.445Zm6.1-3.58a.707.707,0,0,1-.357-1.318l2.439-1.431a.708.708,0,1,1,.715,1.221l-2.439,1.431A.715.715,0,0,1,1658.57,738.865Zm6.1-3.578a.707.707,0,0,1-.358-1.318l2.44-1.433a.708.708,0,1,1,.716,1.221l-2.44,1.433A.706.706,0,0,1,1664.669,735.287Zm6.1-3.58a.707.707,0,0,1-.358-1.317l.78-.459a.707.707,0,0,1,.716,1.218l-.781.459A.705.705,0,0,1,1670.768,731.707Z" transform="translate(-1651.763 -729.832)" fill="#a8cff0"/>
      </g>
      <g id="Grupo_63545" data-name="Grupo 63545" transform="translate(157.607 403.542)">
        <path id="Trazado_105871" data-name="Trazado 105871" d="M1654.951,743.276h-.018l-5.449-.138,2.358-3.975a.706.706,0,1,1,1.215.72l-1.126,1.9,3.037.077a.707.707,0,0,1-.018,1.414Z" transform="translate(-1649.484 -738.817)" fill="#a8cff0"/>
      </g>
      <g id="Grupo_63546" data-name="Grupo 63546" transform="translate(326.323 338.363)">
        <path id="Trazado_105872" data-name="Trazado 105872" d="M1821.63,682.593a.707.707,0,0,1-.357-1.318l2.439-1.433a.708.708,0,1,1,.716,1.221l-2.439,1.432A.713.713,0,0,1,1821.63,682.593Zm6.1-3.58a.707.707,0,0,1-.357-1.318l2.439-1.431a.707.707,0,1,1,.715,1.22l-2.439,1.431A.716.716,0,0,1,1827.729,679.012Zm6.1-3.579a.708.708,0,0,1-.358-1.318l2.44-1.433a.708.708,0,0,1,.716,1.221l-2.44,1.433A.706.706,0,0,1,1833.828,675.433Z" transform="translate(-1820.922 -672.586)" fill="#a8cff0"/>
      </g>
      <g id="Grupo_63547" data-name="Grupo 63547" transform="translate(322.862 345.314)">
        <path id="Trazado_105873" data-name="Trazado 105873" d="M1822.871,684.11h-.018l-5.448-.141,2.354-3.974a.708.708,0,0,1,1.219.721l-1.128,1.9,3.039.077a.707.707,0,0,1-.018,1.414Z" transform="translate(-1817.405 -679.65)" fill="#a8cff0"/>
      </g>
      <g id="Grupo_63553" data-name="Grupo 63553" transform="translate(8.313 167.34)">
        <ellipse id="Elipse_4134" data-name="Elipse 4134" cx="73.786" cy="38.142" rx="73.786" ry="38.142" transform="translate(0 156.899)" fill="#92b4d1" opacity="0.2"/>
        <ellipse id="Elipse_4135" data-name="Elipse 4135" cx="63.762" cy="37.131" rx="63.762" ry="37.131" transform="translate(1.499 137.423)" fill="#3f92d1"/>
        <g id="Grupo_63548" data-name="Grupo 63548" transform="translate(3.321 107.766)">
          <path id="Trazado_105874" data-name="Trazado 105874" d="M1625.036,644.707h-123.88v30.021c0,19.921,27.732,36.07,61.94,36.07s61.941-16.149,61.941-36.07c0-.166-.018-.331-.022-.5h.022Z" transform="translate(-1501.155 -608.886)" fill="#0ba19f"/>
          <ellipse id="Elipse_4136" data-name="Elipse 4136" cx="61.94" cy="36.07" rx="61.94" ry="36.07" transform="translate(0.001)" fill="#3ecfcd"/>
          <path id="Trazado_105875" data-name="Trazado 105875" d="M1563.1,680.894c-33.837,0-61.319-15.8-61.912-35.425-.007.216-.029.429-.029.646,0,19.921,27.733,36.07,61.941,36.07s61.941-16.149,61.941-36.07c0-.216-.022-.429-.028-.646C1624.415,665.091,1596.934,680.894,1563.1,680.894Z" transform="translate(-1501.155 -608.898)" fill="#fff" opacity="0.5"/>
        </g>
        <g id="Grupo_63549" data-name="Grupo 63549" transform="translate(3.321 77.827)">
          <path id="Trazado_105876" data-name="Trazado 105876" d="M1625.036,614.285h-123.88v30.022c0,19.921,27.732,36.069,61.94,36.069s61.941-16.148,61.941-36.069c0-.167-.018-.332-.022-.5h.022Z" transform="translate(-1501.155 -578.464)" fill="#0fbab8"/>
          <ellipse id="Elipse_4137" data-name="Elipse 4137" cx="61.94" cy="36.07" rx="61.94" ry="36.07" transform="translate(0.001)" fill="#59dedc"/>
          <path id="Trazado_105877" data-name="Trazado 105877" d="M1563.1,650.472c-33.837,0-61.319-15.8-61.912-35.424-.007.216-.029.428-.029.645,0,19.921,27.733,36.07,61.941,36.07s61.941-16.149,61.941-36.07c0-.216-.022-.429-.028-.645C1624.415,634.669,1596.934,650.472,1563.1,650.472Z" transform="translate(-1501.155 -578.477)" fill="#fff" opacity="0.5"/>
        </g>
        <g id="Grupo_63550" data-name="Grupo 63550" transform="translate(3.321 47.841)">
          <path id="Trazado_105878" data-name="Trazado 105878" d="M1625.036,583.815h-123.88v30.022c0,19.921,27.732,36.069,61.94,36.069s61.941-16.148,61.941-36.069c0-.167-.018-.332-.022-.5h.022Z" transform="translate(-1501.155 -547.995)" fill="#3ecfcd"/>
          <ellipse id="Elipse_4138" data-name="Elipse 4138" cx="61.94" cy="36.07" rx="61.94" ry="36.07" transform="translate(0.001)" fill="#59dedc"/>
          <path id="Trazado_105879" data-name="Trazado 105879" d="M1563.1,620c-33.837,0-61.319-15.8-61.912-35.424-.007.216-.029.429-.029.645,0,19.921,27.733,36.07,61.941,36.07s61.941-16.149,61.941-36.07c0-.216-.022-.429-.028-.645C1624.415,604.2,1596.934,620,1563.1,620Z" transform="translate(-1501.155 -548.007)" fill="#fff" opacity="0.5"/>
        </g>
        <path id="Trazado_105880" data-name="Trazado 105880" d="M1626.829,536.274H1499.3V693.145c0,20.507,28.547,37.131,63.762,37.131s63.763-16.624,63.763-37.131c0-.171-.019-.34-.023-.512h.023ZM1589.271,707.8a103.508,103.508,0,0,1-26.205,3.282c-22.721,0-42.653-6.926-53.945-17.345V575.73c11.293,10.42,31.224,17.346,53.945,17.346a103.457,103.457,0,0,0,26.205-3.283Z" transform="translate(-1497.805 -499.399)" fill="#72b5e8"/>
        <path id="Trazado_105881" data-name="Trazado 105881" d="M1610.515,535.076H1500.981V691.947c0,20.507,28.547,37.131,63.762,37.131s45.771-16.624,45.771-37.131c0-.171-.019-.34-.023-.512h.023ZM1590.948,706.6a103.511,103.511,0,0,1-26.205,3.283c-22.721,0-42.654-6.927-53.945-17.346V574.532c11.292,10.42,31.224,17.346,53.945,17.346a103.461,103.461,0,0,0,26.205-3.283Z" transform="translate(-1497.832 -499.38)" fill="#03336e"/>
        <path id="Trazado_105882" data-name="Trazado 105882" d="M1626.829,536.274H1499.3V693.145c0,20.507,28.547,37.131,63.762,37.131s63.763-16.624,63.763-37.131c0-.171-.019-.34-.023-.512h.023ZM1589.271,707.8a103.508,103.508,0,0,1-26.205,3.282c-22.721,0-42.653-6.926-53.945-17.345V575.73c11.293,10.42,31.224,17.346,53.945,17.346a103.457,103.457,0,0,0,26.205-3.283Z" transform="translate(-1497.805 -499.399)" fill="url(#linear-gradient)"/>
        <g id="Grupo_63551" data-name="Grupo 63551" transform="translate(1.499)">
          <ellipse id="Elipse_4139" data-name="Elipse 4139" cx="63.762" cy="37.131" rx="63.762" ry="37.131" fill="#119be2"/>
          <ellipse id="Elipse_4140" data-name="Elipse 4140" cx="48.578" cy="28.289" rx="48.578" ry="28.289" transform="translate(15.184 8.842)" fill="#d1ebff"/>
          <path id="Trazado_105883" data-name="Trazado 105883" d="M1563.311,509.91c26.218,0,47.572,12.1,48.533,27.228.022-.352.045-.7.045-1.06,0-15.624-21.749-28.29-48.578-28.29s-48.578,12.666-48.578,28.29c0,.355.024.708.046,1.06C1515.739,522.007,1537.093,509.91,1563.311,509.91Z" transform="translate(-1499.549 -498.946)" fill="#084c94"/>
          <path id="Trazado_105884" data-name="Trazado 105884" d="M1563.066,573.525c-34.832,0-63.122-16.268-63.734-36.467-.007.222-.029.442-.029.664,0,20.507,28.547,37.131,63.762,37.131s63.762-16.624,63.762-37.131c0-.222-.022-.442-.029-.664C1626.19,557.257,1597.9,573.525,1563.066,573.525Z" transform="translate(-1499.304 -499.411)" fill="#3f92d1"/>
        </g>
        <g id="Grupo_63552" data-name="Grupo 63552" transform="translate(39.745 5.828)">
          <path id="Trazado_105885" data-name="Trazado 105885" d="M1589.2,519.72h-51.031v14.364c0,8.207,11.424,14.859,25.515,14.859s25.516-6.653,25.516-14.859c0-.069-.007-.136-.009-.2h.009Z" transform="translate(-1538.167 -504.964)" fill="#a8cff0"/>
          <ellipse id="Elipse_4141" data-name="Elipse 4141" cx="25.516" cy="14.859" rx="25.516" ry="14.859" transform="translate(0)" fill="#f0f8ff"/>
          <ellipse id="Elipse_4142" data-name="Elipse 4142" cx="25.516" cy="14.859" rx="25.516" ry="14.859" transform="translate(0)" fill="#d1ebff" opacity="0.6"/>
          <path id="Trazado_105886" data-name="Trazado 105886" d="M1563.683,533.92c-13.939,0-25.26-5.8-25.5-13.886,0,.089-.012.176-.012.266,0,8.206,11.425,15.142,25.516,15.142s25.516-6.936,25.516-15.142c0-.089-.009-.177-.012-.266C1588.943,528.117,1577.622,533.92,1563.683,533.92Z" transform="translate(-1538.167 -504.969)" fill="#fff"/>
        </g>
        <path id="Trazado_105887" data-name="Trazado 105887" d="M1613.321,575.334v20.108a34.686,34.686,0,0,0,4.084-3.15V572.184A34.811,34.811,0,0,1,1613.321,575.334Z" transform="translate(-1499.616 -499.969)" fill="#03336e"/>
        <path id="Trazado_105888" data-name="Trazado 105888" d="M1621.583,575.816a47.685,47.685,0,0,1-13.613,10.6v5.422a47.669,47.669,0,0,0,13.613-10.595Z" transform="translate(-1499.531 -500.027)" fill="#03336e"/>
        <path id="Trazado_105889" data-name="Trazado 105889" d="M1621.583,689.9a47.7,47.7,0,0,1-13.613,10.6v5.422a47.669,47.669,0,0,0,13.613-10.6Z" transform="translate(-1499.531 -501.838)" fill="#03336e"/>
      </g>
      <g id="Grupo_63565" data-name="Grupo 63565" transform="translate(149.725 245.988)">
        <g id="Grupo_63557" data-name="Grupo 63557" transform="translate(44.36 78.177)">
          <g id="Grupo_63554" data-name="Grupo 63554" transform="translate(4.769 64.079)">
            <path id="Trazado_105890" data-name="Trazado 105890" d="M1708.975,727.711c0,2.451-3.934,4.438-8.789,4.438s-8.789-1.987-8.789-4.438,3.936-4.438,8.789-4.438S1708.975,725.26,1708.975,727.711Z" transform="translate(-1691.397 -723.273)" fill="#92b4d1" opacity="0.2"/>
          </g>
          <g id="Grupo_63556" data-name="Grupo 63556">
            <g id="Grupo_63555" data-name="Grupo 63555" transform="translate(0 61.44)">
              <path id="Trazado_105891" data-name="Trazado 105891" d="M1698.469,735.062c-6.683,0-11.918-3.179-11.918-7.235s5.234-7.235,11.918-7.235,11.918,3.179,11.918,7.235S1705.151,735.062,1698.469,735.062Zm0-13.056c-5.694,0-10.5,2.666-10.5,5.821s4.809,5.82,10.5,5.82,10.5-2.665,10.5-5.82S1704.162,722.005,1698.469,722.005Z" transform="translate(-1686.551 -720.591)" fill="#ffd70f"/>
            </g>
            <path id="Trazado_105892" data-name="Trazado 105892" d="M1705.024,711.473H1692.09v16.208c0,2.1,2.9,3.783,6.466,3.783s6.467-1.686,6.467-3.765Z" transform="translate(-1686.639 -659.007)" fill="#a8cff0"/>
            <path id="Trazado_105893" data-name="Trazado 105893" d="M1705.024,711.575c0,2.079-2.9,3.765-6.467,3.765s-6.466-1.686-6.466-3.765,2.9-3.766,6.466-3.766S1705.024,709.495,1705.024,711.575Z" transform="translate(-1686.639 -658.948)" fill="#d1ebff"/>
            <path id="Trazado_105894" data-name="Trazado 105894" d="M1703.2,660.873h-9.232v49.463h0l0,.037c0,1.484,2.066,2.688,4.616,2.688s4.615-1.2,4.615-2.688v-.037h0Z" transform="translate(-1686.669 -658.203)" fill="#a8cff0"/>
            <path id="Trazado_105895" data-name="Trazado 105895" d="M1695.509,710.891V664.565h3.782v47.349C1698.977,712.1,1696.081,712.066,1695.509,710.891Z" transform="translate(-1686.693 -658.262)" fill="#d1ebff" opacity="0.3"/>
            <path id="Trazado_105896" data-name="Trazado 105896" d="M1703.2,660.848c0,1.485-2.067,2.689-4.615,2.689s-4.616-1.2-4.616-2.689,2.066-2.688,4.616-2.688S1703.2,659.364,1703.2,660.848Z" transform="translate(-1686.669 -658.16)" fill="#d1ebff"/>
            <path id="Trazado_105897" data-name="Trazado 105897" d="M1697.791,716.795a8.38,8.38,0,0,1-4.24-1.372v13.124a4.935,4.935,0,0,0,3.741,1.435c.174,0,.335-.012.5-.022Z" transform="translate(-1686.662 -659.069)" fill="#d1ebff" opacity="0.3"/>
          </g>
        </g>
        <g id="Grupo_63561" data-name="Grupo 63561">
          <path id="Trazado_105898" data-name="Trazado 105898" d="M1685.9,687.185l38.512-72.06-.02-3.332-44.339-23.784-38.578,69.763.066,3.514Z" transform="translate(-1641.475 -578.869)" fill="#a8cff0"/>
          <path id="Trazado_105899" data-name="Trazado 105899" d="M1685.9,683.6l38.512-72.06-44.359-25.9-38.512,72.06Z" transform="translate(-1641.476 -578.831)" fill="#d1ebff"/>
          <g id="Grupo_63558" data-name="Grupo 63558" transform="translate(18.537)">
            <path id="Trazado_105900" data-name="Trazado 105900" d="M1661.019,613.817a.7.7,0,0,1-.333-.084.7.7,0,0,1-.289-.956l1.334-2.494a.706.706,0,0,1,1.246.665l-1.335,2.495A.7.7,0,0,1,1661.019,613.817Zm3.334-6.237a.7.7,0,0,1-.333-.084.708.708,0,0,1-.292-.957l1.333-2.495a.708.708,0,0,1,1.249.665l-1.333,2.495A.709.709,0,0,1,1664.353,607.579Zm3.333-6.236a.708.708,0,0,1-.625-1.04l1.333-2.495a.707.707,0,0,1,1.249.665l-1.333,2.495A.708.708,0,0,1,1667.686,601.343Zm3.332-6.238a.707.707,0,0,1-.624-1.04l1.333-2.495a.707.707,0,1,1,1.248.666l-1.332,2.495A.709.709,0,0,1,1671.018,595.1Zm25.891-5.794a.7.7,0,0,1-.356-.1l-2.444-1.427a.707.707,0,0,1,.713-1.221l2.444,1.427a.707.707,0,0,1-.356,1.318Zm-22.558-.442a.707.707,0,0,1-.624-1.04l1.335-2.5a.707.707,0,1,1,1.248.665l-1.333,2.5A.711.711,0,0,1,1674.352,588.868Zm16.452-3.125a.7.7,0,0,1-.356-.1L1688,584.221a.707.707,0,0,1,.712-1.22l2.444,1.425a.707.707,0,0,1-.356,1.318Zm-13.117-3.113a.7.7,0,0,1-.333-.084.707.707,0,0,1-.292-.957l1.333-2.495a.707.707,0,1,1,1.248.665l-1.333,2.495A.71.71,0,0,1,1677.686,582.631Zm7.009-.454a.7.7,0,0,1-.356-.1l-2.442-1.426a.707.707,0,1,1,.712-1.22l2.442,1.425a.707.707,0,0,1-.356,1.318Z" transform="translate(-1660.311 -578.721)" fill="#ffd70f"/>
          </g>
          <path id="Trazado_105901" data-name="Trazado 105901" d="M1719.731,613.271l-38.394-22.031-34.645,65.6,38.395,22.031Z" transform="translate(-1641.558 -578.92)" fill="#2672ab"/>
          <path id="Trazado_105902" data-name="Trazado 105902" d="M1681.338,592.056,1719.4,613.9l.331-.626-38.394-22.031-34.644,65.6.331.19Z" transform="translate(-1641.558 -578.92)" fill="#03336e"/>
          <g id="Grupo_63559" data-name="Grupo 63559" transform="translate(9.94 14.95)" opacity="0.2">
            <path id="Trazado_105903" data-name="Trazado 105903" d="M1652.392,659.967l34.639-65.59-.81-.465-34.644,65.6Z" transform="translate(-1651.576 -593.912)" fill="#d1ebff"/>
            <path id="Trazado_105904" data-name="Trazado 105904" d="M1657.29,662.792l34.639-65.59-.81-.465-34.644,65.6Z" transform="translate(-1651.654 -593.957)" fill="#d1ebff"/>
            <path id="Trazado_105905" data-name="Trazado 105905" d="M1662.188,665.617l34.639-65.59-.81-.465-34.644,65.6Z" transform="translate(-1651.732 -594.002)" fill="#d1ebff"/>
            <path id="Trazado_105906" data-name="Trazado 105906" d="M1667.087,668.443l34.638-65.59-.81-.465-34.644,65.6Z" transform="translate(-1651.809 -594.047)" fill="#d1ebff"/>
            <path id="Trazado_105907" data-name="Trazado 105907" d="M1671.985,671.268l34.638-65.59-.81-.465-34.644,65.6Z" transform="translate(-1651.887 -594.091)" fill="#d1ebff"/>
            <path id="Trazado_105908" data-name="Trazado 105908" d="M1676.884,674.093l34.638-65.59-.81-.465-34.644,65.6Z" transform="translate(-1651.965 -594.136)" fill="#d1ebff"/>
            <path id="Trazado_105909" data-name="Trazado 105909" d="M1681.782,676.919l34.638-65.59-.81-.465-34.645,65.6Z" transform="translate(-1652.042 -594.181)" fill="#d1ebff"/>
          </g>
          <g id="Grupo_63560" data-name="Grupo 63560" transform="translate(7.38 16.532)" opacity="0.2">
            <path id="Trazado_105910" data-name="Trazado 105910" d="M1717.552,618.39l.578-.71-38.339-22.161-.578.71Z" transform="translate(-1649.455 -595.52)" fill="#d1ebff"/>
            <path id="Trazado_105911" data-name="Trazado 105911" d="M1714.8,623.613l.578-.71-38.339-22.161-.578.71Z" transform="translate(-1649.411 -595.603)" fill="#d1ebff"/>
            <path id="Trazado_105912" data-name="Trazado 105912" d="M1712.054,628.835l.578-.71-38.339-22.161-.578.71Z" transform="translate(-1649.367 -595.686)" fill="#d1ebff"/>
            <path id="Trazado_105913" data-name="Trazado 105913" d="M1709.305,634.057l.577-.71-38.339-22.161-.578.71Z" transform="translate(-1649.324 -595.768)" fill="#d1ebff"/>
            <path id="Trazado_105914" data-name="Trazado 105914" d="M1706.556,639.28l.578-.71L1668.8,616.409l-.578.71Z" transform="translate(-1649.28 -595.851)" fill="#d1ebff"/>
            <path id="Trazado_105915" data-name="Trazado 105915" d="M1703.807,644.5l.578-.71-38.339-22.161-.578.71Z" transform="translate(-1649.236 -595.934)" fill="#d1ebff"/>
            <path id="Trazado_105916" data-name="Trazado 105916" d="M1701.058,649.725l.578-.71L1663.3,626.854l-.578.71Z" transform="translate(-1649.193 -596.017)" fill="#d1ebff"/>
            <path id="Trazado_105917" data-name="Trazado 105917" d="M1698.309,654.947l.577-.71-38.339-22.161-.578.71Z" transform="translate(-1649.149 -596.1)" fill="#d1ebff"/>
            <path id="Trazado_105918" data-name="Trazado 105918" d="M1695.56,660.169l.578-.71L1657.8,637.3l-.578.71Z" transform="translate(-1649.105 -596.183)" fill="#d1ebff"/>
            <path id="Trazado_105919" data-name="Trazado 105919" d="M1692.811,665.392l.577-.71-38.339-22.161-.578.71Z" transform="translate(-1649.062 -596.266)" fill="#d1ebff"/>
            <path id="Trazado_105920" data-name="Trazado 105920" d="M1690.062,670.614l.578-.71L1652.3,647.743l-.578.71Z" transform="translate(-1649.018 -596.349)" fill="#d1ebff"/>
            <path id="Trazado_105921" data-name="Trazado 105921" d="M1687.314,675.836l.578-.71-38.339-22.161-.578.71Z" transform="translate(-1648.974 -596.432)" fill="#d1ebff"/>
          </g>
          <path id="Trazado_105922" data-name="Trazado 105922" d="M1686.618,684.023v3.546l38.512-72.06-.02-3.332Z" transform="translate(-1642.192 -579.252)" fill="#72b5e8"/>
        </g>
        <g id="Grupo_63564" data-name="Grupo 63564" transform="translate(45.334 33.104)">
          <path id="Trazado_105923" data-name="Trazado 105923" d="M1731.967,713.9l38.512-72.06-.02-3.332-44.339-23.784-38.578,69.763.066,3.514Z" transform="translate(-1687.541 -612.397)" fill="#a8cff0"/>
          <path id="Trazado_105924" data-name="Trazado 105924" d="M1731.968,710.32l38.512-72.06-44.359-25.9-38.512,72.06Z" transform="translate(-1687.542 -612.36)" fill="#d1ebff"/>
          <path id="Trazado_105925" data-name="Trazado 105925" d="M1765.8,639.989,1727.4,617.958l-34.644,65.6,38.394,22.031Z" transform="translate(-1687.624 -612.449)" fill="#2672ab"/>
          <path id="Trazado_105926" data-name="Trazado 105926" d="M1727.4,618.774l38.063,21.841.331-.626L1727.4,617.958l-34.644,65.6.331.19Z" transform="translate(-1687.624 -612.449)" fill="#03336e"/>
          <g id="Grupo_63562" data-name="Grupo 63562" transform="translate(9.94 8.139)" opacity="0.2">
            <path id="Trazado_105927" data-name="Trazado 105927" d="M1698.458,686.685l34.638-65.59-.81-.465-34.645,65.6Z" transform="translate(-1697.641 -620.63)" fill="#d1ebff"/>
            <path id="Trazado_105928" data-name="Trazado 105928" d="M1703.356,689.51l34.638-65.59-.81-.465-34.645,65.6Z" transform="translate(-1697.719 -620.675)" fill="#d1ebff"/>
            <path id="Trazado_105929" data-name="Trazado 105929" d="M1708.254,692.336l34.638-65.59-.81-.465-34.645,65.6Z" transform="translate(-1697.797 -620.72)" fill="#d1ebff"/>
            <path id="Trazado_105930" data-name="Trazado 105930" d="M1713.152,695.161l34.638-65.59-.81-.465-34.645,65.6Z" transform="translate(-1697.875 -620.765)" fill="#d1ebff"/>
            <path id="Trazado_105931" data-name="Trazado 105931" d="M1718.051,697.986l34.638-65.59-.81-.465-34.645,65.6Z" transform="translate(-1697.953 -620.81)" fill="#d1ebff"/>
            <path id="Trazado_105932" data-name="Trazado 105932" d="M1722.949,700.812l34.638-65.59-.81-.465-34.645,65.6Z" transform="translate(-1698.031 -620.854)" fill="#d1ebff"/>
            <path id="Trazado_105933" data-name="Trazado 105933" d="M1727.847,703.637l34.639-65.59-.81-.465-34.645,65.6Z" transform="translate(-1698.108 -620.899)" fill="#d1ebff"/>
          </g>
          <g id="Grupo_63563" data-name="Grupo 63563" transform="translate(7.38 9.721)" opacity="0.2">
            <path id="Trazado_105934" data-name="Trazado 105934" d="M1763.618,645.108l.578-.71-38.339-22.161-.577.71Z" transform="translate(-1695.52 -622.238)" fill="#d1ebff"/>
            <path id="Trazado_105935" data-name="Trazado 105935" d="M1760.869,650.331l.578-.71-38.339-22.161-.578.71Z" transform="translate(-1695.477 -622.321)" fill="#d1ebff"/>
            <path id="Trazado_105936" data-name="Trazado 105936" d="M1758.12,655.553l.578-.71-38.339-22.161-.577.71Z" transform="translate(-1695.433 -622.404)" fill="#d1ebff"/>
            <path id="Trazado_105937" data-name="Trazado 105937" d="M1755.371,660.776l.578-.71L1717.61,637.9l-.578.71Z" transform="translate(-1695.389 -622.486)" fill="#d1ebff"/>
            <path id="Trazado_105938" data-name="Trazado 105938" d="M1752.622,666l.578-.71-38.339-22.161-.578.71Z" transform="translate(-1695.346 -622.569)" fill="#d1ebff"/>
            <path id="Trazado_105939" data-name="Trazado 105939" d="M1749.873,671.22l.578-.71-38.339-22.161-.578.71Z" transform="translate(-1695.302 -622.652)" fill="#d1ebff"/>
            <path id="Trazado_105940" data-name="Trazado 105940" d="M1747.124,676.443l.578-.71-38.339-22.161-.578.71Z" transform="translate(-1695.259 -622.735)" fill="#d1ebff"/>
            <path id="Trazado_105941" data-name="Trazado 105941" d="M1744.375,681.665l.578-.71-38.339-22.161-.578.71Z" transform="translate(-1695.215 -622.818)" fill="#d1ebff"/>
            <path id="Trazado_105942" data-name="Trazado 105942" d="M1741.626,686.887l.578-.71-38.339-22.161-.578.71Z" transform="translate(-1695.171 -622.901)" fill="#d1ebff"/>
            <path id="Trazado_105943" data-name="Trazado 105943" d="M1738.877,692.11l.578-.71-38.339-22.161-.578.71Z" transform="translate(-1695.128 -622.984)" fill="#d1ebff"/>
            <path id="Trazado_105944" data-name="Trazado 105944" d="M1736.128,697.332l.578-.71-38.339-22.161-.578.71Z" transform="translate(-1695.084 -623.067)" fill="#d1ebff"/>
            <path id="Trazado_105945" data-name="Trazado 105945" d="M1733.379,702.554l.578-.71-38.339-22.161-.577.71Z" transform="translate(-1695.04 -623.15)" fill="#d1ebff"/>
          </g>
          <path id="Trazado_105946" data-name="Trazado 105946" d="M1732.684,710.741v3.546l38.512-72.06-.02-3.332Z" transform="translate(-1688.258 -612.781)" fill="#72b5e8"/>
        </g>
      </g>
    </g>
  </g>
</svg>
