<?xml version="1.0" encoding="utf-8"?>
<!-- Generator: Adobe Illustrator 25.3.1, SVG Export Plug-In . SVG Version: 6.00 Build 0)  -->
<svg version="1.1" id="Layer_1" xmlns="http://www.w3.org/2000/svg" xmlns:xlink="http://www.w3.org/1999/xlink" x="0px" y="0px"
	 viewBox="0 0 124 124" style="enable-background:new 0 0 124 124;" xml:space="preserve">
<style type="text/css">
	.st0{fill:#7DB9EF;}
</style>
<circle id="Elipse_4126" class="st0" cx="62" cy="62" r="62"/>
<g>
	<path d="M71.1,39.1l-1-2.6l1.5-1.5c0.9-0.9,0.9-2.3,0-3.1l-0.5-0.5l12-12c0.5-0.5,0.5-1.4,0-1.9c-0.5-0.5-1.4-0.5-1.9,0l-12,12
		L68.7,29c-0.9-0.9-2.3-0.9-3.1,0l-1.5,1.5l-2.6-1c-2.5-0.9-5.3-0.3-7.2,1.6l-1.4,1.4c-1.2,1.2-1.9,2.8-2,4.5l0,0L37,50.9l0,0
		c-1.7,0.1-3.3,0.8-4.5,2l-1.4,1.4c-1.9,1.9-2.5,4.7-1.6,7.2l1,2.6L29,65.6c-0.9,0.9-0.9,2.3,0,3.1l0.5,0.5l-12,12
		c-0.5,0.5-0.5,1.4,0,1.9c0.5,0.5,1.4,0.5,1.9,0l12-12l0.5,0.5c0.9,0.9,2.3,0.9,3.1,0l1.5-1.5l2.6,1c2.5,0.9,5.3,0.3,7.2-1.6
		l1.4-1.4c1.2-1.2,1.9-2.8,2-4.5l0,0l13.9-13.9l0,0c1.7-0.1,3.3-0.8,4.5-2l1.4-1.4C71.4,44.4,72,41.6,71.1,39.1L71.1,39.1z
		 M39.5,52.3l2.4-2.4l8.8,8.8l-2.4,2.4L39.5,52.3z M60.8,48.5l-2.1,2.1l-8.8-8.8l2.1-2.1L60.8,48.5z M48,43.8l8.8,8.8l-4.2,4.2
		L43.8,48L48,43.8z M63.5,46.9l-0.2,0c-0.1,0-0.1,0-0.2,0l-9.4-9.4c0-0.1,0-0.1,0-0.2l0-0.2c0-0.9,0.4-1.8,1-2.5L66,45.9
		C65.3,46.5,64.4,46.9,63.5,46.9z M60.5,32.1l3.4,1.3c0.5,0.2,1.1,0.1,1.4-0.3l1.8-1.8l2.2,2.2l-1.8,1.8c-0.4,0.4-0.5,0.9-0.3,1.4
		l1.3,3.4c0.5,1.3,0.2,2.8-0.6,3.9L56.6,32.7C57.7,31.8,59.2,31.6,60.5,32.1z M40.1,68.5l-3.4-1.3c-0.5-0.2-1.1-0.1-1.4,0.3
		l-1.8,1.8l-2.2-2.2l1.8-1.8c0.4-0.4,0.5-0.9,0.3-1.4l-1.3-3.4c-0.4-1.2-0.3-2.6,0.4-3.6l3.5,3.5c0.5,0.5,1.4,0.5,1.9,0
		s0.5-1.4,0-1.9l-3.6-3.6l0.1-0.1c0.7-0.7,1.6-1.1,2.6-1.2l9.9,9.9c-0.1,1-0.5,1.9-1.2,2.6l-0.1,0.1L42,62.6c-0.5-0.5-1.4-0.5-1.9,0
		c-0.5,0.5-0.5,1.4,0,1.9l3.6,3.6C42.6,68.8,41.3,68.9,40.1,68.5z"/>
	<path d="M80.2,78c0.5,0.5,1.4,0.5,1.9,0l4.9-4.9l0,0c1.7-0.1,3.3-0.8,4.5-2l1.4-1.4c1.9-1.9,2.5-4.7,1.6-7.2l-1-2.6l1.5-1.5
		c0.9-0.9,0.9-2.3,0-3.1l-0.5-0.5l12-12c0.5-0.5,0.5-1.4,0-1.9c-0.5-0.5-1.4-0.5-1.9,0l-12,12l-0.5-0.5c-0.9-0.9-2.3-0.9-3.1,0
		l-1.5,1.5l-2.6-1c-2.5-0.9-5.3-0.3-7.2,1.6l-1.4,1.4c-1.2,1.2-1.9,2.8-2,4.5l0,0L60.5,74.3l0,0c-1.7,0.1-3.3,0.8-4.5,2l-1.4,1.4
		c-1.9,1.9-2.5,4.7-1.6,7.2l1,2.6L52.4,89c-0.9,0.9-0.9,2.3,0,3.1l0.5,0.5l-12,12c-0.5,0.5-0.5,1.4,0,1.9s1.4,0.5,1.9,0l12-12
		l0.5,0.5c0.9,0.9,2.3,0.9,3.1,0l1.5-1.5l2.6,1c2.5,0.9,5.3,0.3,7.2-1.6l1.4-1.4c1.2-1.2,1.9-2.8,2-4.5l0,0l4.9-4.9
		c0.5-0.5,0.5-1.4,0-1.9s-1.4-0.5-1.9,0l0,0l-8.8-8.8l4.2-4.2l8.8,8.8l0,0C79.6,76.6,79.6,77.4,80.2,78L80.2,78z M84,55.5l3.4,1.3
		c0.5,0.2,1.1,0.1,1.4-0.3l1.8-1.8l2.2,2.2L91,58.6c-0.4,0.4-0.5,0.9-0.3,1.4l1.3,3.4c0.5,1.3,0.2,2.8-0.6,3.9l-3.6-3.6
		c-0.5-0.5-1.4-0.5-1.9,0c-0.5,0.5-0.5,1.4,0,1.9l3.6,3.6c-0.7,0.6-1.6,1-2.5,1l-0.2,0c-0.1,0-0.1,0-0.2,0L77,60.9
		c0-0.1,0-0.1,0-0.2l0-0.2c0-0.9,0.4-1.8,1-2.5l3.6,3.6c0.5,0.5,1.4,0.5,1.9,0c0.5-0.5,0.5-1.4,0-1.9L80,56.1
		C81.1,55.2,82.6,55,84,55.5L84,55.5z M70.4,86.9c-0.1,1-0.5,1.9-1.2,2.6l-0.1,0.1L57.8,78.3l0.1-0.1c0.7-0.7,1.6-1.1,2.6-1.2
		L70.4,86.9z M63.5,91.9l-3.4-1.3c-0.5-0.2-1.1-0.1-1.4,0.3l-1.8,1.8l-2.2-2.2l1.8-1.8c0.4-0.4,0.5-0.9,0.3-1.4l-1.3-3.4
		c-0.4-1.2-0.3-2.6,0.4-3.6l11.2,11.2C66,92.2,64.7,92.3,63.5,91.9z M74.1,82.1l-2.4,2.4l-8.8-8.8l2.4-2.4L74.1,82.1z M73.3,65.3
		l2.1-2.1l8.8,8.8l-2.1,2.1L73.3,65.3z"/>
</g>
</svg>
