<svg xmlns="http://www.w3.org/2000/svg" width="596.499" height="261.793" viewBox="0 0 596.499 261.793">
  <g id="Grupo_974104" data-name="Grupo 974104" transform="translate(-1286.501 1835.438)">
    <g id="Grupo_974100" data-name="Grupo 974100" transform="translate(1286 -1651)">
      <path id="Trazado_704979" data-name="Trazado 704979" d="M8.42,37.507a3.388,3.388,0,0,1,.769.831A3.94,3.94,0,0,1,9.6,39.5l.255,1.23a5.227,5.227,0,0,0,.268.954,1.27,1.27,0,0,0,.343.466,1.412,1.412,0,0,0,.593.268l-.123.58H7.8a14.047,14.047,0,0,1-.51-1.96L7,39.581a4.855,4.855,0,0,0-.29-1.037A1.213,1.213,0,0,0,6.293,38a1.236,1.236,0,0,0-.686-.167H5.063L4.43,40.627q-.062.29-.088.5a4.372,4.372,0,0,0-.026.527.7.7,0,0,0,.207.571,1.134,1.134,0,0,0,.646.193L5.045,43H.5l.123-.58a1.26,1.26,0,0,0,.738-.492,4.163,4.163,0,0,0,.448-1.3l1.6-7.251a4.768,4.768,0,0,0,.114-1.028.739.739,0,0,0-.171-.541.959.959,0,0,0-.558-.224L2.918,31H7.3q.914,0,1.49.057a4.426,4.426,0,0,1,1.125.264,2.825,2.825,0,0,1,.91.532,2.179,2.179,0,0,1,.554.787,2.721,2.721,0,0,1,.193,1.059,3.362,3.362,0,0,1-.782,2.25,5.327,5.327,0,0,1-2.382,1.477Zm-2.575-.7a3.739,3.739,0,0,0,1.771-.347A2.5,2.5,0,0,0,8.631,35.4a3.512,3.512,0,0,0,.378-1.67,1.71,1.71,0,0,0-.431-1.274,1.888,1.888,0,0,0-1.362-.422q-.668,0-.9.018L5.291,36.8Zm15.311,4.368a5.994,5.994,0,0,1-1.912,1.485,5.132,5.132,0,0,1-2.219.483,3.879,3.879,0,0,1-1.749-.36,2.394,2.394,0,0,1-1.085-1.068,3.651,3.651,0,0,1-.365-1.692,8.14,8.14,0,0,1,.633-2.892,5.25,5.25,0,0,1,1.125-1.6,4.822,4.822,0,0,1,1.63-1.028,5.667,5.667,0,0,1,2.052-.36q2.689,0,2.689,1.942a2.494,2.494,0,0,1-.268,1.178,2.578,2.578,0,0,1-.892.923,5.352,5.352,0,0,1-1.762.668,14.179,14.179,0,0,1-2.747.29,4.969,4.969,0,0,0-.114,1.072,1.891,1.891,0,0,0,.343,1.23,1.27,1.27,0,0,0,1.037.413,3.081,3.081,0,0,0,1.4-.312,6.543,6.543,0,0,0,1.468-1.112ZM16.5,38.219a4.667,4.667,0,0,0,2.474-.62,1.851,1.851,0,0,0,.857-1.63,1,1,0,0,0-.207-.681.729.729,0,0,0-.576-.233,1.882,1.882,0,0,0-1.472.809A6.452,6.452,0,0,0,16.5,38.219Zm12.8,3.129a5.855,5.855,0,0,1-1.428,1.358,3.119,3.119,0,0,1-1.692.444,1.832,1.832,0,0,1-1.551-.725,3.407,3.407,0,0,1-.549-2.087,8.332,8.332,0,0,1,.343-2.355,6.2,6.2,0,0,1,.984-2.017,4.557,4.557,0,0,1,1.613-1.336,4.838,4.838,0,0,1,2.2-.488,3.852,3.852,0,0,1,2.232.633l.791-.633.984.141L30.99,44.441q-.1.431-.123.642a2.973,2.973,0,0,0-.026.36.669.669,0,0,0,.193.545,1.394,1.394,0,0,0,.686.22l-.1.58H27.976l1.433-5.405Zm.826-3.814a6.059,6.059,0,0,0,.141-1.283,1.509,1.509,0,0,0-.22-.9.835.835,0,0,0-.721-.3,1.807,1.807,0,0,0-1.45.809,6.448,6.448,0,0,0-1.015,2.2,9.382,9.382,0,0,0-.391,2.509,1.912,1.912,0,0,0,.189.958.633.633,0,0,0,.584.316,1.76,1.76,0,0,0,1.182-.567,4.5,4.5,0,0,0,.971-1.332,9.733,9.733,0,0,0,.659-2.092Zm14.924-.686H36.483v-1.8h8.561Zm0,3.814H36.483V38.878h8.561Z"/>
      <path id="Trazado_704891" data-name="Trazado 704891" d="M-4.573,0h138.13" transform="translate(55.828 33.491)" fill="none" stroke="#707070" stroke-width="3"/>
      <path id="Trazado_704980" data-name="Trazado 704980" d="M0,0H24.445" transform="translate(54.643 58.365)" fill="none" stroke="#707070" stroke-width="3"/>
      <path id="Trazado_704981" data-name="Trazado 704981" d="M0,0H24.445" transform="translate(99.268 58.365)" fill="none" stroke="#707070" stroke-width="3"/>
      <path id="Trazado_704982" data-name="Trazado 704982" d="M0,0H24.445" transform="translate(161.391 58.365)" fill="none" stroke="#707070" stroke-width="3"/>
      <path id="Trazado_704983" data-name="Trazado 704983" d="M6.313-2.18a3.42,3.42,0,0,0,.051.684.815.815,0,0,0,.18.375.851.851,0,0,0,.371.227,3.035,3.035,0,0,0,.609.125q.367.043.969.059V0H1.75V-.711A10.709,10.709,0,0,0,2.988-.816a1.484,1.484,0,0,0,.566-.2.757.757,0,0,0,.285-.375,2.479,2.479,0,0,0,.09-.789V-7.828a.7.7,0,0,0-.121-.461.415.415,0,0,0-.332-.141,1.357,1.357,0,0,0-.551.18,12.259,12.259,0,0,0-1.168.734l-.477-.828,4.078-2.445h1q-.047.75-.047,2.078Z" transform="translate(105 19)"/>
      <path id="Trazado_704984" data-name="Trazado 704984" d="M5.918-2.043a3.206,3.206,0,0,0,.048.641.764.764,0,0,0,.168.352.8.8,0,0,0,.348.212,2.845,2.845,0,0,0,.571.117q.344.04.908.055V0H1.641V-.667A10.04,10.04,0,0,0,2.8-.765a1.392,1.392,0,0,0,.531-.187A.71.71,0,0,0,3.6-1.3a2.324,2.324,0,0,0,.084-.74v-5.3a.659.659,0,0,0-.114-.432A.389.389,0,0,0,3.259-7.9a1.272,1.272,0,0,0-.516.168,11.493,11.493,0,0,0-1.095.688L1.2-7.822l3.823-2.292h.938q-.044.7-.044,1.948Z" transform="translate(61.68 50.817)"/>
      <path id="Trazado_704985" data-name="Trazado 704985" d="M5.918-2.043a3.206,3.206,0,0,0,.048.641.764.764,0,0,0,.168.352.8.8,0,0,0,.348.212,2.845,2.845,0,0,0,.571.117q.344.04.908.055V0H1.641V-.667A10.04,10.04,0,0,0,2.8-.765a1.392,1.392,0,0,0,.531-.187A.71.71,0,0,0,3.6-1.3a2.324,2.324,0,0,0,.084-.74v-5.3a.659.659,0,0,0-.114-.432A.389.389,0,0,0,3.259-7.9a1.272,1.272,0,0,0-.516.168,11.493,11.493,0,0,0-1.095.688L1.2-7.822l3.823-2.292h.938q-.044.7-.044,1.948Z" transform="translate(105.565 52.298)"/>
      <path id="Trazado_704986" data-name="Trazado 704986" d="M5.918-2.043a3.206,3.206,0,0,0,.048.641.764.764,0,0,0,.168.352.8.8,0,0,0,.348.212,2.845,2.845,0,0,0,.571.117q.344.04.908.055V0H1.641V-.667A10.04,10.04,0,0,0,2.8-.765a1.392,1.392,0,0,0,.531-.187A.71.71,0,0,0,3.6-1.3a2.324,2.324,0,0,0,.084-.74v-5.3a.659.659,0,0,0-.114-.432A.389.389,0,0,0,3.259-7.9a1.272,1.272,0,0,0-.516.168,11.493,11.493,0,0,0-1.095.688L1.2-7.822l3.823-2.292h.938q-.044.7-.044,1.948Z" transform="translate(167.687 52.298)"/>
      <path id="Trazado_704987" data-name="Trazado 704987" d="M6.094-10.737V0H3.787V-8.13a2.763,2.763,0,0,1-.45.319,4.65,4.65,0,0,1-.553.271,4.938,4.938,0,0,1-.608.205,4.44,4.44,0,0,1-.623.121V-9.163a9.624,9.624,0,0,0,1.7-.674,9.67,9.67,0,0,0,1.443-.9ZM12.883.183q-3.75,0-3.75-5.266a7.166,7.166,0,0,1,1.014-4.164,3.38,3.38,0,0,1,2.941-1.432q3.662,0,3.662,5.354a7.055,7.055,0,0,1-1,4.087A3.293,3.293,0,0,1,12.883.183Zm.1-9.1q-1.5,0-1.5,3.772,0,3.552,1.472,3.552,1.436,0,1.436-3.662T12.986-8.914ZM25.583-1.9h2.542V0h-4.4V-1.9A4.965,4.965,0,0,0,25.649-5.75,2.946,2.946,0,0,0,24.9-7.859a2.462,2.462,0,0,0-1.868-.791,2.543,2.543,0,0,0-1.919.787,3.031,3.031,0,0,0-.754,2.186,5.048,5.048,0,0,0,1.9,3.772V0h-4.4V-1.9h2.49a4.558,4.558,0,0,1-2.476-4.167A4.238,4.238,0,0,1,19.3-9.419a5.377,5.377,0,0,1,3.688-1.26,5.365,5.365,0,0,1,3.728,1.271A4.239,4.239,0,0,1,28.132-6.1,4.542,4.542,0,0,1,25.583-1.9Z" transform="translate(47.976 74.365)"/>
      <path id="Trazado_704988" data-name="Trazado 704988" d="M3.142-1.919H7.6V0H.608V-.791A3.682,3.682,0,0,1,.879-2.238a4.8,4.8,0,0,1,.681-1.15,5.908,5.908,0,0,1,.9-.9Q2.944-4.68,3.384-5q.461-.33.809-.63a4.612,4.612,0,0,0,.586-.6,2.269,2.269,0,0,0,.355-.6,1.786,1.786,0,0,0,.117-.648,1.3,1.3,0,0,0-.381-1.018,1.693,1.693,0,0,0-1.165-.344A3.911,3.911,0,0,0,1.113-7.756V-9.792A5.566,5.566,0,0,1,4.2-10.679a4.565,4.565,0,0,1,1.432.209,3.029,3.029,0,0,1,1.073.6,2.546,2.546,0,0,1,.67.941A3.176,3.176,0,0,1,7.61-7.7a3.48,3.48,0,0,1-.223,1.289,3.961,3.961,0,0,1-.593,1.025,5.381,5.381,0,0,1-.853.846q-.483.385-1,.743-.352.249-.677.494a6.423,6.423,0,0,0-.575.483,2.624,2.624,0,0,0-.4.465A.8.8,0,0,0,3.142-1.919Zm9.741,2.1q-3.75,0-3.75-5.266a7.166,7.166,0,0,1,1.014-4.164,3.38,3.38,0,0,1,2.941-1.432q3.662,0,3.662,5.354a7.055,7.055,0,0,1-1,4.087A3.293,3.293,0,0,1,12.883.183Zm.1-9.1q-1.5,0-1.5,3.772,0,3.552,1.472,3.552,1.436,0,1.436-3.662T12.986-8.914ZM25.583-1.9h2.542V0h-4.4V-1.9A4.965,4.965,0,0,0,25.649-5.75,2.946,2.946,0,0,0,24.9-7.859a2.462,2.462,0,0,0-1.868-.791,2.543,2.543,0,0,0-1.919.787,3.031,3.031,0,0,0-.754,2.186,5.048,5.048,0,0,0,1.9,3.772V0h-4.4V-1.9h2.49a4.558,4.558,0,0,1-2.476-4.167A4.238,4.238,0,0,1,19.3-9.419a5.377,5.377,0,0,1,3.688-1.26,5.365,5.365,0,0,1,3.728,1.271A4.239,4.239,0,0,1,28.132-6.1,4.542,4.542,0,0,1,25.583-1.9Z" transform="translate(96.675 76.002)"/>
      <path id="Trazado_704989" data-name="Trazado 704989" d="M.857-.344V-2.358a4.065,4.065,0,0,0,2.461.769A2.216,2.216,0,0,0,4.7-1.97a1.265,1.265,0,0,0,.494-1.062,1.207,1.207,0,0,0-.612-1.084A3.168,3.168,0,0,0,2.9-4.5H1.926V-6.27h.9q2.051,0,2.051-1.362,0-1.282-1.575-1.282a3.59,3.59,0,0,0-2.051.681v-1.89a5.664,5.664,0,0,1,2.578-.557,3.891,3.891,0,0,1,2.509.725,2.308,2.308,0,0,1,.9,1.882A2.447,2.447,0,0,1,5.149-5.493v.037a2.838,2.838,0,0,1,1.758.809A2.282,2.282,0,0,1,7.551-3,2.818,2.818,0,0,1,6.475-.674,4.655,4.655,0,0,1,3.5.183,5.747,5.747,0,0,1,.857-.344ZM12.883.183q-3.75,0-3.75-5.266a7.166,7.166,0,0,1,1.014-4.164,3.38,3.38,0,0,1,2.941-1.432q3.662,0,3.662,5.354a7.055,7.055,0,0,1-1,4.087A3.293,3.293,0,0,1,12.883.183Zm.1-9.1q-1.5,0-1.5,3.772,0,3.552,1.472,3.552,1.436,0,1.436-3.662T12.986-8.914ZM25.583-1.9h2.542V0h-4.4V-1.9A4.965,4.965,0,0,0,25.649-5.75,2.946,2.946,0,0,0,24.9-7.859a2.462,2.462,0,0,0-1.868-.791,2.543,2.543,0,0,0-1.919.787,3.031,3.031,0,0,0-.754,2.186,5.048,5.048,0,0,0,1.9,3.772V0h-4.4V-1.9h2.49a4.558,4.558,0,0,1-2.476-4.167A4.238,4.238,0,0,1,19.3-9.419a5.377,5.377,0,0,1,3.688-1.26,5.365,5.365,0,0,1,3.728,1.271A4.239,4.239,0,0,1,28.132-6.1,4.542,4.542,0,0,1,25.583-1.9Z" transform="translate(158.798 77.172)"/>
      <path id="Trazado_704990" data-name="Trazado 704990" d="M2.007.183a1.35,1.35,0,0,1-.952-.352,1.13,1.13,0,0,1-.381-.864A1.088,1.088,0,0,1,1.066-1.9a1.447,1.447,0,0,1,.978-.337,1.393,1.393,0,0,1,.97.341,1.11,1.11,0,0,1,.377.861,1.116,1.116,0,0,1-.385.875A1.452,1.452,0,0,1,2.007.183Zm4.065,0A1.35,1.35,0,0,1,5.12-.168a1.13,1.13,0,0,1-.381-.864A1.088,1.088,0,0,1,5.131-1.9a1.447,1.447,0,0,1,.978-.337,1.393,1.393,0,0,1,.97.341,1.109,1.109,0,0,1,.377.861,1.116,1.116,0,0,1-.385.875A1.452,1.452,0,0,1,6.072.183Zm4.065,0a1.35,1.35,0,0,1-.952-.352A1.13,1.13,0,0,1,8.8-1.033,1.088,1.088,0,0,1,9.2-1.9a1.447,1.447,0,0,1,.978-.337,1.393,1.393,0,0,1,.97.341,1.109,1.109,0,0,1,.377.861,1.116,1.116,0,0,1-.385.875A1.452,1.452,0,0,1,10.137.183Z" transform="translate(127.877 61.927)"/>
      <path id="Trazado_704991" data-name="Trazado 704991" d="M9.469-3.789H6.461V-.781H4.883V-3.789H1.859V-5.375H4.883V-8.4H6.461v3.023H9.469Z" transform="translate(83.252 64.41)"/>
      <path id="Trazado_704992" data-name="Trazado 704992" d="M9.469-3.789H6.461V-.781H4.883V-3.789H1.859V-5.375H4.883V-8.4H6.461v3.023H9.469Z" transform="translate(145.375 64.41)"/>
    </g>
    <g id="Grupo_974099" data-name="Grupo 974099" transform="translate(1553 -1801)">
      <path id="Trazado_704993" data-name="Trazado 704993" d="M9.355,15.9a3.764,3.764,0,0,1,.854.923,4.378,4.378,0,0,1,.454,1.294l.283,1.367a5.808,5.808,0,0,0,.3,1.06,1.411,1.411,0,0,0,.381.518,1.569,1.569,0,0,0,.659.3L12.148,22H8.662A15.607,15.607,0,0,1,8.1,19.822L7.783,18.2a5.4,5.4,0,0,0-.322-1.152,1.347,1.347,0,0,0-.469-.605,1.374,1.374,0,0,0-.762-.186H5.625l-.7,3.105q-.068.322-.1.557a4.858,4.858,0,0,0-.029.586.773.773,0,0,0,.229.635,1.26,1.26,0,0,0,.718.215L5.605,22H.557l.137-.645a1.4,1.4,0,0,0,.82-.547,4.625,4.625,0,0,0,.5-1.445l1.777-8.057a5.3,5.3,0,0,0,.127-1.143.821.821,0,0,0-.19-.6,1.065,1.065,0,0,0-.62-.249l.137-.645H8.115q1.016,0,1.655.063a4.917,4.917,0,0,1,1.25.293,3.138,3.138,0,0,1,1.011.591,2.421,2.421,0,0,1,.615.874,3.023,3.023,0,0,1,.215,1.177,3.736,3.736,0,0,1-.869,2.5,5.919,5.919,0,0,1-2.646,1.641Zm-2.861-.781a4.154,4.154,0,0,0,1.968-.386A2.779,2.779,0,0,0,9.59,13.553a3.9,3.9,0,0,0,.42-1.855,1.9,1.9,0,0,0-.479-1.416,2.1,2.1,0,0,0-1.514-.469q-.742,0-1,.02L5.879,15.115Zm17.012,4.854a6.66,6.66,0,0,1-2.124,1.65,5.7,5.7,0,0,1-2.466.537,4.309,4.309,0,0,1-1.943-.4,2.66,2.66,0,0,1-1.206-1.187,4.056,4.056,0,0,1-.405-1.88,7.932,7.932,0,0,1,.137-1.3,7.868,7.868,0,0,1,.566-1.914,5.833,5.833,0,0,1,1.25-1.777,5.358,5.358,0,0,1,1.812-1.143,6.3,6.3,0,0,1,2.28-.4q2.988,0,2.988,2.158a2.771,2.771,0,0,1-.3,1.309,2.864,2.864,0,0,1-.991,1.025,5.947,5.947,0,0,1-1.958.742,15.754,15.754,0,0,1-3.052.322,5.521,5.521,0,0,0-.127,1.191,2.1,2.1,0,0,0,.381,1.367,1.411,1.411,0,0,0,1.152.459,3.424,3.424,0,0,0,1.553-.347,7.27,7.27,0,0,0,1.631-1.235ZM18.33,16.688A5.186,5.186,0,0,0,21.079,16a2.057,2.057,0,0,0,.952-1.812,1.107,1.107,0,0,0-.229-.757.81.81,0,0,0-.64-.259,2.091,2.091,0,0,0-1.636.9A7.169,7.169,0,0,0,18.33,16.688Zm14.219,3.477a6.505,6.505,0,0,1-1.587,1.509,3.465,3.465,0,0,1-1.88.493,2.036,2.036,0,0,1-1.724-.806,3.786,3.786,0,0,1-.61-2.319,9.258,9.258,0,0,1,.381-2.617,6.887,6.887,0,0,1,1.094-2.241A5.063,5.063,0,0,1,30.015,12.7a5.376,5.376,0,0,1,2.446-.542,4.279,4.279,0,0,1,2.48.7l.879-.7,1.094.156L34.434,23.6q-.107.479-.137.713a3.3,3.3,0,0,0-.029.4.743.743,0,0,0,.215.605,1.549,1.549,0,0,0,.762.244l-.107.645H31.084L32.676,20.2Zm.918-4.238a6.733,6.733,0,0,0,.156-1.426,1.677,1.677,0,0,0-.244-1,.928.928,0,0,0-.8-.332,2.008,2.008,0,0,0-1.611.9,7.165,7.165,0,0,0-1.128,2.446A10.425,10.425,0,0,0,29.4,19.3a2.124,2.124,0,0,0,.21,1.064.7.7,0,0,0,.649.352,1.955,1.955,0,0,0,1.313-.63,4.994,4.994,0,0,0,1.079-1.479,10.815,10.815,0,0,0,.732-2.324Zm16.582-.762H40.537v-2h9.512Zm0,4.238H40.537V17.42h9.512Zm9.521,5.781h-2.52A12.251,12.251,0,0,1,53.9,16.639,13.034,13.034,0,0,1,57.051,8h2.5a14.035,14.035,0,0,0-2.959,8.643A13.574,13.574,0,0,0,59.57,25.184ZM73.086,22H69.463l-2.178-3.6q-.244-.41-.469-.732a4.069,4.069,0,0,0-.454-.552,1.806,1.806,0,0,0-.479-.352,1.215,1.215,0,0,0-.542-.122h-.85V22H61.338V8h5q5.1,0,5.1,3.809a3.944,3.944,0,0,1-.225,1.353,3.757,3.757,0,0,1-.635,1.118,4.024,4.024,0,0,1-.991.859,5.112,5.112,0,0,1-1.294.566v.039a2.007,2.007,0,0,1,.605.317,4.335,4.335,0,0,1,.566.513,7.153,7.153,0,0,1,.522.63q.249.337.454.659ZM64.492,10.359v3.9h1.367a2.267,2.267,0,0,0,1.631-.586,1.955,1.955,0,0,0,.625-1.475q0-1.836-2.2-1.836Zm16.191,8.916a4.274,4.274,0,0,0,.063.854,1.019,1.019,0,0,0,.225.469,1.063,1.063,0,0,0,.464.283,3.793,3.793,0,0,0,.762.156q.459.054,1.211.073V22H74.98v-.889a13.386,13.386,0,0,0,1.548-.132,1.855,1.855,0,0,0,.708-.249.947.947,0,0,0,.356-.469,3.1,3.1,0,0,0,.112-.986V12.215a.879.879,0,0,0-.151-.576.519.519,0,0,0-.415-.176,1.7,1.7,0,0,0-.688.225,15.324,15.324,0,0,0-1.46.918l-.6-1.035,5.1-3.057h1.25q-.059.938-.059,2.6Zm8.4-6.759H85.971V11.258h3.116Zm5.525-5.867V15H92.818V8.677a2.149,2.149,0,0,1-.35.248,3.616,3.616,0,0,1-.43.211,3.84,3.84,0,0,1-.473.159,3.453,3.453,0,0,1-.484.094V7.874A7.485,7.485,0,0,0,92.4,7.35a7.521,7.521,0,0,0,1.122-.7Zm8.875,5.588h-2.193V14.43h-1.151V12.237h-2.2V11.081h2.2v-2.2h1.151v2.2h2.193ZM118.181,22h-3.623l-2.178-3.6q-.244-.41-.469-.732a4.069,4.069,0,0,0-.454-.552,1.806,1.806,0,0,0-.479-.352,1.215,1.215,0,0,0-.542-.122h-.85V22h-3.154V8h5q5.1,0,5.1,3.809a3.944,3.944,0,0,1-.225,1.353,3.757,3.757,0,0,1-.635,1.118,4.024,4.024,0,0,1-.991.859,5.112,5.112,0,0,1-1.294.566v.039a2.007,2.007,0,0,1,.605.317,4.335,4.335,0,0,1,.566.513,7.153,7.153,0,0,1,.522.63q.249.337.454.659Zm-8.594-11.641v3.9h1.367a2.267,2.267,0,0,0,1.631-.586,1.955,1.955,0,0,0,.625-1.475q0-1.836-2.2-1.836Zm12.49,9.082h5.938V22H118.7V20.945a4.909,4.909,0,0,1,.361-1.929,6.4,6.4,0,0,1,.908-1.533,7.878,7.878,0,0,1,1.2-1.2q.649-.522,1.235-.942.615-.439,1.079-.84a6.149,6.149,0,0,0,.781-.8,3.026,3.026,0,0,0,.474-.8,2.382,2.382,0,0,0,.156-.864,1.737,1.737,0,0,0-.508-1.357,2.258,2.258,0,0,0-1.553-.459,5.215,5.215,0,0,0-3.457,1.436V8.943a7.421,7.421,0,0,1,4.121-1.182,6.086,6.086,0,0,1,1.909.278,4.039,4.039,0,0,1,1.431.8,3.4,3.4,0,0,1,.894,1.255,4.235,4.235,0,0,1,.308,1.646,4.64,4.64,0,0,1-.3,1.719,5.282,5.282,0,0,1-.791,1.367,7.175,7.175,0,0,1-1.138,1.128q-.645.513-1.338.991-.469.332-.9.659a8.564,8.564,0,0,0-.767.645,3.5,3.5,0,0,0-.527.62A1.07,1.07,0,0,0,122.077,19.441Zm11.245-6.925h-3.116V11.258h3.116Zm5.525-5.867V15h-1.794V8.677a2.149,2.149,0,0,1-.35.248,3.616,3.616,0,0,1-.43.211,3.841,3.841,0,0,1-.473.159,3.453,3.453,0,0,1-.484.094V7.874a7.485,7.485,0,0,0,1.322-.524,7.521,7.521,0,0,0,1.122-.7Zm4.647,15.595a1.8,1.8,0,0,1-1.27-.469,1.507,1.507,0,0,1-.508-1.152,1.451,1.451,0,0,1,.522-1.152,1.929,1.929,0,0,1,1.3-.449,1.857,1.857,0,0,1,1.294.454,1.573,1.573,0,0,1-.01,2.314A1.936,1.936,0,0,1,143.494,22.244Zm5.42,0a1.8,1.8,0,0,1-1.27-.469,1.507,1.507,0,0,1-.508-1.152,1.451,1.451,0,0,1,.522-1.152,1.929,1.929,0,0,1,1.3-.449,1.857,1.857,0,0,1,1.294.454,1.573,1.573,0,0,1-.01,2.314A1.936,1.936,0,0,1,148.914,22.244Zm5.42,0a1.8,1.8,0,0,1-1.27-.469,1.507,1.507,0,0,1-.508-1.152,1.451,1.451,0,0,1,.522-1.152,1.929,1.929,0,0,1,1.3-.449,1.857,1.857,0,0,1,1.294.454,1.573,1.573,0,0,1-.01,2.314A1.936,1.936,0,0,1,154.334,22.244Zm14.58-4.98h-3.76v3.76h-1.973v-3.76H159.4V15.281h3.779V11.5h1.973v3.779h3.76ZM184.569,22h-3.623l-2.178-3.6q-.244-.41-.469-.732a4.068,4.068,0,0,0-.454-.552,1.806,1.806,0,0,0-.479-.352,1.215,1.215,0,0,0-.542-.122h-.85V22H172.82V8h5q5.1,0,5.1,3.809a3.944,3.944,0,0,1-.225,1.353,3.757,3.757,0,0,1-.635,1.118,4.024,4.024,0,0,1-.991.859,5.112,5.112,0,0,1-1.294.566v.039a2.007,2.007,0,0,1,.605.317,4.336,4.336,0,0,1,.566.513,7.152,7.152,0,0,1,.522.63q.249.337.454.659Zm-8.594-11.641v3.9h1.367a2.267,2.267,0,0,0,1.631-.586A1.955,1.955,0,0,0,179.6,12.2q0-1.836-2.2-1.836ZM195.233,22h-3.076V16.443q0-2.324-1.66-2.324a1.647,1.647,0,0,0-1.318.615,2.344,2.344,0,0,0-.518,1.563V22h-3.086V12h3.086v1.582h.039a3.536,3.536,0,0,1,3.213-1.826q3.32,0,3.32,4.121Zm5.073-9.484H197.19V11.258h3.116Zm5.525-5.867V15h-1.794V8.677a2.149,2.149,0,0,1-.35.248,3.616,3.616,0,0,1-.43.211,3.841,3.841,0,0,1-.473.159,3.453,3.453,0,0,1-.484.094V7.874a7.485,7.485,0,0,0,1.322-.524,7.521,7.521,0,0,0,1.122-.7Zm4.647,18.534h-2.5a13.493,13.493,0,0,0,2.988-8.545A14,14,0,0,0,207.978,8h2.52a13.035,13.035,0,0,1,3.164,8.643A12.275,12.275,0,0,1,210.478,25.184Zm8.637-12.667H216V11.258h3.116Zm5.525-5.867V15h-1.794V8.677a2.149,2.149,0,0,1-.35.248,3.616,3.616,0,0,1-.43.211,3.841,3.841,0,0,1-.473.159,3.453,3.453,0,0,1-.484.094V7.874a7.485,7.485,0,0,0,1.322-.524,7.521,7.521,0,0,0,1.122-.7Z" transform="translate(-23)"/>
    </g>
    <g id="Grupo_974103" data-name="Grupo 974103" transform="translate(8 8)">
      <g id="Grupo_974098" data-name="Grupo 974098" transform="translate(803 -11499)">
        <path id="Trazado_704891-2" data-name="Trazado 704891" d="M-4.573,0H137.235" transform="translate(531.765 9704.861)" fill="none" stroke="#707070" stroke-width="3"/>
        <path id="Trazado_704994" data-name="Trazado 704994" d="M0,0H25.1" transform="translate(530.67 9730.397)" fill="none" stroke="#707070" stroke-width="3"/>
        <path id="Trazado_704995" data-name="Trazado 704995" d="M0,0H25.1" transform="translate(576.483 9730.397)" fill="none" stroke="#707070" stroke-width="3"/>
        <path id="Trazado_704996" data-name="Trazado 704996" d="M0,0H25.1" transform="translate(640.259 9730.397)" fill="none" stroke="#707070" stroke-width="3"/>
        <path id="Trazado_704997" data-name="Trazado 704997" d="M6.707-2.316a3.633,3.633,0,0,0,.054.726.866.866,0,0,0,.191.4.9.9,0,0,0,.394.241,3.224,3.224,0,0,0,.647.133q.39.046,1.029.062V0H1.859V-.755A11.378,11.378,0,0,0,3.175-.867a1.577,1.577,0,0,0,.6-.212.8.8,0,0,0,.3-.4,2.634,2.634,0,0,0,.1-.838v-6a.747.747,0,0,0-.129-.49.441.441,0,0,0-.353-.149,1.442,1.442,0,0,0-.585.191,13.025,13.025,0,0,0-1.241.78l-.506-.88,4.333-2.6H6.757q-.05.8-.05,2.208Z" transform="translate(582 9690)"/>
        <path id="Trazado_704998" data-name="Trazado 704998" d="M5.918-2.043a3.206,3.206,0,0,0,.048.641.764.764,0,0,0,.168.352.8.8,0,0,0,.348.212,2.845,2.845,0,0,0,.571.117q.344.04.908.055V0H1.641V-.667A10.04,10.04,0,0,0,2.8-.765a1.392,1.392,0,0,0,.531-.187A.71.71,0,0,0,3.6-1.3a2.324,2.324,0,0,0,.084-.74v-5.3a.659.659,0,0,0-.114-.432A.389.389,0,0,0,3.259-7.9a1.272,1.272,0,0,0-.516.168,11.493,11.493,0,0,0-1.095.688L1.2-7.822l3.823-2.292h.938q-.044.7-.044,1.948Z" transform="translate(537.895 9722.223)"/>
        <path id="Trazado_704999" data-name="Trazado 704999" d="M5.918-2.043a3.206,3.206,0,0,0,.048.641.764.764,0,0,0,.168.352.8.8,0,0,0,.348.212,2.845,2.845,0,0,0,.571.117q.344.04.908.055V0H1.641V-.667A10.04,10.04,0,0,0,2.8-.765a1.392,1.392,0,0,0,.531-.187A.71.71,0,0,0,3.6-1.3a2.324,2.324,0,0,0,.084-.74v-5.3a.659.659,0,0,0-.114-.432A.389.389,0,0,0,3.259-7.9a1.272,1.272,0,0,0-.516.168,11.493,11.493,0,0,0-1.095.688L1.2-7.822l3.823-2.292h.938q-.044.7-.044,1.948Z" transform="translate(582.947 9722.982)"/>
        <path id="Trazado_705000" data-name="Trazado 705000" d="M5.918-2.043a3.206,3.206,0,0,0,.048.641.764.764,0,0,0,.168.352.8.8,0,0,0,.348.212,2.845,2.845,0,0,0,.571.117q.344.04.908.055V0H1.641V-.667A10.04,10.04,0,0,0,2.8-.765a1.392,1.392,0,0,0,.531-.187A.71.71,0,0,0,3.6-1.3a2.324,2.324,0,0,0,.084-.74v-5.3a.659.659,0,0,0-.114-.432A.389.389,0,0,0,3.259-7.9a1.272,1.272,0,0,0-.516.168,11.493,11.493,0,0,0-1.095.688L1.2-7.822l3.823-2.292h.938q-.044.7-.044,1.948Z" transform="translate(646.723 9723.743)"/>
        <path id="Trazado_705001" data-name="Trazado 705001" d="M10.012,0H7.295L5.662-2.7q-.183-.308-.352-.549a3.052,3.052,0,0,0-.341-.414,1.354,1.354,0,0,0-.359-.264A.911.911,0,0,0,4.2-4.021H3.567V0H1.2V-10.5h3.75q3.823,0,3.823,2.856a2.958,2.958,0,0,1-.168,1.014,2.818,2.818,0,0,1-.476.839,3.018,3.018,0,0,1-.743.645,3.834,3.834,0,0,1-.97.425v.029a1.505,1.505,0,0,1,.454.238,3.252,3.252,0,0,1,.425.385,5.365,5.365,0,0,1,.392.472q.187.253.341.494ZM3.567-8.73v2.922H4.592a1.7,1.7,0,0,0,1.223-.439,1.467,1.467,0,0,0,.469-1.106q0-1.377-1.648-1.377Zm12.319-2.007V0H13.579V-8.13a2.763,2.763,0,0,1-.45.319,4.65,4.65,0,0,1-.553.271,4.938,4.938,0,0,1-.608.205,4.44,4.44,0,0,1-.623.121V-9.163a9.624,9.624,0,0,0,1.7-.674,9.67,9.67,0,0,0,1.443-.9Z" transform="translate(532.571 9745.797)"/>
        <path id="Trazado_705002" data-name="Trazado 705002" d="M10.012,0H7.295L5.662-2.7q-.183-.308-.352-.549a3.052,3.052,0,0,0-.341-.414,1.354,1.354,0,0,0-.359-.264A.911.911,0,0,0,4.2-4.021H3.567V0H1.2V-10.5h3.75q3.823,0,3.823,2.856a2.958,2.958,0,0,1-.168,1.014,2.818,2.818,0,0,1-.476.839,3.018,3.018,0,0,1-.743.645,3.834,3.834,0,0,1-.97.425v.029a1.505,1.505,0,0,1,.454.238,3.252,3.252,0,0,1,.425.385,5.365,5.365,0,0,1,.392.472q.187.253.341.494ZM3.567-8.73v2.922H4.592a1.7,1.7,0,0,0,1.223-.439,1.467,1.467,0,0,0,.469-1.106q0-1.377-1.648-1.377Zm9.368,6.812h4.453V0H10.4V-.791a3.682,3.682,0,0,1,.271-1.447,4.8,4.8,0,0,1,.681-1.15,5.908,5.908,0,0,1,.9-.9q.487-.392.927-.707.461-.33.809-.63a4.612,4.612,0,0,0,.586-.6,2.269,2.269,0,0,0,.355-.6,1.786,1.786,0,0,0,.117-.648,1.3,1.3,0,0,0-.381-1.018A1.693,1.693,0,0,0,13.5-8.833a3.911,3.911,0,0,0-2.593,1.077V-9.792A5.566,5.566,0,0,1,14-10.679a4.565,4.565,0,0,1,1.432.209,3.029,3.029,0,0,1,1.073.6,2.546,2.546,0,0,1,.67.941A3.176,3.176,0,0,1,17.4-7.7a3.48,3.48,0,0,1-.223,1.289,3.961,3.961,0,0,1-.593,1.025,5.381,5.381,0,0,1-.853.846q-.483.385-1,.743-.352.249-.677.494a6.423,6.423,0,0,0-.575.483,2.624,2.624,0,0,0-.4.465A.8.8,0,0,0,12.935-1.919Z" transform="translate(578.384 9745.797)"/>
        <path id="Trazado_705003" data-name="Trazado 705003" d="M10.68,0h-2.9L6.039-2.883q-.2-.328-.375-.586A3.255,3.255,0,0,0,5.3-3.91a1.445,1.445,0,0,0-.383-.281.972.972,0,0,0-.434-.1H3.8V0H1.281V-11.2h4q4.078,0,4.078,3.047a3.155,3.155,0,0,1-.18,1.082,3.006,3.006,0,0,1-.508.895,3.219,3.219,0,0,1-.793.688,4.089,4.089,0,0,1-1.035.453v.031a1.606,1.606,0,0,1,.484.254,3.469,3.469,0,0,1,.453.41,5.722,5.722,0,0,1,.418.5q.2.27.363.527ZM3.8-9.312V-6.2H4.9a1.813,1.813,0,0,0,1.3-.469,1.564,1.564,0,0,0,.5-1.18q0-1.469-1.758-1.469ZM19.211,0H16.75V-4.445q0-1.859-1.328-1.859a1.318,1.318,0,0,0-1.055.492,1.875,1.875,0,0,0-.414,1.25V0H11.484V-8h2.469v1.266h.031A2.829,2.829,0,0,1,16.555-8.2q2.656,0,2.656,3.3Z" transform="translate(642.16 9746.797)"/>
        <path id="Trazado_705004" data-name="Trazado 705004" d="M2.007.183a1.35,1.35,0,0,1-.952-.352,1.13,1.13,0,0,1-.381-.864A1.088,1.088,0,0,1,1.066-1.9a1.447,1.447,0,0,1,.978-.337,1.393,1.393,0,0,1,.97.341,1.11,1.11,0,0,1,.377.861,1.116,1.116,0,0,1-.385.875A1.452,1.452,0,0,1,2.007.183Zm4.065,0A1.35,1.35,0,0,1,5.12-.168a1.13,1.13,0,0,1-.381-.864A1.088,1.088,0,0,1,5.131-1.9a1.447,1.447,0,0,1,.978-.337,1.393,1.393,0,0,1,.97.341,1.109,1.109,0,0,1,.377.861,1.116,1.116,0,0,1-.385.875A1.452,1.452,0,0,1,6.072.183Zm4.065,0a1.35,1.35,0,0,1-.952-.352A1.13,1.13,0,0,1,8.8-1.033,1.088,1.088,0,0,1,9.2-1.9a1.447,1.447,0,0,1,.978-.337,1.393,1.393,0,0,1,.97.341,1.109,1.109,0,0,1,.377.861,1.116,1.116,0,0,1-.385.875A1.452,1.452,0,0,1,10.137.183Z" transform="translate(605.854 9733.63)"/>
        <path id="Trazado_705005" data-name="Trazado 705005" d="M9.469-3.789H6.461V-.781H4.883V-3.789H1.859V-5.375H4.883V-8.4H6.461v3.023H9.469Z" transform="translate(560.041 9736.15)"/>
        <path id="Trazado_705006" data-name="Trazado 705006" d="M9.469-3.789H6.461V-.781H4.883V-3.789H1.859V-5.375H4.883V-8.4H6.461v3.023H9.469Z" transform="translate(623.817 9736.15)"/>
      </g>
      <path id="Trazado_705007" data-name="Trazado 705007" d="M10.07,9.68A7.037,7.037,0,0,1,9.508,12.6a4.261,4.261,0,0,1-1.594,1.9,4.385,4.385,0,0,1-2.406.656,4.347,4.347,0,0,1-2.383-.66,4.363,4.363,0,0,1-1.613-1.883,6.752,6.752,0,0,1-.59-2.832v-.82a6.953,6.953,0,0,1,.57-2.9A4.347,4.347,0,0,1,3.105,4.137a4.329,4.329,0,0,1,2.387-.668,4.41,4.41,0,0,1,2.41.66A4.253,4.253,0,0,1,9.508,6.043a7.071,7.071,0,0,1,.563,2.918ZM8.578,8.945A5.1,5.1,0,0,0,7.766,5.84,2.68,2.68,0,0,0,5.492,4.758,2.651,2.651,0,0,0,3.254,5.84a5,5,0,0,0-.84,3V9.68a5.107,5.107,0,0,0,.824,3.082,2.662,2.662,0,0,0,2.27,1.121,2.652,2.652,0,0,0,2.25-1.059,5.079,5.079,0,0,0,.82-3.035ZM6.227.563h1.75l-2.094,2.3-1.164,0Zm10.789,12.2a1.064,1.064,0,0,0-.441-.91,4.249,4.249,0,0,0-1.539-.559,7.277,7.277,0,0,1-1.742-.562,2.479,2.479,0,0,1-.953-.781,1.869,1.869,0,0,1-.309-1.078,2.193,2.193,0,0,1,.879-1.758,3.432,3.432,0,0,1,2.246-.719,3.532,3.532,0,0,1,2.332.742,2.357,2.357,0,0,1,.895,1.9H16.93a1.3,1.3,0,0,0-.5-1.023,1.888,1.888,0,0,0-1.27-.43,1.976,1.976,0,0,0-1.234.344,1.082,1.082,0,0,0-.445.9.877.877,0,0,0,.414.789,5.1,5.1,0,0,0,1.5.508,7.8,7.8,0,0,1,1.754.578,2.558,2.558,0,0,1,1,.809,1.988,1.988,0,0,1,.324,1.152,2.163,2.163,0,0,1-.906,1.816,3.8,3.8,0,0,1-2.352.684,4.257,4.257,0,0,1-1.8-.359,2.922,2.922,0,0,1-1.223-1,2.42,2.42,0,0,1-.441-1.395h1.445a1.5,1.5,0,0,0,.582,1.152,2.258,2.258,0,0,0,1.434.426,2.331,2.331,0,0,0,1.316-.332A1.02,1.02,0,0,0,17.016,12.758Zm6.836,2.4a3.693,3.693,0,0,1-2.8-1.129,4.19,4.19,0,0,1-1.078-3.02v-.266a5.073,5.073,0,0,1,.48-2.246A3.748,3.748,0,0,1,21.8,6.949a3.378,3.378,0,0,1,1.871-.559,3.166,3.166,0,0,1,2.563,1.086,4.7,4.7,0,0,1,.914,3.109v.6H21.422a3,3,0,0,0,.73,2.02,2.3,2.3,0,0,0,1.777.77,2.517,2.517,0,0,0,1.3-.312,3.259,3.259,0,0,0,.93-.828l.883.688A3.55,3.55,0,0,1,23.852,15.156Zm-.18-7.578a1.928,1.928,0,0,0-1.469.637A3.1,3.1,0,0,0,21.469,10H25.7V9.891a2.753,2.753,0,0,0-.594-1.707A1.815,1.815,0,0,0,23.672,7.578ZM34.039,15a3.036,3.036,0,0,1-.2-.891,3.225,3.225,0,0,1-2.406,1.047,2.984,2.984,0,0,1-2.051-.707,2.287,2.287,0,0,1-.8-1.793,2.39,2.39,0,0,1,1-2.051,4.733,4.733,0,0,1,2.824-.73h1.406V9.211A1.623,1.623,0,0,0,33.359,8a1.821,1.821,0,0,0-1.336-.449,2.108,2.108,0,0,0-1.3.391,1.151,1.151,0,0,0-.523.945H28.75A2,2,0,0,1,29.2,7.668a3.066,3.066,0,0,1,1.219-.934,4.1,4.1,0,0,1,1.691-.344,3.342,3.342,0,0,1,2.289.73,2.635,2.635,0,0,1,.859,2.012v3.891a4.757,4.757,0,0,0,.3,1.852V15Zm-2.4-1.1a2.54,2.54,0,0,0,1.289-.352,2.127,2.127,0,0,0,.883-.914V10.9H32.68q-2.656,0-2.656,1.555a1.316,1.316,0,0,0,.453,1.063A1.742,1.742,0,0,0,31.641,13.9Zm5.836.344a.905.905,0,0,1,.223-.625.848.848,0,0,1,.668-.25.874.874,0,0,1,.676.25.887.887,0,0,1,.23.625.839.839,0,0,1-.23.6.89.89,0,0,1-.676.242.8.8,0,0,1-.891-.844Zm.008-6.9a.905.905,0,0,1,.223-.625.848.848,0,0,1,.668-.25.874.874,0,0,1,.676.25.887.887,0,0,1,.23.625.839.839,0,0,1-.23.6.89.89,0,0,1-.676.242.8.8,0,0,1-.891-.844Z" transform="translate(1286 -1844)" fill="#12263f"/>
    </g>
    <path id="Trazado_704974" data-name="Trazado 704974" d="M4.672,9.93A7.053,7.053,0,0,1,1.863,8.566a2.6,2.6,0,0,1-.879-2A2.751,2.751,0,0,1,2.059,4.348a4.269,4.269,0,0,1,2.793-.879,4.66,4.66,0,0,1,2.09.453,3.436,3.436,0,0,1,1.422,1.25,3.2,3.2,0,0,1,.5,1.742H7.359A2.08,2.08,0,0,0,6.7,5.287,2.669,2.669,0,0,0,4.852,4.7a2.732,2.732,0,0,0-1.73.489A1.632,1.632,0,0,0,2.5,6.542,1.468,1.468,0,0,0,3.09,7.72,5.785,5.785,0,0,0,5.1,8.6a9.316,9.316,0,0,1,2.219.88A3.367,3.367,0,0,1,8.5,10.6a2.861,2.861,0,0,1,.387,1.508,2.658,2.658,0,0,1-1.078,2.215,4.6,4.6,0,0,1-2.883.832,5.347,5.347,0,0,1-2.187-.449,3.681,3.681,0,0,1-1.566-1.23A3,3,0,0,1,.625,11.7H2.133a1.959,1.959,0,0,0,.762,1.629,3.207,3.207,0,0,0,2.035.6,2.948,2.948,0,0,0,1.82-.484,1.573,1.573,0,0,0,.633-1.32A1.545,1.545,0,0,0,6.8,10.832,6.755,6.755,0,0,0,4.672,9.93ZM12.156,15H10.7V6.547h1.453Zm.016-11.992h1.75L11.828,5.3l-1.164,0ZM22.9,10.4H20.227V15H18.719V3.625h3.766a4.457,4.457,0,0,1,2.957.875,3.148,3.148,0,0,1,1.035,2.547A3.062,3.062,0,0,1,25.9,8.9a3.428,3.428,0,0,1-1.6,1.18l2.672,4.828V15H25.367ZM20.227,9.172h2.3a2.6,2.6,0,0,0,1.777-.579,1.959,1.959,0,0,0,.66-1.55,2.062,2.062,0,0,0-.629-1.62,2.663,2.663,0,0,0-1.816-.571h-2.3ZM32.953,15H31.5V5.367l-2.914,1.07V5.125L32.727,3.57h.227ZM43.945,8.641H37.43V7.383h6.516Zm0,3.242H37.43v-1.25h6.516ZM50.719,15H49.266V5.367l-2.914,1.07V5.125L50.492,3.57h.227Zm11.367-4.852a6.61,6.61,0,0,1-.867,3.773,3.6,3.6,0,0,1-5.406.027,6.274,6.274,0,0,1-.906-3.605V8.414a6.463,6.463,0,0,1,.867-3.727A3.668,3.668,0,0,1,61.2,4.645a6.237,6.237,0,0,1,.891,3.629ZM60.641,8.172A5.3,5.3,0,0,0,60.125,5.5a1.775,1.775,0,0,0-1.633-.84,1.751,1.751,0,0,0-1.617.836,5.171,5.171,0,0,0-.523,2.57v2.313a5.381,5.381,0,0,0,.535,2.723,1.771,1.771,0,0,0,1.621.879,1.747,1.747,0,0,0,1.59-.828,5.186,5.186,0,0,0,.543-2.609Zm8.109,5.563a2.4,2.4,0,0,0,1.68-1.321,6.349,6.349,0,0,0,.625-2.94V8.425A4.389,4.389,0,0,0,70.3,5.657,2.5,2.5,0,0,0,68.219,4.7a2.465,2.465,0,0,0-2.07.977,4.464,4.464,0,0,0-.75,2.768v.884a6.479,6.479,0,0,0,.613,3.034,2.464,2.464,0,0,0,1.746,1.376V15H63.914V13.773h1.727a5.5,5.5,0,0,1-1.3-2,6.715,6.715,0,0,1-.469-2.465V8.445a5.891,5.891,0,0,1,.551-2.594A4.2,4.2,0,0,1,72,5.8a5.769,5.769,0,0,1,.578,2.516V9.328a6.675,6.675,0,0,1-.469,2.449,5.5,5.5,0,0,1-1.3,2h1.719V15H68.75Zm5.93,3.531-.82-.562a3.77,3.77,0,0,0,.766-2.109v-1.3h1.414v1.133A3.559,3.559,0,0,1,75.652,16,3.7,3.7,0,0,1,74.68,17.266ZM86.227,10.4H83.555V15H82.047V3.625h3.766A4.457,4.457,0,0,1,88.77,4.5,3.148,3.148,0,0,1,89.8,7.047,3.062,3.062,0,0,1,89.23,8.9a3.428,3.428,0,0,1-1.6,1.18L90.3,14.906V15H88.7ZM83.555,9.172h2.3a2.6,2.6,0,0,0,1.777-.579,1.959,1.959,0,0,0,.66-1.55,2.062,2.062,0,0,0-.629-1.62,2.663,2.663,0,0,0-1.816-.571h-2.3ZM98.984,15H91.531V13.961l3.938-4.375a9.354,9.354,0,0,0,1.207-1.613,2.693,2.693,0,0,0,.332-1.285,2.041,2.041,0,0,0-.539-1.461,1.885,1.885,0,0,0-1.437-.57,2.232,2.232,0,0,0-1.676.613,2.343,2.343,0,0,0-.6,1.707H91.313a3.355,3.355,0,0,1,1.012-2.539,3.751,3.751,0,0,1,2.707-.969,3.6,3.6,0,0,1,2.508.832,2.838,2.838,0,0,1,.922,2.215q0,1.68-2.141,4l-3.047,3.3h5.711Zm8.289-6.359h-6.516V7.383h6.516Zm0,3.242h-6.516v-1.25h6.516ZM116.75,15H109.3V13.961l3.938-4.375a9.354,9.354,0,0,0,1.207-1.613,2.693,2.693,0,0,0,.332-1.285,2.041,2.041,0,0,0-.539-1.461,1.885,1.885,0,0,0-1.437-.57,2.232,2.232,0,0,0-1.676.613,2.343,2.343,0,0,0-.6,1.707h-1.445a3.355,3.355,0,0,1,1.012-2.539,3.751,3.751,0,0,1,2.707-.969A3.6,3.6,0,0,1,115.3,4.3a2.838,2.838,0,0,1,.922,2.215q0,1.68-2.141,4l-3.047,3.3h5.711Zm8.664-4.852a6.61,6.61,0,0,1-.867,3.773,3.6,3.6,0,0,1-5.406.027,6.274,6.274,0,0,1-.906-3.605V8.414a6.463,6.463,0,0,1,.867-3.727,3.668,3.668,0,0,1,5.422-.043,6.237,6.237,0,0,1,.891,3.629Zm-1.445-1.977a5.3,5.3,0,0,0-.516-2.676,1.775,1.775,0,0,0-1.633-.84,1.751,1.751,0,0,0-1.617.836,5.171,5.171,0,0,0-.523,2.57v2.313a5.381,5.381,0,0,0,.535,2.723,1.771,1.771,0,0,0,1.621.879,1.747,1.747,0,0,0,1.59-.828,5.186,5.186,0,0,0,.543-2.609Zm8.109,5.563a2.4,2.4,0,0,0,1.68-1.321,6.349,6.349,0,0,0,.625-2.94V8.425a4.39,4.39,0,0,0-.758-2.768,2.5,2.5,0,0,0-2.078-.962,2.465,2.465,0,0,0-2.07.977,4.464,4.464,0,0,0-.75,2.768v.884a6.479,6.479,0,0,0,.613,3.034,2.464,2.464,0,0,0,1.746,1.376V15h-3.844V13.773h1.727a5.5,5.5,0,0,1-1.3-2,6.715,6.715,0,0,1-.469-2.465V8.445a5.891,5.891,0,0,1,.551-2.594,4.2,4.2,0,0,1,7.574-.055,5.769,5.769,0,0,1,.578,2.516V9.328a6.675,6.675,0,0,1-.469,2.449,5.5,5.5,0,0,1-1.3,2h1.719V15h-3.781Zm12.7-.852,1.969-6.336H148.3L144.9,16.3q-.789,2.109-2.508,2.109l-.273-.023-.539-.1V17.117l.391.031a1.923,1.923,0,0,0,1.145-.3,2.148,2.148,0,0,0,.676-1.086l.32-.859-3.016-8.359h1.578ZM157.945,10.4h-2.672V15h-1.508V3.625h3.766a4.457,4.457,0,0,1,2.957.875,3.148,3.148,0,0,1,1.035,2.547,3.062,3.062,0,0,1-.574,1.852,3.428,3.428,0,0,1-1.6,1.18l2.672,4.828V15h-1.609Zm-2.672-1.227h2.3a2.6,2.6,0,0,0,1.777-.579,1.959,1.959,0,0,0,.66-1.55,2.062,2.062,0,0,0-.629-1.62,2.663,2.663,0,0,0-1.816-.571h-2.3Zm10.078-.562h1.086a2.387,2.387,0,0,0,1.609-.539,1.8,1.8,0,0,0,.586-1.414,1.764,1.764,0,0,0-1.992-2,2.072,2.072,0,0,0-1.5.535,1.873,1.873,0,0,0-.559,1.418h-1.445a2.9,2.9,0,0,1,.988-2.246,3.6,3.6,0,0,1,2.512-.895,3.558,3.558,0,0,1,2.523.852,3.076,3.076,0,0,1,.914,2.367,2.5,2.5,0,0,1-.48,1.438,2.9,2.9,0,0,1-1.309,1.039,2.8,2.8,0,0,1,1.449.984,2.734,2.734,0,0,1,.512,1.68,3.1,3.1,0,0,1-1,2.43,3.745,3.745,0,0,1-2.6.9,3.844,3.844,0,0,1-2.605-.867,2.877,2.877,0,0,1-1-2.289h1.453a1.859,1.859,0,0,0,.586,1.438,2.229,2.229,0,0,0,1.57.539,2.187,2.187,0,0,0,1.6-.547,2.108,2.108,0,0,0,.555-1.57,1.912,1.912,0,0,0-.609-1.523,2.655,2.655,0,0,0-1.758-.547h-1.086Zm13.641.031h-6.516V7.383h6.516Zm0,3.242h-6.516v-1.25h6.516Zm4.125-3.273H184.2a2.387,2.387,0,0,0,1.609-.539,1.8,1.8,0,0,0,.586-1.414,1.764,1.764,0,0,0-1.992-2,2.072,2.072,0,0,0-1.5.535,1.873,1.873,0,0,0-.559,1.418h-1.445a2.9,2.9,0,0,1,.988-2.246,3.6,3.6,0,0,1,2.512-.895,3.558,3.558,0,0,1,2.523.852,3.076,3.076,0,0,1,.914,2.367,2.5,2.5,0,0,1-.48,1.438,2.9,2.9,0,0,1-1.309,1.039,2.8,2.8,0,0,1,1.449.984,2.734,2.734,0,0,1,.512,1.68,3.1,3.1,0,0,1-1,2.43,3.745,3.745,0,0,1-2.6.9,3.844,3.844,0,0,1-2.605-.867,2.877,2.877,0,0,1-1-2.289h1.453a1.859,1.859,0,0,0,.586,1.438,2.229,2.229,0,0,0,1.57.539,2.187,2.187,0,0,0,1.6-.547,2.108,2.108,0,0,0,.555-1.57,1.912,1.912,0,0,0-.609-1.523,2.655,2.655,0,0,0-1.758-.547h-1.086Zm14.016,1.539a6.61,6.61,0,0,1-.867,3.773,3.6,3.6,0,0,1-5.406.027,6.274,6.274,0,0,1-.906-3.605V8.414a6.463,6.463,0,0,1,.867-3.727,3.668,3.668,0,0,1,5.422-.043,6.237,6.237,0,0,1,.891,3.629Zm-1.445-1.977a5.3,5.3,0,0,0-.516-2.676,1.775,1.775,0,0,0-1.633-.84,1.751,1.751,0,0,0-1.617.836,5.171,5.171,0,0,0-.523,2.57v2.313a5.381,5.381,0,0,0,.535,2.723,1.771,1.771,0,0,0,1.621.879,1.747,1.747,0,0,0,1.59-.828,5.186,5.186,0,0,0,.543-2.609Zm8.109,5.563a2.4,2.4,0,0,0,1.68-1.321,6.349,6.349,0,0,0,.625-2.94V8.425a4.39,4.39,0,0,0-.758-2.768,2.5,2.5,0,0,0-2.078-.962,2.465,2.465,0,0,0-2.07.977,4.464,4.464,0,0,0-.75,2.768v.884a6.479,6.479,0,0,0,.613,3.034,2.464,2.464,0,0,0,1.746,1.376V15h-3.844V13.773h1.727a5.5,5.5,0,0,1-1.3-2,6.715,6.715,0,0,1-.469-2.465V8.445a5.891,5.891,0,0,1,.551-2.594,4.2,4.2,0,0,1,7.574-.055,5.769,5.769,0,0,1,.578,2.516V9.328a6.675,6.675,0,0,1-.469,2.449,5.5,5.5,0,0,1-1.3,2h1.719V15H203.8Zm6.008.508a.905.905,0,0,1,.223-.625.848.848,0,0,1,.668-.25.874.874,0,0,1,.676.25.887.887,0,0,1,.23.625.839.839,0,0,1-.23.6.89.89,0,0,1-.676.242.8.8,0,0,1-.891-.844ZM7.75,33.742H2.82v4.031H8.547V39H1.32V27.625H8.469v1.227H2.82v3.664H7.75Zm3.8-3.2.047,1.063a3.08,3.08,0,0,1,2.531-1.219q2.68,0,2.7,3.023V39H15.391V33.406a1.946,1.946,0,0,0-.418-1.352,1.675,1.675,0,0,0-1.277-.437,2.086,2.086,0,0,0-1.234.375,2.546,2.546,0,0,0-.828.984V39H10.188V30.547ZM20.977,28.5v2.047h1.578v1.117H20.977v5.249a1.173,1.173,0,0,0,.211.763.888.888,0,0,0,.719.254,3.5,3.5,0,0,0,.688-.094V39a4.215,4.215,0,0,1-1.109.155,1.8,1.8,0,0,1-1.461-.586,2.517,2.517,0,0,1-.492-1.664V31.664H17.992V30.547h1.539V28.5ZM23.7,34.7a4.993,4.993,0,0,1,.488-2.234,3.643,3.643,0,0,1,1.359-1.531,3.7,3.7,0,0,1,1.988-.539,3.565,3.565,0,0,1,2.793,1.2,4.6,4.6,0,0,1,1.066,3.18v.1a5.036,5.036,0,0,1-.473,2.215,3.589,3.589,0,0,1-1.352,1.527,3.743,3.743,0,0,1-2.02.547,3.556,3.556,0,0,1-2.785-1.2A4.575,4.575,0,0,1,23.7,34.8Zm1.453.172a3.616,3.616,0,0,0,.652,2.258,2.211,2.211,0,0,0,3.5-.012,3.955,3.955,0,0,0,.648-2.418,3.61,3.61,0,0,0-.66-2.254,2.1,2.1,0,0,0-1.754-.863,2.075,2.075,0,0,0-1.727.852A3.925,3.925,0,0,0,25.156,34.867Zm9.422-4.32.047,1.063a3.08,3.08,0,0,1,2.531-1.219q2.68,0,2.7,3.023V39H38.414V33.406A1.946,1.946,0,0,0,38,32.055a1.675,1.675,0,0,0-1.277-.437,2.086,2.086,0,0,0-1.234.375,2.546,2.546,0,0,0-.828.984V39H33.211V30.547Zm10.852,7.43a2.082,2.082,0,0,0,1.352-.469,1.649,1.649,0,0,0,.641-1.172h1.367a2.621,2.621,0,0,1-.5,1.383,3.293,3.293,0,0,1-1.23,1.047,3.55,3.55,0,0,1-1.629.391A3.482,3.482,0,0,1,42.684,38a4.59,4.59,0,0,1-1.02-3.152v-.242a5.089,5.089,0,0,1,.453-2.2,3.451,3.451,0,0,1,1.3-1.492,3.7,3.7,0,0,1,2-.531,3.39,3.39,0,0,1,2.363.852,3.043,3.043,0,0,1,1,2.211H47.422a1.992,1.992,0,0,0-.621-1.348,1.932,1.932,0,0,0-1.379-.527,2.023,2.023,0,0,0-1.707.793,3.724,3.724,0,0,0-.605,2.293v.273a3.65,3.65,0,0,0,.6,2.25A2.033,2.033,0,0,0,45.43,37.977Zm8.492,1.18a3.693,3.693,0,0,1-2.8-1.129,4.19,4.19,0,0,1-1.078-3.02v-.266a5.073,5.073,0,0,1,.48-2.246,3.748,3.748,0,0,1,1.344-1.547,3.378,3.378,0,0,1,1.871-.559A3.166,3.166,0,0,1,56.3,31.477a4.7,4.7,0,0,1,.914,3.109v.6H51.492a3,3,0,0,0,.73,2.02,2.3,2.3,0,0,0,1.777.77,2.517,2.517,0,0,0,1.3-.312,3.258,3.258,0,0,0,.93-.828l.883.688A3.55,3.55,0,0,1,53.922,39.156Zm-.18-7.578a1.928,1.928,0,0,0-1.469.637A3.1,3.1,0,0,0,51.539,34h4.234v-.109a2.753,2.753,0,0,0-.594-1.707A1.815,1.815,0,0,0,53.742,31.578Zm10.07,5.18a1.064,1.064,0,0,0-.441-.91,4.249,4.249,0,0,0-1.539-.559,7.277,7.277,0,0,1-1.742-.562,2.479,2.479,0,0,1-.953-.781,1.869,1.869,0,0,1-.309-1.078,2.193,2.193,0,0,1,.879-1.758,3.432,3.432,0,0,1,2.246-.719,3.532,3.532,0,0,1,2.332.742,2.357,2.357,0,0,1,.895,1.9H63.727a1.3,1.3,0,0,0-.5-1.023,1.888,1.888,0,0,0-1.27-.43,1.976,1.976,0,0,0-1.234.344,1.082,1.082,0,0,0-.445.9.877.877,0,0,0,.414.789,5.1,5.1,0,0,0,1.5.508,7.8,7.8,0,0,1,1.754.578,2.558,2.558,0,0,1,1,.809,1.988,1.988,0,0,1,.324,1.152,2.163,2.163,0,0,1-.906,1.816A3.8,3.8,0,0,1,62,39.156a4.257,4.257,0,0,1-1.8-.359,2.922,2.922,0,0,1-1.223-1,2.42,2.42,0,0,1-.441-1.395h1.445a1.5,1.5,0,0,0,.582,1.152A2.258,2.258,0,0,0,62,37.977a2.331,2.331,0,0,0,1.316-.332A1.02,1.02,0,0,0,63.813,36.758Zm3.281,4.508-.82-.562a3.77,3.77,0,0,0,.766-2.109v-1.3h1.414v1.133A3.559,3.559,0,0,1,68.066,40,3.7,3.7,0,0,1,67.094,41.266Z" transform="translate(1286 -1701)" fill="#12263f"/>
    <path id="Trazado_704975" data-name="Trazado 704975" d="M10.07,9.68A7.037,7.037,0,0,1,9.508,12.6a4.261,4.261,0,0,1-1.594,1.9,4.385,4.385,0,0,1-2.406.656,4.347,4.347,0,0,1-2.383-.66,4.363,4.363,0,0,1-1.613-1.883,6.752,6.752,0,0,1-.59-2.832v-.82a6.953,6.953,0,0,1,.57-2.9A4.347,4.347,0,0,1,3.105,4.137a4.329,4.329,0,0,1,2.387-.668,4.41,4.41,0,0,1,2.41.66A4.253,4.253,0,0,1,9.508,6.043a7.071,7.071,0,0,1,.563,2.918ZM8.578,8.945A5.1,5.1,0,0,0,7.766,5.84,2.68,2.68,0,0,0,5.492,4.758,2.651,2.651,0,0,0,3.254,5.84a5,5,0,0,0-.84,3V9.68a5.107,5.107,0,0,0,.824,3.082,2.662,2.662,0,0,0,2.27,1.121,2.652,2.652,0,0,0,2.25-1.059,5.079,5.079,0,0,0,.82-3.035ZM6.227.563h1.75l-2.094,2.3-1.164,0Z" transform="translate(1504 -1796)" fill="#12263f"/>
    <path id="Trazado_704976" data-name="Trazado 704976" d="M10.07,9.68A7.037,7.037,0,0,1,9.508,12.6a4.261,4.261,0,0,1-1.594,1.9,4.385,4.385,0,0,1-2.406.656,4.347,4.347,0,0,1-2.383-.66,4.363,4.363,0,0,1-1.613-1.883,6.752,6.752,0,0,1-.59-2.832v-.82a6.953,6.953,0,0,1,.57-2.9A4.347,4.347,0,0,1,3.105,4.137a4.329,4.329,0,0,1,2.387-.668,4.41,4.41,0,0,1,2.41.66A4.253,4.253,0,0,1,9.508,6.043a7.071,7.071,0,0,1,.563,2.918ZM8.578,8.945A5.1,5.1,0,0,0,7.766,5.84,2.68,2.68,0,0,0,5.492,4.758,2.651,2.651,0,0,0,3.254,5.84a5,5,0,0,0-.84,3V9.68a5.107,5.107,0,0,0,.824,3.082,2.662,2.662,0,0,0,2.27,1.121,2.652,2.652,0,0,0,2.25-1.059,5.079,5.079,0,0,0,.82-3.035ZM6.227.563h1.75l-2.094,2.3-1.164,0Z" transform="translate(1570.044 -1622.717)" fill="#12263f"/>
    <path id="Trazado_704977" data-name="Trazado 704977" d="M10.652-6.152H2.092v-1.8h8.561Zm0,3.814H2.092V-4.122h8.561ZM18.94-.325V-2.7a5.181,5.181,0,0,0,2.751.791A2.584,2.584,0,0,0,23.41-2.43a1.76,1.76,0,0,0,.62-1.419q0-1.872-2.646-1.872a19.59,19.59,0,0,0-2.25.149l.475-7.031h6.671v2.268H21.727l-.176,2.522q.677-.053,1.169-.053a4.3,4.3,0,0,1,3.041,1.02,3.56,3.56,0,0,1,1.1,2.742A4.048,4.048,0,0,1,25.55-.989,5.032,5.032,0,0,1,22,.22,7.6,7.6,0,0,1,18.94-.325ZM30.454.22A1.62,1.62,0,0,1,29.312-.2a1.356,1.356,0,0,1-.457-1.037,1.306,1.306,0,0,1,.47-1.037,1.736,1.736,0,0,1,1.173-.4,1.671,1.671,0,0,1,1.165.409,1.331,1.331,0,0,1,.453,1.033,1.339,1.339,0,0,1-.461,1.05A1.742,1.742,0,0,1,30.454.22ZM41.291-12.6v7.945H42.8v2.074H41.291V0H38.76V-2.584H33.267V-4.755Q34-5.572,34.778-6.543t1.512-2q.729-1.028,1.358-2.07A20.749,20.749,0,0,0,38.716-12.6ZM35.754-4.658H38.76v-4.4q-.308.571-.668,1.156t-.756,1.151q-.4.567-.8,1.1T35.754-4.658ZM44.525-.325V-2.7a5.181,5.181,0,0,0,2.751.791,2.584,2.584,0,0,0,1.718-.523,1.76,1.76,0,0,0,.62-1.419q0-1.872-2.646-1.872a19.59,19.59,0,0,0-2.25.149l.475-7.031h6.671v2.268H47.312l-.176,2.522q.677-.053,1.169-.053a4.3,4.3,0,0,1,3.041,1.02,3.56,3.56,0,0,1,1.1,2.742,4.048,4.048,0,0,1-1.31,3.116A5.032,5.032,0,0,1,47.584.22,7.6,7.6,0,0,1,44.525-.325Zm19.1-1.96h3.05V0H61.392V-2.285A5.958,5.958,0,0,0,63.7-6.9a3.536,3.536,0,0,0-.9-2.531,2.955,2.955,0,0,0-2.241-.949,3.051,3.051,0,0,0-2.3.945,3.637,3.637,0,0,0-.905,2.624,6.057,6.057,0,0,0,2.276,4.526V0H54.352V-2.285H57.34a5.47,5.47,0,0,1-2.971-5A5.086,5.086,0,0,1,56.087-11.3a6.453,6.453,0,0,1,4.425-1.512,6.438,6.438,0,0,1,4.474,1.525,5.086,5.086,0,0,1,1.7,3.968A5.451,5.451,0,0,1,63.624-2.285Z" transform="translate(1489 -1608)"/>
    <g id="Grupo_974101" data-name="Grupo 974101" transform="translate(1597.276 -1627.727)">
      <text id="_10Ω-1_20Ω_30Ω-1_-1_5.45Ω_" data-name="𝑹𝒆𝒒=(10Ω-1+20Ω+30Ω-1)-1=5.45Ω " transform="translate(-0.275 -0.273)" font-size="18" font-family="SegoeUISymbol, Segoe UI Symbol"><tspan x="0" y="19">𝑹𝒆𝒒</tspan><tspan y="19" font-family="SegoeUI-Bold, Segoe UI" font-weight="700">=(10Ω</tspan><tspan y="19" font-size="10.499" font-family="SegoeUI-Bold, Segoe UI" font-weight="700" baseline-shift="5.999400079342301">-1</tspan><tspan y="19" font-family="SegoeUI-Bold, Segoe UI" font-weight="700">+20Ω+30Ω</tspan><tspan y="19" font-size="10.499" font-family="SegoeUI-Bold, Segoe UI" font-weight="700" baseline-shift="5.999400079342301">-1</tspan><tspan y="19" font-family="SegoeUI-Bold, Segoe UI" font-weight="700">)</tspan><tspan y="19" font-size="10.499" font-family="SegoeUI-Bold, Segoe UI" font-weight="700" baseline-shift="5.999400079342301">-1</tspan><tspan y="19" font-family="SegoeUI-Bold, Segoe UI" font-weight="700">=5.45Ω </tspan></text>
    </g>
    <path id="Trazado_704978" data-name="Trazado 704978" d="M8.42,18.507a3.388,3.388,0,0,1,.769.831A3.94,3.94,0,0,1,9.6,20.5l.255,1.23a5.227,5.227,0,0,0,.268.954,1.27,1.27,0,0,0,.343.466,1.412,1.412,0,0,0,.593.268l-.123.58H7.8a14.047,14.047,0,0,1-.51-1.96L7,20.581a4.855,4.855,0,0,0-.29-1.037A1.213,1.213,0,0,0,6.293,19a1.236,1.236,0,0,0-.686-.167H5.063L4.43,21.627q-.062.29-.088.5a4.372,4.372,0,0,0-.026.527.7.7,0,0,0,.207.571,1.134,1.134,0,0,0,.646.193L5.045,24H.5l.123-.58a1.26,1.26,0,0,0,.738-.492,4.163,4.163,0,0,0,.448-1.3l1.6-7.251a4.768,4.768,0,0,0,.114-1.028.739.739,0,0,0-.171-.541.959.959,0,0,0-.558-.224L2.918,12H7.3q.914,0,1.49.057a4.426,4.426,0,0,1,1.125.264,2.825,2.825,0,0,1,.91.532,2.179,2.179,0,0,1,.554.787,2.721,2.721,0,0,1,.193,1.059,3.362,3.362,0,0,1-.782,2.25,5.327,5.327,0,0,1-2.382,1.477Zm-2.575-.7a3.739,3.739,0,0,0,1.771-.347A2.5,2.5,0,0,0,8.631,16.4a3.512,3.512,0,0,0,.378-1.67,1.71,1.71,0,0,0-.431-1.274,1.888,1.888,0,0,0-1.362-.422q-.668,0-.9.018L5.291,17.8Zm15.311,4.368a5.994,5.994,0,0,1-1.912,1.485,5.132,5.132,0,0,1-2.219.483,3.879,3.879,0,0,1-1.749-.36,2.394,2.394,0,0,1-1.085-1.068,3.651,3.651,0,0,1-.365-1.692,8.14,8.14,0,0,1,.633-2.892,5.25,5.25,0,0,1,1.125-1.6,4.822,4.822,0,0,1,1.63-1.028,5.667,5.667,0,0,1,2.052-.36q2.689,0,2.689,1.942a2.494,2.494,0,0,1-.268,1.178,2.578,2.578,0,0,1-.892.923,5.352,5.352,0,0,1-1.762.668,14.179,14.179,0,0,1-2.747.29,4.969,4.969,0,0,0-.114,1.072,1.891,1.891,0,0,0,.343,1.23,1.27,1.27,0,0,0,1.037.413,3.081,3.081,0,0,0,1.4-.312,6.543,6.543,0,0,0,1.468-1.112ZM16.5,19.219a4.667,4.667,0,0,0,2.474-.62,1.851,1.851,0,0,0,.857-1.63,1,1,0,0,0-.207-.681.729.729,0,0,0-.576-.233,1.882,1.882,0,0,0-1.472.809A6.452,6.452,0,0,0,16.5,19.219Zm12.8,3.129a5.855,5.855,0,0,1-1.428,1.358,3.119,3.119,0,0,1-1.692.444,1.832,1.832,0,0,1-1.551-.725,3.407,3.407,0,0,1-.549-2.087,8.332,8.332,0,0,1,.343-2.355,6.2,6.2,0,0,1,.984-2.017,4.557,4.557,0,0,1,1.613-1.336,4.838,4.838,0,0,1,2.2-.488,3.852,3.852,0,0,1,2.232.633l.791-.633.984.141L30.99,25.441q-.1.431-.123.642a2.973,2.973,0,0,0-.026.36.669.669,0,0,0,.193.545,1.394,1.394,0,0,0,.686.22l-.1.58H27.976l1.433-5.405Zm.826-3.814a6.059,6.059,0,0,0,.141-1.283,1.509,1.509,0,0,0-.22-.9.835.835,0,0,0-.721-.3,1.807,1.807,0,0,0-1.45.809,6.448,6.448,0,0,0-1.015,2.2,9.382,9.382,0,0,0-.391,2.509,1.912,1.912,0,0,0,.189.958.633.633,0,0,0,.584.316,1.76,1.76,0,0,0,1.182-.567,4.5,4.5,0,0,0,.971-1.332,9.733,9.733,0,0,0,.659-2.092Zm14.924-.686H36.483v-1.8h8.561Zm0,3.814H36.483V19.878h8.561Z" transform="translate(1290 -1805)"/>
  </g>
</svg>
