<svg xmlns="http://www.w3.org/2000/svg" width="633" height="334" viewBox="0 0 633 334">
  <g id="Grupo_974087" data-name="Grupo 974087" transform="translate(-630 -9202)">
    <g id="Rectángulo_339696" data-name="Rectángulo 339696" transform="translate(630 9202)" fill="#fff" stroke="#7125c8" stroke-width="3">
      <rect width="633" height="334" rx="40" stroke="none"/>
      <rect x="1.5" y="1.5" width="630" height="331" rx="38.5" fill="none"/>
    </g>
    <g id="Grupo_974086" data-name="Grupo 974086" transform="translate(684.064 9276.18)">
      <g id="Trazado_704918" data-name="Trazado 704918" transform="translate(29.936 -0.18)" fill="#fff">
        <path d="M 15.5 29.5 C 11.76047039031982 29.5 8.244759559631348 28.04375076293945 5.600510120391846 25.39949035644531 C 2.956249952316284 22.75523948669434 1.5 19.23953056335449 1.5 15.5 C 1.5 11.76047039031982 2.956249952316284 8.244759559631348 5.600510120391846 5.600510120391846 C 8.244759559631348 2.956249952316284 11.76047039031982 1.5 15.5 1.5 C 19.23953056335449 1.5 22.75523948669434 2.956249952316284 25.39949035644531 5.600510120391846 C 28.04375076293945 8.244759559631348 29.5 11.76047039031982 29.5 15.5 C 29.5 19.23953056335449 28.04375076293945 22.75523948669434 25.39949035644531 25.39949035644531 C 22.75523948669434 28.04375076293945 19.23953056335449 29.5 15.5 29.5 Z" stroke="none"/>
        <path d="M 15.5 3 C 12.16113090515137 3 9.022109985351562 4.300230026245117 6.661169052124023 6.661169052124023 C 4.300230026245117 9.022109985351562 3 12.16113090515137 3 15.5 C 3 18.83887100219727 4.300230026245117 21.97789001464844 6.661169052124023 24.33882904052734 C 9.022109985351562 26.69976997375488 12.16113090515137 28 15.5 28 C 18.83887100219727 28 21.97789001464844 26.69976997375488 24.33882904052734 24.33882904052734 C 26.69976997375488 21.97789001464844 28 18.83887100219727 28 15.5 C 28 12.16113090515137 26.69976997375488 9.022109985351562 24.33882904052734 6.661169052124023 C 21.97789001464844 4.300230026245117 18.83887100219727 3 15.5 3 M 15.5 0 C 24.06040954589844 0 31 6.939590454101562 31 15.5 C 31 24.06040954589844 24.06040954589844 31 15.5 31 C 6.939590454101562 31 0 24.06040954589844 0 15.5 C 0 6.939590454101562 6.939590454101562 0 15.5 0 Z" stroke="none" fill="#7125c8"/>
      </g>
      <g id="Trazado_704919" data-name="Trazado 704919" transform="translate(369.936 -0.18)" fill="#fff">
        <path d="M 15 29.5 C 11.40334033966064 29.5 8.019319534301758 28.04997062683105 5.47130012512207 25.41702079772949 C 2.910370111465454 22.77071952819824 1.5 19.2487907409668 1.5 15.5 C 1.5 11.75121021270752 2.910370111465454 8.229280471801758 5.47130012512207 5.582980155944824 C 8.019319534301758 2.950030088424683 11.40334033966064 1.5 15 1.5 C 18.59666061401367 1.5 21.98068046569824 2.950030088424683 24.52869987487793 5.582980155944824 C 27.08963012695312 8.229280471801758 28.5 11.75121021270752 28.5 15.5 C 28.5 19.2487907409668 27.08963012695312 22.77071952819824 24.52869987487793 25.41702079772949 C 21.98068046569824 28.04997062683105 18.59666061401367 29.5 15 29.5 Z" stroke="none"/>
        <path d="M 15 3 C 11.81332015991211 3 8.812110900878906 4.28778076171875 6.549209594726562 6.626110076904297 C 4.260469436645508 8.991140365600586 3 12.14262008666992 3 15.5 C 3 18.85737991333008 4.260469436645508 22.00885963439941 6.549209594726562 24.3738899230957 C 8.812110900878906 26.71221923828125 11.81332015991211 28 15 28 C 18.18667984008789 28 21.18788909912109 26.71221923828125 23.45079040527344 24.3738899230957 C 25.73953056335449 22.00885963439941 27 18.85737991333008 27 15.5 C 27 12.14262008666992 25.73953056335449 8.991140365600586 23.45079040527344 6.626110076904297 C 21.18788909912109 4.28778076171875 18.18667984008789 3 15 3 M 15 0 C 23.28426933288574 0 30 6.939590454101562 30 15.5 C 30 24.06040954589844 23.28426933288574 31 15 31 C 6.715730667114258 31 0 24.06040954589844 0 15.5 C 0 6.939590454101562 6.715730667114258 0 15 0 Z" stroke="none" fill="#7125c8"/>
      </g>
      <g id="Trazado_704920" data-name="Trazado 704920" transform="translate(29.936 147.82)" fill="#fff">
        <path d="M 15.5 28.5 C 11.75121021270752 28.5 8.229280471801758 27.08963012695312 5.582980155944824 24.52869987487793 C 2.950030088424683 21.98068046569824 1.5 18.59666061401367 1.5 15 C 1.5 11.40334033966064 2.950030088424683 8.019319534301758 5.582980155944824 5.47130012512207 C 8.229280471801758 2.910370111465454 11.75121021270752 1.5 15.5 1.5 C 19.2487907409668 1.5 22.77071952819824 2.910370111465454 25.41702079772949 5.47130012512207 C 28.04997062683105 8.019319534301758 29.5 11.40334033966064 29.5 15 C 29.5 18.59666061401367 28.04997062683105 21.98068046569824 25.41702079772949 24.52869987487793 C 22.77071952819824 27.08963012695312 19.2487907409668 28.5 15.5 28.5 Z" stroke="none"/>
        <path d="M 15.5 3 C 12.14262008666992 3 8.991140365600586 4.260469436645508 6.626110076904297 6.549209594726562 C 4.28778076171875 8.812110900878906 3 11.81332015991211 3 15 C 3 18.18667984008789 4.28778076171875 21.18788909912109 6.626110076904297 23.45079040527344 C 8.991140365600586 25.73953056335449 12.14262008666992 27 15.5 27 C 18.85737991333008 27 22.00885963439941 25.73953056335449 24.3738899230957 23.45079040527344 C 26.71221923828125 21.18788909912109 28 18.18667984008789 28 15 C 28 11.81332015991211 26.71221923828125 8.812110900878906 24.3738899230957 6.549209594726562 C 22.00885963439941 4.260469436645508 18.85737991333008 3 15.5 3 M 15.5 0 C 24.06040954589844 0 31 6.715730667114258 31 15 C 31 23.28426933288574 24.06040954589844 30 15.5 30 C 6.939590454101562 30 0 23.28426933288574 0 15 C 0 6.715730667114258 6.939590454101562 0 15.5 0 Z" stroke="none" fill="#7125c8"/>
      </g>
      <g id="Trazado_704921" data-name="Trazado 704921" transform="translate(369.936 147.82)" fill="#fff">
        <path d="M 15 28.5 C 11.39402008056641 28.5 8.003870010375977 27.09575080871582 5.454060077667236 24.54594039916992 C 2.904249906539917 21.99612998962402 1.5 18.60597991943359 1.5 15 C 1.5 11.39402008056641 2.904249906539917 8.003870010375977 5.454060077667236 5.454060077667236 C 8.003870010375977 2.904249906539917 11.39402008056641 1.5 15 1.5 C 18.60597991943359 1.5 21.99612998962402 2.904249906539917 24.54594039916992 5.454060077667236 C 27.09575080871582 8.003870010375977 28.5 11.39402008056641 28.5 15 C 28.5 18.60597991943359 27.09575080871582 21.99612998962402 24.54594039916992 24.54594039916992 C 21.99612998962402 27.09575080871582 18.60597991943359 28.5 15 28.5 Z" stroke="none"/>
        <path d="M 15 3 C 11.79467964172363 3 8.781219482421875 4.248220443725586 6.514720916748047 6.514720916748047 C 4.248220443725586 8.781219482421875 3 11.79467964172363 3 15 C 3 18.20532035827637 4.248220443725586 21.21878051757812 6.514720916748047 23.48527908325195 C 8.781219482421875 25.75177955627441 11.79467964172363 27 15 27 C 18.20532035827637 27 21.21878051757812 25.75177955627441 23.48527908325195 23.48527908325195 C 25.75177955627441 21.21878051757812 27 18.20532035827637 27 15 C 27 11.79467964172363 25.75177955627441 8.781219482421875 23.48527908325195 6.514720916748047 C 21.21878051757812 4.248220443725586 18.20532035827637 3 15 3 M 15 0 C 23.28426933288574 0 30 6.715730667114258 30 15 C 30 23.28426933288574 23.28426933288574 30 15 30 C 6.715730667114258 30 0 23.28426933288574 0 15 C 0 6.715730667114258 6.715730667114258 0 15 0 Z" stroke="none" fill="#7125c8"/>
      </g>
      <g id="Trazado_704922" data-name="Trazado 704922" transform="translate(111.936 -0.18)" fill="#fff">
        <path d="M 51.5 27.5 L 1.5 27.5 L 1.5 1.5 L 51.5 1.5 L 51.5 27.5 Z" stroke="none"/>
        <path d="M 3 3 L 3 26 L 50 26 L 50 3 L 3 3 M 0 0 L 53 0 L 53 29 L 0 29 L 0 0 Z" stroke="none" fill="#7125c8"/>
      </g>
      <g id="Trazado_704923" data-name="Trazado 704923" transform="translate(225.83 118.828) rotate(-90)" fill="#fff">
        <path d="M 54.62891387939453 27.78469848632812 L 1.500005006790161 27.78469848632812 L 1.500005006790161 1.499998331069946 L 54.62891387939453 1.499998331069946 L 54.62891387939453 27.78469848632812 Z" stroke="none"/>
        <path d="M 2.999996185302734 2.999998092651367 L 2.999996185302734 26.28469848632812 L 53.12890625 26.28469848632812 L 53.12890625 2.999998092651367 L 2.999996185302734 2.999998092651367 M -3.814697265625e-06 -1.9073486328125e-06 L 56.12890625 -1.9073486328125e-06 L 56.12890625 29.28469848632812 L -3.814697265625e-06 29.28469848632812 L -3.814697265625e-06 -1.9073486328125e-06 Z" stroke="none" fill="#7125c8"/>
      </g>
      <g id="Trazado_704924" data-name="Trazado 704924" transform="translate(458.418 118.828) rotate(-90)" fill="#fff">
        <path d="M 54.62891387939453 27.78469848632812 L 1.500005006790161 27.78469848632812 L 1.500005006790161 1.499998331069946 L 54.62891387939453 1.499998331069946 L 54.62891387939453 27.78469848632812 Z" stroke="none"/>
        <path d="M 2.999996185302734 2.999998092651367 L 2.999996185302734 26.28469848632812 L 53.12890625 26.28469848632812 L 53.12890625 2.999998092651367 L 2.999996185302734 2.999998092651367 M -3.814697265625e-06 -1.9073486328125e-06 L 56.12890625 -1.9073486328125e-06 L 56.12890625 29.28469848632812 L -3.814697265625e-06 29.28469848632812 L -3.814697265625e-06 -1.9073486328125e-06 Z" stroke="none" fill="#7125c8"/>
      </g>
      <g id="Trazado_704925" data-name="Trazado 704925" transform="translate(111.936 147.82)" fill="#fff">
        <path d="M 51.5 27.5 L 1.5 27.5 L 1.5 1.5 L 51.5 1.5 L 51.5 27.5 Z" stroke="none"/>
        <path d="M 3 3 L 3 26 L 50 26 L 50 3 L 3 3 M 0 0 L 53 0 L 53 29 L 0 29 L 0 0 Z" stroke="none" fill="#7125c8"/>
      </g>
      <path id="Trazado_704879" data-name="Trazado 704879" d="M2875-2443.5h52.187" transform="translate(-2814.178 2458.706)" fill="none" stroke="#7125c8" stroke-width="3"/>
      <path id="Trazado_704880" data-name="Trazado 704880" d="M2875-2443.5h52.187" transform="translate(-2814.178 2605.692)" fill="none" stroke="#7125c8" stroke-width="3"/>
      <path id="Trazado_704881" data-name="Trazado 704881" d="M2967-2444h74.713v49.559" transform="translate(-2802.555 2458.643)" fill="none" stroke="#7125c8" stroke-width="3"/>
      <path id="Trazado_704886" data-name="Trazado 704886" d="M2967-2444h71.9v49.559" transform="translate(-2567.152 2458.643)" fill="none" stroke="#7125c8" stroke-width="3"/>
      <path id="Trazado_704882" data-name="Trazado 704882" d="M2967-2307.51h76.215V-2352" transform="translate(-2802.555 2470.265)" fill="none" stroke="#7125c8" stroke-width="3"/>
      <path id="Trazado_704884" data-name="Trazado 704884" d="M2967-2307.51h73.4V-2352" transform="translate(-2567.152 2470.265)" fill="none" stroke="#7125c8" stroke-width="3"/>
      <path id="Trazado_704926" data-name="Trazado 704926" d="M7.9-2.49H3.536L2.706,0H.058l4.5-12.086H6.865L11.389,0H8.741ZM4.208-4.507H7.23L5.711-9.031Z" transform="translate(-0.064 20.82)" fill="#12263f"/>
      <path id="Trazado_704927" data-name="Trazado 704927" d="M7.9-2.49H3.536L2.706,0H.058l4.5-12.086H6.865L11.389,0H8.741ZM4.208-4.507H7.23L5.711-9.031Z" transform="translate(338.936 20.82)" fill="#12263f"/>
      <path id="Trazado_704928" data-name="Trazado 704928" d="M5.553-4.424H3.569V0H1.079V-12.086H5.57a5.076,5.076,0,0,1,3.3.955,3.3,3.3,0,0,1,1.162,2.7A3.718,3.718,0,0,1,9.5-6.371,3.651,3.651,0,0,1,7.877-5.055L10.492-.116V0H7.819ZM3.569-6.441H5.578a2.057,2.057,0,0,0,1.453-.477,1.706,1.706,0,0,0,.515-1.316A1.826,1.826,0,0,0,7.06-9.579a2.018,2.018,0,0,0-1.49-.49h-2ZM14.727,6h-1.4V.606l-1.67.518V-.014l2.92-1.046h.15Z" transform="translate(126.936 46.82)" fill="#12263f"/>
      <path id="Trazado_704929" data-name="Trazado 704929" d="M5.553-4.424H3.569V0H1.079V-12.086H5.57a5.076,5.076,0,0,1,3.3.955,3.3,3.3,0,0,1,1.162,2.7A3.718,3.718,0,0,1,9.5-6.371,3.651,3.651,0,0,1,7.877-5.055L10.492-.116V0H7.819ZM3.569-6.441H5.578a2.057,2.057,0,0,0,1.453-.477,1.706,1.706,0,0,0,.515-1.316A1.826,1.826,0,0,0,7.06-9.579a2.018,2.018,0,0,0-1.49-.49h-2ZM16.161,6H11.328V5.041l2.281-2.431a5.626,5.626,0,0,0,.695-.9,1.439,1.439,0,0,0,.225-.726A1.077,1.077,0,0,0,14.292.25a.856.856,0,0,0-.678-.269.924.924,0,0,0-.748.327,1.3,1.3,0,0,0-.274.859h-1.4A2.311,2.311,0,0,1,11.5-.009a2.167,2.167,0,0,1,.869-.835,2.642,2.642,0,0,1,1.273-.3,2.5,2.5,0,0,1,1.692.523,1.85,1.85,0,0,1,.6,1.477,2.37,2.37,0,0,1-.271,1.065,5.92,5.92,0,0,1-.93,1.264l-1.6,1.69h3.031Z" transform="translate(202.936 94.82)" fill="#12263f"/>
      <path id="Trazado_704930" data-name="Trazado 704930" d="M5.553-4.424H3.569V0H1.079V-12.086H5.57a5.076,5.076,0,0,1,3.3.955,3.3,3.3,0,0,1,1.162,2.7A3.718,3.718,0,0,1,9.5-6.371,3.651,3.651,0,0,1,7.877-5.055L10.492-.116V0H7.819ZM3.569-6.441H5.578a2.057,2.057,0,0,0,1.453-.477,1.706,1.706,0,0,0,.515-1.316A1.826,1.826,0,0,0,7.06-9.579a2.018,2.018,0,0,0-1.49-.49h-2ZM15.9.166a4.409,4.409,0,0,1-3.217-1.212,4.308,4.308,0,0,1-1.241-3.229v-.232a5.426,5.426,0,0,1,.523-2.42,3.838,3.838,0,0,1,1.482-1.644,4.159,4.159,0,0,1,2.187-.577,3.727,3.727,0,0,1,2.9,1.162A4.722,4.722,0,0,1,19.6-4.69v.979H13.879a2.229,2.229,0,0,0,.7,1.411,2.12,2.12,0,0,0,1.482.531,2.589,2.589,0,0,0,2.167-1l1.179,1.32A3.6,3.6,0,0,1,17.946-.261,4.793,4.793,0,0,1,15.9.166ZM15.63-7.213a1.5,1.5,0,0,0-1.158.484A2.5,2.5,0,0,0,13.9-5.346h3.337v-.192a1.786,1.786,0,0,0-.432-1.238A1.547,1.547,0,0,0,15.63-7.213Zm4.956,2.64a5.369,5.369,0,0,1,.942-3.345,3.08,3.08,0,0,1,2.586-1.229,2.758,2.758,0,0,1,2.3,1.1l.158-.938h2.108V3.453H26.272V-.772A2.765,2.765,0,0,1,24.1.166a3.057,3.057,0,0,1-2.557-1.245A5.632,5.632,0,0,1,20.586-4.574Zm2.4.17a3.522,3.522,0,0,0,.452,1.962,1.448,1.448,0,0,0,1.274.673,1.613,1.613,0,0,0,1.561-.881V-6.365a1.6,1.6,0,0,0-1.544-.848,1.466,1.466,0,0,0-1.287.673A3.889,3.889,0,0,0,22.985-4.4Z" transform="translate(492.771 94.843)" fill="#12263f"/>
      <path id="Trazado_704931" data-name="Trazado 704931" d="M5.553-4.424H3.569V0H1.079V-12.086H5.57a5.076,5.076,0,0,1,3.3.955,3.3,3.3,0,0,1,1.162,2.7A3.718,3.718,0,0,1,9.5-6.371,3.651,3.651,0,0,1,7.877-5.055L10.492-.116V0H7.819ZM3.569-6.441H5.578a2.057,2.057,0,0,0,1.453-.477,1.706,1.706,0,0,0,.515-1.316A1.826,1.826,0,0,0,7.06-9.579a2.018,2.018,0,0,0-1.49-.49h-2Zm9.183,8.3H13.5a1.051,1.051,0,0,0,.789-.266.976.976,0,0,0,.257-.707.863.863,0,0,0-.254-.663.985.985,0,0,0-.7-.237,1.033,1.033,0,0,0-.673.22.7.7,0,0,0-.271.574h-1.4a1.721,1.721,0,0,1,.3-.99A1.984,1.984,0,0,1,12.377-.9a2.779,2.779,0,0,1,1.179-.247,2.636,2.636,0,0,1,1.753.535A1.825,1.825,0,0,1,15.943.863a1.483,1.483,0,0,1-.3.891,1.919,1.919,0,0,1-.775.625,1.752,1.752,0,0,1,.888.639,1.734,1.734,0,0,1,.293,1.007,1.856,1.856,0,0,1-.685,1.506,2.755,2.755,0,0,1-1.813.566A2.612,2.612,0,0,1,11.83,5.54a1.818,1.818,0,0,1-.671-1.472h1.4a.811.811,0,0,0,.3.649A1.242,1.242,0,0,0,14.372,4.7a.911.911,0,0,0,.283-.7q0-1.056-1.162-1.056h-.741Z" transform="translate(129.936 137.82)" fill="#12263f"/>
      <path id="Trazado_704932" data-name="Trazado 704932" d="M1.079,0V-12.086H5.313a5.559,5.559,0,0,1,3.337.843A2.881,2.881,0,0,1,9.787-8.774,2.731,2.731,0,0,1,9.33-7.209a2.637,2.637,0,0,1-1.27.992,2.551,2.551,0,0,1,1.465.938,2.773,2.773,0,0,1,.535,1.727A3.19,3.19,0,0,1,8.948-.913,5.007,5.007,0,0,1,5.777,0Zm2.49-5.263V-2H5.7A2.059,2.059,0,0,0,7.076-2.42,1.437,1.437,0,0,0,7.57-3.578,1.518,1.518,0,0,0,5.852-5.263Zm0-1.76H5.412Q7.3-7.056,7.3-8.525a1.388,1.388,0,0,0-.477-1.183,2.51,2.51,0,0,0-1.507-.361H3.569Z" transform="translate(-0.064 167.82)" fill="#12263f"/>
      <path id="Trazado_704933" data-name="Trazado 704933" d="M1.079,0V-12.086H5.313a5.559,5.559,0,0,1,3.337.843A2.881,2.881,0,0,1,9.787-8.774,2.731,2.731,0,0,1,9.33-7.209a2.637,2.637,0,0,1-1.27.992,2.551,2.551,0,0,1,1.465.938,2.773,2.773,0,0,1,.535,1.727A3.19,3.19,0,0,1,8.948-.913,5.007,5.007,0,0,1,5.777,0Zm2.49-5.263V-2H5.7A2.059,2.059,0,0,0,7.076-2.42,1.437,1.437,0,0,0,7.57-3.578,1.518,1.518,0,0,0,5.852-5.263Zm0-1.76H5.412Q7.3-7.056,7.3-8.525a1.388,1.388,0,0,0-.477-1.183,2.51,2.51,0,0,0-1.507-.361H3.569Z" transform="translate(338.936 167.82)" fill="#12263f"/>
      <path id="Trazado_704934" data-name="Trazado 704934" d="M0,0H37.169" transform="translate(296.789 84.475)" fill="none" stroke="#707070" stroke-width="2"/>
      <path id="Trazado_704935" data-name="Trazado 704935" d="M0,0H37.169" transform="translate(296.789 99.117)" fill="none" stroke="#707070" stroke-width="2"/>
      <path id="Trazado_704883" data-name="Trazado 704883" d="M3110.667-2387l12.39,12.906s-9.292,9.507-12.39,11.873" transform="translate(-2781.777 2465.844)" fill="none" stroke="#707070" stroke-width="2"/>
    </g>
  </g>
</svg>
