<svg xmlns="http://www.w3.org/2000/svg" width="112.493" height="129.945" viewBox="0 0 112.493 129.945">
  <g id="Grupo_66392" data-name="Grupo 66392" transform="translate(-395.331 -216.372)">
    <g id="Grupo_66346" data-name="Grupo 66346" transform="translate(450.645 246.263)">
      <g id="Grupo_66344" data-name="Grupo 66344">
        <path id="Trazado_115715" data-name="Trazado 115715" d="M461.4,237.338a5.351,5.351,0,0,0-6.284-1.193c-3.732,2-8.5,9.206-14.35,9.017-5.864-.2-7.7-3.693-9.252-5.867s-1.13-3.776-2.176-4.941-2.37.121-.735,4.211c.779,1.96,3.488,12.085,10.412,13.6C448.092,254.163,465.413,242.592,461.4,237.338Z" transform="translate(-427.838 -233.938)" fill="#fbc6b4"/>
      </g>
      <g id="Grupo_66345" data-name="Grupo 66345" transform="translate(17.082 0.199)">
        <path id="Trazado_115716" data-name="Trazado 115716" d="M453.45,235.243s3.49,3.065-.919,8.387-7.067,7.028-7.067,7.028-4.177-1.737-7.587-7.953C437.877,242.7,449.155,230.231,453.45,235.243Z" transform="translate(-437.877 -234.055)" fill="#eda503"/>
      </g>
    </g>
    <g id="Grupo_66347" data-name="Grupo 66347" transform="translate(471.66 245.279)">
      <path id="Trazado_115717" data-name="Trazado 115717" d="M463.817,235.645l-.012-.02c-2.28-1.339-5.244-1.72-7.518-2.04-5-.694-13.228-.267-15.095,8.483a53.325,53.325,0,0,0-.786,11.459c.012.943.036,1.9.129,2.857.257,4.24-1.118,7.04.318,9.25,4.171,6.413,27.913,11.11,24.091,3.182-.073-.182-1.681-1.627,1.021-2.495-1.162-3.65-2.592-10.371,0-19.946C467.892,239.26,466.468,237.252,463.817,235.645Z" transform="translate(-440.188 -233.36)" fill="#ffb502"/>
    </g>
    <g id="Grupo_66348" data-name="Grupo 66348" transform="translate(469.9 245.197)">
      <path id="Trazado_115718" data-name="Trazado 115718" d="M460.805,241.716c-1.026,4.346-4.691,17.6,5.886,24.238,0,0-17.515,12.818-27.537,1.725,0,0,2.016-18.925,4.816-26.443.807-2.161,2.94-8.789,6.786-7.831,0,0-6.757,10.647-3.675,13.455s5.995.446,7.354-1.669c2.183-3.407,4.509-11.283,4.509-11.283l4.256.636A48.14,48.14,0,0,0,460.805,241.716Z" transform="translate(-439.154 -233.312)" fill="#1c2745"/>
    </g>
    <g id="Grupo_66352" data-name="Grupo 66352" transform="translate(478.098 229.465)">
      <g id="Grupo_66349" data-name="Grupo 66349" transform="translate(1.93 9.702)">
        <path id="Trazado_115719" data-name="Trazado 115719" d="M453.26,229.768s-2.246,3.527.14,5.881c2.457,2.4-8.821,6.657-8.275,4.485.7-2.791,2.367-4.286,1.4-7.727Z" transform="translate(-445.106 -229.768)" fill="#f7b2a0"/>
      </g>
      <g id="Grupo_66350" data-name="Grupo 66350" transform="translate(0 0.954)">
        <path id="Trazado_115720" data-name="Trazado 115720" d="M448.987,225.473c-2.714,1.965-6.589,11.634-4.343,14.161,1,1.106,5.677.6,9.114-3.425,1.417-1.647,3.315-4.848,1.926-8.484C455.05,226.075,452.133,223.189,448.987,225.473Z" transform="translate(-443.972 -224.627)" fill="#fbc6b4"/>
      </g>
      <g id="Grupo_66351" data-name="Grupo 66351" transform="translate(2.067)">
        <path id="Trazado_115721" data-name="Trazado 115721" d="M445.518,226.754c-.694,1.191-.577,1.494,3.126,2.556s4.387.892,3.885,1.742c-1.467,2.508,1.292,2.333-.5,5.3s1.635,1.479,3.359-.929c.339-.487,2.258-2.82.922-6.977C454.761,223.593,448.087,222.407,445.518,226.754Z" transform="translate(-445.186 -224.067)" fill="#1d1b3a"/>
      </g>
    </g>
    <g id="Grupo_66353" data-name="Grupo 66353" transform="translate(477.052 230.332)">
      <path id="Trazado_115722" data-name="Trazado 115722" d="M454.312,232.9s-11.467-3.242-10.938-6.817c.33-2.2,6.988-1.339,6.988-1.339Z" transform="translate(-443.357 -224.576)" fill="#eda503"/>
    </g>
    <g id="Grupo_66354" data-name="Grupo 66354" transform="translate(480.455 228.103)">
      <path id="Trazado_115723" data-name="Trazado 115723" d="M445.4,227.316c.917,3.451,3.623,5.348,10.65,7.589,0,0,3.8-6.812-1.126-10.422C450.571,221.3,444.813,225.114,445.4,227.316Z" transform="translate(-445.357 -223.266)" fill="#ffb502"/>
    </g>
    <g id="Grupo_66357" data-name="Grupo 66357" transform="translate(468.879 246.423)">
      <g id="Grupo_66355" data-name="Grupo 66355" transform="translate(0 0.508)">
        <path id="Trazado_115724" data-name="Trazado 115724" d="M465.584,234.445a4.351,4.351,0,0,0-4.867,2.615c-1.821,3.609-1.611,11.848-6.282,14.9-4.69,3.053-8.042,1.329-10.444.475s-2.945-2.328-4.4-2.675-1.8,1.4,1.724,3.7c1.685,1.1,9.335,7.535,15.578,4.936C465.082,254.987,471.589,236.358,465.584,234.445Z" transform="translate(-438.554 -234.331)" fill="#fbc6b4"/>
      </g>
      <g id="Grupo_66356" data-name="Grupo 66356" transform="translate(18.049)">
        <path id="Trazado_115725" data-name="Trazado 115725" d="M457.252,234.141s4.409.485,3.866,7.063-1.676,9.355-1.676,9.355-4.213.926-10.281-2.066C449.161,248.494,451.155,232.575,457.252,234.141Z" transform="translate(-449.161 -234.032)" fill="#eda503"/>
      </g>
    </g>
    <g id="Grupo_66362" data-name="Grupo 66362" transform="translate(467.107 273.345)">
      <g id="Grupo_66358" data-name="Grupo 66358" transform="translate(0 19.884)">
        <path id="Trazado_115726" data-name="Trazado 115726" d="M437.539,266.175c.978,12.505,6.083,31.961,6.8,42.486.053.728.177.864-2.767,1.491-3.4.7-.786,2.178,4.536,2.135,5-.036,7.225-19.742,7.71-30.164.146-2.934-1.111-11.8.6-20.147.2,3.124.5,6.684.929,10.579,1.274,11.4,16.271,26.36,17.4,35.952.082.742-.029,1.026-2.661,1.77s-.077,2.117,4.484,2.011,1.78-19.973-.6-29.271C471.906,274.883,436.409,251.742,437.539,266.175Z" transform="translate(-437.512 -261.54)" fill="#fbc6b4"/>
      </g>
      <g id="Grupo_66359" data-name="Grupo 66359" transform="translate(2.387 68.263)">
        <path id="Trazado_115727" data-name="Trazado 115727" d="M447.928,289.971s-3.968,1.572-6.422,0c0,0-4.472.6-1.666,1.691C442.665,292.753,448.095,293.653,447.928,289.971Z" transform="translate(-438.915 -289.971)" fill="#ffb502"/>
      </g>
      <g id="Grupo_66360" data-name="Grupo 66360" transform="translate(29.989 68.621)">
        <path id="Trazado_115728" data-name="Trazado 115728" d="M464.146,290.181s-3.972,1.569-6.424,0c0,0-4.474.609-1.652,1.693S464.311,293.868,464.146,290.181Z" transform="translate(-455.136 -290.181)" fill="#ffb502"/>
      </g>
      <g id="Grupo_66361" data-name="Grupo 66361" transform="translate(0.121)">
        <path id="Trazado_115729" data-name="Trazado 115729" d="M441.02,249.854c9.1,6.071,21.82,5.447,26.773,4.494,1.337,10.819,9.469,51.423,10.387,56.994-3.992,1.327-5.323,1.6-6.475,1.6-19.284-24.871-17.07-35.536-17.275-38.661-.727,3.612,1.654,21.3-2.508,38.661-1.4.9-5.624,2.069-8.648,0-.153-1.113-5.809-21.044-5.689-36.646C437.671,265.665,439.451,258.367,441.02,249.854Z" transform="translate(-437.584 -249.854)" fill="#1c2745"/>
      </g>
    </g>
    <g id="Grupo_66364" data-name="Grupo 66364" transform="translate(490.641 279.505)">
      <g id="Grupo_66363" data-name="Grupo 66363">
        <path id="Trazado_115730" data-name="Trazado 115730" d="M457.5,260.975a8.991,8.991,0,0,1-6.162-7.444l.75-.056a8.073,8.073,0,0,0,5.641,6.784Z" transform="translate(-451.343 -253.474)" fill="#fff"/>
      </g>
    </g>
    <g id="Grupo_66366" data-name="Grupo 66366" transform="translate(470.096 278.106)">
      <g id="Grupo_66365" data-name="Grupo 66365">
        <path id="Trazado_115731" data-name="Trazado 115731" d="M439.5,260.154l-.23-.715a8.187,8.187,0,0,0,5.643-6.788l.75.061A8.979,8.979,0,0,1,439.5,260.154Z" transform="translate(-439.269 -252.652)" fill="#fff"/>
      </g>
    </g>
    <g id="Grupo_66391" data-name="Grupo 66391" transform="translate(395.331 216.372)">
      <g id="Grupo_66367" data-name="Grupo 66367" transform="translate(6.289)">
        <rect id="Rectángulo_32400" data-name="Rectángulo 32400" width="39.807" height="6.403" fill="#64b4d7"/>
      </g>
      <g id="Grupo_66368" data-name="Grupo 66368" transform="translate(6.289)">
        <rect id="Rectángulo_32401" data-name="Rectángulo 32401" width="8.196" height="6.403" fill="#4ca1bf"/>
      </g>
      <g id="Grupo_66369" data-name="Grupo 66369" transform="translate(0 3.217)">
        <path id="Trazado_115732" data-name="Trazado 115732" d="M447.134,224.634h-51.8l1.753-6.371h48.293Z" transform="translate(-395.331 -218.263)" fill="#4ca1bf"/>
      </g>
      <g id="Grupo_66370" data-name="Grupo 66370" transform="translate(48.439 17.405)">
        <rect id="Rectángulo_32402" data-name="Rectángulo 32402" width="6.876" height="8.189" fill="#64b4d7"/>
      </g>
      <g id="Grupo_66371" data-name="Grupo 66371" transform="translate(48.439 39.738)">
        <rect id="Rectángulo_32403" data-name="Rectángulo 32403" width="6.876" height="8.187" fill="#64b4d7"/>
      </g>
      <g id="Grupo_66372" data-name="Grupo 66372" transform="translate(22.39 42.289)">
        <rect id="Rectángulo_32404" data-name="Rectángulo 32404" width="7.461" height="83.852" fill="#848fb7"/>
      </g>
      <g id="Grupo_66373" data-name="Grupo 66373" transform="translate(22.39 42.289)">
        <rect id="Rectángulo_32405" data-name="Rectángulo 32405" width="2.257" height="83.852" fill="#717ea5"/>
      </g>
      <g id="Grupo_66374" data-name="Grupo 66374" transform="translate(13.608 9.588)">
        <rect id="Rectángulo_32406" data-name="Rectángulo 32406" width="38.195" height="45.284" fill="#c1e4fa"/>
      </g>
      <g id="Grupo_66375" data-name="Grupo 66375" transform="translate(0 9.588)">
        <rect id="Rectángulo_32407" data-name="Rectángulo 32407" width="17.051" height="45.284" fill="#64b4d7"/>
      </g>
      <g id="Grupo_66376" data-name="Grupo 66376" transform="translate(18.762 61.572)">
        <rect id="Rectángulo_32408" data-name="Rectángulo 32408" width="22.864" height="27.106" fill="#c1e4fa"/>
      </g>
      <g id="Grupo_66377" data-name="Grupo 66377" transform="translate(10.615 61.572)">
        <rect id="Rectángulo_32409" data-name="Rectángulo 32409" width="10.205" height="27.106" fill="#64b4d7"/>
      </g>
      <g id="Grupo_66378" data-name="Grupo 66378" transform="translate(53.267 9.588)">
        <rect id="Rectángulo_32410" data-name="Rectángulo 32410" width="20.816" height="45.284" fill="#c1e4fa"/>
      </g>
      <g id="Grupo_66379" data-name="Grupo 66379" transform="translate(0 3.217)">
        <path id="Trazado_115733" data-name="Trazado 115733" d="M412.382,224.634l-1.319-6.371H397.084l-1.753,6.371Z" transform="translate(-395.331 -218.263)" fill="#3c93aa"/>
      </g>
      <g id="Grupo_66380" data-name="Grupo 66380" transform="translate(13.608 123.214)">
        <path id="Trazado_115734" data-name="Trazado 115734" d="M428.791,295.514H403.328v-4.977l8.782-1.755h7.461l9.219,1.755Z" transform="translate(-403.328 -288.782)" fill="#848fb7"/>
      </g>
      <g id="Grupo_66384" data-name="Grupo 66384" transform="translate(26.852 21.509)">
        <g id="Grupo_66381" data-name="Grupo 66381">
          <path id="Trazado_115735" data-name="Trazado 115735" d="M422.818,240.716H411.111l5.854-11.7Z" transform="translate(-411.111 -229.013)" fill="#6d76a1"/>
        </g>
        <g id="Grupo_66382" data-name="Grupo 66382" transform="translate(1.135 1.718)">
          <path id="Trazado_115736" data-name="Trazado 115736" d="M411.778,239.218l4.719-9.2,4.719,9.2Z" transform="translate(-411.778 -230.022)" fill="#ffcf03"/>
        </g>
        <g id="Grupo_66383" data-name="Grupo 66383" transform="translate(4.804 3.785)">
          <path id="Trazado_115737" data-name="Trazado 115737" d="M414.024,237.6l-.09-4.153,1.07,1.447.287-3.657.023,4.762-.867-1.2Z" transform="translate(-413.935 -231.237)" fill="#6d76a1"/>
        </g>
      </g>
      <g id="Grupo_66385" data-name="Grupo 66385" transform="translate(2.488 15.215)">
        <rect id="Rectángulo_32411" data-name="Rectángulo 32411" width="11.998" height="7.172" fill="#848fb7"/>
      </g>
      <g id="Grupo_66386" data-name="Grupo 66386" transform="translate(3.968 16.13)">
        <rect id="Rectángulo_32412" data-name="Rectángulo 32412" width="9.038" height="0.877" fill="#464f72"/>
      </g>
      <g id="Grupo_66387" data-name="Grupo 66387" transform="translate(3.968 17.666)">
        <rect id="Rectángulo_32413" data-name="Rectángulo 32413" width="9.038" height="0.881" fill="#464f72"/>
      </g>
      <g id="Grupo_66388" data-name="Grupo 66388" transform="translate(3.968 19.238)">
        <rect id="Rectángulo_32414" data-name="Rectángulo 32414" width="9.038" height="0.882" fill="#464f72"/>
      </g>
      <g id="Grupo_66389" data-name="Grupo 66389" transform="translate(3.968 20.776)">
        <rect id="Rectángulo_32415" data-name="Rectángulo 32415" width="9.038" height="0.879" fill="#464f72"/>
      </g>
      <g id="Grupo_66390" data-name="Grupo 66390" transform="translate(13.608 123.214)">
        <path id="Trazado_115738" data-name="Trazado 115738" d="M403.328,290.537v4.977h11.039v-6.732H412.11Z" transform="translate(-403.328 -288.782)" fill="#717ea5"/>
      </g>
    </g>
  </g>
</svg>
