<svg xmlns="http://www.w3.org/2000/svg" xmlns:xlink="http://www.w3.org/1999/xlink" width="249.947" height="162.186" viewBox="0 0 249.947 162.186">
  <defs>
    <linearGradient id="linear-gradient" y1="0.5" x2="1" y2="0.5" gradientUnits="objectBoundingBox">
      <stop offset="0" stop-color="#dae3fe"/>
      <stop offset="1" stop-color="#e9effd"/>
    </linearGradient>
    <linearGradient id="linear-gradient-5" y1="0.5" x2="1" y2="0.5" gradientUnits="objectBoundingBox">
      <stop offset="0" stop-color="#09005d"/>
      <stop offset="1" stop-color="#1a0f91"/>
    </linearGradient>
    <linearGradient id="linear-gradient-23" x1="-4.651" y1="0.5" x2="-3.651" y2="0.5" xlink:href="#linear-gradient-5"/>
    <linearGradient id="linear-gradient-26" x1="-12.127" y1="0.5" x2="-11.127" y2="0.5" xlink:href="#linear-gradient-5"/>
    <linearGradient id="linear-gradient-27" x1="12.729" y1="-0.367" x2="9.885" y2="-0.163" xlink:href="#linear-gradient-5"/>
    <linearGradient id="linear-gradient-28" x1="0.666" y1="-8.942" x2="0.228" y2="15.947" xlink:href="#linear-gradient-5"/>
    <linearGradient id="linear-gradient-29" x1="-13.337" y1="-40.221" x2="-12.357" y2="-40.021" xlink:href="#linear-gradient-5"/>
    <linearGradient id="linear-gradient-30" x1="22.839" y1="-0.356" x2="14.434" y2="-0.032" xlink:href="#linear-gradient-5"/>
    <linearGradient id="linear-gradient-31" x1="0.671" y1="-8.919" x2="0.22" y2="15.909" xlink:href="#linear-gradient-5"/>
    <linearGradient id="linear-gradient-32" x1="-13.744" y1="-43.803" x2="-12.764" y2="-43.603" xlink:href="#linear-gradient-5"/>
    <linearGradient id="linear-gradient-33" x1="-0.871" y1="2.382" x2="2.369" y2="-2.056" gradientUnits="objectBoundingBox">
      <stop offset="0" stop-color="#4042e2"/>
      <stop offset="1" stop-color="#4f52ff"/>
    </linearGradient>
    <linearGradient id="linear-gradient-34" x1="-1.531" y1="3.304" x2="1.653" y2="-1.086" xlink:href="#linear-gradient-33"/>
    <linearGradient id="linear-gradient-35" x1="-2.181" y1="4.226" x2="0.947" y2="-0.116" xlink:href="#linear-gradient-33"/>
    <linearGradient id="linear-gradient-36" x1="-0.485" y1="1.862" x2="2.754" y2="-2.601" xlink:href="#linear-gradient-33"/>
    <linearGradient id="linear-gradient-37" x1="-1.149" y1="2.792" x2="2.033" y2="-1.623" xlink:href="#linear-gradient-33"/>
    <linearGradient id="linear-gradient-38" x1="-1.803" y1="3.723" x2="1.323" y2="-0.646" xlink:href="#linear-gradient-33"/>
    <linearGradient id="linear-gradient-39" x1="-0.098" y1="1.322" x2="3.139" y2="-3.128" xlink:href="#linear-gradient-33"/>
    <linearGradient id="linear-gradient-40" x1="-0.766" y1="2.252" x2="2.415" y2="-2.151" xlink:href="#linear-gradient-33"/>
    <linearGradient id="linear-gradient-41" x1="-1.4" y1="3.182" x2="1.694" y2="-1.174" xlink:href="#linear-gradient-33"/>
    <linearGradient id="linear-gradient-44" x1="-0.751" y1="1.906" x2="2.504" y2="-1.743" xlink:href="#linear-gradient-33"/>
    <linearGradient id="linear-gradient-45" x1="-1.47" y1="2.728" x2="1.728" y2="-0.882" xlink:href="#linear-gradient-33"/>
    <linearGradient id="linear-gradient-46" x1="-2.179" y1="3.549" x2="0.963" y2="-0.022" xlink:href="#linear-gradient-33"/>
    <linearGradient id="linear-gradient-47" x1="-0.372" y1="1.488" x2="2.881" y2="-2.182" xlink:href="#linear-gradient-33"/>
    <linearGradient id="linear-gradient-48" x1="-1.095" y1="2.316" x2="2.101" y2="-1.315" xlink:href="#linear-gradient-33"/>
    <linearGradient id="linear-gradient-49" x1="-1.808" y1="3.145" x2="1.332" y2="-0.447" xlink:href="#linear-gradient-33"/>
    <linearGradient id="linear-gradient-50" x1="0.008" y1="1.053" x2="3.26" y2="-2.606" xlink:href="#linear-gradient-33"/>
    <linearGradient id="linear-gradient-51" x1="-0.719" y1="1.881" x2="2.476" y2="-1.739" xlink:href="#linear-gradient-33"/>
    <linearGradient id="linear-gradient-52" x1="-1.411" y1="2.709" x2="1.695" y2="-0.872" xlink:href="#linear-gradient-33"/>
    <linearGradient id="linear-gradient-53" x1="-30.53" y1="-7.617" x2="-30.417" y2="-0.965" xlink:href="#linear-gradient-33"/>
    <linearGradient id="linear-gradient-54" x1="-125.458" y1="0.5" x2="-124.458" y2="0.5" gradientUnits="objectBoundingBox">
      <stop offset="0" stop-color="#ff928e"/>
      <stop offset="1" stop-color="#feb3b1"/>
    </linearGradient>
    <linearGradient id="linear-gradient-55" x1="-38.68" y1="0.5" x2="-37.68" y2="0.5" xlink:href="#linear-gradient-5"/>
    <linearGradient id="linear-gradient-56" x1="-82.431" y1="-9.024" x2="-82.151" y2="-1.235" xlink:href="#linear-gradient-33"/>
    <linearGradient id="linear-gradient-57" x1="-153.818" y1="0.5" x2="-152.818" y2="0.5" xlink:href="#linear-gradient-54"/>
    <linearGradient id="linear-gradient-58" x1="-27.872" y1="0.5" x2="-26.872" y2="0.5" xlink:href="#linear-gradient-5"/>
    <linearGradient id="linear-gradient-59" x1="-15.37" y1="4.168" x2="-15.82" y2="4.766" gradientUnits="objectBoundingBox">
      <stop offset="0" stop-color="#fe7062"/>
      <stop offset="1" stop-color="#ff928e"/>
    </linearGradient>
    <linearGradient id="linear-gradient-60" x1="-22.142" y1="0.5" x2="-21.142" y2="0.5" xlink:href="#linear-gradient-54"/>
    <linearGradient id="linear-gradient-61" x1="1.091" y1="-0.689" x2="0.917" y2="-0.352" xlink:href="#linear-gradient-54"/>
    <linearGradient id="linear-gradient-62" x1="1.665" y1="-0.953" x2="-0.737" y2="1.75" xlink:href="#linear-gradient-54"/>
    <linearGradient id="linear-gradient-63" x1="-41.515" y1="9.957" x2="-42.644" y2="11.485" xlink:href="#linear-gradient-59"/>
    <linearGradient id="linear-gradient-64" x1="-20.745" y1="0.5" x2="-19.745" y2="0.5" xlink:href="#linear-gradient-54"/>
    <linearGradient id="linear-gradient-65" x1="-90.253" y1="-3.497" x2="-90.826" y2="1.805" gradientUnits="objectBoundingBox">
      <stop offset="0" stop-color="#53d8ff"/>
      <stop offset="1" stop-color="#3840f7"/>
    </linearGradient>
    <linearGradient id="linear-gradient-66" x1="-47.225" y1="-1.235" x2="-47.368" y2="1.146" xlink:href="#linear-gradient-65"/>
    <linearGradient id="linear-gradient-67" x1="-62.855" y1="0.5" x2="-61.855" y2="0.5" xlink:href="#linear-gradient-54"/>
    <linearGradient id="linear-gradient-68" x1="0.303" y1="-0.616" x2="0.607" y2="1.138" xlink:href="#linear-gradient-54"/>
    <linearGradient id="linear-gradient-69" x1="-154.619" y1="-71.133" x2="-155.132" y2="-70.022" xlink:href="#linear-gradient-54"/>
    <linearGradient id="linear-gradient-70" x1="-120.797" y1="-50.106" x2="-120.591" y2="-48.923" xlink:href="#linear-gradient-5"/>
    <linearGradient id="linear-gradient-71" x1="-506.979" y1="-347.961" x2="-508.65" y2="-342.576" xlink:href="#linear-gradient-54"/>
    <linearGradient id="linear-gradient-72" x1="-21.388" y1="-3.005" x2="-20.686" y2="-4.289" xlink:href="#linear-gradient-59"/>
    <linearGradient id="linear-gradient-73" x1="0.51" y1="-0.414" x2="0.487" y2="2.614" xlink:href="#linear-gradient-59"/>
    <linearGradient id="linear-gradient-74" x1="-19.276" y1="-4.87" x2="-18.211" y2="-4.87" xlink:href="#linear-gradient-59"/>
    <linearGradient id="linear-gradient-75" x1="-8.368" y1="0.049" x2="-9.057" y2="0.806" xlink:href="#linear-gradient-54"/>
    <linearGradient id="linear-gradient-76" x1="-19.927" y1="2.034" x2="-6.137" y2="-1.575" xlink:href="#linear-gradient-33"/>
    <linearGradient id="linear-gradient-77" x1="175.127" y1="-20.965" x2="171.656" y2="-20.448" xlink:href="#linear-gradient-5"/>
    <linearGradient id="linear-gradient-78" x1="151.506" y1="8.078" x2="152.669" y2="7.91" xlink:href="#linear-gradient-33"/>
    <linearGradient id="linear-gradient-79" x1="0.2" y1="-0.426" x2="0.666" y2="1.331" xlink:href="#linear-gradient-54"/>
    <linearGradient id="linear-gradient-80" x1="-208.708" y1="-119.907" x2="-209.527" y2="-118.913" xlink:href="#linear-gradient-54"/>
    <linearGradient id="linear-gradient-81" x1="-437.54" y1="81.056" x2="-439.428" y2="82.953" xlink:href="#linear-gradient-5"/>
    <linearGradient id="linear-gradient-82" x1="-589.919" y1="-449.117" x2="-592.23" y2="-445.404" xlink:href="#linear-gradient-54"/>
    <linearGradient id="linear-gradient-83" x1="131.986" y1="1.673" x2="133.387" y2="0.537" xlink:href="#linear-gradient-54"/>
    <linearGradient id="linear-gradient-84" x1="343.703" y1="-27.344" x2="342.932" y2="-26.379" xlink:href="#linear-gradient-5"/>
    <linearGradient id="linear-gradient-85" x1="3.681" y1="0.033" x2="2.308" y2="0.221" xlink:href="#linear-gradient-54"/>
    <linearGradient id="linear-gradient-86" x1="269.155" y1="2.191" x2="270.147" y2="2.191" xlink:href="#linear-gradient-5"/>
    <linearGradient id="linear-gradient-87" x1="116.423" y1="1.821" x2="116.899" y2="0.871" xlink:href="#linear-gradient-5"/>
    <linearGradient id="linear-gradient-88" x1="198.338" y1="59.536" x2="199.025" y2="58.113" xlink:href="#linear-gradient-59"/>
    <linearGradient id="linear-gradient-89" x1="214.9" y1="88.288" x2="215.933" y2="89.715" xlink:href="#linear-gradient-59"/>
    <linearGradient id="linear-gradient-90" x1="0.81" y1="-2.799" x2="0.674" y2="-1.19" xlink:href="#linear-gradient-54"/>
    <linearGradient id="linear-gradient-91" x1="0.571" y1="0.312" x2="0.199" y2="1.715" xlink:href="#linear-gradient-59"/>
    <linearGradient id="linear-gradient-92" x1="-22.393" y1="2.128" x2="-7.958" y2="-1.018" xlink:href="#linear-gradient-33"/>
    <linearGradient id="linear-gradient-93" x1="-0.115" y1="1.085" x2="0.811" y2="0.362" xlink:href="#linear-gradient-54"/>
    <linearGradient id="linear-gradient-94" x1="0.207" y1="-1.207" x2="0.413" y2="-0.155" xlink:href="#linear-gradient-54"/>
  </defs>
  <g id="Grupo_66342" data-name="Grupo 66342" transform="translate(-398.062 -194.511)">
    <g id="Grupo_66263" data-name="Grupo 66263" transform="translate(427.376 222.332)">
      <g id="Grupo_66260" data-name="Grupo 66260" transform="translate(0 11.721)">
        <g id="Grupo_66257" data-name="Grupo 66257">
          <path id="Trazado_115524" data-name="Trazado 115524" d="M640.386,813.067a.279.279,0,0,1-.267-.2q-.135-.47-.256-.946a.278.278,0,1,1,.539-.137q.118.467.252.928a.278.278,0,0,1-.268.355Z" transform="translate(-638.962 -774.027)" fill="#bdd0fb"/>
          <path id="Trazado_115525" data-name="Trazado 115525" d="M633.28,546.134a.278.278,0,0,1-.275-.238c-.1-.713-.186-1.441-.239-2.163a.278.278,0,0,1,.555-.041c.053.709.132,1.424.235,2.124a.278.278,0,0,1-.235.316A.275.275,0,0,1,633.28,546.134Zm-.293-5.647h-.012a.278.278,0,0,1-.266-.289q.021-.5.058-1c.029-.39.065-.785.109-1.173a.278.278,0,1,1,.553.062c-.043.381-.079.769-.107,1.152q-.037.491-.057.978A.278.278,0,0,1,632.987,540.487Zm.757-5.6a.277.277,0,0,1-.271-.341c.163-.7.354-1.411.567-2.1a.278.278,0,0,1,.532.164c-.209.677-.4,1.371-.556,2.062A.279.279,0,0,1,633.744,534.884Zm1.79-5.364a.278.278,0,0,1-.254-.391c.292-.66.613-1.319.953-1.959a.278.278,0,1,1,.491.261c-.334.628-.649,1.275-.935,1.923A.278.278,0,0,1,635.534,529.52Zm2.768-4.933a.278.278,0,0,1-.229-.437c.411-.594.85-1.181,1.3-1.745a.278.278,0,0,1,.434.349c-.445.553-.875,1.129-1.279,1.713A.278.278,0,0,1,638.3,524.587Zm3.641-4.327a.278.278,0,0,1-.2-.476c.516-.508,1.055-1,1.6-1.471a.278.278,0,1,1,.361.423c-.539.459-1.068.945-1.575,1.444A.277.277,0,0,1,641.943,520.26Zm4.38-3.574a.278.278,0,0,1-.155-.509c.6-.4,1.224-.789,1.849-1.147a.278.278,0,1,1,.276.483c-.614.351-1.224.73-1.815,1.126A.276.276,0,0,1,646.323,516.686Zm29.077-2.48a.275.275,0,0,1-.113-.024c-.648-.29-1.314-.559-1.981-.8a.278.278,0,1,1,.19-.523c.679.247,1.358.521,2.018.816a.278.278,0,0,1-.114.532Zm-24.11-.216a.278.278,0,0,1-.109-.534c.665-.284,1.348-.547,2.03-.781a.278.278,0,1,1,.181.526c-.669.23-1.339.488-1.992.767A.276.276,0,0,1,651.29,513.99Zm18.753-1.595a.288.288,0,0,1-.064-.007c-.692-.163-1.4-.3-2.1-.415a.278.278,0,1,1,.089-.549c.713.115,1.431.257,2.136.423a.278.278,0,0,1-.063.549Zm-13.37-.123a.278.278,0,0,1-.059-.55c.705-.153,1.426-.283,2.142-.386a.278.278,0,0,1,.079.551c-.7.1-1.41.228-2.1.379A.276.276,0,0,1,656.674,512.272Zm7.768-.654h-.013c-.711-.032-1.43-.039-2.137-.021a.275.275,0,0,1-.285-.271.278.278,0,0,1,.271-.285c.72-.018,1.453-.011,2.176.021a.278.278,0,0,1-.012.556Z" transform="translate(-632.709 -511.031)" fill="#bdd0fb"/>
          <path id="Trazado_115526" data-name="Trazado 115526" d="M1006.854,551.451a.276.276,0,0,1-.16-.05q-.393-.276-.8-.54a.278.278,0,1,1,.305-.465q.41.269.81.55a.278.278,0,0,1-.16.506Z" transform="translate(-959.167 -545.438)" fill="#bdd0fb"/>
        </g>
        <g id="Grupo_66258" data-name="Grupo 66258" transform="translate(11.683 24.261)">
          <path id="Trazado_115527" data-name="Trazado 115527" d="M1110.8,706.743a.278.278,0,0,1-.274-.233q-.078-.475-.172-.946a.278.278,0,1,1,.546-.108q.095.48.175.964a.278.278,0,0,1-.229.32A.263.263,0,0,1,1110.8,706.743Z" transform="translate(-1062.362 -705.231)" fill="#bdd0fb"/>
          <path id="Trazado_115528" data-name="Trazado 115528" d="M759.771,770.981c-.376,0-.757-.007-1.139-.02a.278.278,0,0,1-.268-.288.281.281,0,0,1,.288-.268c.375.013.751.016,1.119.02s.758-.007,1.139-.022a.278.278,0,1,1,.021.556C760.543,770.973,760.153,770.981,759.771,770.981Zm-4.812-.378a.262.262,0,0,1-.044,0c-.754-.12-1.513-.27-2.256-.446a.278.278,0,1,1,.129-.541c.729.173,1.474.32,2.215.438a.278.278,0,0,1-.043.553Zm9.643-.015a.278.278,0,0,1-.044-.553c.74-.121,1.484-.272,2.211-.448a.278.278,0,0,1,.131.541c-.741.18-1.5.333-2.253.457A.291.291,0,0,1,764.6,770.588Zm-15.419-1.5a.278.278,0,0,1-.1-.018c-.715-.267-1.429-.564-2.123-.884a.278.278,0,0,1,.233-.505c.681.315,1.382.607,2.084.869a.278.278,0,0,1-.1.539Zm21.186-.042a.278.278,0,0,1-.1-.539c.7-.265,1.4-.56,2.078-.877a.278.278,0,0,1,.236.5c-.691.323-1.4.624-2.116.894A.278.278,0,0,1,770.368,769.043Zm-26.547-2.591a.279.279,0,0,1-.147-.042q-.211-.131-.42-.266a.278.278,0,0,1,.3-.467q.2.132.412.261a.278.278,0,0,1-.147.515Zm31.891-.064a.278.278,0,0,1-.148-.514c.635-.4,1.263-.826,1.865-1.27a.278.278,0,0,1,.33.448c-.614.453-1.253.888-1.9,1.294A.275.275,0,0,1,775.713,766.388Zm4.72-3.656a.278.278,0,0,1-.191-.48c.545-.516,1.077-1.058,1.58-1.612a.278.278,0,1,1,.412.374c-.512.564-1.054,1.116-1.609,1.642A.277.277,0,0,1,780.432,762.732Zm3.912-4.512a.278.278,0,0,1-.227-.439c.433-.613.848-1.25,1.232-1.892a.278.278,0,1,1,.477.286c-.392.654-.814,1.3-1.255,1.927A.278.278,0,0,1,784.345,758.22Zm2.946-5.2a.278.278,0,0,1-.254-.391c.3-.685.583-1.391.833-2.1a.278.278,0,0,1,.525.185c-.254.72-.54,1.439-.848,2.137A.278.278,0,0,1,787.291,753.023Zm1.855-5.674a.287.287,0,0,1-.06-.006.278.278,0,0,1-.212-.331c.16-.731.3-1.478.4-2.22a.278.278,0,1,1,.551.078c-.107.756-.245,1.517-.408,2.262A.278.278,0,0,1,789.146,747.349Zm.7-5.929h-.006a.278.278,0,0,1-.273-.284q.006-.3.006-.6c0-.55-.015-1.108-.046-1.658a.278.278,0,0,1,.262-.293.275.275,0,0,1,.293.262c.031.56.047,1.129.047,1.689q0,.3-.006.61A.278.278,0,0,1,789.847,741.419Z" transform="translate(-741.016 -734.418)" fill="#bdd0fb"/>
          <path id="Trazado_115529" data-name="Trazado 115529" d="M727.28,944.266a.276.276,0,0,1-.163-.053q-.4-.287-.784-.587a.278.278,0,0,1,.341-.44q.38.295.77.577a.278.278,0,0,1-.163.5Z" transform="translate(-726.225 -913.408)" fill="#bdd0fb"/>
        </g>
        <g id="Grupo_66259" data-name="Grupo 66259" transform="translate(7.074 6.841)">
          <path id="Trazado_115530" data-name="Trazado 115530" d="M696.3,605.747a.362.362,0,0,0,.4.113l4.138-1.5a19.173,19.173,0,0,0,5.456,2.971l.987,4.287a.361.361,0,0,0,.314.278l5.25.557a.362.362,0,0,0,.366-.206l1.865-3.984a19.17,19.17,0,0,0,5.958-1.761l3.732,2.335a.362.362,0,0,0,.419-.025l4.106-3.319a.362.362,0,0,0,.113-.4l-1.5-4.138a19.174,19.174,0,0,0,2.971-5.456l4.287-.987a.362.362,0,0,0,.278-.314l.557-5.25a.362.362,0,0,0-.206-.366l-3.984-1.865a19.175,19.175,0,0,0-1.761-5.958l2.334-3.732a.362.362,0,0,0-.025-.419l-3.319-4.106a.362.362,0,0,0-.4-.113l-4.138,1.5a19.174,19.174,0,0,0-5.456-2.971l-.987-4.287a.362.362,0,0,0-.314-.278l-5.25-.557a.361.361,0,0,0-.366.206l-1.865,3.984a19.169,19.169,0,0,0-5.958,1.761l-3.732-2.335a.362.362,0,0,0-.419.025l-4.106,3.319a.362.362,0,0,0-.113.4l1.5,4.138a19.174,19.174,0,0,0-2.971,5.456l-4.287.987a.362.362,0,0,0-.278.314l-.557,5.25a.362.362,0,0,0,.206.366l3.984,1.865a19.179,19.179,0,0,0,1.761,5.958l-2.335,3.732a.362.362,0,0,0,.025.419Z" transform="translate(-689.333 -565.789)" fill="#bdd0fb"/>
          <path id="Trazado_115531" data-name="Trazado 115531" d="M841.311,722.736a4.968,4.968,0,1,1,.7-.05A4.974,4.974,0,0,1,841.311,722.736Zm.013-9.378a4.471,4.471,0,0,0-.632.045,4.391,4.391,0,1,0,.632-.045Z" transform="translate(-817.981 -694.436)" fill="url(#linear-gradient)"/>
          <path id="Trazado_115532" data-name="Trazado 115532" d="M785.592,673.769a13.231,13.231,0,0,1-1.4-.074h0a13.11,13.11,0,0,1-2.71-.581.279.279,0,0,1-.191-.265.282.282,0,0,1,.014-.087.279.279,0,0,1,.351-.177,12.546,12.546,0,0,0,2.594.557h0a12.382,12.382,0,0,0,9.049-2.621l.1-.079a12.38,12.38,0,0,0,4.559-8.378,12.656,12.656,0,0,0,.071-1.338,12.463,12.463,0,0,0-24.856-1.29,12.548,12.548,0,0,0-.07,1.323,12.423,12.423,0,0,0,1.151,5.226.278.278,0,1,1-.5.234,12.983,12.983,0,0,1-1.2-5.46A13.022,13.022,0,0,1,786.94,647.8a13.022,13.022,0,0,1,11.647,12.921,13.231,13.231,0,0,1-.074,1.4,13.022,13.022,0,0,1-12.921,11.647Z" transform="translate(-762.152 -637.493)" fill="url(#linear-gradient)"/>
        </g>
      </g>
      <path id="Trazado_115533" data-name="Trazado 115533" d="M1095.014,465.26l2.245-1.021a10.744,10.744,0,0,0,3.179,1.417l.742,2.35a.2.2,0,0,0,.188.142l2.957.078a.2.2,0,0,0,.2-.132l.864-2.308a10.743,10.743,0,0,0,3.249-1.248l2.188,1.138a.2.2,0,0,0,.233-.033l2.146-2.036a.2.2,0,0,0,.045-.231l-1.021-2.245a10.742,10.742,0,0,0,1.417-3.179l2.351-.742a.2.2,0,0,0,.142-.188l.078-2.957a.2.2,0,0,0-.131-.2l-2.308-.865a10.737,10.737,0,0,0-1.248-3.249l1.138-2.188a.2.2,0,0,0-.033-.233l-2.036-2.146a.2.2,0,0,0-.231-.045l-2.245,1.021a10.74,10.74,0,0,0-3.179-1.417l-.742-2.35a.2.2,0,0,0-.188-.142l-2.957-.078a.2.2,0,0,0-.2.132l-.865,2.308a10.741,10.741,0,0,0-3.249,1.248l-2.188-1.138a.2.2,0,0,0-.233.033l-2.146,2.036a.2.2,0,0,0-.045.231l1.021,2.245a10.74,10.74,0,0,0-1.417,3.179l-2.35.742a.2.2,0,0,0-.141.188l-.078,2.957a.2.2,0,0,0,.131.2l2.308.865a10.741,10.741,0,0,0,1.248,3.249l-1.138,2.188a.2.2,0,0,0,.033.233l2.036,2.146A.2.2,0,0,0,1095.014,465.26Z" transform="translate(-1033.016 -439.06)" fill="#bdd0fb"/>
      <path id="Trazado_115534" data-name="Trazado 115534" d="M1174.055,528.986a2.909,2.909,0,1,1,.643-.072h0A2.927,2.927,0,0,1,1174.055,528.986Zm.006-5.255a2.349,2.349,0,1,0,.515,4.64h0a2.349,2.349,0,0,0-.515-4.64Z" transform="translate(-1103.889 -509.937)" fill="url(#linear-gradient)"/>
      <g id="Grupo_66261" data-name="Grupo 66261" transform="translate(54.039)">
        <path id="Trazado_115535" data-name="Trazado 115535" d="M1082.42,608.015a.278.278,0,0,1-.234-.127c-.178-.275-.35-.559-.512-.846a.278.278,0,0,1,.485-.273c.156.276.322.551.494.816a.278.278,0,0,1-.233.43Z" transform="translate(-1079.594 -582.964)" fill="#bdd0fb"/>
        <path id="Trazado_115536" data-name="Trazado 115536" d="M1066.371,438.676a.278.278,0,0,1-.264-.19,16.352,16.352,0,0,1-.446-1.6q-.055-.244-.1-.488a.278.278,0,1,1,.547-.105q.045.236.1.472a15.8,15.8,0,0,0,.431,1.547.278.278,0,0,1-.264.367Zm-.822-5.49h-.008a.278.278,0,0,1-.271-.286,16.079,16.079,0,0,1,.2-2.152.278.278,0,1,1,.549.09,15.478,15.478,0,0,0-.2,2.078A.278.278,0,0,1,1065.549,433.186Zm1.125-5.436a.275.275,0,0,1-.1-.02.278.278,0,0,1-.155-.361,16.255,16.255,0,0,1,.935-1.949.278.278,0,1,1,.484.273,15.7,15.7,0,0,0-.9,1.882A.278.278,0,0,1,1066.674,427.75Zm2.927-4.716a.278.278,0,0,1-.207-.464,16.2,16.2,0,0,1,1.546-1.509.278.278,0,1,1,.361.423,15.61,15.61,0,0,0-1.492,1.457A.277.277,0,0,1,1069.6,423.034Zm4.37-3.42a.278.278,0,0,1-.131-.524,16.144,16.144,0,0,1,1.973-.881.278.278,0,1,1,.192.522,15.516,15.516,0,0,0-1.9.85A.278.278,0,0,1,1073.971,419.614Zm5.283-1.7a.278.278,0,0,1-.038-.554,16.153,16.153,0,0,1,2.156-.152h0a.278.278,0,0,1,0,.556,15.627,15.627,0,0,0-2.082.147Z" transform="translate(-1065.271 -417.208)" fill="#bdd0fb"/>
        <path id="Trazado_115537" data-name="Trazado 115537" d="M1225.5,422.162a.276.276,0,0,1-.087-.014c-.3-.1-.606-.189-.915-.27a.278.278,0,1,1,.141-.538c.32.084.639.178.947.279a.278.278,0,0,1-.087.543Z" transform="translate(-1204.423 -420.815)" fill="#bdd0fb"/>
      </g>
      <g id="Grupo_66262" data-name="Grupo 66262" transform="translate(64.262 8.385)">
        <path id="Trazado_115538" data-name="Trazado 115538" d="M1304.888,485.755a.279.279,0,0,1-.253-.162c-.131-.288-.274-.575-.423-.855a.278.278,0,1,1,.491-.262c.155.29.3.588.438.886a.278.278,0,0,1-.253.394Z" transform="translate(-1284.556 -484.329)" fill="#bdd0fb"/>
        <path id="Trazado_115539" data-name="Trazado 115539" d="M1187.072,533.915c-.257,0-.516-.006-.768-.018a.278.278,0,0,1,.027-.556,15.527,15.527,0,0,0,2.052-.037.278.278,0,1,1,.047.554C1187.979,533.9,1187.522,533.915,1187.072,533.915Zm4.664-.7a.278.278,0,0,1-.081-.544,15.663,15.663,0,0,0,1.919-.727.278.278,0,1,1,.231.506,16.106,16.106,0,0,1-1.988.753A.273.273,0,0,1,1191.736,533.216Zm4.868-2.473a.278.278,0,0,1-.167-.5,15.559,15.559,0,0,0,1.555-1.337.278.278,0,0,1,.39.4,16.2,16.2,0,0,1-1.611,1.385A.278.278,0,0,1,1196.6,530.743Zm3.735-3.98a.278.278,0,0,1-.232-.431,15.783,15.783,0,0,0,1.012-1.786.278.278,0,0,1,.5.242,16.328,16.328,0,0,1-1.048,1.849A.278.278,0,0,1,1200.339,526.763Zm2.173-5.01a.286.286,0,0,1-.065-.008.278.278,0,0,1-.205-.336,15.567,15.567,0,0,0,.347-2.024.278.278,0,1,1,.553.058,16.167,16.167,0,0,1-.359,2.1A.278.278,0,0,1,1202.512,521.753Zm.337-5.451a.278.278,0,0,1-.276-.247,15.834,15.834,0,0,0-.285-1.693q-.037-.165-.077-.328a.278.278,0,1,1,.54-.133q.042.169.08.339a16.385,16.385,0,0,1,.295,1.753.278.278,0,0,1-.245.308Z" transform="translate(-1181.175 -510.02)" fill="#bdd0fb"/>
        <path id="Trazado_115540" data-name="Trazado 115540" d="M1148.3,663.728a.274.274,0,0,1-.083-.013c-.313-.1-.627-.207-.933-.323a.278.278,0,1,1,.2-.52c.3.112.6.217.9.312a.278.278,0,0,1-.083.544Z" transform="translate(-1147.103 -640.551)" fill="#bdd0fb"/>
      </g>
      <path id="Trazado_115541" data-name="Trazado 115541" d="M1142.8,501.521l-.2,0a7.477,7.477,0,0,1-1.508-.194l-.057-.014a.278.278,0,0,1-.213-.27.29.29,0,0,1,.008-.066.278.278,0,0,1,.336-.2,6.9,6.9,0,0,0,1.448.192h0a6.87,6.87,0,0,0,7.012-6.234q.02-.22.026-.443c0-.061,0-.122,0-.182a6.86,6.86,0,0,0-13.718-.179c0,.061,0,.121,0,.182a6.848,6.848,0,0,0,.881,3.365.278.278,0,1,1-.485.273,7.4,7.4,0,0,1-.953-3.638q0-.1,0-.2a7.416,7.416,0,0,1,14.83.194c0,.066,0,.131,0,.2A7.426,7.426,0,0,1,1142.8,501.521Z" transform="translate(-1072.583 -478.009)" fill="url(#linear-gradient)"/>
    </g>
    <g id="Grupo_66273" data-name="Grupo 66273" transform="translate(449.641 194.511)">
      <g id="Grupo_66265" data-name="Grupo 66265" transform="translate(0 30.667)">
        <path id="Trazado_115542" data-name="Trazado 115542" d="M834.312,450.28a1.113,1.113,0,0,1-1.113-1.113V441.1a1.113,1.113,0,0,1,2.226,0v8.068A1.113,1.113,0,0,1,834.312,450.28Z" transform="translate(-830.417 -439.987)" fill="url(#linear-gradient-5)"/>
        <g id="Grupo_66264" data-name="Grupo 66264" transform="translate(0 3.617)">
          <path id="Trazado_115543" data-name="Trazado 115543" d="M819,469.91a.974.974,0,0,1-.974.974H811.9a.974.974,0,0,1-.974-.974h0a.974.974,0,0,1,.974-.974h6.12a.974.974,0,0,1,.974.974Z" transform="translate(-810.931 -468.936)" fill="url(#linear-gradient-5)"/>
          <path id="Trazado_115544" data-name="Trazado 115544" d="M819,507.768a.974.974,0,0,1-.974.974H811.9a.974.974,0,0,1-.974-.974h0a.974.974,0,0,1,.974-.974h6.12a.974.974,0,0,1,.974.974Z" transform="translate(-810.931 -502.064)" fill="url(#linear-gradient-5)"/>
        </g>
      </g>
      <g id="Grupo_66267" data-name="Grupo 66267" transform="translate(104.325 30.667)">
        <path id="Trazado_115545" data-name="Trazado 115545" d="M1669.394,450.28a1.113,1.113,0,0,1-1.113-1.113V441.1a1.113,1.113,0,1,1,2.226,0v8.068A1.113,1.113,0,0,1,1669.394,450.28Z" transform="translate(-1665.499 -439.987)" fill="url(#linear-gradient-5)"/>
        <g id="Grupo_66266" data-name="Grupo 66266" transform="translate(0 3.617)">
          <path id="Trazado_115546" data-name="Trazado 115546" d="M1654.08,469.91a.974.974,0,0,1-.974.974h-6.12a.974.974,0,0,1-.974-.974h0a.974.974,0,0,1,.974-.974h6.12a.974.974,0,0,1,.974.974Z" transform="translate(-1646.012 -468.936)" fill="url(#linear-gradient-5)"/>
          <path id="Trazado_115547" data-name="Trazado 115547" d="M1654.08,507.768a.974.974,0,0,1-.974.974h-6.12a.974.974,0,0,1-.974-.974h0a.974.974,0,0,1,.974-.974h6.12a.974.974,0,0,1,.974.974Z" transform="translate(-1646.012 -502.064)" fill="url(#linear-gradient-5)"/>
        </g>
      </g>
      <g id="Grupo_66269" data-name="Grupo 66269" transform="translate(102.934 69.893)">
        <path id="Trazado_115548" data-name="Trazado 115548" d="M1658.259,764.271a1.113,1.113,0,0,1-1.113-1.113v-8.068a1.113,1.113,0,0,1,2.226,0v8.068A1.113,1.113,0,0,1,1658.259,764.271Z" transform="translate(-1654.364 -753.978)" fill="url(#linear-gradient-5)"/>
        <g id="Grupo_66268" data-name="Grupo 66268" transform="translate(0 3.617)">
          <path id="Trazado_115549" data-name="Trazado 115549" d="M1642.945,783.9a.974.974,0,0,1-.974.974h-6.12a.974.974,0,0,1-.974-.974h0a.974.974,0,0,1,.974-.974h6.12a.974.974,0,0,1,.974.974Z" transform="translate(-1634.877 -782.927)" fill="url(#linear-gradient-5)"/>
          <path id="Trazado_115550" data-name="Trazado 115550" d="M1642.945,821.758a.974.974,0,0,1-.974.974h-6.12a.974.974,0,0,1-.974-.974h0a.974.974,0,0,1,.974-.974h6.12a.974.974,0,0,1,.974.974Z" transform="translate(-1634.877 -816.055)" fill="url(#linear-gradient-5)"/>
        </g>
      </g>
      <g id="Grupo_66271" data-name="Grupo 66271" transform="translate(0 69.893)">
        <path id="Trazado_115551" data-name="Trazado 115551" d="M834.312,764.271a1.113,1.113,0,0,1-1.113-1.113v-8.068a1.113,1.113,0,0,1,2.226,0v8.068A1.113,1.113,0,0,1,834.312,764.271Z" transform="translate(-830.417 -753.978)" fill="url(#linear-gradient-5)"/>
        <g id="Grupo_66270" data-name="Grupo 66270" transform="translate(0 3.617)">
          <path id="Trazado_115552" data-name="Trazado 115552" d="M819,783.9a.974.974,0,0,1-.974.974H811.9a.974.974,0,0,1-.974-.974h0a.974.974,0,0,1,.974-.974h6.12a.974.974,0,0,1,.974.974Z" transform="translate(-810.931 -782.927)" fill="url(#linear-gradient-5)"/>
          <path id="Trazado_115553" data-name="Trazado 115553" d="M819,821.758a.974.974,0,0,1-.974.974H811.9a.974.974,0,0,1-.974-.974h0a.974.974,0,0,1,.974-.974h6.12a.974.974,0,0,1,.974.974Z" transform="translate(-810.931 -816.055)" fill="url(#linear-gradient-5)"/>
        </g>
      </g>
      <g id="Grupo_66272" data-name="Grupo 66272" transform="translate(2.179)">
        <path id="Trazado_115554" data-name="Trazado 115554" d="M1047.782,353.634a1.113,1.113,0,0,1-1.1-.947l-23.551-155.839-20.69,2.291L979.911,352.682a1.113,1.113,0,1,1-2.2-.323l22.655-154.393a1.112,1.112,0,0,1,.978-.944l22.607-2.5a1.111,1.111,0,0,1,1.223.94l23.711,156.9a1.113,1.113,0,0,1-.934,1.267A1.145,1.145,0,0,1,1047.782,353.634Z" transform="translate(-959.042 -194.511)" fill="url(#linear-gradient-5)"/>
        <path id="Trazado_115555" data-name="Trazado 115555" d="M935.992,272.938H829.483a1.113,1.113,0,0,1-.539-2.087l40.472-22.378a1.113,1.113,0,1,1,1.077,1.948l-36.7,20.291h98.11L893.8,248.3a1.113,1.113,0,0,1,1.128-1.919l41.632,24.484a1.113,1.113,0,0,1-.564,2.072Z" transform="translate(-828.37 -239.767)" fill="url(#linear-gradient-5)"/>
        <path id="Trazado_115556" data-name="Trazado 115556" d="M934.323,483.359H829.483a1.113,1.113,0,0,1-.8-1.882l37.21-38.916A1.113,1.113,0,1,1,867.5,444.1l-35.41,37.035h99.681l-34.516-37.081a1.113,1.113,0,1,1,1.629-1.516l36.258,38.952a1.113,1.113,0,0,1-.815,1.871Z" transform="translate(-828.37 -411.241)" fill="url(#linear-gradient-5)"/>
        <path id="Trazado_115557" data-name="Trazado 115557" d="M1187.176,243.459a1.108,1.108,0,0,1-.782-.321l-27.017-26.679a1.113,1.113,0,1,1,1.564-1.583l27.017,26.679a1.113,1.113,0,0,1-.782,1.9Z" transform="translate(-1117.736 -212.05)" fill="url(#linear-gradient-5)"/>
        <path id="Trazado_115558" data-name="Trazado 115558" d="M1128.821,225.923a1.113,1.113,0,0,1-.823-1.861l26.522-29.183a1.113,1.113,0,0,1,1.647,1.5l-26.522,29.183A1.11,1.11,0,0,1,1128.821,225.923Z" transform="translate(-1090.313 -194.514)" fill="url(#linear-gradient-5)"/>
        <path id="Trazado_115559" data-name="Trazado 115559" d="M1021.623,532.317a1.113,1.113,0,0,1-.776-1.91l49.387-48.032-36.52-38.29a1.113,1.113,0,0,1,1.611-1.536l37.28,39.087a1.112,1.112,0,0,1-.029,1.566L1022.4,532A1.11,1.11,0,0,1,1021.623,532.317Z" transform="translate(-996.506 -411.26)" fill="url(#linear-gradient-5)"/>
        <path id="Trazado_115560" data-name="Trazado 115560" d="M1129.7,530.088a1.11,1.11,0,0,1-.776-.315l-50.177-48.8a1.113,1.113,0,0,1-.029-1.566L1116,440.32a1.113,1.113,0,0,1,1.611,1.536l-36.52,38.29,49.387,48.032a1.113,1.113,0,0,1-.776,1.91Z" transform="translate(-1047.172 -409.31)" fill="url(#linear-gradient-23)"/>
      </g>
      <path id="Trazado_115561" data-name="Trazado 115561" d="M1079.514,1161.5h-58.144a1.113,1.113,0,0,1,0-2.226h58.144a1.113,1.113,0,0,1,0,2.226Z" transform="translate(-994.107 -1038.745)" fill="url(#linear-gradient-5)"/>
      <path id="Trazado_115562" data-name="Trazado 115562" d="M980.684,1196.26a1.113,1.113,0,0,1-.916-1.743l23.913-34.777a1.113,1.113,0,0,1,1.834,1.261L981.6,1195.777A1.111,1.111,0,0,1,980.684,1196.26Z" transform="translate(-958.505 -1038.734)" fill="url(#linear-gradient-5)"/>
      <path id="Trazado_115563" data-name="Trazado 115563" d="M1363.127,1196.26a1.111,1.111,0,0,1-.918-.482L1338.3,1161a1.113,1.113,0,1,1,1.834-1.261l23.913,34.777a1.113,1.113,0,0,1-.916,1.743Z" transform="translate(-1272.243 -1038.734)" fill="url(#linear-gradient-26)"/>
    </g>
    <g id="Grupo_66278" data-name="Grupo 66278" transform="translate(588.268 252.127)">
      <g id="Grupo_66274" data-name="Grupo 66274" transform="translate(22.665 23.126)">
        <path id="Trazado_115564" data-name="Trazado 115564" d="M2113.07,886.316l.986-45.49h2.7v46.6Z" transform="translate(-2111.689 -840.826)" fill="url(#linear-gradient-27)"/>
        <path id="Trazado_115565" data-name="Trazado 115565" d="M2108.376,1205.06c0,.718-.34,1.252-.76,1.252h-4.834c-.419,0-.76-.534-.76-1.252h0c0-.718.34-1.252.76-1.252h4.834c.42,0,.76.534.76,1.252Z" transform="translate(-2102.022 -1158.461)" fill="url(#linear-gradient-28)"/>
      </g>
      <g id="Grupo_66277" data-name="Grupo 66277">
        <path id="Trazado_115566" data-name="Trazado 115566" d="M2146.271,656.012c-.533-2.623-9.322,12.546-12.241,16.278s-.642,4.9-.642,4.9l.382.362h0a2.684,2.684,0,0,0,2.9-1.242C2139.371,671.511,2146.707,658.154,2146.271,656.012Z" transform="translate(-2106.065 -655.709)" fill="#7d97f4"/>
        <path id="Trazado_115567" data-name="Trazado 115567" d="M2146.733,874.4c2.558.79-6.541-14.2-8.417-18.547s-3.967-2.881-3.967-2.881l-.472.2h0a2.519,2.519,0,0,0-.33,3.108C2136.469,860.943,2144.644,873.75,2146.733,874.4Z" transform="translate(-2106.604 -828.116)" fill="#7d97f4"/>
        <path id="Trazado_115568" data-name="Trazado 115568" d="M1920.794,835.891c-2.247-1.455,15.084-4.1,19.624-5.451s4.727,1.193,4.727,1.193l.124.487v0a2.4,2.4,0,0,1-2.143,2.248C1937.67,835.127,1922.63,837.078,1920.794,835.891Z" transform="translate(-1920.594 -808.264)" fill="#7d97f4"/>
        <g id="Grupo_66276" data-name="Grupo 66276" transform="translate(23.867 20.543)">
          <path id="Trazado_115569" data-name="Trazado 115569" d="M2116.921,823.837a2.726,2.726,0,1,1-1.591-3.511A2.725,2.725,0,0,1,2116.921,823.837Z" transform="translate(-2111.644 -820.15)" fill="url(#linear-gradient-29)"/>
          <g id="Grupo_66275" data-name="Grupo 66275" transform="translate(0.785 0.792)">
            <path id="Trazado_115570" data-name="Trazado 115570" d="M2119.874,830.384a1.948,1.948,0,1,1,1.825-1.262h0A1.951,1.951,0,0,1,2119.874,830.384Zm0-3.618a1.67,1.67,0,1,0,1.563,2.259h0a1.672,1.672,0,0,0-1.563-2.259Z" transform="translate(-2117.928 -826.487)" fill="#7d97f4"/>
          </g>
        </g>
      </g>
    </g>
    <g id="Grupo_66283" data-name="Grupo 66283" transform="translate(549.877 270.852)">
      <g id="Grupo_66279" data-name="Grupo 66279" transform="translate(19.529 19.981)">
        <path id="Trazado_115571" data-name="Trazado 115571" d="M1778.9,1004.7l.878-39.167h2.273v40.094Z" transform="translate(-1777.737 -965.531)" fill="url(#linear-gradient-30)"/>
        <path id="Trazado_115572" data-name="Trazado 115572" d="M1775.081,1278.408c0,.618-.293,1.113-.655,1.113h-4.166c-.362,0-.655-.495-.655-1.113h0c0-.618.293-1.113.655-1.113h4.166c.362,0,.655.495.655,1.113Z" transform="translate(-1769.606 -1238.347)" fill="url(#linear-gradient-31)"/>
      </g>
      <g id="Grupo_66282" data-name="Grupo 66282" transform="translate(0)">
        <path id="Trazado_115573" data-name="Trazado 115573" d="M1807.731,805.852c-.459-2.26-8.032,10.81-10.547,14.025s-.553,4.225-.553,4.225l.329.311h0a2.312,2.312,0,0,0,2.5-1.07C1801.786,819.206,1808.106,807.7,1807.731,805.852Z" transform="translate(-1773.089 -805.591)" fill="#7d97f4"/>
        <path id="Trazado_115574" data-name="Trazado 115574" d="M1808.128,994.013c2.2.68-5.636-12.232-7.252-15.98s-3.418-2.482-3.418-2.482l-.406.169h0a2.17,2.17,0,0,0-.284,2.678C1799.285,982.422,1806.329,993.458,1808.128,994.013Z" transform="translate(-1773.553 -954.138)" fill="#7d97f4"/>
        <path id="Trazado_115575" data-name="Trazado 115575" d="M1613.457,960.838c-1.937-1.253,13-3.529,16.908-4.7s4.111,1.028,4.111,1.028l.145.42v0a2.1,2.1,0,0,1-1.885,1.937C1628.036,960.18,1615.038,961.861,1613.457,960.838Z" transform="translate(-1613.285 -937.035)" fill="#7d97f4"/>
        <g id="Grupo_66281" data-name="Grupo 66281" transform="translate(20.564 17.7)">
          <path id="Trazado_115576" data-name="Trazado 115576" d="M1782.443,950.452a2.349,2.349,0,1,1-1.37-3.025A2.349,2.349,0,0,1,1782.443,950.452Z" transform="translate(-1777.895 -947.275)" fill="url(#linear-gradient-32)"/>
          <g id="Grupo_66280" data-name="Grupo 66280" transform="translate(0.656 0.663)">
            <path id="Trazado_115577" data-name="Trazado 115577" d="M1784.846,955.978a1.7,1.7,0,1,1,1.59-1.1h0A1.7,1.7,0,0,1,1784.846,955.978Zm0-3.117a1.419,1.419,0,1,0,1.329,1.92h0a1.421,1.421,0,0,0-1.329-1.92Z" transform="translate(-1783.149 -952.583)" fill="#7d97f4"/>
          </g>
        </g>
      </g>
    </g>
    <g id="Grupo_66288" data-name="Grupo 66288" transform="translate(538.395 321.308)">
      <g id="Grupo_66284" data-name="Grupo 66284" transform="translate(16.405 9.029)">
        <rect id="Rect치ngulo_32398" data-name="Rect치ngulo 32398" width="5.008" height="24.76" transform="translate(3.06)" fill="#7d97f4"/>
        <path id="Trazado_115578" data-name="Trazado 115578" d="M1663.542,1476.868c0,.058-.09.1-.159.105l-10.285.075a.4.4,0,0,1-.406-.412v-.513a.385.385,0,0,1,.394-.428l10.311.176c.066,0,.145.046.145.1Z" transform="translate(-1652.692 -1451.466)" fill="#7d97f4"/>
      </g>
      <g id="Grupo_66287" data-name="Grupo 66287" transform="translate(0 0)">
        <g id="Grupo_66286" data-name="Grupo 66286">
          <path id="Trazado_115579" data-name="Trazado 115579" d="M1572,1209.475l-39.29.487a.73.73,0,0,0-.58.371l-10.713,21.127c-.1.206-.013.373.2.375l39.233.235a.741.741,0,0,0,.61-.382l10.77-21.84A.238.238,0,0,0,1572,1209.475Z" transform="translate(-1521.378 -1209.475)" fill="#91b3fa"/>
          <g id="Grupo_66285" data-name="Grupo 66285" transform="translate(2.016 1.531)">
            <path id="Trazado_115580" data-name="Trazado 115580" d="M1605.368,1224.051l-10.691.119a.73.73,0,0,0-.581.372l-2.461,4.858c-.1.2-.01.367.208.366l10.687-.069a.734.734,0,0,0,.59-.375l2.465-4.9C1605.687,1224.212,1605.59,1224.048,1605.368,1224.051Z" transform="translate(-1584.836 -1223.76)" fill="url(#linear-gradient-33)"/>
            <path id="Trazado_115581" data-name="Trazado 115581" d="M1706.574,1222.9l-10.919.122a.737.737,0,0,0-.59.376l-2.466,4.909c-.1.206-.006.371.217.37l10.915-.071a.741.741,0,0,0,.6-.379l2.469-4.957C1706.9,1223.064,1706.8,1222.9,1706.574,1222.9Z" transform="translate(-1673.188 -1222.754)" fill="url(#linear-gradient-34)"/>
            <path id="Trazado_115582" data-name="Trazado 115582" d="M1809.951,1221.727l-11.155.125a.745.745,0,0,0-.6.38l-2.47,4.962c-.1.208,0,.375.225.374l11.152-.072a.749.749,0,0,0,.608-.383l2.473-5.01A.238.238,0,0,0,1809.951,1221.727Z" transform="translate(-1763.433 -1221.727)" fill="url(#linear-gradient-35)"/>
            <path id="Trazado_115583" data-name="Trazado 115583" d="M1578.4,1277.59l-10.686.06a.726.726,0,0,0-.582.371l-2.473,4.881c-.1.2-.011.37.207.37l10.681-.01a.73.73,0,0,0,.59-.374l2.477-4.928C1578.716,1277.755,1578.62,1277.589,1578.4,1277.59Z" transform="translate(-1561.229 -1270.611)" fill="url(#linear-gradient-36)"/>
            <path id="Trazado_115584" data-name="Trazado 115584" d="M1679.556,1277.011l-10.915.062a.734.734,0,0,0-.591.375l-2.477,4.932c-.1.207-.007.374.215.374l10.911-.01a.737.737,0,0,0,.6-.378l2.481-4.98C1679.883,1277.177,1679.783,1277.01,1679.556,1277.011Z" transform="translate(-1649.538 -1270.104)" fill="url(#linear-gradient-37)"/>
            <path id="Trazado_115585" data-name="Trazado 115585" d="M1782.887,1276.419l-11.151.063a.741.741,0,0,0-.6.379l-2.482,4.985c-.1.209,0,.378.224.378l11.147-.01a.745.745,0,0,0,.609-.383l2.485-5.034A.24.24,0,0,0,1782.887,1276.419Z" transform="translate(-1739.743 -1269.586)" fill="url(#linear-gradient-38)"/>
            <path id="Trazado_115586" data-name="Trazado 115586" d="M1551.3,1331.38h-10.68a.724.724,0,0,0-.583.371l-2.484,4.9c-.1.206-.012.373.206.374l10.676.051a.726.726,0,0,0,.591-.374l2.489-4.951C1551.62,1331.548,1551.525,1331.38,1551.3,1331.38Z" transform="translate(-1537.512 -1317.681)" fill="url(#linear-gradient-39)"/>
            <path id="Trazado_115587" data-name="Trazado 115587" d="M1652.41,1331.376H1641.5a.73.73,0,0,0-.592.375l-2.489,4.956c-.1.208-.008.377.214.378l10.905.052a.734.734,0,0,0,.6-.378l2.493-5C1652.736,1331.545,1652.636,1331.376,1652.41,1331.376Z" transform="translate(-1625.777 -1317.678)" fill="url(#linear-gradient-40)"/>
            <path id="Trazado_115588" data-name="Trazado 115588" d="M1754.661,1331.373h-11.147a.737.737,0,0,0-.6.379l-2.682,5.389,11.554.055a.741.741,0,0,0,.609-.382l2.5-5.059A.242.242,0,0,0,1754.661,1331.373Z" transform="translate(-1714.906 -1317.675)" fill="url(#linear-gradient-41)"/>
          </g>
        </g>
        <path id="Trazado_115589" data-name="Trazado 115589" d="M1781.177,1323.128h0l-7.6-.04a.139.139,0,0,1,0-.278h0l7.6.04h0c.156,0,.344-.194.437-.382l3.97-8.047a.139.139,0,0,1,.25.123l-3.97,8.047A.89.89,0,0,1,1781.177,1323.128Z" transform="translate(-1741.95 -1301.243)" fill="url(#linear-gradient)"/>
        <path id="Trazado_115590" data-name="Trazado 115590" d="M1583.24,1222.867a.139.139,0,0,1-.124-.2l3.393-6.695a.861.861,0,0,1,.745-.375l8.355-.1a.148.148,0,0,1,.141.137.139.139,0,0,1-.137.141l-8.355.1a.608.608,0,0,0-.5.223l-3.393,6.695A.139.139,0,0,1,1583.24,1222.867Z" transform="translate(-1575.39 -1214.743)" fill="url(#linear-gradient)"/>
      </g>
    </g>
    <g id="Grupo_66293" data-name="Grupo 66293" transform="translate(587.025 314.596)">
      <g id="Grupo_66289" data-name="Grupo 66289" transform="translate(19.52 10.455)">
        <rect id="Rect치ngulo_32399" data-name="Rect치ngulo 32399" width="5.564" height="30.046" transform="translate(3.895)" fill="#7d97f4"/>
        <path id="Trazado_115591" data-name="Trazado 115591" d="M2079.969,1476.115c0,.069-.079.126-.161.127l-12.375.09a.528.528,0,0,1-.539-.494v-.615a.546.546,0,0,1,.186-.364.557.557,0,0,1,.386-.148l12.341.211c.079,0,.162.055.162.122Z" transform="translate(-2066.893 -1445.318)" fill="#7d97f4"/>
      </g>
      <g id="Grupo_66292" data-name="Grupo 66292" transform="translate(0 0)">
        <g id="Grupo_66291" data-name="Grupo 66291">
          <path id="Trazado_115592" data-name="Trazado 115592" d="M1971.3,1155.75l-47.074.584a.875.875,0,0,0-.7.445l-12.835,25.313c-.125.246-.015.447.246.449l47,.282a.887.887,0,0,0,.731-.458l12.9-26.166A.285.285,0,0,0,1971.3,1155.75Z" transform="translate(-1910.643 -1155.75)" fill="#91b3fa"/>
          <g id="Grupo_66290" data-name="Grupo 66290" transform="translate(2.415 1.834)">
            <path id="Trazado_115593" data-name="Trazado 115593" d="M2011.271,1173.215l-12.809.143a.874.874,0,0,0-.7.445l-2.949,5.821c-.124.244-.012.44.25.439l12.8-.083a.879.879,0,0,0,.707-.449l2.954-5.877C2011.653,1173.408,2011.537,1173.212,2011.271,1173.215Z" transform="translate(-1986.672 -1172.867)" fill="url(#linear-gradient-44)"/>
            <path id="Trazado_115594" data-name="Trazado 115594" d="M2132.527,1171.837l-13.082.146a.884.884,0,0,0-.707.45l-2.954,5.882c-.124.246-.008.445.259.443l13.078-.085a.888.888,0,0,0,.717-.454l2.958-5.939C2132.919,1172.032,2132.8,1171.834,2132.527,1171.837Z" transform="translate(-2092.527 -1171.661)" fill="url(#linear-gradient-45)"/>
            <path id="Trazado_115595" data-name="Trazado 115595" d="M2256.383,1170.43l-13.365.149a.892.892,0,0,0-.718.455l-2.959,5.945c-.124.249,0,.45.269.448l13.361-.087a.9.9,0,0,0,.728-.459l2.963-6A.285.285,0,0,0,2256.383,1170.43Z" transform="translate(-2200.65 -1170.43)" fill="url(#linear-gradient-46)"/>
            <path id="Trazado_115596" data-name="Trazado 115596" d="M1978.958,1237.36l-12.8.072a.871.871,0,0,0-.7.445l-2.963,5.847c-.124.245-.013.444.248.443l12.8-.012a.874.874,0,0,0,.707-.448l2.968-5.9C1979.34,1237.557,1979.225,1237.358,1978.958,1237.36Z" transform="translate(-1958.389 -1228.998)" fill="url(#linear-gradient-47)"/>
            <path id="Trazado_115597" data-name="Trazado 115597" d="M2100.156,1236.665l-13.077.074a.879.879,0,0,0-.708.45l-2.968,5.909c-.124.248-.009.448.258.448l13.072-.012a.884.884,0,0,0,.718-.453l2.973-5.967C2100.548,1236.864,2100.428,1236.664,2100.156,1236.665Z" transform="translate(-2064.192 -1228.391)" fill="url(#linear-gradient-48)"/>
            <path id="Trazado_115598" data-name="Trazado 115598" d="M2223.958,1235.956l-13.36.075a.888.888,0,0,0-.719.454l-2.973,5.973c-.124.25,0,.453.268.453l13.355-.012a.892.892,0,0,0,.729-.458l2.977-6.032A.287.287,0,0,0,2223.958,1235.956Z" transform="translate(-2172.267 -1227.77)" fill="url(#linear-gradient-49)"/>
            <path id="Trazado_115599" data-name="Trazado 115599" d="M1946.5,1301.806h-12.8a.866.866,0,0,0-.7.444l-2.976,5.875c-.125.246-.014.447.247.448l12.791.061a.871.871,0,0,0,.708-.448l2.981-5.932C1946.877,1302.007,1946.762,1301.806,1946.5,1301.806Z" transform="translate(-1929.974 -1285.393)" fill="url(#linear-gradient-50)"/>
            <path id="Trazado_115600" data-name="Trazado 115600" d="M2067.632,1301.8h-13.071a.874.874,0,0,0-.709.449l-2.982,5.937c-.125.249-.01.452.256.453l13.066.062a.879.879,0,0,0,.719-.453l2.987-6C2068.024,1302,2067.9,1301.8,2067.632,1301.8Z" transform="translate(-2035.723 -1285.389)" fill="url(#linear-gradient-51)"/>
            <path id="Trazado_115601" data-name="Trazado 115601" d="M2190.139,1301.8h-13.354a.884.884,0,0,0-.72.454l-3.214,6.457,13.844.065a.886.886,0,0,0,.729-.458l2.992-6.061A.29.29,0,0,0,2190.139,1301.8Z" transform="translate(-2142.509 -1285.385)" fill="url(#linear-gradient-52)"/>
          </g>
        </g>
        <path id="Trazado_115602" data-name="Trazado 115602" d="M2222.1,1292.085h0l-9.1-.048a.139.139,0,0,1,0-.278h0l9.1.048h0c.2,0,.434-.24.549-.473l4.756-9.641a.139.139,0,0,1,.25.123l-4.757,9.641A1.039,1.039,0,0,1,2222.1,1292.085Z" transform="translate(-2175.103 -1265.892)" fill="#fff"/>
        <path id="Trazado_115603" data-name="Trazado 115603" d="M1984.953,1171.96a.139.139,0,0,1-.124-.2l4.065-8.021a1,1,0,0,1,.868-.435l10.01-.12h0a.139.139,0,0,1,0,.278l-10.01.12a.75.75,0,0,0-.624.282l-4.065,8.021A.139.139,0,0,1,1984.953,1171.96Z" transform="translate(-1975.548 -1162.254)" fill="#fff"/>
      </g>
    </g>
    <g id="Grupo_66327" data-name="Grupo 66327" transform="translate(398.062 245.456)">
      <g id="Grupo_66304" data-name="Grupo 66304" transform="translate(0 11.685)">
        <g id="Grupo_66294" data-name="Grupo 66294" transform="translate(5.904 4.431)">
          <path id="Trazado_115604" data-name="Trazado 115604" d="M446.892,743.755a.454.454,0,0,1-.245-.075.661.661,0,0,1-.218-.573l.545-5.349h-1.083a.51.51,0,0,1-.454-.354l-.028-.024a.553.553,0,0,1-.062-.458l1.353-5.284a.321.321,0,0,1,.316-.264.437.437,0,0,1,.252.038c.005,0,.011-.052.017-.052h4.529s0,.064,0,.062a.384.384,0,0,1,.284-.112.339.339,0,0,1,.3.233.461.461,0,0,1-.018.457l-.013.03-1.73,3.325a.66.66,0,0,0-.005.3c.02.051.06.154.094.154h.737c-.014,0,0,.061.006.057a.54.54,0,0,1,.193-.015.366.366,0,0,1,.332.275.567.567,0,0,1-.087.561l-4.694,6.888A.391.391,0,0,1,446.892,743.755Zm.259-6.545a.373.373,0,0,1,.286.195.377.377,0,0,1,.11.348l-.528,5.053,4.352-6.439h-.739c-.295,0-.425-.272-.511-.5a1.406,1.406,0,0,1,.024-.869l1.589-3.086h-4.489c-.025,0-.049.064-.071.06l-1.262,5.066c-.006.024.018.051.018.051v.011a.038.038,0,0,0,0,.047c.011.021.011-.018.025.01s.021.041.041.041h.955C447,737.2,447.069,737.21,447.151,737.21Z" transform="translate(-445.324 -731.309)" fill="#fff"/>
        </g>
        <g id="Grupo_66303" data-name="Grupo 66303">
          <g id="Grupo_66298" data-name="Grupo 66298" transform="translate(0 10.494)">
            <g id="Grupo_66295" data-name="Grupo 66295" transform="translate(16.81 3.744)">
              <path id="Trazado_115605" data-name="Trazado 115605" d="M532.9,810.946a.278.278,0,0,1-.225-.442c.132-.181.258-.369.376-.56a.278.278,0,1,1,.473.293c-.125.2-.259.4-.4.595A.278.278,0,0,1,532.9,810.946Z" transform="translate(-532.622 -809.812)" fill="#fff"/>
            </g>
            <g id="Grupo_66296" data-name="Grupo 66296" transform="translate(0.507 2.078)">
              <path id="Trazado_115606" data-name="Trazado 115606" d="M411.312,803.119a.278.278,0,0,1,0-.556,9.1,9.1,0,0,0,1.389-.13.278.278,0,1,1,.095.548,9.615,9.615,0,0,1-1.474.138Zm-1.434-.087-.038,0a9.691,9.691,0,0,1-1.447-.314.278.278,0,0,1,.159-.533,9.146,9.146,0,0,0,1.363.3.278.278,0,0,1-.037.554Zm4.26-.4a.278.278,0,0,1-.089-.542,9,9,0,0,0,1.282-.547.278.278,0,1,1,.258.493,9.528,9.528,0,0,1-1.362.581A.273.273,0,0,1,414.137,802.632Zm-7.006-.42a.277.277,0,0,1-.119-.027,9.588,9.588,0,0,1-1.283-.738.278.278,0,0,1,.314-.459,8.988,8.988,0,0,0,1.208.7.278.278,0,0,1-.12.529Zm9.548-.906a.278.278,0,0,1-.165-.5q.1-.076.206-.156a9.141,9.141,0,0,0,.852-.755.278.278,0,0,1,.394.393,9.775,9.775,0,0,1-.9.8q-.108.084-.218.165A.276.276,0,0,1,416.679,801.306Zm-11.913-.711a.277.277,0,0,1-.191-.076,9.713,9.713,0,0,1-1-1.094.278.278,0,0,1,.439-.342,9.16,9.16,0,0,0,.94,1.031.278.278,0,0,1-.191.481ZM403,798.336a.278.278,0,0,1-.243-.142,9.58,9.58,0,0,1-.621-1.345.278.278,0,0,1,.522-.193,9.033,9.033,0,0,0,.585,1.266.278.278,0,0,1-.242.414Z" transform="translate(-402.12 -796.474)" fill="#fff"/>
            </g>
            <g id="Grupo_66297" data-name="Grupo 66297">
              <path id="Trazado_115607" data-name="Trazado 115607" d="M398.451,781.083a.278.278,0,0,1-.272-.223c-.047-.234-.086-.471-.115-.707a.278.278,0,0,1,.552-.069c.028.222.064.446.108.666a.278.278,0,0,1-.218.328A.3.3,0,0,1,398.451,781.083Z" transform="translate(-398.062 -779.84)" fill="#fff"/>
            </g>
          </g>
          <g id="Grupo_66302" data-name="Grupo 66302" transform="translate(1.763)">
            <g id="Grupo_66299" data-name="Grupo 66299" transform="translate(0 3.228)">
              <path id="Trazado_115608" data-name="Trazado 115608" d="M412.455,722.782a.278.278,0,0,1-.223-.444c.141-.19.292-.378.448-.559a.278.278,0,0,1,.421.364c-.147.17-.289.347-.422.526A.278.278,0,0,1,412.455,722.782Z" transform="translate(-412.178 -721.683)" fill="#fff"/>
            </g>
            <g id="Grupo_66300" data-name="Grupo 66300" transform="translate(1.44)">
              <path id="Trazado_115609" data-name="Trazado 115609" d="M438.937,702.922a.278.278,0,0,1-.265-.195,8.994,8.994,0,0,0-.511-1.272.278.278,0,0,1,.5-.246,9.552,9.552,0,0,1,.543,1.351.278.278,0,0,1-.182.349A.271.271,0,0,1,438.937,702.922Zm-1.246-2.529a.278.278,0,0,1-.228-.119q-.139-.2-.289-.391c-.182-.233-.376-.459-.579-.672a.278.278,0,1,1,.4-.383c.215.226.421.466.614.713q.159.2.306.415a.278.278,0,0,1-.228.437Zm-13.709-1.761a.278.278,0,0,1-.181-.49q.159-.135.325-.265a9.869,9.869,0,0,1,.851-.594.278.278,0,0,1,.294.473,9.256,9.256,0,0,0-.8.56q-.156.122-.306.25A.277.277,0,0,1,423.982,698.632Zm11.767-.283a.276.276,0,0,1-.17-.058,9.015,9.015,0,0,0-1.144-.754.278.278,0,1,1,.27-.486,9.543,9.543,0,0,1,1.215.8.278.278,0,0,1-.17.5Zm-9.37-1.2a.278.278,0,0,1-.109-.534,9.554,9.554,0,0,1,1.379-.468.278.278,0,0,1,.138.539,8.982,8.982,0,0,0-1.3.441A.28.28,0,0,1,426.378,697.145Zm6.906-.163a.28.28,0,0,1-.1-.017,9.1,9.1,0,0,0-1.319-.377.278.278,0,1,1,.112-.545,9.686,9.686,0,0,1,1.4.4.278.278,0,0,1-.1.539Zm-4.175-.537a.278.278,0,0,1-.027-.555,9.685,9.685,0,0,1,1.456-.034.278.278,0,1,1-.029.555,9.135,9.135,0,0,0-1.372.032Z" transform="translate(-423.703 -695.843)" fill="#fff"/>
            </g>
            <g id="Grupo_66301" data-name="Grupo 66301" transform="translate(16.718 7.907)">
              <path id="Trazado_115610" data-name="Trazado 115610" d="M546.36,760.385a.278.278,0,0,1-.277-.257c-.017-.222-.043-.448-.077-.67a.278.278,0,1,1,.55-.084c.036.236.064.475.082.711a.278.278,0,0,1-.256.3Z" transform="translate(-546.003 -759.139)" fill="#fff"/>
            </g>
          </g>
        </g>
      </g>
      <g id="Grupo_66315" data-name="Grupo 66315" transform="translate(32.678 26.429)">
        <g id="Grupo_66305" data-name="Grupo 66305" transform="translate(4.434 3.368)">
          <path id="Trazado_115611" data-name="Trazado 115611" d="M696.38,850.3a.414.414,0,0,1-.223-.068.6.6,0,0,1-.195-.514l.365-3.6h-.7c-.255,0-.33-.189-.4-.415a.372.372,0,0,0-.032-.072.5.5,0,0,1-.048-.4l1.018-3.988c.044-.174.183-.3.288-.3.178,0,.26.161.3.161H700c.046,0,.123-.278.314-.278h.191l.085.273.117.253-.149.152-1.3,2.463a.375.375,0,0,0,0,.152c.008.019.026.046.045.046h.482c.052,0,.111.016.187.016a.363.363,0,0,1,.311.273.506.506,0,0,1-.073.488l-3.533,5.186A.365.365,0,0,1,696.38,850.3Zm.286-5.018h.124l.166.247-.014.158-.371,3.542,3.038-4.5h-.416c-.272,0-.385-.226-.452-.4a1.118,1.118,0,0,1,.025-.7l1.019-1.96h-3.14c-.014,0-.027.066-.04.064l-.915,3.625a1.016,1.016,0,0,1,.076.175c.006.022.015.031.024.031h.515c.023,0,.054-.029.1-.071l.02-.155Z" transform="translate(-695.129 -840.826)" fill="#fff"/>
        </g>
        <g id="Grupo_66314" data-name="Grupo 66314">
          <g id="Grupo_66309" data-name="Grupo 66309" transform="translate(0 7.895)">
            <g id="Grupo_66306" data-name="Grupo 66306" transform="translate(12.547 2.817)">
              <path id="Trazado_115612" data-name="Trazado 115612" d="M760.349,900.743a.278.278,0,0,1-.221-.447c.134-.175.262-.36.379-.55a.278.278,0,0,1,.473.293c-.127.205-.265.405-.41.6A.278.278,0,0,1,760.349,900.743Z" transform="translate(-760.071 -899.614)" fill="#fff"/>
            </g>
            <g id="Grupo_66307" data-name="Grupo 66307" transform="translate(0.586 2.057)">
              <path id="Trazado_115613" data-name="Trazado 115613" d="M671.653,898.141a.278.278,0,0,1-.026-.555,6.746,6.746,0,0,0,1.359-.271.278.278,0,1,1,.165.531,7.287,7.287,0,0,1-1.471.293Zm-1.442-.013-.031,0a7.34,7.34,0,0,1-1.466-.318.278.278,0,0,1,.173-.529,6.791,6.791,0,0,0,1.354.294.278.278,0,0,1-.03.555Zm4.184-.836a.278.278,0,0,1-.135-.521,6.829,6.829,0,0,0,.879-.582q.132-.1.258-.212a.278.278,0,1,1,.364.421q-.136.117-.279.229a7.36,7.36,0,0,1-.95.63A.277.277,0,0,1,674.395,897.292Zm-6.912-.056a.278.278,0,0,1-.139-.037,7.28,7.28,0,0,1-1.215-.879.278.278,0,0,1,.371-.415,6.71,6.71,0,0,0,1.122.811.278.278,0,0,1-.139.519Zm-2.139-1.911a.278.278,0,0,1-.224-.113,7.337,7.337,0,0,1-.764-1.291.278.278,0,0,1,.505-.233,6.762,6.762,0,0,0,.706,1.192.278.278,0,0,1-.224.444Z" transform="translate(-664.329 -893.527)" fill="#fff"/>
            </g>
            <g id="Grupo_66308" data-name="Grupo 66308">
              <path id="Trazado_115614" data-name="Trazado 115614" d="M660.036,878.3a.278.278,0,0,1-.271-.217c-.053-.233-.095-.473-.125-.712a.278.278,0,1,1,.552-.069c.028.221.066.442.115.657a.278.278,0,0,1-.272.34Z" transform="translate(-659.638 -877.061)" fill="#fff"/>
            </g>
          </g>
          <g id="Grupo_66313" data-name="Grupo 66313" transform="translate(1.327)">
            <g id="Grupo_66310" data-name="Grupo 66310" transform="translate(0 2.299)">
              <path id="Trazado_115615" data-name="Trazado 115615" d="M670.538,833.359a.278.278,0,0,1-.223-.444c.144-.193.3-.381.46-.558a.278.278,0,0,1,.411.375c-.149.164-.292.337-.424.515A.278.278,0,0,1,670.538,833.359Z" transform="translate(-670.26 -832.266)" fill="#fff"/>
            </g>
            <g id="Grupo_66311" data-name="Grupo 66311" transform="translate(1.498)">
              <path id="Trazado_115616" data-name="Trazado 115616" d="M693.19,818.83a.278.278,0,0,1-.258-.175,6.738,6.738,0,0,0-.633-1.206.278.278,0,1,1,.464-.307,7.272,7.272,0,0,1,.685,1.306.279.279,0,0,1-.258.382Zm-1.555-2.356a.277.277,0,0,1-.2-.082,6.726,6.726,0,0,0-1.054-.861.278.278,0,0,1,.306-.465,7.26,7.26,0,0,1,1.142.933.278.278,0,0,1-.2.475Zm-9.107-.7a.278.278,0,0,1-.165-.5,7.332,7.332,0,0,1,1.272-.747.278.278,0,0,1,.232.506,6.745,6.745,0,0,0-1.175.69A.277.277,0,0,1,682.528,815.771Zm6.751-.851a.277.277,0,0,1-.1-.02,6.788,6.788,0,0,0-1.31-.375.278.278,0,1,1,.1-.548,7.342,7.342,0,0,1,1.417.405.278.278,0,0,1-.1.537Zm-4.185-.324a.278.278,0,0,1-.062-.549,7.294,7.294,0,0,1,1.463-.183.275.275,0,0,1,.285.271.278.278,0,0,1-.271.285,6.774,6.774,0,0,0-1.352.169A.284.284,0,0,1,685.094,814.6Z" transform="translate(-682.25 -813.864)" fill="#fff"/>
            </g>
            <g id="Grupo_66312" data-name="Grupo 66312" transform="translate(12.552 5.779)">
              <path id="Trazado_115617" data-name="Trazado 115617" d="M771.1,861.368a.278.278,0,0,1-.277-.257c-.017-.221-.046-.444-.085-.662a.278.278,0,0,1,.548-.1c.042.236.073.477.092.717a.278.278,0,0,1-.256.3Z" transform="translate(-770.738 -860.122)" fill="#fff"/>
            </g>
          </g>
        </g>
      </g>
      <g id="Grupo_66326" data-name="Grupo 66326" transform="translate(30.174)">
        <g id="Grupo_66316" data-name="Grupo 66316" transform="translate(3.797 2.812)">
          <path id="Trazado_115618" data-name="Trazado 115618" d="M671.063,633a.353.353,0,0,1-.19-.059.4.4,0,0,1-.167-.373l.313-3.017h-.6c-.219,0-.282-.228-.338-.422-.011-.037-.02-.075-.028-.095a.468.468,0,0,1-.041-.355l.871-3.422c.038-.149.156-.276.247-.276.152,0,.223.118.261.118h2.772c.039,0,.106-.278.269-.278h.163l.073.27.1.234-.128.139-1.11,2.113a.732.732,0,0,0,0,.2c.006.016.022.107.038.107h.412c.044,0,.1-.052.16-.052a.273.273,0,0,1,.266.2.4.4,0,0,1-.063.4l-3.024,4.431A.3.3,0,0,1,671.063,633Zm.245-4.283h.106l.142.205-.012.132-.318,3,2.6-3.891h-.356a.4.4,0,0,1-.387-.31.834.834,0,0,1,.021-.557l.872-1.637h-2.688c-.012,0-.023.032-.034.031l-.783,3.091a1.155,1.155,0,0,1,.065.17c.005.019.013.047.02.047H671c.02,0,.046-.052.086-.087l.017-.14Z" transform="translate(-669.992 -624.818)" fill="#fff"/>
        </g>
        <g id="Grupo_66325" data-name="Grupo 66325">
          <g id="Grupo_66320" data-name="Grupo 66320" transform="translate(0 6.759)">
            <g id="Grupo_66317" data-name="Grupo 66317" transform="translate(10.741 2.412)">
              <path id="Trazado_115619" data-name="Trazado 115619" d="M725.808,676.682a.238.238,0,0,1-.189-.383c.115-.15.224-.308.324-.471a.238.238,0,0,1,.405.251c-.109.175-.227.347-.351.509A.237.237,0,0,1,725.808,676.682Z" transform="translate(-725.57 -675.716)" fill="#fff"/>
            </g>
            <g id="Grupo_66318" data-name="Grupo 66318" transform="translate(0.502 1.761)">
              <path id="Trazado_115620" data-name="Trazado 115620" d="M649.881,674.455a.238.238,0,0,1-.022-.475,5.778,5.778,0,0,0,1.163-.232.238.238,0,1,1,.141.455,6.246,6.246,0,0,1-1.259.251Zm-1.234-.011h-.027a6.283,6.283,0,0,1-1.255-.272.238.238,0,0,1,.148-.453,5.815,5.815,0,0,0,1.159.252.238.238,0,0,1-.026.475Zm3.581-.716a.238.238,0,0,1-.116-.446,5.845,5.845,0,0,0,.752-.5q.113-.089.221-.181a.238.238,0,0,1,.311.361q-.116.1-.239.2a6.3,6.3,0,0,1-.813.539A.237.237,0,0,1,652.228,673.728Zm-5.917-.048a.238.238,0,0,1-.119-.032,6.226,6.226,0,0,1-1.04-.752.238.238,0,1,1,.317-.355,5.741,5.741,0,0,0,.961.694.238.238,0,0,1-.119.445Zm-1.832-1.636a.238.238,0,0,1-.192-.1,6.281,6.281,0,0,1-.654-1.1.238.238,0,1,1,.433-.2,5.794,5.794,0,0,0,.6,1.021.238.238,0,0,1-.191.38Z" transform="translate(-643.612 -670.504)" fill="#fff"/>
            </g>
            <g id="Grupo_66319" data-name="Grupo 66319">
              <path id="Trazado_115621" data-name="Trazado 115621" d="M639.937,657.472a.238.238,0,0,1-.232-.185c-.045-.2-.081-.4-.107-.609a.238.238,0,0,1,.473-.059c.024.189.057.378.1.563a.238.238,0,0,1-.179.285A.233.233,0,0,1,639.937,657.472Z" transform="translate(-639.596 -656.41)" fill="#fff"/>
            </g>
          </g>
          <g id="Grupo_66324" data-name="Grupo 66324" transform="translate(1.136)">
            <g id="Grupo_66321" data-name="Grupo 66321" transform="translate(0 1.968)">
              <path id="Trazado_115622" data-name="Trazado 115622" d="M648.927,619a.238.238,0,0,1-.191-.38,6.148,6.148,0,0,1,.393-.478.238.238,0,1,1,.352.321c-.128.14-.25.289-.363.441A.238.238,0,0,1,648.927,619Z" transform="translate(-648.689 -618.063)" fill="#fff"/>
            </g>
            <g id="Grupo_66322" data-name="Grupo 66322" transform="translate(1.282)">
              <path id="Trazado_115623" data-name="Trazado 115623" d="M668.319,606.561a.238.238,0,0,1-.221-.15,5.773,5.773,0,0,0-.542-1.033.238.238,0,0,1,.4-.263,6.242,6.242,0,0,1,.586,1.118.239.239,0,0,1-.221.327Zm-1.332-2.017a.238.238,0,0,1-.169-.07,5.75,5.75,0,0,0-.9-.737.238.238,0,1,1,.262-.4,6.214,6.214,0,0,1,.978.8.238.238,0,0,1-.169.406Zm-7.8-.6a.238.238,0,0,1-.141-.43,6.271,6.271,0,0,1,1.089-.639.238.238,0,1,1,.2.433,5.776,5.776,0,0,0-1.005.591A.237.237,0,0,1,659.191,603.942Zm5.779-.728a.236.236,0,0,1-.088-.017,5.812,5.812,0,0,0-1.121-.321.238.238,0,1,1,.084-.469,6.276,6.276,0,0,1,1.213.347.238.238,0,0,1-.088.459Zm-3.583-.277a.238.238,0,0,1-.053-.47,6.254,6.254,0,0,1,1.253-.157.235.235,0,0,1,.244.232.238.238,0,0,1-.232.244,5.8,5.8,0,0,0-1.157.144A.235.235,0,0,1,661.388,602.937Z" transform="translate(-658.953 -602.309)" fill="#fff"/>
            </g>
            <g id="Grupo_66323" data-name="Grupo 66323" transform="translate(10.745 4.947)">
              <path id="Trazado_115624" data-name="Trazado 115624" d="M735.016,642.975a.238.238,0,0,1-.237-.22c-.015-.189-.039-.38-.072-.567a.238.238,0,1,1,.469-.084c.036.2.063.408.078.614a.238.238,0,0,1-.219.256Z" transform="translate(-734.703 -641.909)" fill="#fff"/>
            </g>
          </g>
        </g>
      </g>
    </g>
    <g id="Grupo_66333" data-name="Grupo 66333" transform="translate(537.119 286.175)">
      <path id="Trazado_115625" data-name="Trazado 115625" d="M1627.268,1457.974s.244,1.381.364,2.748a.942.942,0,0,1-.9,1.02c-1.82.076-5.714.223-7.111.161a.306.306,0,0,1-.27-.42h0a.685.685,0,0,1,.351-.37l6.431-2.956Z" transform="translate(-1605.816 -1391.797)" fill="url(#linear-gradient-53)"/>
      <path id="Trazado_115626" data-name="Trazado 115626" d="M1669.83,1449.693l-.2,1.651a2.049,2.049,0,0,1-1.9-.066l.467-1.84Z" transform="translate(-1648.178 -1384.328)" fill="url(#linear-gradient-54)"/>
      <path id="Trazado_115627" data-name="Trazado 115627" d="M1670.632,1202.92c.085.431.454,21.524-1.8,30.976a.321.321,0,0,0,.188.373,5.585,5.585,0,0,0,1.836.373.552.552,0,0,0,.548-.4,108.444,108.444,0,0,0,4.135-23.677c.45-11.729,0-.4,0-.4l-.264-7.25Z" transform="translate(-1649.127 -1168.605)" fill="url(#linear-gradient-55)"/>
      <path id="Trazado_115628" data-name="Trazado 115628" d="M1724.032,1463.74a9.941,9.941,0,0,1,.764,2.549.575.575,0,0,1-.506.688c-.6.059-1.526.135-2.267.13a.573.573,0,0,1-.567-.639,4.831,4.831,0,0,1,1.128-2.65Z" transform="translate(-1695.181 -1396.843)" fill="url(#linear-gradient-56)"/>
      <path id="Trazado_115629" data-name="Trazado 115629" d="M1732.183,1446.056l-.458,2.5a1.615,1.615,0,0,1-1.348.093l.218-2.687Z" transform="translate(-1702.992 -1381.283)" fill="url(#linear-gradient-57)"/>
      <path id="Trazado_115630" data-name="Trazado 115630" d="M1690.922,1199.93c1.844,11.128-.4,27.505-1.157,30.71a.5.5,0,0,1-.4.379,3.357,3.357,0,0,1-1.442-.057.459.459,0,0,1-.329-.422c-.1-2.591.081-18.5-1.637-24.787a1.428,1.428,0,0,0-.551-.788l-3.335-2.371-.256-3.832Z" transform="translate(-1660.494 -1164.969)" fill="url(#linear-gradient-58)"/>
      <g id="Grupo_66328" data-name="Grupo 66328" transform="translate(2.356 5.317)">
        <path id="Trazado_115631" data-name="Trazado 115631" d="M1604.807,1032.991a51.946,51.946,0,0,1,11.623,1.451c1.647,9.611.288,20.7.288,20.7-4.278,1.122-9.1-.686-9.1-.686-.711-4.017-4.029-15.323-4.029-15.323a18.2,18.2,0,0,1-6.756-2.144,11.849,11.849,0,0,0,2.342-4.9A18.536,18.536,0,0,0,1604.807,1032.991Z" transform="translate(-1588.484 -1024.433)" fill="url(#linear-gradient-59)"/>
        <path id="Trazado_115632" data-name="Trazado 115632" d="M1530.025,971.231a1.057,1.057,0,0,1,1.23-.346c.813,3.435,5.077,6.22,9.458,7.582a11.851,11.851,0,0,1-2.342,4.9C1531.1,979.278,1530.025,971.231,1530.025,971.231Z" transform="translate(-1530.025 -970.812)" fill="url(#linear-gradient-60)"/>
      </g>
      <g id="Grupo_66329" data-name="Grupo 66329">
        <path id="Trazado_115633" data-name="Trazado 115633" d="M1513.655,934.154c-.057.181.6.456.988-.283a6.963,6.963,0,0,0,.017-2.159,28.243,28.243,0,0,0-3.31-3.461.52.52,0,0,0-.065.722l1.059,1.1a5.132,5.132,0,0,0-.619,1.223,1.484,1.484,0,0,0,.148,1.093c.186.335.44.771.679,1.111A1.466,1.466,0,0,0,1513.655,934.154Z" transform="translate(-1511.167 -928.252)" fill="url(#linear-gradient-61)"/>
        <path id="Trazado_115634" data-name="Trazado 115634" d="M1522.8,948.6l.965.818.3.815-.861.955a11.108,11.108,0,0,0-.5-1.967C1522.492,948.87,1522.6,948.7,1522.8,948.6Z" transform="translate(-1521.163 -946.056)" fill="url(#linear-gradient-62)"/>
      </g>
      <path id="Trazado_115635" data-name="Trazado 115635" d="M1736.758,1056.284l2.12-5.351s5.162,3.507,6.01,7.954a12.217,12.217,0,0,0-4.487,1.2C1740.019,1057.99,1736.758,1056.284,1736.758,1056.284Z" transform="translate(-1708.576 -1035.607)" fill="url(#linear-gradient-63)"/>
      <path id="Trazado_115636" data-name="Trazado 115636" d="M1695.28,1117.032s5.8,3.275,7.75.479a2.2,2.2,0,0,0,.4-1.708,12.218,12.218,0,0,1,4.487-1.2,6.137,6.137,0,0,1-.667,4.207c-3.425,6.266-12.741-.346-12.741-.346Z" transform="translate(-1671.608 -1091.32)" fill="url(#linear-gradient-64)"/>
      <g id="Grupo_66330" data-name="Grupo 66330" transform="translate(9.891 16.82)">
        <path id="Trazado_115637" data-name="Trazado 115637" d="M1604.817,1083.438l-3.163-11.045a.322.322,0,0,0-.272-.232c-.573-.067-2.234-.255-4.151-.417a47.09,47.09,0,0,0-6.594-.219.323.323,0,0,0-.264.465c.911,1.844,4.66,9.343,6.537,11.8a.324.324,0,0,0,.261.128l7.338-.068A.323.323,0,0,0,1604.817,1083.438Z" transform="translate(-1590.339 -1070.402)" fill="#bdd0fb"/>
        <path id="Trazado_115638" data-name="Trazado 115638" d="M1625.471,1063.272l-2.293-.382a.165.165,0,0,0-.183.214l.227.688a.164.164,0,0,0,.134.112l2.207.295a.164.164,0,0,0,.182-.2l-.14-.6A.164.164,0,0,0,1625.471,1063.272Z" transform="translate(-1618.908 -1062.887)" fill="url(#linear-gradient-65)"/>
        <path id="Trazado_115639" data-name="Trazado 115639" d="M1619.7,1070.026l-.189-.984a.228.228,0,0,0-.2-.183l-4.631-.47a.228.228,0,0,0-.244.279l.295,1.226a.227.227,0,0,0,.21.174l4.526.228A.227.227,0,0,0,1619.7,1070.026Z" transform="translate(-1611.417 -1067.7)" fill="url(#linear-gradient-66)"/>
        <path id="Trazado_115640" data-name="Trazado 115640" d="M1672.731,1119.495a8.039,8.039,0,0,0,.263-2.454c-.178-.643-.522-1.469-1.67-1.285a16.8,16.8,0,0,0-2.5.667.657.657,0,0,0,.941.567l-.541.419s.077.67.814.312l-.5.555a.586.586,0,0,0,.859.2C1670.933,1118.119,1671.193,1119.713,1672.731,1119.495Z" transform="translate(-1659.017 -1109.128)" fill="url(#linear-gradient-67)"/>
      </g>
      <path id="Trazado_115641" data-name="Trazado 115641" d="M1680.42,1003.408l1.758,5.085a.184.184,0,0,1-.083.221,4.134,4.134,0,0,1-4.287-.288.862.862,0,0,1-.4-.616l-.569-4.4Z" transform="translate(-1656.144 -994.019)" fill="url(#linear-gradient-68)"/>
      <g id="Grupo_66331" data-name="Grupo 66331" transform="translate(18.745 2.065)">
        <path id="Trazado_115642" data-name="Trazado 115642" d="M1662.921,965.716s-1.931,3.635-1.683,5.1,2.64,1.363,4.73.17l1.46-3.924Z" transform="translate(-1661.216 -963.101)" fill="url(#linear-gradient-69)"/>
        <path id="Trazado_115643" data-name="Trazado 115643" d="M1671.048,950.745a.15.15,0,0,1-.065-.219,3.915,3.915,0,0,0,.537-1.141s.347-.222-.884-.517-3.065-.752-3.451-1.8c-.376-1.021,1.156-2.658,2.188-1.543a.153.153,0,0,0,.237,0,1.544,1.544,0,0,1,1.881-.611,1.416,1.416,0,0,1,.97,1.369.149.149,0,0,0,.176.153,1.727,1.727,0,0,1,2.017.94,1.389,1.389,0,0,1-.1,1.668.149.149,0,0,0,.064.248.9.9,0,0,1,.634,1.026c-.052.95-1.115.866-1.417.823a.15.15,0,0,0-.133.047,5.105,5.105,0,0,1-2.692,1.652.151.151,0,0,1-.158-.2l.547-1.591a.151.151,0,0,0-.082-.186Z" transform="translate(-1666.388 -944.785)" fill="url(#linear-gradient-70)"/>
        <path id="Trazado_115644" data-name="Trazado 115644" d="M1693.771,991.033s1.375-.943,1.475-.149-1.238,1.15-1.9.854Z" transform="translate(-1689.331 -984.847)" fill="url(#linear-gradient-71)"/>
      </g>
      <g id="Grupo_66332" data-name="Grupo 66332" transform="translate(18.178 0.39)">
        <path id="Trazado_115645" data-name="Trazado 115645" d="M1668.735,936.916a4.335,4.335,0,0,1,6.1-1.523c3.914,2.26,1.8,5.037,1.8,5.037Z" transform="translate(-1667.229 -934.261)" fill="url(#linear-gradient-72)"/>
        <path id="Trazado_115646" data-name="Trazado 115646" d="M1676.76,934.229s-4.716-3.765-6.945.281c-.911-.4-1.081-.481-1.081-.481s1.979-3.624,4.678-2.4S1676.765,933.432,1676.76,934.229Z" transform="translate(-1667.229 -931.375)" fill="url(#linear-gradient-73)"/>
        <path id="Trazado_115647" data-name="Trazado 115647" d="M1689.566,956.727a.049.049,0,0,0,.044,0l.031-.017c.7-.376,1.877-1,2.657-.682a7.279,7.279,0,0,1,1.1.616c.25.16.508.325.767.461.353.185.741.384,1.187.606h0a.049.049,0,0,0,.042-.087c-.445-.222-.833-.42-1.185-.6-.256-.134-.512-.3-.76-.456a7.541,7.541,0,0,0-1.111-.624c-.823-.34-2.023.3-2.74.686l-.031.016a.049.049,0,0,0,0,.087Z" transform="translate(-1685.433 -952.785)" fill="#fff"/>
        <path id="Trazado_115648" data-name="Trazado 115648" d="M1666.074,956.714l-9.3-3.577a.148.148,0,0,1,.008-.279,3.2,3.2,0,0,1,1.592-.229c1.02.456,7.714,3.473,7.714,3.473S1666.253,956.18,1666.074,956.714Z" transform="translate(-1656.678 -949.933)" fill="url(#linear-gradient-74)"/>
      </g>
    </g>
    <g id="Grupo_66338" data-name="Grupo 66338" transform="translate(510.613 292.759)">
      <g id="Grupo_66337" data-name="Grupo 66337" transform="translate(0 0)">
        <g id="Grupo_66335" data-name="Grupo 66335">
          <path id="Trazado_115649" data-name="Trazado 115649" d="M1310.988,1030l-2.046,6.489a5.135,5.135,0,0,1-5.4.08,7.705,7.705,0,0,1-1.434-1.026c-3.675-3.28-1.237-8.051-1.237-8.051s-2.8-1.132-1.558-3.512a.2.2,0,0,1,.376.041,3.36,3.36,0,0,0,1.552,2.212c.048.019.092.042.134.061a.481.481,0,0,0-.057-.427c-.29-.44.233-1.042.233-1.042a1.341,1.341,0,0,0,.437.864,1.3,1.3,0,0,1,.277,1.453c-.5,1.951-1.256,4.529,1.673,6.416a2.431,2.431,0,0,0,.931.36C1307.664,1034.383,1310.988,1030,1310.988,1030Z" transform="translate(-1298.991 -1018.507)" fill="url(#linear-gradient-75)"/>
          <path id="Trazado_115650" data-name="Trazado 115650" d="M1342.849,1072.929l-2.046,6.489a5.136,5.136,0,0,1-5.4.08l1.326-2.652C1339.524,1077.314,1342.849,1072.929,1342.849,1072.929Z" transform="translate(-1330.851 -1061.439)" fill="url(#linear-gradient-76)"/>
          <path id="Trazado_115651" data-name="Trazado 115651" d="M1386.283,987.381s-1.159-4.035,3.176-2.926c0,0,2.124-.3,2.184,1.7a6.491,6.491,0,0,1,.957,3.088s4.174,1.079,4.832,2.751c.674,1.712.3,4.43-1.414,4.9a1.7,1.7,0,0,1,.673,2.272c-.689,1.548-4.02,2.572-5.928.625,0,0-5.572.6-5.369-3.318,0,0-2.544-1.729.246-4.908S1386.283,987.381,1386.283,987.381Z" transform="translate(-1373.672 -983.849)" fill="url(#linear-gradient-77)"/>
          <path id="Trazado_115652" data-name="Trazado 115652" d="M1373.381,1065.575a5.981,5.981,0,0,1,5.853,1.492,1.5,1.5,0,0,1,.433,1.5c-.652,2.4-2.371,9.488-.863,12.555,0,0-2.657,2.929-5.555.568,0,0-1.3-5.668-3-8.156-1.176-1.718,1.875-6.451,2.647-7.594A.9.9,0,0,1,1373.381,1065.575Z" transform="translate(-1361.11 -1054.799)" fill="url(#linear-gradient-78)"/>
          <path id="Trazado_115653" data-name="Trazado 115653" d="M1406.432,1030.059a29.841,29.841,0,0,1,1.393,5.282,2.771,2.771,0,0,1-2.781-.448,40.742,40.742,0,0,0-.346-4.316Z" transform="translate(-1391.492 -1023.924)" fill="url(#linear-gradient-79)"/>
          <path id="Trazado_115654" data-name="Trazado 115654" d="M1385.1,999.981s-3.5,4.662-1.507,6.086,4.484-1.888,4.484-1.888.847-2.577.046-3.476S1385.1,999.981,1385.1,999.981Z" transform="translate(-1372.486 -997.591)" fill="url(#linear-gradient-80)"/>
          <path id="Trazado_115655" data-name="Trazado 115655" d="M1400,990.964s-1.565.332-1.8,1.031,2.175,1.409,2.854,1.457l.481,2.855s1.681-2.635,1.076-4.194S1400,990.964,1400,990.964Z" transform="translate(-1385.789 -989.671)" fill="url(#linear-gradient-81)"/>
          <path id="Trazado_115656" data-name="Trazado 115656" d="M1418.589,1024.907s1.355-1.5,1.856-.488-1.228,1.715-1.809,1.212Z" transform="translate(-1403.648 -1018.684)" fill="url(#linear-gradient-82)"/>
          <path id="Trazado_115657" data-name="Trazado 115657" d="M1363.945,1291.442c.01.257-.442,2.3-.688,3.387a1.793,1.793,0,0,0,.193,1.286l8.515,14.331a1.955,1.955,0,0,1,.224.557,12.3,12.3,0,0,1,.311,3.82l-.44.915,1.905-.433.414-5.116-.539-.329a2.564,2.564,0,0,1-1.036-1.213,73.1,73.1,0,0,1-3.175-8.951c-.56-2.637-3.488-4.779-3.488-4.779l.514-1.216Z" transform="translate(-1355.19 -1252.654)" fill="url(#linear-gradient-83)"/>
          <path id="Trazado_115658" data-name="Trazado 115658" d="M1434.03,1442.131a11.63,11.63,0,0,1-1.15-2.266c-.121-.635-.458-1.756-1.092-1.419a37.252,37.252,0,0,0-.2,4.289c.1,1.2-1.362,1.166-1.362,1.166a1.369,1.369,0,0,0-.7.352.343.343,0,0,0,.23.577,8.244,8.244,0,0,0,2.041-.115.624.624,0,0,0,.5-.576l.211-3.55,1.3,1.638Z" transform="translate(-1413.139 -1381.239)" fill="url(#linear-gradient-84)"/>
          <path id="Trazado_115659" data-name="Trazado 115659" d="M1397.379,1307.3s.3,12.819.341,14.64-.288,5.855-2.113,7.061l.794.588a10.607,10.607,0,0,0,1.962-2.467,15.027,15.027,0,0,1,1.418-2.157l-.361-.74a1.628,1.628,0,0,1-.132-1.044c.394-1.909,1.709-8.258,2.069-9.625a6.159,6.159,0,0,0-1.02-5.574C1398.863,1306.173,1397.379,1307.3,1397.379,1307.3Z" transform="translate(-1383.537 -1266.225)" fill="url(#linear-gradient-85)"/>
          <path id="Trazado_115660" data-name="Trazado 115660" d="M1392.8,1454.168a.112.112,0,0,0,.113-.1,16.59,16.59,0,0,1,.521-2.584c.237-.508,1.011-2.646,0-2.828,0,0-2.515,3.674-3,4.17a.947.947,0,0,1-1.092.173,1.818,1.818,0,0,0-.825.592.333.333,0,0,0,.262.535l1.694.016a1.192,1.192,0,0,0,1.117-.751,6.362,6.362,0,0,1,1.407-2.322l-.31,2.97A.113.113,0,0,0,1392.8,1454.168Z" transform="translate(-1377.269 -1390.23)" fill="url(#linear-gradient-86)"/>
          <path id="Trazado_115661" data-name="Trazado 115661" d="M1365.923,1179.241a6.015,6.015,0,0,1-.2,3.221l-3.638,12.7a.393.393,0,0,0,.246.479,24.266,24.266,0,0,0,9.548,1.158.554.554,0,0,0,.505-.432c.322-1.448,1.42-6.39,1.646-7.405.861-3.869,1.823-8.041-2.407-10.564A8.7,8.7,0,0,1,1365.923,1179.241Z" transform="translate(-1354.185 -1153.735)" fill="url(#linear-gradient-87)"/>
          <g id="Grupo_66334" data-name="Grupo 66334" transform="translate(10.463)">
            <path id="Trazado_115662" data-name="Trazado 115662" d="M1392.874,986.031a3.805,3.805,0,0,1,5.142-2.016c3.663,1.524,2.134,4.181,2.134,4.181Z" transform="translate(-1391.608 -983.299)" fill="url(#linear-gradient-88)"/>
            <path id="Trazado_115663" data-name="Trazado 115663" d="M1399.882,982.951s-4.531-2.743-6.013,1.031c-.838-.246-1-.3-1-.3s1.312-3.378,3.8-2.622S1399.8,982.257,1399.882,982.951Z" transform="translate(-1391.608 -980.954)" fill="url(#linear-gradient-89)"/>
            <path id="Trazado_115664" data-name="Trazado 115664" d="M1417.283,1002.349a.039.039,0,0,1-.014,0c-.406-.14-.766-.269-1.1-.393-.24-.089-.483-.2-.718-.313a6.355,6.355,0,0,0-1.025-.413c-.714-.193-1.667.487-2.235.894l-.025.017a.044.044,0,0,1-.061-.01.043.043,0,0,1,.01-.061l.024-.017c.581-.415,1.553-1.111,2.309-.907a6.454,6.454,0,0,1,1.04.418c.233.11.474.223.711.311.335.124.7.252,1.1.392a.044.044,0,0,1-.014.085Z" transform="translate(-1408.428 -998.59)" fill="url(#linear-gradient-90)"/>
            <path id="Trazado_115665" data-name="Trazado 115665" d="M1391.342,1005.506l-8.5-2.061a.13.13,0,0,1-.025-.244,2.813,2.813,0,0,1,1.359-.379c.939.282,7.107,2.15,7.107,2.15S1391.438,1005.021,1391.342,1005.506Z" transform="translate(-1382.743 -1000.076)" fill="url(#linear-gradient-91)"/>
          </g>
          <path id="Trazado_115666" data-name="Trazado 115666" d="M1437.492,1087.221s.028,0,.028,0a9.4,9.4,0,0,0-2.892-.373s-1.768-2.559-2.367-3.194l-.056-.055c-.013-.013-.026-.026-.046-.043-.219-.2-.452-.406-.7-.615a2.2,2.2,0,0,1-.635-.867c-.936-2.356-.2-3.9,1.506-2.91a18,18,0,0,1,4.994,7.224c.016.052.029.1.046.151.056.2.111.383.16.556,0,.013-.011.032-.007.045C1437.53,1087.167,1437.483,1087.192,1437.492,1087.221Z" transform="translate(-1413.994 -1066.627)" fill="url(#linear-gradient-92)"/>
        </g>
        <path id="Trazado_115667" data-name="Trazado 115667" d="M1412,1143.167s4.18,2.363,5.591.345a5.042,5.042,0,0,0,.441-2.258c1.253-.633,2.2.3,2.9.245a4.077,4.077,0,0,1-.294,2.948c-2.471,4.52-9.191-.25-9.191-.25Z" transform="translate(-1397.399 -1121.034)" fill="url(#linear-gradient-93)"/>
        <g id="Grupo_66336" data-name="Grupo 66336" transform="translate(4.661 15.718)">
          <path id="Trazado_115668" data-name="Trazado 115668" d="M1346.744,1121.594l-2.281-7.968a.232.232,0,0,0-.2-.167c-.413-.048-1.611-.184-2.994-.3a33.918,33.918,0,0,0-4.756-.158.233.233,0,0,0-.191.335,79.689,79.689,0,0,0,4.716,8.512.234.234,0,0,0,.188.092l5.293-.049A.233.233,0,0,0,1346.744,1121.594Z" transform="translate(-1336.3 -1112.19)" fill="#91b3fa"/>
          <path id="Trazado_115669" data-name="Trazado 115669" d="M1361.644,1107.046l-1.654-.276a.119.119,0,0,0-.132.154l.164.5a.118.118,0,0,0,.1.081l1.592.213a.119.119,0,0,0,.131-.145l-.1-.433A.119.119,0,0,0,1361.644,1107.046Z" transform="translate(-1356.909 -1106.769)" fill="#bdd0fb"/>
          <path id="Trazado_115670" data-name="Trazado 115670" d="M1357.479,1111.918l-.136-.71a.164.164,0,0,0-.145-.132l-3.341-.339a.164.164,0,0,0-.176.2l.213.885a.164.164,0,0,0,.151.125l3.265.164A.164.164,0,0,0,1357.479,1111.918Z" transform="translate(-1351.505 -1110.24)" fill="#bdd0fb"/>
          <path id="Trazado_115671" data-name="Trazado 115671" d="M1395.735,1147.6a5.8,5.8,0,0,0,.19-1.77c-.128-.464-.377-1.06-1.2-.927a12.125,12.125,0,0,0-1.8.481.474.474,0,0,0,.679.409l-.39.3s.056.484.587.225l-.363.4a.423.423,0,0,0,.619.143C1394.438,1146.612,1394.626,1147.761,1395.735,1147.6Z" transform="translate(-1385.842 -1140.125)" fill="url(#linear-gradient-94)"/>
        </g>
      </g>
    </g>
    <g id="Grupo_66341" data-name="Grupo 66341" transform="translate(514.904 256.58)">
      <g id="Grupo_66339" data-name="Grupo 66339" transform="translate(21.1)">
        <path id="Trazado_115672" data-name="Trazado 115672" d="M1502.537,796.891c.2.089.42.175.633.257s.43.161.647.237a.212.212,0,0,1-.14.4q-.331-.115-.659-.24c-.22-.084-.435-.169-.656-.266a.213.213,0,0,1,.17-.39h0Z" transform="translate(-1502.235 -783.689)" fill="#91b3fa"/>
        <path id="Trazado_115673" data-name="Trazado 115673" d="M1523.487,804.285l1.334.359.01,0a.211.211,0,0,1-.109.407l-1.353-.363a.211.211,0,0,1,.109-.408h0Z" transform="translate(-1520.591 -790.168)" fill="#91b3fa"/>
        <path id="Trazado_115674" data-name="Trazado 115674" d="M1545.1,809.568l1.361.232.01,0a.209.209,0,0,1-.07.412l-1.381-.234a.21.21,0,1,1,.07-.414h0Z" transform="translate(-1539.526 -794.795)" fill="#91b3fa"/>
        <path id="Trazado_115675" data-name="Trazado 115675" d="M1567.157,812.771q.687.065,1.376.092a.208.208,0,0,1-.016.415q-.7-.027-1.4-.093a.208.208,0,1,1,.039-.415Z" transform="translate(-1558.848 -797.601)" fill="#91b3fa"/>
        <path id="Trazado_115676" data-name="Trazado 115676" d="M1589.384,813.171q.689-.012,1.376-.067a.206.206,0,0,1,.033.411q-.7.057-1.4.069a.207.207,0,1,1-.008-.414Z" transform="translate(-1578.319 -797.893)" fill="#91b3fa"/>
        <path id="Trazado_115677" data-name="Trazado 115677" d="M1611.547,810.1q.681-.1,1.354-.248a.2.2,0,0,1,.088.4q-.686.152-1.382.254a.206.206,0,1,1-.06-.407Z" transform="translate(-1597.738 -795.047)" fill="#91b3fa"/>
        <path id="Trazado_115678" data-name="Trazado 115678" d="M1633.253,803.91q.658-.2,1.3-.446a.2.2,0,0,1,.147.38q-.656.255-1.33.457a.2.2,0,1,1-.118-.391Z" transform="translate(-1616.758 -789.446)" fill="#91b3fa"/>
        <path id="Trazado_115679" data-name="Trazado 115679" d="M1653.94,794.588l1.229-.63.008,0a.2.2,0,0,1,.185.36l-1.246.639a.2.2,0,1,1-.185-.361h0Z" transform="translate(-1634.883 -781.117)" fill="#91b3fa"/>
        <path id="Trazado_115680" data-name="Trazado 115680" d="M1673.545,783.391l1.179-.724.006,0a.2.2,0,0,1,.21.342l-1.191.733a.2.2,0,1,1-.211-.343h0Z" transform="translate(-1652.054 -771.23)" fill="#91b3fa"/>
        <path id="Trazado_115681" data-name="Trazado 115681" d="M1692.285,770.77l1.118-.813.007-.005a.2.2,0,0,1,.235.322l-1.132.825a.2.2,0,1,1-.236-.323h0Z" transform="translate(-1668.464 -760.099)" fill="#91b3fa"/>
        <path id="Trazado_115682" data-name="Trazado 115682" d="M1709.983,756.468c.35-.3.692-.605,1.021-.925a.2.2,0,0,1,.276.284q-.5.49-1.039.944a.2.2,0,1,1-.258-.3Z" transform="translate(-1683.968 -747.475)" fill="#91b3fa"/>
        <path id="Trazado_115683" data-name="Trazado 115683" d="M1725.865,739.729a10.906,10.906,0,0,0,.829-1.086.2.2,0,1,1,.328.217,11.252,11.252,0,0,1-.858,1.126.2.2,0,1,1-.3-.257Z" transform="translate(-1697.885 -732.659)" fill="#91b3fa"/>
        <path id="Trazado_115684" data-name="Trazado 115684" d="M1737.891,719.524a4.611,4.611,0,0,0,.343-1.285.2.2,0,0,1,.388.041,5.01,5.01,0,0,1-.369,1.395.2.2,0,0,1-.362-.151Z" transform="translate(-1708.438 -714.727)" fill="#91b3fa"/>
        <path id="Trazado_115685" data-name="Trazado 115685" d="M1734.98,699.033a3.458,3.458,0,0,0-.238-.61,1.566,1.566,0,0,0-.393-.473.194.194,0,1,1,.248-.3,1.95,1.95,0,0,1,.49.591,3.863,3.863,0,0,1,.268.684.195.195,0,0,1-.374.107Z" transform="translate(-1705.291 -696.826)" fill="#91b3fa"/>
        <path id="Trazado_115686" data-name="Trazado 115686" d="M1714.853,691.909a5.092,5.092,0,0,0-1.325-.173.192.192,0,1,1,0-.385,5.49,5.49,0,0,1,1.427.185.193.193,0,0,1-.1.373Z" transform="translate(-1686.963 -691.351)" fill="#91b3fa"/>
        <path id="Trazado_115687" data-name="Trazado 115687" d="M1694.785,693.343a2.36,2.36,0,0,0-.579.275,1.46,1.46,0,0,0-.237.2c-.069.068-.132.165-.2.247l-.018.023a.19.19,0,0,1-.3-.24,3.592,3.592,0,0,1,.237-.294,1.84,1.84,0,0,1,.3-.248,2.736,2.736,0,0,1,.673-.321.192.192,0,1,1,.122.364Z" transform="translate(-1669.531 -692.767)" fill="#91b3fa"/>
        <path id="Trazado_115688" data-name="Trazado 115688" d="M1690.483,709.943a3.437,3.437,0,0,0,.251,1.285.19.19,0,1,1-.355.135,3.814,3.814,0,0,1-.277-1.429.19.19,0,1,1,.381.008Z" transform="translate(-1666.632 -707.449)" fill="#91b3fa"/>
        <path id="Trazado_115689" data-name="Trazado 115689" d="M1697.6,730.634a8.9,8.9,0,0,0,.8,1.1.188.188,0,0,1-.286.245,9.308,9.308,0,0,1-.839-1.144.189.189,0,0,1,.321-.2Z" transform="translate(-1672.891 -725.648)" fill="#91b3fa"/>
        <path id="Trazado_115690" data-name="Trazado 115690" d="M1711.972,747.492a11.155,11.155,0,0,0,1.08.839.187.187,0,0,1-.211.309,11.548,11.548,0,0,1-1.117-.866.188.188,0,0,1,.248-.282Z" transform="translate(-1685.497 -740.438)" fill="#91b3fa"/>
        <path id="Trazado_115691" data-name="Trazado 115691" d="M1730.251,760.082q.6.327,1.237.6a.186.186,0,0,1-.147.341c-.43-.185-.854-.388-1.267-.611a.186.186,0,1,1,.177-.328Z" transform="translate(-1701.525 -751.476)" fill="#91b3fa"/>
        <path id="Trazado_115692" data-name="Trazado 115692" d="M1750.64,768.936q.651.226,1.317.409a.184.184,0,1,1-.1.355q-.676-.186-1.34-.414a.185.185,0,1,1,.121-.349Z" transform="translate(-1719.392 -759.235)" fill="#91b3fa"/>
        <path id="Trazado_115693" data-name="Trazado 115693" d="M1772.073,774.9q.674.147,1.357.254a.183.183,0,0,1-.057.361q-.692-.108-1.378-.257a.183.183,0,0,1,.078-.359Z" transform="translate(-1738.168 -764.461)" fill="#91b3fa"/>
        <path id="Trazado_115694" data-name="Trazado 115694" d="M1794.047,778.372q.687.069,1.378.1a.181.181,0,0,1-.017.362q-.7-.033-1.4-.1a.182.182,0,0,1,.036-.362Z" transform="translate(-1757.416 -767.5)" fill="#91b3fa"/>
        <path id="Trazado_115695" data-name="Trazado 115695" d="M1816.244,779.214l1.382-.033h.008a.18.18,0,1,1,.009.36l-1.4.035a.181.181,0,0,1-.009-.361h.009Z" transform="translate(-1776.854 -768.208)" fill="#91b3fa"/>
        <path id="Trazado_115696" data-name="Trazado 115696" d="M1838.484,777.4l1.377-.146h.006a.179.179,0,1,1,.038.355l-1.389.149a.179.179,0,0,1-.038-.357h.007Z" transform="translate(-1796.331 -766.521)" fill="#91b3fa"/>
        <path id="Trazado_115697" data-name="Trazado 115697" d="M1860.58,774.044l1.366-.235h0a.177.177,0,0,1,.06.349l-1.375.238a.178.178,0,1,1-.061-.35h.005Z" transform="translate(-1815.679 -763.505)" fill="#91b3fa"/>
        <path id="Trazado_115698" data-name="Trazado 115698" d="M1882.476,769.53l1.354-.3h0a.176.176,0,1,1,.076.343l-1.361.3a.176.176,0,1,1-.077-.344h0Z" transform="translate(-1834.849 -759.496)" fill="#91b3fa"/>
        <path id="Trazado_115699" data-name="Trazado 115699" d="M1904.179,764.217l1.346-.344h0a.174.174,0,0,1,.087.338l-1.349.346a.175.175,0,1,1-.087-.339h0Z" transform="translate(-1853.848 -754.808)" fill="#91b3fa"/>
        <path id="Trazado_115700" data-name="Trazado 115700" d="M1925.733,758.434l1.341-.367a.173.173,0,1,1,.092.333l-1.342.369a.174.174,0,0,1-.092-.335Z" transform="translate(-1872.714 -749.727)" fill="#91b3fa"/>
        <path id="Trazado_115701" data-name="Trazado 115701" d="M1947.21,752.49l1.341-.372a.172.172,0,1,1,.092.331l-1.34.373a.172.172,0,0,1-.093-.332Z" transform="translate(-1891.51 -744.521)" fill="#91b3fa"/>
        <path id="Trazado_115702" data-name="Trazado 115702" d="M1968.686,746.686l1.346-.357a.17.17,0,0,1,.087.329h0l-1.343.358h0a.171.171,0,0,1-.088-.33Z" transform="translate(-1910.302 -739.455)" fill="#91b3fa"/>
        <path id="Trazado_115703" data-name="Trazado 115703" d="M1990.248,741.329l1.356-.323a.169.169,0,1,1,.078.328h0l-1.35.323h0a.17.17,0,0,1-.079-.33Z" transform="translate(-1929.167 -734.798)" fill="#91b3fa"/>
        <path id="Trazado_115704" data-name="Trazado 115704" d="M2011.964,736.745l1.369-.269a.167.167,0,1,1,.064.329h0l-1.361.268h0a.168.168,0,0,1-.065-.33Z" transform="translate(-1948.166 -730.837)" fill="#91b3fa"/>
        <path id="Trazado_115705" data-name="Trazado 115705" d="M2033.881,733.291l1.383-.191a.166.166,0,1,1,.045.329h-.005l-1.372.19h-.005a.167.167,0,0,1-.046-.33Z" transform="translate(-1967.338 -727.883)" fill="#91b3fa"/>
        <path id="Trazado_115706" data-name="Trazado 115706" d="M2056,731.343l1.395-.089a.165.165,0,0,1,.021.329h-.007l-1.381.089h-.007a.165.165,0,0,1-.021-.33Z" transform="translate(-1986.687 -726.269)" fill="#91b3fa"/>
        <path id="Trazado_115707" data-name="Trazado 115707" d="M2078.28,731l1.4.017a.159.159,0,0,1,0,.318h-.005l-1.385-.01h-.006a.162.162,0,1,1,0-.324Z" transform="translate(-2006.173 -726.05)" fill="#91b3fa"/>
        <path id="Trazado_115708" data-name="Trazado 115708" d="M2100.612,731.711q.7.051,1.392.136a.153.153,0,0,1-.037.3q-.687-.082-1.377-.129a.156.156,0,1,1,.021-.311Z" transform="translate(-2025.712 -726.669)" fill="#91b3fa"/>
        <path id="Trazado_115709" data-name="Trazado 115709" d="M2122.766,734.478q.688.126,1.369.3a.146.146,0,0,1-.071.284q-.67-.165-1.351-.285a.149.149,0,1,1,.052-.294Z" transform="translate(-2045.09 -729.088)" fill="#91b3fa"/>
        <path id="Trazado_115710" data-name="Trazado 115710" d="M2144.415,739.929q.666.22,1.313.494a.14.14,0,0,1-.109.258q-.636-.266-1.293-.479a.143.143,0,1,1,.088-.272Z" transform="translate(-2064.025 -733.854)" fill="#91b3fa"/>
      </g>
      <g id="Grupo_66340" data-name="Grupo 66340" transform="translate(0 4.029)">
        <path id="Trazado_115711" data-name="Trazado 115711" d="M1468.941,764.579l-.227,4.4-2.883-2.046Z" transform="translate(-1449.278 -759.46)" fill="#7d97f4"/>
        <path id="Trazado_115712" data-name="Trazado 115712" d="M1333.338,725.175l11.348,11.04a1.115,1.115,0,0,0,1.606-.052l10.656-11.811a.447.447,0,0,0-.362-.746Z" transform="translate(-1333.338 -723.605)" fill="#91b3fa"/>
        <path id="Trazado_115713" data-name="Trazado 115713" d="M1353,739.721l-19.661-3.549,17.947,5.461-.011,1.223Z" transform="translate(-1333.338 -734.602)" fill="#7d97f4"/>
        <path id="Trazado_115714" data-name="Trazado 115714" d="M1468.8,781.009l2.512,1.364-1.488-2.49Z" transform="translate(-1451.875 -772.853)" fill="#7d97f4"/>
      </g>
    </g>
  </g>
</svg>
