<svg xmlns="http://www.w3.org/2000/svg" width="127.022" height="194.108" viewBox="0 0 127.022 194.108">
  <g id="Grupo_64242" data-name="Grupo 64242" transform="translate(-839.917 -218.692)">
    <path id="Trazado_110712" data-name="Trazado 110712" d="M966.939,268.657h-37.2l31.014-49.965H896.677L861.156,306.1h28.039L839.917,412.8Z" fill="#f8ce0b"/>
    <g id="Grupo_64237" data-name="Grupo 64237" transform="translate(867.367 220.605)" style="mix-blend-mode: screen;isolation: isolate">
      <path id="Trazado_110713" data-name="Trazado 110713" d="M925.643,222.465c-2.24,6.671-4.667,13.265-7.159,19.833-1.228,3.291-2.525,6.556-3.79,9.832l-3.9,9.789-4,9.748c-1.369,3.235-2.7,6.484-4.106,9.7-2.771,6.456-5.609,12.884-8.636,19.237,2.237-6.671,4.663-13.267,7.157-19.834,1.228-3.292,2.527-6.554,3.79-9.832l3.9-9.788,4-9.747c1.367-3.236,2.7-6.484,4.106-9.7C919.782,235.247,922.619,228.818,925.643,222.465Z" transform="translate(-894.058 -222.465)" fill="#f8ce0b"/>
    </g>
    <g id="Grupo_64238" data-name="Grupo 64238" transform="translate(847.751 301.656)" style="mix-blend-mode: screen;isolation: isolate">
      <path id="Trazado_110714" data-name="Trazado 110714" d="M906.569,382.328c-3.89,8.48-7.96,16.867-12.094,25.222-2.05,4.186-4.164,8.339-6.248,12.507l-6.35,12.454-6.448,12.4c-2.184,4.117-4.333,8.251-6.551,12.351-4.4,8.217-8.864,16.4-13.51,24.493,3.889-8.481,7.957-16.868,12.091-25.223,2.049-4.186,4.166-8.338,6.249-12.507l6.353-12.454,6.45-12.4c2.183-4.117,4.335-8.251,6.552-12.351C897.463,398.605,901.926,390.42,906.569,382.328Z" transform="translate(-855.368 -382.328)" fill="#f8ce0b"/>
    </g>
    <g id="Grupo_64239" data-name="Grupo 64239" transform="translate(925.028 270.38)" style="mix-blend-mode: screen;isolation: isolate">
      <path id="Trazado_110715" data-name="Trazado 110715" d="M1007.788,321.152c2.733-.211,5.466-.322,8.2-.4s5.466-.1,8.2-.114c2.733.009,5.466.031,8.2.112s5.466.186,8.2.4c-2.733.213-5.466.324-8.2.4s-5.465.1-8.2.112c-2.733-.01-5.466-.032-8.2-.114S1010.521,321.363,1007.788,321.152Z" transform="translate(-1007.788 -320.641)" fill="#f8ce0b"/>
    </g>
    <g id="Grupo_64240" data-name="Grupo 64240" transform="translate(901.265 220.879)" style="mix-blend-mode: screen;isolation: isolate">
      <path id="Trazado_110716" data-name="Trazado 110716" d="M960.919,223.772c3.609-.317,7.218-.483,10.827-.6,1.8-.07,3.609-.086,5.413-.128l5.413-.042,5.414.04c1.8.043,3.609.056,5.413.128,3.609.112,7.218.279,10.827.6-3.609.319-7.218.486-10.827.6-1.8.071-3.609.085-5.413.128l-5.414.041-5.413-.043c-1.8-.042-3.609-.057-5.413-.128C968.137,224.255,964.528,224.089,960.919,223.772Z" transform="translate(-960.919 -223.006)" fill="#f8ce0b"/>
    </g>
    <g id="Grupo_64241" data-name="Grupo 64241" transform="translate(839.917 218.692)" opacity="0.5" style="mix-blend-mode: multiply;isolation: isolate">
      <path id="Trazado_110717" data-name="Trazado 110717" d="M1010.446,268.657l31.014-49.965h-6.815l-31.016,49.965Z" transform="translate(-920.627 -218.692)" fill="#f8ce0b"/>
      <path id="Trazado_110718" data-name="Trazado 110718" d="M960.122,317.241l-120.2,144.144L966.939,317.241Z" transform="translate(-839.917 -267.277)" fill="#f8ce0b"/>
      <path id="Trazado_110719" data-name="Trazado 110719" d="M863.347,380.469l-2.191,5.392h28.039l-49.278,106.7,55.2-106.7,2.812-5.392Z" transform="translate(-839.917 -298.448)" fill="#f8ce0b"/>
    </g>
  </g>
</svg>
