<svg xmlns="http://www.w3.org/2000/svg" xmlns:xlink="http://www.w3.org/1999/xlink" width="465.982" height="481.907" viewBox="0 0 465.982 481.907">
  <defs>
    <linearGradient id="linear-gradient" x1="0.5" y1="0.638" x2="0.5" y2="0.256" gradientUnits="objectBoundingBox">
      <stop offset="0" stop-color="#0071b9"/>
      <stop offset="1" stop-color="#65c5cd"/>
    </linearGradient>
    <clipPath id="clip-path">
      <path id="Trazado_115124" data-name="Trazado 115124" d="M595.194,36.736c26.679,2.1,50.382,26,52.281,52.692a56.924,56.924,0,0,1-16.45,44.407,48.684,48.684,0,0,0-13.99,31.816h0c0,3.26-11.844,5.9-26.455,5.9s-26.447-2.639-26.447-5.9h0a49.275,49.275,0,0,0-14.139-31.965,57.044,57.044,0,0,1,45.2-96.95Z" transform="translate(-533.525 -36.548)" fill="#ffe79e"/>
    </clipPath>
    <linearGradient id="linear-gradient-2" x1="173.561" y1="-191.174" x2="175.026" y2="-191.174" gradientUnits="objectBoundingBox">
      <stop offset="0.12" stop-color="#fbc503"/>
      <stop offset="0.32" stop-color="#f4901e"/>
      <stop offset="0.86" stop-color="#fbc205"/>
      <stop offset="0.89" stop-color="#fbc503"/>
      <stop offset="1" stop-color="#fbc503"/>
    </linearGradient>
    <linearGradient id="linear-gradient-3" x1="174.688" y1="-190.497" x2="176.154" y2="-190.497" xlink:href="#linear-gradient-2"/>
  </defs>
  <g id="grafico-04" transform="translate(-298.19 -14.55)">
    <path id="Trazado_115036" data-name="Trazado 115036" d="M449.193,515.034H361.1a62.988,62.988,0,0,1-62.914-62.929V373.064A62.988,62.988,0,0,1,361.1,310.15H498.73v26.17H361.1a36.788,36.788,0,0,0-36.743,36.743v79.042A36.781,36.781,0,0,0,361.1,488.849h88.09Z" transform="translate(0 -74.572)" fill="#beffff"/>
    <path id="Trazado_115037" data-name="Trazado 115037" d="M790.824,515.034h-88.09v-26.17h88.09a36.781,36.781,0,0,0,36.736-36.758V373.064a36.781,36.781,0,0,0-36.736-36.743H653.19V310.15H790.824a62.981,62.981,0,0,1,62.906,62.914v79.042a62.981,62.981,0,0,1-62.906,62.929Z" transform="translate(-89.557 -74.572)" fill="#beffff"/>
    <ellipse id="Elipse_4734" data-name="Elipse 4734" cx="6.528" cy="6.692" rx="6.528" ry="6.692" transform="translate(481.495 241.971)" fill="#29a8df"/>
    <line id="Línea_331" data-name="Línea 331" x1="11.201" transform="translate(467.662 248.663)" fill="none" stroke="#29a8df" stroke-linecap="round" stroke-linejoin="round" stroke-width="5"/>
    <path id="Trazado_115038" data-name="Trazado 115038" d="M527.106,324.54l-2.266,2.325,2.266,2.333" transform="translate(-57.178 -78.203)" fill="none" stroke="#29a8df" stroke-linecap="round" stroke-linejoin="round" stroke-width="5"/>
    <line id="Línea_332" data-name="Línea 332" x1="4.509" transform="translate(485.772 248.663)" fill="none" stroke="#fff" stroke-linecap="round" stroke-linejoin="round" stroke-width="5"/>
    <ellipse id="Elipse_4735" data-name="Elipse 4735" cx="6.528" cy="6.692" rx="6.528" ry="6.692" transform="translate(443.039 241.971)" fill="#29a8df"/>
    <line id="Línea_333" data-name="Línea 333" x1="11.201" transform="translate(429.206 248.663)" fill="none" stroke="#29a8df" stroke-linecap="round" stroke-linejoin="round" stroke-width="5"/>
    <path id="Trazado_115039" data-name="Trazado 115039" d="M475.676,324.54l-2.266,2.325,2.266,2.333" transform="translate(-44.204 -78.203)" fill="none" stroke="#29a8df" stroke-linecap="round" stroke-linejoin="round" stroke-width="5"/>
    <line id="Línea_334" data-name="Línea 334" x1="4.516" transform="translate(447.309 248.663)" fill="none" stroke="#fff" stroke-linecap="round" stroke-linejoin="round" stroke-width="5"/>
    <path id="Trazado_115040" data-name="Trazado 115040" d="M440.48,325.392a6.528,6.528,0,1,0,6.528-6.692,6.617,6.617,0,0,0-6.528,6.692Z" transform="translate(-35.896 -76.729)" fill="#29a8df"/>
    <line id="Línea_335" data-name="Línea 335" x1="11.201" transform="translate(390.743 248.663)" fill="none" stroke="#29a8df" stroke-linecap="round" stroke-linejoin="round" stroke-width="5"/>
    <path id="Trazado_115041" data-name="Trazado 115041" d="M424.243,324.54l-2.273,2.325,2.273,2.333" transform="translate(-31.227 -78.203)" fill="none" stroke="#29a8df" stroke-linecap="round" stroke-linejoin="round" stroke-width="5"/>
    <line id="Línea_336" data-name="Línea 336" x1="4.509" transform="translate(408.853 248.663)" fill="none" stroke="#fff" stroke-linecap="round" stroke-linejoin="round" stroke-width="5"/>
    <ellipse id="Elipse_4736" data-name="Elipse 4736" cx="6.528" cy="6.692" rx="6.528" ry="6.692" transform="translate(366.121 241.971)" fill="#29a8df"/>
    <path id="Trazado_115042" data-name="Trazado 115042" d="M381.748,327.65H380c-1.054,0-2.453,0-3.851.045-.7,0-1.4.052-2.056.112s-1.264.075-1.78.157l-1.742.224" transform="translate(-18.26 -78.987)" fill="none" stroke="#29a8df" stroke-linecap="round" stroke-linejoin="round" stroke-width="5"/>
    <path id="Trazado_115043" data-name="Trazado 115043" d="M372.589,324.89s-.531.651-1.032,1.3l-.987,1.3,1.271,1.009c.621.508,1.219,1.017,1.219,1.017" transform="translate(-18.26 -78.291)" fill="none" stroke="#29a8df" stroke-linecap="round" stroke-linejoin="round" stroke-width="5"/>
    <line id="Línea_337" data-name="Línea 337" x1="4.509" transform="translate(370.398 248.663)" fill="none" stroke="#fff" stroke-linecap="round" stroke-linejoin="round" stroke-width="5"/>
    <path id="Trazado_115044" data-name="Trazado 115044" d="M340.177,337.672a7.657,7.657,0,0,0,4.292,2.707,7.209,7.209,0,0,0,2.325.15,5.847,5.847,0,0,0,2.146-.7,4.919,4.919,0,0,0,.92-.688,5.025,5.025,0,0,0,.748-.83,5.72,5.72,0,0,0,.591-.994,7.172,7.172,0,0,0,.441-1.1,7.679,7.679,0,0,0,.314-2.475,7.126,7.126,0,0,0-.538-2.587,6.251,6.251,0,0,0-1.5-2.243,5.982,5.982,0,0,0-2.243-1.331,5.892,5.892,0,0,0-2.707-.284,7.306,7.306,0,0,0-1.413.292,7.964,7.964,0,0,0-1.368.621,6.886,6.886,0,0,0-2.176,1.959,6.274,6.274,0,0,0-1.092,2.49,6.072,6.072,0,0,0,1.256,5.017Z" transform="translate(-10.247 -78.885)" fill="#29a8df"/>
    <path id="Trazado_115045" data-name="Trazado 115045" d="M335.385,343.43a47.889,47.889,0,0,0-4.015,3.9c-.935,1.047-1.839,2.109-2.475,2.946a10.522,10.522,0,0,0-.748,1.009l-.277.389" transform="translate(-7.488 -82.968)" fill="none" stroke="#29a8df" stroke-linecap="round" stroke-linejoin="round" stroke-width="5"/>
    <path id="Trazado_115046" data-name="Trazado 115046" d="M327.23,350.11l.194,1.638c.052.4.12.808.172,1.114l.09.5.5-.075c.3-.037.688-.1,1.092-.135l1.593-.15" transform="translate(-7.326 -84.653)" fill="none" stroke="#29a8df" stroke-linecap="round" stroke-linejoin="round" stroke-width="5"/>
    <path id="Trazado_115047" data-name="Trazado 115047" d="M349.2,334.87l-.628.322c-.374.194-.86.486-1.353.748a14.848,14.848,0,0,0-1.331.8l-.591.374" transform="translate(-11.885 -80.809)" fill="none" stroke="#fff" stroke-linecap="round" stroke-linejoin="round" stroke-width="5"/>
    <path id="Trazado_115048" data-name="Trazado 115048" d="M314.257,380.428a7.574,7.574,0,0,0,4.92-1.181,6.259,6.259,0,0,0,1.735-1.563,5.279,5.279,0,0,0,.994-2.034,5.009,5.009,0,0,0,.082-2.243,6.192,6.192,0,0,0-.748-2.2,7.657,7.657,0,0,0-3.739-3.38,6.116,6.116,0,0,0-5.144.187,6.992,6.992,0,0,0-2.1,1.735,7.477,7.477,0,0,0-1.279,2.632,7.365,7.365,0,0,0-.12,2.931,6.946,6.946,0,0,0,1.009,2.52,6.161,6.161,0,0,0,4.389,2.595Z" transform="translate(-2.668 -89.003)" fill="#29a8df"/>
    <path id="Trazado_115049" data-name="Trazado 115049" d="M315.8,388.35v1.75c-.045,1.054,0,2.453,0,3.851v5.6" transform="translate(-4.438 -94.3)" fill="none" stroke="#29a8df" stroke-linecap="round" stroke-linejoin="round" stroke-width="5"/>
    <path id="Trazado_115050" data-name="Trazado 115050" d="M312.58,400.3l2.325,2.266,2.325-2.266" transform="translate(-3.63 -97.315)" fill="none" stroke="#29a8df" stroke-linecap="round" stroke-linejoin="round" stroke-width="5"/>
    <path id="Trazado_115051" data-name="Trazado 115051" d="M318.1,373.35s-.314,1.084-.606,2.176l-.493,2.2" transform="translate(-4.745 -90.516)" fill="none" stroke="#fff" stroke-linecap="round" stroke-linejoin="round" stroke-width="5"/>
    <ellipse id="Elipse_4737" data-name="Elipse 4737" cx="6.692" cy="6.528" rx="6.692" ry="6.528" transform="translate(304.583 316.818)" fill="#29a8df"/>
    <line id="Línea_338" data-name="Línea 338" y2="11.201" transform="translate(311.275 332.505)" fill="none" stroke="#29a8df" stroke-linecap="round" stroke-linejoin="round" stroke-width="5"/>
    <path id="Trazado_115052" data-name="Trazado 115052" d="M312.58,451.73,314.905,454l2.325-2.266" transform="translate(-3.63 -110.289)" fill="none" stroke="#29a8df" stroke-linecap="round" stroke-linejoin="round" stroke-width="5"/>
    <line id="Línea_339" data-name="Línea 339" y2="4.516" transform="translate(311.275 321.088)" fill="none" stroke="#fff" stroke-linecap="round" stroke-linejoin="round" stroke-width="5"/>
    <ellipse id="Elipse_4738" data-name="Elipse 4738" cx="6.692" cy="6.528" rx="6.692" ry="6.528" transform="translate(304.583 355.274)" fill="#29a8df"/>
    <path id="Trazado_115053" data-name="Trazado 115053" d="M315.69,491.22v10.715a2.491,2.491,0,0,0,.037.479" transform="translate(-4.415 -120.252)" fill="none" stroke="#29a8df" stroke-linecap="round" stroke-linejoin="round" stroke-width="5"/>
    <path id="Trazado_115054" data-name="Trazado 115054" d="M312.6,503.187l1.2,1.144c.583.561,1.219,1.084,1.219,1.084s.523-.6,1.107-1.174l1.137-1.122" transform="translate(-3.635 -123.254)" fill="none" stroke="#29a8df" stroke-linecap="round" stroke-linejoin="round" stroke-width="5"/>
    <line id="Línea_340" data-name="Línea 340" y2="4.509" transform="translate(311.275 359.551)" fill="none" stroke="#fff" stroke-linecap="round" stroke-linejoin="round" stroke-width="5"/>
    <path id="Trazado_115055" data-name="Trazado 115055" d="M322.661,533.053a7.672,7.672,0,0,0,3.066-4.03,6.542,6.542,0,0,0,.351-2.3,5.385,5.385,0,0,0-.516-2.206,6.064,6.064,0,0,0-3.357-2.991,7.635,7.635,0,0,0-5.07-.224,6.117,6.117,0,0,0-3.851,3.395,6.73,6.73,0,0,0,.15,5.518,7.142,7.142,0,0,0,1.757,2.34,6.52,6.52,0,0,0,2.385,1.309A6.1,6.1,0,0,0,322.661,533.053Z" transform="translate(-3.677 -127.757)" fill="#29a8df"/>
    <path id="Trazado_115056" data-name="Trazado 115056" d="M328,540s.4.583,1.062,1.4,1.548,1.9,2.482,2.939a45.365,45.365,0,0,0,4.03,3.888" transform="translate(-7.52 -132.558)" fill="none" stroke="#29a8df" stroke-linecap="round" stroke-linejoin="round" stroke-width="5"/>
    <path id="Trazado_115057" data-name="Trazado 115057" d="M333.71,550.12s.822,0,1.645-.045l1.638-.12s-.075-.778-.075-1.608V546.74" transform="translate(-8.961 -134.258)" fill="none" stroke="#29a8df" stroke-linecap="round" stroke-linejoin="round" stroke-width="5"/>
    <path id="Trazado_115058" data-name="Trazado 115058" d="M320.54,526.74l.067.187c.045.112.112.277.2.471l.636,1.413c.224.516.493,1.009.688,1.391l.322.628" transform="translate(-5.638 -129.212)" fill="none" stroke="#fff" stroke-linecap="round" stroke-linejoin="round" stroke-width="5"/>
    <path id="Trazado_115059" data-name="Trazado 115059" d="M362.938,562.565a7.679,7.679,0,0,0-.748-5.025,7.074,7.074,0,0,0-1.4-1.862,5.811,5.811,0,0,0-1.937-1.166,6.124,6.124,0,0,0-4.486.3,7.687,7.687,0,0,0-3.739,3.462,6.49,6.49,0,0,0-.7,2.572,5.9,5.9,0,0,0,.441,2.565,6.976,6.976,0,0,0,6.961,4.12,6.109,6.109,0,0,0,5.586-4.965Z" transform="translate(-13.05 -136.145)" fill="#29a8df"/>
    <path id="Trazado_115060" data-name="Trazado 115060" d="M370.81,566l1.735.217c.516.075,1.129.1,1.787.157l1.009.075h1.039c1.406.052,2.8,0,3.851,0h1.75" transform="translate(-18.32 -139.117)" fill="none" stroke="#29a8df" stroke-linecap="round" stroke-linejoin="round" stroke-width="5"/>
    <path id="Trazado_115061" data-name="Trazado 115061" d="M382.72,568.2l2.266-2.325-2.266-2.325" transform="translate(-21.325 -138.499)" fill="none" stroke="#29a8df" stroke-linecap="round" stroke-linejoin="round" stroke-width="5"/>
    <path id="Trazado_115062" data-name="Trazado 115062" d="M356.1,562l.651.254c.4.164.92.366,1.458.538l1.5.493.673.194" transform="translate(-14.609 -138.108)" fill="none" stroke="#fff" stroke-linecap="round" stroke-linejoin="round" stroke-width="5"/>
    <path id="Trazado_115063" data-name="Trazado 115063" d="M414.276,564.526a6.528,6.528,0,1,0-6.528,6.729,6.617,6.617,0,0,0,6.528-6.729Z" transform="translate(-25.993 -137.149)" fill="#29a8df"/>
    <line id="Línea_341" data-name="Línea 341" x2="11.201" transform="translate(390.923 427.377)" fill="none" stroke="#29a8df" stroke-linecap="round" stroke-linejoin="round" stroke-width="5"/>
    <path id="Trazado_115064" data-name="Trazado 115064" d="M434.15,568.2l2.273-2.325-2.273-2.325" transform="translate(-34.299 -138.499)" fill="none" stroke="#29a8df" stroke-linecap="round" stroke-linejoin="round" stroke-width="5"/>
    <line id="Línea_342" data-name="Línea 342" x2="4.516" transform="translate(379.498 427.377)" fill="none" stroke="#fff" stroke-linecap="round" stroke-linejoin="round" stroke-width="5"/>
    <ellipse id="Elipse_4739" data-name="Elipse 4739" cx="6.528" cy="6.692" rx="6.528" ry="6.692" transform="translate(413.691 420.685)" fill="#29a8df"/>
    <line id="Línea_343" data-name="Línea 343" x2="11.201" transform="translate(429.378 427.377)" fill="none" stroke="#29a8df" stroke-linecap="round" stroke-linejoin="round" stroke-width="5"/>
    <path id="Trazado_115065" data-name="Trazado 115065" d="M485.59,568.2l2.266-2.325-2.266-2.325" transform="translate(-47.276 -138.499)" fill="none" stroke="#29a8df" stroke-linecap="round" stroke-linejoin="round" stroke-width="5"/>
    <line id="Línea_344" data-name="Línea 344" x2="4.509" transform="translate(417.961 427.377)" fill="none" stroke="#fff" stroke-linecap="round" stroke-linejoin="round" stroke-width="5"/>
    <ellipse id="Elipse_4740" data-name="Elipse 4740" cx="6.916" cy="6.692" rx="6.916" ry="6.692" transform="translate(634.24 420.685)" fill="#29a8df"/>
    <path id="Trazado_115066" data-name="Trazado 115066" d="M781.1,567.9H769.229a1.869,1.869,0,0,1,0-3.739H781.1a1.869,1.869,0,0,1,0,3.739Z" transform="translate(-118.36 -138.653)" fill="#29a8df"/>
    <path id="Trazado_115067" data-name="Trazado 115067" d="M781.881,569.438a1.847,1.847,0,0,1-1.339-.568,1.869,1.869,0,0,1,.045-2.647l1.017-.98-1.017-.987a1.869,1.869,0,0,1,2.6-2.684l2.4,2.325a1.869,1.869,0,0,1,0,2.684l-2.408,2.333a1.847,1.847,0,0,1-1.3.523Z" transform="translate(-121.552 -137.867)" fill="#29a8df"/>
    <path id="Trazado_115068" data-name="Trazado 115068" d="M757.827,567.9h-4.778a1.869,1.869,0,0,1,0-3.739h4.778a1.869,1.869,0,1,1,0,3.739Z" transform="translate(-114.278 -138.653)" fill="#fff"/>
    <ellipse id="Elipse_4741" data-name="Elipse 4741" cx="6.916" cy="6.692" rx="6.916" ry="6.692" transform="translate(674.991 420.685)" fill="#29a8df"/>
    <path id="Trazado_115069" data-name="Trazado 115069" d="M829.656,567.9h-5.937a1.869,1.869,0,0,1,0-3.739h11.866a1.869,1.869,0,0,1,.045,3.739h-5.974Z" transform="translate(-132.106 -138.653)" fill="#29a8df"/>
    <path id="Trazado_115070" data-name="Trazado 115070" d="M836.369,569.438a1.847,1.847,0,0,1-1.346-.568,1.877,1.877,0,0,1,.045-2.647l1.017-.98-1.017-.987a1.869,1.869,0,1,1,2.6-2.684l1.2,1.167c.591.576,1.174,1.122,1.174,1.122a1.869,1.869,0,0,1,.045,2.684s-.613.621-1.234,1.211l-1.189,1.159a1.876,1.876,0,0,1-1.3.523Z" transform="translate(-135.297 -137.867)" fill="#29a8df"/>
    <path id="Trazado_115071" data-name="Trazado 115071" d="M812.317,567.9h-4.778a1.869,1.869,0,0,1,0-3.739h4.778a1.869,1.869,0,1,1,0,3.739Z" transform="translate(-128.024 -138.653)" fill="#fff"/>
    <path id="Trazado_115072" data-name="Trazado 115072" d="M868.969,555.837a7.552,7.552,0,0,0-6.46-3.447,6.043,6.043,0,0,0-2.325.516,5.84,5.84,0,0,0-1.967,1.361,6.81,6.81,0,0,0-1.376,1.982,7.477,7.477,0,0,0-.508,5.085,5.982,5.982,0,0,0,3.38,3.94,7.215,7.215,0,0,0,2.781.561,8.054,8.054,0,0,0,3.028-.651,7.283,7.283,0,0,0,4.023-4.195,5.9,5.9,0,0,0-.576-5.152Z" transform="translate(-140.747 -135.683)" fill="#29a8df"/>
    <path id="Trazado_115073" data-name="Trazado 115073" d="M875.8,553.542a1.869,1.869,0,0,1-1.084-3.395l.419-.292c.06-.052.179-.135.314-.232s.419-.292.665-.486l1.5-1.174,1.615-1.4a50.8,50.8,0,0,0,3.94-4.038,1.87,1.87,0,0,1,2.849,2.423,51.966,51.966,0,0,1-4.322,4.427l-1.667,1.443-.067.052-1.5,1.181c-.3.239-.606.456-.867.636l-.254.179-.449.329A1.884,1.884,0,0,1,875.8,553.542Z" transform="translate(-145.243 -133.029)" fill="#29a8df"/>
    <path id="Trazado_115074" data-name="Trazado 115074" d="M886.5,548.978h0a1.862,1.862,0,0,1-1.862-1.877V545.7c-.793,0-1.5.037-1.5.037h0a1.869,1.869,0,0,1,0-3.739s.793,0,1.6-.045,1.54-.112,1.555-.112a1.869,1.869,0,0,1,2.034,1.75s.052.867.075,1.75v1.75a1.877,1.877,0,0,1-1.907,1.892Z" transform="translate(-147.096 -133.019)" fill="#29a8df"/>
    <path id="Trazado_115075" data-name="Trazado 115075" d="M861.536,563.107a1.869,1.869,0,0,1-.688-3.611l.7-.269.464-.187c.292-.112.613-.239.935-.389l1.533-.7c.307-.135.508-.247.538-.262a1.869,1.869,0,0,1,1.81,3.268s-.314.179-.8.4l-1.5.68c-.389.194-.823.359-1.166.493l-.411.157-.748.284A1.839,1.839,0,0,1,861.536,563.107Z" transform="translate(-141.644 -136.972)" fill="#fff"/>
    <path id="Trazado_115076" data-name="Trazado 115076" d="M900.121,513.209a7.4,7.4,0,0,0-5,.987,6.923,6.923,0,0,0-1.847,1.555,6.245,6.245,0,0,0-1.174,2.086,6.6,6.6,0,0,0-.292,2.37,7.642,7.642,0,0,0,1.952,4.486,6.877,6.877,0,0,0,2.1,1.615,5.877,5.877,0,0,0,5.182.082,6.52,6.52,0,0,0,2.243-1.7,7.531,7.531,0,0,0,1.5-2.7,7.717,7.717,0,0,0,.366-3.073,6.9,6.9,0,0,0-.83-2.714A5.914,5.914,0,0,0,900.121,513.209Z" transform="translate(-149.751 -125.776)" fill="#29a8df"/>
    <path id="Trazado_115077" data-name="Trazado 115077" d="M902.839,506.745H902.6a1.854,1.854,0,0,1-1.615-2.086l.052-.464.1-1.294c.1-.994.12-2.333.142-3.634v-6.229a1.869,1.869,0,1,1,3.739,0v6.288c0,1.436-.045,2.8-.157,3.9l-.1,1.3v.09l-.06.508A1.869,1.869,0,0,1,902.839,506.745Z" transform="translate(-152.066 -120.239)" fill="#29a8df"/>
    <path id="Trazado_115078" data-name="Trazado 115078" d="M904.8,497.348a1.847,1.847,0,0,1-1.346-.568l-.987-1.017-.979,1.017a1.869,1.869,0,1,1-2.684-2.6l2.333-2.363a1.914,1.914,0,0,1,2.684,0l2.325,2.4a1.869,1.869,0,0,1-.045,2.647,1.847,1.847,0,0,1-1.3.486Z" transform="translate(-151.386 -120.263)" fill="#29a8df"/>
    <path id="Trazado_115079" data-name="Trazado 115079" d="M899.019,524.925a1.989,1.989,0,0,1-.68-.127,1.877,1.877,0,0,1-1.062-2.423l.351-.935.419-1.241c.157-.434.277-.86.381-1.234l.269-.957a1.871,1.871,0,0,1,3.6,1.009l-.277.957c-.112.419-.262.935-.449,1.458l-.516,1.5V523l-.269.7a1.869,1.869,0,0,1-1.772,1.219Z" transform="translate(-151.103 -126.665)" fill="#fff"/>
    <ellipse id="Elipse_4742" data-name="Elipse 4742" cx="6.692" cy="6.916" rx="6.692" ry="6.916" transform="translate(744.395 346.727)" fill="#29a8df"/>
    <path id="Trazado_115080" data-name="Trazado 115080" d="M903.259,452.3a1.869,1.869,0,0,1-1.869-1.869V438.559a1.869,1.869,0,1,1,3.739,0v11.866A1.869,1.869,0,0,1,903.259,452.3Z" transform="translate(-152.172 -106.495)" fill="#29a8df"/>
    <path id="Trazado_115081" data-name="Trazado 115081" d="M900.151,442.845a1.869,1.869,0,0,1-1.338-3.17l2.325-2.408a1.929,1.929,0,0,1,2.684,0l2.325,2.408a1.869,1.869,0,0,1-2.684,2.6l-.987-1.017-.98,1.017a1.892,1.892,0,0,1-1.346.568Z" transform="translate(-151.389 -106.504)" fill="#29a8df"/>
    <path id="Trazado_115082" data-name="Trazado 115082" d="M903.259,470.867A1.862,1.862,0,0,1,901.39,469v-4.778a1.869,1.869,0,1,1,3.739,0V469a1.862,1.862,0,0,1-1.869,1.869Z" transform="translate(-152.172 -112.969)" fill="#fff"/>
    <ellipse id="Elipse_4743" data-name="Elipse 4743" cx="6.692" cy="6.916" rx="6.692" ry="6.916" transform="translate(744.395 305.976)" fill="#29a8df"/>
    <path id="Trazado_115083" data-name="Trazado 115083" d="M903.156,397.8a1.869,1.869,0,0,1-1.869-1.869v-6.154c0-1.323-.045-2.7-.142-3.671l-.045-.583a2.745,2.745,0,0,0-.06-.748l-.045-.486a1.884,1.884,0,0,1,3.739-.471l.067.508c0,.269.045.553.075.9v.531c.112,1.084.135,2.467.157,3.941V395.9a1.869,1.869,0,0,1-1.877,1.892Z" transform="translate(-152.069 -92.74)" fill="#29a8df"/>
    <path id="Trazado_115084" data-name="Trazado 115084" d="M900.006,388.5a1.847,1.847,0,0,1-1.226-.464,1.869,1.869,0,0,1-.2-2.639l1.077-1.241c.494-.568.942-1.181.95-1.189a1.869,1.869,0,0,1,2.662-.351s.748.576,1.383,1.181l1.256,1.152a1.869,1.869,0,1,1-2.527,2.752l-1.032-.942-.935,1.084A1.869,1.869,0,0,1,900.006,388.5Z" transform="translate(-151.348 -92.751)" fill="#29a8df"/>
    <path id="Trazado_115085" data-name="Trazado 115085" d="M903.259,416.377a1.869,1.869,0,0,1-1.869-1.869v-4.778a1.869,1.869,0,1,1,3.739,0v4.778A1.869,1.869,0,0,1,903.259,416.377Z" transform="translate(-152.172 -99.222)" fill="#fff"/>
    <path id="Trazado_115086" data-name="Trazado 115086" d="M889.543,352.38a7.477,7.477,0,0,0-2.662,4.367,6.071,6.071,0,0,0-.142,1.2,5.943,5.943,0,0,0,0,1.211,6.848,6.848,0,0,0,.269,1.159,5.192,5.192,0,0,0,.486,1.107,6.662,6.662,0,0,0,3.671,2.991,7.477,7.477,0,0,0,5.107,0,5.982,5.982,0,0,0,3.574-3.739,7.245,7.245,0,0,0-.7-5.765,8.806,8.806,0,0,0-.9-1.309,7.558,7.558,0,0,0-2.348-1.8,6.8,6.8,0,0,0-1.323-.464,5.93,5.93,0,0,0-5.032,1.039Z" transform="translate(-148.468 -84.919)" fill="#29a8df"/>
    <path id="Trazado_115087" data-name="Trazado 115087" d="M884.532,348.464a1.869,1.869,0,0,1-1.428-.651,47.136,47.136,0,0,0-3.963-4.06l-1.593-1.376-1.5-1.151c-.262-.209-.494-.374-.688-.508l-.359-.254-.381-.269a1.871,1.871,0,0,1,2.168-3.051l.411.3.3.209c.254.179.561.389.882.651l1.5,1.159.067.06,1.652,1.421a52.859,52.859,0,0,1,4.344,4.442,1.869,1.869,0,0,1-.209,2.632A1.832,1.832,0,0,1,884.532,348.464Z" transform="translate(-145.221 -81.295)" fill="#29a8df"/>
    <path id="Trazado_115088" data-name="Trazado 115088" d="M876.251,343.668a1.869,1.869,0,0,1-1.854-1.652l-.082-.68a5.216,5.216,0,0,0-.12-.845l-.284-1.63a1.877,1.877,0,0,1,1.578-2.176l1.667-.239c.389-.06.748-.09,1.084-.12l.71-.067a1.876,1.876,0,1,1,.322,3.739l-.7.06-.651.06c.037.269.075.538.1.748l.082.7a1.877,1.877,0,0,1-1.638,2.079Z" transform="translate(-145.233 -81.157)" fill="#29a8df"/>
    <path id="Trazado_115089" data-name="Trazado 115089" d="M895.678,363.153a1.869,1.869,0,0,1-1.667-1.024l-.337-.658a14.807,14.807,0,0,0-.748-1.338l-1.2-2a1.87,1.87,0,0,1,3.148-2.019l.4.628.045.075.822,1.421c.336.561.636,1.151.837,1.548l.329.651a1.862,1.862,0,0,1-.815,2.512A1.809,1.809,0,0,1,895.678,363.153Z" transform="translate(-149.66 -85.95)" fill="#fff"/>
    <path id="Trazado_115090" data-name="Trazado 115090" d="M843.9,325.892a7.417,7.417,0,0,0,1.5,4.875,6.849,6.849,0,0,0,1.742,1.675,5.982,5.982,0,0,0,2.2.95,6.73,6.73,0,0,0,4.658-.748,7.515,7.515,0,0,0,3.38-3.843,5.93,5.93,0,0,0-.456-5.167,7.305,7.305,0,0,0-4.771-3.312,8.008,8.008,0,0,0-3.1-.045,7.036,7.036,0,0,0-2.617,1.107A5.937,5.937,0,0,0,843.9,325.892Z" transform="translate(-137.665 -77.094)" fill="#29a8df"/>
    <path id="Trazado_115091" data-name="Trazado 115091" d="M835.536,328.909H823.669a1.869,1.869,0,0,1,0-3.739h11.911a1.869,1.869,0,0,1-.045,3.739Z" transform="translate(-132.093 -78.362)" fill="#29a8df"/>
    <path id="Trazado_115092" data-name="Trazado 115092" d="M826.07,330.438a1.861,1.861,0,0,1-1.3-.531l-2.4-2.325a1.869,1.869,0,0,1,0-2.684l2.4-2.325a1.869,1.869,0,1,1,2.6,2.684l-1.017.979,1.017.987a1.869,1.869,0,0,1-1.3,3.215Z" transform="translate(-132.094 -77.573)" fill="#29a8df"/>
    <path id="Trazado_115093" data-name="Trazado 115093" d="M853.97,330.761a2.05,2.05,0,0,1-.516-.075l-.194-.06-.411-.1-1.63-.374c-.374-.1-.748-.15-1.009-.2l-.546-.1-.7-.127a1.869,1.869,0,0,1,.658-3.679l.748.135.479.082c.359.06.808.142,1.271.254l1.555.359.636.165.179.052a1.869,1.869,0,0,1-.508,3.671Z" transform="translate(-138.571 -78.576)" fill="#fff"/>
    <ellipse id="Elipse_4744" data-name="Elipse 4744" cx="6.916" cy="6.692" rx="6.916" ry="6.692" transform="translate(665.488 241.971)" fill="#29a8df"/>
    <path id="Trazado_115094" data-name="Trazado 115094" d="M781.036,328.889H769.169a1.869,1.869,0,0,1,0-3.739h11.866a1.869,1.869,0,1,1,0,3.739Z" transform="translate(-118.345 -78.356)" fill="#29a8df"/>
    <path id="Trazado_115095" data-name="Trazado 115095" d="M771.56,330.438a1.854,1.854,0,0,1-1.294-.531l-2.408-2.325a1.869,1.869,0,0,1,0-2.684l2.408-2.325a1.869,1.869,0,1,1,2.6,2.684l-1.017.979,1.009.987a1.869,1.869,0,0,1-1.3,3.215Z" transform="translate(-118.342 -77.573)" fill="#29a8df"/>
    <path id="Trazado_115096" data-name="Trazado 115096" d="M799.607,328.889h-4.778a1.869,1.869,0,1,1,0-3.739h4.778a1.869,1.869,0,1,1,0,3.739Z" transform="translate(-124.818 -78.356)" fill="#fff"/>
    <ellipse id="Elipse_4745" data-name="Elipse 4745" cx="6.916" cy="6.692" rx="6.916" ry="6.692" transform="translate(624.737 241.971)" fill="#29a8df"/>
    <path id="Trazado_115097" data-name="Trazado 115097" d="M726.546,328.889H714.679a1.869,1.869,0,1,1,0-3.739h11.866a1.869,1.869,0,1,1,0,3.739Z" transform="translate(-104.598 -78.356)" fill="#29a8df"/>
    <path id="Trazado_115098" data-name="Trazado 115098" d="M717.08,330.438a1.869,1.869,0,0,1-1.3-.531l-2.4-2.325a1.869,1.869,0,0,1,0-2.684l2.4-2.325a1.869,1.869,0,1,1,2.6,2.684l-1.017.979,1.017.987a1.869,1.869,0,0,1-1.3,3.215Z" transform="translate(-104.598 -77.573)" fill="#29a8df"/>
    <path id="Trazado_115099" data-name="Trazado 115099" d="M745.125,328.889h-4.756a1.869,1.869,0,0,1,0-3.739h4.778a1.869,1.869,0,0,1,0,3.739Z" transform="translate(-111.079 -78.356)" fill="#fff"/>
    <ellipse id="Elipse_4746" data-name="Elipse 4746" cx="6.916" cy="6.692" rx="6.916" ry="6.692" transform="translate(583.993 241.971)" fill="#29a8df"/>
    <path id="Trazado_115100" data-name="Trazado 115100" d="M672.046,328.889H660.179a1.869,1.869,0,1,1,0-3.739h11.866a1.869,1.869,0,1,1,0,3.739Z" transform="translate(-90.849 -78.356)" fill="#29a8df"/>
    <path id="Trazado_115101" data-name="Trazado 115101" d="M662.557,330.438a1.861,1.861,0,0,1-1.3-.531l-2.4-2.325a1.854,1.854,0,0,1,0-2.684l2.4-2.325a1.869,1.869,0,1,1,2.6,2.684l-1.017.979,1.017.987a1.869,1.869,0,0,1-1.3,3.215Z" transform="translate(-90.842 -77.573)" fill="#29a8df"/>
    <path id="Trazado_115102" data-name="Trazado 115102" d="M690.625,328.889h-4.785a1.869,1.869,0,1,1,0-3.739h4.785a1.869,1.869,0,0,1,0,3.739Z" transform="translate(-97.322 -78.356)" fill="#fff"/>
    <path id="Trazado_115103" data-name="Trazado 115103" d="M566.39,315.7h13.459a18.955,18.955,0,0,0,18.962-18.955V280.3" transform="translate(-67.66 -67.042)" fill="none" stroke="#366c89" stroke-miterlimit="10" stroke-width="42"/>
    <rect id="Rectángulo_32375" data-name="Rectángulo 32375" width="45.088" height="24.757" rx="4.87" transform="translate(627.84 404.833) rotate(90)" fill="#b0b0b0"/>
    <rect id="Rectángulo_32376" data-name="Rectángulo 32376" width="69.479" height="173.816" rx="16.81" transform="translate(618.022 392.637) rotate(90)" fill="url(#linear-gradient)"/>
    <path id="Trazado_115104" data-name="Trazado 115104" d="M704.58,580.1V529.768A9.578,9.578,0,0,0,695,520.19H641.3v69.479H695a9.586,9.586,0,0,0,9.578-9.571Z" transform="translate(-86.558 -127.56)" fill="#ad84ff"/>
    <path id="Trazado_115105" data-name="Trazado 115105" d="M696.249,565.131h-4.382a4.367,4.367,0,0,0-4.374,4.367v4.382a4.367,4.367,0,0,1-4.367,4.374h0a4.374,4.374,0,0,1-4.374-4.374V569.5a4.367,4.367,0,0,0-4.374-4.367H670a4.374,4.374,0,0,1-4.374-4.374h0A4.374,4.374,0,0,1,670,556.383h4.374a4.374,4.374,0,0,0,4.374-4.374v-4.374a4.374,4.374,0,0,1,4.374-4.374h0a4.367,4.367,0,0,1,4.367,4.374v4.4a4.374,4.374,0,0,0,4.374,4.374h4.382a4.374,4.374,0,0,1,4.374,4.374h0A4.374,4.374,0,0,1,696.249,565.131Z" transform="translate(-92.696 -133.38)" fill="#fff"/>
    <path id="Trazado_115106" data-name="Trazado 115106" d="M515.711,573.879V547.634a4.374,4.374,0,0,0-4.367-4.374h0a4.374,4.374,0,0,0-4.374,4.374v26.245a4.374,4.374,0,0,0,4.374,4.374h0a4.374,4.374,0,0,0,4.367-4.374Z" transform="translate(-52.67 -133.38)" fill="#fff"/>
    <path id="Trazado_115107" data-name="Trazado 115107" d="M677.111,554.937v-19.77a2.774,2.774,0,0,0-2.774-2.774h-7.051v-2.625a9.58,9.58,0,0,0-9.578-9.578H503.048a9.571,9.571,0,0,0-9.578,9.578v25.161Z" transform="translate(-49.264 -127.56)" fill="#fff" opacity="0.2"/>
    <path id="Trazado_115108" data-name="Trazado 115108" d="M642.251,315.7H628.792A18.955,18.955,0,0,1,609.83,296.75V280.3" transform="translate(-78.619 -67.042)" fill="none" stroke="#3c85a5" stroke-miterlimit="10" stroke-width="42"/>
    <path id="Trazado_115109" data-name="Trazado 115109" d="M573.907,14.55h0c.037,11.373-14.678,15.912-21.056,6.5h0c3.387,10.849-9.339,19.531-18.207,12.4h0c6.438,9.376-3.163,21.422-13.736,17.2h0c8.913,7.066,3.29,21.4-8.053,20.51h0c10.6,4.12,9.451,19.478-1.645,21.976h0c11.343.815,14.775,15.829,4.905,21.482h0c11.081-2.565,18.775,10.767,11.014,19.082h0c9.833-5.72,21.123,4.756,16.151,14.954h0c7.709-8.36,21.587-1.675,19.852,9.563h0c4.905-10.266,20.129-7.971,21.789,3.283h0c1.66-11.216,16.891-13.549,21.789-3.283h0c-1.735-11.216,12.143-17.945,19.852-9.563h0c-4.965-10.229,6.318-20.7,16.151-14.954h0c-7.761-8.285-.06-21.609,11.022-19.052h0c-9.87-5.653-6.445-20.667,4.9-21.482h0c-11.1-2.5-12.248-17.856-1.645-21.976h0c-11.336.89-16.966-13.459-8.053-20.51h0c-10.573,4.195-20.189-7.851-13.736-17.2h0c-8.868,7.126-21.594-1.555-18.207-12.4h0c-6.371,9.414-21.086,4.875-21.049-6.5h0C592.622,25.429,577.219,25.429,573.907,14.55Z" transform="translate(-53.74 0)" fill="#fbc503"/>
    <path id="Trazado_115110" data-name="Trazado 115110" d="M23.194,0h5.4A23.179,23.179,0,0,1,51.772,23.179V42.247H0V23.224A23.18,23.18,0,0,1,23.194,0Z" transform="translate(557.075 224.661) rotate(180)" fill="#4d4d4d"/>
    <ellipse id="Elipse_4747" data-name="Elipse 4747" cx="30.455" cy="8.696" rx="30.455" ry="8.696" transform="translate(500.726 184.792)" fill="#534741"/>
    <rect id="Rectángulo_32377" data-name="Rectángulo 32377" width="60.91" height="33.386" transform="translate(561.636 193.496) rotate(180)" fill="#666"/>
    <ellipse id="Elipse_4748" data-name="Elipse 4748" cx="30.455" cy="8.696" rx="30.455" ry="8.696" transform="translate(500.726 151.406)" fill="#736357"/>
    <ellipse id="Elipse_4749" data-name="Elipse 4749" cx="26.447" cy="5.9" rx="26.447" ry="5.9" transform="translate(504.734 154.203)" fill="#ffd878"/>
    <path id="Trazado_115111" data-name="Trazado 115111" d="M595.194,36.736c26.679,2.1,50.382,26,52.281,52.692a56.924,56.924,0,0,1-16.45,44.407,48.684,48.684,0,0,0-13.99,31.816h0c0,3.26-11.844,5.9-26.455,5.9s-26.447-2.639-26.447-5.9h0a49.275,49.275,0,0,0-14.139-31.965,57.044,57.044,0,0,1,45.2-96.95Z" transform="translate(-59.369 -5.549)" fill="#ffe79e"/>
    <g id="Grupo_66074" data-name="Grupo 66074" transform="translate(474.156 30.998)" clip-path="url(#clip-path)">
      <path id="Trazado_115112" data-name="Trazado 115112" d="M612.37,126.444a2.064,2.064,0,1,1,4.127,0c0,5.1,2.124,8.36,3.582,8.36s3.574-3.26,3.574-8.36a2.064,2.064,0,1,1,4.127,0c0,7.118-3.312,12.487-7.7,12.487S612.37,133.562,612.37,126.444Z" transform="translate(-553.416 -58.706)" fill="#fbc503"/>
      <path id="Trazado_115113" data-name="Trazado 115113" d="M607,93.964a2.071,2.071,0,0,1,2.064-2.064c5.286,0,9.907,2.886,13.025,8.12,2.781,4.681,4.314,11.156,4.314,18.23a2.064,2.064,0,1,1-4.127,0c0-10.7-4.135-22.222-13.212-22.222A2.064,2.064,0,0,1,607,93.964Z" transform="translate(-552.061 -50.512)" fill="url(#linear-gradient-2)"/>
      <path id="Trazado_115114" data-name="Trazado 115114" d="M586.6,118.25c0-7.073,1.5-13.549,4.314-18.23,3.118-5.234,7.746-8.12,13.025-8.12a2.064,2.064,0,0,1,0,4.127c-9.077,0-13.2,11.522-13.2,22.222a2.071,2.071,0,0,1-4.135,0Z" transform="translate(-546.915 -50.512)" fill="#fbc503"/>
      <path id="Trazado_115115" data-name="Trazado 115115" d="M586.6,126.444a2.071,2.071,0,0,1,4.135,0c0,5.1,2.116,8.36,3.574,8.36s3.574-3.26,3.574-8.36a2.064,2.064,0,0,1,4.128,0c0,7.118-3.312,12.487-7.7,12.487S586.6,133.562,586.6,126.444Z" transform="translate(-546.915 -58.706)" fill="#fbc503"/>
      <path id="Trazado_115116" data-name="Trazado 115116" d="M581.26,93.964a2.071,2.071,0,0,1,2.049-2.064c5.286,0,9.915,2.886,13.025,8.12,2.781,4.681,4.314,11.156,4.314,18.23a2.064,2.064,0,0,1-4.128,0c0-10.7-4.135-22.222-13.212-22.222A2.064,2.064,0,0,1,581.26,93.964Z" transform="translate(-545.568 -50.512)" fill="url(#linear-gradient-3)"/>
      <path id="Trazado_115117" data-name="Trazado 115117" d="M612.37,118.25c0-7.073,1.5-13.549,4.314-18.23,3.118-5.234,7.739-8.12,13.025-8.12a2.064,2.064,0,0,1,0,4.127c-9.077,0-13.212,11.522-13.212,22.222a2.064,2.064,0,0,1-4.127,0Z" transform="translate(-553.416 -50.512)" fill="#fbc503"/>
      <path id="Trazado_115118" data-name="Trazado 115118" d="M627.369,130.638h-4.255c-.748,2.625-2.034,4.165-3.036,4.165-1.458,0-3.582-3.26-3.582-8.36a2.064,2.064,0,1,0-4.127,0c0,7.118,3.312,12.487,7.709,12.487C623.548,138.931,626.352,135.566,627.369,130.638Z" transform="translate(-553.416 -58.706)" fill="#fbc503"/>
      <path id="Trazado_115119" data-name="Trazado 115119" d="M586.6,118.25c0-7.073,1.5-13.549,4.314-18.23,3.118-5.234,7.746-8.12,13.025-8.12a2.064,2.064,0,0,1,0,4.127c-9.077,0-13.2,11.522-13.2,22.222a2.071,2.071,0,0,1-4.135,0Z" transform="translate(-546.915 -50.512)" fill="#fbc503"/>
      <path id="Trazado_115120" data-name="Trazado 115120" d="M601.674,130.311h-4.232c-.7,2.841-2.086,4.531-3.133,4.531-1.458,0-3.574-3.26-3.574-8.36a2.071,2.071,0,0,0-4.135,0c0,7.118,3.313,12.487,7.709,12.487C597.868,138.97,600.717,135.441,601.674,130.311Z" transform="translate(-546.915 -58.745)" fill="#fbc503"/>
      <path id="Trazado_115121" data-name="Trazado 115121" d="M634.341,96.035c5.922,0,9.72,4.965,11.65,11.365a31.181,31.181,0,0,1,.591,15.231L630.52,185.859h4.127L650.783,122.3a31.21,31.21,0,0,0,.336-10.864,31.675,31.675,0,0,0-3.791-11.418c-3.118-5.234-7.739-8.12-13.025-8.12a2.064,2.064,0,0,0-2.064,2.153A2.116,2.116,0,0,0,634.341,96.035Z" transform="translate(-557.995 -50.512)" fill="#fbc503"/>
      <path id="Trazado_115122" data-name="Trazado 115122" d="M578.208,96.035c-5.914,0-9.72,4.965-11.65,11.365a31.27,31.27,0,0,0-.606,15.254l15.994,63.228h-4.128l-16.136-63.557a31.212,31.212,0,0,1-.3-10.909A31.815,31.815,0,0,1,565.2,99.99c3.118-5.2,7.776-8.09,13.01-8.09a2.064,2.064,0,0,1,2.064,2.153A2.116,2.116,0,0,1,578.208,96.035Z" transform="translate(-540.467 -50.512)" fill="#fbc503"/>
      <path id="Trazado_115123" data-name="Trazado 115123" d="M616,91.131c5.286,0,9.907,2.886,13.025,8.12a31.674,31.674,0,0,1,3.821,11.4,31.21,31.21,0,0,1-.336,10.864l-16.136,63.557h-4.128l16.046-63.205a31.18,31.18,0,0,0-.606-15.254c-1.922-6.4-5.728-11.343-11.65-11.365h-.052a9.773,9.773,0,0,0-6.954,2.886c.239.359.479.748.748,1.107,2.782,4.681,4.314,11.156,4.314,18.23a20.724,20.724,0,0,1-.419,4.195h0a2.119,2.119,0,0,1-.1.419c-.03.142-.067.3-.1.441-.082.314-.172.628-.269.927a1.473,1.473,0,0,1-.127.374c-.037.127-.135.381-.209.561l-.164.4-.224.486c-.06.127-.12.247-.187.366s-.187.344-.277.508l-.164.284c-.15.239-.307.464-.471.688l-.179.224q-.179.224-.359.426a3.171,3.171,0,0,1-.217.232c-.075.075-.247.247-.374.359l-.217.187a6.177,6.177,0,0,1-.493.381.946.946,0,0,1-.12.082,5.059,5.059,0,0,1-.643.366l-.2.09a3.869,3.869,0,0,1-.486.194l-.247.075a3.951,3.951,0,0,1-.493.12h-.232a4.761,4.761,0,0,1-.748.06c-4.4,0-7.709-5.369-7.709-12.487s1.5-13.549,4.314-18.23a11.966,11.966,0,0,1,.748-1.107,9.832,9.832,0,0,0-13.915,0c.247.359.486.748.748,1.107,2.781,4.681,4.314,11.156,4.314,18.23a21.522,21.522,0,0,1-.336,3.828h0q-.1.523-.224,1.032a1.388,1.388,0,0,1-.1.344c-.06.232-.12.456-.194.673s-.082.254-.12.374-.15.411-.224.606l-.135.344c-.1.217-.194.434-.3.643,0,.075-.067.157-.1.232-.142.269-.284.538-.441.793-.045.075-.1.142-.142.209-.112.179-.232.359-.359.523a3.065,3.065,0,0,1-.187.247c-.12.15-.232.292-.359.426l-.2.224c-.135.142-.269.269-.411.4l-.172.165c-.2.165-.411.322-.621.464l-.12.075c-.179.112-.351.209-.538.307l-.224.1-.471.179-.247.082c-.164.045-.329.082-.5.112a2.119,2.119,0,0,1-.232.045,4.862,4.862,0,0,1-.748.06c-4.4,0-7.709-5.369-7.709-12.487s1.5-13.549,4.314-18.23a11.967,11.967,0,0,1,.748-1.107,9.8,9.8,0,0,0-7.066-2.834h0c-5.914,0-9.72,4.965-11.65,11.365a31.27,31.27,0,0,0-.606,15.254l15.994,63.235H577.06l-16.136-63.557a31.21,31.21,0,0,1-.3-10.909,31.815,31.815,0,0,1,3.813-11.425c3.118-5.2,7.776-8.09,13.01-8.09A13.938,13.938,0,0,1,587.087,95a13.923,13.923,0,0,1,19.269,0,13.923,13.923,0,0,1,9.631-3.873h0m-28.9,34.709a.942.942,0,0,0,.247,0h.075a1.1,1.1,0,0,0,.2-.075h.067a1.68,1.68,0,0,0,.262-.164l.06-.045a2.3,2.3,0,0,0,.217-.179.387.387,0,0,1,.082-.075l.239-.262h0s.172-.224.262-.344a.526.526,0,0,1,.075-.1l.194-.314.067-.112c.082-.142.164-.292.247-.456l.037-.09c.067-.135.135-.277.194-.419l.067-.164c.06-.15.12-.307.172-.471a.1.1,0,0,1,.037-.1c.067-.194.127-.4.187-.606l.045-.179a15.7,15.7,0,0,0,.508-4.083c0-5.645-1.151-11.522-3.574-15.814-2.423,4.292-3.574,10.169-3.574,15.814,0,5.1,2.116,8.36,3.574,8.36m19.269,0a.987.987,0,0,0,.247,0h.067l.232-.09h0a1.388,1.388,0,0,0,.262-.164l.075-.052a2.408,2.408,0,0,0,.217-.187l.06-.045.262-.284.06-.075c.075-.09.15-.187.217-.284a.567.567,0,0,0,.06-.082c.09-.127.172-.262.254-.4l.052-.082q.1-.179.2-.381a.152.152,0,0,1,.06-.12c.075-.164.157-.329.224-.508a.264.264,0,0,0,0-.067c.067-.165.127-.329.187-.5a.644.644,0,0,1,.052-.157c.067-.194.127-.4.187-.606h0a15.789,15.789,0,0,0,.538-4.195c0-5.645-1.151-11.522-3.574-15.814-2.423,4.292-3.582,10.169-3.582,15.814,0,5.1,2.124,8.36,3.582,8.36m9.631-36.99a16.009,16.009,0,0,0-9.631,3.2,16.121,16.121,0,0,0-19.269,0,16.069,16.069,0,0,0-9.548-3.395c-6.116,0-11.44,3.283-14.955,9.242a34.2,34.2,0,0,0-4.112,12.24A33.372,33.372,0,0,0,558.741,122v.1l16.136,63.557a2.243,2.243,0,0,0,2.206,1.72h4.1a2.281,2.281,0,0,0,2.243-2.841l-16.054-63.175a29.094,29.094,0,0,1,.568-14.095c1.092-3.626,3.739-9.72,9.481-9.72h0a7.291,7.291,0,0,1,3.955,1.122c-2.781,4.972-4.307,11.62-4.307,18.82a19.493,19.493,0,0,0,2.617,10.1c1.854,2.991,4.486,4.658,7.44,4.658a7.673,7.673,0,0,0,1.062-.082l.292-.052h0a7.168,7.168,0,0,0,.748-.164l.359-.112c.217-.075.434-.165.658-.262h.045l.277-.127c.232-.12.464-.247.748-.4l.187-.112a8.894,8.894,0,0,0,.823-.628l.194-.172h0c.2-.179.374-.351.531-.516s.172-.187.262-.284l.449-.531h0c.075-.1.15-.187.217-.284s.277-.4.441-.643v-.045l.135-.217c.187-.3.366-.621.531-.942,0-.067.067-.142.1-.217V126.4c.127-.269.239-.516.344-.748l.135-.336v-.06c.09-.224.172-.456.254-.7s.1-.284.142-.426.15-.508.224-.748v-.1a1.147,1.147,0,0,1,.082-.292c.1-.411.179-.793.247-1.159a1.541,1.541,0,0,0,0-.165,17.2,17.2,0,0,0,2.2,6.027c1.847,2.991,4.486,4.658,7.44,4.658a7.655,7.655,0,0,0,1.054-.082l.277-.045h.045a6.733,6.733,0,0,0,.748-.165l.344-.1a6.3,6.3,0,0,0,.688-.277h0l.247-.12a9.169,9.169,0,0,0,.89-.5c.06,0,.12-.09.179-.135.224-.157.441-.314.643-.479l.239-.217v-.037c.172-.15.336-.307.486-.464l.277-.292c.142-.157.284-.329.449-.538v-.052a2.826,2.826,0,0,0,.187-.232c.2-.269.389-.553.568-.837l.157-.262.045-.075q.172-.292.336-.606c.075-.142.142-.284.209-.434s.179-.374.262-.576.135-.307.194-.464.164-.426.239-.643v-.112a2.329,2.329,0,0,0,.112-.322c.112-.336.209-.688.307-1.047l.09-.381v-.247a2.037,2.037,0,0,1,.075-.344,1.492,1.492,0,0,0,0-.179,22.742,22.742,0,0,0,.434-4.486c0-7.2-1.5-13.848-4.307-18.82a7.29,7.29,0,0,1,3.955-1.122h.045c5.705,0,8.382,6.116,9.474,9.72a29.093,29.093,0,0,1,.568,14.095l-16.046,63.175a2.243,2.243,0,0,0,2.206,2.841h4.127a2.288,2.288,0,0,0,2.243-1.72l16.128-63.557a.432.432,0,0,0,0-.1,33.185,33.185,0,0,0,.351-11.665,34.051,34.051,0,0,0-4.112-12.24c-3.544-5.982-8.868-9.242-14.955-9.242Zm-23.12,9.638a7.537,7.537,0,0,1,7.911,0,35.523,35.523,0,0,0-3.956,12.936,35.524,35.524,0,0,0-3.955-12.936Zm-5.683,24.428A10.925,10.925,0,0,1,585.8,117.5a35.968,35.968,0,0,1,1.3-9.848,36.27,36.27,0,0,1,1.294,9.8,13.717,13.717,0,0,1-.426,3.5v.142c-.045.172-.1.336-.15.493v.075c-.045.135-.09.254-.135.374l-.052.127c-.045.112-.1.217-.142.322l-.037.075c-.052.112-.112.217-.172.322h0v.045l-.067.1Zm19.269,0a10.9,10.9,0,0,1-1.294-5.608,35.975,35.975,0,0,1,1.3-9.848,36.272,36.272,0,0,1,1.294,9.8,13.461,13.461,0,0,1-.449,3.574h0c-.045.172-.1.336-.15.493l-.045.127c-.045.135-.1.262-.142.389v.067c-.06.135-.112.262-.172.374v.06h0c-.045.1-.09.187-.142.277l-.037.06a1.291,1.291,0,0,1-.082.135Z" transform="translate(-539.708 -49.742)" fill="#f4901e"/>
    </g>
    <path id="Trazado_115125" data-name="Trazado 115125" d="M595.194,36.736c26.679,2.1,50.382,26,52.281,52.692a56.924,56.924,0,0,1-16.45,44.407,48.684,48.684,0,0,0-13.99,31.816h0c0,3.26-11.844,5.9-26.455,5.9s-26.447-2.639-26.447-5.9h0a49.275,49.275,0,0,0-14.139-31.965,57.044,57.044,0,0,1,45.2-96.95Z" transform="translate(-59.369 -5.549)" fill="none" stroke="#ceac8e" stroke-linecap="round" stroke-linejoin="round" stroke-width="4"/>
    <line id="Línea_345" data-name="Línea 345" y2="46.344" transform="translate(372.948 198.849)" fill="none" stroke="#034768" stroke-linecap="round" stroke-linejoin="round" stroke-width="3"/>
    <circle id="Elipse_4750" data-name="Elipse 4750" cx="4.748" cy="4.748" r="4.748" transform="translate(366.296 199.764) rotate(-52.8)" fill="#29a8df"/>
    <line id="Línea_346" data-name="Línea 346" y2="46.344" transform="translate(683.665 198.849)" fill="none" stroke="#034768" stroke-linecap="round" stroke-linejoin="round" stroke-width="3"/>
    <circle id="Elipse_4751" data-name="Elipse 4751" cx="4.748" cy="4.748" r="4.748" transform="translate(677.015 199.765) rotate(-52.8)" fill="#fbc503"/>
    <text id="Bateria" transform="translate(501.811 489.456)" fill="#1b2d5b" font-size="24" font-family="Roboto-Black, Roboto" font-weight="800"><tspan x="0" y="0">Bateria</tspan></text>
    <text id="A_-" data-name="A -" transform="translate(366.128 175.637)" fill="#1b2d5b" font-size="16" font-family="Roboto-Black, Roboto" font-weight="800"><tspan x="0" y="0">A -</tspan></text>
    <text id="B_" data-name="B +" transform="translate(672.404 175.637)" fill="#1b2d5b" font-size="16" font-family="Roboto-Black, Roboto" font-weight="800"><tspan x="0" y="0">B +</tspan></text>
  </g>
</svg>
