<?xml version="1.0" encoding="utf-8"?>
<!-- Generator: Adobe Illustrator 25.2.3, SVG Export Plug-In . SVG Version: 6.00 Build 0)  -->
<!DOCTYPE svg PUBLIC "-//W3C//DTD SVG 1.1//EN" "http://www.w3.org/Graphics/SVG/1.1/DTD/svg11.dtd" [
	<!ENTITY ns_extend "http://ns.adobe.com/Extensibility/1.0/">
	<!ENTITY ns_ai "http://ns.adobe.com/AdobeIllustrator/10.0/">
	<!ENTITY ns_graphs "http://ns.adobe.com/Graphs/1.0/">
	<!ENTITY ns_vars "http://ns.adobe.com/Variables/1.0/">
	<!ENTITY ns_imrep "http://ns.adobe.com/ImageReplacement/1.0/">
	<!ENTITY ns_sfw "http://ns.adobe.com/SaveForWeb/1.0/">
	<!ENTITY ns_custom "http://ns.adobe.com/GenericCustomNamespace/1.0/">
	<!ENTITY ns_adobe_xpath "http://ns.adobe.com/XPath/1.0/">
]>
<svg version="1.1" id="Capa_1" xmlns:x="&ns_extend;" xmlns:i="&ns_ai;" xmlns:graph="&ns_graphs;"
	 xmlns="http://www.w3.org/2000/svg" xmlns:xlink="http://www.w3.org/1999/xlink" x="0px" y="0px" viewBox="0 0 610 212.3"
	 style="enable-background:new 0 0 610 212.3;" xml:space="preserve">
<style type="text/css">
	.st0{stroke:#000000;stroke-miterlimit:10;}
	.st1{enable-background:new    ;}
</style>
<metadata>
	<sfw  xmlns="&ns_sfw;">
		<slices></slices>
		<sliceSourceBounds  bottomLeftOrigin="true" height="211.3" width="610" x="0" y="0.5"></sliceSourceBounds>
	</sfw>
</metadata>
<g id="Grupo_66076" transform="translate(0.623 -104.653)">
	<path id="Trazado_115126" class="st0" d="M-0.6,140.4h610"/>
</g>
<g id="Grupo_66077" transform="translate(0.623 -139.865)">
	<path id="Trazado_115127" d="M-0.6,140.4h610"/>
</g>
<g id="Grupo_66078" transform="translate(0.623 71.41)">
	<path id="Trazado_115128" d="M-0.6,140.4h610"/>
</g>
<g id="Grupo_66079" transform="translate(202.707 -132.31)">
	<g class="st1">
		<path d="M0.5,143.9h2.3v6.2c0,1,0,1.6,0.1,1.9c0.1,0.5,0.3,0.8,0.7,1.1c0.4,0.3,0.9,0.4,1.5,0.4c0.7,0,1.2-0.1,1.5-0.4
			c0.3-0.3,0.5-0.6,0.6-1c0.1-0.4,0.1-1,0.1-1.9v-6.3h2.3v6c0,1.4-0.1,2.3-0.2,2.9s-0.4,1-0.7,1.4S8,155,7.4,155.2s-1.3,0.3-2.2,0.3
			c-1.1,0-1.9-0.1-2.5-0.4c-0.6-0.3-1-0.6-1.3-1s-0.5-0.8-0.6-1.3c-0.2-0.7-0.2-1.6-0.2-2.9V143.9z"/>
		<path d="M19.6,155.4h-2.2v-4.2c0-0.9,0-1.5-0.1-1.7s-0.2-0.5-0.5-0.6s-0.5-0.2-0.8-0.2c-0.4,0-0.7,0.1-1,0.3
			c-0.3,0.2-0.5,0.5-0.6,0.8c-0.1,0.3-0.2,1-0.2,1.9v3.8h-2.2v-8.3h2v1.2c0.7-0.9,1.6-1.4,2.7-1.4c0.5,0,0.9,0.1,1.3,0.3
			c0.4,0.2,0.7,0.4,0.9,0.7c0.2,0.3,0.3,0.6,0.4,0.9c0.1,0.3,0.1,0.8,0.1,1.5V155.4z"/>
		<path d="M21.9,145.9v-2H24v2H21.9z M21.9,155.4v-8.3H24v8.3H21.9z"/>
		<path d="M33.9,155.4h-2v-1.2c-0.3,0.5-0.7,0.8-1.2,1.1s-0.9,0.3-1.4,0.3c-1,0-1.8-0.4-2.4-1.2s-1-1.8-1-3.2c0-1.4,0.3-2.5,1-3.2
			c0.7-0.7,1.5-1.1,2.5-1.1c0.9,0,1.7,0.4,2.4,1.2v-4.1h2.2V155.4z M28,151c0,0.9,0.1,1.5,0.4,1.9c0.4,0.6,0.8,0.9,1.5,0.9
			c0.5,0,0.9-0.2,1.3-0.6c0.4-0.4,0.5-1.1,0.5-1.9c0-1-0.2-1.6-0.5-2.1s-0.8-0.6-1.3-0.6c-0.5,0-1,0.2-1.3,0.6S28,150.2,28,151z"/>
		<path d="M37.7,149.6l-2-0.4c0.2-0.8,0.6-1.4,1.2-1.8s1.4-0.6,2.4-0.6c1,0,1.7,0.1,2.2,0.3c0.5,0.2,0.8,0.5,1,0.9s0.3,1,0.3,2
			l0,2.6c0,0.7,0,1.3,0.1,1.6s0.2,0.7,0.4,1.1h-2.2c-0.1-0.1-0.1-0.4-0.2-0.6c0-0.1-0.1-0.2-0.1-0.3c-0.4,0.4-0.8,0.6-1.2,0.8
			c-0.4,0.2-0.9,0.3-1.4,0.3c-0.9,0-1.5-0.2-2-0.7s-0.7-1-0.7-1.8c0-0.5,0.1-0.9,0.3-1.3c0.2-0.4,0.5-0.6,0.9-0.8
			c0.4-0.2,1-0.4,1.7-0.5c1-0.2,1.7-0.4,2.1-0.5v-0.2c0-0.4-0.1-0.7-0.3-0.9c-0.2-0.2-0.6-0.3-1.2-0.3c-0.4,0-0.7,0.1-0.9,0.2
			S37.8,149.2,37.7,149.6z M40.7,151.4c-0.3,0.1-0.7,0.2-1.3,0.3s-1,0.3-1.2,0.4c-0.3,0.2-0.4,0.5-0.4,0.8c0,0.3,0.1,0.6,0.3,0.8
			c0.2,0.2,0.5,0.3,0.9,0.3c0.4,0,0.8-0.1,1.1-0.4c0.3-0.2,0.4-0.4,0.5-0.7c0.1-0.2,0.1-0.5,0.1-1.1V151.4z"/>
		<path d="M52.6,155.4h-2v-1.2c-0.3,0.5-0.7,0.8-1.2,1.1s-0.9,0.3-1.4,0.3c-1,0-1.8-0.4-2.4-1.2s-1-1.8-1-3.2c0-1.4,0.3-2.5,1-3.2
			c0.7-0.7,1.5-1.1,2.5-1.1c0.9,0,1.7,0.4,2.4,1.2v-4.1h2.2V155.4z M46.7,151c0,0.9,0.1,1.5,0.4,1.9c0.4,0.6,0.8,0.9,1.5,0.9
			c0.5,0,0.9-0.2,1.3-0.6c0.4-0.4,0.5-1.1,0.5-1.9c0-1-0.2-1.6-0.5-2.1s-0.8-0.6-1.3-0.6c-0.5,0-1,0.2-1.3,0.6S46.7,150.2,46.7,151z
			"/>
	</g>
</g>
<g id="Grupo_66080" transform="translate(326.644 -132.31)">
	<g class="st1">
		<path d="M0,151.6l2.2-0.2c0.1,0.8,0.4,1.3,0.8,1.7s1,0.5,1.7,0.5c0.7,0,1.3-0.2,1.7-0.5c0.4-0.3,0.6-0.7,0.6-1.1
			c0-0.3-0.1-0.5-0.2-0.7c-0.2-0.2-0.4-0.4-0.8-0.5c-0.3-0.1-0.9-0.3-1.9-0.5c-1.2-0.3-2.1-0.7-2.6-1.1c-0.7-0.6-1.1-1.4-1.1-2.3
			c0-0.6,0.2-1.1,0.5-1.6c0.3-0.5,0.8-0.9,1.4-1.2c0.6-0.3,1.4-0.4,2.3-0.4c1.4,0,2.5,0.3,3.2,0.9s1.1,1.5,1.1,2.5l-2.3,0.1
			c-0.1-0.6-0.3-1-0.6-1.3c-0.3-0.3-0.8-0.4-1.5-0.4c-0.7,0-1.2,0.1-1.6,0.4c-0.2,0.2-0.4,0.4-0.4,0.7c0,0.3,0.1,0.5,0.3,0.7
			c0.3,0.2,1,0.5,2.1,0.8s2,0.5,2.5,0.8s1,0.7,1.3,1.2s0.5,1.1,0.5,1.8c0,0.7-0.2,1.3-0.5,1.8c-0.4,0.6-0.9,1-1.5,1.3
			c-0.7,0.3-1.5,0.4-2.5,0.4c-1.4,0-2.6-0.3-3.3-1C0.6,153.9,0.1,152.9,0,151.6z"/>
		<path d="M11,146.1l1.1-2.3h2.5l-2.1,2.3H11z M11.2,155.4v-8.3h2.2v8.3H11.2z"/>
		<path d="M15.5,147.1h2v1.1c0.7-0.9,1.6-1.3,2.6-1.3c0.5,0,1,0.1,1.4,0.3s0.7,0.5,1,1c0.4-0.4,0.8-0.8,1.2-1s0.9-0.3,1.4-0.3
			c0.6,0,1.1,0.1,1.5,0.4s0.7,0.6,0.9,1.1c0.2,0.4,0.2,0.9,0.2,1.7v5.3h-2.2v-4.7c0-0.8-0.1-1.4-0.2-1.6c-0.2-0.3-0.5-0.5-0.9-0.5
			c-0.3,0-0.6,0.1-0.9,0.3c-0.3,0.2-0.5,0.5-0.6,0.8c-0.1,0.4-0.2,0.9-0.2,1.7v4h-2.2v-4.5c0-0.8,0-1.3-0.1-1.6s-0.2-0.4-0.4-0.5
			s-0.4-0.2-0.7-0.2c-0.3,0-0.6,0.1-0.9,0.3c-0.3,0.2-0.5,0.4-0.6,0.8s-0.2,0.9-0.2,1.7v4h-2.2V147.1z"/>
		<path d="M29.8,155.4v-11.5H32v4.1c0.7-0.8,1.5-1.2,2.4-1.2c1,0,1.8,0.4,2.5,1.1c0.7,0.7,1,1.8,1,3.2c0,1.4-0.3,2.5-1,3.3
			c-0.7,0.8-1.5,1.1-2.5,1.1c-0.5,0-0.9-0.1-1.4-0.4s-0.9-0.6-1.2-1.1v1.2H29.8z M32,151c0,0.9,0.1,1.5,0.4,1.9
			c0.4,0.6,0.9,0.9,1.5,0.9c0.5,0,0.9-0.2,1.2-0.6c0.3-0.4,0.5-1.1,0.5-2c0-0.9-0.2-1.6-0.5-2.1s-0.8-0.6-1.3-0.6
			c-0.5,0-1,0.2-1.3,0.6C32.1,149.6,32,150.2,32,151z"/>
		<path d="M39.1,151.1c0-0.7,0.2-1.4,0.5-2.1s0.9-1.2,1.5-1.6c0.7-0.4,1.4-0.5,2.2-0.5c1.3,0,2.3,0.4,3.1,1.2
			c0.8,0.8,1.2,1.8,1.2,3.1c0,1.3-0.4,2.3-1.2,3.1c-0.8,0.8-1.8,1.2-3.1,1.2c-0.8,0-1.5-0.2-2.2-0.5c-0.7-0.3-1.2-0.8-1.6-1.5
			S39.1,152.1,39.1,151.1z M41.4,151.2c0,0.8,0.2,1.5,0.6,1.9s0.9,0.7,1.4,0.7c0.6,0,1.1-0.2,1.4-0.7c0.4-0.4,0.6-1.1,0.6-1.9
			c0-0.8-0.2-1.4-0.6-1.9c-0.4-0.4-0.9-0.7-1.4-0.7c-0.6,0-1.1,0.2-1.4,0.7S41.4,150.4,41.4,151.2z"/>
		<path d="M49.4,155.4v-11.5h2.2v11.5H49.4z"/>
		<path d="M53.4,151.1c0-0.7,0.2-1.4,0.5-2.1s0.9-1.2,1.5-1.6c0.7-0.4,1.4-0.5,2.2-0.5c1.3,0,2.3,0.4,3.1,1.2
			c0.8,0.8,1.2,1.8,1.2,3.1c0,1.3-0.4,2.3-1.2,3.1c-0.8,0.8-1.8,1.2-3.1,1.2c-0.8,0-1.5-0.2-2.2-0.5c-0.7-0.3-1.2-0.8-1.6-1.5
			S53.4,152.1,53.4,151.1z M55.6,151.2c0,0.8,0.2,1.5,0.6,1.9s0.9,0.7,1.4,0.7c0.6,0,1.1-0.2,1.4-0.7c0.4-0.4,0.6-1.1,0.6-1.9
			c0-0.8-0.2-1.4-0.6-1.9c-0.4-0.4-0.9-0.7-1.4-0.7c-0.6,0-1.1,0.2-1.4,0.7S55.6,150.4,55.6,151.2z"/>
	</g>
</g>
<g id="Grupo_66081" transform="translate(458.489 -132.31)">
	<g class="st1">
		<path d="M0.5,155.4v-11.5H9v1.9H2.9v2.5h5.8v1.9H2.9v3.1h6.4v1.9H0.5z"/>
		<path d="M16.6,158.5v-4.2c-0.3,0.4-0.6,0.7-1.1,0.9c-0.4,0.2-0.9,0.3-1.4,0.3c-0.9,0-1.7-0.4-2.3-1.1c-0.7-0.8-1.1-2-1.1-3.4
			c0-1.3,0.3-2.4,1-3.1c0.7-0.7,1.5-1.1,2.5-1.1c0.6,0,1,0.1,1.4,0.4c0.4,0.2,0.8,0.6,1.1,1.1v-1.2h2v11.5H16.6z M16.7,151.1
			c0-0.8-0.2-1.5-0.5-1.9c-0.3-0.4-0.8-0.6-1.3-0.6c-0.5,0-1,0.2-1.3,0.6c-0.4,0.4-0.5,1.1-0.5,2c0,0.9,0.2,1.6,0.5,2
			s0.8,0.6,1.3,0.6c0.5,0,0.9-0.2,1.3-0.7C16.5,152.7,16.7,152,16.7,151.1z"/>
		<path d="M26.4,155.4v-1.2c-0.3,0.4-0.7,0.8-1.2,1s-1,0.4-1.6,0.4c-0.6,0-1.1-0.1-1.5-0.4c-0.4-0.2-0.8-0.6-1-1
			c-0.2-0.4-0.3-1.1-0.3-1.8v-5.2h2.2v3.8c0,1.2,0,1.9,0.1,2.1c0.1,0.3,0.2,0.5,0.4,0.6c0.2,0.2,0.5,0.2,0.8,0.2
			c0.4,0,0.7-0.1,1-0.3s0.5-0.5,0.6-0.8s0.2-1.1,0.2-2.2v-3.5h2.2v8.3H26.4z"/>
		<path d="M30.7,145.9v-2h2.2v2H30.7z M30.7,155.4v-8.3h2.2v8.3H30.7z"/>
		<path d="M37.5,155.4l-3.3-8.3h2.3l1.6,4.2l0.5,1.4c0.1-0.4,0.2-0.6,0.2-0.7c0.1-0.2,0.2-0.5,0.2-0.7l1.6-4.2h2.3l-3.3,8.3H37.5z"
			/>
		<path d="M45.7,149.6l-2-0.4c0.2-0.8,0.6-1.4,1.2-1.8s1.4-0.6,2.4-0.6c1,0,1.7,0.1,2.2,0.3c0.5,0.2,0.8,0.5,1,0.9s0.3,1,0.3,2
			l0,2.6c0,0.7,0,1.3,0.1,1.6s0.2,0.7,0.4,1.1h-2.2c-0.1-0.1-0.1-0.4-0.2-0.6c0-0.1-0.1-0.2-0.1-0.3c-0.4,0.4-0.8,0.6-1.2,0.8
			c-0.4,0.2-0.9,0.3-1.4,0.3c-0.9,0-1.5-0.2-2-0.7s-0.7-1-0.7-1.8c0-0.5,0.1-0.9,0.3-1.3c0.2-0.4,0.5-0.6,0.9-0.8
			c0.4-0.2,1-0.4,1.7-0.5c1-0.2,1.7-0.4,2.1-0.5v-0.2c0-0.4-0.1-0.7-0.3-0.9c-0.2-0.2-0.6-0.3-1.2-0.3c-0.4,0-0.7,0.1-0.9,0.2
			S45.9,149.2,45.7,149.6z M48.7,151.4c-0.3,0.1-0.7,0.2-1.3,0.3s-1,0.3-1.2,0.4c-0.3,0.2-0.4,0.5-0.4,0.8c0,0.3,0.1,0.6,0.3,0.8
			c0.2,0.2,0.5,0.3,0.9,0.3c0.4,0,0.8-0.1,1.1-0.4c0.3-0.2,0.4-0.4,0.5-0.7c0.1-0.2,0.1-0.5,0.1-1.1V151.4z"/>
		<path d="M53,155.4v-11.5h2.2v11.5H53z"/>
		<path d="M62.2,152.7l2.2,0.4c-0.3,0.8-0.7,1.4-1.3,1.8c-0.6,0.4-1.4,0.6-2.3,0.6c-1.4,0-2.5-0.5-3.2-1.4c-0.5-0.8-0.8-1.7-0.8-2.9
			c0-1.4,0.4-2.5,1.1-3.2s1.6-1.2,2.7-1.2c1.2,0,2.2,0.4,2.9,1.2c0.7,0.8,1.1,2.1,1,3.7H59c0,0.7,0.2,1.2,0.5,1.5
			c0.3,0.4,0.8,0.5,1.3,0.5c0.3,0,0.6-0.1,0.9-0.3S62.1,153.1,62.2,152.7z M62.4,150.5c0-0.6-0.2-1.1-0.5-1.4s-0.7-0.5-1.1-0.5
			c-0.5,0-0.9,0.2-1.2,0.5s-0.5,0.8-0.5,1.4H62.4z"/>
		<path d="M73.9,155.4h-2.2v-4.2c0-0.9,0-1.5-0.1-1.7s-0.2-0.5-0.5-0.6s-0.5-0.2-0.8-0.2c-0.4,0-0.7,0.1-1,0.3
			c-0.3,0.2-0.5,0.5-0.6,0.8c-0.1,0.3-0.2,1-0.2,1.9v3.8h-2.2v-8.3h2v1.2c0.7-0.9,1.6-1.4,2.7-1.4c0.5,0,0.9,0.1,1.3,0.3
			c0.4,0.2,0.7,0.4,0.9,0.7c0.2,0.3,0.3,0.6,0.4,0.9c0.1,0.3,0.1,0.8,0.1,1.5V155.4z"/>
		<path d="M83.3,149.5l-2.2,0.4c-0.1-0.4-0.2-0.8-0.5-1s-0.6-0.3-1-0.3c-0.5,0-1,0.2-1.3,0.6c-0.3,0.4-0.5,1-0.5,1.9
			c0,1,0.2,1.7,0.5,2.1c0.3,0.4,0.8,0.6,1.3,0.6c0.4,0,0.8-0.1,1-0.4s0.5-0.6,0.6-1.2l2.2,0.4c-0.2,1-0.7,1.7-1.3,2.2
			c-0.6,0.5-1.5,0.8-2.6,0.8c-1.2,0-2.2-0.4-2.9-1.1c-0.7-0.8-1.1-1.8-1.1-3.2c0-1.4,0.4-2.4,1.1-3.2c0.7-0.8,1.7-1.1,2.9-1.1
			c1,0,1.8,0.2,2.4,0.7C82.6,148,83.1,148.6,83.3,149.5z"/>
		<path d="M85,145.9v-2h2.2v2H85z M85,155.4v-8.3h2.2v8.3H85z"/>
		<path d="M91.1,149.6l-2-0.4c0.2-0.8,0.6-1.4,1.2-1.8s1.4-0.6,2.4-0.6c1,0,1.7,0.1,2.2,0.3c0.5,0.2,0.8,0.5,1,0.9s0.3,1,0.3,2
			l0,2.6c0,0.7,0,1.3,0.1,1.6s0.2,0.7,0.4,1.1h-2.2c-0.1-0.1-0.1-0.4-0.2-0.6c0-0.1-0.1-0.2-0.1-0.3c-0.4,0.4-0.8,0.6-1.2,0.8
			c-0.4,0.2-0.9,0.3-1.4,0.3c-0.9,0-1.5-0.2-2-0.7s-0.7-1-0.7-1.8c0-0.5,0.1-0.9,0.3-1.3c0.2-0.4,0.5-0.6,0.9-0.8
			c0.4-0.2,1-0.4,1.7-0.5c1-0.2,1.7-0.4,2.1-0.5v-0.2c0-0.4-0.1-0.7-0.3-0.9c-0.2-0.2-0.6-0.3-1.2-0.3c-0.4,0-0.7,0.1-0.9,0.2
			S91.2,149.2,91.1,149.6z M94,151.4c-0.3,0.1-0.7,0.2-1.3,0.3s-1,0.3-1.2,0.4c-0.3,0.2-0.4,0.5-0.4,0.8c0,0.3,0.1,0.6,0.3,0.8
			c0.2,0.2,0.5,0.3,0.9,0.3c0.4,0,0.8-0.1,1.1-0.4c0.3-0.2,0.4-0.4,0.5-0.7c0.1-0.2,0.1-0.5,0.1-1.1V151.4z"/>
	</g>
</g>
<g id="Grupo_66082" transform="translate(40.712 -79.516)">
	<g>
		<g class="st1">
			<path d="M0.5,154.4v-11.5H4l2.1,7.8l2.1-7.8h3.5v11.5H9.4v-9l-2.3,9H4.9l-2.3-9v9H0.5z"/>
			<path d="M19.3,154.4v-1.2c-0.3,0.4-0.7,0.8-1.2,1s-1,0.4-1.6,0.4c-0.6,0-1.1-0.1-1.5-0.4c-0.4-0.2-0.8-0.6-1-1
				c-0.2-0.4-0.3-1.1-0.3-1.8v-5.2H16v3.8c0,1.2,0,1.9,0.1,2.1c0.1,0.3,0.2,0.5,0.4,0.6c0.2,0.2,0.5,0.2,0.8,0.2
				c0.4,0,0.7-0.1,1-0.3s0.5-0.5,0.6-0.8s0.2-1.1,0.2-2.2v-3.5h2.2v8.3H19.3z M16.5,145.1l1.1-2.3H20l-2.1,2.3H16.5z"/>
			<path d="M23.6,154.4v-11.5h2.2v11.5H23.6z"/>
			<path d="M31.9,146.1v1.8h-1.5v3.3c0,0.7,0,1.1,0,1.2c0,0.1,0.1,0.2,0.2,0.3s0.2,0.1,0.4,0.1c0.2,0,0.5-0.1,0.9-0.2l0.2,1.7
				c-0.5,0.2-1.1,0.3-1.7,0.3c-0.4,0-0.8-0.1-1.1-0.2c-0.3-0.1-0.6-0.3-0.7-0.5s-0.3-0.5-0.3-0.9c0-0.3-0.1-0.8-0.1-1.5v-3.6h-1
				v-1.8h1v-1.6l2.2-1.3v2.9H31.9z"/>
			<path d="M33.4,144.9v-2h2.2v2H33.4z M33.4,154.4v-8.3h2.2v8.3H33.4z"/>
			<path d="M37.8,146.1h2v1.2c0.3-0.4,0.6-0.8,1.1-1s1-0.4,1.5-0.4c1,0,1.8,0.4,2.5,1.1s1,1.8,1,3.2c0,1.4-0.3,2.5-1,3.2
				c-0.7,0.8-1.5,1.2-2.5,1.2c-0.5,0-0.9-0.1-1.2-0.3c-0.4-0.2-0.8-0.5-1.2-0.9v4.2h-2.2V146.1z M40,150.1c0,0.9,0.2,1.6,0.6,2.1
				c0.4,0.4,0.8,0.7,1.4,0.7c0.5,0,0.9-0.2,1.3-0.6c0.3-0.4,0.5-1.1,0.5-2c0-0.9-0.2-1.5-0.5-1.9c-0.3-0.4-0.8-0.6-1.3-0.6
				c-0.5,0-1,0.2-1.3,0.6C40.1,148.7,40,149.3,40,150.1z"/>
			<path d="M47.6,154.4v-11.5h2.2v11.5H47.6z"/>
			<path d="M51.6,150.1c0-0.7,0.2-1.4,0.5-2.1s0.9-1.2,1.5-1.6c0.7-0.4,1.4-0.5,2.2-0.5c1.3,0,2.3,0.4,3.1,1.2
				c0.8,0.8,1.2,1.8,1.2,3.1c0,1.3-0.4,2.3-1.2,3.1c-0.8,0.8-1.8,1.2-3.1,1.2c-0.8,0-1.5-0.2-2.2-0.5c-0.7-0.3-1.2-0.8-1.6-1.5
				S51.6,151.1,51.6,150.1z M53.8,150.2c0,0.8,0.2,1.5,0.6,1.9s0.9,0.7,1.4,0.7c0.6,0,1.1-0.2,1.4-0.7c0.4-0.4,0.6-1.1,0.6-1.9
				c0-0.8-0.2-1.4-0.6-1.9c-0.4-0.4-0.9-0.7-1.4-0.7c-0.6,0-1.1,0.2-1.4,0.7S53.8,149.4,53.8,150.2z"/>
			<path d="M61.1,152l2.2-0.3c0.1,0.4,0.3,0.8,0.6,1c0.3,0.2,0.7,0.3,1.2,0.3c0.6,0,1-0.1,1.3-0.3c0.2-0.1,0.3-0.3,0.3-0.6
				c0-0.2-0.1-0.3-0.2-0.4c-0.1-0.1-0.4-0.2-0.7-0.3c-1.8-0.4-2.9-0.7-3.4-1.1c-0.7-0.4-1-1.1-1-1.9c0-0.7,0.3-1.3,0.9-1.8
				c0.6-0.5,1.4-0.7,2.6-0.7c1.1,0,2,0.2,2.5,0.6c0.6,0.4,0.9,0.9,1.1,1.6l-2.1,0.4c-0.1-0.3-0.3-0.6-0.5-0.7
				c-0.2-0.2-0.6-0.3-1.1-0.3c-0.6,0-1,0.1-1.2,0.2c-0.2,0.1-0.2,0.3-0.2,0.4c0,0.2,0.1,0.3,0.2,0.4c0.2,0.1,0.9,0.4,2.1,0.6
				c1.2,0.3,2,0.6,2.4,1c0.5,0.4,0.7,0.9,0.7,1.6c0,0.8-0.3,1.4-1,2c-0.6,0.5-1.6,0.8-2.8,0.8c-1.1,0-2-0.2-2.7-0.7
				C61.7,153.4,61.3,152.8,61.1,152z"/>
		</g>
	</g>
</g>
<g id="Grupo_66083" transform="translate(180.483 -96.597)">
	<g class="st1">
		<path d="M0.6,154.4v-11.5h2.3l2.7,8.1c0.2,0.8,0.4,1.3,0.5,1.7c0.1-0.4,0.3-1,0.6-1.8l2.7-8h2v11.5H10v-9.6l-3.3,9.6H5.3L2,144.6
			v9.8H0.6z"/>
		<path d="M19.4,151.7l1.5,0.2c-0.2,0.8-0.7,1.5-1.3,2c-0.6,0.5-1.4,0.7-2.4,0.7c-1.2,0-2.2-0.4-2.9-1.1s-1.1-1.8-1.1-3.1
			c0-1.4,0.4-2.5,1.1-3.2s1.7-1.2,2.8-1.2c1.1,0,2,0.4,2.7,1.1s1.1,1.8,1.1,3.2c0,0.1,0,0.2,0,0.4h-6.2c0.1,0.9,0.3,1.6,0.8,2.1
			c0.5,0.5,1,0.7,1.7,0.7c0.5,0,1-0.1,1.3-0.4C18.9,152.7,19.2,152.3,19.4,151.7z M14.8,149.4h4.6c-0.1-0.7-0.2-1.2-0.5-1.6
			c-0.4-0.5-1-0.8-1.7-0.8c-0.6,0-1.2,0.2-1.6,0.6C15.1,148.1,14.9,148.7,14.8,149.4z"/>
		<path d="M22.4,155.1l1.4,0.2c0.1,0.4,0.2,0.7,0.5,0.9c0.3,0.3,0.8,0.4,1.4,0.4c0.7,0,1.2-0.1,1.5-0.4c0.4-0.3,0.6-0.6,0.7-1.1
			c0.1-0.3,0.1-0.9,0.1-1.8c-0.6,0.7-1.4,1.1-2.3,1.1c-1.1,0-2-0.4-2.6-1.2s-0.9-1.8-0.9-3c0-0.8,0.1-1.5,0.4-2.2
			c0.3-0.7,0.7-1.2,1.2-1.6c0.5-0.4,1.2-0.5,1.9-0.5c1,0,1.8,0.4,2.4,1.2v-1h1.3v7.2c0,1.3-0.1,2.2-0.4,2.7c-0.3,0.5-0.7,1-1.2,1.3
			s-1.3,0.5-2.1,0.5c-1,0-1.8-0.2-2.4-0.7S22.4,155.9,22.4,155.1z M23.6,150.1c0,1.1,0.2,1.9,0.6,2.4c0.4,0.5,1,0.8,1.6,0.8
			c0.6,0,1.2-0.2,1.6-0.7s0.7-1.3,0.7-2.3c0-1-0.2-1.8-0.7-2.3c-0.5-0.5-1-0.8-1.6-0.8c-0.6,0-1.2,0.3-1.6,0.8
			S23.6,149.1,23.6,150.1z"/>
		<path d="M37,153.3c-0.5,0.4-1,0.8-1.5,0.9c-0.5,0.2-1,0.3-1.6,0.3c-0.9,0-1.6-0.2-2.1-0.7c-0.5-0.4-0.7-1-0.7-1.7
			c0-0.4,0.1-0.8,0.3-1.1c0.2-0.3,0.4-0.6,0.7-0.8c0.3-0.2,0.6-0.4,1-0.5c0.3-0.1,0.7-0.1,1.2-0.2c1.1-0.1,2-0.3,2.5-0.5
			c0-0.2,0-0.3,0-0.4c0-0.6-0.1-1-0.4-1.2c-0.4-0.3-0.9-0.5-1.6-0.5c-0.7,0-1.1,0.1-1.5,0.3c-0.3,0.2-0.5,0.6-0.7,1.2l-1.4-0.2
			c0.1-0.6,0.3-1.1,0.6-1.4c0.3-0.4,0.7-0.6,1.2-0.8c0.5-0.2,1.2-0.3,1.9-0.3c0.7,0,1.3,0.1,1.7,0.2c0.4,0.2,0.8,0.4,1,0.6
			c0.2,0.3,0.4,0.6,0.4,1c0,0.2,0.1,0.7,0.1,1.3v1.9c0,1.3,0,2.1,0.1,2.5c0.1,0.3,0.2,0.7,0.4,1h-1.5C37.1,154.1,37,153.7,37,153.3z
			 M36.9,150.2c-0.5,0.2-1.3,0.4-2.3,0.5c-0.6,0.1-1,0.2-1.2,0.3c-0.2,0.1-0.4,0.3-0.6,0.5c-0.1,0.2-0.2,0.4-0.2,0.7
			c0,0.4,0.1,0.7,0.4,0.9c0.3,0.2,0.7,0.4,1.2,0.4c0.5,0,1-0.1,1.4-0.4s0.7-0.6,0.9-1c0.2-0.3,0.2-0.8,0.2-1.4V150.2z"/>
		<path d="M40.5,154.4v-8.3h1.3v1.2c0.3-0.4,0.6-0.7,1-1c0.4-0.2,0.9-0.4,1.5-0.4c0.6,0,1.1,0.1,1.5,0.4c0.4,0.3,0.7,0.6,0.8,1.1
			c0.7-1,1.5-1.5,2.6-1.5c0.8,0,1.5,0.2,1.9,0.7c0.4,0.5,0.7,1.2,0.7,2.1v5.7h-1.4v-5.2c0-0.6,0-1-0.1-1.2c-0.1-0.2-0.3-0.4-0.5-0.6
			c-0.2-0.2-0.5-0.2-0.8-0.2c-0.6,0-1.1,0.2-1.5,0.6c-0.4,0.4-0.6,1-0.6,1.9v4.8h-1.4V149c0-0.6-0.1-1.1-0.3-1.4
			c-0.2-0.3-0.6-0.5-1.1-0.5c-0.4,0-0.8,0.1-1.1,0.3s-0.6,0.5-0.7,0.9c-0.2,0.4-0.2,1-0.2,1.7v4.3H40.5z"/>
		<path d="M53.8,157.5v-11.5h1.3v1.1c0.3-0.4,0.6-0.7,1-0.9c0.4-0.2,0.8-0.3,1.4-0.3c0.7,0,1.3,0.2,1.9,0.5c0.5,0.4,1,0.9,1.2,1.5
			c0.3,0.7,0.4,1.4,0.4,2.2c0,0.8-0.2,1.6-0.5,2.3s-0.7,1.2-1.3,1.6c-0.6,0.4-1.2,0.5-1.8,0.5c-0.5,0-0.9-0.1-1.3-0.3
			c-0.4-0.2-0.7-0.4-0.9-0.8v4H53.8z M55.1,150.3c0,1.1,0.2,1.9,0.6,2.4c0.4,0.5,1,0.8,1.6,0.8c0.6,0,1.2-0.3,1.6-0.8
			s0.7-1.3,0.7-2.5c0-1.1-0.2-1.8-0.7-2.4c-0.4-0.5-1-0.8-1.6-0.8c-0.6,0-1.1,0.3-1.6,0.8S55.1,149.2,55.1,150.3z"/>
		<path d="M68.4,151.7l1.5,0.2c-0.2,0.8-0.7,1.5-1.3,2c-0.6,0.5-1.4,0.7-2.4,0.7c-1.2,0-2.2-0.4-2.9-1.1s-1.1-1.8-1.1-3.1
			c0-1.4,0.4-2.5,1.1-3.2s1.7-1.2,2.8-1.2c1.1,0,2,0.4,2.7,1.1s1.1,1.8,1.1,3.2c0,0.1,0,0.2,0,0.4h-6.2c0.1,0.9,0.3,1.6,0.8,2.1
			c0.5,0.5,1,0.7,1.7,0.7c0.5,0,1-0.1,1.3-0.4C67.9,152.7,68.1,152.3,68.4,151.7z M63.7,149.4h4.6c-0.1-0.7-0.2-1.2-0.5-1.6
			c-0.4-0.5-1-0.8-1.7-0.8c-0.6,0-1.2,0.2-1.6,0.6C64,148.1,63.8,148.7,63.7,149.4z"/>
		<path d="M71.6,154.4v-8.3h1.3v1.3c0.3-0.6,0.6-1,0.9-1.2s0.6-0.3,0.9-0.3c0.5,0,1,0.2,1.4,0.5l-0.5,1.3c-0.3-0.2-0.7-0.3-1-0.3
			c-0.3,0-0.6,0.1-0.8,0.3c-0.2,0.2-0.4,0.4-0.5,0.8c-0.2,0.5-0.2,1-0.2,1.6v4.3H71.6z"/>
		<path d="M76.9,144.5v-1.6h1.4v1.6H76.9z M76.9,154.4v-8.3h1.4v8.3H76.9z"/>
		<path d="M79.9,150.2c0-1.5,0.4-2.7,1.3-3.4c0.7-0.6,1.6-0.9,2.6-0.9c1.1,0,2.1,0.4,2.8,1.1c0.7,0.7,1.1,1.8,1.1,3.1
			c0,1.1-0.2,1.9-0.5,2.5s-0.8,1.1-1.4,1.4c-0.6,0.3-1.3,0.5-2,0.5c-1.2,0-2.1-0.4-2.8-1.1C80.3,152.7,79.9,151.6,79.9,150.2z
			 M81.4,150.2c0,1.1,0.2,1.9,0.7,2.4c0.5,0.5,1,0.8,1.8,0.8c0.7,0,1.3-0.3,1.7-0.8c0.5-0.5,0.7-1.3,0.7-2.4c0-1-0.2-1.8-0.7-2.3
			c-0.5-0.5-1-0.8-1.7-0.8c-0.7,0-1.3,0.3-1.8,0.8C81.6,148.4,81.4,149.2,81.4,150.2z"/>
	</g>
</g>
<g id="Grupo_66084" transform="translate(346.733 -96.597)">
	<g class="st1">
		<path d="M0.6,154.4v-11.5h2.3l2.7,8.1c0.2,0.8,0.4,1.3,0.5,1.7c0.1-0.4,0.3-1,0.6-1.8l2.7-8h2v11.5H10v-9.6l-3.3,9.6H5.3L2,144.6
			v9.8H0.6z"/>
		<path d="M12.7,154.4l4.4-11.5h1.6l4.7,11.5h-1.7l-1.3-3.5h-4.8l-1.3,3.5H12.7z M16,149.7h3.9l-1.2-3.2c-0.4-1-0.6-1.8-0.8-2.4
			c-0.1,0.7-0.4,1.5-0.6,2.2L16,149.7z"/>
	</g>
</g>
<g id="Grupo_66085" transform="translate(490.107 -96.597)">
	<g class="st1">
		<path d="M5.3,154.4H3.9v-9c-0.3,0.3-0.8,0.6-1.3,1c-0.5,0.3-1,0.6-1.5,0.7v-1.4c0.8-0.4,1.5-0.8,2.1-1.3c0.6-0.5,1-1,1.2-1.5h0.9
			V154.4z"/>
		<path d="M8.9,148.7c0-1.4,0.1-2.4,0.4-3.3c0.3-0.8,0.7-1.5,1.2-1.9c0.5-0.4,1.2-0.7,2.1-0.7c0.6,0,1.2,0.1,1.6,0.4
			c0.5,0.2,0.8,0.6,1.1,1.1c0.3,0.5,0.5,1,0.7,1.7s0.3,1.6,0.3,2.7c0,1.3-0.1,2.4-0.4,3.3c-0.3,0.8-0.7,1.5-1.2,1.9
			c-0.5,0.5-1.2,0.7-2.1,0.7c-1.1,0-2-0.4-2.6-1.2C9.3,152.4,8.9,150.9,8.9,148.7z M10.4,148.7c0,1.9,0.2,3.1,0.7,3.8
			c0.4,0.6,1,0.9,1.6,0.9c0.6,0,1.2-0.3,1.6-0.9c0.4-0.6,0.7-1.9,0.7-3.8c0-1.9-0.2-3.1-0.7-3.8c-0.4-0.6-1-0.9-1.6-0.9
			c-0.6,0-1.2,0.3-1.5,0.8C10.6,145.5,10.4,146.8,10.4,148.7z"/>
	</g>
</g>
<g id="Grupo_66086" transform="translate(510.681 -96.597)">
	<g class="st1">
		<path d="M5.3,141.7l-1.4,0.1c-0.1-0.6-0.3-1-0.5-1.2C3,140.2,2.6,140,2,140c-0.4,0-0.8,0.1-1.2,0.4c-0.4,0.3-0.8,0.8-1,1.4
			s-0.4,1.5-0.4,2.6c0.3-0.5,0.8-0.9,1.2-1.1s1-0.4,1.5-0.4c0.9,0,1.7,0.3,2.4,1s1,1.6,1,2.7c0,0.7-0.2,1.4-0.5,2s-0.7,1.1-1.3,1.4
			s-1.2,0.5-1.8,0.5c-1.2,0-2.1-0.4-2.9-1.3S-2,147-2,145c0-2.2,0.4-3.8,1.2-4.8c0.7-0.9,1.7-1.3,2.9-1.3c0.9,0,1.6,0.3,2.2,0.8
			S5.2,140.8,5.3,141.7z M-0.4,146.7c0,0.5,0.1,0.9,0.3,1.4s0.5,0.8,0.9,1s0.8,0.3,1.2,0.3c0.6,0,1.1-0.2,1.5-0.7s0.6-1.1,0.6-2
			c0-0.8-0.2-1.4-0.6-1.9s-1-0.7-1.6-0.7c-0.6,0-1.2,0.2-1.6,0.7S-0.4,145.9-0.4,146.7z"/>
	</g>
</g>
<g id="Grupo_66087" transform="translate(520.479 -96.597)">
	<g class="st1">
		<path d="M-0.6,154.4l4.4-11.5h1.6l4.7,11.5H8.3L7,150.9H2.2L1,154.4H-0.6z M2.7,149.7h3.9l-1.2-3.2c-0.4-1-0.6-1.8-0.8-2.4
			c-0.1,0.7-0.4,1.5-0.6,2.2L2.7,149.7z"/>
	</g>
</g>
<g id="Grupo_66088" transform="translate(183.104 -60.883)">
	<g class="st1">
		<path d="M0.5,154.4v-11.5h1.5v5.7l5.7-5.7h2.1L5,147.6l5,6.8H8l-4.1-5.8l-1.9,1.8v4H0.5z"/>
		<path d="M11.1,144.5v-1.6h1.4v1.6H11.1z M11.1,154.4v-8.3h1.4v8.3H11.1z"/>
		<path d="M14.6,154.4v-11.5H16v11.5H14.6z"/>
		<path d="M17.7,150.2c0-1.5,0.4-2.7,1.3-3.4c0.7-0.6,1.6-0.9,2.6-0.9c1.1,0,2.1,0.4,2.8,1.1c0.7,0.7,1.1,1.8,1.1,3.1
			c0,1.1-0.2,1.9-0.5,2.5s-0.8,1.1-1.4,1.4c-0.6,0.3-1.3,0.5-2,0.5c-1.2,0-2.1-0.4-2.8-1.1C18,152.7,17.7,151.6,17.7,150.2z
			 M19.1,150.2c0,1.1,0.2,1.9,0.7,2.4c0.5,0.5,1,0.8,1.8,0.8c0.7,0,1.3-0.3,1.7-0.8c0.5-0.5,0.7-1.3,0.7-2.4c0-1-0.2-1.8-0.7-2.3
			c-0.5-0.5-1-0.8-1.7-0.8c-0.7,0-1.3,0.3-1.8,0.8C19.4,148.4,19.1,149.2,19.1,150.2z"/>
		<path d="M32.5,153.3c-0.5,0.4-1,0.8-1.5,0.9c-0.5,0.2-1,0.3-1.6,0.3c-0.9,0-1.6-0.2-2.1-0.7c-0.5-0.4-0.7-1-0.7-1.7
			c0-0.4,0.1-0.8,0.3-1.1c0.2-0.3,0.4-0.6,0.7-0.8c0.3-0.2,0.6-0.4,1-0.5c0.3-0.1,0.7-0.1,1.2-0.2c1.1-0.1,2-0.3,2.5-0.5
			c0-0.2,0-0.3,0-0.4c0-0.6-0.1-1-0.4-1.2c-0.4-0.3-0.9-0.5-1.6-0.5c-0.7,0-1.1,0.1-1.5,0.3c-0.3,0.2-0.5,0.6-0.7,1.2l-1.4-0.2
			c0.1-0.6,0.3-1.1,0.6-1.4c0.3-0.4,0.7-0.6,1.2-0.8c0.5-0.2,1.2-0.3,1.9-0.3c0.7,0,1.3,0.1,1.7,0.2c0.4,0.2,0.8,0.4,1,0.6
			c0.2,0.3,0.4,0.6,0.4,1c0,0.2,0.1,0.7,0.1,1.3v1.9c0,1.3,0,2.1,0.1,2.5c0.1,0.3,0.2,0.7,0.4,1h-1.5
			C32.7,154.1,32.6,153.7,32.5,153.3z M32.4,150.2c-0.5,0.2-1.3,0.4-2.3,0.5c-0.6,0.1-1,0.2-1.2,0.3c-0.2,0.1-0.4,0.3-0.6,0.5
			c-0.1,0.2-0.2,0.4-0.2,0.7c0,0.4,0.1,0.7,0.4,0.9c0.3,0.2,0.7,0.4,1.2,0.4c0.5,0,1-0.1,1.4-0.4s0.7-0.6,0.9-1
			c0.2-0.3,0.2-0.8,0.2-1.4V150.2z"/>
		<path d="M36,154.4v-8.3h1.3v1.2c0.3-0.4,0.6-0.7,1-1c0.4-0.2,0.9-0.4,1.5-0.4c0.6,0,1.1,0.1,1.5,0.4c0.4,0.3,0.7,0.6,0.8,1.1
			c0.7-1,1.5-1.5,2.6-1.5c0.8,0,1.5,0.2,1.9,0.7c0.4,0.5,0.7,1.2,0.7,2.1v5.7h-1.4v-5.2c0-0.6,0-1-0.1-1.2c-0.1-0.2-0.3-0.4-0.5-0.6
			c-0.2-0.2-0.5-0.2-0.8-0.2c-0.6,0-1.1,0.2-1.5,0.6c-0.4,0.4-0.6,1-0.6,1.9v4.8h-1.4V149c0-0.6-0.1-1.1-0.3-1.4
			c-0.2-0.3-0.6-0.5-1.1-0.5c-0.4,0-0.8,0.1-1.1,0.3s-0.6,0.5-0.7,0.9c-0.2,0.4-0.2,1-0.2,1.7v4.3H36z"/>
		<path d="M49.3,157.5v-11.5h1.3v1.1c0.3-0.4,0.6-0.7,1-0.9c0.4-0.2,0.8-0.3,1.4-0.3c0.7,0,1.3,0.2,1.9,0.5c0.5,0.4,1,0.9,1.2,1.5
			c0.3,0.7,0.4,1.4,0.4,2.2c0,0.8-0.2,1.6-0.5,2.3s-0.7,1.2-1.3,1.6c-0.6,0.4-1.2,0.5-1.8,0.5c-0.5,0-0.9-0.1-1.3-0.3
			c-0.4-0.2-0.7-0.4-0.9-0.8v4H49.3z M50.6,150.3c0,1.1,0.2,1.9,0.6,2.4c0.4,0.5,1,0.8,1.6,0.8c0.6,0,1.2-0.3,1.6-0.8
			s0.7-1.3,0.7-2.5c0-1.1-0.2-1.8-0.7-2.4c-0.4-0.5-1-0.8-1.6-0.8c-0.6,0-1.1,0.3-1.6,0.8S50.6,149.2,50.6,150.3z"/>
		<path d="M63.9,151.7l1.5,0.2c-0.2,0.8-0.7,1.5-1.3,2c-0.6,0.5-1.4,0.7-2.4,0.7c-1.2,0-2.2-0.4-2.9-1.1s-1.1-1.8-1.1-3.1
			c0-1.4,0.4-2.5,1.1-3.2s1.7-1.2,2.8-1.2c1.1,0,2,0.4,2.7,1.1s1.1,1.8,1.1,3.2c0,0.1,0,0.2,0,0.4h-6.2c0.1,0.9,0.3,1.6,0.8,2.1
			c0.5,0.5,1,0.7,1.7,0.7c0.5,0,1-0.1,1.3-0.4C63.4,152.7,63.7,152.3,63.9,151.7z M59.3,149.4h4.6c-0.1-0.7-0.2-1.2-0.5-1.6
			c-0.4-0.5-1-0.8-1.7-0.8c-0.6,0-1.2,0.2-1.6,0.6C59.6,148.1,59.3,148.7,59.3,149.4z"/>
		<path d="M67.1,154.4v-8.3h1.3v1.3c0.3-0.6,0.6-1,0.9-1.2s0.6-0.3,0.9-0.3c0.5,0,1,0.2,1.4,0.5l-0.5,1.3c-0.3-0.2-0.7-0.3-1-0.3
			c-0.3,0-0.6,0.1-0.8,0.3c-0.2,0.2-0.4,0.4-0.5,0.8c-0.2,0.5-0.2,1-0.2,1.6v4.3H67.1z"/>
		<path d="M72.5,144.5v-1.6h1.4v1.6H72.5z M72.5,154.4v-8.3h1.4v8.3H72.5z"/>
		<path d="M75.5,150.2c0-1.5,0.4-2.7,1.3-3.4c0.7-0.6,1.6-0.9,2.6-0.9c1.1,0,2.1,0.4,2.8,1.1c0.7,0.7,1.1,1.8,1.1,3.1
			c0,1.1-0.2,1.9-0.5,2.5s-0.8,1.1-1.4,1.4c-0.6,0.3-1.3,0.5-2,0.5c-1.2,0-2.1-0.4-2.8-1.1C75.9,152.7,75.5,151.6,75.5,150.2z
			 M76.9,150.2c0,1.1,0.2,1.9,0.7,2.4c0.5,0.5,1,0.8,1.8,0.8c0.7,0,1.3-0.3,1.7-0.8c0.5-0.5,0.7-1.3,0.7-2.4c0-1-0.2-1.8-0.7-2.3
			c-0.5-0.5-1-0.8-1.7-0.8c-0.7,0-1.3,0.3-1.8,0.8C77.2,148.4,76.9,149.2,76.9,150.2z"/>
	</g>
</g>
<g id="Grupo_66089" transform="translate(349.839 -60.883)">
	<g class="st1">
		<path d="M0.4,154.4v-11.5h1.4v6.5l3.3-3.4H7l-3.2,3.1l3.5,5.2H5.6l-2.7-4.2l-1,1v3.3H0.4z"/>
		<path d="M7.4,154.4l4.4-11.5h1.6l4.7,11.5h-1.7l-1.3-3.5h-4.8L9,154.4H7.4z M10.7,149.7h3.9l-1.2-3.2c-0.4-1-0.6-1.8-0.8-2.4
			c-0.1,0.7-0.4,1.5-0.6,2.2L10.7,149.7z"/>
	</g>
</g>
<g id="Grupo_66090" transform="translate(488.892 -60.883)">
	<g class="st1">
		<path d="M5.3,154.4H3.9v-9c-0.3,0.3-0.8,0.6-1.3,1s-1,0.6-1.5,0.7v-1.4c0.8-0.4,1.5-0.8,2.1-1.3s1-1,1.3-1.5h0.9V154.4z"/>
		<path d="M8.9,148.7c0-1.4,0.1-2.4,0.4-3.3s0.7-1.5,1.2-1.9s1.2-0.7,2.1-0.7c0.6,0,1.2,0.1,1.6,0.4s0.8,0.6,1.1,1.1s0.5,1,0.7,1.7
			s0.3,1.6,0.3,2.7c0,1.3-0.1,2.4-0.4,3.3s-0.7,1.5-1.2,1.9s-1.2,0.7-2.1,0.7c-1.1,0-2-0.4-2.6-1.2C9.3,152.4,8.9,150.9,8.9,148.7z
			 M10.4,148.7c0,1.9,0.2,3.1,0.7,3.8s1,0.9,1.6,0.9s1.2-0.3,1.6-0.9s0.7-1.9,0.7-3.8c0-1.9-0.2-3.1-0.7-3.8s-1-0.9-1.6-0.9
			c-0.6,0-1.2,0.3-1.5,0.8C10.6,145.5,10.4,146.8,10.4,148.7z"/>
	</g>
</g>
<g id="Grupo_66091" transform="translate(509.466 -60.883)">
	<g class="st1">
		<path d="M-2,145.3l1.4-0.2c0.2,0.8,0.4,1.4,0.8,1.7s0.9,0.5,1.4,0.5c0.7,0,1.2-0.2,1.7-0.7s0.7-1,0.7-1.7c0-0.6-0.2-1.2-0.6-1.6
			s-1-0.6-1.6-0.6c-0.3,0-0.6,0.1-1,0.2l0.2-1.2c0.1,0,0.2,0,0.2,0c0.6,0,1.1-0.2,1.6-0.5s0.7-0.8,0.7-1.4c0-0.5-0.2-0.9-0.5-1.3
			S2.2,138,1.7,138c-0.5,0-1,0.2-1.4,0.5s-0.6,0.9-0.7,1.5l-1.4-0.2c0.2-0.9,0.6-1.7,1.2-2.2s1.4-0.8,2.3-0.8c0.6,0,1.2,0.1,1.7,0.4
			s0.9,0.6,1.2,1.1s0.4,1,0.4,1.5c0,0.5-0.1,0.9-0.4,1.4s-0.7,0.7-1.2,1c0.7,0.2,1.2,0.5,1.6,1s0.6,1.1,0.6,1.8c0,1-0.4,1.8-1.1,2.5
			s-1.7,1-2.8,1c-1,0-1.8-0.3-2.5-0.9S-1.9,146.3-2,145.3z"/>
	</g>
</g>
<g id="Grupo_66092" transform="translate(520.669 -60.883)">
	<g class="st1">
		<path d="M-0.6,154.4l4.4-11.5h1.6l4.7,11.5H8.3L7,150.9H2.2L1,154.4H-0.6z M2.7,149.7h3.9l-1.2-3.2c-0.4-1-0.6-1.8-0.8-2.4
			c-0.1,0.7-0.4,1.5-0.6,2.2L2.7,149.7z"/>
	</g>
</g>
<g id="Grupo_66093" transform="translate(18.585 -26.722)">
	<g>
		<g class="st1">
			<path d="M0.5,142.9h2.3v6.2c0,1,0,1.6,0.1,1.9c0.1,0.5,0.3,0.8,0.7,1.1c0.4,0.3,0.9,0.4,1.5,0.4c0.7,0,1.2-0.1,1.5-0.4
				c0.3-0.3,0.5-0.6,0.6-1c0.1-0.4,0.1-1,0.1-1.9v-6.3h2.3v6c0,1.4-0.1,2.3-0.2,2.9c-0.1,0.6-0.4,1-0.7,1.4S8,154,7.4,154.2
				c-0.6,0.2-1.3,0.3-2.2,0.3c-1.1,0-1.9-0.1-2.5-0.4c-0.6-0.3-1-0.6-1.3-1c-0.3-0.4-0.5-0.8-0.6-1.3c-0.2-0.7-0.2-1.6-0.2-2.9
				V142.9z"/>
			<path d="M19.6,154.4h-2.2v-4.2c0-0.9,0-1.5-0.1-1.7c-0.1-0.3-0.2-0.5-0.5-0.6c-0.2-0.1-0.5-0.2-0.8-0.2c-0.4,0-0.7,0.1-1,0.3
				c-0.3,0.2-0.5,0.5-0.6,0.8c-0.1,0.3-0.2,1-0.2,1.9v3.8h-2.2v-8.3h2v1.2c0.7-0.9,1.6-1.4,2.7-1.4c0.5,0,0.9,0.1,1.3,0.3
				c0.4,0.2,0.7,0.4,0.9,0.7c0.2,0.3,0.3,0.6,0.4,0.9c0.1,0.3,0.1,0.8,0.1,1.5V154.4z"/>
			<path d="M21.9,144.9v-2H24v2H21.9z M21.9,154.4v-8.3H24v8.3H21.9z"/>
			<path d="M33.9,154.4h-2v-1.2c-0.3,0.5-0.7,0.8-1.2,1.1c-0.5,0.2-0.9,0.3-1.4,0.3c-1,0-1.8-0.4-2.4-1.2c-0.7-0.8-1-1.8-1-3.2
				c0-1.4,0.3-2.5,1-3.2c0.7-0.7,1.5-1.1,2.5-1.1c0.9,0,1.7,0.4,2.4,1.2v-4.1h2.2V154.4z M28,150c0,0.9,0.1,1.5,0.4,1.9
				c0.4,0.6,0.8,0.9,1.5,0.9c0.5,0,0.9-0.2,1.3-0.6c0.4-0.4,0.5-1.1,0.5-1.9c0-1-0.2-1.6-0.5-2.1c-0.3-0.4-0.8-0.6-1.3-0.6
				c-0.5,0-1,0.2-1.3,0.6S28,149.2,28,150z"/>
			<path d="M37.7,148.6l-2-0.4c0.2-0.8,0.6-1.4,1.2-1.8c0.5-0.4,1.4-0.6,2.4-0.6c1,0,1.7,0.1,2.2,0.3c0.5,0.2,0.8,0.5,1,0.9
				c0.2,0.4,0.3,1,0.3,2l0,2.6c0,0.7,0,1.3,0.1,1.6c0.1,0.3,0.2,0.7,0.4,1.1h-2.2c-0.1-0.1-0.1-0.4-0.2-0.6c0-0.1-0.1-0.2-0.1-0.3
				c-0.4,0.4-0.8,0.6-1.2,0.8c-0.4,0.2-0.9,0.3-1.4,0.3c-0.9,0-1.5-0.2-2-0.7c-0.5-0.5-0.7-1.1-0.7-1.8c0-0.5,0.1-0.9,0.3-1.3
				c0.2-0.4,0.5-0.6,0.9-0.8c0.4-0.2,1-0.4,1.7-0.5c1-0.2,1.7-0.4,2.1-0.5v-0.2c0-0.4-0.1-0.7-0.3-0.9c-0.2-0.2-0.6-0.3-1.2-0.3
				c-0.4,0-0.7,0.1-0.9,0.2C38,147.9,37.8,148.2,37.7,148.6z M40.7,150.4c-0.3,0.1-0.7,0.2-1.3,0.3c-0.6,0.1-1,0.3-1.2,0.4
				c-0.3,0.2-0.4,0.5-0.4,0.8c0,0.3,0.1,0.6,0.3,0.8c0.2,0.2,0.5,0.3,0.9,0.3c0.4,0,0.8-0.1,1.1-0.4c0.3-0.2,0.4-0.4,0.5-0.7
				c0.1-0.2,0.1-0.5,0.1-1.1V150.4z"/>
			<path d="M52.6,154.4h-2v-1.2c-0.3,0.5-0.7,0.8-1.2,1.1c-0.5,0.2-0.9,0.3-1.4,0.3c-1,0-1.8-0.4-2.4-1.2c-0.7-0.8-1-1.8-1-3.2
				c0-1.4,0.3-2.5,1-3.2c0.7-0.7,1.5-1.1,2.5-1.1c0.9,0,1.7,0.4,2.4,1.2v-4.1h2.2V154.4z M46.7,150c0,0.9,0.1,1.5,0.4,1.9
				c0.4,0.6,0.8,0.9,1.5,0.9c0.5,0,0.9-0.2,1.3-0.6c0.4-0.4,0.5-1.1,0.5-1.9c0-1-0.2-1.6-0.5-2.1c-0.3-0.4-0.8-0.6-1.3-0.6
				c-0.5,0-1,0.2-1.3,0.6S46.7,149.2,46.7,150z"/>
			<path d="M59.1,154.4v-11.5h2.2v4.1c0.7-0.8,1.5-1.2,2.4-1.2c1,0,1.8,0.4,2.5,1.1c0.7,0.7,1,1.8,1,3.2c0,1.4-0.3,2.5-1,3.3
				c-0.7,0.8-1.5,1.1-2.5,1.1c-0.5,0-0.9-0.1-1.4-0.4c-0.5-0.2-0.9-0.6-1.2-1.1v1.2H59.1z M61.3,150c0,0.9,0.1,1.5,0.4,1.9
				c0.4,0.6,0.9,0.9,1.5,0.9c0.5,0,0.9-0.2,1.2-0.6c0.3-0.4,0.5-1.1,0.5-2c0-0.9-0.2-1.6-0.5-2.1c-0.3-0.4-0.8-0.6-1.3-0.6
				c-0.5,0-1,0.2-1.3,0.6C61.4,148.6,61.3,149.2,61.3,150z"/>
			<path d="M70.6,148.6l-2-0.4c0.2-0.8,0.6-1.4,1.2-1.8c0.5-0.4,1.4-0.6,2.4-0.6c1,0,1.7,0.1,2.2,0.3c0.5,0.2,0.8,0.5,1,0.9
				c0.2,0.4,0.3,1,0.3,2l0,2.6c0,0.7,0,1.3,0.1,1.6c0.1,0.3,0.2,0.7,0.4,1.1H74c-0.1-0.1-0.1-0.4-0.2-0.6c0-0.1-0.1-0.2-0.1-0.3
				c-0.4,0.4-0.8,0.6-1.2,0.8c-0.4,0.2-0.9,0.3-1.4,0.3c-0.9,0-1.5-0.2-2-0.7c-0.5-0.5-0.7-1.1-0.7-1.8c0-0.5,0.1-0.9,0.3-1.3
				c0.2-0.4,0.5-0.6,0.9-0.8c0.4-0.2,1-0.4,1.7-0.5c1-0.2,1.7-0.4,2.1-0.5v-0.2c0-0.4-0.1-0.7-0.3-0.9c-0.2-0.2-0.6-0.3-1.2-0.3
				c-0.4,0-0.7,0.1-0.9,0.2C70.9,147.9,70.7,148.2,70.6,148.6z M73.5,150.4c-0.3,0.1-0.7,0.2-1.3,0.3c-0.6,0.1-1,0.3-1.2,0.4
				c-0.3,0.2-0.4,0.5-0.4,0.8c0,0.3,0.1,0.6,0.3,0.8c0.2,0.2,0.5,0.3,0.9,0.3c0.4,0,0.8-0.1,1.1-0.4c0.3-0.2,0.4-0.4,0.5-0.7
				c0.1-0.2,0.1-0.5,0.1-1.1V150.4z M71.2,145.1l1.1-2.3h2.5l-2.1,2.3H71.2z"/>
			<path d="M77.1,152l2.2-0.3c0.1,0.4,0.3,0.8,0.6,1c0.3,0.2,0.7,0.3,1.2,0.3c0.6,0,1-0.1,1.3-0.3c0.2-0.1,0.3-0.3,0.3-0.6
				c0-0.2-0.1-0.3-0.2-0.4c-0.1-0.1-0.4-0.2-0.7-0.3c-1.8-0.4-2.9-0.7-3.4-1.1c-0.7-0.4-1-1.1-1-1.9c0-0.7,0.3-1.3,0.9-1.8
				c0.6-0.5,1.4-0.7,2.6-0.7c1.1,0,2,0.2,2.5,0.6c0.6,0.4,0.9,0.9,1.1,1.6l-2.1,0.4c-0.1-0.3-0.3-0.6-0.5-0.7
				c-0.2-0.2-0.6-0.3-1.1-0.3c-0.6,0-1,0.1-1.2,0.2c-0.2,0.1-0.2,0.3-0.2,0.4c0,0.2,0.1,0.3,0.2,0.4c0.2,0.1,0.9,0.4,2.1,0.6
				c1.2,0.3,2,0.6,2.4,1c0.5,0.4,0.7,0.9,0.7,1.6c0,0.8-0.3,1.4-1,2c-0.6,0.5-1.6,0.8-2.8,0.8c-1.1,0-2-0.2-2.7-0.7
				C77.7,153.4,77.3,152.8,77.1,152z"/>
			<path d="M86.8,144.9v-2H89v2H86.8z M86.8,154.4v-8.3H89v8.3H86.8z"/>
			<path d="M98.4,148.5l-2.2,0.4c-0.1-0.4-0.2-0.8-0.5-1s-0.6-0.3-1-0.3c-0.5,0-1,0.2-1.3,0.6c-0.3,0.4-0.5,1-0.5,1.9
				c0,1,0.2,1.7,0.5,2.1c0.3,0.4,0.8,0.6,1.3,0.6c0.4,0,0.8-0.1,1-0.4c0.3-0.2,0.5-0.6,0.6-1.2l2.2,0.4c-0.2,1-0.7,1.7-1.3,2.2
				c-0.6,0.5-1.5,0.8-2.6,0.8c-1.2,0-2.2-0.4-2.9-1.1c-0.7-0.8-1.1-1.8-1.1-3.2c0-1.4,0.4-2.4,1.1-3.2c0.7-0.8,1.7-1.1,2.9-1.1
				c1,0,1.8,0.2,2.4,0.7C97.8,147,98.2,147.6,98.4,148.5z"/>
			<path d="M101.7,148.6l-2-0.4c0.2-0.8,0.6-1.4,1.2-1.8c0.5-0.4,1.4-0.6,2.4-0.6c1,0,1.7,0.1,2.2,0.3c0.5,0.2,0.8,0.5,1,0.9
				c0.2,0.4,0.3,1,0.3,2l0,2.6c0,0.7,0,1.3,0.1,1.6c0.1,0.3,0.2,0.7,0.4,1.1h-2.2c-0.1-0.1-0.1-0.4-0.2-0.6c0-0.1-0.1-0.2-0.1-0.3
				c-0.4,0.4-0.8,0.6-1.2,0.8c-0.4,0.2-0.9,0.3-1.4,0.3c-0.9,0-1.5-0.2-2-0.7c-0.5-0.5-0.7-1.1-0.7-1.8c0-0.5,0.1-0.9,0.3-1.3
				c0.2-0.4,0.5-0.6,0.9-0.8c0.4-0.2,1-0.4,1.7-0.5c1-0.2,1.7-0.4,2.1-0.5v-0.2c0-0.4-0.1-0.7-0.3-0.9c-0.2-0.2-0.6-0.3-1.2-0.3
				c-0.4,0-0.7,0.1-0.9,0.2C102.1,147.9,101.9,148.2,101.7,148.6z M104.7,150.4c-0.3,0.1-0.7,0.2-1.3,0.3c-0.6,0.1-1,0.3-1.2,0.4
				c-0.3,0.2-0.4,0.5-0.4,0.8c0,0.3,0.1,0.6,0.3,0.8c0.2,0.2,0.5,0.3,0.9,0.3c0.4,0,0.8-0.1,1.1-0.4c0.3-0.2,0.4-0.4,0.5-0.7
				c0.1-0.2,0.1-0.5,0.1-1.1V150.4z"/>
		</g>
	</g>
</g>
<g id="Grupo_66094" transform="translate(197.467 -26.722)">
	<g class="st1">
		<path d="M-0.6,156.4l4.4-11.5h1.6l4.7,11.5H8.3L7,152.9H2.2L1,156.4H-0.6z M2.7,151.7h3.9l-1.2-3.2c-0.4-1-0.6-1.8-0.8-2.4
			c-0.1,0.7-0.4,1.5-0.6,2.2L2.7,151.7z"/>
		<path d="M11.1,156.4v-8.3h1.3v1.2c0.3-0.4,0.6-0.7,1-1c0.4-0.2,0.9-0.4,1.5-0.4c0.6,0,1.1,0.1,1.5,0.4c0.4,0.3,0.7,0.6,0.8,1.1
			c0.7-1,1.5-1.5,2.6-1.5c0.8,0,1.5,0.2,1.9,0.7c0.4,0.5,0.7,1.2,0.7,2.1v5.7h-1.4v-5.2c0-0.6,0-1-0.1-1.2c-0.1-0.2-0.3-0.4-0.5-0.6
			c-0.2-0.2-0.5-0.2-0.8-0.2c-0.6,0-1.1,0.2-1.5,0.6c-0.4,0.4-0.6,1-0.6,1.9v4.8H16V151c0-0.6-0.1-1.1-0.3-1.4s-0.6-0.5-1.1-0.5
			c-0.4,0-0.8,0.1-1.1,0.3c-0.3,0.2-0.6,0.5-0.7,0.9c-0.2,0.4-0.2,1-0.2,1.7v4.3H11.1z"/>
		<path d="M24.4,159.5v-11.5h1.3v1.1c0.3-0.4,0.6-0.7,1-0.9s0.8-0.3,1.4-0.3c0.7,0,1.3,0.2,1.9,0.5c0.5,0.4,1,0.9,1.2,1.5
			s0.4,1.4,0.4,2.2c0,0.8-0.2,1.6-0.5,2.3s-0.7,1.2-1.3,1.6c-0.6,0.4-1.2,0.5-1.8,0.5c-0.5,0-0.9-0.1-1.3-0.3
			c-0.4-0.2-0.7-0.4-0.9-0.8v4H24.4z M25.7,152.3c0,1.1,0.2,1.9,0.6,2.4c0.4,0.5,1,0.8,1.6,0.8c0.6,0,1.2-0.3,1.6-0.8
			c0.4-0.5,0.7-1.3,0.7-2.5c0-1.1-0.2-1.8-0.7-2.4c-0.4-0.5-1-0.8-1.6-0.8c-0.6,0-1.1,0.3-1.6,0.8C25.9,150.4,25.7,151.2,25.7,152.3
			z"/>
		<path d="M39,153.7l1.5,0.2c-0.2,0.8-0.7,1.5-1.3,2s-1.4,0.7-2.4,0.7c-1.2,0-2.2-0.4-2.9-1.1c-0.7-0.7-1.1-1.8-1.1-3.1
			c0-1.4,0.4-2.5,1.1-3.2c0.7-0.8,1.7-1.2,2.8-1.2c1.1,0,2,0.4,2.7,1.1c0.7,0.8,1.1,1.8,1.1,3.2c0,0.1,0,0.2,0,0.4h-6.2
			c0.1,0.9,0.3,1.6,0.8,2.1s1,0.7,1.7,0.7c0.5,0,1-0.1,1.3-0.4C38.5,154.7,38.8,154.3,39,153.7z M34.4,151.4H39
			c-0.1-0.7-0.2-1.2-0.5-1.6c-0.4-0.5-1-0.8-1.7-0.8c-0.6,0-1.2,0.2-1.6,0.6C34.7,150.1,34.4,150.7,34.4,151.4z"/>
		<path d="M42.2,156.4v-8.3h1.3v1.3c0.3-0.6,0.6-1,0.9-1.2s0.6-0.3,0.9-0.3c0.5,0,1,0.2,1.4,0.5l-0.5,1.3c-0.3-0.2-0.7-0.3-1-0.3
			c-0.3,0-0.6,0.1-0.8,0.3c-0.2,0.2-0.4,0.4-0.5,0.8c-0.2,0.5-0.2,1-0.2,1.6v4.3H42.2z"/>
		<path d="M47.6,146.5v-1.6H49v1.6H47.6z M47.6,156.4v-8.3H49v8.3H47.6z"/>
		<path d="M50.6,152.2c0-1.5,0.4-2.7,1.3-3.4c0.7-0.6,1.6-0.9,2.6-0.9c1.1,0,2.1,0.4,2.8,1.1c0.7,0.7,1.1,1.8,1.1,3.1
			c0,1.1-0.2,1.9-0.5,2.5c-0.3,0.6-0.8,1.1-1.4,1.4c-0.6,0.3-1.3,0.5-2,0.5c-1.2,0-2.1-0.4-2.8-1.1
			C50.9,154.7,50.6,153.6,50.6,152.2z M52,152.2c0,1.1,0.2,1.9,0.7,2.4c0.5,0.5,1,0.8,1.8,0.8c0.7,0,1.3-0.3,1.7-0.8
			s0.7-1.3,0.7-2.4c0-1-0.2-1.8-0.7-2.3c-0.5-0.5-1-0.8-1.7-0.8c-0.7,0-1.3,0.3-1.8,0.8C52.3,150.4,52,151.2,52,152.2z"/>
	</g>
</g>
<g id="Grupo_66095" transform="translate(354.497 -26.722)">
	<g class="st1">
		<path d="M-0.6,156.4l4.4-11.5h1.6l4.7,11.5H8.3L7,152.9H2.2L1,156.4H-0.6z M2.7,151.7h3.9l-1.2-3.2c-0.4-1-0.6-1.8-0.8-2.4
			c-0.1,0.7-0.4,1.5-0.6,2.2L2.7,151.7z"/>
	</g>
</g>
<g id="Grupo_66096" transform="translate(505.848 -26.722)">
	<g class="st1">
		<path d="M5.3,155.4H3.9v-9c-0.3,0.3-0.8,0.6-1.3,1c-0.5,0.3-1,0.6-1.5,0.7v-1.4c0.8-0.4,1.5-0.8,2.1-1.3c0.6-0.5,1-1,1.2-1.5h0.9
			V155.4z"/>
	</g>
</g>
<g id="Grupo_66097" transform="translate(24.214 26.073)">
	<g>
		<g class="st1">
			<path d="M0,152.6l2.2-0.2c0.1,0.8,0.4,1.3,0.8,1.7s1,0.5,1.7,0.5c0.7,0,1.3-0.2,1.7-0.5c0.4-0.3,0.6-0.7,0.6-1.1
				c0-0.3-0.1-0.5-0.2-0.7c-0.2-0.2-0.4-0.4-0.8-0.5c-0.3-0.1-0.9-0.3-1.9-0.5c-1.2-0.3-2.1-0.7-2.6-1.1c-0.7-0.6-1.1-1.4-1.1-2.3
				c0-0.6,0.2-1.1,0.5-1.6c0.3-0.5,0.8-0.9,1.4-1.2c0.6-0.3,1.4-0.4,2.3-0.4c1.4,0,2.5,0.3,3.2,0.9s1.1,1.5,1.1,2.5l-2.3,0.1
				c-0.1-0.6-0.3-1-0.6-1.3c-0.3-0.3-0.8-0.4-1.5-0.4c-0.7,0-1.2,0.1-1.6,0.4c-0.2,0.2-0.4,0.4-0.4,0.7c0,0.3,0.1,0.5,0.3,0.7
				c0.3,0.2,1,0.5,2.1,0.8s2,0.5,2.5,0.8s1,0.7,1.3,1.2s0.5,1.1,0.5,1.8c0,0.7-0.2,1.3-0.5,1.8c-0.4,0.6-0.9,1-1.5,1.3
				c-0.7,0.3-1.5,0.4-2.5,0.4c-1.4,0-2.6-0.3-3.3-1C0.6,154.9,0.1,153.9,0,152.6z"/>
			<path d="M16.7,156.4v-1.2c-0.3,0.4-0.7,0.8-1.2,1s-1,0.4-1.6,0.4c-0.6,0-1.1-0.1-1.5-0.4c-0.4-0.2-0.8-0.6-1-1
				c-0.2-0.4-0.3-1.1-0.3-1.8v-5.2h2.2v3.8c0,1.2,0,1.9,0.1,2.1c0.1,0.3,0.2,0.5,0.4,0.6c0.2,0.2,0.5,0.2,0.8,0.2
				c0.4,0,0.7-0.1,1-0.3s0.5-0.5,0.6-0.8s0.2-1.1,0.2-2.2v-3.5h2.2v8.3H16.7z"/>
			<path d="M20.9,156.4v-11.5h2.2v4.1c0.7-0.8,1.5-1.2,2.4-1.2c1,0,1.8,0.4,2.5,1.1c0.7,0.7,1,1.8,1,3.2c0,1.4-0.3,2.5-1,3.3
				c-0.7,0.8-1.5,1.1-2.5,1.1c-0.5,0-0.9-0.1-1.4-0.4s-0.9-0.6-1.2-1.1v1.2H20.9z M23.1,152c0,0.9,0.1,1.5,0.4,1.9
				c0.4,0.6,0.9,0.9,1.5,0.9c0.5,0,0.9-0.2,1.2-0.6c0.3-0.4,0.5-1.1,0.5-2c0-0.9-0.2-1.6-0.5-2.1s-0.8-0.6-1.3-0.6
				c-0.5,0-1,0.2-1.3,0.6C23.2,150.6,23.1,151.2,23.1,152z"/>
			<path d="M30.6,148.1h2v1.1c0.7-0.9,1.6-1.3,2.6-1.3c0.5,0,1,0.1,1.4,0.3s0.7,0.5,1,1c0.4-0.4,0.8-0.8,1.2-1s0.9-0.3,1.4-0.3
				c0.6,0,1.1,0.1,1.5,0.4s0.7,0.6,0.9,1.1c0.2,0.4,0.2,0.9,0.2,1.7v5.3h-2.2v-4.7c0-0.8-0.1-1.4-0.2-1.6c-0.2-0.3-0.5-0.5-0.9-0.5
				c-0.3,0-0.6,0.1-0.9,0.3c-0.3,0.2-0.5,0.5-0.6,0.8c-0.1,0.4-0.2,0.9-0.2,1.7v4h-2.2v-4.5c0-0.8,0-1.3-0.1-1.6s-0.2-0.4-0.4-0.5
				s-0.4-0.2-0.7-0.2c-0.3,0-0.6,0.1-0.9,0.3c-0.3,0.2-0.5,0.4-0.6,0.8s-0.2,0.9-0.2,1.7v4h-2.2V148.1z"/>
			<path d="M50.4,156.4v-1.2c-0.3,0.4-0.7,0.8-1.2,1s-1,0.4-1.6,0.4c-0.6,0-1.1-0.1-1.5-0.4c-0.4-0.2-0.8-0.6-1-1
				c-0.2-0.4-0.3-1.1-0.3-1.8v-5.2h2.2v3.8c0,1.2,0,1.9,0.1,2.1c0.1,0.3,0.2,0.5,0.4,0.6c0.2,0.2,0.5,0.2,0.8,0.2
				c0.4,0,0.7-0.1,1-0.3s0.5-0.5,0.6-0.8s0.2-1.1,0.2-2.2v-3.5h2.2v8.3H50.4z M47.6,147.1l1.1-2.3h2.5l-2.1,2.3H47.6z"/>
			<path d="M54.7,156.4v-11.5h2.2v11.5H54.7z"/>
			<path d="M63,148.1v1.8h-1.5v3.3c0,0.7,0,1.1,0,1.2c0,0.1,0.1,0.2,0.2,0.3s0.2,0.1,0.4,0.1c0.2,0,0.5-0.1,0.9-0.2l0.2,1.7
				c-0.5,0.2-1.1,0.3-1.7,0.3c-0.4,0-0.8-0.1-1.1-0.2c-0.3-0.1-0.6-0.3-0.7-0.5s-0.3-0.5-0.3-0.9c0-0.3-0.1-0.8-0.1-1.5v-3.6h-1
				v-1.8h1v-1.6l2.2-1.3v2.9H63z"/>
			<path d="M64.5,146.9v-2h2.2v2H64.5z M64.5,156.4v-8.3h2.2v8.3H64.5z"/>
			<path d="M68.9,148.1h2v1.2c0.3-0.4,0.6-0.8,1.1-1s1-0.4,1.5-0.4c1,0,1.8,0.4,2.5,1.1s1,1.8,1,3.2c0,1.4-0.3,2.5-1,3.2
				c-0.7,0.8-1.5,1.2-2.5,1.2c-0.5,0-0.9-0.1-1.2-0.3c-0.4-0.2-0.8-0.5-1.2-0.9v4.2h-2.2V148.1z M71.1,152.1c0,0.9,0.2,1.6,0.6,2.1
				c0.4,0.4,0.8,0.7,1.4,0.7c0.5,0,0.9-0.2,1.3-0.6c0.3-0.4,0.5-1.1,0.5-2c0-0.9-0.2-1.5-0.5-1.9c-0.3-0.4-0.8-0.6-1.3-0.6
				c-0.5,0-1,0.2-1.3,0.6C71.2,150.7,71.1,151.3,71.1,152.1z"/>
			<path d="M78.7,156.4v-11.5h2.2v11.5H78.7z"/>
			<path d="M82.7,152.1c0-0.7,0.2-1.4,0.5-2.1s0.9-1.2,1.5-1.6c0.7-0.4,1.4-0.5,2.2-0.5c1.3,0,2.3,0.4,3.1,1.2
				c0.8,0.8,1.2,1.8,1.2,3.1c0,1.3-0.4,2.3-1.2,3.1c-0.8,0.8-1.8,1.2-3.1,1.2c-0.8,0-1.5-0.2-2.2-0.5c-0.7-0.3-1.2-0.8-1.6-1.5
				S82.7,153.1,82.7,152.1z M84.9,152.2c0,0.8,0.2,1.5,0.6,1.9s0.9,0.7,1.4,0.7c0.6,0,1.1-0.2,1.4-0.7c0.4-0.4,0.6-1.1,0.6-1.9
				c0-0.8-0.2-1.4-0.6-1.9c-0.4-0.4-0.9-0.7-1.4-0.7c-0.6,0-1.1,0.2-1.4,0.7S84.9,151.4,84.9,152.2z"/>
			<path d="M92.2,154l2.2-0.3c0.1,0.4,0.3,0.8,0.6,1c0.3,0.2,0.7,0.3,1.2,0.3c0.6,0,1-0.1,1.3-0.3c0.2-0.1,0.3-0.3,0.3-0.6
				c0-0.2-0.1-0.3-0.2-0.4c-0.1-0.1-0.4-0.2-0.7-0.3c-1.8-0.4-2.9-0.7-3.4-1.1c-0.7-0.4-1-1.1-1-1.9c0-0.7,0.3-1.3,0.9-1.8
				c0.6-0.5,1.4-0.7,2.6-0.7c1.1,0,2,0.2,2.5,0.6c0.6,0.4,0.9,0.9,1.1,1.6l-2.1,0.4c-0.1-0.3-0.3-0.6-0.5-0.7
				c-0.2-0.2-0.6-0.3-1.1-0.3c-0.6,0-1,0.1-1.2,0.2c-0.2,0.1-0.2,0.3-0.2,0.4c0,0.2,0.1,0.3,0.2,0.4c0.2,0.1,0.9,0.4,2.1,0.6
				c1.2,0.3,2,0.6,2.4,1c0.5,0.4,0.7,0.9,0.7,1.6c0,0.8-0.3,1.4-1,2c-0.6,0.5-1.6,0.8-2.8,0.8c-1.1,0-2-0.2-2.7-0.7
				C92.8,155.4,92.4,154.8,92.2,154z"/>
		</g>
	</g>
</g>
<g id="Grupo_66098" transform="translate(184.656 8.992)">
	<g class="st1">
		<path d="M0.6,154.4v-11.5h2.3l2.7,8.1c0.2,0.8,0.4,1.3,0.5,1.7c0.1-0.4,0.3-1,0.6-1.8l2.7-8h2v11.5H10v-9.6l-3.3,9.6H5.3L2,144.6
			v9.8H0.6z"/>
		<path d="M13.8,144.5v-1.6h1.4v1.6H13.8z M13.8,154.4v-8.3h1.4v8.3H13.8z"/>
		<path d="M17.3,154.4v-11.5h1.4v11.5H17.3z"/>
		<path d="M20.9,144.5v-1.6h1.4v1.6H20.9z M20.9,154.4v-8.3h1.4v8.3H20.9z"/>
		<path d="M29.8,153.3c-0.5,0.4-1,0.8-1.5,0.9c-0.5,0.2-1,0.3-1.6,0.3c-0.9,0-1.6-0.2-2.1-0.7c-0.5-0.4-0.7-1-0.7-1.7
			c0-0.4,0.1-0.8,0.3-1.1c0.2-0.3,0.4-0.6,0.7-0.8c0.3-0.2,0.6-0.4,1-0.5c0.3-0.1,0.7-0.1,1.2-0.2c1.1-0.1,2-0.3,2.5-0.5
			c0-0.2,0-0.3,0-0.4c0-0.6-0.1-1-0.4-1.2c-0.4-0.3-0.9-0.5-1.6-0.5c-0.7,0-1.1,0.1-1.5,0.3c-0.3,0.2-0.5,0.6-0.7,1.2l-1.4-0.2
			c0.1-0.6,0.3-1.1,0.6-1.4c0.3-0.4,0.7-0.6,1.2-0.8c0.5-0.2,1.2-0.3,1.9-0.3c0.7,0,1.3,0.1,1.7,0.2c0.4,0.2,0.8,0.4,1,0.6
			c0.2,0.3,0.4,0.6,0.4,1c0,0.2,0.1,0.7,0.1,1.3v1.9c0,1.3,0,2.1,0.1,2.5c0.1,0.3,0.2,0.7,0.4,1h-1.5
			C30,154.1,29.9,153.7,29.8,153.3z M29.7,150.2c-0.5,0.2-1.3,0.4-2.3,0.5c-0.6,0.1-1,0.2-1.2,0.3c-0.2,0.1-0.4,0.3-0.6,0.5
			c-0.1,0.2-0.2,0.4-0.2,0.7c0,0.4,0.1,0.7,0.4,0.9c0.3,0.2,0.7,0.4,1.2,0.4c0.5,0,1-0.1,1.4-0.4s0.7-0.6,0.9-1
			c0.2-0.3,0.2-0.8,0.2-1.4V150.2z"/>
		<path d="M33.3,154.4v-8.3h1.3v1.2c0.3-0.4,0.6-0.7,1-1c0.4-0.2,0.9-0.4,1.5-0.4c0.6,0,1.1,0.1,1.5,0.4c0.4,0.3,0.7,0.6,0.8,1.1
			c0.7-1,1.5-1.5,2.6-1.5c0.8,0,1.5,0.2,1.9,0.7c0.4,0.5,0.7,1.2,0.7,2.1v5.7h-1.4v-5.2c0-0.6,0-1-0.1-1.2c-0.1-0.2-0.3-0.4-0.5-0.6
			c-0.2-0.2-0.5-0.2-0.8-0.2c-0.6,0-1.1,0.2-1.5,0.6c-0.4,0.4-0.6,1-0.6,1.9v4.8h-1.4V149c0-0.6-0.1-1.1-0.3-1.4
			c-0.2-0.3-0.6-0.5-1.1-0.5c-0.4,0-0.8,0.1-1.1,0.3s-0.6,0.5-0.7,0.9c-0.2,0.4-0.2,1-0.2,1.7v4.3H33.3z"/>
		<path d="M46.7,157.5v-11.5h1.3v1.1c0.3-0.4,0.6-0.7,1-0.9c0.4-0.2,0.8-0.3,1.4-0.3c0.7,0,1.3,0.2,1.9,0.5c0.5,0.4,1,0.9,1.2,1.5
			c0.3,0.7,0.4,1.4,0.4,2.2c0,0.8-0.2,1.6-0.5,2.3s-0.7,1.2-1.3,1.6c-0.6,0.4-1.2,0.5-1.8,0.5c-0.5,0-0.9-0.1-1.3-0.3
			c-0.4-0.2-0.7-0.4-0.9-0.8v4H46.7z M47.9,150.3c0,1.1,0.2,1.9,0.6,2.4c0.4,0.5,1,0.8,1.6,0.8c0.6,0,1.2-0.3,1.6-0.8
			s0.7-1.3,0.7-2.5c0-1.1-0.2-1.8-0.7-2.4c-0.4-0.5-1-0.8-1.6-0.8c-0.6,0-1.1,0.3-1.6,0.8S47.9,149.2,47.9,150.3z"/>
		<path d="M61.2,151.7l1.5,0.2c-0.2,0.8-0.7,1.5-1.3,2c-0.6,0.5-1.4,0.7-2.4,0.7c-1.2,0-2.2-0.4-2.9-1.1s-1.1-1.8-1.1-3.1
			c0-1.4,0.4-2.5,1.1-3.2s1.7-1.2,2.8-1.2c1.1,0,2,0.4,2.7,1.1s1.1,1.8,1.1,3.2c0,0.1,0,0.2,0,0.4h-6.2c0.1,0.9,0.3,1.6,0.8,2.1
			c0.5,0.5,1,0.7,1.7,0.7c0.5,0,1-0.1,1.3-0.4C60.7,152.7,61,152.3,61.2,151.7z M56.6,149.4h4.6c-0.1-0.7-0.2-1.2-0.5-1.6
			c-0.4-0.5-1-0.8-1.7-0.8c-0.6,0-1.2,0.2-1.6,0.6C56.9,148.1,56.7,148.7,56.6,149.4z"/>
		<path d="M64.4,154.4v-8.3h1.3v1.3c0.3-0.6,0.6-1,0.9-1.2s0.6-0.3,0.9-0.3c0.5,0,1,0.2,1.4,0.5l-0.5,1.3c-0.3-0.2-0.7-0.3-1-0.3
			c-0.3,0-0.6,0.1-0.8,0.3c-0.2,0.2-0.4,0.4-0.5,0.8c-0.2,0.5-0.2,1-0.2,1.6v4.3H64.4z"/>
		<path d="M69.8,144.5v-1.6h1.4v1.6H69.8z M69.8,154.4v-8.3h1.4v8.3H69.8z"/>
		<path d="M72.8,150.2c0-1.5,0.4-2.7,1.3-3.4c0.7-0.6,1.6-0.9,2.6-0.9c1.1,0,2.1,0.4,2.8,1.1c0.7,0.7,1.1,1.8,1.1,3.1
			c0,1.1-0.2,1.9-0.5,2.5s-0.8,1.1-1.4,1.4c-0.6,0.3-1.3,0.5-2,0.5c-1.2,0-2.1-0.4-2.8-1.1C73.2,152.7,72.8,151.6,72.8,150.2z
			 M74.3,150.2c0,1.1,0.2,1.9,0.7,2.4c0.5,0.5,1,0.8,1.8,0.8c0.7,0,1.3-0.3,1.7-0.8c0.5-0.5,0.7-1.3,0.7-2.4c0-1-0.2-1.8-0.7-2.3
			c-0.5-0.5-1-0.8-1.7-0.8c-0.7,0-1.3,0.3-1.8,0.8C74.5,148.4,74.3,149.2,74.3,150.2z"/>
	</g>
</g>
<g id="Grupo_66099" transform="translate(346.733 8.992)">
	<g class="st1">
		<path d="M0.4,154.4v-8.3h1.3v1.2c0.3-0.4,0.6-0.7,1-1c0.4-0.2,0.9-0.4,1.5-0.4c0.6,0,1.1,0.1,1.5,0.4c0.4,0.3,0.7,0.6,0.8,1.1
			c0.7-1,1.5-1.5,2.6-1.5c0.8,0,1.5,0.2,1.9,0.7c0.4,0.5,0.7,1.2,0.7,2.1v5.7h-1.4v-5.2c0-0.6,0-1-0.1-1.2c-0.1-0.2-0.3-0.4-0.5-0.6
			c-0.2-0.2-0.5-0.2-0.8-0.2c-0.6,0-1.1,0.2-1.5,0.6c-0.4,0.4-0.6,1-0.6,1.9v4.8H5.4V149c0-0.6-0.1-1.1-0.3-1.4
			c-0.2-0.3-0.6-0.5-1.1-0.5c-0.4,0-0.8,0.1-1.1,0.3s-0.6,0.5-0.7,0.9c-0.2,0.4-0.2,1-0.2,1.7v4.3H0.4z"/>
		<path d="M12.7,154.4l4.4-11.5h1.6l4.7,11.5h-1.7l-1.3-3.5h-4.8l-1.3,3.5H12.7z M16,149.7h3.9l-1.2-3.2c-0.4-1-0.6-1.8-0.8-2.4
			c-0.1,0.7-0.4,1.5-0.6,2.2L16,149.7z"/>
	</g>
</g>
<g class="st1">
	<path d="M445.5,157.7c0-1.4,0.1-2.4,0.4-3.3s0.7-1.5,1.2-1.9s1.2-0.7,2.1-0.7c0.6,0,1.2,0.1,1.6,0.4s0.8,0.6,1.1,1.1s0.5,1,0.7,1.7
		s0.3,1.6,0.3,2.7c0,1.3-0.1,2.4-0.4,3.3s-0.7,1.5-1.2,1.9s-1.2,0.7-2.1,0.7c-1.1,0-2-0.4-2.6-1.2
		C445.9,161.4,445.5,159.9,445.5,157.7z M447,157.7c0,1.9,0.2,3.1,0.7,3.8s1,0.9,1.6,0.9s1.2-0.3,1.6-0.9s0.7-1.9,0.7-3.8
		c0-1.9-0.2-3.1-0.7-3.8s-1-0.9-1.6-0.9c-0.6,0-1.2,0.3-1.5,0.8C447.2,154.5,447,155.8,447,157.7z"/>
	<path d="M455.2,163.4v-1.6h1.6v1.6H455.2z"/>
	<path d="M458.9,157.7c0-1.4,0.1-2.4,0.4-3.3s0.7-1.5,1.2-1.9s1.2-0.7,2.1-0.7c0.6,0,1.2,0.1,1.6,0.4s0.8,0.6,1.1,1.1s0.5,1,0.7,1.7
		s0.3,1.6,0.3,2.7c0,1.3-0.1,2.4-0.4,3.3s-0.7,1.5-1.2,1.9s-1.2,0.7-2.1,0.7c-1.1,0-2-0.4-2.6-1.2
		C459.2,161.4,458.9,159.9,458.9,157.7z M460.3,157.7c0,1.9,0.2,3.1,0.7,3.8s1,0.9,1.6,0.9s1.2-0.3,1.6-0.9s0.7-1.9,0.7-3.8
		c0-1.9-0.2-3.1-0.7-3.8s-1-0.9-1.6-0.9c-0.6,0-1.2,0.3-1.5,0.8C460.5,154.5,460.3,155.8,460.3,157.7z"/>
	<path d="M467.8,157.7c0-1.4,0.1-2.4,0.4-3.3s0.7-1.5,1.2-1.9s1.2-0.7,2.1-0.7c0.6,0,1.2,0.1,1.6,0.4s0.8,0.6,1.1,1.1s0.5,1,0.7,1.7
		s0.3,1.6,0.3,2.7c0,1.3-0.1,2.4-0.4,3.3s-0.7,1.5-1.2,1.9s-1.2,0.7-2.1,0.7c-1.1,0-2-0.4-2.6-1.2
		C468.1,161.4,467.8,159.9,467.8,157.7z M469.2,157.7c0,1.9,0.2,3.1,0.7,3.8s1,0.9,1.6,0.9s1.2-0.3,1.6-0.9s0.7-1.9,0.7-3.8
		c0-1.9-0.2-3.1-0.7-3.8s-1-0.9-1.6-0.9c-0.6,0-1.2,0.3-1.5,0.8C469.4,154.5,469.2,155.8,469.2,157.7z"/>
	<path d="M481.9,163.4h-1.4v-9c-0.3,0.3-0.8,0.6-1.3,1s-1,0.6-1.5,0.7v-1.4c0.8-0.4,1.5-0.8,2.1-1.3s1-1,1.2-1.5h0.9V163.4z"/>
</g>
<g class="st1">
	<path d="M492.4,163.4l4.4-11.5h1.6l4.7,11.5h-1.7l-1.3-3.5h-4.8l-1.3,3.5H492.4z M495.7,158.7h3.9l-1.2-3.2c-0.4-1-0.6-1.8-0.8-2.4
		c-0.1,0.7-0.4,1.5-0.6,2.2L495.7,158.7z"/>
</g>
<g class="st1">
	<path d="M511.8,159.2c0-1.5,0.4-2.7,1.3-3.4c0.7-0.6,1.6-0.9,2.6-0.9c1.1,0,2.1,0.4,2.8,1.1s1.1,1.8,1.1,3.1c0,1.1-0.2,1.9-0.5,2.5
		s-0.8,1.1-1.4,1.4s-1.3,0.5-2,0.5c-1.2,0-2.1-0.4-2.8-1.1S511.8,160.6,511.8,159.2z M513.3,159.2c0,1.1,0.2,1.9,0.7,2.4
		s1,0.8,1.8,0.8c0.7,0,1.3-0.3,1.7-0.8s0.7-1.3,0.7-2.4c0-1-0.2-1.8-0.7-2.3s-1-0.8-1.7-0.8c-0.7,0-1.3,0.3-1.8,0.8
		S513.3,158.1,513.3,159.2z"/>
	<path d="M530.6,163.4h-1.4v-9c-0.3,0.3-0.8,0.6-1.3,1s-1,0.6-1.5,0.7v-1.4c0.8-0.4,1.5-0.8,2.1-1.3s1-1,1.2-1.5h0.9V163.4z"/>
	<path d="M534.2,157.7c0-1.4,0.1-2.4,0.4-3.3s0.7-1.5,1.2-1.9s1.2-0.7,2.1-0.7c0.6,0,1.2,0.1,1.6,0.4s0.8,0.6,1.1,1.1s0.5,1,0.7,1.7
		s0.3,1.6,0.3,2.7c0,1.3-0.1,2.4-0.4,3.3s-0.7,1.5-1.2,1.9s-1.2,0.7-2.1,0.7c-1.1,0-2-0.4-2.6-1.2
		C534.6,161.4,534.2,159.9,534.2,157.7z M535.6,157.7c0,1.9,0.2,3.1,0.7,3.8s1,0.9,1.6,0.9s1.2-0.3,1.6-0.9s0.7-1.9,0.7-3.8
		c0-1.9-0.2-3.1-0.7-3.8s-1-0.9-1.6-0.9c-0.6,0-1.2,0.3-1.5,0.8C535.9,154.5,535.6,155.8,535.6,157.7z"/>
</g>
<g id="Grupo_66101" transform="translate(548.814 8.992)">
	<g class="st1">
		<path d="M-2.8,143.6v-1.4h4.3v1.4H-2.8z"/>
	</g>
</g>
<g id="Grupo_66102" transform="translate(552.89 8.992)">
	<g class="st1">
		<path d="M0,145.3l1.4-0.2c0.2,0.8,0.4,1.4,0.8,1.7s0.9,0.5,1.4,0.5c0.7,0,1.2-0.2,1.7-0.7s0.7-1,0.7-1.7c0-0.6-0.2-1.2-0.6-1.6
			s-1-0.6-1.6-0.6c-0.3,0-0.6,0.1-1,0.2l0.2-1.2c0.1,0,0.2,0,0.2,0c0.6,0,1.1-0.2,1.6-0.5s0.7-0.8,0.7-1.4c0-0.5-0.2-0.9-0.5-1.3
			S4.2,138,3.7,138c-0.5,0-1,0.2-1.4,0.5s-0.6,0.9-0.7,1.5l-1.4-0.2c0.2-0.9,0.6-1.7,1.2-2.2s1.4-0.8,2.3-0.8c0.6,0,1.2,0.1,1.7,0.4
			s0.9,0.6,1.2,1.1s0.4,1,0.4,1.5c0,0.5-0.1,0.9-0.4,1.4s-0.7,0.7-1.2,1c0.7,0.2,1.2,0.5,1.6,1s0.6,1.1,0.6,1.8c0,1-0.4,1.8-1.1,2.5
			s-1.7,1-2.8,1c-1,0-1.8-0.3-2.5-0.9S0.1,146.3,0,145.3z"/>
	</g>
</g>
<g class="st1">
	<path d="M563.4,163.4l4.4-11.5h1.6l4.7,11.5h-1.7l-1.3-3.5h-4.8l-1.3,3.5H563.4z M566.8,158.7h3.9l-1.2-3.2c-0.4-1-0.6-1.8-0.8-2.4
		c-0.1,0.7-0.4,1.5-0.6,2.2L566.8,158.7z"/>
</g>
<g id="Grupo_66104" transform="translate(175.825 44.706)">
	<g class="st1">
		<path d="M0.6,154.4v-11.5h2.3l2.7,8.1c0.2,0.8,0.4,1.3,0.5,1.7c0.1-0.4,0.3-1,0.6-1.8l2.7-8h2v11.5H10v-9.6l-3.3,9.6H5.3L2,144.6
			v9.8H0.6z"/>
		<path d="M13.8,144.5v-1.6h1.4v1.6H13.8z M13.8,154.4v-8.3h1.4v8.3H13.8z"/>
		<path d="M22.7,151.3l1.4,0.2c-0.2,1-0.5,1.7-1.2,2.2c-0.6,0.5-1.4,0.8-2.3,0.8c-1.1,0-2-0.4-2.7-1.1c-0.7-0.7-1-1.8-1-3.2
			c0-0.9,0.1-1.7,0.4-2.4s0.7-1.2,1.4-1.5c0.6-0.3,1.3-0.5,2-0.5c0.9,0,1.6,0.2,2.2,0.7c0.6,0.5,0.9,1.1,1.1,1.9l-1.4,0.2
			c-0.1-0.6-0.4-1-0.7-1.3c-0.3-0.3-0.7-0.4-1.2-0.4c-0.7,0-1.3,0.3-1.7,0.8c-0.4,0.5-0.7,1.3-0.7,2.4c0,1.1,0.2,1.9,0.6,2.4
			c0.4,0.5,1,0.8,1.7,0.8c0.6,0,1-0.2,1.4-0.5C22.4,152.6,22.6,152,22.7,151.3z"/>
		<path d="M25.3,154.4v-8.3h1.3v1.3c0.3-0.6,0.6-1,0.9-1.2s0.6-0.3,0.9-0.3c0.5,0,1,0.2,1.4,0.5l-0.5,1.3c-0.3-0.2-0.7-0.3-1-0.3
			c-0.3,0-0.6,0.1-0.8,0.3c-0.2,0.2-0.4,0.4-0.5,0.8c-0.2,0.5-0.2,1-0.2,1.6v4.3H25.3z"/>
		<path d="M30.1,150.2c0-1.5,0.4-2.7,1.3-3.4c0.7-0.6,1.6-0.9,2.6-0.9c1.1,0,2.1,0.4,2.8,1.1c0.7,0.7,1.1,1.8,1.1,3.1
			c0,1.1-0.2,1.9-0.5,2.5s-0.8,1.1-1.4,1.4c-0.6,0.3-1.3,0.5-2,0.5c-1.2,0-2.1-0.4-2.8-1.1C30.5,152.7,30.1,151.6,30.1,150.2z
			 M31.6,150.2c0,1.1,0.2,1.9,0.7,2.4c0.5,0.5,1,0.8,1.8,0.8c0.7,0,1.3-0.3,1.7-0.8c0.5-0.5,0.7-1.3,0.7-2.4c0-1-0.2-1.8-0.7-2.3
			c-0.5-0.5-1-0.8-1.7-0.8c-0.7,0-1.3,0.3-1.8,0.8C31.8,148.4,31.6,149.2,31.6,150.2z"/>
		<path d="M45,153.3c-0.5,0.4-1,0.8-1.5,0.9c-0.5,0.2-1,0.3-1.6,0.3c-0.9,0-1.6-0.2-2.1-0.7c-0.5-0.4-0.7-1-0.7-1.7
			c0-0.4,0.1-0.8,0.3-1.1c0.2-0.3,0.4-0.6,0.7-0.8c0.3-0.2,0.6-0.4,1-0.5c0.3-0.1,0.7-0.1,1.2-0.2c1.1-0.1,2-0.3,2.5-0.5
			c0-0.2,0-0.3,0-0.4c0-0.6-0.1-1-0.4-1.2c-0.4-0.3-0.9-0.5-1.6-0.5c-0.7,0-1.1,0.1-1.5,0.3c-0.3,0.2-0.5,0.6-0.7,1.2l-1.4-0.2
			c0.1-0.6,0.3-1.1,0.6-1.4c0.3-0.4,0.7-0.6,1.2-0.8c0.5-0.2,1.2-0.3,1.9-0.3c0.7,0,1.3,0.1,1.7,0.2c0.4,0.2,0.8,0.4,1,0.6
			c0.2,0.3,0.4,0.6,0.4,1c0,0.2,0.1,0.7,0.1,1.3v1.9c0,1.3,0,2.1,0.1,2.5c0.1,0.3,0.2,0.7,0.4,1h-1.5C45.1,154.1,45,153.7,45,153.3z
			 M44.8,150.2c-0.5,0.2-1.3,0.4-2.3,0.5c-0.6,0.1-1,0.2-1.2,0.3c-0.2,0.1-0.4,0.3-0.6,0.5c-0.1,0.2-0.2,0.4-0.2,0.7
			c0,0.4,0.1,0.7,0.4,0.9c0.3,0.2,0.7,0.4,1.2,0.4c0.5,0,1-0.1,1.4-0.4s0.7-0.6,0.9-1c0.2-0.3,0.2-0.8,0.2-1.4V150.2z"/>
		<path d="M48.4,154.4v-8.3h1.3v1.2c0.3-0.4,0.6-0.7,1-1c0.4-0.2,0.9-0.4,1.5-0.4c0.6,0,1.1,0.1,1.5,0.4c0.4,0.3,0.7,0.6,0.8,1.1
			c0.7-1,1.5-1.5,2.6-1.5c0.8,0,1.5,0.2,1.9,0.7c0.4,0.5,0.7,1.2,0.7,2.1v5.7h-1.4v-5.2c0-0.6,0-1-0.1-1.2c-0.1-0.2-0.3-0.4-0.5-0.6
			c-0.2-0.2-0.5-0.2-0.8-0.2c-0.6,0-1.1,0.2-1.5,0.6c-0.4,0.4-0.6,1-0.6,1.9v4.8h-1.4V149c0-0.6-0.1-1.1-0.3-1.4
			c-0.2-0.3-0.6-0.5-1.1-0.5c-0.4,0-0.8,0.1-1.1,0.3s-0.6,0.5-0.7,0.9c-0.2,0.4-0.2,1-0.2,1.7v4.3H48.4z"/>
		<path d="M61.8,157.5v-11.5H63v1.1c0.3-0.4,0.6-0.7,1-0.9c0.4-0.2,0.8-0.3,1.4-0.3c0.7,0,1.3,0.2,1.9,0.5c0.5,0.4,1,0.9,1.2,1.5
			c0.3,0.7,0.4,1.4,0.4,2.2c0,0.8-0.2,1.6-0.5,2.3s-0.7,1.2-1.3,1.6c-0.6,0.4-1.2,0.5-1.8,0.5c-0.5,0-0.9-0.1-1.3-0.3
			c-0.4-0.2-0.7-0.4-0.9-0.8v4H61.8z M63,150.3c0,1.1,0.2,1.9,0.6,2.4c0.4,0.5,1,0.8,1.6,0.8c0.6,0,1.2-0.3,1.6-0.8s0.7-1.3,0.7-2.5
			c0-1.1-0.2-1.8-0.7-2.4c-0.4-0.5-1-0.8-1.6-0.8c-0.6,0-1.1,0.3-1.6,0.8S63,149.2,63,150.3z"/>
		<path d="M76.3,151.7l1.5,0.2c-0.2,0.8-0.7,1.5-1.3,2c-0.6,0.5-1.4,0.7-2.4,0.7c-1.2,0-2.2-0.4-2.9-1.1s-1.1-1.8-1.1-3.1
			c0-1.4,0.4-2.5,1.1-3.2s1.7-1.2,2.8-1.2c1.1,0,2,0.4,2.7,1.1s1.1,1.8,1.1,3.2c0,0.1,0,0.2,0,0.4h-6.2c0.1,0.9,0.3,1.6,0.8,2.1
			c0.5,0.5,1,0.7,1.7,0.7c0.5,0,1-0.1,1.3-0.4C75.8,152.7,76.1,152.3,76.3,151.7z M71.7,149.4h4.6c-0.1-0.7-0.2-1.2-0.5-1.6
			c-0.4-0.5-1-0.8-1.7-0.8c-0.6,0-1.2,0.2-1.6,0.6C72,148.1,71.8,148.7,71.7,149.4z"/>
		<path d="M79.5,154.4v-8.3h1.3v1.3c0.3-0.6,0.6-1,0.9-1.2s0.6-0.3,0.9-0.3c0.5,0,1,0.2,1.4,0.5l-0.5,1.3c-0.3-0.2-0.7-0.3-1-0.3
			c-0.3,0-0.6,0.1-0.8,0.3c-0.2,0.2-0.4,0.4-0.5,0.8c-0.2,0.5-0.2,1-0.2,1.6v4.3H79.5z"/>
		<path d="M84.9,144.5v-1.6h1.4v1.6H84.9z M84.9,154.4v-8.3h1.4v8.3H84.9z"/>
		<path d="M87.9,150.2c0-1.5,0.4-2.7,1.3-3.4c0.7-0.6,1.6-0.9,2.6-0.9c1.1,0,2.1,0.4,2.8,1.1c0.7,0.7,1.1,1.8,1.1,3.1
			c0,1.1-0.2,1.9-0.5,2.5s-0.8,1.1-1.4,1.4c-0.6,0.3-1.3,0.5-2,0.5c-1.2,0-2.1-0.4-2.8-1.1C88.3,152.7,87.9,151.6,87.9,150.2z
			 M89.4,150.2c0,1.1,0.2,1.9,0.7,2.4c0.5,0.5,1,0.8,1.8,0.8c0.7,0,1.3-0.3,1.7-0.8c0.5-0.5,0.7-1.3,0.7-2.4c0-1-0.2-1.8-0.7-2.3
			c-0.5-0.5-1-0.8-1.7-0.8c-0.7,0-1.3,0.3-1.8,0.8C89.6,148.4,89.4,149.2,89.4,150.2z"/>
	</g>
</g>
<g id="Grupo_66105" transform="translate(349.16 44.706)">
	<g class="st1">
		<path d="M7.3,148.1v8.3H6.1v-1c-0.3,0.4-0.5,0.7-0.8,0.9c-0.4,0.2-0.8,0.3-1.3,0.3c-0.4,0-0.8-0.1-1.1-0.3
			c-0.2-0.1-0.5-0.4-0.8-0.8v4H0.6v-11.5H2v3.5c0,1.3,0.1,2.1,0.2,2.5c0.1,0.4,0.4,0.7,0.7,0.9s0.7,0.3,1.1,0.3
			c0.4,0,0.8-0.1,1.1-0.3s0.6-0.5,0.7-0.9c0.1-0.4,0.2-1.2,0.2-2.4v-3.5H7.3z"/>
		<path d="M8.6,156.4l4.4-11.5h1.6l4.7,11.5h-1.7l-1.3-3.5h-4.8l-1.3,3.5H8.6z M11.9,151.7h3.9l-1.2-3.2c-0.4-1-0.6-1.8-0.8-2.4
			c-0.1,0.7-0.4,1.5-0.6,2.2L11.9,151.7z"/>
	</g>
</g>
<g class="st1">
	<path d="M435.2,193.4c0-1.4,0.1-2.4,0.4-3.3s0.7-1.5,1.2-1.9s1.2-0.7,2.1-0.7c0.6,0,1.2,0.1,1.6,0.4s0.8,0.6,1.1,1.1s0.5,1,0.7,1.7
		s0.3,1.6,0.3,2.7c0,1.3-0.1,2.4-0.4,3.3s-0.7,1.5-1.2,1.9s-1.2,0.7-2.1,0.7c-1.1,0-2-0.4-2.6-1.2
		C435.6,197.1,435.2,195.6,435.2,193.4z M436.7,193.4c0,1.9,0.2,3.1,0.7,3.8s1,0.9,1.6,0.9s1.2-0.3,1.6-0.9s0.7-1.9,0.7-3.8
		c0-1.9-0.2-3.1-0.7-3.8s-1-0.9-1.6-0.9c-0.6,0-1.2,0.3-1.5,0.8C436.9,190.3,436.7,191.5,436.7,193.4z"/>
	<path d="M444.9,199.1v-1.6h1.6v1.6H444.9z"/>
	<path d="M448.6,193.4c0-1.4,0.1-2.4,0.4-3.3s0.7-1.5,1.2-1.9s1.2-0.7,2.1-0.7c0.6,0,1.2,0.1,1.6,0.4s0.8,0.6,1.1,1.1s0.5,1,0.7,1.7
		s0.3,1.6,0.3,2.7c0,1.3-0.1,2.4-0.4,3.3s-0.7,1.5-1.2,1.9s-1.2,0.7-2.1,0.7c-1.1,0-2-0.4-2.6-1.2
		C448.9,197.1,448.6,195.6,448.6,193.4z M450,193.4c0,1.9,0.2,3.1,0.7,3.8s1,0.9,1.6,0.9s1.2-0.3,1.6-0.9s0.7-1.9,0.7-3.8
		c0-1.9-0.2-3.1-0.7-3.8s-1-0.9-1.6-0.9c-0.6,0-1.2,0.3-1.5,0.8C450.3,190.3,450,191.5,450,193.4z"/>
	<path d="M457.5,193.4c0-1.4,0.1-2.4,0.4-3.3s0.7-1.5,1.2-1.9s1.2-0.7,2.1-0.7c0.6,0,1.2,0.1,1.6,0.4s0.8,0.6,1.1,1.1s0.5,1,0.7,1.7
		s0.3,1.6,0.3,2.7c0,1.3-0.1,2.4-0.4,3.3s-0.7,1.5-1.2,1.9s-1.2,0.7-2.1,0.7c-1.1,0-2-0.4-2.6-1.2
		C457.8,197.1,457.5,195.6,457.5,193.4z M458.9,193.4c0,1.9,0.2,3.1,0.7,3.8s1,0.9,1.6,0.9s1.2-0.3,1.6-0.9s0.7-1.9,0.7-3.8
		c0-1.9-0.2-3.1-0.7-3.8s-1-0.9-1.6-0.9c-0.6,0-1.2,0.3-1.5,0.8C459.2,190.3,458.9,191.5,458.9,193.4z"/>
	<path d="M466.4,193.4c0-1.4,0.1-2.4,0.4-3.3s0.7-1.5,1.2-1.9s1.2-0.7,2.1-0.7c0.6,0,1.2,0.1,1.6,0.4s0.8,0.6,1.1,1.1s0.5,1,0.7,1.7
		s0.3,1.6,0.3,2.7c0,1.3-0.1,2.4-0.4,3.3s-0.7,1.5-1.2,1.9s-1.2,0.7-2.1,0.7c-1.1,0-2-0.4-2.6-1.2
		C466.7,197.1,466.4,195.6,466.4,193.4z M467.8,193.4c0,1.9,0.2,3.1,0.7,3.8s1,0.9,1.6,0.9s1.2-0.3,1.6-0.9s0.7-1.9,0.7-3.8
		c0-1.9-0.2-3.1-0.7-3.8s-1-0.9-1.6-0.9c-0.6,0-1.2,0.3-1.5,0.8C468,190.3,467.8,191.5,467.8,193.4z"/>
	<path d="M475.3,193.4c0-1.4,0.1-2.4,0.4-3.3s0.7-1.5,1.2-1.9s1.2-0.7,2.1-0.7c0.6,0,1.2,0.1,1.6,0.4s0.8,0.6,1.1,1.1s0.5,1,0.7,1.7
		s0.3,1.6,0.3,2.7c0,1.3-0.1,2.4-0.4,3.3s-0.7,1.5-1.2,1.9s-1.2,0.7-2.1,0.7c-1.1,0-2-0.4-2.6-1.2
		C475.6,197.1,475.3,195.6,475.3,193.4z M476.7,193.4c0,1.9,0.2,3.1,0.7,3.8s1,0.9,1.6,0.9s1.2-0.3,1.6-0.9s0.7-1.9,0.7-3.8
		c0-1.9-0.2-3.1-0.7-3.8s-1-0.9-1.6-0.9c-0.6,0-1.2,0.3-1.5,0.8C476.9,190.3,476.7,191.5,476.7,193.4z"/>
	<path d="M484.2,193.4c0-1.4,0.1-2.4,0.4-3.3s0.7-1.5,1.2-1.9s1.2-0.7,2.1-0.7c0.6,0,1.2,0.1,1.6,0.4s0.8,0.6,1.1,1.1s0.5,1,0.7,1.7
		s0.3,1.6,0.3,2.7c0,1.3-0.1,2.4-0.4,3.3s-0.7,1.5-1.2,1.9s-1.2,0.7-2.1,0.7c-1.1,0-2-0.4-2.6-1.2
		C484.5,197.1,484.2,195.6,484.2,193.4z M485.6,193.4c0,1.9,0.2,3.1,0.7,3.8s1,0.9,1.6,0.9s1.2-0.3,1.6-0.9s0.7-1.9,0.7-3.8
		c0-1.9-0.2-3.1-0.7-3.8s-1-0.9-1.6-0.9c-0.6,0-1.2,0.3-1.5,0.8C485.8,190.3,485.6,191.5,485.6,193.4z"/>
</g>
<g class="st1">
	<path d="M502.7,199.1l4.4-11.5h1.6l4.7,11.5h-1.7l-1.3-3.5h-4.8l-1.3,3.5H502.7z M506,194.4h3.9l-1.2-3.2c-0.4-1-0.6-1.8-0.8-2.4
		c-0.1,0.7-0.4,1.5-0.6,2.2L506,194.4z"/>
</g>
<g class="st1">
	<path d="M522.1,194.9c0-1.5,0.4-2.7,1.3-3.4c0.7-0.6,1.6-0.9,2.6-0.9c1.1,0,2.1,0.4,2.8,1.1s1.1,1.8,1.1,3.1c0,1.1-0.2,1.9-0.5,2.5
		s-0.8,1.1-1.4,1.4s-1.3,0.5-2,0.5c-1.2,0-2.1-0.4-2.8-1.1S522.1,196.3,522.1,194.9z M523.6,194.9c0,1.1,0.2,1.9,0.7,2.4
		s1,0.8,1.8,0.8c0.7,0,1.3-0.3,1.7-0.8s0.7-1.3,0.7-2.4c0-1-0.2-1.8-0.7-2.3s-1-0.8-1.7-0.8c-0.7,0-1.3,0.3-1.8,0.8
		S523.6,193.9,523.6,194.9z"/>
	<path d="M540.9,199.1h-1.4v-9c-0.3,0.3-0.8,0.6-1.3,1s-1,0.6-1.5,0.7v-1.4c0.8-0.4,1.5-0.8,2.1-1.3s1-1,1.2-1.5h0.9V199.1z"/>
	<path d="M544.5,193.4c0-1.4,0.1-2.4,0.4-3.3s0.7-1.5,1.2-1.9s1.2-0.7,2.1-0.7c0.6,0,1.2,0.1,1.6,0.4s0.8,0.6,1.1,1.1s0.5,1,0.7,1.7
		s0.3,1.6,0.3,2.7c0,1.3-0.1,2.4-0.4,3.3s-0.7,1.5-1.2,1.9s-1.2,0.7-2.1,0.7c-1.1,0-2-0.4-2.6-1.2
		C544.9,197.1,544.5,195.6,544.5,193.4z M545.9,193.4c0,1.9,0.2,3.1,0.7,3.8s1,0.9,1.6,0.9s1.2-0.3,1.6-0.9s0.7-1.9,0.7-3.8
		c0-1.9-0.2-3.1-0.7-3.8s-1-0.9-1.6-0.9c-0.6,0-1.2,0.3-1.5,0.8C546.2,190.3,545.9,191.5,545.9,193.4z"/>
</g>
<g class="st1">
	<path d="M555.7,188.6v-1.4h4.3v1.4H555.7z"/>
</g>
<g id="Grupo_66108" transform="translate(563.177 44.706)">
	<g class="st1">
		<path d="M7.3,139.7l-1.4,0.1c-0.1-0.6-0.3-1-0.5-1.2C5,138.2,4.6,138,4,138c-0.4,0-0.8,0.1-1.2,0.4c-0.4,0.3-0.8,0.8-1,1.4
			s-0.4,1.5-0.4,2.6c0.3-0.5,0.8-0.9,1.2-1.1s1-0.4,1.5-0.4c0.9,0,1.7,0.3,2.4,1s1,1.6,1,2.7c0,0.7-0.2,1.4-0.5,2s-0.7,1.1-1.3,1.4
			s-1.2,0.5-1.8,0.5c-1.2,0-2.1-0.4-2.9-1.3S0,145,0,143c0-2.2,0.4-3.8,1.2-4.8c0.7-0.9,1.7-1.3,2.9-1.3c0.9,0,1.6,0.3,2.2,0.8
			S7.2,138.8,7.3,139.7z M1.6,144.7c0,0.5,0.1,0.9,0.3,1.4s0.5,0.8,0.9,1s0.8,0.3,1.2,0.3c0.6,0,1.1-0.2,1.5-0.7s0.6-1.1,0.6-2
			c0-0.8-0.2-1.4-0.6-1.9s-1-0.7-1.6-0.7c-0.6,0-1.2,0.2-1.6,0.7S1.6,143.9,1.6,144.7z"/>
	</g>
</g>
<g class="st1">
	<path d="M573.7,199.1l4.4-11.5h1.6l4.7,11.5h-1.7l-1.3-3.5h-4.8l-1.3,3.5H573.7z M577,194.4h3.9l-1.2-3.2c-0.4-1-0.6-1.8-0.8-2.4
		c-0.1,0.7-0.4,1.5-0.6,2.2L577,194.4z"/>
</g>
</svg>
