<svg xmlns="http://www.w3.org/2000/svg" width="469.764" height="352.543" viewBox="0 0 469.764 352.543">
  <g id="Grupo_72910" data-name="Grupo 72910" transform="translate(-210.237 -3379.542)">
    <g id="Layer_1" data-name="Layer 1">
      <text id="Láminas_conductoras" data-name="Láminas conductoras" transform="translate(210.237 3398.542)" fill="#1b2d5b" font-size="18" font-family="Roboto-Regular, Roboto"><tspan x="0" y="0">Láminas conductoras</tspan></text>
      <text id="Dieléctrico" transform="translate(302.575 3727.085)" fill="#1b2d5b" font-size="18" font-family="Roboto-Regular, Roboto"><tspan x="0" y="0">Dieléctrico</tspan></text>
      <rect id="Rectángulo_32442" data-name="Rectángulo 32442" width="137.708" height="149.598" transform="translate(541.293 3532.095)" fill="#fff" stroke="#1b2d5b" stroke-miterlimit="10" stroke-width="2"/>
      <rect id="Rectángulo_32443" data-name="Rectángulo 32443" width="24.466" height="155.653" transform="translate(566.458 3451.241)" fill="#fff" stroke="#1b2d5b" stroke-miterlimit="10" stroke-width="2"/>
      <rect id="Rectángulo_32444" data-name="Rectángulo 32444" width="24.466" height="155.653" transform="translate(627.973 3451.241)" fill="#fff" stroke="#1b2d5b" stroke-miterlimit="10" stroke-width="2"/>
      <rect id="Rectángulo_32445" data-name="Rectángulo 32445" width="4.638" height="39.612" transform="translate(604.508 3662.115)" fill="#25ffff"/>
      <rect id="Rectángulo_32446" data-name="Rectángulo 32446" width="5.04" height="18.343" transform="translate(611.748 3672.522)" fill="#25ffff"/>
      <g id="Grupo_72894" data-name="Grupo 72894">
        <path id="Trazado_144345" data-name="Trazado 144345" d="M601.208,3601.581h3.3V3603h-3.3v3.739H599.7V3603h-3.3v-1.422h3.3v-3.454h1.512Z" fill="#51427e"/>
      </g>
      <g id="Grupo_72895" data-name="Grupo 72895">
        <path id="Trazado_144346" data-name="Trazado 144346" d="M601.208,3580.494h3.3v1.422h-3.3v3.739H599.7v-3.739h-3.3v-1.422h3.3v-3.454h1.512Z" fill="#51427e"/>
      </g>
      <g id="Grupo_72896" data-name="Grupo 72896">
        <path id="Trazado_144347" data-name="Trazado 144347" d="M601.208,3559.407h3.3v1.422h-3.3v3.739H599.7v-3.739h-3.3v-1.422h3.3v-3.454h1.512Z" fill="#51427e"/>
      </g>
      <g id="Grupo_72897" data-name="Grupo 72897">
        <path id="Trazado_144348" data-name="Trazado 144348" d="M601.208,3541.668h3.3v1.422h-3.3v3.739H599.7v-3.739h-3.3v-1.422h3.3v-3.454h1.512Z" fill="#51427e"/>
      </g>
      <g id="Grupo_72898" data-name="Grupo 72898">
        <path id="Trazado_144349" data-name="Trazado 144349" d="M601.208,3517.9h3.3v1.422h-3.3v3.739H599.7v-3.739h-3.3V3517.9h3.3v-3.454h1.512Z" fill="#51427e"/>
      </g>
      <g id="Grupo_72899" data-name="Grupo 72899">
        <path id="Trazado_144350" data-name="Trazado 144350" d="M601.208,3497.248h3.3v1.422h-3.3v3.739H599.7v-3.739h-3.3v-1.422h3.3v-3.454h1.512Z" fill="#51427e"/>
      </g>
      <g id="Grupo_72900" data-name="Grupo 72900">
        <path id="Trazado_144351" data-name="Trazado 144351" d="M601.208,3478.838h3.3v1.422h-3.3V3484H599.7v-3.74h-3.3v-1.422h3.3v-3.454h1.512Z" fill="#51427e"/>
      </g>
      <g id="Grupo_72901" data-name="Grupo 72901">
        <path id="Trazado_144352" data-name="Trazado 144352" d="M601.208,3460.033h3.3v1.422h-3.3v3.739H599.7v-3.739h-3.3v-1.422h3.3v-3.454h1.512Z" fill="#51427e"/>
      </g>
      <g id="Grupo_72902" data-name="Grupo 72902">
        <path id="Trazado_144353" data-name="Trazado 144353" d="M622.719,3601.26h-6.325V3599.3h6.325Z" fill="#51427e"/>
      </g>
      <g id="Grupo_72903" data-name="Grupo 72903">
        <path id="Trazado_144354" data-name="Trazado 144354" d="M622.719,3582.326h-6.325v-1.957h6.325Z" fill="#51427e"/>
      </g>
      <g id="Grupo_72904" data-name="Grupo 72904">
        <path id="Trazado_144355" data-name="Trazado 144355" d="M622.719,3563.391h-6.325v-1.957h6.325Z" fill="#51427e"/>
      </g>
      <g id="Grupo_72905" data-name="Grupo 72905">
        <path id="Trazado_144356" data-name="Trazado 144356" d="M622.719,3543.5h-6.325v-1.957h6.325Z" fill="#51427e"/>
      </g>
      <g id="Grupo_72906" data-name="Grupo 72906">
        <path id="Trazado_144357" data-name="Trazado 144357" d="M622.719,3520.427h-6.325v-1.957h6.325Z" fill="#51427e"/>
      </g>
      <g id="Grupo_72907" data-name="Grupo 72907">
        <path id="Trazado_144358" data-name="Trazado 144358" d="M622.719,3498.1h-6.325v-1.958h6.325Z" fill="#51427e"/>
      </g>
      <g id="Grupo_72908" data-name="Grupo 72908">
        <path id="Trazado_144359" data-name="Trazado 144359" d="M622.719,3480.671h-6.325v-1.958h6.325Z" fill="#51427e"/>
      </g>
      <g id="Grupo_72909" data-name="Grupo 72909">
        <path id="Trazado_144360" data-name="Trazado 144360" d="M622.719,3460.887h-6.325v-1.958h6.325Z" fill="#51427e"/>
      </g>
      <line id="Línea_360" data-name="Línea 360" x2="38.447" transform="translate(587.302 3437.688)" fill="#fff" stroke="#1b2d5b" stroke-miterlimit="10" stroke-width="2"/>
      <path id="Trazado_144361" data-name="Trazado 144361" d="M591.357,3432.648v10.08l-5.04-5.04Z" fill="#1b2d5b"/>
      <path id="Trazado_144362" data-name="Trazado 144362" d="M625.749,3442.728v-10.08l5.04,5.04Z" fill="#1b2d5b"/>
    </g>
    <g id="Layer_5" data-name="Layer 5">
      <rect id="Rectángulo_32447" data-name="Rectángulo 32447" width="13.2" height="295.689" transform="translate(375.846 3408.804)" fill="#beffff"/>
      <rect id="Rectángulo_32448" data-name="Rectángulo 32448" width="180.349" height="92.272" transform="translate(292.895 3510.163)" fill="#fff" stroke="#1b2d5b" stroke-miterlimit="10" stroke-width="2"/>
      <rect id="Rectángulo_32449" data-name="Rectángulo 32449" width="178.116" height="18.629" transform="translate(293.878 3546.978)" fill="#25ffff"/>
    </g>
  </g>
</svg>
