<?xml version="1.0" encoding="utf-8"?>
<!-- Generator: Adobe Illustrator 25.2.3, SVG Export Plug-In . SVG Version: 6.00 Build 0)  -->
<!DOCTYPE svg PUBLIC "-//W3C//DTD SVG 1.1//EN" "http://www.w3.org/Graphics/SVG/1.1/DTD/svg11.dtd" [
	<!ENTITY ns_extend "http://ns.adobe.com/Extensibility/1.0/">
	<!ENTITY ns_ai "http://ns.adobe.com/AdobeIllustrator/10.0/">
	<!ENTITY ns_graphs "http://ns.adobe.com/Graphs/1.0/">
	<!ENTITY ns_vars "http://ns.adobe.com/Variables/1.0/">
	<!ENTITY ns_imrep "http://ns.adobe.com/ImageReplacement/1.0/">
	<!ENTITY ns_sfw "http://ns.adobe.com/SaveForWeb/1.0/">
	<!ENTITY ns_custom "http://ns.adobe.com/GenericCustomNamespace/1.0/">
	<!ENTITY ns_adobe_xpath "http://ns.adobe.com/XPath/1.0/">
]>
<svg version="1.1" id="Capa_1" xmlns:x="&ns_extend;" xmlns:i="&ns_ai;" xmlns:graph="&ns_graphs;"
	 xmlns="http://www.w3.org/2000/svg" xmlns:xlink="http://www.w3.org/1999/xlink" x="0px" y="0px" viewBox="0 0 372.4 283.7"
	 style="enable-background:new 0 0 372.4 283.7;" xml:space="preserve">
<style type="text/css">
	.st0{enable-background:new    ;}
	.st1{fill:#1B2D5B;}
	.st2{fill:url(#Elipse_4698_1_);}
	.st3{opacity:0.75;fill:url(#Trazado_110818_1_);enable-background:new    ;}
	.st4{fill:url(#Trazado_110819_1_);}
	.st5{fill:url(#Trazado_110820_1_);}
	.st6{fill:url(#Trazado_110821_1_);}
	.st7{fill:url(#Trazado_110822_1_);}
	.st8{fill:url(#Elipse_4699_1_);}
	.st9{opacity:0.75;fill:url(#Trazado_110823_1_);enable-background:new    ;}
	.st10{fill:url(#Elipse_4700_1_);}
	.st11{opacity:0.75;fill:url(#Trazado_110824_1_);enable-background:new    ;}
	.st12{fill:url(#Elipse_4701_1_);}
	.st13{opacity:0.75;fill:url(#Trazado_110825_1_);enable-background:new    ;}
	.st14{fill:#100142;}
	.st15{fill:url(#Trazado_110829_1_);}
	.st16{opacity:0.55;fill:#C4774A;enable-background:new    ;}
	.st17{fill:url(#Trazado_110831_1_);}
	.st18{opacity:0.75;fill:url(#Trazado_110832_1_);enable-background:new    ;}
	.st19{fill:url(#Trazado_110833_1_);}
	.st20{fill:url(#Trazado_110834_1_);}
	.st21{fill:url(#Trazado_110835_1_);}
	.st22{fill:url(#Trazado_110836_1_);}
	.st23{fill:url(#Trazado_110837_1_);}
	.st24{fill:url(#Trazado_110838_1_);}
	.st25{fill:url(#Trazado_110839_1_);}
	.st26{fill:url(#Trazado_110840_1_);}
	.st27{fill:none;stroke:#808080;stroke-miterlimit:10;}
</style>
<metadata>
	<sfw  xmlns="&ns_sfw;">
		<slices></slices>
		<sliceSourceBounds  bottomLeftOrigin="true" height="283.7" width="371" x="0" y="0"></sliceSourceBounds>
	</sfw>
</metadata>
<g id="Grupo_64287" transform="translate(373.575 -926.576)">
	<g class="st0">
		<path class="st1" d="M-53.3,964.2h-4.5v3h5.3v1.9h-7.6v-11.4h7.6v1.9h-5.3v2.7h4.5V964.2z"/>
		<path class="st1" d="M-48.9,969.2h-2.3v-12h2.3V969.2z"/>
		<path class="st1" d="M-43.2,969.3c-1.2,0-2.2-0.4-3-1.1s-1.2-1.8-1.2-3v-0.2c0-0.8,0.2-1.6,0.5-2.3s0.8-1.2,1.4-1.5
			s1.3-0.5,2.1-0.5c1.2,0,2.1,0.4,2.7,1.1s1,1.8,1,3.1v0.9h-5.4c0.1,0.6,0.3,1,0.7,1.3s0.8,0.5,1.4,0.5c0.9,0,1.5-0.3,2-0.9l1.1,1.2
			c-0.3,0.5-0.8,0.9-1.4,1.1S-42.5,969.3-43.2,969.3z M-43.5,962.4c-0.4,0-0.8,0.2-1.1,0.5s-0.5,0.7-0.5,1.3h3.1V964
			c0-0.5-0.1-0.9-0.4-1.2S-43,962.4-43.5,962.4z"/>
		<path class="st1" d="M-34.9,967.5c0.4,0,0.8-0.1,1-0.3s0.4-0.5,0.4-0.9h2.1c0,0.6-0.2,1.1-0.5,1.6s-0.7,0.8-1.3,1.1
			s-1.1,0.4-1.8,0.4c-1.2,0-2.2-0.4-2.9-1.2s-1-1.8-1-3.2v-0.1c0-1.3,0.3-2.3,1-3.1s1.6-1.2,2.9-1.2c1.1,0,1.9,0.3,2.5,0.9
			s1,1.4,1,2.4h-2.1c0-0.4-0.1-0.8-0.4-1.1c-0.3-0.3-0.6-0.4-1-0.4c-0.5,0-0.9,0.2-1.2,0.6s-0.4,1-0.4,1.9v0.2
			c0,0.9,0.1,1.5,0.4,1.9S-35.5,967.5-34.9,967.5z"/>
		<path class="st1" d="M-27.4,958.6v2.1h1.4v1.7h-1.4v4.2c0,0.3,0.1,0.5,0.2,0.7s0.3,0.2,0.7,0.2c0.2,0,0.5,0,0.7-0.1v1.7
			c-0.4,0.1-0.9,0.2-1.4,0.2c-1.6,0-2.4-0.8-2.4-2.4v-4.6h-1.2v-1.7h1.2v-2.1H-27.4z"/>
		<path class="st1" d="M-19.9,962.8c-0.3,0-0.6-0.1-0.8-0.1c-0.9,0-1.4,0.3-1.7,0.9v5.5h-2.3v-8.5h2.1l0.1,1
			c0.5-0.8,1.1-1.2,1.9-1.2c0.2,0,0.5,0,0.7,0.1L-19.9,962.8z"/>
		<path class="st1" d="M-19.2,964.9c0-0.8,0.2-1.6,0.5-2.2s0.8-1.2,1.4-1.5s1.3-0.5,2.1-0.5c1.1,0,2.1,0.3,2.8,1s1.1,1.6,1.2,2.8
			l0,0.6c0,1.3-0.4,2.3-1.1,3.1s-1.7,1.2-2.9,1.2s-2.2-0.4-2.9-1.2s-1.1-1.8-1.1-3.2V964.9z M-16.9,965c0,0.8,0.2,1.4,0.5,1.8
			s0.7,0.6,1.3,0.6c0.5,0,1-0.2,1.3-0.6s0.5-1.1,0.5-2c0-0.8-0.2-1.4-0.5-1.8s-0.7-0.6-1.3-0.6c-0.6,0-1,0.2-1.3,0.6
			S-16.9,964.1-16.9,965z M-14.8,957.2h2.5l-2.2,2.4h-1.8L-14.8,957.2z"/>
		<path class="st1" d="M-7.7,960.7l0.1,1c0.6-0.8,1.4-1.1,2.4-1.1c0.9,0,1.6,0.3,2,0.8s0.7,1.3,0.7,2.4v5.5h-2.3v-5.4
			c0-0.5-0.1-0.8-0.3-1s-0.6-0.3-1-0.3c-0.6,0-1.1,0.3-1.4,0.8v6h-2.3v-8.5H-7.7z"/>
	</g>
	<g class="st0">
		<path class="st1" d="M-57.8,1053.8v4h-2.3v-11.4h4.4c0.9,0,1.6,0.2,2.3,0.5s1.1,0.8,1.5,1.3s0.5,1.2,0.5,2c0,1.1-0.4,2-1.1,2.6
			s-1.8,1-3.2,1H-57.8z M-57.8,1051.9h2.1c0.6,0,1.1-0.1,1.4-0.4s0.5-0.7,0.5-1.2c0-0.6-0.2-1-0.5-1.4s-0.8-0.5-1.4-0.5h-2.1V1051.9
			z"/>
		<path class="st1" d="M-45.3,1051.5c-0.3,0-0.6-0.1-0.8-0.1c-0.9,0-1.4,0.3-1.7,0.9v5.5H-50v-8.5h2.1l0.1,1
			c0.5-0.8,1.1-1.2,1.9-1.2c0.2,0,0.5,0,0.7,0.1L-45.3,1051.5z"/>
		<path class="st1" d="M-44.8,1053.5c0-0.8,0.2-1.6,0.5-2.2s0.8-1.2,1.4-1.5s1.3-0.5,2.1-0.5c1.1,0,2.1,0.3,2.8,1s1.1,1.6,1.2,2.8
			l0,0.6c0,1.3-0.4,2.3-1.1,3.1s-1.7,1.2-2.9,1.2s-2.2-0.4-2.9-1.2s-1.1-1.8-1.1-3.2V1053.5z M-42.5,1053.7c0,0.8,0.2,1.4,0.5,1.8
			s0.7,0.6,1.3,0.6c0.5,0,1-0.2,1.3-0.6s0.5-1.1,0.5-2c0-0.8-0.2-1.4-0.5-1.8s-0.7-0.6-1.3-0.6c-0.6,0-1,0.2-1.3,0.6
			S-42.5,1052.8-42.5,1053.7z"/>
		<path class="st1" d="M-32.7,1047.3v2.1h1.4v1.7h-1.4v4.2c0,0.3,0.1,0.5,0.2,0.7s0.3,0.2,0.7,0.2c0.2,0,0.5,0,0.7-0.1v1.7
			c-0.4,0.1-0.9,0.2-1.4,0.2c-1.6,0-2.4-0.8-2.4-2.4v-4.6h-1.2v-1.7h1.2v-2.1H-32.7z"/>
		<path class="st1" d="M-30.4,1053.5c0-0.8,0.2-1.6,0.5-2.2s0.8-1.2,1.4-1.5s1.3-0.5,2.1-0.5c1.1,0,2.1,0.3,2.8,1s1.1,1.6,1.2,2.8
			l0,0.6c0,1.3-0.4,2.3-1.1,3.1s-1.7,1.2-2.9,1.2s-2.2-0.4-2.9-1.2s-1.1-1.8-1.1-3.2V1053.5z M-28.1,1053.7c0,0.8,0.2,1.4,0.5,1.8
			s0.7,0.6,1.3,0.6c0.5,0,1-0.2,1.3-0.6s0.5-1.1,0.5-2c0-0.8-0.2-1.4-0.5-1.8s-0.7-0.6-1.3-0.6c-0.6,0-1,0.2-1.3,0.6
			S-28.1,1052.8-28.1,1053.7z M-25.9,1045.8h2.5l-2.2,2.4h-1.8L-25.9,1045.8z"/>
		<path class="st1" d="M-18.9,1049.4l0.1,1c0.6-0.8,1.4-1.1,2.4-1.1c0.9,0,1.6,0.3,2,0.8s0.7,1.3,0.7,2.4v5.5H-16v-5.4
			c0-0.5-0.1-0.8-0.3-1s-0.6-0.3-1-0.3c-0.6,0-1.1,0.3-1.4,0.8v6H-21v-8.5H-18.9z"/>
	</g>
	<g class="st0">
		<path class="st1" d="M-50.9,1172.7h-2.3l-4.6-7.5v7.5h-2.3v-11.4h2.3l4.6,7.5v-7.5h2.3V1172.7z"/>
		<path class="st1" d="M-45.1,1172.9c-1.2,0-2.2-0.4-3-1.1s-1.2-1.8-1.2-3v-0.2c0-0.8,0.2-1.6,0.5-2.3s0.8-1.2,1.4-1.5
			s1.3-0.5,2.1-0.5c1.2,0,2.1,0.4,2.7,1.1s1,1.8,1,3.1v0.9H-47c0.1,0.6,0.3,1,0.7,1.3s0.8,0.5,1.4,0.5c0.9,0,1.5-0.3,2-0.9l1.1,1.2
			c-0.3,0.5-0.8,0.9-1.4,1.1S-44.4,1172.9-45.1,1172.9z M-45.4,1165.9c-0.4,0-0.8,0.2-1.1,0.5s-0.5,0.7-0.5,1.3h3.1v-0.2
			c0-0.5-0.1-0.9-0.4-1.2S-44.9,1165.9-45.4,1165.9z"/>
		<path class="st1" d="M-35.3,1171.9c-0.6,0.7-1.3,1-2.3,1c-0.9,0-1.6-0.3-2.1-0.8s-0.7-1.3-0.7-2.3v-5.5h2.3v5.5
			c0,0.9,0.4,1.3,1.2,1.3c0.8,0,1.3-0.3,1.6-0.8v-6h2.3v8.5h-2.1L-35.3,1171.9z"/>
		<path class="st1" d="M-28.7,1162.2v2.1h1.4v1.7h-1.4v4.2c0,0.3,0.1,0.5,0.2,0.7s0.3,0.2,0.7,0.2c0.2,0,0.5,0,0.7-0.1v1.7
			c-0.4,0.1-0.9,0.2-1.4,0.2c-1.6,0-2.4-0.8-2.4-2.4v-4.6h-1.2v-1.7h1.2v-2.1H-28.7z"/>
		<path class="st1" d="M-21.3,1166.4c-0.3,0-0.6-0.1-0.8-0.1c-0.9,0-1.4,0.3-1.7,0.9v5.5H-26v-8.5h2.1l0.1,1
			c0.5-0.8,1.1-1.2,1.9-1.2c0.2,0,0.5,0,0.7,0.1L-21.3,1166.4z"/>
		<path class="st1" d="M-20.5,1168.4c0-0.8,0.2-1.6,0.5-2.2s0.8-1.2,1.4-1.5s1.3-0.5,2.1-0.5c1.1,0,2.1,0.3,2.8,1s1.1,1.6,1.2,2.8
			l0,0.6c0,1.3-0.4,2.3-1.1,3.1s-1.7,1.2-2.9,1.2s-2.2-0.4-2.9-1.2s-1.1-1.8-1.1-3.2V1168.4z M-18.3,1168.6c0,0.8,0.2,1.4,0.5,1.8
			s0.7,0.6,1.3,0.6c0.5,0,1-0.2,1.3-0.6s0.5-1.1,0.5-2c0-0.8-0.2-1.4-0.5-1.8s-0.7-0.6-1.3-0.6c-0.6,0-1,0.2-1.3,0.6
			S-18.3,1167.7-18.3,1168.6z M-16.1,1160.7h2.5l-2.2,2.4h-1.8L-16.1,1160.7z"/>
		<path class="st1" d="M-9.1,1164.3l0.1,1c0.6-0.8,1.4-1.1,2.4-1.1c0.9,0,1.6,0.3,2,0.8s0.7,1.3,0.7,2.4v5.5h-2.3v-5.4
			c0-0.5-0.1-0.8-0.3-1s-0.6-0.3-1-0.3c-0.6,0-1.1,0.3-1.4,0.8v6h-2.3v-8.5H-9.1z"/>
	</g>
	<g id="Grupo_64286" transform="translate(-373.575 926.576)">
		<g id="Grupo_64271" transform="translate(120.868 139.333)">
			
				<linearGradient id="Elipse_4698_1_" gradientUnits="userSpaceOnUse" x1="-170.7853" y1="584.6357" x2="-171.7233" y2="584.1718" gradientTransform="matrix(24.394 0 0 -24.394 4188.3359 14268.8525)">
				<stop  offset="0" style="stop-color:#7D4CCA"/>
				<stop  offset="0.529" style="stop-color:#1B2AAB"/>
				<stop  offset="1" style="stop-color:#17256E"/>
			</linearGradient>
			<circle id="Elipse_4698" class="st2" cx="12.2" cy="12.2" r="12.2"/>
			
				<linearGradient id="Trazado_110818_1_" gradientUnits="userSpaceOnUse" x1="-171.5677" y1="584.4375" x2="-170.5677" y2="584.4375" gradientTransform="matrix(23.041 0 0 -24.4 3953.0923 14272.4893)">
				<stop  offset="0" style="stop-color:#7D4CCA"/>
				<stop  offset="0.529" style="stop-color:#1B2AAB"/>
				<stop  offset="1" style="stop-color:#17256E"/>
			</linearGradient>
			<path id="Trazado_110818" class="st3" d="M19.9,18.4c-4.9,0-8.9-4-8.9-8.9l0,0c0-3.8,2.5-7.2,6.1-8.4c-1.5-0.7-3.2-1-4.9-1
				C5.5,0,0,5.5,0,12.2c0,6.7,5.5,12.2,12.2,12.2c4.6,0,8.8-2.6,10.8-6.6C22,18.2,21,18.4,19.9,18.4z"/>
		</g>
		<g id="Grupo_64272" transform="translate(143.769 115.81)">
			
				<linearGradient id="Trazado_110819_1_" gradientUnits="userSpaceOnUse" x1="-192.9621" y1="603.5099" x2="-193.7121" y2="603.1519" gradientTransform="matrix(19.48 0 0 -19.4801 3780.0623 11760.7256)">
				<stop  offset="0" style="stop-color:#FCBAAA"/>
				<stop  offset="0.971" style="stop-color:#ED6BCF"/>
			</linearGradient>
			<path id="Trazado_110819" class="st4" d="M19.5,9.7c0,5.4-4.4,9.7-9.7,9.7C4.4,19.5,0,15.1,0,9.7c0,0,0,0,0,0C0,4.4,4.4,0,9.7,0
				h0C15.1,0,19.5,4.4,19.5,9.7L19.5,9.7z"/>
			
				<linearGradient id="Trazado_110820_1_" gradientUnits="userSpaceOnUse" x1="-193.8882" y1="603.2301" x2="-192.8882" y2="603.2301" gradientTransform="matrix(18.398 0 0 -19.48 3567.155 11760.6885)">
				<stop  offset="0" style="stop-color:#FCBAAA"/>
				<stop  offset="0.971" style="stop-color:#9A6BCF"/>
			</linearGradient>
			<path id="Trazado_110820" class="st5" d="M15.9,14.7c-3.9,0-7.1-3.2-7.1-7.1c0-3.1,2-5.8,4.9-6.7C12.4,0.3,11.1,0,9.7,0
				C4.4,0,0,4.4,0,9.7l0,0c0,5.4,4.4,9.7,9.7,9.7c3.6,0,7-2,8.7-5.3C17.6,14.5,16.7,14.7,15.9,14.7z"/>
		</g>
		<g id="Grupo_64273" transform="translate(104.607 130.287)">
			
				<linearGradient id="Trazado_110821_1_" gradientUnits="userSpaceOnUse" x1="-153.7999" y1="589.0328" x2="-154.5499" y2="588.6748" gradientTransform="matrix(19.478 0 0 -19.48 3016.8745 11478.6357)">
				<stop  offset="0" style="stop-color:#FCBAAA"/>
				<stop  offset="0.971" style="stop-color:#ED6BCF"/>
			</linearGradient>
			<path id="Trazado_110821" class="st6" d="M19.5,9.7c0,5.4-4.4,9.7-9.7,9.7c0,0,0,0,0,0C4.4,19.5,0,15.1,0,9.7c0,0,0,0,0,0
				C0,4.4,4.4,0,9.7,0c0,0,0,0,0,0C15.1,0,19.5,4.4,19.5,9.7C19.5,9.7,19.5,9.7,19.5,9.7z"/>
			
				<linearGradient id="Trazado_110822_1_" gradientUnits="userSpaceOnUse" x1="-154.726" y1="588.7532" x2="-153.726" y2="588.7532" gradientTransform="matrix(18.396 0 0 -19.4801 2846.3435 11478.7129)">
				<stop  offset="0" style="stop-color:#FCBAAA"/>
				<stop  offset="0.971" style="stop-color:#9A6BCF"/>
			</linearGradient>
			<path id="Trazado_110822" class="st7" d="M15.9,14.7c-3.9,0-7.1-3.2-7.1-7.1c0-3.1,2-5.8,4.9-6.7C12.4,0.3,11.1,0,9.7,0
				C4.4,0,0,4.4,0,9.7c0,0,0,0,0,0c0,5.4,4.4,9.7,9.7,9.7c0,0,0,0,0,0c3.6,0,7-2,8.7-5.3C17.6,14.5,16.7,14.7,15.9,14.7z"/>
		</g>
		<g id="Grupo_64274" transform="translate(125.034 129.742)">
			
				<linearGradient id="Elipse_4699_1_" gradientUnits="userSpaceOnUse" x1="-174.9513" y1="594.2267" x2="-175.8893" y2="593.7628" gradientTransform="matrix(24.394 0 0 -24.394 4289.9609 14502.8154)">
				<stop  offset="0" style="stop-color:#7D4CCA"/>
				<stop  offset="0.529" style="stop-color:#1B2AAB"/>
				<stop  offset="1" style="stop-color:#17256E"/>
			</linearGradient>
			<circle id="Elipse_4699" class="st8" cx="12.2" cy="12.2" r="12.2"/>
			
				<linearGradient id="Trazado_110823_1_" gradientUnits="userSpaceOnUse" x1="-175.7337" y1="594.0285" x2="-174.7337" y2="594.0285" gradientTransform="matrix(23.041 0 0 -24.4 4049.082 14506.5098)">
				<stop  offset="0" style="stop-color:#7D4CCA"/>
				<stop  offset="0.529" style="stop-color:#1B2AAB"/>
				<stop  offset="1" style="stop-color:#17256E"/>
			</linearGradient>
			<path id="Trazado_110823" class="st9" d="M19.9,18.4c-4.9,0-8.9-4-8.9-8.9c0-3.8,2.5-7.2,6.1-8.4c-1.5-0.7-3.2-1-4.9-1
				C5.5,0,0,5.5,0,12.2c0,6.7,5.5,12.2,12.2,12.2c4.6,0,8.8-2.6,10.8-6.6C22,18.2,21,18.4,19.9,18.4z"/>
		</g>
		<g id="Grupo_64275" transform="translate(143.164 128.858)">
			
				<linearGradient id="Elipse_4700_1_" gradientUnits="userSpaceOnUse" x1="-193.0813" y1="595.1107" x2="-194.0193" y2="594.6467" gradientTransform="matrix(24.394 0 0 -24.394 4732.2246 14524.3789)">
				<stop  offset="0" style="stop-color:#7D4CCA"/>
				<stop  offset="0.529" style="stop-color:#1B2AAB"/>
				<stop  offset="1" style="stop-color:#17256E"/>
			</linearGradient>
			<circle id="Elipse_4700" class="st10" cx="12.2" cy="12.2" r="12.2"/>
			
				<linearGradient id="Trazado_110824_1_" gradientUnits="userSpaceOnUse" x1="-193.8638" y1="594.9125" x2="-192.8638" y2="594.9125" gradientTransform="matrix(23.041 0 0 -24.4 4466.813 14528.0811)">
				<stop  offset="0" style="stop-color:#7D4CCA"/>
				<stop  offset="0.529" style="stop-color:#1B2AAB"/>
				<stop  offset="1" style="stop-color:#17256E"/>
			</linearGradient>
			<path id="Trazado_110824" class="st11" d="M19.9,18.4c-4.9,0-8.9-4-8.9-8.9c0-3.8,2.5-7.2,6.1-8.4c-1.5-0.7-3.2-1-4.9-1
				C5.5,0,0,5.5,0,12.2c0,6.7,5.5,12.2,12.2,12.2c4.6,0,8.8-2.6,10.8-6.6C22,18.2,21,18.4,19.9,18.4z"/>
		</g>
		<g id="Grupo_64276" transform="translate(111.448 121.747)">
			
				<linearGradient id="Elipse_4701_1_" gradientUnits="userSpaceOnUse" x1="-161.3653" y1="602.2217" x2="-162.3033" y2="601.7578" gradientTransform="matrix(24.394 0 0 -24.394 3958.5444 14697.8447)">
				<stop  offset="0" style="stop-color:#7D4CCA"/>
				<stop  offset="0.529" style="stop-color:#1B2AAB"/>
				<stop  offset="1" style="stop-color:#17256E"/>
			</linearGradient>
			<circle id="Elipse_4701" class="st12" cx="12.2" cy="12.2" r="12.2"/>
			
				<linearGradient id="Trazado_110825_1_" gradientUnits="userSpaceOnUse" x1="-162.1478" y1="602.0235" x2="-161.1478" y2="602.0235" gradientTransform="matrix(23.041 0 0 -24.4 3736.0449 14701.5879)">
				<stop  offset="0" style="stop-color:#7D4CCA"/>
				<stop  offset="0.529" style="stop-color:#1B2AAB"/>
				<stop  offset="1" style="stop-color:#17256E"/>
			</linearGradient>
			<path id="Trazado_110825" class="st13" d="M19.9,18.4c-4.9,0-8.9-4-8.9-8.9c0,0,0,0,0,0c0-3.8,2.5-7.2,6.1-8.4
				c-1.5-0.7-3.2-1-4.9-1C5.5,0,0,5.5,0,12.2l0,0c0,6.7,5.5,12.2,12.2,12.2c4.6,0,8.8-2.6,10.8-6.6C22,18.2,21,18.4,19.9,18.4z"/>
		</g>
		<g id="Grupo_64277" transform="translate(18.179 40.515)">
			<path id="Trazado_110826" class="st14" d="M217.1,202.8H217c-3.1-0.2-6.1-0.7-9.1-1.4c-0.9-0.2-1.4-1-1.2-1.9c0,0,0,0,0,0
				c0.2-0.9,1-1.4,1.9-1.2c0,0,0,0,0,0c2.8,0.6,5.7,1.1,8.6,1.3c0.9,0.1,1.5,0.8,1.5,1.7C218.6,202.2,217.9,202.8,217.1,202.8z
				 M226,202.3c-0.7,0-1.4-0.5-1.5-1.2c-0.2-0.9,0.3-1.7,1.2-1.9c2.6-0.5,5-1.8,6.8-3.8c0.6-0.7,1.5-0.8,2.2-0.3
				c0.7,0.5,0.8,1.5,0.3,2.1c0,0,0,0,0,0c-0.1,0.1-0.2,0.2-0.2,0.3c-2.2,2.5-5.1,4.2-8.4,4.8C226.2,202.3,226.1,202.3,226,202.3
				L226,202.3z M199.7,199.1c-0.2,0-0.3,0-0.5-0.1c-2.7-0.9-5.6-1.9-8.5-3c-0.8-0.3-1.2-1.2-0.9-2.1c0,0,0,0,0,0
				c0.3-0.8,1.2-1.2,2-0.9c0,0,0,0,0,0c2.9,1.1,5.7,2.1,8.3,3c0.8,0.3,1.3,1.2,1,2c0,0,0,0,0,0C201,198.7,200.3,199.1,199.7,199.1
				L199.7,199.1z M183,192.7c-0.2,0-0.4,0-0.6-0.1c-2.7-1.2-5.4-2.5-8.2-3.8c-0.8-0.4-1.1-1.3-0.7-2.1c0,0,0,0,0,0
				c0.4-0.8,1.3-1.1,2.1-0.7c0,0,0,0,0,0c2.7,1.4,5.4,2.6,8,3.8c0.8,0.4,1.2,1.3,0.8,2.1c0,0,0,0,0,0
				C184.2,192.3,183.6,192.7,183,192.7L183,192.7z M236.5,189.5L236.5,189.5c-0.9,0-1.6-0.8-1.6-1.6l0-0.7c0-2.6-0.4-5.2-1.1-7.7
				c-0.2-0.8,0.3-1.7,1.1-1.9c0,0,0,0,0,0c0.8-0.2,1.7,0.2,1.9,1.1c0,0,0,0,0,0.1c0.8,2.8,1.2,5.6,1.2,8.5l0,0.8
				C238.1,188.8,237.4,189.5,236.5,189.5L236.5,189.5z M166.9,184.8c-0.3,0-0.5-0.1-0.7-0.2c-2.6-1.4-5.2-2.8-7.9-4.4
				c-0.8-0.4-1-1.4-0.6-2.2c0,0,0,0,0,0c0.4-0.8,1.4-1,2.1-0.6c0,0,0,0,0,0c2.6,1.5,5.2,2.9,7.8,4.3c0.8,0.4,1.1,1.4,0.7,2.1
				c0,0,0,0,0,0C168.1,184.4,167.5,184.8,166.9,184.8L166.9,184.8z M151.4,175.9c-0.3,0-0.6-0.1-0.8-0.2c-2.5-1.5-5.1-3.1-7.6-4.7
				c-0.7-0.5-1-1.4-0.5-2.2c0,0,0,0,0,0c0.5-0.7,1.4-1,2.2-0.5c0,0,0,0,0,0c2.6,1.6,5.1,3.2,7.6,4.7c0.7,0.5,1,1.4,0.5,2.2
				C152.5,175.6,151.9,175.9,151.4,175.9L151.4,175.9z M232.4,172.2c-0.6,0-1.2-0.4-1.5-1c-1.1-2.5-2.4-5.2-3.9-7.9
				c-0.4-0.8-0.1-1.7,0.6-2.2c0.8-0.4,1.7-0.1,2.2,0.6c1.5,2.8,2.9,5.6,4,8.2c0.3,0.8,0,1.7-0.8,2.1c0,0,0,0,0,0
				C232.8,172.2,232.6,172.3,232.4,172.2L232.4,172.2z M136.3,166.3c-0.3,0-0.6-0.1-0.9-0.3c-2.5-1.6-4.9-3.3-7.4-5.1
				c-0.7-0.5-0.9-1.5-0.4-2.2c0.5-0.7,1.5-0.9,2.2-0.4c0,0,0,0,0,0c2.5,1.7,4.9,3.4,7.4,5c0.7,0.5,0.9,1.5,0.4,2.2
				C137.3,166,136.8,166.3,136.3,166.3L136.3,166.3z M223.9,156.5c-0.5,0-1.1-0.3-1.3-0.7c-1.5-2.4-3.1-4.9-4.9-7.4
				c-0.5-0.7-0.3-1.7,0.4-2.2c0.7-0.5,1.7-0.3,2.2,0.4c0,0,0,0,0,0c1.8,2.6,3.5,5.1,5,7.5c0.5,0.7,0.2,1.7-0.5,2.2c0,0,0,0,0,0
				C224.5,156.4,224.2,156.5,223.9,156.5L223.9,156.5z M121.6,156.1c-0.3,0-0.7-0.1-0.9-0.3c-2.4-1.7-4.8-3.5-7.2-5.3
				c-0.7-0.5-0.8-1.5-0.3-2.2c0,0,0,0,0,0c0.5-0.7,1.5-0.8,2.2-0.3c2.4,1.8,4.8,3.6,7.2,5.3c0.7,0.5,0.9,1.5,0.4,2.2
				C122.6,155.8,122.1,156.1,121.6,156.1L121.6,156.1z M107.2,145.4c-0.4,0-0.7-0.1-1-0.3c-2.3-1.8-4.7-3.7-7.1-5.6
				c-0.7-0.6-0.8-1.5-0.2-2.2c0.5-0.7,1.5-0.8,2.2-0.3c0,0,0,0,0,0c2.3,1.9,4.7,3.7,7,5.5c0.7,0.5,0.8,1.5,0.3,2.2c0,0,0,0,0,0
				C108.2,145.1,107.7,145.4,107.2,145.4L107.2,145.4z M213.7,141.8c-0.5,0-1-0.2-1.3-0.6c-1.7-2.3-3.6-4.6-5.5-7
				c-0.5-0.7-0.4-1.7,0.2-2.2c0.7-0.6,1.7-0.4,2.2,0.2c0,0,0,0,0,0c1.9,2.4,3.8,4.8,5.5,7.1c0.5,0.7,0.4,1.7-0.3,2.2
				C214.4,141.7,214,141.8,213.7,141.8L213.7,141.8z M92.2,133.7L92.2,133.7c-2.2-1.8-4.5-3.8-6.8-5.7c-0.7-0.6-0.7-1.6-0.2-2.2
				c0,0,0,0,0,0c0.6-0.7,1.6-0.7,2.2-0.2c0,0,0,0,0,0c2.2,1.9,4.5,3.8,6.8,5.7L92.2,133.7z M202.5,127.9c-0.5,0-0.9-0.2-1.2-0.6
				c-1.9-2.2-3.8-4.4-5.9-6.7c-0.6-0.7-0.5-1.7,0.1-2.2c0,0,0,0,0,0c0.7-0.6,1.7-0.5,2.2,0.1c2,2.3,4,4.5,5.9,6.8
				c0.6,0.7,0.5,1.7-0.2,2.2C203.2,127.7,202.8,127.9,202.5,127.9L202.5,127.9z M79.7,122.5c-0.4,0-0.8-0.1-1.1-0.4
				c-2.3-2-4.5-4-6.7-6c-0.6-0.6-0.7-1.6-0.1-2.2c0.6-0.6,1.6-0.7,2.2-0.1c2.2,2,4.4,4,6.6,6c0.7,0.6,0.7,1.6,0.1,2.2c0,0,0,0,0,0
				C80.6,122.3,80.1,122.5,79.7,122.5L79.7,122.5z M190.5,114.5c-0.4,0-0.9-0.2-1.2-0.5c-2-2.1-4.1-4.3-6.2-6.4
				c-0.6-0.6-0.6-1.6,0-2.2c0,0,0,0,0,0c0.6-0.6,1.6-0.6,2.2,0c2.1,2.2,4.2,4.3,6.2,6.5c0.6,0.6,0.6,1.6-0.1,2.2c0,0,0,0,0,0
				C191.3,114.4,190.9,114.5,190.5,114.5L190.5,114.5z M66.5,110.4c-0.4,0-0.8-0.2-1.1-0.4c-2.2-2.1-4.4-4.2-6.5-6.2
				c-0.6-0.6-0.6-1.6,0-2.2c0.6-0.6,1.6-0.6,2.2,0c2.1,2.1,4.2,4.1,6.4,6.2c0.6,0.6,0.7,1.6,0.1,2.2c0,0,0,0,0,0
				C67.3,110.3,66.9,110.4,66.5,110.4L66.5,110.4z M178,101.7c-0.4,0-0.8-0.2-1.1-0.5c-2.1-2.1-4.2-4.1-6.4-6.2
				c-0.6-0.6-0.7-1.6-0.1-2.2c0,0,0,0,0,0c0.6-0.6,1.6-0.7,2.2-0.1c0,0,0,0,0,0c2.2,2.1,4.3,4.2,6.5,6.2c0.6,0.6,0.6,1.6,0,2.2
				C178.8,101.6,178.4,101.8,178,101.7L178,101.7z M53.7,97.9c-0.4,0-0.8-0.2-1.1-0.5c-2.1-2.2-4.2-4.3-6.2-6.5
				c-0.6-0.6-0.6-1.6,0.1-2.2c0,0,0,0,0,0c0.6-0.6,1.6-0.6,2.2,0.1c0,0,0,0,0,0c2,2.1,4.1,4.3,6.2,6.4c0.6,0.6,0.6,1.6,0,2.2
				C54.6,97.7,54.2,97.9,53.7,97.9L53.7,97.9z M165,89.4c-0.4,0-0.8-0.1-1.1-0.4c-2.2-2-4.4-4-6.6-6c-0.7-0.6-0.7-1.6-0.1-2.2
				c0,0,0,0,0,0c0.6-0.7,1.6-0.7,2.2-0.2c0,0,0,0,0,0c2.3,2,4.5,4,6.7,6c0.6,0.6,0.7,1.6,0.1,2.2C165.9,89.3,165.5,89.4,165,89.4
				L165,89.4z M41.5,84.8c-0.5,0-0.9-0.2-1.2-0.5c-2-2.3-4-4.5-5.9-6.8c-0.6-0.7-0.5-1.7,0.2-2.2c0.7-0.6,1.7-0.5,2.2,0.2
				c1.9,2.2,3.8,4.4,5.9,6.7c0.6,0.7,0.5,1.7-0.1,2.2c0,0,0,0,0,0C42.3,84.7,41.9,84.8,41.5,84.8L41.5,84.8z M151.6,77.6
				c-0.4,0-0.7-0.1-1-0.4c-2.2-1.9-4.5-3.8-6.8-5.7l1.9-2.5l0.1,0.1c2.3,1.9,4.6,3.8,6.8,5.7c0.7,0.6,0.7,1.6,0.2,2.2c0,0,0,0,0,0
				C152.5,77.4,152.1,77.6,151.6,77.6L151.6,77.6z M29.9,71.2c-0.5,0-0.9-0.2-1.2-0.6c-1.9-2.4-3.8-4.8-5.5-7.1
				c-0.5-0.7-0.4-1.7,0.3-2.2c0.7-0.5,1.7-0.4,2.2,0.3c0,0,0,0,0,0c1.7,2.3,3.6,4.6,5.5,7c0.5,0.7,0.4,1.7-0.2,2.2
				C30.6,71.1,30.2,71.2,29.9,71.2L29.9,71.2z M137.8,66.2c-0.4,0-0.7-0.1-1-0.3c-2.3-1.9-4.7-3.7-7-5.5c-0.7-0.5-0.8-1.5-0.3-2.2
				c0,0,0,0,0,0c0.5-0.7,1.5-0.8,2.2-0.3c0,0,0,0,0,0c2.3,1.8,4.7,3.7,7.1,5.6c0.7,0.6,0.8,1.5,0.2,2.2
				C138.8,66,138.3,66.2,137.8,66.2L137.8,66.2z M19.1,56.9c-0.5,0-1-0.3-1.3-0.7c-1.8-2.6-3.5-5.1-5-7.5c-0.5-0.7-0.2-1.7,0.5-2.2
				c0.7-0.5,1.7-0.2,2.2,0.5c1.5,2.4,3.1,4.9,4.9,7.4c0.5,0.7,0.3,1.7-0.4,2.2C19.8,56.8,19.4,56.9,19.1,56.9L19.1,56.9z
				 M123.7,55.2c-0.3,0-0.7-0.1-1-0.3c-2.4-1.8-4.8-3.6-7.2-5.3c-0.7-0.5-0.9-1.5-0.4-2.2c0.5-0.7,1.5-0.9,2.2-0.4
				c2.4,1.7,4.8,3.5,7.2,5.3c0.7,0.5,0.8,1.5,0.3,2.2C124.7,55,124.2,55.2,123.7,55.2L123.7,55.2z M109.2,44.7
				c-0.3,0-0.6-0.1-0.9-0.3c-2.5-1.7-4.9-3.4-7.4-5c-0.7-0.5-0.9-1.5-0.4-2.2c0.5-0.7,1.5-0.9,2.2-0.4c2.5,1.6,4.9,3.3,7.4,5
				c0.7,0.5,0.9,1.5,0.4,2.2C110.2,44.5,109.7,44.7,109.2,44.7L109.2,44.7z M9.7,41.7c-0.6,0-1.1-0.3-1.4-0.8
				c-1.5-2.8-2.9-5.6-4-8.2c-0.3-0.8,0-1.7,0.8-2.1c0.8-0.3,1.7,0,2.1,0.8c0,0,0,0,0,0c1.1,2.5,2.4,5.2,3.9,7.9
				c0.4,0.8,0.1,1.7-0.6,2.2C10.2,41.7,9.9,41.7,9.7,41.7L9.7,41.7z M94.3,34.8c-0.3,0-0.6-0.1-0.9-0.2c-2.6-1.6-5.1-3.2-7.6-4.7
				c-0.8-0.5-1-1.4-0.5-2.2c0.5-0.8,1.4-1,2.2-0.5c0,0,0,0,0,0c2.5,1.5,5.1,3.1,7.6,4.7c0.7,0.5,1,1.4,0.5,2.2c0,0,0,0,0,0
				C95.3,34.6,94.8,34.8,94.3,34.8L94.3,34.8z M79,25.6c-0.3,0-0.5-0.1-0.8-0.2c-2.6-1.5-5.2-2.9-7.8-4.3c-0.8-0.4-1.1-1.4-0.7-2.1
				c0,0,0,0,0,0c0.4-0.8,1.4-1.1,2.1-0.7c0,0,0,0,0,0c2.6,1.4,5.2,2.8,7.9,4.4c0.8,0.4,1,1.4,0.6,2.2C80,25.3,79.5,25.6,79,25.6
				L79,25.6z M2.8,25.3c-0.7,0-1.3-0.5-1.5-1.2c-0.8-2.7-1.2-5.6-1.2-8.4l0-0.9c0-0.8,0.7-1.5,1.5-1.5c0,0,0.1,0,0.1,0
				c0.9,0,1.6,0.8,1.5,1.6c0,0,0,0,0,0l0,0.8c0,2.6,0.4,5.1,1.1,7.6C4.5,24.1,4,25,3.2,25.2c0,0,0,0,0,0C3,25.3,2.9,25.3,2.8,25.3
				L2.8,25.3z M63.2,17.1c-0.2,0-0.5-0.1-0.7-0.2c-2.7-1.4-5.4-2.6-8-3.8c-0.8-0.4-1.2-1.3-0.8-2.1c0,0,0,0,0,0
				c0.4-0.8,1.3-1.2,2.1-0.8c2.7,1.2,5.4,2.5,8.2,3.8c0.8,0.4,1.1,1.3,0.7,2.1c0,0,0,0,0,0C64.3,16.8,63.8,17.1,63.2,17.1L63.2,17.1
				z M46.8,9.9c-0.2,0-0.4,0-0.6-0.1c-2.9-1.1-5.7-2.1-8.3-3c-0.8-0.3-1.3-1.2-1-2c0,0,0,0,0,0c0.3-0.8,1.1-1.3,2-1c0,0,0,0,0,0
				c2.7,0.9,5.6,1.9,8.5,3c0.8,0.3,1.2,1.2,0.9,2.1C48.1,9.5,47.5,9.9,46.8,9.9z M4.4,8.1c-0.4,0-0.7-0.1-1-0.3
				C2.8,7.2,2.7,6.3,3.2,5.6c0.1-0.1,0.1-0.2,0.2-0.2c2.2-2.5,5.1-4.1,8.3-4.8c0.9-0.2,1.7,0.3,1.9,1.2c0.2,0.9-0.3,1.7-1.2,1.9
				C9.8,4.2,7.5,5.5,5.7,7.5C5.4,7.9,4.9,8.1,4.4,8.1L4.4,8.1z M29.8,4.5c-0.1,0-0.2,0-0.3,0c-2.8-0.6-5.7-1.1-8.6-1.3
				c-0.9-0.1-1.5-0.8-1.5-1.7c0-0.9,0.8-1.5,1.6-1.5c0,0,0,0,0.1,0c3.1,0.2,6.1,0.7,9.1,1.4c0.9,0.2,1.4,1,1.2,1.9
				C31.2,4,30.5,4.5,29.8,4.5L29.8,4.5z"/>
		</g>
		<g id="Grupo_64278" transform="translate(0 67.018)">
			<path id="Trazado_110827" class="st14" d="M29.1,149.8c-0.9,0-1.8,0-2.7,0c-0.9,0-1.6-0.8-1.5-1.6c0,0,0,0,0,0
				c0.1-0.9,0.8-1.5,1.6-1.5c2.7,0.1,5.7,0,8.8-0.2c0.9-0.1,1.6,0.6,1.7,1.5c0.1,0.9-0.6,1.6-1.5,1.7
				C33.3,149.8,31.2,149.8,29.1,149.8z M17.6,148.9c-0.1,0-0.2,0-0.3,0c-3.1-0.5-6.1-1.5-8.9-2.8c-0.8-0.4-1.1-1.4-0.7-2.1
				c0.4-0.8,1.4-1.1,2.1-0.7c0,0,0,0,0,0c2.5,1.2,5.3,2.1,8.1,2.5c0.9,0.2,1.4,1,1.3,1.8C19,148.4,18.3,148.9,17.6,148.9L17.6,148.9
				z M44.3,148.8c-0.8,0-1.5-0.6-1.6-1.4c-0.1-0.9,0.5-1.7,1.4-1.8c2.8-0.3,5.7-0.8,8.8-1.3c0.8-0.2,1.7,0.4,1.8,1.2c0,0,0,0,0,0.1
				c0.2,0.9-0.4,1.7-1.3,1.8c0,0,0,0,0,0c-3.1,0.5-6.1,1-8.9,1.3C44.4,148.8,44.4,148.8,44.3,148.8L44.3,148.8z M62,145.8
				c-0.7,0-1.4-0.5-1.6-1.3c-0.2-0.9,0.4-1.7,1.2-1.9c0,0,0,0,0,0c2.8-0.6,5.7-1.3,8.7-2c0.9-0.2,1.7,0.3,1.9,1.2
				c0.2,0.8-0.3,1.7-1.2,1.9c0,0,0,0,0,0c-3,0.7-5.9,1.4-8.8,2C62.2,145.8,62.1,145.8,62,145.8L62,145.8z M79.3,141.5
				c-0.7,0-1.3-0.5-1.5-1.2c-0.2-0.8,0.3-1.7,1.1-2c2.8-0.8,5.7-1.6,8.6-2.5c0.8-0.3,1.7,0.2,2,1c0,0,0,0,0,0c0.3,0.8-0.2,1.7-1.1,2
				c-2.9,0.9-5.8,1.7-8.6,2.5C79.6,141.5,79.5,141.5,79.3,141.5L79.3,141.5z M2.7,140.1c-0.6,0-1.1-0.3-1.4-0.8l0-0.1
				c-0.9-1.9-1.3-3.9-1.3-5.9c0-1.3,0.1-2.5,0.4-3.8c0.2-0.9,1-1.4,1.9-1.2c0,0,0,0,0,0c0.9,0.2,1.4,1,1.2,1.9
				c-0.2,1-0.3,2.1-0.3,3.1c0,1.6,0.3,3.1,1,4.5c0.4,0.8,0.1,1.7-0.7,2.1C3.2,140.1,2.9,140.1,2.7,140.1L2.7,140.1z M96.5,136.4
				c-0.7,0-1.3-0.4-1.5-1.1c-0.3-0.8,0.2-1.7,1-2c2.8-0.9,5.6-1.9,8.4-2.9c0.8-0.3,1.7,0.1,2,1c0,0,0,0,0,0c0.3,0.8-0.1,1.7-1,2
				c0,0,0,0,0,0c-2.9,1-5.7,2-8.5,2.9C96.8,136.3,96.6,136.4,96.5,136.4L96.5,136.4z M113.3,130.5c-0.7,0-1.3-0.4-1.5-1
				c-0.3-0.8,0.1-1.7,0.9-2c2.8-1,5.5-2.1,8.3-3.2c0.8-0.3,1.7,0.1,2.1,0.9c0.3,0.8-0.1,1.7-0.9,2.1c-2.8,1.1-5.6,2.2-8.4,3.2
				C113.7,130.4,113.5,130.5,113.3,130.5L113.3,130.5z M130,123.9c-0.6,0-1.2-0.4-1.5-1c-0.3-0.8,0-1.7,0.9-2.1c0,0,0,0,0,0
				c2.7-1.1,5.5-2.3,8.2-3.5c0.8-0.3,1.7,0,2.1,0.8c0.3,0.8,0,1.7-0.8,2.1c0,0,0,0,0,0c-2.8,1.2-5.5,2.4-8.3,3.5
				C130.4,123.9,130.2,123.9,130,123.9L130,123.9z M5.2,123.1c-0.3,0-0.5-0.1-0.8-0.2c-0.8-0.4-1-1.4-0.6-2.2
				c1.5-2.7,3.2-5.2,5.1-7.6c0.5-0.7,1.5-0.8,2.2-0.3c0.7,0.5,0.8,1.5,0.3,2.2c0,0,0,0,0,0c-1.8,2.3-3.4,4.7-4.8,7.2
				C6.3,122.8,5.8,123.1,5.2,123.1L5.2,123.1z M146.4,116.8c-0.6,0-1.2-0.4-1.4-0.9c-0.4-0.8,0-1.7,0.8-2.1c0,0,0,0,0,0
				c2.5-1.2,5.1-2.3,7.7-3.5l0.1-0.1l0.6-0.2c0.8-0.3,1.7,0.2,2,1c0,0,0,0,0,0c0.2,0.5,0.1,1.1-0.3,1.6l-0.1,0.2l-0.4,0.2
				c-2.7,1.3-5.4,2.5-8.1,3.8C146.9,116.7,146.6,116.8,146.4,116.8L146.4,116.8z M162.6,109.1c-0.6,0-1.2-0.3-1.4-0.9
				c-0.4-0.8-0.1-1.7,0.7-2.1c2.7-1.3,5.3-2.7,8-4c0.8-0.4,1.7-0.1,2.1,0.7c0.4,0.8,0.1,1.7-0.7,2.1c-2.6,1.4-5.3,2.7-8,4
				C163.1,109.1,162.8,109.2,162.6,109.1L162.6,109.1z M15.9,108.9c-0.4,0-0.8-0.1-1.1-0.4c-0.6-0.6-0.7-1.6-0.1-2.2c0,0,0,0,0,0
				c1.9-2.1,4.1-4.3,6.4-6.4c0.6-0.6,1.6-0.6,2.2,0.1c0,0,0,0,0,0c0.6,0.6,0.6,1.6-0.1,2.2c-2.2,2.1-4.3,4.2-6.2,6.3
				C16.8,108.7,16.4,108.9,15.9,108.9L15.9,108.9z M178.5,101c-0.6,0-1.1-0.3-1.4-0.8c-0.4-0.8-0.1-1.7,0.7-2.1c0,0,0,0,0,0
				c2.6-1.4,5.3-2.8,7.8-4.3c0.8-0.4,1.7-0.2,2.2,0.6c0.4,0.8,0.2,1.7-0.6,2.2c-2.6,1.4-5.2,2.9-7.9,4.3
				C179,100.9,178.8,101,178.5,101L178.5,101z M28.9,96.5c-0.5,0-0.9-0.2-1.2-0.5c-0.6-0.7-0.5-1.7,0.2-2.2c0,0,0,0,0,0
				c2.2-1.9,4.5-3.8,6.9-5.8c0.7-0.5,1.7-0.4,2.2,0.2c0.5,0.7,0.4,1.7-0.2,2.2c-2.4,1.9-4.7,3.8-6.8,5.7
				C29.6,96.4,29.2,96.5,28.9,96.5L28.9,96.5z M194.2,92.3c-0.6,0-1.1-0.3-1.4-0.8c-0.4-0.8-0.2-1.7,0.6-2.2c2.6-1.5,5.2-3,7.7-4.6
				c0.7-0.5,1.7-0.2,2.2,0.5c0,0,0,0,0,0c0.5,0.7,0.2,1.7-0.5,2.2c0,0,0,0,0,0c-2.5,1.5-5.1,3.1-7.7,4.6
				C194.7,92.2,194.4,92.3,194.2,92.3L194.2,92.3z M42.8,85.3c-0.5,0-1-0.2-1.3-0.6C41,84,41.2,83,41.9,82.5
				c2.3-1.8,4.8-3.5,7.3-5.3c0.7-0.5,1.7-0.3,2.2,0.4c0.5,0.7,0.3,1.7-0.4,2.2c-2.5,1.7-4.9,3.5-7.2,5.2
				C43.5,85.2,43.2,85.3,42.8,85.3L42.8,85.3z M209.4,83c-0.5,0-1-0.3-1.3-0.7c-0.5-0.7-0.2-1.7,0.5-2.2c2.5-1.6,5-3.2,7.5-4.9
				c0.7-0.5,1.7-0.3,2.2,0.4c0,0,0,0,0,0c0.5,0.7,0.3,1.7-0.4,2.2c0,0,0,0,0,0c-2.4,1.6-5,3.3-7.5,4.9C210,82.9,209.7,83,209.4,83
				L209.4,83z M57.4,75c-0.5,0-1-0.3-1.3-0.7c-0.5-0.7-0.3-1.7,0.4-2.2c0,0,0,0,0,0c2.4-1.6,4.9-3.3,7.5-4.9
				c0.7-0.5,1.7-0.3,2.2,0.5c0,0,0,0,0,0c0.5,0.7,0.3,1.7-0.5,2.2c0,0,0,0,0,0c-2.5,1.6-5,3.2-7.5,4.9C58.1,74.9,57.8,75,57.4,75
				L57.4,75z M224.3,73c-0.5,0-1-0.2-1.3-0.7c-0.5-0.7-0.3-1.7,0.4-2.2c2.5-1.7,4.9-3.5,7.2-5.2c0.7-0.5,1.7-0.4,2.2,0.3
				c0.5,0.7,0.4,1.7-0.3,2.2c-2.3,1.8-4.8,3.5-7.3,5.3C225,72.9,224.6,73,224.3,73L224.3,73z M72.5,65.4c-0.6,0-1.1-0.3-1.4-0.8
				c-0.5-0.7-0.2-1.7,0.5-2.2c0,0,0,0,0,0c2.5-1.5,5.1-3.1,7.7-4.6c0.8-0.4,1.7-0.2,2.2,0.6c0,0,0,0,0,0c0.4,0.8,0.2,1.7-0.6,2.2
				c-2.6,1.5-5.2,3-7.7,4.6C73.1,65.3,72.8,65.4,72.5,65.4L72.5,65.4z M238.6,62.3c-0.5,0-0.9-0.2-1.2-0.6c-0.5-0.7-0.4-1.7,0.2-2.2
				c0,0,0,0,0,0c2.4-1.9,4.7-3.8,6.8-5.7c0.7-0.6,1.6-0.5,2.2,0.1c0,0,0,0,0,0c0.6,0.7,0.5,1.7-0.2,2.2c0,0,0,0,0,0
				c-2.2,1.9-4.5,3.8-6.9,5.8C239.4,62.2,239,62.3,238.6,62.3L238.6,62.3z M88,56.4c-0.6,0-1.1-0.3-1.4-0.8
				c-0.4-0.8-0.2-1.7,0.6-2.2c2.6-1.4,5.2-2.9,7.9-4.3c0.8-0.4,1.7-0.1,2.1,0.6c0,0,0,0,0,0c0.4,0.8,0.1,1.7-0.6,2.1
				c-2.6,1.4-5.3,2.8-7.8,4.3C88.5,56.3,88.3,56.4,88,56.4L88,56.4z M252.2,50.6c-0.4,0-0.9-0.2-1.2-0.5c-0.6-0.6-0.6-1.6,0.1-2.2
				c2.2-2.1,4.3-4.2,6.2-6.3c0.6-0.6,1.6-0.7,2.2-0.1c0,0,0,0,0,0c0.6,0.6,0.7,1.6,0.1,2.2c0,0,0,0,0,0c-1.9,2.1-4.1,4.3-6.4,6.4
				C253,50.4,252.6,50.6,252.2,50.6L252.2,50.6z M103.8,47.9c-0.6,0-1.1-0.3-1.4-0.9c-0.4-0.8-0.1-1.7,0.7-2.1c2.6-1.4,5.3-2.7,8-4
				c0.8-0.4,1.7-0.1,2.1,0.7c0,0,0,0,0,0c0.4,0.8,0.1,1.7-0.7,2.1c-2.7,1.3-5.3,2.7-8,4C104.3,47.9,104,47.9,103.8,47.9L103.8,47.9z
				 M120.6,39.8l-0.8-1.4l-0.6-1.5c2.7-1.3,5.4-2.5,8.1-3.7c0.8-0.4,1.7,0,2.1,0.8c0,0,0,0,0,0c0.4,0.8,0,1.7-0.8,2.1c0,0,0,0,0,0
				C126,37.3,123.3,38.5,120.6,39.8L120.6,39.8z M264.3,37.4c-0.3,0-0.7-0.1-1-0.3c-0.7-0.5-0.8-1.5-0.3-2.2c0,0,0,0,0,0
				c1.8-2.3,3.4-4.7,4.8-7.2c0.4-0.8,1.4-1,2.1-0.6c0,0,0,0,0,0c0.8,0.4,1,1.4,0.6,2.2c-1.5,2.7-3.2,5.2-5.1,7.6
				C265.2,37.2,264.7,37.4,264.3,37.4L264.3,37.4z M136.1,32.6c-0.6,0-1.2-0.4-1.5-1c-0.3-0.8,0-1.7,0.8-2.1c0,0,0,0,0,0
				c2.8-1.2,5.5-2.4,8.3-3.5c0.8-0.3,1.7,0,2.1,0.8c0,0,0,0,0,0c0.3,0.8,0,1.7-0.9,2.1c0,0,0,0,0,0c-2.7,1.1-5.5,2.3-8.2,3.5
				C136.6,32.6,136.4,32.6,136.1,32.6L136.1,32.6z M152.7,25.8c-0.7,0-1.2-0.4-1.5-1c-0.3-0.8,0.1-1.7,0.9-2c0,0,0,0,0,0
				c2.8-1.1,5.6-2.2,8.4-3.2c0.8-0.3,1.7,0.1,2,0.9c0.3,0.8-0.1,1.7-0.9,2c-2.8,1-5.5,2.1-8.3,3.2C153.1,25.8,152.9,25.8,152.7,25.8
				L152.7,25.8z M272.5,21.7c-0.1,0-0.2,0-0.3,0c-0.9-0.2-1.4-1-1.2-1.9c0.2-1,0.4-2.1,0.4-3.2c0-1.6-0.3-3.1-1-4.5
				c-0.4-0.8-0.1-1.8,0.7-2.2c0.7-0.4,1.6-0.1,2,0.6c0,0,0,0,0,0.1c0,0,0.1,0.2,0.1,0.2c0.9,1.8,1.3,3.9,1.3,5.9
				c0,1.3-0.1,2.6-0.4,3.8C273.9,21.2,273.2,21.7,272.5,21.7L272.5,21.7z M169.4,19.5c-0.7,0-1.3-0.4-1.5-1.1c-0.3-0.8,0.1-1.7,1-2
				c0,0,0,0,0,0c2.9-1,5.7-2,8.5-2.9c0.8-0.3,1.7,0.2,2,1c0.3,0.8-0.2,1.7-1,2c-2.8,0.9-5.6,1.9-8.4,2.9
				C169.8,19.5,169.6,19.5,169.4,19.5L169.4,19.5z M186.5,14c-0.7,0-1.3-0.5-1.5-1.1c-0.3-0.8,0.2-1.7,1.1-2
				c2.9-0.9,5.8-1.7,8.6-2.5c0.8-0.2,1.7,0.3,2,1.1c0,0,0,0,0,0c0.2,0.8-0.3,1.7-1.1,2c-2.8,0.8-5.7,1.6-8.6,2.5
				C186.8,14,186.6,14,186.5,14L186.5,14z M203.7,9.2c-0.7,0-1.4-0.5-1.5-1.2c-0.2-0.9,0.3-1.7,1.2-1.9c3-0.7,5.9-1.4,8.8-2
				c0.9-0.2,1.7,0.4,1.9,1.2c0,0,0,0,0,0c0.2,0.9-0.4,1.7-1.2,1.9c-2.8,0.6-5.7,1.3-8.7,2C204,9.2,203.8,9.2,203.7,9.2L203.7,9.2z
				 M265.3,6.7c-0.2,0-0.5-0.1-0.7-0.2c-2.6-1.2-5.3-2.1-8.1-2.5c-0.9-0.2-1.4-1-1.3-1.8c0,0,0,0,0,0c0.2-0.9,1-1.4,1.8-1.3
				c0,0,0,0,0,0c3.1,0.5,6.1,1.5,8.9,2.8c0.8,0.4,1.1,1.4,0.7,2.1C266.5,6.4,265.9,6.7,265.3,6.7L265.3,6.7z M221.2,5.5
				c-0.8,0-1.4-0.6-1.6-1.3c-0.2-0.9,0.4-1.7,1.3-1.8c0,0,0,0,0,0c3.1-0.5,6.1-1,8.9-1.3c0.9-0.1,1.6,0.5,1.8,1.3c0,0,0,0,0,0.1
				c0.1,0.9-0.5,1.7-1.4,1.8c-2.8,0.3-5.7,0.8-8.8,1.3C221.4,5.5,221.3,5.5,221.2,5.5L221.2,5.5z M239,3.4c-0.8,0-1.5-0.7-1.6-1.5
				c-0.1-0.9,0.6-1.6,1.5-1.7c0,0,0,0,0,0c3.2-0.2,6.3-0.2,9.1-0.2c0.9,0,1.6,0.8,1.5,1.6c0,0,0,0,0,0c0,0.9-0.7,1.5-1.6,1.5h0
				C245.1,3.1,242.2,3.2,239,3.4L239,3.4z"/>
		</g>
		<g id="Grupo_64279" transform="translate(73.078)">
			<path id="Trazado_110828" class="st14" d="M14.1,283.7l0.6-1.5L14.1,283.7c-3.1-1.2-5.8-3.4-7.5-6.2c-0.5-0.7-0.3-1.7,0.4-2.2
				c0.7-0.5,1.7-0.3,2.2,0.4c1.4,2.2,3.4,4,5.9,4.9L14.1,283.7z M23.4,283.6c-0.7,0-1.3-0.4-1.5-1.1c-0.3-0.8,0.2-1.7,1-2
				c2.7-0.9,5.2-2.3,7.5-3.9c0.7-0.5,1.7-0.3,2.2,0.4c0.5,0.7,0.3,1.7-0.4,2.2c0,0,0,0,0,0c-2.5,1.8-5.3,3.3-8.3,4.3
				C23.7,283.6,23.6,283.6,23.4,283.6L23.4,283.6z M38.2,273.8c-0.4,0-0.9-0.2-1.2-0.5c-0.6-0.6-0.6-1.6,0.1-2.2c0,0,0,0,0,0
				c2-1.9,4-4,6.1-6.4c0.6-0.7,1.6-0.7,2.2-0.1c0.7,0.6,0.7,1.6,0.1,2.2c-2.1,2.4-4.2,4.6-6.3,6.6C39,273.6,38.6,273.8,38.2,273.8
				L38.2,273.8z M4.3,270.1c-0.7,0-1.3-0.5-1.5-1.1c-0.8-2.9-1.5-6-1.9-9c-0.1-0.9,0.5-1.7,1.4-1.8c0.9-0.1,1.7,0.5,1.8,1.4
				c0.4,2.9,1,5.7,1.8,8.5c0.2,0.8-0.2,1.7-1.1,2c0,0,0,0,0,0C4.6,270.1,4.4,270.1,4.3,270.1L4.3,270.1z M50,260.4
				c-0.4,0-0.7-0.1-1-0.3c-0.7-0.5-0.8-1.5-0.3-2.2c0,0,0,0,0,0c1.7-2.2,3.5-4.6,5.3-7.2c0.5-0.7,1.5-0.9,2.2-0.4
				c0.7,0.5,0.9,1.5,0.4,2.2c-1.8,2.6-3.6,5-5.3,7.3C51,260.2,50.5,260.4,50,260.4z M1.7,252.4c-0.8,0-1.5-0.7-1.6-1.5
				C0,249,0,247.1,0,245.1c0-1,0-2.1,0-3.2c0-0.9,0.7-1.6,1.6-1.6h0c0.9,0,1.6,0.7,1.6,1.6c0,1.1,0,2.1,0,3.1c0,2,0,3.9,0.1,5.7
				C3.3,251.7,2.7,252.4,1.7,252.4C1.8,252.4,1.8,252.4,1.7,252.4L1.7,252.4z M60.3,245.8c-0.3,0-0.6-0.1-0.9-0.3
				c-0.7-0.5-0.9-1.5-0.5-2.2c0,0,0,0,0,0c1.6-2.4,3.1-4.9,4.7-7.6c0.4-0.8,1.4-1,2.2-0.5c0.8,0.4,1,1.4,0.5,2.2c0,0,0,0,0,0
				c-1.6,2.6-3.2,5.2-4.7,7.6C61.4,245.5,60.9,245.8,60.3,245.8L60.3,245.8z M2,234.6H1.9c-0.9-0.1-1.5-0.8-1.5-1.7
				c0.2-2.9,0.5-5.9,0.8-9c0.1-0.8,0.8-1.5,1.7-1.4c0,0,0.1,0,0.1,0c0.9,0.1,1.5,0.9,1.4,1.7c0,0,0,0,0,0c-0.3,3-0.6,6-0.8,8.8
				C3.5,233.9,2.9,234.6,2,234.6L2,234.6z M69.5,230.4c-0.3,0-0.5-0.1-0.8-0.2c-0.8-0.4-1-1.4-0.6-2.2c0,0,0,0,0,0
				c1.4-2.5,2.8-5.1,4.3-7.8c0.4-0.8,1.4-1.1,2.1-0.7c0,0,0,0,0,0c0.8,0.4,1.1,1.4,0.7,2.1c-1.4,2.7-2.9,5.3-4.3,7.9
				C70.6,230.1,70.1,230.4,69.5,230.4L69.5,230.4z M3.9,216.8c-0.1,0-0.1,0-0.2,0c-0.9-0.1-1.5-0.9-1.3-1.8c0.4-2.9,0.9-5.9,1.4-8.9
				c0.1-0.8,0.9-1.4,1.7-1.3c0,0,0.1,0,0.1,0c0.9,0.1,1.4,1,1.3,1.8c0,0,0,0,0,0c-0.5,3-1,5.9-1.4,8.8
				C5.4,216.2,4.7,216.8,3.9,216.8L3.9,216.8z M77.9,214.6c-0.2,0-0.5-0.1-0.7-0.2c-0.8-0.4-1.1-1.3-0.7-2.1c0,0,0,0,0,0
				c1.3-2.6,2.6-5.3,3.9-8c0.4-0.8,1.3-1.1,2.1-0.8c0.8,0.4,1.1,1.3,0.8,2.1c-1.3,2.7-2.6,5.4-3.9,8.1
				C79.1,214.3,78.5,214.6,77.9,214.6L77.9,214.6z M6.9,199.1c-0.1,0-0.2,0-0.3,0c-0.9-0.2-1.4-1-1.3-1.9c0,0,0,0,0,0
				c0.6-2.9,1.2-5.8,1.8-8.8c0.2-0.8,1-1.4,1.9-1.2c0,0,0,0,0,0c0.9,0.2,1.4,1,1.2,1.9c-0.6,3-1.2,5.9-1.8,8.7
				C8.3,198.6,7.6,199.1,6.9,199.1L6.9,199.1z M85.6,198.5c-0.2,0-0.4,0-0.7-0.1c-0.8-0.4-1.2-1.3-0.8-2.1c0,0,0,0,0,0
				c1.2-2.7,2.4-5.4,3.6-8.2c0.3-0.8,1.3-1.2,2.1-0.8c0.8,0.3,1.2,1.3,0.8,2.1c0,0,0,0,0,0c-1.2,2.8-2.4,5.5-3.6,8.2
				C86.8,198.1,86.3,198.5,85.6,198.5L85.6,198.5z M92.7,182c-0.2,0-0.4,0-0.6-0.1c-0.8-0.3-1.2-1.3-0.9-2.1
				c1.1-2.7,2.2-5.5,3.3-8.3c0.3-0.8,1.2-1.2,2-0.9c0,0,0,0,0,0c0.8,0.3,1.2,1.2,0.9,2.1c-1.1,2.8-2.2,5.6-3.3,8.3
				C93.9,181.6,93.4,182,92.7,182L92.7,182z M10.7,181.6c-0.1,0-0.2,0-0.4,0c-0.9-0.2-1.4-1.1-1.2-1.9c0.7-2.9,1.4-5.8,2.2-8.7
				c0.2-0.8,1.1-1.4,1.9-1.1c0,0,0,0,0,0c0.8,0.2,1.4,1.1,1.1,1.9c-0.8,2.9-1.5,5.8-2.2,8.7C12,181.1,11.4,181.6,10.7,181.6
				L10.7,181.6z M99.2,165.4c-0.2,0-0.4,0-0.6-0.1c-0.8-0.3-1.2-1.2-0.9-2c1-2.8,2-5.5,3-8.3c0.4-0.8,1.3-1.2,2.2-0.8
				c0.8,0.3,1.1,1.2,0.8,1.9c0,0,0,0.1,0,0.1l0,0c-1,2.9-2,5.6-3,8.3C100.5,165,99.9,165.4,99.2,165.4L99.2,165.4z M15.2,164.3
				c-0.1,0-0.3,0-0.4-0.1c-0.8-0.2-1.3-1.1-1.1-2c0.8-2.9,1.6-5.7,2.5-8.6c0.2-0.8,1.1-1.3,1.9-1.1c0,0,0,0,0,0
				c0.8,0.3,1.3,1.1,1.1,2c0,0,0,0,0,0c-0.9,2.9-1.7,5.7-2.5,8.6C16.5,163.9,15.9,164.3,15.2,164.3L15.2,164.3z M105.2,148.5
				c-0.2,0-0.3,0-0.5-0.1c-0.8-0.3-1.3-1.2-1-2c0,0,0,0,0,0c1-2.8,1.9-5.7,2.8-8.5c0.3-0.8,1.2-1.3,2-1c0,0,0,0,0,0
				c0.8,0.3,1.3,1.2,1,2c-0.9,2.8-1.8,5.7-2.8,8.5C106.5,148.1,105.9,148.5,105.2,148.5L105.2,148.5z M20.3,147.2
				c-0.2,0-0.3,0-0.5-0.1c-0.8-0.3-1.3-1.2-1-2c0.9-2.8,1.8-5.7,2.8-8.5c0.3-0.8,1.2-1.3,2-1c0.8,0.3,1.3,1.2,1,2c0,0,0,0,0,0
				c-1,2.8-1.9,5.7-2.8,8.5C21.6,146.7,21,147.2,20.3,147.2L20.3,147.2z M110.6,131.4c-0.2,0-0.3,0-0.5-0.1c-0.8-0.3-1.3-1.1-1.1-2
				c0,0,0,0,0,0c0.9-2.9,1.7-5.7,2.5-8.6c0.2-0.8,1.1-1.3,1.9-1.1c0,0,0,0,0,0c0.8,0.2,1.3,1.1,1.1,2c0,0,0,0,0,0
				c-0.8,2.8-1.6,5.7-2.5,8.6C111.9,131,111.3,131.4,110.6,131.4L110.6,131.4z M26,130.1c-0.2,0-0.3,0-0.5-0.1
				c-0.8-0.2-1.3-1.1-1-1.9c0,0,0,0,0,0c0,0,0.1-0.2,0.1-0.2c1-2.7,2-5.5,3-8.2c0.3-0.8,1.2-1.2,2-0.9c0.8,0.3,1.2,1.2,0.9,2
				c-1,2.7-2,5.5-3,8.2C27.3,129.7,26.7,130.1,26,130.1L26,130.1z M115.4,114.2c-0.1,0-0.3,0-0.4,0c-0.8-0.2-1.4-1.1-1.1-1.9
				c0.8-2.9,1.5-5.8,2.2-8.6c0.2-0.8,1.1-1.4,1.9-1.2c0.9,0.2,1.4,1.1,1.2,1.9c-0.7,2.9-1.4,5.8-2.2,8.7
				C116.8,113.7,116.2,114.2,115.4,114.2L115.4,114.2z M32.2,113.4c-0.2,0-0.4,0-0.6-0.1c-0.8-0.3-1.2-1.2-0.9-2.1c0,0,0,0,0,0
				c1.1-2.8,2.2-5.6,3.3-8.3c0.3-0.8,1.3-1.2,2.1-0.9c0,0,0,0,0,0c0.8,0.3,1.2,1.2,0.9,2.1c0,0,0,0,0,0c-1.1,2.7-2.2,5.5-3.3,8.3
				C33.5,113,32.9,113.4,32.2,113.4L32.2,113.4z M39,96.9c-0.2,0-0.4,0-0.6-0.1c-0.8-0.3-1.2-1.3-0.8-2.1c0,0,0,0,0,0
				c1.2-2.8,2.4-5.5,3.6-8.2c0.4-0.8,1.3-1.2,2.1-0.8c0,0,0,0,0,0c0.8,0.4,1.2,1.3,0.8,2.1c0,0,0,0,0,0c-1.2,2.7-2.4,5.4-3.6,8.2
				C40.2,96.5,39.6,96.9,39,96.9L39,96.9z M119.6,96.8c-0.1,0-0.2,0-0.3,0c-0.9-0.2-1.4-1-1.2-1.9c0,0,0,0,0,0
				c0.6-3,1.2-5.9,1.8-8.7c0.2-0.9,1-1.4,1.8-1.3c0,0,0,0,0,0c0.9,0.2,1.4,1,1.3,1.9c0,0,0,0,0,0c-0.6,2.9-1.2,5.8-1.8,8.8
				C121,96.3,120.4,96.8,119.6,96.8L119.6,96.8z M46.4,80.6c-0.2,0-0.5-0.1-0.7-0.2c-0.8-0.4-1.1-1.3-0.8-2.1c0,0,0,0,0,0
				c1.3-2.7,2.6-5.4,3.9-8.1c0.4-0.8,1.3-1.1,2.1-0.7c0,0,0,0,0,0c0.8,0.4,1.1,1.3,0.7,2.1c0,0,0,0,0,0c-1.3,2.6-2.6,5.3-3.9,8
				C47.6,80.2,47,80.6,46.4,80.6L46.4,80.6z M123,79.2c-0.1,0-0.2,0-0.3,0c-0.9-0.1-1.4-1-1.3-1.8c0,0,0,0,0,0c0.5-3,1-5.9,1.4-8.8
				c0.1-0.9,0.9-1.5,1.8-1.4c0,0,0,0,0,0c0.9,0.1,1.5,0.9,1.4,1.8c-0.4,2.9-0.9,5.9-1.4,8.9C124.5,78.7,123.8,79.2,123,79.2
				L123,79.2z M54.4,64.6c-0.3,0-0.5-0.1-0.7-0.2C52.9,64,52.6,63,53,62.2c1.4-2.7,2.9-5.3,4.3-7.9c0.4-0.8,1.4-1,2.2-0.6
				c0,0,0,0,0,0c0.8,0.4,1,1.4,0.6,2.2c-1.4,2.5-2.8,5.2-4.3,7.8C55.5,64.3,55,64.6,54.4,64.6L54.4,64.6z M125.5,61.5
				c-0.1,0-0.1,0-0.2,0c-0.9-0.1-1.5-0.9-1.4-1.7c0,0,0,0,0,0c0.3-3,0.6-6,0.8-8.8c0.1-0.9,0.8-1.5,1.7-1.5c0.9,0.1,1.5,0.8,1.5,1.7
				c-0.2,2.9-0.5,5.9-0.8,9C127,60.9,126.3,61.5,125.5,61.5L125.5,61.5z M63.2,49c-0.3,0-0.6-0.1-0.8-0.2c-0.7-0.4-1-1.4-0.5-2.2
				c0,0,0,0,0,0c1.6-2.6,3.2-5.2,4.7-7.6c0.5-0.7,1.5-0.9,2.2-0.5c0.7,0.5,1,1.5,0.5,2.2c-1.6,2.4-3.1,4.9-4.7,7.6
				C64.3,48.7,63.8,49,63.2,49L63.2,49z M126.7,43.7L126.7,43.7c-0.9,0-1.6-0.7-1.6-1.6c0,0,0,0,0,0c0-1.1,0-2.2,0-3.2
				c0-1.9,0-3.8-0.1-5.6c0-0.9,0.6-1.6,1.5-1.7c0.8-0.1,1.6,0.5,1.6,1.4c0,0,0,0.1,0,0.1c0.1,1.9,0.1,3.8,0.1,5.8c0,1.1,0,2.2,0,3.3
				C128.3,43,127.6,43.7,126.7,43.7L126.7,43.7z M72.9,33.9c-0.3,0-0.6-0.1-0.9-0.3c-0.7-0.5-0.9-1.5-0.4-2.2c0,0,0,0,0,0
				c1.8-2.6,3.6-5,5.3-7.3c0.5-0.7,1.5-0.8,2.2-0.3c0,0,0,0,0,0c0.7,0.5,0.8,1.5,0.3,2.2c0,0,0,0,0,0c-1.7,2.2-3.5,4.6-5.2,7.1
				C73.9,33.7,73.4,33.9,72.9,33.9L72.9,33.9z M125.8,25.8c-0.8,0-1.5-0.6-1.6-1.4c-0.4-2.9-0.9-5.7-1.7-8.5c-0.2-0.8,0.2-1.7,1.1-2
				c0.8-0.2,1.7,0.2,2,1.1c0,0,0,0,0,0c0.8,3,1.4,6,1.8,9c0.1,0.9-0.5,1.7-1.4,1.8C126,25.8,125.9,25.8,125.8,25.8L125.8,25.8z
				 M83.9,19.8c-0.4,0-0.8-0.1-1-0.4c-0.7-0.6-0.7-1.6-0.2-2.2c0,0,0,0,0,0c2.1-2.4,4.2-4.6,6.3-6.6c0.6-0.6,1.6-0.6,2.2,0.1
				c0,0,0,0,0,0c0.6,0.6,0.6,1.6-0.1,2.2c-2,1.9-4,4-6.1,6.4C84.8,19.6,84.3,19.8,83.9,19.8z M120.5,8.9c-0.5,0-1-0.3-1.3-0.7
				c-1.4-2.3-3.5-4-5.9-5c-0.8-0.3-1.3-1.2-1.1-2c0.2-0.8,1-1.3,1.8-1.1c0,0,0,0,0.1,0l0.1,0c3.2,1.2,5.9,3.4,7.7,6.3
				c0.5,0.7,0.3,1.7-0.4,2.2c0,0,0,0,0,0C121.1,8.8,120.8,8.9,120.5,8.9L120.5,8.9z M96.9,7.6c-0.5,0-1-0.3-1.3-0.7
				c-0.5-0.7-0.3-1.7,0.4-2.2c0,0,0,0,0,0c2.5-1.8,5.3-3.3,8.3-4.4c0.8-0.3,1.7,0.2,2,1c0,0,0,0,0,0c0.3,0.8-0.2,1.7-1,2
				c0,0,0,0,0,0c-2.7,1-5.2,2.3-7.5,3.9C97.6,7.5,97.3,7.6,96.9,7.6L96.9,7.6z"/>
		</g>
		<g id="Grupo_64280" transform="translate(35.24 26.697)">
			
				<linearGradient id="Trazado_110829_1_" gradientUnits="userSpaceOnUse" x1="-85.8049" y1="702.8578" x2="-86.7429" y2="702.3938" gradientTransform="matrix(34.754 0 0 -34.7581 3013.7004 24440.3008)">
				<stop  offset="0" style="stop-color:#E5954A"/>
				<stop  offset="1" style="stop-color:#A9256E"/>
			</linearGradient>
			<path id="Trazado_110829" class="st15" d="M34.8,17.4c0,9.6-7.8,17.4-17.4,17.4C7.8,34.8,0,27,0,17.4C0,7.8,7.8,0,17.4,0h0
				C27,0,34.8,7.8,34.8,17.4z"/>
			<path id="Trazado_110830" class="st16" d="M28.3,26.2c-7,0-12.7-5.7-12.7-12.7c0-5.5,3.5-10.3,8.7-12c-2.2-1-4.5-1.4-6.9-1.4
				C7.8,0,0,7.8,0,17.4C0,27,7.8,34.8,17.4,34.8h0c6.5,0,12.5-3.6,15.4-9.4C31.4,25.9,29.9,26.2,28.3,26.2z"/>
		</g>
		<g id="Grupo_64281" transform="translate(223.765 49.365)">
			
				<linearGradient id="Trazado_110831_1_" gradientUnits="userSpaceOnUse" x1="-274.33" y1="680.1898" x2="-275.2681" y2="679.7258" gradientTransform="matrix(34.757 0 0 -34.7581 9566.5264 23652.4102)">
				<stop  offset="0" style="stop-color:#50EEEF"/>
				<stop  offset="1" style="stop-color:#68A2F4"/>
			</linearGradient>
			<path id="Trazado_110831" class="st17" d="M34.8,17.4c0,9.6-7.8,17.4-17.4,17.4c0,0,0,0,0,0C7.8,34.8,0,27,0,17.4
				C0,7.8,7.8,0,17.4,0c0,0,0,0,0,0C27,0,34.8,7.8,34.8,17.4z"/>
			
				<linearGradient id="Trazado_110832_1_" gradientUnits="userSpaceOnUse" x1="-275.1502" y1="679.9893" x2="-274.1502" y2="679.9893" gradientTransform="matrix(32.821 0 0 -34.7641 9030.7168 23656.5938)">
				<stop  offset="0" style="stop-color:#7D4CCA"/>
				<stop  offset="0.529" style="stop-color:#1B2AAB"/>
				<stop  offset="1" style="stop-color:#17256E"/>
			</linearGradient>
			<path id="Trazado_110832" class="st18" d="M28.3,26.2c-7,0-12.7-5.7-12.7-12.7c0-5.5,3.5-10.3,8.7-12c-2.2-1-4.5-1.4-6.9-1.4
				C7.8,0,0,7.8,0,17.4c0,0,0,0,0,0C0,27,7.8,34.8,17.4,34.8c0,0,0,0,0,0c6.5,0,12.5-3.6,15.4-9.4C31.4,25.9,29.9,26.2,28.3,26.2z"
				/>
		</g>
		<g id="Grupo_64282" transform="translate(110.815 234.759)">
			
				<linearGradient id="Trazado_110833_1_" gradientUnits="userSpaceOnUse" x1="-161.2041" y1="494.8727" x2="-161.9541" y2="494.5147" gradientTransform="matrix(34.758 0 0 -34.7581 5640.8823 17208.4688)">
				<stop  offset="0" style="stop-color:#FCBAAA"/>
				<stop  offset="0.971" style="stop-color:#ED6BCF"/>
			</linearGradient>
			<path id="Trazado_110833" class="st19" d="M34.8,17.4c0,9.6-7.8,17.4-17.4,17.4C7.8,34.8,0,27,0,17.4C0,7.8,7.8,0,17.4,0
				C27,0,34.8,7.8,34.8,17.4z"/>
			
				<linearGradient id="Trazado_110834_1_" gradientUnits="userSpaceOnUse" x1="-162.2005" y1="494.593" x2="-161.2005" y2="494.593" gradientTransform="matrix(32.827 0 0 -34.7582 5324.5552 17208.5312)">
				<stop  offset="0" style="stop-color:#FCBAAA"/>
				<stop  offset="0.971" style="stop-color:#9A6BCF"/>
			</linearGradient>
			<path id="Trazado_110834" class="st20" d="M28.3,26.2c-7,0-12.7-5.7-12.7-12.7c0-5.5,3.5-10.3,8.7-12c-2.2-1-4.5-1.4-6.9-1.4
				C7.8,0,0,7.8,0,17.4l0,0C0,27,7.8,34.8,17.4,34.8c6.5,0,12.5-3.6,15.4-9.4C31.4,25.9,29.9,26.2,28.3,26.2z"/>
		</g>
		<g id="Grupo_64283" transform="translate(135.111 141.056)">
			
				<linearGradient id="Trazado_110835_1_" gradientUnits="userSpaceOnUse" x1="-184.3041" y1="578.2638" x2="-185.0541" y2="577.9058" gradientTransform="matrix(19.48 0 0 -19.48 3611.4043 11268.8574)">
				<stop  offset="0" style="stop-color:#FCBAAA"/>
				<stop  offset="0.971" style="stop-color:#ED6BCF"/>
			</linearGradient>
			<path id="Trazado_110835" class="st21" d="M19.5,9.7c0,5.4-4.4,9.7-9.7,9.7h0C4.4,19.5,0,15.1,0,9.7l0,0C0,4.4,4.4,0,9.7,0
				c0,0,0,0,0,0C15.1,0,19.5,4.4,19.5,9.7z"/>
			
				<linearGradient id="Trazado_110836_1_" gradientUnits="userSpaceOnUse" x1="-185.2302" y1="577.9842" x2="-184.2302" y2="577.9842" gradientTransform="matrix(18.398 0 0 -19.4801 3407.865 11268.9336)">
				<stop  offset="0" style="stop-color:#FCBAAA"/>
				<stop  offset="0.971" style="stop-color:#9A6BCF"/>
			</linearGradient>
			<path id="Trazado_110836" class="st22" d="M15.9,14.7c-3.9,0-7.1-3.2-7.1-7.1c0-3.1,2-5.8,4.9-6.7C12.4,0.3,11.1,0,9.7,0
				C4.4,0,0,4.4,0,9.7c0,0,0,0,0,0c0,5.4,4.4,9.7,9.7,9.7l0,0c3.6,0,7-2,8.7-5.3C17.6,14.5,16.7,14.7,15.9,14.7z"/>
		</g>
		<g id="Grupo_64284" transform="translate(131.299 115.81)">
			
				<linearGradient id="Trazado_110837_1_" gradientUnits="userSpaceOnUse" x1="-180.4919" y1="603.5099" x2="-181.2419" y2="603.1519" gradientTransform="matrix(19.478 0 0 -19.48 3536.7847 11760.6875)">
				<stop  offset="0" style="stop-color:#FCBAAA"/>
				<stop  offset="0.971" style="stop-color:#ED6BCF"/>
			</linearGradient>
			<path id="Trazado_110837" class="st23" d="M19.5,9.7c0,5.4-4.4,9.7-9.7,9.7C4.4,19.5,0,15.1,0,9.7c0,0,0,0,0,0C0,4.4,4.4,0,9.7,0
				h0C15.1,0,19.5,4.4,19.5,9.7L19.5,9.7z"/>
			
				<linearGradient id="Trazado_110838_1_" gradientUnits="userSpaceOnUse" x1="-181.4179" y1="603.2301" x2="-180.4179" y2="603.2301" gradientTransform="matrix(18.396 0 0 -19.48 3337.3674 11760.6885)">
				<stop  offset="0" style="stop-color:#FCBAAA"/>
				<stop  offset="0.971" style="stop-color:#9A6BCF"/>
			</linearGradient>
			<path id="Trazado_110838" class="st24" d="M15.9,14.7c-3.9,0-7.1-3.2-7.1-7.1c0,0,0,0,0,0c0-3.1,2-5.8,4.9-6.7
				C12.4,0.3,11.1,0,9.7,0C4.4,0,0,4.4,0,9.7l0,0c0,5.4,4.4,9.7,9.7,9.7c3.6,0,7-2,8.7-5.3C17.6,14.5,16.7,14.7,15.9,14.7z"/>
		</g>
		<g id="Grupo_64285" transform="translate(116.169 144.142)">
			
				<linearGradient id="Trazado_110839_1_" gradientUnits="userSpaceOnUse" x1="-165.3622" y1="575.179" x2="-166.1122" y2="574.821" gradientTransform="matrix(19.48 0 0 -19.481 3242.4192 11209.3271)">
				<stop  offset="0" style="stop-color:#FCBAAA"/>
				<stop  offset="0.971" style="stop-color:#ED6BCF"/>
			</linearGradient>
			<path id="Trazado_110839" class="st25" d="M19.5,9.7c0,5.4-4.4,9.7-9.7,9.7c0,0,0,0,0,0C4.4,19.5,0,15.1,0,9.7c0,0,0,0,0,0
				C0,4.4,4.4,0,9.7,0c0,0,0,0,0,0C15.1,0,19.5,4.4,19.5,9.7z"/>
			
				<linearGradient id="Trazado_110840_1_" gradientUnits="userSpaceOnUse" x1="-166.2883" y1="574.8994" x2="-165.2883" y2="574.8994" gradientTransform="matrix(18.398 0 0 -19.4811 3059.374 11209.4014)">
				<stop  offset="0" style="stop-color:#FCBAAA"/>
				<stop  offset="0.971" style="stop-color:#9A6BCF"/>
			</linearGradient>
			<path id="Trazado_110840" class="st26" d="M15.9,14.7c-3.9,0-7.1-3.2-7.1-7.1c0-3.1,2-5.8,4.9-6.7C12.4,0.3,11.1,0,9.7,0
				C4.4,0,0,4.4,0,9.7c0,0,0,0,0,0c0,5.4,4.4,9.7,9.7,9.7c0,0,0,0,0,0c3.7,0,7-2,8.7-5.3C17.6,14.5,16.7,14.7,15.9,14.7z"/>
		</g>
	</g>
	<line id="Línea_319" class="st27" x1="-211" y1="1068.5" x2="-66.1" y2="1161.1"/>
	<line id="Línea_320" class="st27" x1="-223.9" y1="1051.8" x2="-87.8" y2="1051.8"/>
	<line id="Línea_321" class="st27" x1="-115.7" y1="991.5" x2="-69" y2="967.6"/>
</g>
</svg>
