<svg xmlns="http://www.w3.org/2000/svg" width="420" height="369.805" viewBox="0 0 420 369.805">
  <g id="Grupo_73037" data-name="Grupo 73037" transform="translate(-33.331 -79.822)">
    <g id="Grupo_72931" data-name="Grupo 72931" transform="translate(36.875 221.764)">
      <g id="Grupo_72918" data-name="Grupo 72918">
        <path id="Trazado_144365" data-name="Trazado 144365" d="M36.217,214.232l35.007-20.344-.038,13.486L36.179,227.719Z" transform="translate(-36.179 -193.888)" fill="#3c3d40"/>
      </g>
      <g id="Grupo_72919" data-name="Grupo 72919" transform="translate(0 13.486)">
        <path id="Trazado_144366" data-name="Trazado 144366" d="M36.179,225.07l35.007-20.344,15.856,9.155L52.035,234.225Z" transform="translate(-36.179 -204.726)" fill="#434448"/>
      </g>
      <g id="Grupo_72920" data-name="Grupo 72920" transform="translate(15.856 9.155)">
        <path id="Trazado_144367" data-name="Trazado 144367" d="M48.959,221.589l35.007-20.344-.038,13.486L48.921,235.075Z" transform="translate(-48.921 -201.245)" fill="#8c8b88"/>
      </g>
      <g id="Grupo_72921" data-name="Grupo 72921" transform="translate(0 20.344)">
        <path id="Trazado_144368" data-name="Trazado 144368" d="M83.786,237.7l-.038,13.486L99.6,260.342,36.179,223.723l.038-13.486-.038,13.486,15.856,9.155.038-13.486Z" transform="translate(-36.179 -210.237)" fill="#373a3d"/>
      </g>
      <g id="Grupo_72922" data-name="Grupo 72922" transform="translate(0 20.344)">
        <path id="Trazado_144369" data-name="Trazado 144369" d="M52.073,219.392l-.038,13.486-15.856-9.155.038-13.486Z" transform="translate(-36.179 -210.237)" fill="#6b6b68"/>
      </g>
      <g id="Grupo_72923" data-name="Grupo 72923" transform="translate(0.038)">
        <path id="Trazado_144370" data-name="Trazado 144370" d="M36.209,214.232l35.007-20.344,15.856,9.155L52.066,223.387Z" transform="translate(-36.209 -193.888)" fill="#a8a7a4"/>
      </g>
      <g id="Grupo_72924" data-name="Grupo 72924" transform="translate(47.569 27.464)">
        <path id="Trazado_144371" data-name="Trazado 144371" d="M74.444,236.3l35.007-20.344-.038,13.486L74.406,249.789Z" transform="translate(-74.406 -215.959)" fill="#3c3d40"/>
      </g>
      <g id="Grupo_72926" data-name="Grupo 72926" transform="translate(15.895 9.155)">
        <g id="Grupo_72925" data-name="Grupo 72925">
          <path id="Trazado_144372" data-name="Trazado 144372" d="M48.952,221.589l35.007-20.344,31.713,18.309L80.664,239.9Z" transform="translate(-48.952 -201.245)" fill="#494d50"/>
        </g>
      </g>
      <g id="Grupo_72927" data-name="Grupo 72927" transform="translate(47.569 40.95)">
        <path id="Trazado_144373" data-name="Trazado 144373" d="M74.406,247.14,109.413,226.8l15.856,9.155L90.262,256.3Z" transform="translate(-74.406 -226.796)" fill="#434448"/>
      </g>
      <g id="Grupo_72928" data-name="Grupo 72928" transform="translate(63.425 36.619)">
        <path id="Trazado_144374" data-name="Trazado 144374" d="M87.186,243.659l35.007-20.344-.038,13.486L87.148,257.146Z" transform="translate(-87.148 -223.316)" fill="#949390"/>
      </g>
      <g id="Grupo_72929" data-name="Grupo 72929" transform="translate(47.607 27.464)">
        <path id="Trazado_144375" data-name="Trazado 144375" d="M74.436,236.3l35.007-20.344,15.856,9.155L90.293,245.457Z" transform="translate(-74.436 -215.959)" fill="#a8a7a4"/>
      </g>
      <g id="Grupo_72930" data-name="Grupo 72930" transform="translate(47.569 47.808)">
        <path id="Trazado_144376" data-name="Trazado 144376" d="M90.3,241.462l-.038,13.486-15.856-9.155.038-13.486Z" transform="translate(-74.406 -232.307)" fill="#6b6b68"/>
      </g>
    </g>
    <g id="Grupo_72933" data-name="Grupo 72933" transform="translate(33.331 89.44)">
      <rect id="Rectángulo_32486" data-name="Rectángulo 32486" width="45.004" height="4.133" transform="translate(0 20.436)" fill="#231f20"/>
      <rect id="Rectángulo_32487" data-name="Rectángulo 32487" width="45.004" height="4.133" transform="translate(48.768 0) rotate(90)" fill="#231f20"/>
      <rect id="Rectángulo_32488" data-name="Rectángulo 32488" width="45.004" height="4.133" transform="translate(105.558 24.568) rotate(180)" fill="#231f20"/>
      <rect id="Rectángulo_32489" data-name="Rectángulo 32489" width="45.004" height="4.132" transform="translate(60.923 0) rotate(90)" fill="#231f20"/>
      <g id="Grupo_72932" data-name="Grupo 72932" transform="translate(43.03 55.025)">
        <path id="Trazado_144377" data-name="Trazado 144377" d="M85.25,154.267a14.667,14.667,0,0,1-6.04,1.086c-6.448,0-11.3-4.073-11.3-11.571,0-7.16,4.852-12.012,11.945-12.012a12.266,12.266,0,0,1,5.429,1.018l-.713,2.409a10.763,10.763,0,0,0-4.615-.949c-5.361,0-8.923,3.427-8.923,9.432,0,5.6,3.223,9.2,8.788,9.2a11.823,11.823,0,0,0,4.818-.949Z" transform="translate(-67.91 -131.77)" fill="#231f20"/>
      </g>
    </g>
    <g id="Grupo_72953" data-name="Grupo 72953" transform="translate(352.435 217.238)">
      <path id="Trazado_144378" data-name="Trazado 144378" d="M341.747,252.306l-1.314-.758.657-.357.864.722Z" transform="translate(-277.386 -175.359)" fill="#4b4d4f"/>
      <path id="Trazado_144379" data-name="Trazado 144379" d="M336.683,235.239l30.882-17.947-.079,27.905L336.6,263.144Z" transform="translate(-278.321 -183.643)" fill="#f5bd12"/>
      <path id="Trazado_144380" data-name="Trazado 144380" d="M289.831,208.2l30.882-17.947L379,223.9l-30.882,17.947Z" transform="translate(-289.752 -190.251)" fill="#ffc823"/>
      <path id="Trazado_144381" data-name="Trazado 144381" d="M348.129,238.323l-.079,27.9-58.282-33.649.079-27.9Z" transform="translate(-289.767 -186.727)" fill="#c3950e"/>
      <g id="Grupo_72938" data-name="Grupo 72938" transform="translate(63.844 52.051)">
        <g id="Grupo_72937" data-name="Grupo 72937" style="isolation: isolate">
          <g id="Grupo_72934" data-name="Grupo 72934" transform="translate(0 12.338)">
            <path id="Trazado_144382" data-name="Trazado 144382" d="M341.591,254.553l-.483-.28-.035-12.278.483.28Z" transform="translate(-341.073 -241.995)" fill="#5f6164"/>
          </g>
          <g id="Grupo_72935" data-name="Grupo 72935">
            <path id="Trazado_144383" data-name="Trazado 144383" d="M341.556,244.7l-.483-.28,21.37-12.338.483.28Z" transform="translate(-341.073 -232.08)" fill="#989da2"/>
          </g>
          <g id="Grupo_72936" data-name="Grupo 72936" transform="translate(0.483 0.28)">
            <path id="Trazado_144384" data-name="Trazado 144384" d="M362.831,232.305l.035,12.278L341.5,256.921l-.035-12.278Z" transform="translate(-341.461 -232.305)" fill="#a9adb4"/>
          </g>
        </g>
      </g>
      <path id="Trazado_144385" data-name="Trazado 144385" d="M289.8,217.323l0-1.364,58.282,33.649,0,1.361Z" transform="translate(-289.76 -183.969)" fill="#b2890c"/>
      <path id="Trazado_144386" data-name="Trazado 144386" d="M336.636,246.525l30.882-17.947,0,1.366-30.882,17.945Z" transform="translate(-278.314 -180.885)" fill="#e0ac10"/>
      <path id="Trazado_144387" data-name="Trazado 144387" d="M302.22,215.351,333.1,197.4l-9.478-5.472-30.88,17.948Z" transform="translate(-289.04 -189.841)" fill="#fe8427"/>
      <g id="Grupo_72952" data-name="Grupo 72952" transform="translate(25.943 17.746)">
        <g id="Grupo_72943" data-name="Grupo 72943" transform="translate(9.274 8.699)" style="isolation: isolate">
          <g id="Grupo_72939" data-name="Grupo 72939">
            <path id="Trazado_144388" data-name="Trazado 144388" d="M329.376,213.248a3.156,3.156,0,0,1-1.452,1.307l-4.446,2.583a6.9,6.9,0,0,1-2.341.913,3.273,3.273,0,0,1-2.174-.48q-1.12-.648-.839-1.254a3.821,3.821,0,0,1,1.575-1.36l4.446-2.583a6.162,6.162,0,0,1,2.239-.849,3.326,3.326,0,0,1,2.1.506Q329.585,212.665,329.376,213.248Zm-7.021,3.274,4.532-2.634q1.353-.788.874-1.18a1.9,1.9,0,0,0-.245-.161,1.471,1.471,0,0,0-.391-.152,1.524,1.524,0,0,0-.663.052,4.68,4.68,0,0,0-1.155.521l-4.537,2.637-.042.024q-1.26.732-1.188,1.054a.468.468,0,0,0,.259.3,2.391,2.391,0,0,0,.345.174.912.912,0,0,0,.324.065,3.763,3.763,0,0,0,1.853-.676l.036-.021Z" transform="translate(-318.068 -211.503)" fill="#db7122"/>
          </g>
          <g id="Grupo_72940" data-name="Grupo 72940" transform="translate(4.377 3.013)">
            <path id="Trazado_144389" data-name="Trazado 144389" d="M332.716,214.383q1.54.888-1.037,2.384a9.723,9.723,0,0,1-3.192,1.085c-.556.1-1.1.188-1.648.273a14.737,14.737,0,0,0-3.369.874l2.047,1.182-.82.477-3.113-1.8.519-.3a14.927,14.927,0,0,1,4.169-1.188c.008,0,.343-.062,1.005-.185s1.052-.189,1.161-.2a6.14,6.14,0,0,0,1.147-.337,8.338,8.338,0,0,0,1.2-.572,4.861,4.861,0,0,0,.83-.575c.184-.168.273-.3.271-.386a.278.278,0,0,0-.166-.228.875.875,0,0,0-.327-.115,3.628,3.628,0,0,0-1.96.693l-1.21.7-1.075-.621.57-.331a8.081,8.081,0,0,1,3.14-1.294,4.411,4.411,0,0,1,.662.029A3.178,3.178,0,0,1,332.716,214.383Z" transform="translate(-321.585 -213.924)" fill="#db7122"/>
          </g>
          <g id="Grupo_72941" data-name="Grupo 72941" transform="translate(9.573 5.466)">
            <path id="Trazado_144390" data-name="Trazado 144390" d="M335.839,218.467c-.235.162-.545.353-.926.575l-3.744,2.175a7.051,7.051,0,0,1-3.021,1.135,3.2,3.2,0,0,1-1.709-.459q-.838-.483-.641-1.044a3.4,3.4,0,0,1,1.5-1.333l.338-.2,1.042.6-.158.091q-1.284.748-1.328.982c-.029.158.071.3.3.436a.948.948,0,0,0,.743.095,6.148,6.148,0,0,0,1.285-.62l1.448-.842a2.318,2.318,0,0,1-1.032-.331q-1-.579-.631-1.193a5.209,5.209,0,0,1,1.8-1.45l.239-.138a9.063,9.063,0,0,1,1.73-.83,4.593,4.593,0,0,1,1.064-.221,3.286,3.286,0,0,1,1.821.469c.59.341.864.676.818,1S336.423,218.066,335.839,218.467Zm-3.926,1.049L334,218.3a5.288,5.288,0,0,0,1.091-.752c.139-.161.2-.286.173-.378a.49.49,0,0,0-.26-.269,1.206,1.206,0,0,0-.992-.09,7.186,7.186,0,0,0-1.427.676l-.535.311a5.584,5.584,0,0,0-1.315.927c-.167.205-.082.4.25.595a1.285,1.285,0,0,0,.926.193Z" transform="translate(-325.761 -215.895)" fill="#db7122"/>
          </g>
          <g id="Grupo_72942" data-name="Grupo 72942" transform="translate(14.357 8.306)">
            <path id="Trazado_144391" data-name="Trazado 144391" d="M340.012,218.8l-9.31,5.412-1.1-.633,7.842-4.557a2.751,2.751,0,0,1-.847-.1,3.268,3.268,0,0,1-.769-.306l.763-.443a3.886,3.886,0,0,0,1.223.285,4.52,4.52,0,0,0,1.419-.106Z" transform="translate(-329.605 -218.177)" fill="#db7122"/>
          </g>
        </g>
        <g id="Grupo_72947" data-name="Grupo 72947" transform="translate(22.568 3.141)" style="isolation: isolate">
          <g id="Grupo_72944" data-name="Grupo 72944">
            <path id="Trazado_144392" data-name="Trazado 144392" d="M335.342,211.547a5.125,5.125,0,0,1-1.239.967l-.37.214a5.624,5.624,0,0,1-2.231.785,3.221,3.221,0,0,1-1.915-.459c-.623-.36-.9-.733-.824-1.119s.506-.815,1.288-1.289c.039-.027.245-.149.622-.368a6.762,6.762,0,0,1,1.452-.591,3.891,3.891,0,0,1,1.509-.193q-.217-.732,1.381-1.66a5.323,5.323,0,0,1,2.175-.789,3.275,3.275,0,0,1,1.921.483q.971.562.836,1.106t-1.366,1.259a4.775,4.775,0,0,1-2.867.783C335.779,210.911,335.652,211.2,335.342,211.547Zm-2.619.5.353-.205a4.405,4.405,0,0,0,1.227-.927c.192-.254.179-.443-.04-.569a1.482,1.482,0,0,0-1.028-.032,5.944,5.944,0,0,0-1.628.7l-.366.213a3.306,3.306,0,0,0-1.013.768c-.114.18-.036.348.229.5a1.318,1.318,0,0,0,.737.207,1.981,1.981,0,0,0,.747-.23q.411-.207.781-.422Zm5.02-4.182a3.677,3.677,0,0,0-1.75.671q-1.234.719-1.212,1.074c.005.1.078.2.224.284a1.031,1.031,0,0,0,.5.132,2.363,2.363,0,0,0,.772-.17,6.675,6.675,0,0,0,1.079-.516,9.336,9.336,0,0,0,.844-.536.913.913,0,0,0,.311-.339.23.23,0,0,0-.017-.23,1.06,1.06,0,0,0-.291-.215,1.125,1.125,0,0,0-.454-.153Z" transform="translate(-328.751 -207.036)" fill="#db7122"/>
          </g>
          <g id="Grupo_72945" data-name="Grupo 72945" transform="translate(4.782 2.769)">
            <path id="Trazado_144393" data-name="Trazado 144393" d="M342.924,209.726q.963.558.805,1.166t-1.386,1.323a4.007,4.007,0,0,1-3.019.658q.53.814-1.37,1.918a6.405,6.405,0,0,1-2.466.91,3.369,3.369,0,0,1-2.092-.449q-.984-.567-.759-1.167a3.529,3.529,0,0,1,1.577-1.386l.413-.239,1.064.613-.428.249a4.669,4.669,0,0,0-1.193.852c-.138.183-.051.366.259.545a1.338,1.338,0,0,0,1.019.134,6.494,6.494,0,0,0,1.567-.722,3.319,3.319,0,0,0,1.2-.954c.126-.244,0-.474-.376-.691l-.3-.175.872-.507.292.168a1.984,1.984,0,0,0,.724.271,3.389,3.389,0,0,0,1.908-.633l.031-.017c.617-.36.952-.635,1.008-.827s-.039-.358-.282-.5a1.212,1.212,0,0,0-.861-.116,4.786,4.786,0,0,0-1.36.6l-.223.128-1.08-.623.238-.138a5.859,5.859,0,0,1,2.255-.836A3.176,3.176,0,0,1,342.924,209.726Z" transform="translate(-332.594 -209.261)" fill="#db7122"/>
          </g>
          <g id="Grupo_72946" data-name="Grupo 72946" transform="translate(8.472 5.717)">
            <path id="Trazado_144394" data-name="Trazado 144394" d="M347.612,212.4l-7.756,6.3-1.039-.6,1.511-1.185-1.7-.981-2.021.891-1.05-.606,10.728-4.588Zm-7.971,3.091,1.437.83,4.176-3.284-.016-.01-5.6,2.464Z" transform="translate(-335.559 -211.63)" fill="#db7122"/>
          </g>
        </g>
        <g id="Grupo_72948" data-name="Grupo 72948" transform="translate(16.451)">
          <path id="Trazado_144395" data-name="Trazado 144395" d="M327.991,204.97l-1.3.756,1.209.7-.741.43-1.208-.7-1.321.768-.793-.458,1.321-.768-1.192-.688.74-.43,1.192.688,1.3-.756Z" transform="translate(-323.836 -204.512)" fill="#db7122"/>
        </g>
        <g id="Grupo_72949" data-name="Grupo 72949" transform="translate(17.789 0.012)">
          <path id="Trazado_144396" data-name="Trazado 144396" d="M336.51,206.22l-.984.572-1.936-1.117-2.173,1.262a1.908,1.908,0,0,1,1.289.316.713.713,0,0,1,.413.526q.062.636-2.16,1.926a22.565,22.565,0,0,1-2.224,1.2c-.333.131-.609.226-.828.287a2.737,2.737,0,0,1-2.214-.311q-1.633-.943.142-1.975l1.025-.6,1.065.613-1.032.6a1.236,1.236,0,0,0-.5.437c-.066.134,0,.261.208.381a1.021,1.021,0,0,0,.667.127,2.335,2.335,0,0,0,.824-.321l2.776-1.613a2.182,2.182,0,0,0,.707-.554q.144-.224-.154-.4a1.585,1.585,0,0,0-1.606.219l-.864-.6,4.617-2.683Z" transform="translate(-324.911 -204.521)" fill="#db7122"/>
        </g>
        <g id="Grupo_72950" data-name="Grupo 72950" transform="translate(4.516 5.969)">
          <path id="Trazado_144397" data-name="Trazado 144397" d="M324.573,209.775q.963.556.805,1.166t-1.384,1.323a4.018,4.018,0,0,1-3.021.658q.53.814-1.368,1.916a6.4,6.4,0,0,1-2.466.91,3.368,3.368,0,0,1-2.094-.448q-.984-.569-.759-1.167a3.539,3.539,0,0,1,1.579-1.386l.413-.24,1.064.615-.429.249a4.708,4.708,0,0,0-1.193.851c-.137.184-.051.366.26.545A1.337,1.337,0,0,0,317,214.9a6.583,6.583,0,0,0,1.565-.722,3.309,3.309,0,0,0,1.2-.954q.19-.366-.375-.692l-.3-.175.872-.506.292.169a1.989,1.989,0,0,0,.724.271,3.389,3.389,0,0,0,1.9-.633l.032-.02c.616-.357.954-.633,1.009-.825s-.039-.36-.281-.5a1.231,1.231,0,0,0-.864-.116,4.78,4.78,0,0,0-1.36.6l-.222.129-1.08-.623.238-.138a5.872,5.872,0,0,1,2.255-.836A3.179,3.179,0,0,1,324.573,209.775Z" transform="translate(-314.245 -209.308)" fill="#db7122"/>
        </g>
        <g id="Grupo_72951" data-name="Grupo 72951" transform="translate(0 3.36)">
          <path id="Trazado_144398" data-name="Trazado 144398" d="M321.022,207.847l-8.4,4.883,1.73,1-.9.526-2.831-1.635,9.306-5.408Z" transform="translate(-310.615 -207.212)" fill="#db7122"/>
        </g>
      </g>
    </g>
    <g id="Grupo_72967" data-name="Grupo 72967" transform="translate(219.856 344.459)">
      <path id="Trazado_144399" data-name="Trazado 144399" d="M187.313,347.752v35.935c0,.256.419.463.937.463s.937-.207.937-.463V347.752Z" transform="translate(-182.226 -278.982)" fill="#969696"/>
      <path id="Trazado_144400" data-name="Trazado 144400" d="M211.653,332.941v35.934c0,.256.419.464.936.464s.937-.208.937-.464V332.941Z" transform="translate(-176.277 -282.602)" fill="#969696"/>
      <g id="Grupo_72954" data-name="Grupo 72954" transform="translate(29.231 57.088)" style="isolation: isolate">
        <path id="Trazado_144401" data-name="Trazado 144401" d="M212.819,343.621l-5.112-2.97a2.515,2.515,0,0,1-.992-2.287l5.111,2.97a2.517,2.517,0,0,0,.993,2.287Z" transform="translate(-206.715 -338.364)" fill="#007034"/>
      </g>
      <path id="Trazado_144402" data-name="Trazado 144402" d="M212.819,343.621l-5.112-2.97a2.515,2.515,0,0,1-.992-2.287l5.111,2.97A2.517,2.517,0,0,0,212.819,343.621Z" transform="translate(-177.484 -281.276)" fill="#007034"/>
      <path id="Trazado_144403" data-name="Trazado 144403" d="M211.388,293.683c-4.659-2.707-10.325-.363-14.276,2.534a34.939,34.939,0,0,0-8.427,9.085c1.828.788,3.749,1.443,5.572,2.318a37.591,37.591,0,0,1,5.64-6.533c3.493-3.179,8.355-6.192,13.285-5.542a8.9,8.9,0,0,1,3.316,1.068Z" transform="translate(-181.89 -292.488)" fill="#00b353"/>
      <path id="Trazado_144404" data-name="Trazado 144404" d="M187.824,306.548a38.77,38.77,0,0,0-4.557,15.688c-.067,1.305-.036,2.618-.032,3.925q.011,3.515.02,7.028.013,4.7.027,9.4.013,4.853.027,9.706l.021,7.8c0,1.241,0,2.48.011,3.721a3.794,3.794,0,0,0,.256,1.483,2.346,2.346,0,0,0,1.122,1.106l3.8,2.208c.309.179.656.337.964.516-1.224-.711-1.03-2.549-1.034-3.787l-.015-5.424-.049-16.711q-.019-7.136-.04-14.272c0-.871-.015-1.742-.005-2.612a36.878,36.878,0,0,1,3.717-15.04,43.537,43.537,0,0,1,3.535-6.182c-1.823-.875-3.744-1.531-5.572-2.318A42.681,42.681,0,0,0,187.824,306.548Z" transform="translate(-183.225 -289.971)" fill="#007a38"/>
      <g id="Grupo_72955" data-name="Grupo 72955" transform="translate(5.087 2.918)">
        <path id="Trazado_144405" data-name="Trazado 144405" d="M204.744,297.105c9.659-5.576,17.516-.539,17.549,11.254l.115,40.2a6.917,6.917,0,0,1-2.931,5.525c-1.626.94-2.949-.014-2.955-2.127l-23.209,13.4a6.915,6.915,0,0,1-2.931,5.525c-1.626.94-2.949-.014-2.955-2.127l-.114-40.2C187.281,316.763,195.084,302.683,204.744,297.105Z" transform="translate(-187.313 -294.833)" fill="#009444"/>
      </g>
      <g id="Grupo_72966" data-name="Grupo 72966" transform="translate(14.68 35.834)">
        <g id="Grupo_72956" data-name="Grupo 72956" transform="translate(0 8.486)">
          <path id="Trazado_144406" data-name="Trazado 144406" d="M197.081,328.1l0,.653-1.29,6.67,1.278-.738,0,.712-2.049,1.183,0-.74,1.29-6.583-1.188.686,0-.712Z" transform="translate(-195.022 -328.104)" fill="#302f30"/>
        </g>
        <g id="Grupo_72957" data-name="Grupo 72957" transform="translate(2.645 10.775)">
          <path id="Trazado_144407" data-name="Trazado 144407" d="M198.775,329.944l0,.563-1.628.94,0-.563Z" transform="translate(-197.147 -329.944)" fill="#302f30"/>
        </g>
        <g id="Grupo_72958" data-name="Grupo 72958" transform="translate(6.197 13.592)">
          <path id="Trazado_144408" data-name="Trazado 144408" d="M202.529,332.207v.62c0,.046-.073.327-.207.841s-.254,1.033-.363,1.552a30.658,30.658,0,0,0-.7,5.011l-.8.459a32.661,32.661,0,0,1,.85-5.389c.146-.658.266-1.15.356-1.471s.136-.483.136-.487l-1.8,1.042,0-.719Z" transform="translate(-200.002 -332.207)" fill="#302f30"/>
        </g>
        <g id="Grupo_72959" data-name="Grupo 72959" transform="translate(4.995 5.906)">
          <path id="Trazado_144409" data-name="Trazado 144409" d="M200.56,326.031l.02,7.285-.742.428-.017-6.134a1.806,1.806,0,0,1-.345.462,2.134,2.134,0,0,1-.438.346l0-.595a2.64,2.64,0,0,0,.581-.622,3.067,3.067,0,0,0,.418-.866Z" transform="translate(-199.036 -326.031)" fill="#302f30"/>
        </g>
        <g id="Grupo_72960" data-name="Grupo 72960" transform="translate(9.434 11.997)">
          <path id="Trazado_144410" data-name="Trazado 144410" d="M204.662,330.926l0,.653-1.29,6.67,1.278-.738,0,.712-2.049,1.183,0-.741,1.29-6.583-1.188.686,0-.711Z" transform="translate(-202.603 -330.926)" fill="#302f30"/>
        </g>
        <g id="Grupo_72961" data-name="Grupo 72961" transform="translate(7.392 4.403)">
          <path id="Trazado_144411" data-name="Trazado 144411" d="M203.37,325.825c.014.194.022.439.022.737l.009,2.928a4.757,4.757,0,0,1-.357,2.154,2.16,2.16,0,0,1-.847.845q-.566.328-.827.024a2.3,2.3,0,0,1-.274-1.33v-.265l.706-.407v.124a2.424,2.424,0,0,0,.127,1.11c.081.07.2.061.356-.029a.643.643,0,0,0,.307-.4,4.217,4.217,0,0,0,.071-.963l0-1.135a1.558,1.558,0,0,1-.541.492q-.678.392-.913-.031a3.548,3.548,0,0,1-.239-1.549v-.187a6.107,6.107,0,0,1,.1-1.294,3.08,3.08,0,0,1,.23-.7,2.218,2.218,0,0,1,.89-.907q.6-.347.865-.139A1.3,1.3,0,0,1,203.37,325.825Zm-.714,2.654,0-1.634a3.547,3.547,0,0,0-.071-.893c-.046-.136-.1-.212-.163-.229a.329.329,0,0,0-.244.06.815.815,0,0,0-.388.551,4.837,4.837,0,0,0-.088,1.066v.417a3.785,3.785,0,0,0,.1,1.085c.065.165.208.184.433.055a.866.866,0,0,0,.426-.478Z" transform="translate(-200.962 -324.823)" fill="#302f30"/>
        </g>
        <g id="Grupo_72962" data-name="Grupo 72962" transform="translate(12.27 11.118)">
          <path id="Trazado_144412" data-name="Trazado 144412" d="M205.628,330.219l.019,6.573,1.169-.675,0,.707L204.9,337.93l-.021-7.28Z" transform="translate(-204.883 -330.219)" fill="#302f30"/>
        </g>
        <g id="Grupo_72963" data-name="Grupo 72963" transform="translate(10.781 2.461)">
          <path id="Trazado_144413" data-name="Trazado 144413" d="M204.892,323.472q.651-.377.956-.077a1.838,1.838,0,0,1,.306,1.259,2.711,2.711,0,0,1-.636,1.991q.657-.035.661,1.45a4.347,4.347,0,0,1-.3,1.753,2.27,2.27,0,0,1-.971,1.074q-.666.385-.941.05a2.385,2.385,0,0,1-.279-1.392v-.322l.72-.417v.335a3.248,3.248,0,0,0,.095.988c.062.143.2.153.408.032a.913.913,0,0,0,.424-.551,4.426,4.426,0,0,0,.106-1.162,2.249,2.249,0,0,0-.152-1.027q-.151-.233-.533-.014l-.205.118v-.683l.2-.114a1.374,1.374,0,0,0,.4-.331,2.292,2.292,0,0,0,.274-1.331v-.024a1.568,1.568,0,0,0-.143-.871q-.142-.146-.388,0a.83.83,0,0,0-.36.467,3.247,3.247,0,0,0-.111,1v.174l-.73.422v-.187a3.959,3.959,0,0,1,.274-1.6A2.149,2.149,0,0,1,204.892,323.472Z" transform="translate(-203.686 -323.263)" fill="#302f30"/>
        </g>
        <g id="Grupo_72964" data-name="Grupo 72964" transform="translate(14.143)">
          <path id="Trazado_144414" data-name="Trazado 144414" d="M209,321.285l.021,7.28-.547.316-1.436-4.176.049,1.812.009,3.16-.688.4-.021-7.281.562-.325,1.483,4.108-.082-2.062-.008-2.851Z" transform="translate(-206.388 -321.285)" fill="#302f30"/>
        </g>
        <g id="Grupo_72965" data-name="Grupo 72965" transform="translate(2.939 15.684)">
          <path id="Trazado_144415" data-name="Trazado 144415" d="M199.559,339.121l.521-.3,0,.679-.523.3,0,1.376-.677.391,0-1.376-1.5.865,0-.6,1.394-6.124.767-.443Zm-.678.391-.01-3.788-.875,4.3.885-.511Z" transform="translate(-197.384 -333.888)" fill="#302f30"/>
        </g>
      </g>
    </g>
    <g id="Grupo_72980" data-name="Grupo 72980" transform="translate(214.765 79.822)">
      <path id="Trazado_144416" data-name="Trazado 144416" d="M185.129,129.2v35.935c0,.256.419.464.937.464s.937-.208.937-.464V129.2Z" transform="translate(-177.668 -67.755)" fill="#969696"/>
      <path id="Trazado_144417" data-name="Trazado 144417" d="M213.2,114v35.935c0,.256.419.464.937.464s.937-.208.937-.464V114Z" transform="translate(-170.809 -71.47)" fill="#969696"/>
      <path id="Trazado_144418" data-name="Trazado 144418" d="M187.737,137.025c-.012-.027-.024-.055-.035-.083a1.558,1.558,0,0,1-.057-.19c-.007-.03-.016-.057-.022-.088a3.032,3.032,0,0,1-.044-.33v-.011c-.007-.117-.009-.244-.006-.376,0-.042,0-.088.006-.133,0-.1.011-.2.021-.306,0-.054.011-.107.017-.162.012-.111.029-.225.046-.342.009-.052.015-.1.025-.158.029-.172.061-.348.1-.534v0c.039-.182.085-.372.133-.566l.05-.185c.03-.113.062-.229.095-.346.091-.319.19-.647.3-.988.016-.05.035-.1.051-.149.116-.341.241-.692.378-1.05.02-.052.037-.1.057-.154.152-.389.317-.791.492-1.2l.112-.259c.157-.357.32-.718.493-1.085h0l-5.111-2.97c-.174.367-.337.729-.494,1.086-.019.044-.041.09-.06.133s-.034.082-.052.124c-.175.409-.341.811-.492,1.2l-.019.046c-.014.036-.024.068-.037.1-.138.361-.264.712-.38,1.053-.011.035-.026.071-.037.1l-.014.045c-.113.341-.213.669-.3.988-.009.032-.021.068-.03.1-.024.085-.044.165-.066.248-.016.061-.032.123-.049.183-.049.2-.095.386-.133.567v0h0c-.04.185-.072.362-.1.534-.009.054-.015.1-.024.156-.011.076-.025.153-.034.225-.006.041-.009.078-.012.118s-.012.108-.017.162c-.01.106-.016.208-.021.306,0,.045,0,.091-.006.133,0,.133,0,.259.006.376v.011a2.751,2.751,0,0,0,.044.33c.006.031.015.058.022.088a1.559,1.559,0,0,0,.057.19c.011.029.022.056.035.083a.9.9,0,0,0,.085.144.707.707,0,0,0,.042.058.637.637,0,0,0,.161.141l5.094,2.952a.5.5,0,0,1-.144-.122c-.015-.017-.027-.039-.042-.058A1.128,1.128,0,0,1,187.737,137.025Z" transform="translate(-178.32 -68.696)" fill="#d9932b"/>
      <path id="Trazado_144419" data-name="Trazado 144419" d="M216.687,81.9a21.251,21.251,0,0,0-2.042-1.105,11.737,11.737,0,0,0-4.416-.969,20.123,20.123,0,0,0-10.164,2.841,37.8,37.8,0,0,0-8.755,6.862,49.841,49.841,0,0,0-3.622,4.171c1.71.921,3.463,1.857,5.3,2.724,4.044-5.22,9.182-9.857,15.29-12.262,4-1.575,8.694-2.093,12.556.151Z" transform="translate(-177.043 -79.822)" fill="#ffb038"/>
      <path id="Trazado_144420" data-name="Trazado 144420" d="M181.772,105.485a42.593,42.593,0,0,0-2.486,10.663,25.287,25.287,0,0,0,1,10.613,12.892,12.892,0,0,0,5.521,7.078q2.259,1.32,4.525,2.629l.434.253c-3.933-2.336-5.781-6.834-6.323-11.2a28.6,28.6,0,0,1-.156-4.907c.4-8.255,3.665-16.33,8.146-23.2.821-1.258,1.7-2.5,2.646-3.721-1.784-1.01-3.564-1.832-5.3-2.724A54.3,54.3,0,0,0,181.772,105.485Z" transform="translate(-179.134 -77.096)" fill="#d9932b"/>
      <path id="Trazado_144421" data-name="Trazado 144421" d="M205.785,85.287c12.5-7.219,22.674-1.424,22.715,12.944.02,7.089-2.432,14.935-6.418,21.937,2.239,2.1,3.079,5.153,1.869,6.964a2.78,2.78,0,0,1-.932.876c-1.422.821-3.6.444-5.49-1.065a41.842,41.842,0,0,1-11.6,10.378c-4.245,2.451-8.218,3.4-11.619,3.025-1.878,3.685-4.042,6.568-5.465,7.389a1.176,1.176,0,0,1-.935.2c-1.217-.409-.393-4.428,1.823-9.1-4.014-2.383-6.5-7.377-6.522-14.467C183.175,110.008,193.279,92.508,205.785,85.287Z" transform="translate(-178.136 -79.245)" fill="#fcaa31"/>
      <g id="Grupo_72979" data-name="Grupo 72979" transform="translate(20.033 18.114)">
        <g id="Grupo_72968" data-name="Grupo 72968" transform="translate(1.252 16.311)">
          <path id="Trazado_144422" data-name="Trazado 144422" d="M197.42,107.692c.427-.246.738-.271.937-.077a1.816,1.816,0,0,1,.3,1.234,2.656,2.656,0,0,1-.623,1.95q.642-.034.646,1.421a4.223,4.223,0,0,1-.295,1.716,2.218,2.218,0,0,1-.949,1.051q-.653.377-.922.05a2.35,2.35,0,0,1-.273-1.364v-.317l.706-.407v.327a3.155,3.155,0,0,0,.092.968c.061.139.194.151.4.031a.89.89,0,0,0,.414-.539,4.379,4.379,0,0,0,.1-1.139,2.162,2.162,0,0,0-.151-1.005c-.1-.153-.271-.158-.52-.014l-.2.116,0-.668.194-.112a1.317,1.317,0,0,0,.394-.325,2.237,2.237,0,0,0,.269-1.3v-.024a1.523,1.523,0,0,0-.141-.852c-.092-.1-.219-.1-.38,0a.8.8,0,0,0-.352.457,3.165,3.165,0,0,0-.108.978v.169l-.716.413v-.182a3.856,3.856,0,0,1,.268-1.57A2.1,2.1,0,0,1,197.42,107.692Z" transform="translate(-196.239 -107.486)" fill="#302f30"/>
        </g>
        <g id="Grupo_72969" data-name="Grupo 72969" transform="translate(0 8.81)">
          <path id="Trazado_144423" data-name="Trazado 144423" d="M195.962,101.458l.018,6.438,1.146-.662,0,.693-1.876,1.083-.02-7.13Z" transform="translate(-195.233 -101.458)" fill="#302f30"/>
        </g>
        <g id="Grupo_72970" data-name="Grupo 72970" transform="translate(4.281 14.548)">
          <path id="Trazado_144424" data-name="Trazado 144424" d="M201.03,107.052c.014.189.021.431.022.722l.007,2.867a4.646,4.646,0,0,1-.35,2.11,2.122,2.122,0,0,1-.83.828q-.554.321-.81.022a2.258,2.258,0,0,1-.269-1.3v-.259l.692-.4v.123a2.4,2.4,0,0,0,.123,1.086c.08.068.2.06.351-.029a.635.635,0,0,0,.3-.394,4.148,4.148,0,0,0,.07-.944l0-1.11a1.549,1.549,0,0,1-.533.482q-.663.383-.893-.031a3.466,3.466,0,0,1-.234-1.518v-.182a6.062,6.062,0,0,1,.1-1.267,2.982,2.982,0,0,1,.225-.684,2.179,2.179,0,0,1,.872-.89c.391-.225.673-.271.846-.136A1.275,1.275,0,0,1,201.03,107.052Zm-.7,2.6,0-1.6a3.429,3.429,0,0,0-.07-.875c-.045-.132-.1-.207-.159-.224a.326.326,0,0,0-.24.06.8.8,0,0,0-.38.54,4.729,4.729,0,0,0-.086,1.044V109a3.663,3.663,0,0,0,.1,1.061c.062.162.2.18.424.053a.85.85,0,0,0,.417-.468Z" transform="translate(-198.673 -106.07)" fill="#302f30"/>
        </g>
        <g id="Grupo_72971" data-name="Grupo 72971" transform="translate(2.51 6.3)">
          <path id="Trazado_144425" data-name="Trazado 144425" d="M199.817,99.441l-1.147,4.188,1.248,2.9-.761.439L198,104.217l.01,3.411-.737.425-.02-7.13.729-.421.01,3.4,1.094-4.036Z" transform="translate(-197.25 -99.441)" fill="#302f30"/>
        </g>
        <g id="Grupo_72972" data-name="Grupo 72972" transform="translate(5.474 8.644)">
          <path id="Trazado_144426" data-name="Trazado 144426" d="M201.226,101.325l0,.551-1.594.92v-.551Z" transform="translate(-199.632 -101.325)" fill="#302f30"/>
        </g>
        <g id="Grupo_72973" data-name="Grupo 72973" transform="translate(7.777 3.876)">
          <path id="Trazado_144427" data-name="Trazado 144427" d="M202.974,97.493l.02,7.134-.727.421-.016-6.009a1.77,1.77,0,0,1-.338.453,2.151,2.151,0,0,1-.429.34v-.585a2.59,2.59,0,0,0,.569-.607,3.026,3.026,0,0,0,.409-.849Z" transform="translate(-201.482 -97.493)" fill="#302f30"/>
        </g>
        <g id="Grupo_72974" data-name="Grupo 72974" transform="translate(10.461 2.298)">
          <path id="Trazado_144428" data-name="Trazado 144428" d="M204.812,96.361q1.019-.59,1.024,1.384a6.458,6.458,0,0,1-.434,2.191c-.128.35-.259.7-.389,1.035a9.739,9.739,0,0,0-.615,2.222l1.358-.784v.628l-2.063,1.191v-.4a9.9,9.9,0,0,1,.7-2.786s.078-.217.228-.638.24-.666.269-.732a3.958,3.958,0,0,0,.187-.769,5.571,5.571,0,0,0,.071-.88,3.272,3.272,0,0,0-.055-.667c-.036-.162-.08-.255-.132-.284a.183.183,0,0,0-.185.02.6.6,0,0,0-.174.149,2.417,2.417,0,0,0-.25,1.354l0,.928-.712.411V99.5a5.35,5.35,0,0,1,.3-2.23,2.856,2.856,0,0,1,.235-.371A2.089,2.089,0,0,1,204.812,96.361Z" transform="translate(-203.639 -96.225)" fill="#302f30"/>
        </g>
        <g id="Grupo_72975" data-name="Grupo 72975" transform="translate(13.535)">
          <path id="Trazado_144429" data-name="Trazado 144429" d="M208.563,94.379l.02,7.13-.729.421-.01-3.456-.995.574.01,3.456-.729.421-.02-7.131.729-.421.008,2.99.995-.574-.009-2.99Z" transform="translate(-206.11 -94.379)" fill="#302f30"/>
        </g>
        <g id="Grupo_72976" data-name="Grupo 72976" transform="translate(7.352 12.892)">
          <path id="Trazado_144430" data-name="Trazado 144430" d="M202.633,104.739l.02,7.135-.727.419-.017-6.008a1.737,1.737,0,0,1-.337.452,2.1,2.1,0,0,1-.429.34v-.582a2.631,2.631,0,0,0,.569-.61,2.941,2.941,0,0,0,.408-.849Z" transform="translate(-201.141 -104.739)" fill="#302f30"/>
        </g>
        <g id="Grupo_72977" data-name="Grupo 72977" transform="translate(9.965 10.833)">
          <path id="Trazado_144431" data-name="Trazado 144431" d="M205.695,103.084l.02,7.13-.73.422-.01-3.456-.994.574.01,3.456-.73.422-.02-7.13.73-.422.008,2.99.994-.574-.008-2.99Z" transform="translate(-203.241 -103.084)" fill="#302f30"/>
        </g>
        <g id="Grupo_72978" data-name="Grupo 72978" transform="translate(13.095 9.577)">
          <path id="Trazado_144432" data-name="Trazado 144432" d="M207.248,102.075l.02,7.134-.725.419-.016-6.009a1.785,1.785,0,0,1-.338.453,2.07,2.07,0,0,1-.431.34v-.582a2.6,2.6,0,0,0,.569-.608,3,3,0,0,0,.409-.85Z" transform="translate(-205.756 -102.075)" fill="#302f30"/>
        </g>
      </g>
    </g>
    <g id="Grupo_72981" data-name="Grupo 72981" transform="translate(216.4 211.382)">
      <path id="Trazado_144433" data-name="Trazado 144433" d="M188.8,238.846v24.343c0,.3.492.544,1.1.544s1.1-.244,1.1-.544V238.846Z" transform="translate(-178.407 -172.52)" fill="#969696"/>
      <path id="Trazado_144434" data-name="Trazado 144434" d="M208.176,229.465v24.343c0,.3.493.544,1.1.544s1.1-.243,1.1-.544V229.465Z" transform="translate(-173.671 -174.813)" fill="#969696"/>
      <path id="Trazado_144435" data-name="Trazado 144435" d="M180.448,219.929v15.494c0,6.553,10.542,11.866,23.546,11.866s23.547-5.314,23.547-11.866V219.929Z" transform="translate(-180.448 -177.143)" fill="#1280d8"/>
      <path id="Trazado_144436" data-name="Trazado 144436" d="M227.542,221.257c0,6.553-10.542,11.866-23.547,11.866s-23.546-5.313-23.546-11.866,17.068-6.761,23.546-6.761C210.425,214.5,227.542,214.7,227.542,221.257Z" transform="translate(-180.448 -178.471)" fill="#0f66aa"/>
      <path id="Trazado_144437" data-name="Trazado 144437" d="M180.448,195.082V221.9c0,6.553,10.542,11.866,23.546,11.866s23.547-5.314,23.547-11.866V195.082Z" transform="translate(-180.448 -183.215)" fill="#1280d8"/>
      <path id="Trazado_144438" data-name="Trazado 144438" d="M183.843,228.679a28.686,28.686,0,0,0,11.774,4.461V195.082H183.843Z" transform="translate(-179.618 -183.215)" fill="#333"/>
      <path id="Trazado_144439" data-name="Trazado 144439" d="M183.843,225.377v15.494a28.668,28.668,0,0,0,11.774,4.46V229.837A28.668,28.668,0,0,1,183.843,225.377Z" transform="translate(-179.618 -175.812)" fill="#333"/>
      <ellipse id="Elipse_4788" data-name="Elipse 4788" cx="23.547" cy="11.867" rx="23.547" ry="11.867" fill="#3ea6f8"/>
      <ellipse id="Elipse_4789" data-name="Elipse 4789" cx="18.454" cy="9.3" rx="18.454" ry="9.3" transform="translate(5.093 2.567)" fill="#c9c9c9"/>
      <path id="Trazado_144440" data-name="Trazado 144440" d="M189.415,189.6l24.194,14.039c.219-.092.433-.185.643-.282L190.06,189.317C189.841,189.408,189.625,189.5,189.415,189.6Z" transform="translate(-178.256 -184.624)" fill="#858585"/>
      <path id="Trazado_144441" data-name="Trazado 144441" d="M190.024,203.647l24.162-14.054c-.21-.1-.424-.189-.645-.28l-24.161,14.053Q189.7,203.509,190.024,203.647Z" transform="translate(-178.265 -184.625)" fill="#858585"/>
    </g>
    <g id="Grupo_72993" data-name="Grupo 72993" transform="translate(340.783 360.722)">
      <path id="Trazado_144442" data-name="Trazado 144442" d="M311.63,327.2a2.482,2.482,0,0,1-1.247-.337L281.645,310.2a2.489,2.489,0,1,1,2.5-4.306l28.739,16.667a2.49,2.49,0,0,1-1.251,4.643Z" transform="translate(-280.404 -305.557)" fill="#808285"/>
      <path id="Trazado_144443" data-name="Trazado 144443" d="M321.638,310.638a14.989,14.989,0,0,0-6,2.087c-.382.221-.764.459-1.14.709l-6-3.488c.31-.177.609-.337.913-.487.082-.045.172-.09.26-.128q.34-.166.681-.315c.055-.022.1-.05.161-.072a.507.507,0,0,0,.083-.034c.21-.082.426-.166.636-.238.05-.022.106-.039.156-.061.26-.088.52-.167.775-.238a.342.342,0,0,1,.039-.011c.138-.039.271-.067.4-.1l.217-.05c.215-.05.432-.09.642-.122h0a9.569,9.569,0,0,1,.958-.095.831.831,0,0,1,.111-.011h.077a8.142,8.142,0,0,1,.836.006h.034a.828.828,0,0,0,.1.011c.221.016.438.044.648.077.039,0,.077,0,.116.011s.056.016.083.022c.244.044.487.1.719.165h.006c.005.005.016.005.027.011.221.061.432.144.647.226.027.011.056.017.083.029l.1.05c.177.077.355.165.526.26.032.016.066.027.093.044s.056.029.078.045Z" transform="translate(-273.537 -304.965)" fill="#f0301a"/>
      <path id="Trazado_144444" data-name="Trazado 144444" d="M363.226,339.747a30.193,30.193,0,0,0-10.746,12.082c-2.526,4.878-4.495,10.876-3.161,16.376a8.589,8.589,0,0,0,3.777,5.56l-46.05-26.779v-.005l-3.153-1.832a18.125,18.125,0,0,1-4.3-2.84c-1.931-2.056-2.566-5.014-2.6-7.754a26.12,26.12,0,0,1,2.049-9.931,34.273,34.273,0,0,1,2.511-5.011,24.707,24.707,0,0,1,3.392-4.661,9.5,9.5,0,0,1,1.506-1.611c.469-.463.949-.917,1.453-1.341a23.918,23.918,0,0,1,3.407-2.439l6.313,3.67q1.762,1.023,3.524,2.047l4.446,2.583c15.916,9.251-10.185-5.9,28.178,16.4l6.3,3.66,3.023,1.756Z" transform="translate(-276.35 -304.579)" fill="#ac2010"/>
      <path id="Trazado_144445" data-name="Trazado 144445" d="M353.031,334.2c7.935-4.581,14.385-.9,14.411,8.217s-6.382,20.216-14.317,24.8-14.389.907-14.414-8.209S345.1,338.787,353.031,334.2Z" transform="translate(-266.155 -299.038)" fill="#d02a17"/>
      <path id="Trazado_144446" data-name="Trazado 144446" d="M323.41,311.832l-2.95-1.716a14.989,14.989,0,0,0-6,2.087c-.382.221-.764.459-1.14.709l2.944,1.71,42.967,24.99c.3-.177.609-.337.913-.492.082-.045.172-.083.26-.128.227-.111.454-.215.681-.31.083-.032.161-.072.244-.1.21-.09.426-.167.636-.244.05-.016.1-.039.156-.056.26-.088.52-.165.775-.238.149-.044.292-.077.442-.111.072-.016.144-.039.212-.05.22-.05.437-.088.652-.122.327-.05.642-.077.958-.1.061,0,.127,0,.188,0,.282-.011.565-.011.836,0a1.267,1.267,0,0,1,.138.011c.221.016.438.045.648.077.066.011.132.017.2.034a6.5,6.5,0,0,1,.719.166.088.088,0,0,1,.034.011,5.239,5.239,0,0,1,.642.228c.066.022.127.05.188.077.177.077.355.167.526.255.055.032.116.061.172.093Z" transform="translate(-272.359 -304.443)" fill="#f0301a"/>
      <path id="Trazado_144447" data-name="Trazado 144447" d="M328.276,314.66a14.908,14.908,0,0,0-6,2.081c-.382.222-.764.459-1.141.709l-2.944-1.711c.376-.249.758-.487,1.14-.708a14.964,14.964,0,0,1,6-2.087Z" transform="translate(-271.17 -303.752)" fill="#cf2917"/>
      <path id="Trazado_144448" data-name="Trazado 144448" d="M309.582,343.062a14.747,14.747,0,0,0,1.162,6.061l-2.945-1.71a14.859,14.859,0,0,1-1.157-6.061c-.027-9.439,6.305-20.836,14.371-26.162l2.944,1.711C315.892,322.226,309.553,333.624,309.582,343.062Z" transform="translate(-273.992 -303.203)" fill="#941b0e"/>
      <g id="Grupo_72992" data-name="Grupo 72992" transform="translate(41.626 36.51)">
        <g id="Grupo_72982" data-name="Grupo 72982">
          <path id="Trazado_144449" data-name="Trazado 144449" d="M314.829,335.065q.834.482.83,2.1a2.546,2.546,0,0,1-.366,1.376q-.161.245-.321.479a2.853,2.853,0,0,0-.514,1.229l1.113.642v.514l-1.69-.976V340.1a3.325,3.325,0,0,1,.582-1.615s.066-.1.19-.3a2.657,2.657,0,0,1,.224-.345,1.455,1.455,0,0,0,.156-.452,3.594,3.594,0,0,0,.061-.652,3.453,3.453,0,0,0-.044-.6,1.142,1.142,0,0,0-.106-.355.41.41,0,0,0-.151-.158.219.219,0,0,0-.142-.041c-.139.019-.212.3-.213.869l0,.758-.582-.336v-.361c0-.908.087-1.421.254-1.537a.469.469,0,0,1,.2-.077A.847.847,0,0,1,314.829,335.065Z" transform="translate(-313.855 -334.897)"/>
        </g>
        <g id="Grupo_72983" data-name="Grupo 72983" transform="translate(2.378 1.699)">
          <path id="Trazado_144450" data-name="Trazado 144450" d="M317.511,340.814l.417.24v.545l-.417-.241,0,1.1-.544-.315,0-1.1-1.2-.692v-.483l1.14-3.606.616.355Zm-.544-.315.007-3.04-.716,2.632.708.408Z" transform="translate(-315.766 -336.262)"/>
        </g>
        <g id="Grupo_72984" data-name="Grupo 72984" transform="translate(4.969 2.87)">
          <path id="Trazado_144451" data-name="Trazado 144451" d="M319.691,338.25a3.246,3.246,0,0,1,.213,1.285l-.007,2.789a2.045,2.045,0,0,1-.214,1.1c-.139.2-.412.184-.818-.05a1.76,1.76,0,0,1-.813-.888,3.729,3.729,0,0,1-.2-1.348l.009-2.789a1.788,1.788,0,0,1,.213-1.038c.143-.173.413-.143.809.086A1.82,1.82,0,0,1,319.691,338.25ZM319.3,342l.007-2.843c0-.564-.1-.927-.311-1.093a1.359,1.359,0,0,0-.142-.092.428.428,0,0,0-.178-.061c-.056-.006-.11.042-.157.144a1.7,1.7,0,0,0-.07.6l-.009,2.847v.027a2.082,2.082,0,0,0,.167,1.039.649.649,0,0,0,.209.2.944.944,0,0,0,.175.087.144.144,0,0,0,.118,0c.124-.04.188-.317.189-.837V342Z" transform="translate(-317.848 -337.203)"/>
        </g>
        <g id="Grupo_72985" data-name="Grupo 72985" transform="translate(7.711 4.994)">
          <path id="Trazado_144452" data-name="Trazado 144452" d="M322.039,340.051l-.014,4.973-.595-.343v-.506a.41.41,0,0,1-.238.277.565.565,0,0,1-.453-.1,1.33,1.33,0,0,1-.488-.555,2,2,0,0,1-.2-.947l.011-3.938.591.342-.01,3.863a.837.837,0,0,0,.371.8c.136.08.243.086.311.016a.533.533,0,0,0,.108-.377l.01-3.846Z" transform="translate(-320.052 -338.91)"/>
        </g>
        <g id="Grupo_72986" data-name="Grupo 72986" transform="translate(10.52 5.753)">
          <path id="Trazado_144453" data-name="Trazado 144453" d="M323.856,340.4l0,.575-.935-.54-.005,1.843.876.506,0,.581-.876-.506L322.9,345.7l-.595-.343.017-5.836Z" transform="translate(-322.309 -339.52)"/>
        </g>
        <g id="Grupo_72987" data-name="Grupo 72987" transform="translate(14.054 7.781)">
          <path id="Trazado_144454" data-name="Trazado 144454" d="M327.175,342.32v.5a4.548,4.548,0,0,1-.168.487c-.111.287-.209.587-.3.9a14.816,14.816,0,0,0-.582,3.357l-.636-.367a14.405,14.405,0,0,1,.7-3.518,8.931,8.931,0,0,1,.29-.847c.075-.175.108-.26.109-.264l-1.443-.834v-.579Z" transform="translate(-325.149 -341.15)"/>
        </g>
        <g id="Grupo_72988" data-name="Grupo 72988" transform="translate(16.617 9.604)">
          <path id="Trazado_144455" data-name="Trazado 144455" d="M328.2,342.783a1.81,1.81,0,0,1,.762.819,3.012,3.012,0,0,1,.24,1.289c0,.722-.175,1.058-.516,1a2.55,2.55,0,0,1,.52,1.767,1.758,1.758,0,0,1-.249,1.124c-.164.182-.424.168-.78-.037a1.71,1.71,0,0,1-.75-.829,3.554,3.554,0,0,1-.219-1.373v-.259l.577.333v.269a3.624,3.624,0,0,0,.072.876.672.672,0,0,0,.325.4c.168.1.284.082.343-.047a2.521,2.521,0,0,0,.088-.831,2.92,2.92,0,0,0-.116-.959.949.949,0,0,0-.426-.5l-.165-.1v-.548l.161.092a.552.552,0,0,0,.322.108c.148-.02.224-.29.225-.81v-.021a2.111,2.111,0,0,0-.111-.826.758.758,0,0,0-.31-.363c-.131-.075-.228-.06-.287.042a1.669,1.669,0,0,0-.095.694v.139l-.586-.338v-.149a1.639,1.639,0,0,1,.225-1.028C327.6,342.56,327.852,342.582,328.2,342.783Z" transform="translate(-327.209 -342.615)"/>
        </g>
        <g id="Grupo_72989" data-name="Grupo 72989" transform="translate(19.111 11.039)">
          <path id="Trazado_144456" data-name="Trazado 144456" d="M331.144,345.662c.011.167.017.371.016.608l-.006,2.351c0,.789-.1,1.253-.295,1.39-.152.1-.377.068-.682-.107a1.56,1.56,0,0,1-.662-.747,3.5,3.5,0,0,1-.212-1.315v-.214l.565.326v.1a2.9,2.9,0,0,0,.1,1.007.7.7,0,0,0,.284.3c.124.072.207.062.246-.039a2.409,2.409,0,0,0,.061-.7l0-.908a.553.553,0,0,1-.435-.108,1.555,1.555,0,0,1-.729-.871,4.625,4.625,0,0,1-.183-1.457v-.151a3.536,3.536,0,0,1,.086-.942.7.7,0,0,1,.188-.345c.154-.122.394-.085.714.1a1.713,1.713,0,0,1,.692.686A2.623,2.623,0,0,1,331.144,345.662Zm-.582,1.458,0-1.309a3.891,3.891,0,0,0-.051-.779,1.02,1.02,0,0,0-.129-.334.57.57,0,0,0-.2-.177c-.159-.092-.264-.063-.314.081a2.844,2.844,0,0,0-.073.771v.336a4.186,4.186,0,0,0,.075.956.7.7,0,0,0,.345.445c.18.1.294.108.341.009Z" transform="translate(-329.213 -343.768)"/>
        </g>
        <g id="Grupo_72990" data-name="Grupo 72990" transform="translate(21.96 12.677)">
          <path id="Trazado_144457" data-name="Trazado 144457" d="M332.474,345.252q.834.482.83,2.1a2.543,2.543,0,0,1-.366,1.376c-.107.163-.214.324-.321.479a2.859,2.859,0,0,0-.514,1.229l1.113.643v.513l-1.69-.976v-.322a3.324,3.324,0,0,1,.582-1.616s.066-.1.19-.3a2.712,2.712,0,0,1,.224-.345,1.391,1.391,0,0,0,.156-.452,3.612,3.612,0,0,0,.061-.653,3.453,3.453,0,0,0-.044-.6,1.064,1.064,0,0,0-.1-.353.427.427,0,0,0-.152-.159.227.227,0,0,0-.142-.041c-.139.019-.208.306-.21.87v.759l-.584-.337v-.36c0-.908.085-1.424.25-1.538a.521.521,0,0,1,.2-.078A.854.854,0,0,1,332.474,345.252Z" transform="translate(-331.502 -345.084)"/>
        </g>
        <g id="Grupo_72991" data-name="Grupo 72991" transform="translate(24.471 13.808)">
          <path id="Trazado_144458" data-name="Trazado 144458" d="M335.638,347.207l-.955,2.337,1,3.536-.622-.359-.933-3.336-.008,2.792-.6-.349.017-5.836.6.345-.008,2.782.91-2.261Z" transform="translate(-333.52 -345.993)"/>
        </g>
      </g>
      <path id="Trazado_144459" data-name="Trazado 144459" d="M373.8,363.258a2.479,2.479,0,0,1-1.246-.336l-22.755-13.2a2.488,2.488,0,1,1,2.5-4.306l22.756,13.2a2.489,2.489,0,0,1-1.252,4.642Z" transform="translate(-263.747 -295.898)" fill="#808285"/>
    </g>
    <g id="Grupo_73018" data-name="Grupo 73018" transform="translate(46.961 353.819)">
      <path id="Trazado_144460" data-name="Trazado 144460" d="M66.563,370.145v-3.39h16.3v3.38l-16.3.01Z" transform="translate(-38.84 -283.699)" fill="#747474"/>
      <g id="Grupo_72994" data-name="Grupo 72994" transform="translate(44.024 63.141)">
        <path id="Trazado_144461" data-name="Trazado 144461" d="M113.928,350.751l-.011,3.387L79.663,374.047v-3.38Z" transform="translate(-79.663 -350.751)" fill="#969696"/>
      </g>
      <g id="Grupo_72995" data-name="Grupo 72995" transform="translate(0.006 42.419)">
        <path id="Trazado_144462" data-name="Trazado 144462" d="M122.573,354.82,88.308,374.736h-16.3l-27.717-16L86.679,334.1Z" transform="translate(-44.289 -334.099)" fill="#818181"/>
      </g>
      <g id="Grupo_72996" data-name="Grupo 72996" transform="translate(0 67.056)">
        <path id="Trazado_144463" data-name="Trazado 144463" d="M72.008,369.9v3.39l-27.723-16,.006-3.387Z" transform="translate(-44.285 -353.897)" fill="#505050"/>
      </g>
      <ellipse id="Elipse_4790" data-name="Elipse 4790" cx="23.547" cy="11.867" rx="23.547" ry="11.867" transform="translate(15.598 52.806)" fill="#bfbdbe"/>
      <rect id="Rectángulo_32490" data-name="Rectángulo 32490" width="47.094" height="15.494" transform="translate(15.598 49.18)" fill="#bfbdbe"/>
      <path id="Trazado_144464" data-name="Trazado 144464" d="M103.913,340.859c0,6.554-10.541,11.868-23.546,11.868s-23.547-5.313-23.547-11.868,17.068-6.76,23.547-6.76C86.8,334.1,103.913,334.306,103.913,340.859Z" transform="translate(-41.221 -291.679)" fill="#969696"/>
      <ellipse id="Elipse_4791" data-name="Elipse 4791" cx="23.547" cy="11.867" rx="23.547" ry="11.867" transform="translate(15.598 33.211)" fill="#bfbdbe"/>
      <rect id="Rectángulo_32491" data-name="Rectángulo 32491" width="47.094" height="33.211" transform="translate(15.598 11.868)" fill="#bfbdbe"/>
      <ellipse id="Elipse_4792" data-name="Elipse 4792" cx="23.547" cy="11.867" rx="23.547" ry="11.867" transform="translate(15.598 0.001)" fill="#d9d9d9"/>
      <path id="Trazado_144465" data-name="Trazado 144465" d="M80.366,300.01c-13.005,0-23.547,5.314-23.547,11.868a7.37,7.37,0,0,0,2.168,4.973l28.122-16.344A45.459,45.459,0,0,0,80.366,300.01Z" transform="translate(-41.221 -300.01)" fill="#414042"/>
      <g id="Grupo_73007" data-name="Grupo 73007" transform="translate(32.092 6.872)">
        <g id="Grupo_72997" data-name="Grupo 72997" transform="translate(5.597 6.495)">
          <path id="Trazado_144466" data-name="Trazado 144466" d="M79.474,311q.5.287.444.586c-.035.2-.244.409-.628.632a1.856,1.856,0,0,1-1.46.281q.295.409-.595.926a2.84,2.84,0,0,1-1.178.413,1.769,1.769,0,0,1-1.049-.249c-.338-.2-.479-.391-.423-.586s.3-.414.72-.661l.193-.112.55.317-.2.117a1.983,1.983,0,0,0-.553.4c-.06.09-.01.179.151.273a.693.693,0,0,0,.508.081,2.839,2.839,0,0,0,.742-.335,1.38,1.38,0,0,0,.553-.453c.051-.118-.02-.233-.214-.345l-.157-.091.409-.238.151.087a1.082,1.082,0,0,0,.368.143,1.522,1.522,0,0,0,.912-.285l.015-.009c.289-.168.443-.3.463-.393s-.034-.178-.159-.25a.633.633,0,0,0-.429-.068,2.1,2.1,0,0,0-.646.275l-.1.06L77.3,311.2l.111-.065a2.6,2.6,0,0,1,1.076-.381A1.681,1.681,0,0,1,79.474,311Z" transform="translate(-74.572 -310.752)" fill="#414042"/>
        </g>
        <g id="Grupo_72998" data-name="Grupo 72998" transform="translate(0 3.262)">
          <path id="Trazado_144467" data-name="Trazado 144467" d="M76.43,309.306l-4.361,2.534-.418-.241,1.908-2.366-1.067.658-1.893,1.1-.525-.3,4.361-2.534.428.247-1.848,2.372,1.2-.766,1.707-.992Z" transform="translate(-70.074 -308.154)" fill="#414042"/>
        </g>
        <g id="Grupo_72999" data-name="Grupo 72999" transform="translate(5.123)">
          <path id="Trazado_144468" data-name="Trazado 144468" d="M77.912,307.413a1.941,1.941,0,0,1-.832.7l-.265.154a2.879,2.879,0,0,1-1.1.4,1.726,1.726,0,0,1-1.061-.268q-.681-.394-.362-.811a2.434,2.434,0,0,1,.692-.536l1.837-1.068a3.059,3.059,0,0,1,1.223-.453,1.739,1.739,0,0,1,1.033.255c.343.2.487.385.427.557s-.3.383-.712.63l-.149.086-.548-.315.082-.049q.588-.342.61-.449c.014-.072-.047-.147-.185-.226a.6.6,0,0,0-.452-.063,3.1,3.1,0,0,0-.75.348l-.61.353a1.467,1.467,0,0,1,.813.223C77.883,307.05,77.988,307.226,77.912,307.413Zm-1.71.566.33-.192a2.217,2.217,0,0,0,.6-.444c.073-.1.034-.2-.121-.29a1.176,1.176,0,0,0-.345-.131.878.878,0,0,0-.281-.024l-.922.535a1.572,1.572,0,0,0-.529.412c-.062.107-.009.208.158.3a.757.757,0,0,0,.306.108,1.513,1.513,0,0,0,.8-.279Z" transform="translate(-74.191 -305.532)" fill="#414042"/>
        </g>
        <g id="Grupo_73000" data-name="Grupo 73000" transform="translate(7.575 1.415)">
          <path id="Trazado_144469" data-name="Trazado 144469" d="M79.883,308.55a1.964,1.964,0,0,1-.834.7l-.265.154a2.9,2.9,0,0,1-1.1.4,1.725,1.725,0,0,1-1.061-.266q-.681-.394-.361-.813a2.421,2.421,0,0,1,.692-.535l1.835-1.068a3.07,3.07,0,0,1,1.223-.454,1.747,1.747,0,0,1,1.033.255c.345.2.487.386.428.559s-.3.383-.713.628l-.149.087-.546-.316.081-.047q.588-.342.61-.449c.015-.072-.047-.148-.184-.228a.613.613,0,0,0-.453-.063,3.076,3.076,0,0,0-.75.348l-.61.355a1.462,1.462,0,0,1,.813.221C79.854,308.187,79.956,308.362,79.883,308.55Zm-1.711.566.33-.192a2.158,2.158,0,0,0,.606-.444c.072-.1.032-.2-.121-.289a1.118,1.118,0,0,0-.346-.131.883.883,0,0,0-.281-.025l-.922.536a1.557,1.557,0,0,0-.529.412c-.061.106-.009.207.158.3a.734.734,0,0,0,.307.107,1.509,1.509,0,0,0,.8-.279Z" transform="translate(-76.162 -306.67)" fill="#414042"/>
        </g>
        <g id="Grupo_73001" data-name="Grupo 73001" transform="translate(15.293 6.432)">
          <path id="Trazado_144470" data-name="Trazado 144470" d="M87.828,311.882l-.37.215-1.554-.9-1.137.661,1.435.829-.365.212-1.435-.829-1.548.9-.49-.283,3.42-1.988Z" transform="translate(-82.364 -310.702)" fill="#414042"/>
        </g>
        <g id="Grupo_73002" data-name="Grupo 73002" transform="translate(2.869 5.151)">
          <path id="Trazado_144471" data-name="Trazado 144471" d="M77.677,309.923q.8.459-.412,1.16a4.356,4.356,0,0,1-1.528.49l-.8.112a6.689,6.689,0,0,0-1.623.382l1.058.611-.385.224-1.608-.928.243-.142a6.761,6.761,0,0,1,2-.528l.488-.076c.322-.052.51-.08.564-.083A2.8,2.8,0,0,0,76.23,311a3.634,3.634,0,0,0,.569-.266,2.013,2.013,0,0,0,.385-.271c.085-.08.123-.142.118-.185a.156.156,0,0,0-.091-.115.464.464,0,0,0-.166-.061,1.624,1.624,0,0,0-.936.315l-.569.33-.555-.321.268-.156a3.559,3.559,0,0,1,1.493-.594,2.2,2.2,0,0,1,.327.022A1.729,1.729,0,0,1,77.677,309.923Z" transform="translate(-72.38 -309.672)" fill="#414042"/>
        </g>
        <g id="Grupo_73003" data-name="Grupo 73003" transform="translate(8.066 7.889)">
          <path id="Trazado_144472" data-name="Trazado 144472" d="M81.486,312.228l-4.363,2.536-.567-.327,3.676-2.135a1.383,1.383,0,0,1-.422-.061,1.749,1.749,0,0,1-.391-.161l.357-.208a2.057,2.057,0,0,0,.615.157,2.157,2.157,0,0,0,.693-.032Z" transform="translate(-76.556 -311.872)" fill="#414042"/>
        </g>
        <g id="Grupo_73004" data-name="Grupo 73004" transform="translate(12.624 5.182)">
          <path id="Trazado_144473" data-name="Trazado 144473" d="M84.506,311.023l-1.787,1.038c-.254.148-.47.281-.647.4l-.439-.254.372-.249-.01-.006a2.253,2.253,0,0,1-1.358-.255c-.428-.246-.728-.666.136-1.167l1.436-.835.5.286-1.36.79c-.467.271-.623.545-.173.805a1.587,1.587,0,0,0,1.058.142,1.027,1.027,0,0,0,.274-.107l1.508-.876Z" transform="translate(-80.219 -309.697)" fill="#414042"/>
        </g>
        <g id="Grupo_73005" data-name="Grupo 73005" transform="translate(9.964 2.803)">
          <path id="Trazado_144474" data-name="Trazado 144474" d="M83.516,308.682q-.078.284-.661.622l-2.084,1.211a3.026,3.026,0,0,1-1.115.417,1.727,1.727,0,0,1-1.09-.266q-.579-.334-.467-.63a1.613,1.613,0,0,1,.72-.647l2.084-1.211a2.69,2.69,0,0,1,1.068-.387,1.775,1.775,0,0,1,1.056.277C83.407,308.288,83.569,308.492,83.516,308.682ZM80.194,310.2l2.123-1.233q.635-.37.382-.569a1.038,1.038,0,0,0-.127-.082.812.812,0,0,0-.2-.081.731.731,0,0,0-.325.016,2.023,2.023,0,0,0-.548.24l-2.125,1.236-.021.012c-.393.228-.572.4-.541.5a.27.27,0,0,0,.139.151,1.38,1.38,0,0,0,.177.09.48.48,0,0,0,.162.036,1.657,1.657,0,0,0,.886-.307l.017-.01Z" transform="translate(-78.081 -307.785)" fill="#414042"/>
        </g>
        <g id="Grupo_73006" data-name="Grupo 73006" transform="translate(9.933 8.995)">
          <path id="Trazado_144475" data-name="Trazado 144475" d="M82.959,313.015c.417.243.519.494.31.757a2.407,2.407,0,0,1-.653.5l-.484.281-.557-.322.487-.282a2.3,2.3,0,0,0,.514-.358c.065-.076.09-.138.073-.184a.271.271,0,0,0-.133-.133.685.685,0,0,0-.509-.068,2.648,2.648,0,0,0-.7.306l-1.888,1.1a2.288,2.288,0,0,0-.615.448c-.08.106-.044.2.106.289a.632.632,0,0,0,.5.057,3.4,3.4,0,0,0,.77-.358l.484-.281.562.325-.478.279a3.388,3.388,0,0,1-1.217.467,1.638,1.638,0,0,1-1.048-.23q-.517-.3-.4-.62a1.7,1.7,0,0,1,.784-.711l1.817-1.055a3.451,3.451,0,0,1,.819-.371,2.292,2.292,0,0,1,.54-.085A1.82,1.82,0,0,1,82.959,313.015Z" transform="translate(-78.056 -312.761)" fill="#414042"/>
        </g>
      </g>
      <g id="Grupo_73012" data-name="Grupo 73012" transform="translate(0.006 57.395)">
        <g id="Grupo_73011" data-name="Grupo 73011" style="isolation: isolate">
          <g id="Grupo_73008" data-name="Grupo 73008" transform="translate(3.51 2.027)">
            <path id="Trazado_144476" data-name="Trazado 144476" d="M47.118,354.734l12-6.972-.008,2.689-12,6.972Z" transform="translate(-47.11 -347.762)" fill="#969696"/>
          </g>
          <g id="Grupo_73009" data-name="Grupo 73009" transform="translate(0.008)">
            <path id="Trazado_144477" data-name="Trazado 144477" d="M44.3,353.105l12-6.972,3.51,2.027-12,6.972Z" transform="translate(-44.295 -346.133)" fill="#818181"/>
          </g>
          <g id="Grupo_73010" data-name="Grupo 73010" transform="translate(0 6.972)">
            <path id="Trazado_144478" data-name="Trazado 144478" d="M47.807,353.763l-.008,2.689-3.51-2.027.008-2.689Z" transform="translate(-44.289 -351.736)" fill="#505050"/>
          </g>
        </g>
      </g>
      <g id="Grupo_73017" data-name="Grupo 73017" transform="translate(62.782 58.425)">
        <g id="Grupo_73016" data-name="Grupo 73016" style="isolation: isolate">
          <g id="Grupo_73013" data-name="Grupo 73013" transform="translate(3.51 2.027)">
            <path id="Trazado_144479" data-name="Trazado 144479" d="M97.566,355.562l12-6.972-.008,2.689-12,6.972Z" transform="translate(-97.558 -348.59)" fill="#969696"/>
          </g>
          <g id="Grupo_73014" data-name="Grupo 73014" transform="translate(0.008)">
            <path id="Trazado_144480" data-name="Trazado 144480" d="M94.743,353.933l12-6.972,3.51,2.027-12,6.972Z" transform="translate(-94.743 -346.961)" fill="#818181"/>
          </g>
          <g id="Grupo_73015" data-name="Grupo 73015" transform="translate(0 6.972)">
            <path id="Trazado_144481" data-name="Trazado 144481" d="M98.255,354.59l-.008,2.689-3.51-2.027.008-2.689Z" transform="translate(-94.737 -352.564)" fill="#505050"/>
          </g>
        </g>
      </g>
    </g>
    <g id="Grupo_73036" data-name="Grupo 73036" transform="translate(352.483 85.807)">
      <g id="Grupo_73019" data-name="Grupo 73019" transform="translate(11.433 14.931)">
        <path id="Trazado_144482" data-name="Trazado 144482" d="M300.349,130.2a1.356,1.356,0,0,1-1.356-1.356V97.986a1.356,1.356,0,1,1,2.713,0v30.861A1.356,1.356,0,0,1,300.349,130.2Z" transform="translate(-298.993 -96.63)" fill="#a7a9ac"/>
      </g>
      <g id="Grupo_73021" data-name="Grupo 73021">
        <path id="Trazado_144483" data-name="Trazado 144483" d="M306.519,88.338c2.347-1.007,5.158-1.4,7.464-.063l0,0,0,0L311.2,86.659a19.021,19.021,0,0,0-3.076-1.653,7.452,7.452,0,0,0-3.611-.271,12.443,12.443,0,0,0-4.434,1.654l4.78,2.779A15.832,15.832,0,0,1,306.519,88.338Z" transform="translate(-287.294 -84.632)" fill="#00b353"/>
        <path id="Trazado_144484" data-name="Trazado 144484" d="M294.6,110.944a24.062,24.062,0,0,1,2.4-10.012,30.074,30.074,0,0,1,5.765-8.463,21.854,21.854,0,0,1,4.609-3.646l-4.78-2.779a24.5,24.5,0,0,0-7.5,7.135,29.814,29.814,0,0,0-4.283,8.7,18.17,18.17,0,0,0-.523,9.913,7.752,7.752,0,0,0,3.658,4.813q2.2,1.277,4.4,2.555C296.039,117.827,294.613,114.985,294.6,110.944Z" transform="translate(-289.806 -84.286)" fill="#007a38"/>
        <g id="Grupo_73020" data-name="Grupo 73020" transform="translate(4.795 2.778)">
          <path id="Trazado_144485" data-name="Trazado 144485" d="M306.433,88.622c7.079-4.087,12.835-.808,12.857,7.323s-5.694,18.037-12.774,22.124-12.833.808-12.857-7.326S299.357,92.708,306.433,88.622Z" transform="translate(-293.659 -86.864)" fill="#009444"/>
        </g>
      </g>
      <path id="Trazado_144486" data-name="Trazado 144486" d="M315.139,90.378a12.265,12.265,0,0,0-4.9,1.7c-.312.182-.623.376-.931.579l-4.9-2.848c.253-.144.5-.276.745-.4.068-.036.141-.072.213-.1q.278-.136.556-.258c.045-.019.086-.041.131-.06a.507.507,0,0,0,.068-.026c.172-.068.348-.136.52-.2.04-.017.086-.031.126-.05.213-.072.426-.136.633-.194a.247.247,0,0,1,.032-.009c.112-.032.221-.055.33-.082l.177-.04c.175-.041.352-.072.524-.1h0a7.794,7.794,0,0,1,.781-.077.575.575,0,0,1,.091-.009h.063a6.575,6.575,0,0,1,.683,0h.026a.588.588,0,0,0,.086.01c.182.014.357.036.529.063.032,0,.063,0,.1.009s.045.014.067.017c.2.036.4.082.589.136h0l.024.01a5.546,5.546,0,0,1,.529.185c.022.009.045.012.067.022l.082.04c.144.063.289.137.429.213.027.014.054.024.077.036a.7.7,0,0,1,.062.036Z" transform="translate(-286.237 -83.758)" fill="#00b353"/>
      <path id="Trazado_144487" data-name="Trazado 144487" d="M367.092,120.7c-.045-.027-.095-.05-.139-.077-.141-.072-.285-.144-.431-.208a1.515,1.515,0,0,0-.153-.063,4.235,4.235,0,0,0-.525-.185.054.054,0,0,0-.026-.009,4.872,4.872,0,0,0-.589-.136c-.053-.014-.108-.019-.163-.027-.172-.027-.347-.05-.529-.063a.868.868,0,0,0-.113-.009c-.221-.014-.452-.014-.682,0-.05,0-.1,0-.154,0-.258.017-.515.04-.783.081-.175.027-.352.059-.533.1-.055.009-.113.027-.172.041-.122.027-.24.054-.362.09-.208.06-.421.122-.633.2-.045.012-.086.031-.127.045-.172.063-.347.127-.519.2-.068.027-.132.059-.2.086-.185.077-.371.163-.556.253-.072.036-.144.068-.213.1-.249.127-.5.258-.747.4L310.282,93.356c.307-.2.618-.4.931-.579a12.155,12.155,0,0,1,4.9-1.7Z" transform="translate(-284.802 -83.056)" fill="#00b353"/>
      <path id="Trazado_144488" data-name="Trazado 144488" d="M362.477,121.908a24.663,24.663,0,0,0-8.777,9.868c-2.063,3.986-3.672,8.885-2.582,13.377a7.008,7.008,0,0,0,3.085,4.541l-50.982-29.626v0l-2.576-1.5a14.836,14.836,0,0,1-3.509-2.32,9.347,9.347,0,0,1-2.125-6.334,21.329,21.329,0,0,1,1.675-8.112,27.954,27.954,0,0,1,2.051-4.094,20.252,20.252,0,0,1,2.771-3.808,7.778,7.778,0,0,1,1.229-1.315c.383-.378.776-.749,1.187-1.1a19.5,19.5,0,0,1,2.784-1.992l5.157,3q1.439.836,2.878,1.672l3.631,2.109,5.944,3.456,7.433,4.319,8.136,4.727,7.93,4.61,6.941,4.033,5.143,2.989,2.469,1.435Z" transform="translate(-288.534 -83.442)" fill="#007a38"/>
      <path id="Trazado_144489" data-name="Trazado 144489" d="M351.525,115.858c6.481-3.742,11.749-.735,11.771,6.711s-5.213,16.514-11.693,20.256-11.753.742-11.774-6.706S345.044,119.6,351.525,115.858Z" transform="translate(-277.581 -77.394)" fill="#009444"/>
      <path id="Trazado_144490" data-name="Trazado 144490" d="M316.587,91.353a12.155,12.155,0,0,0-4.9,1.7c-.312.18-.623.376-.931.579l-2.405-1.4c.307-.2.618-.4.931-.579a12.265,12.265,0,0,1,4.9-1.7Z" transform="translate(-285.274 -83.332)" fill="#009c49"/>
      <path id="Trazado_144491" data-name="Trazado 144491" d="M301.317,114.553a12.085,12.085,0,0,0,.949,4.951l-2.405-1.4a12.131,12.131,0,0,1-.946-4.951c-.022-7.709,5.15-17.019,11.739-21.37l2.405,1.4C306.471,97.534,301.294,106.843,301.317,114.553Z" transform="translate(-287.579 -82.883)" fill="#006b31"/>
      <path id="Trazado_144492" data-name="Trazado 144492" d="M320.562,93.662a12.171,12.171,0,0,0-4.9,1.7c-.312.18-.625.375-.932.579l-2.405-1.4c.307-.2.62-.4.932-.579a12.22,12.22,0,0,1,4.9-1.7Z" transform="translate(-284.303 -82.767)" fill="#009c49"/>
      <path id="Trazado_144493" data-name="Trazado 144493" d="M305.292,116.862a12.04,12.04,0,0,0,.949,4.951l-2.405-1.4a12.136,12.136,0,0,1-.946-4.951c-.022-7.71,5.15-17.021,11.738-21.37l2.405,1.4C310.446,99.843,305.268,109.153,305.292,116.862Z" transform="translate(-286.608 -82.319)" fill="#006b31"/>
      <g id="Grupo_73032" data-name="Grupo 73032" transform="translate(21.421 28.919)">
        <g id="Grupo_73022" data-name="Grupo 73022">
          <path id="Trazado_144494" data-name="Trazado 144494" d="M307.971,108.035q.814.47.81,2.046a2.49,2.49,0,0,1-.357,1.343q-.157.239-.314.467a2.78,2.78,0,0,0-.5,1.2l1.085.626v.5l-1.649-.952v-.315a3.232,3.232,0,0,1,.569-1.575s.063-.1.185-.295a2.7,2.7,0,0,1,.218-.336,1.413,1.413,0,0,0,.152-.442,3.31,3.31,0,0,0,.06-.636,3.416,3.416,0,0,0-.041-.582,1.169,1.169,0,0,0-.1-.346.412.412,0,0,0-.148-.154.208.208,0,0,0-.138-.04c-.136.017-.207.3-.208.846l0,.74-.569-.329v-.352c0-.885.085-1.386.248-1.5a.475.475,0,0,1,.19-.076A.833.833,0,0,1,307.971,108.035Z" transform="translate(-307.02 -107.871)"/>
        </g>
        <g id="Grupo_73023" data-name="Grupo 73023" transform="translate(2.321 1.657)">
          <path id="Trazado_144495" data-name="Trazado 144495" d="M310.587,113.643l.407.235,0,.53-.407-.234,0,1.074-.531-.306,0-1.075-1.168-.674v-.472L310,109.2l.6.346Zm-.531-.307.007-2.965-.7,2.567.691.4Z" transform="translate(-308.885 -109.203)"/>
        </g>
        <g id="Grupo_73024" data-name="Grupo 73024" transform="translate(4.848 2.799)">
          <path id="Trazado_144496" data-name="Trazado 144496" d="M312.714,111.142a3.192,3.192,0,0,1,.208,1.253l-.009,2.72a2,2,0,0,1-.208,1.076c-.137.2-.4.179-.8-.049a1.722,1.722,0,0,1-.793-.866,3.623,3.623,0,0,1-.2-1.315l.007-2.72a1.75,1.75,0,0,1,.208-1.013c.139-.168.4-.139.79.083A1.782,1.782,0,0,1,312.714,111.142Zm-.381,3.655.007-2.772c0-.551-.1-.9-.3-1.066a1.126,1.126,0,0,0-.138-.09.429.429,0,0,0-.173-.06c-.055-.006-.107.041-.154.141a1.672,1.672,0,0,0-.067.589l-.009,2.776v.026a2.044,2.044,0,0,0,.162,1.014.652.652,0,0,0,.205.2.935.935,0,0,0,.17.085.148.148,0,0,0,.116,0c.121-.04.183-.31.184-.818V114.8Z" transform="translate(-310.916 -110.12)"/>
        </g>
        <g id="Grupo_73025" data-name="Grupo 73025" transform="translate(7.522 4.872)">
          <path id="Trazado_144497" data-name="Trazado 144497" d="M315.005,112.9l-.014,4.849-.581-.335,0-.494a.407.407,0,0,1-.233.271.548.548,0,0,1-.442-.1,1.284,1.284,0,0,1-.475-.54,1.96,1.96,0,0,1-.2-.925l.011-3.841.577.333-.01,3.768a.816.816,0,0,0,.362.78c.132.077.236.085.3.016a.519.519,0,0,0,.1-.368l.011-3.752Z" transform="translate(-313.065 -111.786)"/>
        </g>
        <g id="Grupo_73026" data-name="Grupo 73026" transform="translate(10.263 5.612)">
          <path id="Trazado_144498" data-name="Trazado 144498" d="M316.776,113.243l0,.561-.912-.527-.005,1.8.855.493,0,.567-.855-.493-.008,2.767-.58-.335.016-5.693Z" transform="translate(-315.267 -112.381)"/>
        </g>
        <g id="Grupo_73027" data-name="Grupo 73027" transform="translate(13.709 7.591)">
          <path id="Trazado_144499" data-name="Trazado 144499" d="M320.013,115.111v.485a4.342,4.342,0,0,1-.163.473c-.108.28-.2.574-.291.879a14.325,14.325,0,0,0-.567,3.274l-.621-.358a14.111,14.111,0,0,1,.686-3.431c.117-.381.21-.66.284-.828s.106-.253.107-.256l-1.409-.814v-.564Z" transform="translate(-318.037 -113.971)"/>
        </g>
        <g id="Grupo_73028" data-name="Grupo 73028" transform="translate(16.211 9.369)">
          <path id="Trazado_144500" data-name="Trazado 144500" d="M321.015,115.564a1.769,1.769,0,0,1,.744.8,2.958,2.958,0,0,1,.233,1.258c0,.7-.17,1.032-.5.979a2.5,2.5,0,0,1,.506,1.725,1.7,1.7,0,0,1-.243,1.1c-.159.178-.414.163-.76-.036a1.669,1.669,0,0,1-.732-.809,3.444,3.444,0,0,1-.214-1.339v-.253l.562.326v.261a3.54,3.54,0,0,0,.07.855.653.653,0,0,0,.317.392c.164.1.277.081.335-.045a2.457,2.457,0,0,0,.087-.811,2.9,2.9,0,0,0-.113-.936.932.932,0,0,0-.416-.493l-.162-.093V117.9l.157.091a.536.536,0,0,0,.315.1q.217-.028.219-.79v-.02a2.075,2.075,0,0,0-.107-.806.742.742,0,0,0-.3-.355c-.127-.073-.221-.058-.28.041a1.632,1.632,0,0,0-.092.678v.136l-.571-.33v-.146a1.594,1.594,0,0,1,.219-1C320.432,115.347,320.674,115.368,321.015,115.564Z" transform="translate(-320.047 -115.4)"/>
        </g>
        <g id="Grupo_73029" data-name="Grupo 73029" transform="translate(18.643 10.769)">
          <path id="Trazado_144501" data-name="Trazado 144501" d="M323.886,118.372c.011.163.016.362.015.594l-.006,2.293c0,.769-.1,1.222-.287,1.355-.147.1-.367.067-.664-.1a1.509,1.509,0,0,1-.646-.728,3.42,3.42,0,0,1-.207-1.283v-.209l.551.319v.1a2.858,2.858,0,0,0,.1.983.7.7,0,0,0,.276.295c.122.071.2.061.24-.037a2.311,2.311,0,0,0,.06-.686l0-.886a.538.538,0,0,1-.424-.106,1.527,1.527,0,0,1-.712-.85,4.534,4.534,0,0,1-.178-1.422v-.146a3.437,3.437,0,0,1,.083-.918.676.676,0,0,1,.183-.336c.151-.119.385-.083.7.1a1.669,1.669,0,0,1,.674.669A2.55,2.55,0,0,1,323.886,118.372Zm-.569,1.424,0-1.277a3.722,3.722,0,0,0-.05-.76.979.979,0,0,0-.126-.325.6.6,0,0,0-.19-.174c-.157-.09-.258-.061-.307.08a2.843,2.843,0,0,0-.071.753v.329a4.1,4.1,0,0,0,.072.932.688.688,0,0,0,.337.434c.177.1.286.1.332.009Z" transform="translate(-322.002 -116.525)"/>
        </g>
        <g id="Grupo_73030" data-name="Grupo 73030" transform="translate(21.422 12.365)">
          <path id="Trazado_144502" data-name="Trazado 144502" d="M325.182,117.972q.814.47.81,2.046a2.487,2.487,0,0,1-.357,1.343q-.157.239-.314.467a2.787,2.787,0,0,0-.5,1.2l1.085.627v.5l-1.649-.951v-.316a3.232,3.232,0,0,1,.569-1.575s.063-.1.185-.295a2.693,2.693,0,0,1,.218-.336,1.344,1.344,0,0,0,.152-.441,3.444,3.444,0,0,0,.06-.637,3.308,3.308,0,0,0-.042-.582,1.021,1.021,0,0,0-.1-.345.407.407,0,0,0-.148-.156.215.215,0,0,0-.138-.04c-.136.017-.2.3-.205.849v.74l-.569-.329v-.352c0-.886.082-1.387.245-1.5a.509.509,0,0,1,.19-.076A.833.833,0,0,1,325.182,117.972Z" transform="translate(-324.235 -117.808)"/>
        </g>
        <g id="Grupo_73031" data-name="Grupo 73031" transform="translate(23.872 13.47)">
          <path id="Trazado_144503" data-name="Trazado 144503" d="M328.269,119.879l-.932,2.28.979,3.449-.606-.35L326.8,122l-.008,2.724-.589-.34.016-5.693.583.337-.008,2.714.888-2.205Z" transform="translate(-326.203 -118.695)"/>
        </g>
      </g>
      <g id="Grupo_73034" data-name="Grupo 73034" transform="translate(58.723 33.983)">
        <path id="Trazado_144504" data-name="Trazado 144504" d="M353.709,115.648c2.347-1.007,5.158-1.4,7.464-.065h0l-2.779-1.614a19.027,19.027,0,0,0-3.076-1.654,7.466,7.466,0,0,0-3.611-.271,12.453,12.453,0,0,0-4.434,1.655l4.78,2.777A15.58,15.58,0,0,1,353.709,115.648Z" transform="translate(-334.484 -111.941)" fill="#00b353"/>
        <path id="Trazado_144505" data-name="Trazado 144505" d="M341.792,138.253a24.065,24.065,0,0,1,2.4-10.012,30.046,30.046,0,0,1,5.766-8.462,21.821,21.821,0,0,1,4.608-3.647l-4.78-2.777a24.47,24.47,0,0,0-7.5,7.135,29.825,29.825,0,0,0-4.284,8.7,18.187,18.187,0,0,0-.523,9.914,7.753,7.753,0,0,0,3.658,4.812l4.4,2.555C343.229,145.135,341.8,142.293,341.792,138.253Z" transform="translate(-336.996 -111.596)" fill="#007a38"/>
        <g id="Grupo_73033" data-name="Grupo 73033" transform="translate(4.796 2.778)">
          <path id="Trazado_144506" data-name="Trazado 144506" d="M353.622,115.931c7.079-4.087,12.835-.806,12.857,7.324s-5.694,18.037-12.774,22.124-12.833.808-12.856-7.327S346.547,120.017,353.622,115.931Z" transform="translate(-340.85 -114.173)" fill="#009444"/>
        </g>
      </g>
      <g id="Grupo_73035" data-name="Grupo 73035" transform="translate(75.748 52.301)">
        <path id="Trazado_144507" data-name="Trazado 144507" d="M352.034,160.234a1.356,1.356,0,0,1-1.356-1.356V128.017a1.356,1.356,0,0,1,2.713,0v30.861A1.356,1.356,0,0,1,352.034,160.234Z" transform="translate(-350.678 -126.661)" fill="#a7a9ac"/>
      </g>
    </g>
  </g>
</svg>
