<?xml version="1.0" encoding="utf-8"?>
<!-- Generator: Adobe Illustrator 25.2.3, SVG Export Plug-In . SVG Version: 6.00 Build 0)  -->
<!DOCTYPE svg PUBLIC "-//W3C//DTD SVG 1.1//EN" "http://www.w3.org/Graphics/SVG/1.1/DTD/svg11.dtd" [
	<!ENTITY ns_extend "http://ns.adobe.com/Extensibility/1.0/">
	<!ENTITY ns_ai "http://ns.adobe.com/AdobeIllustrator/10.0/">
	<!ENTITY ns_graphs "http://ns.adobe.com/Graphs/1.0/">
	<!ENTITY ns_vars "http://ns.adobe.com/Variables/1.0/">
	<!ENTITY ns_imrep "http://ns.adobe.com/ImageReplacement/1.0/">
	<!ENTITY ns_sfw "http://ns.adobe.com/SaveForWeb/1.0/">
	<!ENTITY ns_custom "http://ns.adobe.com/GenericCustomNamespace/1.0/">
	<!ENTITY ns_adobe_xpath "http://ns.adobe.com/XPath/1.0/">
]>
<svg version="1.1" id="Capa_1" xmlns:x="&ns_extend;" xmlns:i="&ns_ai;" xmlns:graph="&ns_graphs;"
	 xmlns="http://www.w3.org/2000/svg" xmlns:xlink="http://www.w3.org/1999/xlink" x="0px" y="0px" viewBox="0 0 715 399"
	 style="enable-background:new 0 0 715 399;" xml:space="preserve">
<style type="text/css">
	.st0{opacity:0.1;fill:#AD84FF;enable-background:new    ;}
	.st1{fill:#100142;}
	.st2{enable-background:new    ;}
	.st3{fill:#1B2D5B;}
</style>
<metadata>
	<sfw  xmlns="&ns_sfw;">
		<slices></slices>
		<sliceSourceBounds  bottomLeftOrigin="true" height="399" width="715" x="0" y="0"></sliceSourceBounds>
	</sfw>
</metadata>
<g id="Grupo_73086" transform="translate(-705 -13265.525)">
	<rect id="Rectángulo_31444" x="705" y="13265.5" class="st0" width="715" height="399"/>
	<g id="Grupo_73043" transform="translate(1.033 13651.995)">
		<rect id="Rectángulo_32496" x="809" y="-188.3" class="st1" width="211.4" height="3.3"/>
		<rect id="Rectángulo_32497" x="1018.7" y="-272" class="st1" width="3.3" height="174.3"/>
		<rect id="Rectángulo_32498" x="1076.6" y="-227" class="st1" width="3.3" height="91.3"/>
		<rect id="Rectángulo_32499" x="1078.3" y="-188.3" class="st1" width="211.8" height="3.3"/>
		<g class="st2">
			<path class="st3" d="M1247.1-105.1l3.8-8.1h1.9l-5.3,10.6h-1.3l-2.1-10.6h1.7L1247.1-105.1z"/>
			<path class="st3" d="M1266.3-106.6h-7.9l0.3-1.6h7.9L1266.3-106.6z M1267-110.6h-7.9l0.3-1.6h7.9L1267-110.6z"/>
			<path class="st3" d="M1277.7-103.9c0.6,0,1.2-0.2,1.7-0.6s0.8-0.9,1-1.5l1.7,0c-0.1,0.7-0.4,1.3-0.8,1.8c-0.4,0.5-1,1-1.6,1.3
				c-0.7,0.3-1.3,0.4-2,0.4c-0.9,0-1.6-0.2-2.2-0.7c-0.6-0.4-1.1-1.1-1.3-1.9c-0.3-0.8-0.4-1.7-0.3-2.7l0-0.5c0.1-1,0.4-1.9,0.9-2.7
				s1.1-1.4,1.8-1.9c0.8-0.4,1.6-0.7,2.5-0.6c1.1,0,2,0.4,2.7,1.1s1,1.6,1,2.7l-1.7,0c0-0.7-0.2-1.2-0.6-1.7s-0.9-0.7-1.5-0.7
				c-0.9,0-1.7,0.3-2.3,1c-0.6,0.7-1,1.7-1.1,2.9l0,0.3c0,0.4,0,0.8,0,1.3c0,0.8,0.3,1.4,0.6,1.8
				C1276.5-104.2,1277.1-104,1277.7-103.9z"/>
			<path class="st3" d="M1288.2-115.8l-0.4,2.6h1.9l-0.2,1.4h-1.9l-1.1,6.6c0,0.2,0,0.3,0,0.5c0,0.5,0.3,0.8,0.8,0.8
				c0.2,0,0.5,0,0.9-0.1l-0.1,1.5c-0.4,0.1-0.9,0.2-1.3,0.2c-0.7,0-1.2-0.3-1.6-0.8s-0.5-1.2-0.4-2l1.1-6.5h-1.9l0.2-1.4h1.9
				l0.4-2.6H1288.2z"/>
			<path class="st3" d="M1294.5-102.5c-1.3,0-2.3-0.5-3.1-1.5s-1.1-2.2-0.9-3.6l0-0.4c0.1-1,0.4-2,0.9-2.9c0.5-0.9,1.1-1.5,1.9-2
				c0.7-0.4,1.5-0.6,2.4-0.6c1.1,0,1.9,0.4,2.6,1.1c0.6,0.7,1,1.6,1,2.8c0,0.4,0,0.8,0,1.3l-0.1,0.8h-6.9c-0.1,1,0,1.8,0.5,2.4
				c0.4,0.7,1.1,1,1.9,1c1,0,2-0.4,2.9-1.4l1,0.9c-0.4,0.6-1,1.1-1.7,1.5C1296.2-102.6,1295.4-102.5,1294.5-102.5z M1295.6-112
				c-0.7,0-1.4,0.2-1.9,0.7c-0.5,0.5-1,1.3-1.3,2.3l5.1,0l0-0.2c0.1-0.8,0-1.5-0.4-2C1296.9-111.7,1296.3-111.9,1295.6-112z"/>
			<path class="st3" d="M1301.6-104.7c0.3,0,0.6,0.1,0.8,0.3c0.2,0.2,0.3,0.5,0.3,0.8c0,0.3-0.1,0.6-0.3,0.8
				c-0.2,0.2-0.5,0.3-0.8,0.3s-0.6-0.1-0.8-0.3c-0.2-0.2-0.3-0.4-0.3-0.8s0.1-0.6,0.3-0.8C1301-104.6,1301.3-104.7,1301.6-104.7z"/>
		</g>
	</g>
</g>
</svg>
