<?xml version="1.0" encoding="utf-8"?>
<!-- Generator: Adobe Illustrator 25.2.3, SVG Export Plug-In . SVG Version: 6.00 Build 0)  -->
<!DOCTYPE svg PUBLIC "-//W3C//DTD SVG 1.1//EN" "http://www.w3.org/Graphics/SVG/1.1/DTD/svg11.dtd" [
	<!ENTITY ns_extend "http://ns.adobe.com/Extensibility/1.0/">
	<!ENTITY ns_ai "http://ns.adobe.com/AdobeIllustrator/10.0/">
	<!ENTITY ns_graphs "http://ns.adobe.com/Graphs/1.0/">
	<!ENTITY ns_vars "http://ns.adobe.com/Variables/1.0/">
	<!ENTITY ns_imrep "http://ns.adobe.com/ImageReplacement/1.0/">
	<!ENTITY ns_sfw "http://ns.adobe.com/SaveForWeb/1.0/">
	<!ENTITY ns_custom "http://ns.adobe.com/GenericCustomNamespace/1.0/">
	<!ENTITY ns_adobe_xpath "http://ns.adobe.com/XPath/1.0/">
]>
<svg version="1.1" id="Capa_1" xmlns:x="&ns_extend;" xmlns:i="&ns_ai;" xmlns:graph="&ns_graphs;"
	 xmlns="http://www.w3.org/2000/svg" xmlns:xlink="http://www.w3.org/1999/xlink" x="0px" y="0px" viewBox="0 0 715 399"
	 style="enable-background:new 0 0 715 399;" xml:space="preserve">
<style type="text/css">
	.st0{opacity:0.1;fill:#AD84FF;enable-background:new    ;}
	.st1{enable-background:new    ;}
	.st2{fill:#1B2D5B;}
	.st3{fill:none;}
	.st4{fill:#100142;}
</style>
<metadata>
	<sfw  xmlns="&ns_sfw;">
		<slices></slices>
		<sliceSourceBounds  bottomLeftOrigin="true" height="399" width="715" x="0" y="0"></sliceSourceBounds>
	</sfw>
</metadata>
<g id="Grupo_73087" transform="translate(-705 -13803.094)">
	<rect id="Rectángulo_31469" x="705" y="13803.1" class="st0" width="715" height="399"/>
	<g id="Grupo_73047" transform="translate(0.742 14116.689)">
		<g class="st1">
			<path class="st2" d="M1268.5-19.9h-1.8l1.8-10.6h1.8L1268.5-19.9z M1269.9-34.3c0.3,0,0.5,0.1,0.7,0.3c0.2,0.2,0.3,0.4,0.3,0.8
				c0,0.3-0.1,0.6-0.3,0.8c-0.2,0.2-0.4,0.3-0.7,0.3c-0.3,0-0.6-0.1-0.8-0.3s-0.3-0.4-0.3-0.7c0-0.3,0.1-0.6,0.3-0.8
				C1269.4-34.2,1269.6-34.3,1269.9-34.3z"/>
			<path class="st2" d="M1285-23.8h-7.9l0.3-1.6h7.9L1285-23.8z M1285.7-27.9h-7.9l0.3-1.6h7.9L1285.7-27.9z"/>
			<path class="st2" d="M1296.4-21.2c0.6,0,1.2-0.2,1.7-0.6s0.8-0.9,1-1.5l1.7,0c-0.1,0.7-0.4,1.3-0.8,1.8c-0.4,0.5-1,1-1.6,1.3
				c-0.7,0.3-1.3,0.4-2,0.4c-0.9,0-1.6-0.2-2.2-0.7c-0.6-0.4-1.1-1.1-1.3-1.9c-0.3-0.8-0.4-1.7-0.3-2.7l0-0.5c0.1-1,0.4-1.9,0.9-2.7
				s1.1-1.4,1.8-1.9c0.8-0.4,1.6-0.7,2.5-0.6c1.1,0,2,0.4,2.7,1.1s1,1.6,1,2.7l-1.7,0c0-0.7-0.2-1.2-0.6-1.7s-0.9-0.7-1.5-0.7
				c-0.9,0-1.7,0.3-2.3,1c-0.6,0.7-1,1.7-1.1,2.9l0,0.3c0,0.4,0,0.8,0,1.3c0,0.8,0.3,1.4,0.6,1.8
				C1295.2-21.4,1295.7-21.2,1296.4-21.2z"/>
			<path class="st2" d="M1306.8-33l-0.4,2.6h1.9l-0.2,1.4h-1.9l-1.1,6.6c0,0.2,0,0.3,0,0.5c0,0.5,0.3,0.8,0.8,0.8
				c0.2,0,0.5,0,0.9-0.1l-0.1,1.5c-0.4,0.1-0.9,0.2-1.3,0.2c-0.7,0-1.2-0.3-1.6-0.8s-0.5-1.2-0.4-2l1.1-6.5h-1.9l0.2-1.4h1.9
				l0.4-2.6H1306.8z"/>
			<path class="st2" d="M1313.2-19.7c-1.3,0-2.3-0.5-3.1-1.5s-1.1-2.2-0.9-3.6l0-0.4c0.1-1,0.4-2,0.9-2.9c0.5-0.9,1.1-1.5,1.9-2
				c0.7-0.4,1.5-0.6,2.4-0.6c1.1,0,1.9,0.4,2.6,1.1c0.6,0.7,1,1.6,1,2.8c0,0.4,0,0.8,0,1.3l-0.1,0.8h-6.9c-0.1,1,0,1.8,0.5,2.4
				c0.4,0.7,1.1,1,1.9,1c1,0,2-0.4,2.9-1.4l1,0.9c-0.4,0.6-1,1.1-1.7,1.5C1314.8-19.9,1314-19.7,1313.2-19.7z M1314.3-29.2
				c-0.7,0-1.4,0.2-1.9,0.7c-0.5,0.5-1,1.3-1.3,2.3l5.1,0l0-0.2c0.1-0.8,0-1.5-0.4-2C1315.5-28.9,1315-29.2,1314.3-29.2z"/>
			<path class="st2" d="M1320.3-22c0.3,0,0.6,0.1,0.8,0.3c0.2,0.2,0.3,0.5,0.3,0.8c0,0.3-0.1,0.6-0.3,0.8c-0.2,0.2-0.5,0.3-0.8,0.3
				s-0.6-0.1-0.8-0.3c-0.2-0.2-0.3-0.4-0.3-0.8s0.1-0.6,0.3-0.8C1319.7-21.8,1320-22,1320.3-22z"/>
		</g>
		<g id="Grupo_73044" transform="translate(809.258 -111.443)">
			<line id="Línea_361" class="st3" x1="0" y1="1.7" x2="206.9" y2="1.7"/>
			<rect id="Rectángulo_32500" x="0" y="0" class="st4" width="206.9" height="3.3"/>
		</g>
		<g id="Grupo_73045" transform="translate(1107.311 -111.443)">
			<line id="Línea_362" class="st3" x1="0" y1="1.7" x2="206.9" y2="1.7"/>
			<rect id="Rectángulo_32501" x="0" y="0" class="st4" width="206.9" height="3.3"/>
		</g>
		<g id="Grupo_73046" transform="translate(1021.88 -111.443)">
			<line id="Línea_363" class="st3" x1="0" y1="1.7" x2="71.9" y2="1.7"/>
			<rect id="Rectángulo_32502" x="0" y="0" class="st4" width="71.9" height="3.3"/>
		</g>
		<path id="Trazado_144508" class="st4" d="M1061.8-61.9c-26.4,0-47.9-21.5-47.9-47.9c0-26.4,21.5-47.9,47.9-47.9
			c26.4,0,47.9,21.5,47.9,47.9C1109.6-83.3,1088.2-61.9,1061.8-61.9z M1061.8-154.4c-24.6,0-44.6,20-44.6,44.6
			c0,24.6,20,44.6,44.6,44.6c24.6,0,44.6-20,44.6-44.6C1106.3-134.4,1086.4-154.4,1061.8-154.4z"/>
		<path id="Trazado_144509" class="st4" d="M1085.8-94v-31.6l15.8,15.8L1085.8-94z"/>
	</g>
</g>
</svg>
