<svg xmlns="http://www.w3.org/2000/svg" width="715" height="399" viewBox="0 0 715 399">
  <g id="Grupo_73088" data-name="Grupo 73088" transform="translate(-705 -14542.903)">
    <rect id="Rectángulo_31470" data-name="Rectángulo 31470" width="715" height="399" transform="translate(705 14542.903)" fill="#ad84ff" opacity="0.1"/>
    <g id="Grupo_73064" data-name="Grupo 73064" transform="translate(939.367 15082.126)">
      <text id="_" data-name="+" transform="translate(-69.956 -379.354)" fill="#1b2d5b" font-size="30" font-family="Roboto-Regular, Roboto"><tspan x="0" y="0">+</tspan></text>
      <text id="_2" data-name="+" transform="translate(-34.217 -355.507)" fill="#1b2d5b" font-size="22" font-family="Roboto-Regular, Roboto"><tspan x="0" y="0">+</tspan></text>
      <text id="V1" transform="translate(-124.565 -336.302)" fill="#1b2d5b" font-size="28" font-family="Roboto-Regular, Roboto"><tspan x="0" y="0">V</tspan><tspan y="0" font-size="12">1</tspan></text>
      <text id="V1_μV1" data-name="V1=  μV1" transform="translate(16.023 -334.302)" fill="#1b2d5b" font-size="30" font-family="Roboto-Regular, Roboto"><tspan x="0" y="0">V</tspan><tspan y="0" xml:space="preserve" font-size="12">1=  </tspan><tspan y="0">μV</tspan><tspan y="0" font-size="12">1</tspan></text>
      <text id="FVCC" transform="translate(299.991 -249.292)" fill="#1b2d5b" font-size="29" font-family="Roboto-Regular, Roboto"><tspan x="0" y="0">FVCC</tspan></text>
      <text id="FVCV" transform="translate(-89.748 -249.292)" fill="#1b2d5b" font-size="29" font-family="Roboto-Regular, Roboto"><tspan x="0" y="0">FVCV</tspan></text>
      <text id="i1" transform="translate(177.002 -421.044)" fill="#1b2d5b" font-size="30" font-family="Roboto-Regular, Roboto"><tspan x="0" y="0">i1</tspan></text>
      <text id="_-" data-name="-" transform="translate(-61.082 -292.662)" fill="#1b2d5b" font-size="30" font-family="Roboto-Regular, Roboto"><tspan x="0" y="0">-</tspan></text>
      <text id="_--2" data-name="-" transform="translate(-32.102 -337.63)" fill="#1b2d5b" font-size="30" font-family="Roboto-Regular, Roboto"><tspan x="0" y="0">-</tspan></text>
      <g id="Grupo_73048" data-name="Grupo 73048" transform="translate(-129.891 -392.82)">
        <line id="Línea_364" data-name="Línea 364" x1="41.131" transform="translate(0 0.732)" fill="#100142"/>
        <rect id="Rectángulo_32503" data-name="Rectángulo 32503" width="41.131" height="1.465" fill="#100142"/>
      </g>
      <g id="Grupo_73049" data-name="Grupo 73049" transform="translate(-141.721 -392.82)">
        <line id="Línea_365" data-name="Línea 365" x1="9.358" transform="translate(0 0.801)" fill="#100142"/>
        <rect id="Rectángulo_32504" data-name="Rectángulo 32504" width="9.358" height="1.603" fill="#100142"/>
      </g>
      <g id="Grupo_73050" data-name="Grupo 73050" transform="translate(-154.731 -392.82)">
        <line id="Línea_366" data-name="Línea 366" x1="9.358" transform="translate(0 0.801)" fill="#100142"/>
        <rect id="Rectángulo_32505" data-name="Rectángulo 32505" width="9.358" height="1.603" fill="#100142"/>
      </g>
      <g id="Grupo_73051" data-name="Grupo 73051" transform="translate(-168.496 -392.82)">
        <line id="Línea_367" data-name="Línea 367" x1="9.358" transform="translate(0 0.801)" fill="#100142"/>
        <rect id="Rectángulo_32506" data-name="Rectángulo 32506" width="9.358" height="1.603" fill="#100142"/>
      </g>
      <g id="Grupo_73052" data-name="Grupo 73052" transform="translate(-181.466 -392.82)">
        <line id="Línea_368" data-name="Línea 368" x1="9.358" transform="translate(0 0.801)" fill="#100142"/>
        <rect id="Rectángulo_32507" data-name="Rectángulo 32507" width="9.358" height="1.603" fill="#100142"/>
      </g>
      <g id="Grupo_73053" data-name="Grupo 73053" transform="translate(-141.721 -304.099)">
        <line id="Línea_369" data-name="Línea 369" x1="9.358" transform="translate(0 0.801)" fill="#100142"/>
        <rect id="Rectángulo_32508" data-name="Rectángulo 32508" width="9.358" height="1.603" fill="#100142"/>
      </g>
      <g id="Grupo_73054" data-name="Grupo 73054" transform="translate(-154.731 -304.099)">
        <line id="Línea_370" data-name="Línea 370" x1="9.358" transform="translate(0 0.801)" fill="#100142"/>
        <rect id="Rectángulo_32509" data-name="Rectángulo 32509" width="9.358" height="1.603" fill="#100142"/>
      </g>
      <g id="Grupo_73055" data-name="Grupo 73055" transform="translate(-168.496 -304.099)">
        <line id="Línea_371" data-name="Línea 371" x1="9.358" transform="translate(0 0.801)" fill="#100142"/>
        <rect id="Rectángulo_32510" data-name="Rectángulo 32510" width="9.358" height="1.603" fill="#100142"/>
      </g>
      <g id="Grupo_73056" data-name="Grupo 73056" transform="translate(-181.466 -304.099)">
        <line id="Línea_372" data-name="Línea 372" x1="9.358" transform="translate(0 0.801)" fill="#100142"/>
        <rect id="Rectángulo_32511" data-name="Rectángulo 32511" width="9.358" height="1.603" fill="#100142"/>
      </g>
      <circle id="Elipse_4793" data-name="Elipse 4793" cx="5.323" cy="5.323" r="5.323" transform="translate(-135.212 -396.678)" fill="#100142"/>
      <g id="Grupo_73057" data-name="Grupo 73057" transform="translate(-133.87 -304.762)">
        <line id="Línea_373" data-name="Línea 373" x1="45.11" transform="translate(0 0.732)" fill="#100142"/>
        <rect id="Rectángulo_32512" data-name="Rectángulo 32512" width="45.11" height="1.465" fill="#100142"/>
      </g>
      <circle id="Elipse_4794" data-name="Elipse 4794" cx="5.323" cy="5.323" r="5.323" transform="translate(-135.212 -308.621)" fill="#100142"/>
      <g id="Grupo_73058" data-name="Grupo 73058" transform="translate(-26.898 -392.82)">
        <line id="Línea_374" data-name="Línea 374" x2="91.641" transform="translate(0 0.732)" fill="#100142"/>
        <rect id="Rectángulo_32513" data-name="Rectángulo 32513" width="91.642" height="1.465" fill="#100142"/>
      </g>
      <circle id="Elipse_4795" data-name="Elipse 4795" cx="5.323" cy="5.323" r="5.323" transform="translate(59.42 -396.678)" fill="#100142"/>
      <g id="Grupo_73059" data-name="Grupo 73059" transform="translate(-26.898 -304.762)">
        <line id="Línea_375" data-name="Línea 375" x2="91.641" transform="translate(0 0.732)" fill="#100142"/>
        <rect id="Rectángulo_32514" data-name="Rectángulo 32514" width="91.642" height="1.465" fill="#100142"/>
      </g>
      <circle id="Elipse_4796" data-name="Elipse 4796" cx="5.323" cy="5.323" r="5.323" transform="translate(59.42 -308.621)" fill="#100142"/>
      <path id="Trazado_144510" data-name="Trazado 144510" d="M-69.278-357.165l-21.009-21.009,21.009-21.009,21.011,21.009Zm-18.938-21.009,18.938,18.938,18.94-18.938-18.94-18.938Z" transform="translate(42.378 24.569)" fill="#100142"/>
      <rect id="Rectángulo_32515" data-name="Rectángulo 32515" width="1.465" height="19.24" transform="translate(-27.631 -392.819)" fill="#100142"/>
      <rect id="Rectángulo_32516" data-name="Rectángulo 32516" width="1.465" height="29.602" transform="translate(-27.631 -333.632)" fill="#100142"/>
      <text id="_3" data-name="+" transform="translate(287.446 -379.354)" fill="#1b2d5b" font-size="30" font-family="Roboto-Regular, Roboto"><tspan x="0" y="0">+</tspan></text>
      <text id="_4" data-name="+" transform="translate(327.023 -355.507)" fill="#1b2d5b" font-size="22" font-family="Roboto-Regular, Roboto"><tspan x="0" y="0">+</tspan></text>
      <text id="V_ri1" data-name="V= ri1" transform="translate(377.263 -333.302)" fill="#1b2d5b" font-size="31" font-family="Roboto-Regular, Roboto"><tspan x="0" y="0">V</tspan><tspan y="0" font-size="13">= </tspan><tspan y="0">ri</tspan><tspan y="0" font-size="13">1</tspan></text>
      <text id="_--3" data-name="-" transform="translate(296.32 -292.662)" fill="#1b2d5b" font-size="30" font-family="Roboto-Regular, Roboto"><tspan x="0" y="0">-</tspan></text>
      <text id="_--4" data-name="-" transform="translate(329.138 -337.63)" fill="#1b2d5b" font-size="30" font-family="Roboto-Regular, Roboto"><tspan x="0" y="0">-</tspan></text>
      <g id="Grupo_73060" data-name="Grupo 73060" transform="translate(177.003 -392.82)">
        <line id="Línea_376" data-name="Línea 376" x1="91.641" transform="translate(0 0.732)" fill="#100142"/>
        <rect id="Rectángulo_32517" data-name="Rectángulo 32517" width="91.642" height="1.465" fill="#100142"/>
      </g>
      <circle id="Elipse_4797" data-name="Elipse 4797" cx="5.323" cy="5.323" r="5.323" transform="translate(171.679 -396.678)" fill="#100142"/>
      <g id="Grupo_73061" data-name="Grupo 73061" transform="translate(177.003 -304.762)">
        <line id="Línea_377" data-name="Línea 377" x1="91.641" transform="translate(0 0.732)" fill="#100142"/>
        <rect id="Rectángulo_32518" data-name="Rectángulo 32518" width="91.642" height="1.465" fill="#100142"/>
      </g>
      <circle id="Elipse_4798" data-name="Elipse 4798" cx="5.323" cy="5.323" r="5.323" transform="translate(171.679 -308.621)" fill="#100142"/>
      <g id="Grupo_73062" data-name="Grupo 73062" transform="translate(334.342 -392.82)">
        <line id="Línea_378" data-name="Línea 378" x2="91.641" transform="translate(0 0.732)" fill="#100142"/>
        <rect id="Rectángulo_32519" data-name="Rectángulo 32519" width="91.642" height="1.465" transform="translate(0)" fill="#100142"/>
      </g>
      <circle id="Elipse_4799" data-name="Elipse 4799" cx="5.323" cy="5.323" r="5.323" transform="translate(420.66 -396.678)" fill="#100142"/>
      <g id="Grupo_73063" data-name="Grupo 73063" transform="translate(334.342 -304.762)">
        <line id="Línea_379" data-name="Línea 379" x2="91.641" transform="translate(0 0.732)" fill="#100142"/>
        <rect id="Rectángulo_32520" data-name="Rectángulo 32520" width="91.642" height="1.465" transform="translate(0)" fill="#100142"/>
      </g>
      <circle id="Elipse_4800" data-name="Elipse 4800" cx="5.323" cy="5.323" r="5.323" transform="translate(420.66 -308.621)" fill="#100142"/>
      <path id="Trazado_144511" data-name="Trazado 144511" d="M177.34-357.165l-21.011-21.009,21.011-21.009,21.011,21.009ZM158.4-378.175l18.94,18.938,18.938-18.938L177.34-397.113Z" transform="translate(157.002 24.569)" fill="#100142"/>
      <rect id="Rectángulo_32521" data-name="Rectángulo 32521" width="1.465" height="19.24" transform="translate(333.609 -392.819)" fill="#100142"/>
      <rect id="Rectángulo_32522" data-name="Rectángulo 32522" width="1.465" height="29.602" transform="translate(333.609 -333.632)" fill="#100142"/>
      <line id="Línea_380" data-name="Línea 380" x2="31.819" transform="translate(172.33 -412.82)" fill="#100142" stroke="#100142" stroke-miterlimit="10" stroke-width="1"/>
      <path id="Trazado_144512" data-name="Trazado 144512" d="M79.4-416.046v-14l7,7Z" transform="translate(121.247 10.225)" fill="#100142"/>
      <line id="Línea_381" data-name="Línea 381" y2="87.325" transform="translate(268.644 -392.088)" fill="none" stroke="#100142" stroke-miterlimit="10" stroke-width="1"/>
    </g>
  </g>
</svg>
