<svg xmlns="http://www.w3.org/2000/svg" width="715" height="399" viewBox="0 0 715 399">
  <g id="Grupo_73089" data-name="Grupo 73089" transform="translate(-705 -15080.472)">
    <rect id="Rectángulo_31471" data-name="Rectángulo 31471" width="715" height="399" transform="translate(705 15080.472)" fill="#ad84ff" opacity="0.1"/>
    <g id="Grupo_73081" data-name="Grupo 73081" transform="translate(1511.523 15132.02)">
      <text id="_" data-name="+" transform="translate(-644.466 115.79)" fill="#1b2d5b" font-size="30" font-family="Roboto-Regular, Roboto"><tspan x="0" y="0">+</tspan></text>
      <text id="V1" transform="translate(-697.923 158.892)" fill="#1b2d5b" font-size="29" font-family="Roboto-Regular, Roboto"><tspan x="0" y="0">V</tspan><tspan y="0" font-size="12">1</tspan></text>
      <text id="i_gV1" data-name="i=gV1" transform="translate(-560.302 159.892)" fill="#1b2d5b" font-size="30" font-family="Roboto-Regular, Roboto"><tspan x="0" y="0">i=gV1</tspan></text>
      <text id="FCCC" transform="translate(-282.326 244.087)" fill="#1b2d5b" font-size="30" font-family="Roboto-Regular, Roboto"><tspan x="0" y="0">FCCC</tspan></text>
      <text id="FCCV" transform="translate(-663.84 243.087)" fill="#1b2d5b" font-size="29" font-family="Roboto-Regular, Roboto"><tspan x="0" y="0">FCCV</tspan></text>
      <text id="i1" transform="translate(-402.719 74.98)" fill="#1b2d5b" font-size="30" font-family="Roboto-Regular, Roboto"><tspan x="0" y="0">i1</tspan></text>
      <text id="_-" data-name="-" transform="translate(-635.779 200.653)" fill="#1b2d5b" font-size="30" font-family="Roboto-Regular, Roboto"><tspan x="0" y="0">-</tspan></text>
      <g id="Grupo_73065" data-name="Grupo 73065" transform="translate(-703.136 101.954)">
        <line id="Línea_382" data-name="Línea 382" x1="40.263" transform="translate(0 0.717)" fill="#100142"/>
        <rect id="Rectángulo_32523" data-name="Rectángulo 32523" width="40.263" height="1.434" fill="#100142"/>
      </g>
      <g id="Grupo_73066" data-name="Grupo 73066" transform="translate(-714.716 101.954)">
        <line id="Línea_383" data-name="Línea 383" x1="9.161" transform="translate(0 0.785)" fill="#100142"/>
        <rect id="Rectángulo_32524" data-name="Rectángulo 32524" width="9.161" height="1.57" fill="#100142"/>
      </g>
      <g id="Grupo_73067" data-name="Grupo 73067" transform="translate(-727.451 101.954)">
        <line id="Línea_384" data-name="Línea 384" x1="9.161" transform="translate(0 0.785)" fill="#100142"/>
        <rect id="Rectángulo_32525" data-name="Rectángulo 32525" width="9.161" height="1.57" fill="#100142"/>
      </g>
      <g id="Grupo_73068" data-name="Grupo 73068" transform="translate(-740.926 101.954)">
        <line id="Línea_385" data-name="Línea 385" x1="9.161" transform="translate(0 0.785)" fill="#100142"/>
        <rect id="Rectángulo_32526" data-name="Rectángulo 32526" width="9.161" height="1.57" fill="#100142"/>
      </g>
      <g id="Grupo_73069" data-name="Grupo 73069" transform="translate(-753.622 101.954)">
        <line id="Línea_386" data-name="Línea 386" x1="9.161" transform="translate(0 0.785)" fill="#100142"/>
        <rect id="Rectángulo_32527" data-name="Rectángulo 32527" width="9.161" height="1.57" fill="#100142"/>
      </g>
      <g id="Grupo_73070" data-name="Grupo 73070" transform="translate(-714.716 188.803)">
        <line id="Línea_387" data-name="Línea 387" x1="9.161" transform="translate(0 0.785)" fill="#100142"/>
        <rect id="Rectángulo_32528" data-name="Rectángulo 32528" width="9.161" height="1.57" fill="#100142"/>
      </g>
      <g id="Grupo_73071" data-name="Grupo 73071" transform="translate(-727.451 188.803)">
        <line id="Línea_388" data-name="Línea 388" x1="9.161" transform="translate(0 0.785)" fill="#100142"/>
        <rect id="Rectángulo_32529" data-name="Rectángulo 32529" width="9.161" height="1.57" fill="#100142"/>
      </g>
      <g id="Grupo_73072" data-name="Grupo 73072" transform="translate(-740.926 188.803)">
        <line id="Línea_389" data-name="Línea 389" x1="9.161" transform="translate(0 0.785)" fill="#100142"/>
        <rect id="Rectángulo_32530" data-name="Rectángulo 32530" width="9.161" height="1.57" fill="#100142"/>
      </g>
      <g id="Grupo_73073" data-name="Grupo 73073" transform="translate(-753.622 188.803)">
        <line id="Línea_390" data-name="Línea 390" x1="9.161" transform="translate(0 0.785)" fill="#100142"/>
        <rect id="Rectángulo_32531" data-name="Rectángulo 32531" width="9.161" height="1.57" fill="#100142"/>
      </g>
      <circle id="Elipse_4801" data-name="Elipse 4801" cx="5.211" cy="5.211" r="5.211" transform="translate(-708.345 98.177)" fill="#100142"/>
      <g id="Grupo_73074" data-name="Grupo 73074" transform="translate(-707.031 188.154)">
        <line id="Línea_391" data-name="Línea 391" x1="44.158" transform="translate(0 0.717)" fill="#100142"/>
        <rect id="Rectángulo_32532" data-name="Rectángulo 32532" width="44.158" height="1.434" fill="#100142"/>
      </g>
      <circle id="Elipse_4802" data-name="Elipse 4802" cx="5.211" cy="5.211" r="5.211" transform="translate(-708.345 184.377)" fill="#100142"/>
      <g id="Grupo_73075" data-name="Grupo 73075" transform="translate(-602.317 101.955)">
        <line id="Línea_392" data-name="Línea 392" x2="89.707" transform="translate(0 0.717)" fill="#100142"/>
        <rect id="Rectángulo_32533" data-name="Rectángulo 32533" width="89.708" height="1.434" fill="#100142"/>
      </g>
      <circle id="Elipse_4803" data-name="Elipse 4803" cx="5.211" cy="5.211" r="5.211" transform="translate(-517.82 98.177)" fill="#100142"/>
      <g id="Grupo_73076" data-name="Grupo 73076" transform="translate(-602.317 188.154)">
        <line id="Línea_393" data-name="Línea 393" x2="89.707" transform="translate(0 0.717)" fill="#100142"/>
        <rect id="Rectángulo_32534" data-name="Rectángulo 32534" width="89.708" height="1.434" fill="#100142"/>
      </g>
      <circle id="Elipse_4804" data-name="Elipse 4804" cx="5.211" cy="5.211" r="5.211" transform="translate(-517.82 184.377)" fill="#100142"/>
      <path id="Trazado_144513" data-name="Trazado 144513" d="M-641.877,137.974l-20.567-20.567,20.567-20.566,20.566,20.566Zm-18.54-20.567,18.54,18.54,18.539-18.54-18.539-18.539Z" transform="translate(39.56 22.935)" fill="#100142"/>
      <rect id="Rectángulo_32535" data-name="Rectángulo 32535" width="1.434" height="18.834" transform="translate(-603.034 101.955)" fill="#100142"/>
      <rect id="Rectángulo_32536" data-name="Rectángulo 32536" width="1.434" height="28.977" transform="translate(-603.034 159.894)" fill="#100142"/>
      <text id="_2" data-name="+" transform="translate(-294.605 115.79)" fill="#1b2d5b" font-size="30" font-family="Roboto-Regular, Roboto"><tspan x="0" y="0">+</tspan></text>
      <text id="i_βi1" data-name="i= βi1" transform="translate(-206.685 159.892)" fill="#1b2d5b" font-size="30" font-family="Roboto-Regular, Roboto"><tspan x="0" y="0">i= βi1</tspan></text>
      <text id="_--2" data-name="-" transform="translate(-285.919 200.653)" fill="#1b2d5b" font-size="30" font-family="Roboto-Regular, Roboto"><tspan x="0" y="0">-</tspan></text>
      <g id="Grupo_73077" data-name="Grupo 73077" transform="translate(-402.719 101.955)">
        <line id="Línea_394" data-name="Línea 394" x1="89.707" transform="translate(0 0.717)" fill="#100142"/>
        <rect id="Rectángulo_32537" data-name="Rectángulo 32537" width="89.708" height="1.434" fill="#100142"/>
      </g>
      <circle id="Elipse_4805" data-name="Elipse 4805" cx="5.211" cy="5.211" r="5.211" transform="translate(-407.93 98.177)" fill="#100142"/>
      <g id="Grupo_73078" data-name="Grupo 73078" transform="translate(-402.719 188.154)">
        <line id="Línea_395" data-name="Línea 395" x1="89.707" transform="translate(0 0.717)" fill="#100142"/>
        <rect id="Rectángulo_32538" data-name="Rectángulo 32538" width="89.708" height="1.434" fill="#100142"/>
      </g>
      <circle id="Elipse_4806" data-name="Elipse 4806" cx="5.211" cy="5.211" r="5.211" transform="translate(-407.93 184.377)" fill="#100142"/>
      <g id="Grupo_73079" data-name="Grupo 73079" transform="translate(-248.7 101.955)">
        <line id="Línea_396" data-name="Línea 396" x2="89.707" transform="translate(0 0.717)" fill="#100142"/>
        <rect id="Rectángulo_32539" data-name="Rectángulo 32539" width="89.708" height="1.434" fill="#100142"/>
      </g>
      <circle id="Elipse_4807" data-name="Elipse 4807" cx="5.211" cy="5.211" r="5.211" transform="translate(-164.203 98.177)" fill="#100142"/>
      <g id="Grupo_73080" data-name="Grupo 73080" transform="translate(-248.7 188.154)">
        <line id="Línea_397" data-name="Línea 397" x2="89.707" transform="translate(0 0.717)" fill="#100142"/>
        <rect id="Rectángulo_32540" data-name="Rectángulo 32540" width="89.708" height="1.434" fill="#100142"/>
      </g>
      <circle id="Elipse_4808" data-name="Elipse 4808" cx="5.211" cy="5.211" r="5.211" transform="translate(-164.203 184.377)" fill="#100142"/>
      <path id="Trazado_144514" data-name="Trazado 144514" d="M-395.261,137.974l-20.567-20.567,20.567-20.566,20.567,20.566ZM-413.8,117.406l18.539,18.54,18.54-18.54-18.54-18.539Z" transform="translate(146.56 22.935)" fill="#100142"/>
      <rect id="Rectángulo_32541" data-name="Rectángulo 32541" width="1.434" height="18.834" transform="translate(-249.417 101.955)" fill="#100142"/>
      <rect id="Rectángulo_32542" data-name="Rectángulo 32542" width="1.434" height="28.977" transform="translate(-249.417 159.894)" fill="#100142"/>
      <line id="Línea_398" data-name="Línea 398" x2="31.147" transform="translate(-407.293 82.377)" fill="#100142" stroke="#100142" stroke-miterlimit="10" stroke-width="1"/>
      <path id="Trazado_144515" data-name="Trazado 144515" d="M-492.754,79.683V65.98l6.851,6.851Z" transform="translate(113.184 9.545)" fill="#100142"/>
      <line id="Línea_399" data-name="Línea 399" y1="31.147" transform="translate(-602.317 131.91)" fill="#100142" stroke="#100142" stroke-miterlimit="10" stroke-width="1"/>
      <path id="Trazado_144516" data-name="Trazado 144516" d="M-639.176,109.766h-13.7l6.851-6.851Z" transform="translate(43.71 25.57)" fill="#100142"/>
      <line id="Línea_400" data-name="Línea 400" y2="85.483" transform="translate(-313.011 102.671)" fill="none" stroke="#100142" stroke-miterlimit="10" stroke-width="1"/>
      <line id="Línea_401" data-name="Línea 401" y1="31.147" transform="translate(-248.7 134.359)" fill="#100142" stroke="#100142" stroke-miterlimit="10" stroke-width="1"/>
      <path id="Trazado_144517" data-name="Trazado 144517" d="M-392.56,111.473h-13.7l6.851-6.851Z" transform="translate(150.71 26.311)" fill="#100142"/>
    </g>
  </g>
</svg>
