<?xml version="1.0" encoding="utf-8"?>
<!-- Generator: Adobe Illustrator 25.2.3, SVG Export Plug-In . SVG Version: 6.00 Build 0)  -->
<!DOCTYPE svg PUBLIC "-//W3C//DTD SVG 1.1//EN" "http://www.w3.org/Graphics/SVG/1.1/DTD/svg11.dtd" [
	<!ENTITY ns_extend "http://ns.adobe.com/Extensibility/1.0/">
	<!ENTITY ns_ai "http://ns.adobe.com/AdobeIllustrator/10.0/">
	<!ENTITY ns_graphs "http://ns.adobe.com/Graphs/1.0/">
	<!ENTITY ns_vars "http://ns.adobe.com/Variables/1.0/">
	<!ENTITY ns_imrep "http://ns.adobe.com/ImageReplacement/1.0/">
	<!ENTITY ns_sfw "http://ns.adobe.com/SaveForWeb/1.0/">
	<!ENTITY ns_custom "http://ns.adobe.com/GenericCustomNamespace/1.0/">
	<!ENTITY ns_adobe_xpath "http://ns.adobe.com/XPath/1.0/">
]>
<svg version="1.1" id="Capa_1" xmlns:x="&ns_extend;" xmlns:i="&ns_ai;" xmlns:graph="&ns_graphs;"
	 xmlns="http://www.w3.org/2000/svg" xmlns:xlink="http://www.w3.org/1999/xlink" x="0px" y="0px" viewBox="0 0 449.9 304.7"
	 style="enable-background:new 0 0 449.9 304.7;" xml:space="preserve">
<style type="text/css">
	.st0{enable-background:new    ;}
	.st1{fill:#1B2D5B;}
	.st2{fill:none;stroke:#808080;stroke-miterlimit:10;}
	.st3{fill:none;stroke:#100142;stroke-miterlimit:10;}
	.st4{fill:url(#Trazado_110841_1_);}
	.st5{opacity:0.75;fill:url(#Trazado_110842_1_);enable-background:new    ;}
	.st6{fill:url(#Trazado_110843_1_);}
	.st7{opacity:0.75;fill:url(#Trazado_110844_1_);enable-background:new    ;}
	.st8{fill:url(#Trazado_110845_1_);}
	.st9{opacity:0.75;fill:url(#Trazado_110846_1_);enable-background:new    ;}
	.st10{fill:url(#Trazado_110847_1_);}
	.st11{opacity:0.75;fill:url(#Trazado_110848_1_);enable-background:new    ;}
	.st12{fill:url(#Trazado_110849_1_);}
	.st13{opacity:0.75;fill:url(#Trazado_110850_1_);enable-background:new    ;}
	.st14{fill:url(#Trazado_110851_1_);}
	.st15{opacity:0.75;fill:url(#Trazado_110852_1_);enable-background:new    ;}
	.st16{fill:url(#Trazado_110853_1_);}
	.st17{opacity:0.75;fill:url(#Trazado_110854_1_);enable-background:new    ;}
	.st18{fill:url(#Elipse_4704_1_);}
	.st19{opacity:0.75;fill:url(#Trazado_110855_1_);enable-background:new    ;}
	.st20{fill:url(#Trazado_110856_1_);}
	.st21{fill:url(#Trazado_110857_1_);}
	.st22{fill:url(#Trazado_110858_1_);}
	.st23{fill:url(#Trazado_110859_1_);}
	.st24{fill:url(#Elipse_4705_1_);}
	.st25{opacity:0.75;fill:url(#Trazado_110860_1_);enable-background:new    ;}
	.st26{fill:url(#Elipse_4706_1_);}
	.st27{opacity:0.75;fill:url(#Trazado_110861_1_);enable-background:new    ;}
	.st28{fill:url(#Elipse_4707_1_);}
	.st29{opacity:0.75;fill:url(#Trazado_110862_1_);enable-background:new    ;}
	.st30{fill:url(#Trazado_110863_1_);}
	.st31{fill:url(#Trazado_110864_1_);}
	.st32{fill:url(#Trazado_110865_1_);}
	.st33{fill:url(#Trazado_110866_1_);}
	.st34{fill:url(#Trazado_110867_1_);}
	.st35{fill:url(#Trazado_110868_1_);}
</style>
<metadata>
	<sfw  xmlns="&ns_sfw;">
		<slices></slices>
		<sliceSourceBounds  bottomLeftOrigin="true" height="303.3" width="447.8" x="0" y="0"></sliceSourceBounds>
	</sfw>
</metadata>
<g id="Grupo_64305" transform="translate(484.366 -1194.178)">
	<g class="st0">
		<path class="st1" d="M-159.2,1368.5h-1.9l-3.7-6v6h-1.9v-9.1h1.9l3.7,6v-6h1.9V1368.5z"/>
		<path class="st1" d="M-153.7,1367.9c-0.4,0.5-1.1,0.8-1.9,0.8c-0.7,0-1.3-0.2-1.7-0.6c-0.4-0.4-0.6-1-0.6-1.8v-4.4h1.8v4.4
			c0,0.7,0.3,1.1,1,1.1c0.6,0,1-0.2,1.3-0.6v-4.8h1.8v6.8h-1.7L-153.7,1367.9z M-154.5,1358.9h2l-1.7,1.9h-1.5L-154.5,1358.9z"/>
		<path class="st1" d="M-147.7,1367.2c0.3,0,0.6-0.1,0.8-0.3c0.2-0.2,0.3-0.4,0.3-0.7h1.7c0,0.5-0.1,0.9-0.4,1.3
			c-0.2,0.4-0.6,0.7-1,0.9s-0.9,0.3-1.4,0.3c-1,0-1.7-0.3-2.3-0.9c-0.6-0.6-0.8-1.5-0.8-2.6v-0.1c0-1,0.3-1.9,0.8-2.5
			c0.6-0.6,1.3-0.9,2.3-0.9c0.8,0,1.5,0.2,2,0.7c0.5,0.5,0.8,1.1,0.8,1.9h-1.7c0-0.4-0.1-0.6-0.3-0.9c-0.2-0.2-0.5-0.3-0.8-0.3
			c-0.4,0-0.7,0.2-1,0.5c-0.2,0.3-0.3,0.8-0.3,1.5v0.2c0,0.7,0.1,1.2,0.3,1.5C-148.5,1367.1-148.2,1367.2-147.7,1367.2z"/>
		<path class="st1" d="M-141.9,1368.5h-1.8v-9.6h1.8V1368.5z"/>
		<path class="st1" d="M-137.3,1368.7c-1,0-1.8-0.3-2.4-0.9c-0.6-0.6-0.9-1.4-0.9-2.4v-0.2c0-0.7,0.1-1.3,0.4-1.8
			c0.3-0.5,0.6-1,1.1-1.2c0.5-0.3,1-0.4,1.7-0.4c0.9,0,1.7,0.3,2.2,0.9c0.5,0.6,0.8,1.4,0.8,2.5v0.7h-4.3c0.1,0.4,0.2,0.8,0.5,1.1
			s0.7,0.4,1.1,0.4c0.7,0,1.2-0.3,1.6-0.8l0.9,1c-0.3,0.4-0.6,0.7-1.1,0.9S-136.8,1368.7-137.3,1368.7z M-137.5,1363.1
			c-0.4,0-0.7,0.1-0.9,0.4c-0.2,0.2-0.4,0.6-0.4,1h2.5v-0.1c0-0.4-0.1-0.7-0.3-0.9C-136.9,1363.2-137.1,1363.1-137.5,1363.1z"/>
		<path class="st1" d="M-133.8,1365.1c0-0.7,0.1-1.3,0.4-1.8s0.6-0.9,1.1-1.2c0.5-0.3,1.1-0.4,1.7-0.4c0.9,0,1.7,0.3,2.2,0.8
			c0.6,0.6,0.9,1.3,1,2.3l0,0.5c0,1-0.3,1.9-0.9,2.5c-0.6,0.6-1.4,0.9-2.3,0.9s-1.8-0.3-2.3-0.9
			C-133.5,1367.1-133.8,1366.3-133.8,1365.1L-133.8,1365.1z M-132,1365.2c0,0.6,0.1,1.1,0.4,1.5s0.6,0.5,1,0.5c0.4,0,0.8-0.2,1-0.5
			c0.2-0.3,0.4-0.9,0.4-1.6c0-0.6-0.1-1.1-0.4-1.5c-0.2-0.3-0.6-0.5-1-0.5c-0.4,0-0.8,0.2-1,0.5C-131.9,1364-132,1364.5-132,1365.2z
			"/>
	</g>
	<g class="st0">
		<path class="st1" d="M-166.7,1380.2c0-1,0.1-1.9,0.4-2.7c0.3-0.9,0.6-1.6,1.1-2.3c0.5-0.7,1-1.1,1.6-1.4l0.4,1
			c-0.6,0.5-1.1,1.1-1.4,2.1s-0.5,2-0.5,3.3v0.2c0,1.3,0.2,2.4,0.5,3.3c0.3,0.9,0.8,1.7,1.4,2.1l-0.4,1c-0.6-0.3-1.1-0.7-1.6-1.4
			c-0.5-0.6-0.9-1.4-1.1-2.2c-0.3-0.8-0.4-1.7-0.4-2.6V1380.2z"/>
		<path class="st1" d="M-156.2,1380.6c0,1-0.2,1.9-0.7,2.5c-0.5,0.6-1.1,0.9-1.9,0.9c-0.7,0-1.2-0.2-1.7-0.7v3.2h-1.8v-9.4h1.7
			l0.1,0.7c0.4-0.5,1-0.8,1.7-0.8c0.8,0,1.5,0.3,1.9,0.9C-156.4,1378.6-156.2,1379.4-156.2,1380.6L-156.2,1380.6z M-158,1380.5
			c0-0.6-0.1-1.1-0.3-1.5s-0.5-0.5-1-0.5c-0.6,0-1,0.2-1.2,0.7v2.8c0.2,0.4,0.6,0.7,1.2,0.7C-158.4,1382.6-158,1381.9-158,1380.5z"
			/>
		<path class="st1" d="M-151.2,1378.9c-0.2,0-0.5,0-0.7,0c-0.7,0-1.1,0.2-1.3,0.7v4.4h-1.8v-6.8h1.7l0.1,0.8
			c0.4-0.6,0.9-0.9,1.5-0.9c0.2,0,0.4,0,0.6,0.1L-151.2,1378.9z"/>
		<path class="st1" d="M-150.9,1380.5c0-0.7,0.1-1.3,0.4-1.8s0.6-0.9,1.1-1.2c0.5-0.3,1.1-0.4,1.7-0.4c0.9,0,1.7,0.3,2.2,0.8
			c0.6,0.6,0.9,1.3,1,2.3l0,0.5c0,1-0.3,1.9-0.9,2.5c-0.6,0.6-1.4,0.9-2.3,0.9s-1.8-0.3-2.3-0.9
			C-150.6,1382.5-150.9,1381.7-150.9,1380.5L-150.9,1380.5z M-149.1,1380.6c0,0.6,0.1,1.1,0.4,1.5s0.6,0.5,1,0.5
			c0.4,0,0.8-0.2,1-0.5c0.2-0.3,0.4-0.9,0.4-1.6c0-0.6-0.1-1.1-0.4-1.5c-0.2-0.3-0.6-0.5-1-0.5c-0.4,0-0.8,0.2-1,0.5
			C-148.9,1379.4-149.1,1379.9-149.1,1380.6z"/>
		<path class="st1" d="M-141.2,1375.5v1.7h1.2v1.3h-1.2v3.4c0,0.3,0,0.4,0.1,0.5c0.1,0.1,0.3,0.2,0.6,0.2c0.2,0,0.4,0,0.5,0v1.4
			c-0.4,0.1-0.7,0.2-1.1,0.2c-1.3,0-1.9-0.6-1.9-1.9v-3.7h-1v-1.3h1v-1.7H-141.2z"/>
		<path class="st1" d="M-139.5,1380.5c0-0.7,0.1-1.3,0.4-1.8s0.6-0.9,1.1-1.2c0.5-0.3,1.1-0.4,1.7-0.4c0.9,0,1.7,0.3,2.2,0.8
			c0.6,0.6,0.9,1.3,1,2.3l0,0.5c0,1-0.3,1.9-0.9,2.5c-0.6,0.6-1.4,0.9-2.3,0.9s-1.8-0.3-2.3-0.9
			C-139.2,1382.5-139.5,1381.7-139.5,1380.5L-139.5,1380.5z M-137.7,1380.6c0,0.6,0.1,1.1,0.4,1.5s0.6,0.5,1,0.5
			c0.4,0,0.8-0.2,1-0.5c0.2-0.3,0.4-0.9,0.4-1.6c0-0.6-0.1-1.1-0.4-1.5c-0.2-0.3-0.6-0.5-1-0.5c-0.4,0-0.8,0.2-1,0.5
			C-137.5,1379.4-137.7,1379.9-137.7,1380.6z"/>
		<path class="st1" d="M-130.3,1377.2l0.1,0.8c0.5-0.6,1.1-0.9,1.9-0.9c0.7,0,1.3,0.2,1.6,0.6c0.4,0.4,0.5,1.1,0.5,1.9v4.4h-1.8
			v-4.3c0-0.4-0.1-0.7-0.2-0.8c-0.2-0.2-0.4-0.3-0.8-0.3c-0.5,0-0.9,0.2-1.1,0.7v4.8h-1.8v-6.8H-130.3z"/>
		<path class="st1" d="M-121.6,1384.1c-1,0-1.8-0.3-2.4-0.9c-0.6-0.6-0.9-1.4-0.9-2.4v-0.2c0-0.7,0.1-1.3,0.4-1.8
			c0.3-0.5,0.6-1,1.1-1.2c0.5-0.3,1-0.4,1.7-0.4c0.9,0,1.7,0.3,2.2,0.9c0.5,0.6,0.8,1.4,0.8,2.5v0.7h-4.3c0.1,0.4,0.2,0.8,0.5,1.1
			s0.7,0.4,1.1,0.4c0.7,0,1.2-0.3,1.6-0.8l0.9,1c-0.3,0.4-0.6,0.7-1.1,0.9S-121.1,1384.1-121.6,1384.1z M-121.8,1378.5
			c-0.4,0-0.7,0.1-0.9,0.4c-0.2,0.2-0.4,0.6-0.4,1h2.5v-0.1c0-0.4-0.1-0.7-0.3-0.9C-121.2,1378.6-121.4,1378.5-121.8,1378.5z"/>
		<path class="st1" d="M-114.1,1382.1c0-0.2-0.1-0.4-0.3-0.5c-0.2-0.1-0.6-0.2-1.1-0.3c-1.6-0.3-2.4-1-2.4-2.1
			c0-0.6,0.2-1.1,0.7-1.5c0.5-0.4,1.2-0.6,2-0.6c0.9,0,1.5,0.2,2.1,0.6c0.5,0.4,0.8,0.9,0.8,1.6h-1.8c0-0.3-0.1-0.5-0.2-0.6
			c-0.2-0.2-0.4-0.3-0.8-0.3c-0.3,0-0.5,0.1-0.7,0.2s-0.2,0.3-0.2,0.5c0,0.2,0.1,0.4,0.3,0.5c0.2,0.1,0.5,0.2,1,0.3s0.8,0.2,1.1,0.3
			c1,0.4,1.4,1,1.4,1.8c0,0.6-0.3,1.1-0.8,1.5c-0.5,0.4-1.2,0.6-2.1,0.6c-0.6,0-1.1-0.1-1.5-0.3c-0.4-0.2-0.8-0.5-1-0.8
			c-0.2-0.4-0.4-0.7-0.4-1.1h1.7c0,0.3,0.1,0.6,0.4,0.7c0.2,0.2,0.5,0.3,0.9,0.3c0.3,0,0.6-0.1,0.8-0.2
			C-114.2,1382.5-114.1,1382.3-114.1,1382.1z"/>
		<path class="st1" d="M-104.4,1378.8h2.3v1.6h-2.3v2.6h-1.7v-2.6h-2.3v-1.6h2.3v-2.5h1.7V1378.8z"/>
		<path class="st1" d="M-96.1,1377.2l0.1,0.8c0.5-0.6,1.1-0.9,1.9-0.9c0.7,0,1.3,0.2,1.6,0.6c0.4,0.4,0.5,1.1,0.5,1.9v4.4h-1.8v-4.3
			c0-0.4-0.1-0.7-0.2-0.8c-0.2-0.2-0.4-0.3-0.8-0.3c-0.5,0-0.9,0.2-1.1,0.7v4.8h-1.8v-6.8H-96.1z"/>
		<path class="st1" d="M-87.5,1384.1c-1,0-1.8-0.3-2.4-0.9c-0.6-0.6-0.9-1.4-0.9-2.4v-0.2c0-0.7,0.1-1.3,0.4-1.8
			c0.3-0.5,0.6-1,1.1-1.2c0.5-0.3,1-0.4,1.7-0.4c0.9,0,1.7,0.3,2.2,0.9c0.5,0.6,0.8,1.4,0.8,2.5v0.7H-89c0.1,0.4,0.2,0.8,0.5,1.1
			s0.7,0.4,1.1,0.4c0.7,0,1.2-0.3,1.6-0.8l0.9,1c-0.3,0.4-0.6,0.7-1.1,0.9S-86.9,1384.1-87.5,1384.1z M-87.7,1378.5
			c-0.4,0-0.7,0.1-0.9,0.4c-0.2,0.2-0.4,0.6-0.4,1h2.5v-0.1c0-0.4-0.1-0.7-0.3-0.9C-87,1378.6-87.3,1378.5-87.7,1378.5z"/>
		<path class="st1" d="M-79.6,1383.3c-0.4,0.5-1.1,0.8-1.9,0.8c-0.7,0-1.3-0.2-1.7-0.6c-0.4-0.4-0.6-1-0.6-1.8v-4.4h1.8v4.4
			c0,0.7,0.3,1.1,1,1.1c0.6,0,1-0.2,1.3-0.6v-4.8h1.8v6.8h-1.7L-79.6,1383.3z"/>
		<path class="st1" d="M-74.3,1375.5v1.7h1.2v1.3h-1.2v3.4c0,0.3,0,0.4,0.1,0.5c0.1,0.1,0.3,0.2,0.6,0.2c0.2,0,0.4,0,0.5,0v1.4
			c-0.4,0.1-0.7,0.2-1.1,0.2c-1.3,0-1.9-0.6-1.9-1.9v-3.7h-1v-1.3h1v-1.7H-74.3z"/>
		<path class="st1" d="M-68.3,1378.9c-0.2,0-0.5,0-0.7,0c-0.7,0-1.1,0.2-1.3,0.7v4.4h-1.8v-6.8h1.7l0,0.8c0.4-0.6,0.9-0.9,1.5-0.9
			c0.2,0,0.4,0,0.6,0.1L-68.3,1378.9z"/>
		<path class="st1" d="M-68,1380.5c0-0.7,0.1-1.3,0.4-1.8c0.3-0.5,0.6-0.9,1.1-1.2c0.5-0.3,1.1-0.4,1.7-0.4c0.9,0,1.7,0.3,2.2,0.8
			c0.6,0.6,0.9,1.3,1,2.3l0,0.5c0,1-0.3,1.9-0.9,2.5c-0.6,0.6-1.4,0.9-2.3,0.9s-1.8-0.3-2.3-0.9C-67.7,1382.5-68,1381.7-68,1380.5
			L-68,1380.5z M-66.2,1380.6c0,0.6,0.1,1.1,0.4,1.5s0.6,0.5,1,0.5c0.4,0,0.8-0.2,1-0.5c0.2-0.3,0.4-0.9,0.4-1.6
			c0-0.6-0.1-1.1-0.4-1.5c-0.2-0.3-0.6-0.5-1-0.5c-0.4,0-0.8,0.2-1,0.5C-66.1,1379.4-66.2,1379.9-66.2,1380.6z"/>
		<path class="st1" d="M-58.8,1377.2l0.1,0.8c0.5-0.6,1.1-0.9,1.9-0.9c0.7,0,1.3,0.2,1.6,0.6c0.4,0.4,0.5,1.1,0.5,1.9v4.4h-1.8v-4.3
			c0-0.4-0.1-0.7-0.3-0.8s-0.4-0.3-0.8-0.3c-0.5,0-0.9,0.2-1.1,0.7v4.8h-1.8v-6.8H-58.8z"/>
		<path class="st1" d="M-50.1,1384.1c-1,0-1.8-0.3-2.4-0.9c-0.6-0.6-0.9-1.4-0.9-2.4v-0.2c0-0.7,0.1-1.3,0.4-1.8
			c0.3-0.5,0.6-1,1.1-1.2c0.5-0.3,1-0.4,1.7-0.4c0.9,0,1.7,0.3,2.2,0.9s0.8,1.4,0.8,2.5v0.7h-4.3c0.1,0.4,0.2,0.8,0.5,1.1
			c0.3,0.3,0.7,0.4,1.1,0.4c0.7,0,1.2-0.3,1.6-0.8l0.9,1c-0.3,0.4-0.6,0.7-1.1,0.9S-49.6,1384.1-50.1,1384.1z M-50.3,1378.5
			c-0.4,0-0.7,0.1-0.9,0.4c-0.2,0.2-0.4,0.6-0.4,1h2.5v-0.1c0-0.4-0.1-0.7-0.3-0.9C-49.7,1378.6-50,1378.5-50.3,1378.5z"/>
		<path class="st1" d="M-42.6,1382.1c0-0.2-0.1-0.4-0.3-0.5c-0.2-0.1-0.6-0.2-1.1-0.3c-1.6-0.3-2.4-1-2.4-2.1c0-0.6,0.2-1.1,0.7-1.5
			c0.5-0.4,1.2-0.6,2-0.6c0.9,0,1.5,0.2,2.1,0.6c0.5,0.4,0.8,0.9,0.8,1.6h-1.8c0-0.3-0.1-0.5-0.3-0.6c-0.2-0.2-0.4-0.3-0.8-0.3
			c-0.3,0-0.5,0.1-0.7,0.2s-0.3,0.3-0.3,0.5c0,0.2,0.1,0.4,0.3,0.5s0.5,0.2,1,0.3s0.8,0.2,1.1,0.3c1,0.4,1.4,1,1.4,1.8
			c0,0.6-0.3,1.1-0.8,1.5c-0.5,0.4-1.2,0.6-2.1,0.6c-0.6,0-1.1-0.1-1.5-0.3c-0.4-0.2-0.8-0.5-1-0.8c-0.3-0.4-0.4-0.7-0.4-1.1h1.7
			c0,0.3,0.1,0.6,0.4,0.7c0.2,0.2,0.5,0.3,0.9,0.3c0.3,0,0.6-0.1,0.8-0.2C-42.7,1382.5-42.6,1382.3-42.6,1382.1z"/>
		<path class="st1" d="M-36.6,1380.4c0,0.9-0.1,1.9-0.4,2.7s-0.7,1.6-1.2,2.3c-0.5,0.7-1.1,1.1-1.6,1.4l-0.4-1
			c0.6-0.4,1.1-1.1,1.4-2.1s0.5-2,0.5-3.2v-0.3c0-1.2-0.2-2.4-0.5-3.3c-0.3-1-0.8-1.7-1.4-2.1l0.4-1c0.6,0.2,1.1,0.7,1.6,1.3
			s0.9,1.4,1.2,2.3c0.3,0.9,0.4,1.8,0.4,2.7V1380.4z"/>
	</g>
	<g class="st0">
		<path class="st1" d="M-180.2,1289.3h-3.6v2.4h4.2v1.5h-6.1v-9.1h6.1v1.5h-4.2v2.2h3.6V1289.3z"/>
		<path class="st1" d="M-176.7,1293.3h-1.8v-9.6h1.8V1293.3z"/>
		<path class="st1" d="M-172.1,1293.4c-1,0-1.8-0.3-2.4-0.9c-0.6-0.6-0.9-1.4-0.9-2.4v-0.2c0-0.7,0.1-1.3,0.4-1.8
			c0.3-0.5,0.6-1,1.1-1.2c0.5-0.3,1-0.4,1.7-0.4c0.9,0,1.7,0.3,2.2,0.9c0.5,0.6,0.8,1.4,0.8,2.5v0.7h-4.3c0.1,0.4,0.2,0.8,0.5,1.1
			s0.7,0.4,1.1,0.4c0.7,0,1.2-0.3,1.6-0.8l0.9,1c-0.3,0.4-0.6,0.7-1.1,0.9S-171.5,1293.4-172.1,1293.4z M-172.3,1287.8
			c-0.4,0-0.7,0.1-0.9,0.4c-0.2,0.2-0.4,0.6-0.4,1h2.5v-0.1c0-0.4-0.1-0.7-0.3-0.9C-171.6,1288-171.9,1287.8-172.3,1287.8z"/>
		<path class="st1" d="M-165.5,1292c0.3,0,0.6-0.1,0.8-0.3c0.2-0.2,0.3-0.4,0.3-0.7h1.7c0,0.5-0.1,0.9-0.4,1.3
			c-0.2,0.4-0.6,0.7-1,0.9s-0.9,0.3-1.4,0.3c-1,0-1.7-0.3-2.3-0.9c-0.6-0.6-0.8-1.5-0.8-2.6v-0.1c0-1,0.3-1.9,0.8-2.5
			c0.6-0.6,1.3-0.9,2.3-0.9c0.8,0,1.5,0.2,2,0.7c0.5,0.5,0.8,1.1,0.8,1.9h-1.7c0-0.4-0.1-0.6-0.3-0.9c-0.2-0.2-0.5-0.3-0.8-0.3
			c-0.4,0-0.7,0.2-1,0.5c-0.2,0.3-0.3,0.8-0.3,1.5v0.2c0,0.7,0.1,1.2,0.3,1.5C-166.2,1291.8-165.9,1292-165.5,1292z"/>
		<path class="st1" d="M-159.4,1284.8v1.7h1.2v1.3h-1.2v3.4c0,0.3,0,0.4,0.1,0.5c0.1,0.1,0.3,0.2,0.6,0.2c0.2,0,0.4,0,0.5,0v1.4
			c-0.4,0.1-0.7,0.2-1.1,0.2c-1.3,0-1.9-0.6-1.9-1.9v-3.7h-1v-1.3h1v-1.7H-159.4z"/>
		<path class="st1" d="M-153.5,1288.2c-0.2,0-0.5,0-0.7,0c-0.7,0-1.1,0.2-1.3,0.7v4.4h-1.8v-6.8h1.7l0.1,0.8
			c0.4-0.6,0.9-0.9,1.5-0.9c0.2,0,0.4,0,0.6,0.1L-153.5,1288.2z"/>
		<path class="st1" d="M-152.9,1289.8c0-0.7,0.1-1.3,0.4-1.8s0.6-0.9,1.1-1.2c0.5-0.3,1.1-0.4,1.7-0.4c0.9,0,1.7,0.3,2.2,0.8
			c0.6,0.6,0.9,1.3,1,2.3l0,0.5c0,1-0.3,1.9-0.9,2.5c-0.6,0.6-1.4,0.9-2.3,0.9s-1.8-0.3-2.3-0.9
			C-152.6,1291.9-152.9,1291-152.9,1289.8L-152.9,1289.8z M-151.1,1290c0,0.6,0.1,1.1,0.4,1.5s0.6,0.5,1,0.5c0.4,0,0.8-0.2,1-0.5
			c0.2-0.3,0.4-0.9,0.4-1.6c0-0.6-0.1-1.1-0.4-1.5c-0.2-0.3-0.6-0.5-1-0.5c-0.4,0-0.8,0.2-1,0.5
			C-150.9,1288.7-151.1,1289.2-151.1,1290z M-149.3,1283.7h2l-1.7,1.9h-1.5L-149.3,1283.7z"/>
		<path class="st1" d="M-143.7,1286.5l0.1,0.8c0.5-0.6,1.1-0.9,1.9-0.9c0.7,0,1.3,0.2,1.6,0.6c0.4,0.4,0.5,1.1,0.5,1.9v4.4h-1.8
			v-4.3c0-0.4-0.1-0.7-0.2-0.8c-0.2-0.2-0.4-0.3-0.8-0.3c-0.5,0-0.9,0.2-1.1,0.7v4.8h-1.8v-6.8H-143.7z"/>
	</g>
	<g class="st0">
		<path class="st1" d="M-364.1,1205.3h-3.3l-0.6,1.9h-2l3.4-9.1h1.7l3.4,9.1h-2L-364.1,1205.3z M-366.9,1203.8h2.3l-1.1-3.4
			L-366.9,1203.8z M-365.4,1195.6h2l-1.7,1.9h-1.5L-365.4,1195.6z"/>
		<path class="st1" d="M-358.6,1198.7v1.7h1.2v1.3h-1.2v3.4c0,0.3,0,0.4,0.1,0.5s0.3,0.2,0.6,0.2c0.2,0,0.4,0,0.5,0v1.4
			c-0.4,0.1-0.7,0.2-1.1,0.2c-1.3,0-1.9-0.6-1.9-1.9v-3.7h-1v-1.3h1v-1.7H-358.6z"/>
		<path class="st1" d="M-356.9,1203.7c0-0.7,0.1-1.3,0.4-1.8c0.3-0.5,0.6-0.9,1.1-1.2s1.1-0.4,1.7-0.4c0.9,0,1.7,0.3,2.2,0.8
			c0.6,0.6,0.9,1.3,1,2.3l0,0.5c0,1-0.3,1.9-0.9,2.5c-0.6,0.6-1.4,0.9-2.3,0.9s-1.8-0.3-2.3-0.9
			C-356.6,1205.7-356.9,1204.9-356.9,1203.7L-356.9,1203.7z M-355.1,1203.9c0,0.6,0.1,1.1,0.4,1.5s0.6,0.5,1,0.5
			c0.4,0,0.8-0.2,1-0.5c0.2-0.3,0.4-0.9,0.4-1.6c0-0.6-0.1-1.1-0.4-1.5c-0.2-0.3-0.6-0.5-1-0.5c-0.4,0-0.8,0.2-1,0.5
			C-355,1202.6-355.1,1203.1-355.1,1203.9z"/>
		<path class="st1" d="M-347.7,1200.4l0.1,0.8c0.5-0.6,1.1-0.9,1.9-0.9c0.9,0,1.5,0.3,1.8,1c0.5-0.7,1.2-1,2-1
			c0.7,0,1.3,0.2,1.6,0.6c0.4,0.4,0.5,1.1,0.5,1.9v4.3h-1.8v-4.3c0-0.4-0.1-0.7-0.2-0.8c-0.2-0.2-0.4-0.3-0.8-0.3
			c-0.5,0-0.9,0.3-1.1,0.8l0,4.7h-1.8v-4.3c0-0.4-0.1-0.7-0.2-0.9c-0.2-0.2-0.4-0.3-0.8-0.3c-0.5,0-0.9,0.2-1.1,0.6v4.8h-1.8v-6.8
			H-347.7z"/>
		<path class="st1" d="M-338.5,1203.7c0-0.7,0.1-1.3,0.4-1.8c0.3-0.5,0.6-0.9,1.1-1.2s1.1-0.4,1.7-0.4c0.9,0,1.7,0.3,2.2,0.8
			c0.6,0.6,0.9,1.3,1,2.3l0,0.5c0,1-0.3,1.9-0.9,2.5c-0.6,0.6-1.4,0.9-2.3,0.9s-1.8-0.3-2.3-0.9
			C-338.2,1205.7-338.5,1204.9-338.5,1203.7L-338.5,1203.7z M-336.7,1203.9c0,0.6,0.1,1.1,0.4,1.5s0.6,0.5,1,0.5
			c0.4,0,0.8-0.2,1-0.5c0.2-0.3,0.4-0.9,0.4-1.6c0-0.6-0.1-1.1-0.4-1.5c-0.2-0.3-0.6-0.5-1-0.5c-0.4,0-0.8,0.2-1,0.5
			C-336.6,1202.6-336.7,1203.1-336.7,1203.9z"/>
	</g>
	<line id="Línea_322" class="st2" x1="-341.6" y1="1289.8" x2="-201.1" y2="1289.8"/>
	<line id="Línea_323" class="st2" x1="-317.8" y1="1364.8" x2="-177.2" y2="1364.8"/>
	<circle id="Elipse_4702" class="st3" cx="-348" cy="1364.8" r="120.9"/>
	<circle id="Elipse_4703" class="st3" cx="-349.9" cy="1364.8" r="80.6"/>
	<g id="Grupo_64288">
		
			<linearGradient id="Trazado_110841_1_" gradientUnits="userSpaceOnUse" x1="-496.9237" y1="1929.8878" x2="-497.8617" y2="1929.4238" gradientTransform="matrix(26.306 0 0 -26.3049 12732.9658 52044.4375)">
			<stop  offset="0" style="stop-color:#50EEEF"/>
			<stop  offset="1" style="stop-color:#68A2F4"/>
		</linearGradient>
		<path id="Trazado_110841" class="st4" d="M-336.7,1284.2c0,7.3-5.9,13.2-13.2,13.2c0,0,0,0,0,0c-7.3,0-13.2-5.9-13.2-13.2
			c0,0,0,0,0,0c0-7.3,5.9-13.2,13.2-13.2S-336.7,1276.9-336.7,1284.2z"/>
		
			<linearGradient id="Trazado_110842_1_" gradientUnits="userSpaceOnUse" x1="-497.8025" y1="1929.6851" x2="-496.8025" y2="1929.6851" gradientTransform="matrix(24.844 0 0 -26.3051 12004.3652 52044.6758)">
			<stop  offset="0" style="stop-color:#7D4CCA"/>
			<stop  offset="0.529" style="stop-color:#1B2AAB"/>
			<stop  offset="1" style="stop-color:#17256E"/>
		</linearGradient>
		<path id="Trazado_110842" class="st5" d="M-341.6,1290.9c-5.3,0-9.6-4.3-9.6-9.6c0,0,0,0,0,0c0-4.1,2.7-7.8,6.6-9.1
			c-1.7-0.7-3.4-1.1-5.2-1.1c-7.3,0-13.2,5.9-13.2,13.2c0,7.3,5.9,13.2,13.2,13.2c0,0,0,0,0,0c4.9,0,9.4-2.8,11.7-7.1
			C-339.3,1290.6-340.4,1290.9-341.6,1290.9z"/>
	</g>
	<g id="Grupo_64289">
		
			<linearGradient id="Trazado_110843_1_" gradientUnits="userSpaceOnUse" x1="-496.9238" y1="1929.8879" x2="-497.8618" y2="1929.424" gradientTransform="matrix(26.309 0 0 -26.3051 12709.0537 52004.3164)">
			<stop  offset="0" style="stop-color:#50EEEF"/>
			<stop  offset="1" style="stop-color:#68A2F4"/>
		</linearGradient>
		<path id="Trazado_110843" class="st6" d="M-362.1,1243.8c0,7.3-5.9,13.2-13.1,13.2c0,0,0,0,0,0c-7.3,0-13.2-5.9-13.2-13.2
			c0,0,0,0,0,0c0-7.3,5.9-13.2,13.2-13.2C-368,1230.7-362.1,1236.6-362.1,1243.8z"/>
		
			<linearGradient id="Trazado_110844_1_" gradientUnits="userSpaceOnUse" x1="-497.8025" y1="1929.6864" x2="-496.8025" y2="1929.6864" gradientTransform="matrix(24.843 0 0 -26.3071 11978.4785 52008.3555)">
			<stop  offset="0" style="stop-color:#7D4CCA"/>
			<stop  offset="0.529" style="stop-color:#1B2AAB"/>
			<stop  offset="1" style="stop-color:#17256E"/>
		</linearGradient>
		<path id="Trazado_110844" class="st7" d="M-367,1250.5c-5.3,0-9.6-4.3-9.6-9.6c0-4.1,2.7-7.8,6.6-9.1c-1.7-0.7-3.4-1.1-5.2-1.1
			c-7.3,0-13.2,5.9-13.2,13.2c0,7.3,5.9,13.2,13.1,13.2c0,0,0,0,0,0c4.9,0,9.4-2.8,11.7-7.1C-364.7,1250.3-365.8,1250.5-367,1250.5z
			"/>
	</g>
	<g id="Grupo_64290">
		
			<linearGradient id="Trazado_110845_1_" gradientUnits="userSpaceOnUse" x1="-496.9237" y1="1929.8878" x2="-497.8617" y2="1929.4238" gradientTransform="matrix(26.306 0 0 -26.3049 12758.3594 52007.5195)">
			<stop  offset="0" style="stop-color:#50EEEF"/>
			<stop  offset="1" style="stop-color:#68A2F4"/>
		</linearGradient>
		<path id="Trazado_110845" class="st8" d="M-311.4,1247.3c0,7.3-5.9,13.2-13.2,13.2c0,0,0,0,0,0c-7.3,0-13.2-5.9-13.2-13.2
			c0,0,0,0,0,0c0-7.3,5.9-13.2,13.2-13.2S-311.4,1240-311.4,1247.3z"/>
		
			<linearGradient id="Trazado_110846_1_" gradientUnits="userSpaceOnUse" x1="-497.8025" y1="1929.6851" x2="-496.8025" y2="1929.6851" gradientTransform="matrix(24.844 0 0 -26.3051 12029.7646 52007.7578)">
			<stop  offset="0" style="stop-color:#7D4CCA"/>
			<stop  offset="0.529" style="stop-color:#1B2AAB"/>
			<stop  offset="1" style="stop-color:#17256E"/>
		</linearGradient>
		<path id="Trazado_110846" class="st9" d="M-316.2,1253.9c-5.3,0-9.6-4.3-9.6-9.6c0-4.1,2.7-7.8,6.6-9.1c-1.7-0.7-3.4-1.1-5.2-1.1
			c-7.3,0-13.2,5.9-13.2,13.2c0,7.3,5.9,13.2,13.2,13.2c0,0,0,0,0,0c4.9,0,9.4-2.8,11.7-7.1C-313.9,1253.7-315,1253.9-316.2,1253.9z
			"/>
	</g>
	<g id="Grupo_64291">
		
			<linearGradient id="Trazado_110847_1_" gradientUnits="userSpaceOnUse" x1="-496.9237" y1="1929.8884" x2="-497.8617" y2="1929.4244" gradientTransform="matrix(26.306 0 0 -26.3059 12729.6963 52207.4766)">
			<stop  offset="0" style="stop-color:#50EEEF"/>
			<stop  offset="1" style="stop-color:#68A2F4"/>
		</linearGradient>
		<path id="Trazado_110847" class="st10" d="M-340,1445.3c0,7.3-5.9,13.2-13.2,13.2s-13.2-5.9-13.2-13.2c0-7.3,5.9-13.2,13.2-13.2
			S-340,1438.1-340,1445.3z"/>
		
			<linearGradient id="Trazado_110848_1_" gradientUnits="userSpaceOnUse" x1="-497.8025" y1="1929.6857" x2="-496.8025" y2="1929.6857" gradientTransform="matrix(24.844 0 0 -26.306 12001.082 52207.7148)">
			<stop  offset="0" style="stop-color:#7D4CCA"/>
			<stop  offset="0.529" style="stop-color:#1B2AAB"/>
			<stop  offset="1" style="stop-color:#17256E"/>
		</linearGradient>
		<path id="Trazado_110848" class="st11" d="M-344.9,1452c-5.3,0-9.6-4.3-9.6-9.6c0-4.1,2.7-7.8,6.6-9.1c-1.7-0.7-3.4-1.1-5.2-1.1
			c-7.3,0-13.2,5.9-13.2,13.2c0,7.3,5.9,13.2,13.2,13.2c4.9,0,9.4-2.8,11.7-7.1C-342.6,1451.8-343.7,1452-344.9,1452z"/>
	</g>
	<g id="Grupo_64292">
		
			<linearGradient id="Trazado_110849_1_" gradientUnits="userSpaceOnUse" x1="-496.9237" y1="1929.8884" x2="-497.8617" y2="1929.4244" gradientTransform="matrix(26.306 0 0 -26.3059 12730.3291 52247.8398)">
			<stop  offset="0" style="stop-color:#50EEEF"/>
			<stop  offset="1" style="stop-color:#68A2F4"/>
		</linearGradient>
		<path id="Trazado_110849" class="st12" d="M-339.4,1485.7c0,7.3-5.9,13.2-13.2,13.2s-13.2-5.9-13.2-13.2c0-7.3,5.9-13.2,13.2-13.2
			S-339.4,1478.4-339.4,1485.7z"/>
		
			<linearGradient id="Trazado_110850_1_" gradientUnits="userSpaceOnUse" x1="-497.8025" y1="1929.6857" x2="-496.8025" y2="1929.6857" gradientTransform="matrix(24.844 0 0 -26.306 12001.7305 52248.0781)">
			<stop  offset="0" style="stop-color:#7D4CCA"/>
			<stop  offset="0.529" style="stop-color:#1B2AAB"/>
			<stop  offset="1" style="stop-color:#17256E"/>
		</linearGradient>
		<path id="Trazado_110850" class="st13" d="M-344.2,1492.4c-5.3,0-9.6-4.3-9.6-9.6c0-4.1,2.7-7.8,6.6-9.1c-1.7-0.7-3.4-1.1-5.2-1.1
			c-7.3,0-13.2,5.9-13.2,13.2c0,7.3,5.9,13.2,13.2,13.2c4.9,0,9.4-2.8,11.7-7.1C-341.9,1492.1-343.1,1492.4-344.2,1492.4z"/>
	</g>
	<g id="Grupo_64293">
		
			<linearGradient id="Trazado_110851_1_" gradientUnits="userSpaceOnUse" x1="-496.9237" y1="1929.8878" x2="-497.8617" y2="1929.4238" gradientTransform="matrix(26.305 0 0 -26.3049 12611.1475 52125.0078)">
			<stop  offset="0" style="stop-color:#50EEEF"/>
			<stop  offset="1" style="stop-color:#68A2F4"/>
		</linearGradient>
		<path id="Trazado_110851" class="st14" d="M-458.1,1364.8c0,7.3-5.9,13.2-13.2,13.2c-7.3,0-13.2-5.9-13.2-13.2c0,0,0,0,0,0
			c0-7.3,5.9-13.2,13.2-13.2C-464,1351.6-458.1,1357.5-458.1,1364.8C-458.1,1364.8-458.1,1364.8-458.1,1364.8z"/>
		
			<linearGradient id="Trazado_110852_1_" gradientUnits="userSpaceOnUse" x1="-497.8025" y1="1929.6851" x2="-496.8025" y2="1929.6851" gradientTransform="matrix(24.844 0 0 -26.3051 11883.0361 52125.2461)">
			<stop  offset="0" style="stop-color:#7D4CCA"/>
			<stop  offset="0.529" style="stop-color:#1B2AAB"/>
			<stop  offset="1" style="stop-color:#17256E"/>
		</linearGradient>
		<path id="Trazado_110852" class="st15" d="M-462.9,1371.4c-5.3,0-9.6-4.3-9.6-9.6c0,0,0,0,0,0c0-4.1,2.7-7.8,6.6-9.1
			c-1.7-0.7-3.4-1.1-5.2-1.1c-7.3,0-13.2,5.9-13.2,13.2c0,7.3,5.9,13.2,13.2,13.2c0,0,0,0,0,0c4.9,0,9.4-2.8,11.7-7.1
			C-460.6,1371.2-461.8,1371.4-462.9,1371.4z"/>
	</g>
	<g id="Grupo_64294">
		
			<linearGradient id="Trazado_110853_1_" gradientUnits="userSpaceOnUse" x1="-496.9237" y1="1929.8878" x2="-497.8617" y2="1929.4238" gradientTransform="matrix(26.306 0 0 -26.3049 12855.8096 52125.0078)">
			<stop  offset="0" style="stop-color:#50EEEF"/>
			<stop  offset="1" style="stop-color:#68A2F4"/>
		</linearGradient>
		<path id="Trazado_110853" class="st16" d="M-213.9,1364.8c0,7.3-5.9,13.2-13.2,13.2s-13.2-5.9-13.2-13.2c0-7.3,5.9-13.2,13.2-13.2
			c0,0,0,0,0,0C-219.8,1351.6-213.9,1357.5-213.9,1364.8C-213.9,1364.8-213.9,1364.8-213.9,1364.8z"/>
		
			<linearGradient id="Trazado_110854_1_" gradientUnits="userSpaceOnUse" x1="-497.8025" y1="1929.6851" x2="-496.8025" y2="1929.6851" gradientTransform="matrix(24.844 0 0 -26.3051 12127.1963 52125.2461)">
			<stop  offset="0" style="stop-color:#7D4CCA"/>
			<stop  offset="0.529" style="stop-color:#1B2AAB"/>
			<stop  offset="1" style="stop-color:#17256E"/>
		</linearGradient>
		<path id="Trazado_110854" class="st17" d="M-218.8,1371.4c-5.3,0-9.6-4.3-9.6-9.6c0,0,0,0,0,0c0-4.1,2.7-7.8,6.6-9.1
			c-1.7-0.7-3.4-1.1-5.2-1.1c-7.3,0-13.2,5.9-13.2,13.2c0,0,0,0,0,0c0,7.3,5.9,13.2,13.2,13.2c4.9,0,9.4-2.8,11.7-7.1
			C-216.4,1371.2-217.6,1371.4-218.8,1371.4z"/>
	</g>
	<g id="Grupo_64304">
		<g id="Grupo_64295">
			
				<linearGradient id="Elipse_4704_1_" gradientUnits="userSpaceOnUse" x1="-496.9109" y1="1929.4784" x2="-497.8489" y2="1929.0144" gradientTransform="matrix(25.686 0 0 -25.686 12421.874 50934.9492)">
				<stop  offset="0" style="stop-color:#7D4CCA"/>
				<stop  offset="0.529" style="stop-color:#1B2AAB"/>
				<stop  offset="1" style="stop-color:#17256E"/>
			</linearGradient>
			<circle id="Elipse_4704" class="st18" cx="-352.3" cy="1379.6" r="12.8"/>
			
				<linearGradient id="Trazado_110855_1_" gradientUnits="userSpaceOnUse" x1="-497.7889" y1="1929.2762" x2="-496.7889" y2="1929.2762" gradientTransform="matrix(24.259 0 0 -25.6871 11710.7109 50937.1602)">
				<stop  offset="0" style="stop-color:#7D4CCA"/>
				<stop  offset="0.529" style="stop-color:#1B2AAB"/>
				<stop  offset="1" style="stop-color:#17256E"/>
			</linearGradient>
			<path id="Trazado_110855" class="st19" d="M-344.2,1386.1c-5.2,0-9.4-4.2-9.4-9.4l0,0c0-4,2.6-7.6,6.4-8.9
				c-1.6-0.7-3.4-1.1-5.1-1.1c-7.1,0-12.8,5.8-12.8,12.8c0,7.1,5.8,12.8,12.8,12.8l0,0c4.8,0,9.2-2.7,11.4-7
				C-342,1385.9-343.1,1386.1-344.2,1386.1z"/>
		</g>
		<g id="Grupo_64296">
			
				<linearGradient id="Trazado_110856_1_" gradientUnits="userSpaceOnUse" x1="-496.5974" y1="1925.1655" x2="-497.3474" y2="1924.8076" gradientTransform="matrix(20.512 0 0 -20.512 9867.4561 40835.4102)">
				<stop  offset="0" style="stop-color:#FCBAAA"/>
				<stop  offset="0.971" style="stop-color:#ED6BCF"/>
			</linearGradient>
			<path id="Trazado_110856" class="st20" d="M-320.5,1352.2c0,5.7-4.6,10.3-10.3,10.3s-10.3-4.6-10.3-10.3s4.6-10.3,10.3-10.3
				C-325.1,1342-320.5,1346.6-320.5,1352.2C-320.5,1352.2-320.5,1352.2-320.5,1352.2z"/>
			
				<linearGradient id="Trazado_110857_1_" gradientUnits="userSpaceOnUse" x1="-497.6433" y1="1924.886" x2="-496.6433" y2="1924.886" gradientTransform="matrix(19.373 0 0 -20.5121 9299.8135 40835.6445)">
				<stop  offset="0" style="stop-color:#FCBAAA"/>
				<stop  offset="0.971" style="stop-color:#9A6BCF"/>
			</linearGradient>
			<path id="Trazado_110857" class="st21" d="M-324.3,1357.4c-4.1,0-7.5-3.4-7.5-7.5c0,0,0,0,0,0c0-3.2,2.1-6.1,5.1-7.1
				c-1.3-0.6-2.7-0.9-4.1-0.8c-5.7,0-10.3,4.6-10.3,10.3s4.6,10.3,10.3,10.3c3.8,0,7.4-2.2,9.1-5.6
				C-322.5,1357.2-323.4,1357.4-324.3,1357.4z"/>
		</g>
		<g id="Grupo_64297">
			
				<linearGradient id="Trazado_110858_1_" gradientUnits="userSpaceOnUse" x1="-496.5974" y1="1925.1666" x2="-497.3474" y2="1924.8086" gradientTransform="matrix(20.512 0 0 -20.5129 9826.2178 40852.5547)">
				<stop  offset="0" style="stop-color:#FCBAAA"/>
				<stop  offset="0.971" style="stop-color:#ED6BCF"/>
			</linearGradient>
			<path id="Trazado_110858" class="st22" d="M-361.8,1367.5c0,5.7-4.6,10.3-10.3,10.3s-10.3-4.6-10.3-10.3
				c0-5.7,4.6-10.3,10.3-10.3C-366.4,1357.2-361.8,1361.8-361.8,1367.5C-361.8,1367.5-361.8,1367.5-361.8,1367.5z"/>
			
				<linearGradient id="Trazado_110859_1_" gradientUnits="userSpaceOnUse" x1="-497.6433" y1="1924.887" x2="-496.6433" y2="1924.887" gradientTransform="matrix(19.373 0 0 -20.5131 9258.5752 40852.7891)">
				<stop  offset="0" style="stop-color:#FCBAAA"/>
				<stop  offset="0.971" style="stop-color:#9A6BCF"/>
			</linearGradient>
			<path id="Trazado_110859" class="st23" d="M-365.5,1372.7c-4.1,0-7.5-3.4-7.5-7.5c0,0,0,0,0,0c0-3.2,2.1-6.1,5.1-7.1
				c-1.3-0.6-2.7-0.9-4.1-0.9c-5.7,0-10.3,4.6-10.3,10.3c0,5.7,4.6,10.3,10.3,10.3c3.8,0,7.4-2.2,9.1-5.6
				C-363.7,1372.5-364.6,1372.6-365.5,1372.7z"/>
		</g>
		<g id="Grupo_64298">
			
				<linearGradient id="Elipse_4705_1_" gradientUnits="userSpaceOnUse" x1="-496.9109" y1="1929.4784" x2="-497.8489" y2="1929.0144" gradientTransform="matrix(25.686 0 0 -25.686 12426.2627 50924.8516)">
				<stop  offset="0" style="stop-color:#7D4CCA"/>
				<stop  offset="0.529" style="stop-color:#1B2AAB"/>
				<stop  offset="1" style="stop-color:#17256E"/>
			</linearGradient>
			<circle id="Elipse_4705" class="st24" cx="-347.9" cy="1369.5" r="12.8"/>
			
				<linearGradient id="Trazado_110860_1_" gradientUnits="userSpaceOnUse" x1="-497.7889" y1="1929.2762" x2="-496.7889" y2="1929.2762" gradientTransform="matrix(24.259 0 0 -25.6871 11715.083 50927.0586)">
				<stop  offset="0" style="stop-color:#7D4CCA"/>
				<stop  offset="0.529" style="stop-color:#1B2AAB"/>
				<stop  offset="1" style="stop-color:#17256E"/>
			</linearGradient>
			<path id="Trazado_110860" class="st25" d="M-339.8,1376c-5.2,0-9.4-4.2-9.4-9.4l0,0c0-4,2.6-7.6,6.4-8.9
				c-1.6-0.7-3.4-1.1-5.1-1.1c-7.1,0-12.8,5.8-12.8,12.8l0,0c0,7.1,5.7,12.8,12.8,12.8c0,0,0,0,0,0c4.8,0,9.2-2.7,11.4-7
				C-337.6,1375.8-338.7,1376-339.8,1376z"/>
		</g>
		<g id="Grupo_64299">
			
				<linearGradient id="Elipse_4706_1_" gradientUnits="userSpaceOnUse" x1="-496.9109" y1="1929.4784" x2="-497.8489" y2="1929.0144" gradientTransform="matrix(25.686 0 0 -25.686 12445.3535 50923.9219)">
				<stop  offset="0" style="stop-color:#7D4CCA"/>
				<stop  offset="0.529" style="stop-color:#1B2AAB"/>
				<stop  offset="1" style="stop-color:#17256E"/>
			</linearGradient>
			<circle id="Elipse_4706" class="st26" cx="-328.8" cy="1368.5" r="12.8"/>
			
				<linearGradient id="Trazado_110861_1_" gradientUnits="userSpaceOnUse" x1="-497.7889" y1="1929.2762" x2="-496.7889" y2="1929.2762" gradientTransform="matrix(24.259 0 0 -25.6871 11734.1738 50926.1289)">
				<stop  offset="0" style="stop-color:#7D4CCA"/>
				<stop  offset="0.529" style="stop-color:#1B2AAB"/>
				<stop  offset="1" style="stop-color:#17256E"/>
			</linearGradient>
			<path id="Trazado_110861" class="st27" d="M-320.7,1375c-5.2,0-9.4-4.2-9.4-9.4l0,0c0-4,2.6-7.6,6.4-8.9
				c-1.6-0.7-3.4-1.1-5.1-1.1c-7.1,0-12.8,5.8-12.8,12.8l0,0c0,7.1,5.7,12.8,12.8,12.8c4.8,0,9.2-2.7,11.4-7
				C-318.5,1374.8-319.6,1375-320.7,1375z"/>
		</g>
		<g id="Grupo_64300">
			
				<linearGradient id="Elipse_4707_1_" gradientUnits="userSpaceOnUse" x1="-496.9109" y1="1929.4784" x2="-497.8489" y2="1929.0144" gradientTransform="matrix(25.686 0 0 -25.686 12411.9551 50916.4336)">
				<stop  offset="0" style="stop-color:#7D4CCA"/>
				<stop  offset="0.529" style="stop-color:#1B2AAB"/>
				<stop  offset="1" style="stop-color:#17256E"/>
			</linearGradient>
			<circle id="Elipse_4707" class="st28" cx="-362.2" cy="1361.1" r="12.8"/>
			
				<linearGradient id="Trazado_110862_1_" gradientUnits="userSpaceOnUse" x1="-497.7888" y1="1929.2716" x2="-496.7888" y2="1929.2716" gradientTransform="matrix(24.257 0 0 -25.6803 11699.7725 50905.332)">
				<stop  offset="0" style="stop-color:#7D4CCA"/>
				<stop  offset="0.529" style="stop-color:#1B2AAB"/>
				<stop  offset="1" style="stop-color:#17256E"/>
			</linearGradient>
			<path id="Trazado_110862" class="st29" d="M-354.1,1367.6c-5.2,0-9.4-4.2-9.4-9.4l0,0c0-4,2.6-7.6,6.4-8.9
				c-1.6-0.7-3.4-1.1-5.1-1.1c-7.1,0-12.8,5.8-12.8,12.8c0,7.1,5.8,12.8,12.8,12.8c4.8,0,9.2-2.7,11.4-7
				C-351.9,1367.3-353,1367.6-354.1,1367.6z"/>
		</g>
		<g id="Grupo_64301">
			
				<linearGradient id="Trazado_110863_1_" gradientUnits="userSpaceOnUse" x1="-496.5974" y1="1925.1666" x2="-497.3474" y2="1924.8086" gradientTransform="matrix(20.512 0 0 -20.5129 9858.3398 40863.8945)">
				<stop  offset="0" style="stop-color:#FCBAAA"/>
				<stop  offset="0.971" style="stop-color:#ED6BCF"/>
			</linearGradient>
			<path id="Trazado_110863" class="st30" d="M-329.6,1378.8c0,5.7-4.6,10.3-10.3,10.3c-5.7,0-10.3-4.6-10.3-10.3c0,0,0,0,0,0
				c0-5.7,4.6-10.3,10.3-10.3S-329.6,1373.1-329.6,1378.8z"/>
			
				<linearGradient id="Trazado_110864_1_" gradientUnits="userSpaceOnUse" x1="-497.6433" y1="1924.887" x2="-496.6433" y2="1924.887" gradientTransform="matrix(19.372 0 0 -20.5131 9290.1953 40864.1289)">
				<stop  offset="0" style="stop-color:#FCBAAA"/>
				<stop  offset="0.971" style="stop-color:#9A6BCF"/>
			</linearGradient>
			<path id="Trazado_110864" class="st31" d="M-333.4,1384c-4.1,0-7.5-3.4-7.5-7.5c0,0,0,0,0,0c0-3.2,2.1-6.1,5.1-7.1
				c-1.3-0.6-2.7-0.9-4.1-0.9c-5.7,0-10.3,4.6-10.3,10.3c0,5.7,4.6,10.3,10.3,10.3c0,0,0,0,0,0c3.8,0,7.4-2.2,9.1-5.6
				C-331.6,1383.8-332.5,1384-333.4,1384z"/>
		</g>
		<g id="Grupo_64302">
			
				<linearGradient id="Trazado_110865_1_" gradientUnits="userSpaceOnUse" x1="-496.5974" y1="1925.1655" x2="-497.3474" y2="1924.8076" gradientTransform="matrix(20.512 0 0 -20.512 9854.3252 40835.4102)">
				<stop  offset="0" style="stop-color:#FCBAAA"/>
				<stop  offset="0.971" style="stop-color:#ED6BCF"/>
			</linearGradient>
			<path id="Trazado_110865" class="st32" d="M-333.7,1352.2c0,5.7-4.6,10.3-10.3,10.3s-10.3-4.6-10.3-10.3s4.6-10.3,10.3-10.3
				S-333.7,1346.6-333.7,1352.2z"/>
			
				<linearGradient id="Trazado_110866_1_" gradientUnits="userSpaceOnUse" x1="-497.6433" y1="1924.886" x2="-496.6433" y2="1924.886" gradientTransform="matrix(19.372 0 0 -20.5121 9286.1807 40835.6445)">
				<stop  offset="0" style="stop-color:#FCBAAA"/>
				<stop  offset="0.971" style="stop-color:#9A6BCF"/>
			</linearGradient>
			<path id="Trazado_110866" class="st33" d="M-337.4,1357.4c-4.1,0-7.5-3.4-7.5-7.5l0,0c0-3.2,2.1-6.1,5.1-7.1
				c-1.3-0.6-2.7-0.9-4.1-0.8c-5.7,0-10.3,4.6-10.3,10.3s4.6,10.3,10.3,10.3c3.8,0,7.4-2.2,9.1-5.6
				C-335.6,1357.2-336.5,1357.4-337.4,1357.4z"/>
		</g>
		<g id="Grupo_64303">
			
				<linearGradient id="Trazado_110867_1_" gradientUnits="userSpaceOnUse" x1="-496.5974" y1="1925.1655" x2="-497.3474" y2="1924.8076" gradientTransform="matrix(20.512 0 0 -20.512 9838.3936 40865.2422)">
				<stop  offset="0" style="stop-color:#FCBAAA"/>
				<stop  offset="0.971" style="stop-color:#ED6BCF"/>
			</linearGradient>
			<path id="Trazado_110867" class="st34" d="M-349.6,1382.1c0,5.7-4.6,10.3-10.3,10.3s-10.3-4.6-10.3-10.3s4.6-10.3,10.3-10.3
				S-349.6,1376.4-349.6,1382.1z"/>
			
				<linearGradient id="Trazado_110868_1_" gradientUnits="userSpaceOnUse" x1="-497.6433" y1="1924.886" x2="-496.6433" y2="1924.886" gradientTransform="matrix(19.372 0 0 -20.5121 9270.249 40865.4805)">
				<stop  offset="0" style="stop-color:#FCBAAA"/>
				<stop  offset="0.971" style="stop-color:#9A6BCF"/>
			</linearGradient>
			<path id="Trazado_110868" class="st35" d="M-353.4,1387.2c-4.1,0-7.5-3.4-7.5-7.5l0,0c0-3.2,2.1-6.1,5.1-7.1
				c-1.3-0.6-2.7-0.9-4.1-0.8c-5.7,0-10.3,4.6-10.3,10.3s4.6,10.3,10.3,10.3c3.8,0,7.4-2.2,9.1-5.6
				C-351.6,1387.1-352.5,1387.2-353.4,1387.2z"/>
		</g>
	</g>
</g>
</svg>
