<?xml version="1.0" encoding="utf-8"?>
<!-- Generator: Adobe Illustrator 25.2.3, SVG Export Plug-In . SVG Version: 6.00 Build 0)  -->
<!DOCTYPE svg PUBLIC "-//W3C//DTD SVG 1.1//EN" "http://www.w3.org/Graphics/SVG/1.1/DTD/svg11.dtd" [
	<!ENTITY ns_extend "http://ns.adobe.com/Extensibility/1.0/">
	<!ENTITY ns_ai "http://ns.adobe.com/AdobeIllustrator/10.0/">
	<!ENTITY ns_graphs "http://ns.adobe.com/Graphs/1.0/">
	<!ENTITY ns_vars "http://ns.adobe.com/Variables/1.0/">
	<!ENTITY ns_imrep "http://ns.adobe.com/ImageReplacement/1.0/">
	<!ENTITY ns_sfw "http://ns.adobe.com/SaveForWeb/1.0/">
	<!ENTITY ns_custom "http://ns.adobe.com/GenericCustomNamespace/1.0/">
	<!ENTITY ns_adobe_xpath "http://ns.adobe.com/XPath/1.0/">
]>
<svg version="1.1" id="Capa_1" xmlns:x="&ns_extend;" xmlns:i="&ns_ai;" xmlns:graph="&ns_graphs;"
	 xmlns="http://www.w3.org/2000/svg" xmlns:xlink="http://www.w3.org/1999/xlink" x="0px" y="0px" viewBox="0 0 470.8 314.2"
	 style="enable-background:new 0 0 470.8 314.2;" xml:space="preserve">
<style type="text/css">
	.st0{enable-background:new    ;}
	.st1{fill:#1B2D5B;}
	.st2{fill:none;stroke:#808080;stroke-miterlimit:10;}
	.st3{fill:none;stroke:#100142;stroke-miterlimit:10;}
	.st4{fill:url(#Trazado_110869_1_);}
	.st5{opacity:0.75;fill:url(#Trazado_110870_1_);enable-background:new    ;}
	.st6{fill:url(#Trazado_110871_1_);}
	.st7{opacity:0.75;fill:url(#Trazado_110872_1_);enable-background:new    ;}
	.st8{fill:url(#Elipse_4709_1_);}
	.st9{opacity:0.75;fill:url(#Trazado_110873_1_);enable-background:new    ;}
	.st10{fill:url(#Elipse_4710_1_);}
	.st11{opacity:0.75;fill:url(#Trazado_110874_1_);enable-background:new    ;}
	.st12{fill:url(#Trazado_110875_1_);}
	.st13{fill:url(#Trazado_110876_1_);}
	.st14{fill:url(#Trazado_110877_1_);}
	.st15{fill:url(#Trazado_110878_1_);}
	.st16{fill:#FFFFFF;}
</style>
<metadata>
	<sfw  xmlns="&ns_sfw;">
		<slices></slices>
		<sliceSourceBounds  bottomLeftOrigin="true" height="311.4" width="467.6" x="1.1" y="0"></sliceSourceBounds>
	</sfw>
</metadata>
<g id="Grupo_64316" transform="translate(688.327 -1634.493)">
	<g class="st0">
		<path class="st1" d="M-274,1824.5h-2.6l-5.1-8.4v8.4h-2.6v-12.8h2.6l5.1,8.4v-8.4h2.6V1824.5z"/>
		<path class="st1" d="M-267.5,1824.7c-1.4,0-2.5-0.4-3.4-1.3s-1.3-2-1.3-3.4v-0.2c0-1,0.2-1.8,0.6-2.6s0.9-1.3,1.6-1.7
			s1.4-0.6,2.3-0.6c1.3,0,2.3,0.4,3.1,1.2s1.1,2,1.1,3.5v1h-6.1c0.1,0.6,0.3,1.1,0.7,1.5s0.9,0.6,1.6,0.6c1,0,1.7-0.4,2.3-1.1
			l1.2,1.4c-0.4,0.5-0.9,1-1.5,1.3C-265.9,1824.5-266.7,1824.7-267.5,1824.7z M-267.7,1816.9c-0.5,0-0.9,0.2-1.2,0.5
			c-0.3,0.3-0.5,0.8-0.6,1.5h3.5v-0.2c0-0.6-0.2-1-0.5-1.3C-266.8,1817-267.2,1816.9-267.7,1816.9z"/>
		<path class="st1" d="M-256.4,1823.5c-0.6,0.8-1.5,1.1-2.6,1.1c-1,0-1.8-0.3-2.3-0.9s-0.8-1.4-0.8-2.6v-6.2h2.5v6.2
			c0,1,0.5,1.5,1.4,1.5c0.9,0,1.5-0.3,1.8-0.9v-6.7h2.5v9.5h-2.4L-256.4,1823.5z"/>
		<path class="st1" d="M-249,1812.7v2.3h1.6v1.9h-1.6v4.7c0,0.4,0.1,0.6,0.2,0.8s0.4,0.2,0.8,0.2c0.3,0,0.5,0,0.7-0.1v1.9
			c-0.5,0.2-1,0.2-1.5,0.2c-1.8,0-2.7-0.9-2.7-2.7v-5.1h-1.4v-1.9h1.4v-2.3H-249z"/>
		<path class="st1" d="M-240.6,1817.4c-0.3,0-0.7-0.1-0.9-0.1c-1,0-1.6,0.3-1.9,1v6.2h-2.5v-9.5h2.4l0.1,1.1
			c0.5-0.9,1.2-1.3,2.1-1.3c0.3,0,0.5,0,0.8,0.1L-240.6,1817.4z"/>
		<path class="st1" d="M-239.8,1819.7c0-0.9,0.2-1.8,0.5-2.5s0.9-1.3,1.6-1.7s1.5-0.6,2.4-0.6c1.3,0,2.3,0.4,3.1,1.2
			s1.3,1.9,1.4,3.2l0,0.7c0,1.5-0.4,2.6-1.2,3.5s-1.9,1.3-3.3,1.3s-2.5-0.4-3.3-1.3s-1.2-2.1-1.2-3.6V1819.7z M-237.2,1819.8
			c0,0.9,0.2,1.6,0.5,2.1c0.3,0.5,0.8,0.7,1.5,0.7c0.6,0,1.1-0.2,1.4-0.7c0.3-0.5,0.5-1.2,0.5-2.3c0-0.9-0.2-1.6-0.5-2.1
			s-0.8-0.7-1.5-0.7c-0.6,0-1.1,0.2-1.4,0.7C-237.1,1818.1-237.2,1818.8-237.2,1819.8z M-234.8,1811h2.8l-2.4,2.7h-2.1L-234.8,1811z
			"/>
		<path class="st1" d="M-226.9,1815l0.1,1.1c0.7-0.8,1.6-1.3,2.7-1.3c1,0,1.8,0.3,2.2,0.9s0.7,1.5,0.8,2.7v6.1h-2.5v-6.1
			c0-0.5-0.1-0.9-0.4-1.2c-0.2-0.2-0.6-0.4-1.2-0.4c-0.7,0-1.3,0.3-1.6,0.9v6.7h-2.5v-9.5H-226.9z"/>
	</g>
	<g class="st0">
		<path class="st1" d="M-276.7,1885.8h-5.1v3.4h5.9v2.1h-8.6v-12.8h8.6v2.1h-5.9v3h5.1V1885.8z"/>
		<path class="st1" d="M-271.7,1891.4h-2.5v-13.5h2.5V1891.4z"/>
		<path class="st1" d="M-265.3,1891.5c-1.4,0-2.5-0.4-3.4-1.3s-1.3-2-1.3-3.4v-0.2c0-1,0.2-1.8,0.6-2.6s0.9-1.3,1.6-1.7
			s1.4-0.6,2.3-0.6c1.3,0,2.3,0.4,3.1,1.2s1.1,2,1.1,3.5v1h-6.1c0.1,0.6,0.3,1.1,0.7,1.5s0.9,0.6,1.6,0.6c1,0,1.7-0.4,2.3-1.1
			l1.2,1.4c-0.4,0.5-0.9,1-1.5,1.3C-263.8,1891.4-264.5,1891.5-265.3,1891.5z M-265.6,1883.7c-0.5,0-0.9,0.2-1.2,0.5
			c-0.3,0.3-0.5,0.8-0.6,1.5h3.5v-0.2c0-0.6-0.2-1-0.5-1.3C-264.6,1883.9-265,1883.7-265.6,1883.7z"/>
		<path class="st1" d="M-256,1889.5c0.5,0,0.8-0.1,1.1-0.4s0.4-0.6,0.5-1h2.4c0,0.6-0.2,1.2-0.5,1.8c-0.3,0.5-0.8,1-1.4,1.2
			c-0.6,0.3-1.3,0.4-2,0.4c-1.4,0-2.4-0.4-3.2-1.3c-0.8-0.9-1.2-2.1-1.2-3.6v-0.2c0-1.5,0.4-2.6,1.2-3.5s1.8-1.3,3.2-1.3
			c1.2,0,2.1,0.3,2.9,1c0.7,0.7,1.1,1.6,1.1,2.7h-2.4c0-0.5-0.2-0.9-0.5-1.2s-0.7-0.5-1.2-0.5c-0.6,0-1,0.2-1.3,0.6
			c-0.3,0.4-0.5,1.1-0.5,2.1v0.3c0,1,0.1,1.7,0.4,2.1S-256.6,1889.5-256,1889.5z"/>
		<path class="st1" d="M-247.5,1879.5v2.3h1.6v1.9h-1.6v4.7c0,0.4,0.1,0.6,0.2,0.8s0.4,0.2,0.8,0.2c0.3,0,0.5,0,0.7-0.1v1.9
			c-0.5,0.2-1,0.2-1.5,0.2c-1.8,0-2.7-0.9-2.7-2.7v-5.1h-1.4v-1.9h1.4v-2.3H-247.5z"/>
		<path class="st1" d="M-239.1,1884.2c-0.3,0-0.7-0.1-0.9-0.1c-1,0-1.6,0.3-1.9,1v6.2h-2.5v-9.5h2.4l0.1,1.1
			c0.5-0.9,1.2-1.3,2.1-1.3c0.3,0,0.5,0,0.8,0.1L-239.1,1884.2z"/>
		<path class="st1" d="M-238.3,1886.5c0-0.9,0.2-1.8,0.5-2.5s0.9-1.3,1.6-1.7s1.5-0.6,2.4-0.6c1.3,0,2.3,0.4,3.1,1.2
			s1.3,1.9,1.4,3.2l0,0.7c0,1.5-0.4,2.6-1.2,3.5s-1.9,1.3-3.3,1.3s-2.5-0.4-3.3-1.3s-1.2-2.1-1.2-3.6V1886.5z M-235.7,1886.7
			c0,0.9,0.2,1.6,0.5,2.1c0.3,0.5,0.8,0.7,1.5,0.7c0.6,0,1.1-0.2,1.4-0.7c0.3-0.5,0.5-1.2,0.5-2.3c0-0.9-0.2-1.6-0.5-2.1
			s-0.8-0.7-1.5-0.7c-0.6,0-1.1,0.2-1.4,0.7C-235.6,1884.9-235.7,1885.7-235.7,1886.7z M-233.3,1877.9h2.8l-2.4,2.7h-2.1
			L-233.3,1877.9z"/>
		<path class="st1" d="M-225.4,1881.9l0.1,1.1c0.7-0.8,1.6-1.3,2.7-1.3c1,0,1.8,0.3,2.2,0.9s0.7,1.5,0.8,2.7v6.1h-2.5v-6.1
			c0-0.5-0.1-0.9-0.4-1.2c-0.2-0.2-0.6-0.4-1.2-0.4c-0.7,0-1.3,0.3-1.6,0.9v6.7h-2.5v-9.5H-225.4z"/>
	</g>
	<g class="st0">
		<path class="st1" d="M-281.7,1725.9v4.5h-2.6v-12.8h5c1,0,1.8,0.2,2.5,0.5s1.3,0.9,1.7,1.5c0.4,0.6,0.6,1.4,0.6,2.2
			c0,1.3-0.4,2.2-1.3,3s-2,1.1-3.6,1.1H-281.7z M-281.7,1723.8h2.4c0.7,0,1.2-0.2,1.6-0.5s0.5-0.8,0.5-1.4c0-0.6-0.2-1.1-0.6-1.5
			s-0.9-0.6-1.5-0.6h-2.4V1723.8z"/>
		<path class="st1" d="M-267.6,1723.3c-0.3,0-0.7-0.1-0.9-0.1c-1,0-1.6,0.3-1.9,1v6.2h-2.5v-9.5h2.4l0.1,1.1
			c0.5-0.9,1.2-1.3,2.1-1.3c0.3,0,0.5,0,0.8,0.1L-267.6,1723.3z"/>
		<path class="st1" d="M-267.1,1725.6c0-0.9,0.2-1.8,0.5-2.5s0.9-1.3,1.6-1.7s1.5-0.6,2.4-0.6c1.3,0,2.3,0.4,3.1,1.2
			s1.3,1.9,1.4,3.2l0,0.7c0,1.5-0.4,2.6-1.2,3.5s-1.9,1.3-3.3,1.3s-2.5-0.4-3.3-1.3s-1.2-2.1-1.2-3.6V1725.6z M-264.5,1725.8
			c0,0.9,0.2,1.6,0.5,2.1c0.3,0.5,0.8,0.7,1.5,0.7c0.6,0,1.1-0.2,1.4-0.7c0.3-0.5,0.5-1.2,0.5-2.3c0-0.9-0.2-1.6-0.5-2.1
			s-0.8-0.7-1.5-0.7c-0.6,0-1.1,0.2-1.4,0.7C-264.4,1724-264.5,1724.8-264.5,1725.8z"/>
		<path class="st1" d="M-253.5,1718.6v2.3h1.6v1.9h-1.6v4.7c0,0.4,0.1,0.6,0.2,0.8s0.4,0.2,0.8,0.2c0.3,0,0.5,0,0.7-0.1v1.9
			c-0.5,0.2-1,0.2-1.5,0.2c-1.8,0-2.7-0.9-2.7-2.7v-5.1h-1.4v-1.9h1.4v-2.3H-253.5z"/>
		<path class="st1" d="M-250.8,1725.6c0-0.9,0.2-1.8,0.5-2.5s0.9-1.3,1.6-1.7s1.5-0.6,2.4-0.6c1.3,0,2.3,0.4,3.1,1.2
			s1.3,1.9,1.4,3.2l0,0.7c0,1.5-0.4,2.6-1.2,3.5s-1.9,1.3-3.3,1.3s-2.5-0.4-3.3-1.3s-1.2-2.1-1.2-3.6V1725.6z M-248.3,1725.8
			c0,0.9,0.2,1.6,0.5,2.1c0.3,0.5,0.8,0.7,1.5,0.7c0.6,0,1.1-0.2,1.4-0.7c0.3-0.5,0.5-1.2,0.5-2.3c0-0.9-0.2-1.6-0.5-2.1
			s-0.8-0.7-1.5-0.7c-0.6,0-1.1,0.2-1.4,0.7C-248.1,1724-248.3,1724.8-248.3,1725.8z M-245.8,1716.9h2.8l-2.4,2.7h-2.1
			L-245.8,1716.9z"/>
		<path class="st1" d="M-237.9,1720.9l0.1,1.1c0.7-0.8,1.6-1.3,2.7-1.3c1,0,1.8,0.3,2.2,0.9s0.7,1.5,0.8,2.7v6.1h-2.5v-6.1
			c0-0.5-0.1-0.9-0.4-1.2c-0.2-0.2-0.6-0.4-1.2-0.4c-0.7,0-1.3,0.3-1.6,0.9v6.7h-2.5v-9.5H-237.9z"/>
	</g>
	<g class="st0">
		<path class="st1" d="M-679.5,1647.9h-5.1v3.4h5.9v2.1h-8.6v-12.8h8.6v2.1h-5.9v3h5.1V1647.9z"/>
		<path class="st1" d="M-672.1,1650.9c0-0.3-0.2-0.6-0.5-0.7s-0.8-0.3-1.5-0.5c-2.3-0.5-3.4-1.4-3.4-2.9c0-0.8,0.4-1.5,1.1-2.1
			c0.7-0.6,1.6-0.8,2.7-0.8c1.2,0,2.2,0.3,2.9,0.9s1.1,1.3,1.1,2.2h-2.5c0-0.4-0.1-0.7-0.4-0.9c-0.2-0.2-0.6-0.4-1.1-0.4
			c-0.4,0-0.8,0.1-1,0.3s-0.4,0.4-0.4,0.7c0,0.3,0.1,0.5,0.4,0.7c0.3,0.2,0.7,0.3,1.3,0.4s1.2,0.3,1.6,0.4c1.3,0.5,2,1.3,2,2.6
			c0,0.9-0.4,1.6-1.1,2.1c-0.7,0.5-1.7,0.8-2.9,0.8c-0.8,0-1.5-0.1-2.1-0.4c-0.6-0.3-1.1-0.7-1.5-1.2c-0.4-0.5-0.5-1-0.5-1.6h2.4
			c0,0.5,0.2,0.8,0.5,1s0.7,0.4,1.2,0.4c0.5,0,0.9-0.1,1.1-0.3C-672.2,1651.4-672.1,1651.2-672.1,1650.9z"/>
		<path class="st1" d="M-664.9,1641.6v2.3h1.6v1.9h-1.6v4.7c0,0.4,0.1,0.6,0.2,0.8s0.4,0.2,0.8,0.2c0.3,0,0.5,0,0.7-0.1v1.9
			c-0.5,0.2-1,0.2-1.5,0.2c-1.8,0-2.7-0.9-2.7-2.7v-5.1h-1.4v-1.9h1.4v-2.3H-664.9z"/>
		<path class="st1" d="M-656.5,1646.4c-0.3,0-0.7-0.1-0.9-0.1c-1,0-1.6,0.3-1.9,1v6.2h-2.5v-9.5h2.4l0.1,1.1
			c0.5-0.9,1.2-1.3,2.1-1.3c0.3,0,0.5,0,0.8,0.1L-656.5,1646.4z"/>
		<path class="st1" d="M-649.6,1652.5c-0.6,0.8-1.5,1.1-2.6,1.1c-1,0-1.8-0.3-2.3-0.9s-0.8-1.4-0.8-2.6v-6.2h2.5v6.2
			c0,1,0.5,1.5,1.4,1.5c0.9,0,1.5-0.3,1.8-0.9v-6.7h2.5v9.5h-2.4L-649.6,1652.5z"/>
		<path class="st1" d="M-641.3,1651.6c0.5,0,0.8-0.1,1.1-0.4s0.4-0.6,0.5-1h2.4c0,0.6-0.2,1.2-0.5,1.8c-0.3,0.5-0.8,1-1.4,1.2
			c-0.6,0.3-1.3,0.4-2,0.4c-1.4,0-2.4-0.4-3.2-1.3c-0.8-0.9-1.2-2.1-1.2-3.6v-0.2c0-1.5,0.4-2.6,1.2-3.5s1.8-1.3,3.2-1.3
			c1.2,0,2.1,0.3,2.9,1c0.7,0.7,1.1,1.6,1.1,2.7h-2.4c0-0.5-0.2-0.9-0.5-1.2s-0.7-0.5-1.2-0.5c-0.6,0-1,0.2-1.3,0.6
			c-0.3,0.4-0.5,1.1-0.5,2.1v0.3c0,1,0.1,1.7,0.4,2.1S-641.9,1651.6-641.3,1651.6z"/>
		<path class="st1" d="M-632.8,1641.6v2.3h1.6v1.9h-1.6v4.7c0,0.4,0.1,0.6,0.2,0.8s0.4,0.2,0.8,0.2c0.3,0,0.5,0,0.7-0.1v1.9
			c-0.5,0.2-1,0.2-1.5,0.2c-1.8,0-2.7-0.9-2.7-2.7v-5.1h-1.4v-1.9h1.4v-2.3H-632.8z"/>
		<path class="st1" d="M-624.1,1652.5c-0.6,0.8-1.5,1.1-2.6,1.1c-1,0-1.8-0.3-2.3-0.9s-0.8-1.4-0.8-2.6v-6.2h2.5v6.2
			c0,1,0.5,1.5,1.4,1.5c0.9,0,1.5-0.3,1.8-0.9v-6.7h2.5v9.5h-2.4L-624.1,1652.5z"/>
		<path class="st1" d="M-614.4,1646.4c-0.3,0-0.7-0.1-0.9-0.1c-1,0-1.6,0.3-1.9,1v6.2h-2.5v-9.5h2.4l0.1,1.1
			c0.5-0.9,1.2-1.3,2.1-1.3c0.3,0,0.5,0,0.8,0.1L-614.4,1646.4z"/>
		<path class="st1" d="M-607.9,1653.5c-0.1-0.2-0.2-0.5-0.3-0.9c-0.6,0.7-1.4,1-2.4,1c-0.9,0-1.7-0.3-2.3-0.8s-0.9-1.2-0.9-2
			c0-1,0.4-1.8,1.1-2.3s1.8-0.8,3.2-0.8h1.2v-0.5c0-0.4-0.1-0.8-0.3-1.1s-0.6-0.4-1.1-0.4c-0.4,0-0.8,0.1-1,0.3s-0.4,0.5-0.4,0.8
			h-2.5c0-0.6,0.2-1.1,0.5-1.5s0.8-0.8,1.4-1.1s1.3-0.4,2.1-0.4c1.2,0,2.1,0.3,2.8,0.9c0.7,0.6,1,1.4,1,2.5v4.1c0,0.9,0.1,1.6,0.4,2
			v0.1H-607.9z M-610,1651.7c0.4,0,0.7-0.1,1-0.3c0.3-0.2,0.6-0.4,0.7-0.7v-1.6h-0.9c-1.3,0-1.9,0.4-2,1.3l0,0.1
			c0,0.3,0.1,0.6,0.3,0.8S-610.4,1651.7-610,1651.7z"/>
		<path class="st1" d="M-598.6,1653.5v-7.6h-1.4v-1.9h1.4v-0.8c0-1.1,0.3-1.9,0.9-2.5c0.6-0.6,1.5-0.9,2.6-0.9
			c0.4,0,0.8,0.1,1.3,0.2l0,2c-0.2-0.1-0.5-0.1-0.8-0.1c-1,0-1.4,0.4-1.4,1.3v0.8h1.9v1.9h-1.9v7.6H-598.6z"/>
		<path class="st1" d="M-590.1,1653.5h-2.5v-9.5h2.5V1653.5z M-590.8,1640.1h2.8l-2.4,2.7h-2.1L-590.8,1640.1z"/>
		<path class="st1" d="M-582.7,1650.9c0-0.3-0.2-0.6-0.5-0.7s-0.8-0.3-1.5-0.5c-2.3-0.5-3.4-1.4-3.4-2.9c0-0.8,0.4-1.5,1.1-2.1
			c0.7-0.6,1.6-0.8,2.7-0.8c1.2,0,2.2,0.3,2.9,0.9s1.1,1.3,1.1,2.2h-2.5c0-0.4-0.1-0.7-0.4-0.9c-0.2-0.2-0.6-0.4-1.1-0.4
			c-0.4,0-0.8,0.1-1,0.3s-0.4,0.4-0.4,0.7c0,0.3,0.1,0.5,0.4,0.7c0.3,0.2,0.7,0.3,1.3,0.4s1.2,0.3,1.6,0.4c1.3,0.5,2,1.3,2,2.6
			c0,0.9-0.4,1.6-1.1,2.1c-0.7,0.5-1.7,0.8-2.9,0.8c-0.8,0-1.5-0.1-2.1-0.4c-0.6-0.3-1.1-0.7-1.5-1.2c-0.4-0.5-0.5-1-0.5-1.6h2.4
			c0,0.5,0.2,0.8,0.5,1s0.7,0.4,1.2,0.4c0.5,0,0.9-0.1,1.1-0.3C-582.9,1651.4-582.7,1651.2-582.7,1650.9z"/>
		<path class="st1" d="M-578.7,1641.5c0-0.4,0.1-0.7,0.4-0.9s0.6-0.4,1-0.4c0.4,0,0.8,0.1,1,0.4s0.4,0.6,0.4,0.9
			c0,0.4-0.1,0.7-0.4,0.9s-0.6,0.4-1,0.4s-0.8-0.1-1-0.4S-578.7,1641.9-578.7,1641.5z M-576,1653.5h-2.5v-9.5h2.5V1653.5z"/>
		<path class="st1" d="M-569.9,1651.6c0.5,0,0.8-0.1,1.1-0.4s0.4-0.6,0.5-1h2.4c0,0.6-0.2,1.2-0.5,1.8c-0.3,0.5-0.8,1-1.4,1.2
			c-0.6,0.3-1.3,0.4-2,0.4c-1.4,0-2.4-0.4-3.2-1.3c-0.8-0.9-1.2-2.1-1.2-3.6v-0.2c0-1.5,0.4-2.6,1.2-3.5s1.8-1.3,3.2-1.3
			c1.2,0,2.1,0.3,2.9,1c0.7,0.7,1.1,1.6,1.1,2.7h-2.4c0-0.5-0.2-0.9-0.5-1.2s-0.7-0.5-1.2-0.5c-0.6,0-1,0.2-1.3,0.6
			c-0.3,0.4-0.5,1.1-0.5,2.1v0.3c0,1,0.1,1.7,0.4,2.1S-570.5,1651.6-569.9,1651.6z"/>
		<path class="st1" d="M-559,1653.5c-0.1-0.2-0.2-0.5-0.3-0.9c-0.6,0.7-1.4,1-2.4,1c-0.9,0-1.7-0.3-2.3-0.8s-0.9-1.2-0.9-2
			c0-1,0.4-1.8,1.1-2.3s1.8-0.8,3.2-0.8h1.2v-0.5c0-0.4-0.1-0.8-0.3-1.1s-0.6-0.4-1.1-0.4c-0.4,0-0.8,0.1-1,0.3s-0.4,0.5-0.4,0.8
			h-2.5c0-0.6,0.2-1.1,0.5-1.5s0.8-0.8,1.4-1.1s1.3-0.4,2.1-0.4c1.2,0,2.1,0.3,2.8,0.9c0.7,0.6,1,1.4,1,2.5v4.1c0,0.9,0.1,1.6,0.4,2
			v0.1H-559z M-561.1,1651.7c0.4,0,0.7-0.1,1-0.3c0.3-0.2,0.6-0.4,0.7-0.7v-1.6h-0.9c-1.3,0-1.9,0.4-2,1.3l0,0.1
			c0,0.3,0.1,0.6,0.3,0.8S-561.5,1651.7-561.1,1651.7z"/>
		<path class="st1" d="M-550.7,1648.7c0-1.5,0.3-2.7,1-3.5s1.6-1.3,2.7-1.3c0.9,0,1.7,0.3,2.3,1v-4.9h2.5v13.5h-2.3l-0.1-1
			c-0.6,0.8-1.4,1.2-2.4,1.2c-1.1,0-2-0.4-2.7-1.3S-550.7,1650.2-550.7,1648.7z M-548.2,1648.9c0,0.9,0.2,1.6,0.5,2.1
			s0.8,0.7,1.4,0.7c0.8,0,1.3-0.3,1.7-1v-3.8c-0.3-0.7-0.9-1-1.6-1C-547.6,1645.9-548.2,1646.9-548.2,1648.9z"/>
		<path class="st1" d="M-535.8,1653.7c-1.4,0-2.5-0.4-3.4-1.3s-1.3-2-1.3-3.4v-0.2c0-1,0.2-1.8,0.6-2.6s0.9-1.3,1.6-1.7
			s1.4-0.6,2.3-0.6c1.3,0,2.3,0.4,3.1,1.2s1.1,2,1.1,3.5v1h-6.1c0.1,0.6,0.3,1.1,0.7,1.5s0.9,0.6,1.6,0.6c1,0,1.7-0.4,2.3-1.1
			l1.2,1.4c-0.4,0.5-0.9,1-1.5,1.3C-534.3,1653.5-535,1653.7-535.8,1653.7z M-536.1,1645.9c-0.5,0-0.9,0.2-1.2,0.5
			c-0.3,0.3-0.5,0.8-0.6,1.5h3.5v-0.2c0-0.6-0.2-1-0.5-1.3C-535.2,1646-535.6,1645.9-536.1,1645.9z"/>
		<path class="st1" d="M-527.8,1653.5h-2.5V1640h2.5V1653.5z"/>
		<path class="st1" d="M-513.8,1650.9h-4.6l-0.9,2.6h-2.8l4.8-12.8h2.4l4.8,12.8h-2.8L-513.8,1650.9z M-517.7,1648.7h3.2l-1.6-4.8
			L-517.7,1648.7z M-515.6,1637.3h2.8l-2.4,2.7h-2.1L-515.6,1637.3z"/>
		<path class="st1" d="M-506.1,1641.6v2.3h1.6v1.9h-1.6v4.7c0,0.4,0.1,0.6,0.2,0.8s0.4,0.2,0.8,0.2c0.3,0,0.5,0,0.7-0.1v1.9
			c-0.5,0.2-1,0.2-1.5,0.2c-1.8,0-2.7-0.9-2.7-2.7v-5.1h-1.4v-1.9h1.4v-2.3H-506.1z"/>
		<path class="st1" d="M-503.7,1648.7c0-0.9,0.2-1.8,0.5-2.5s0.9-1.3,1.6-1.7s1.5-0.6,2.4-0.6c1.3,0,2.3,0.4,3.1,1.2
			s1.3,1.9,1.4,3.2l0,0.7c0,1.5-0.4,2.6-1.2,3.5s-1.9,1.3-3.3,1.3s-2.5-0.4-3.3-1.3s-1.2-2.1-1.2-3.6V1648.7z M-501.1,1648.8
			c0,0.9,0.2,1.6,0.5,2.1c0.3,0.5,0.8,0.7,1.5,0.7c0.6,0,1.1-0.2,1.4-0.7c0.3-0.5,0.5-1.2,0.5-2.3c0-0.9-0.2-1.6-0.5-2.1
			s-0.8-0.7-1.5-0.7c-0.6,0-1.1,0.2-1.4,0.7C-501,1647.1-501.1,1647.8-501.1,1648.8z"/>
		<path class="st1" d="M-490.7,1644l0.1,1.1c0.7-0.8,1.6-1.2,2.7-1.2c1.2,0,2.1,0.5,2.5,1.5c0.7-1,1.6-1.5,2.9-1.5
			c1,0,1.8,0.3,2.3,0.9c0.5,0.6,0.8,1.5,0.8,2.7v6.1h-2.5v-6.1c0-0.5-0.1-0.9-0.3-1.2s-0.6-0.4-1.1-0.4c-0.8,0-1.3,0.4-1.6,1.1
			l0,6.5h-2.5v-6.1c0-0.6-0.1-0.9-0.3-1.2s-0.6-0.4-1.1-0.4c-0.7,0-1.2,0.3-1.6,0.9v6.7h-2.5v-9.5H-490.7z"/>
		<path class="st1" d="M-477.9,1648.7c0-0.9,0.2-1.8,0.5-2.5s0.9-1.3,1.6-1.7s1.5-0.6,2.4-0.6c1.3,0,2.3,0.4,3.1,1.2
			s1.3,1.9,1.4,3.2l0,0.7c0,1.5-0.4,2.6-1.2,3.5s-1.9,1.3-3.3,1.3s-2.5-0.4-3.3-1.3s-1.2-2.1-1.2-3.6V1648.7z M-475.4,1648.8
			c0,0.9,0.2,1.6,0.5,2.1c0.3,0.5,0.8,0.7,1.5,0.7c0.6,0,1.1-0.2,1.4-0.7c0.3-0.5,0.5-1.2,0.5-2.3c0-0.9-0.2-1.6-0.5-2.1
			s-0.8-0.7-1.5-0.7c-0.6,0-1.1,0.2-1.4,0.7C-475.2,1647.1-475.4,1647.8-475.4,1648.8z"/>
		<path class="st1" d="M-463.3,1648.7c0-1.5,0.3-2.7,1-3.5s1.6-1.3,2.7-1.3c0.9,0,1.7,0.3,2.3,1v-4.9h2.5v13.5h-2.3l-0.1-1
			c-0.6,0.8-1.4,1.2-2.4,1.2c-1.1,0-2-0.4-2.7-1.3S-463.3,1650.2-463.3,1648.7z M-460.7,1648.9c0,0.9,0.2,1.6,0.5,2.1
			s0.8,0.7,1.4,0.7c0.8,0,1.3-0.3,1.7-1v-3.8c-0.3-0.7-0.9-1-1.6-1C-460.1,1645.9-460.7,1646.9-460.7,1648.9z"/>
		<path class="st1" d="M-448.4,1653.7c-1.4,0-2.5-0.4-3.4-1.3c-0.9-0.9-1.3-2-1.3-3.4v-0.2c0-1,0.2-1.8,0.6-2.6s0.9-1.3,1.6-1.7
			c0.7-0.4,1.4-0.6,2.3-0.6c1.3,0,2.3,0.4,3.1,1.2c0.7,0.8,1.1,2,1.1,3.5v1h-6.1c0.1,0.6,0.3,1.1,0.7,1.5c0.4,0.4,0.9,0.6,1.6,0.6
			c1,0,1.7-0.4,2.3-1.1l1.2,1.4c-0.4,0.5-0.9,1-1.5,1.3C-446.8,1653.5-447.6,1653.7-448.4,1653.7z M-448.6,1645.9
			c-0.5,0-0.9,0.2-1.2,0.5c-0.3,0.3-0.5,0.8-0.6,1.5h3.5v-0.2c0-0.6-0.2-1-0.5-1.3C-447.7,1646-448.1,1645.9-448.6,1645.9z"/>
		<path class="st1" d="M-427.9,1653.5h-2.6v-5.5h-5.1v5.5h-2.6v-12.8h2.6v5.2h5.1v-5.2h2.6V1653.5z"/>
		<path class="st1" d="M-421.4,1653.7c-1.4,0-2.5-0.4-3.4-1.3c-0.9-0.9-1.3-2-1.3-3.4v-0.2c0-1,0.2-1.8,0.6-2.6s0.9-1.3,1.6-1.7
			c0.7-0.4,1.4-0.6,2.3-0.6c1.3,0,2.3,0.4,3.1,1.2c0.7,0.8,1.1,2,1.1,3.5v1h-6.1c0.1,0.6,0.3,1.1,0.7,1.5c0.4,0.4,0.9,0.6,1.6,0.6
			c1,0,1.7-0.4,2.3-1.1l1.2,1.4c-0.4,0.5-0.9,1-1.5,1.3C-419.9,1653.5-420.6,1653.7-421.4,1653.7z M-421.7,1645.9
			c-0.5,0-0.9,0.2-1.2,0.5c-0.3,0.3-0.5,0.8-0.6,1.5h3.5v-0.2c0-0.6-0.2-1-0.5-1.3C-420.8,1646-421.2,1645.9-421.7,1645.9z"/>
		<path class="st1" d="M-413.4,1653.5h-2.5V1640h2.5V1653.5z"/>
		<path class="st1" d="M-411.3,1641.5c0-0.4,0.1-0.7,0.4-0.9c0.3-0.2,0.6-0.4,1-0.4c0.4,0,0.8,0.1,1,0.4s0.4,0.6,0.4,0.9
			c0,0.4-0.1,0.7-0.4,0.9s-0.6,0.4-1,0.4s-0.8-0.1-1-0.4C-411.2,1642.2-411.3,1641.9-411.3,1641.5z M-408.6,1653.5h-2.5v-9.5h2.5
			V1653.5z"/>
		<path class="st1" d="M-406.9,1648.7c0-0.9,0.2-1.8,0.5-2.5s0.9-1.3,1.6-1.7s1.5-0.6,2.4-0.6c1.3,0,2.3,0.4,3.1,1.2
			s1.3,1.9,1.4,3.2l0,0.7c0,1.5-0.4,2.6-1.2,3.5s-1.9,1.3-3.3,1.3s-2.5-0.4-3.3-1.3c-0.8-0.9-1.2-2.1-1.2-3.6V1648.7z
			 M-404.4,1648.8c0,0.9,0.2,1.6,0.5,2.1c0.3,0.5,0.8,0.7,1.5,0.7c0.6,0,1.1-0.2,1.4-0.7c0.3-0.5,0.5-1.2,0.5-2.3
			c0-0.9-0.2-1.6-0.5-2.1s-0.8-0.7-1.5-0.7c-0.6,0-1.1,0.2-1.4,0.7C-404.2,1647.1-404.4,1647.8-404.4,1648.8z"/>
	</g>
	<line id="Línea_324" class="st2" x1="-428" y1="1886.9" x2="-307.6" y2="1886.9"/>
	<line id="Línea_325" class="st2" x1="-497.7" y1="1825.3" x2="-307.6" y2="1825.3"/>
	<line id="Línea_326" class="st2" x1="-501.9" y1="1800.1" x2="-307.6" y2="1724.4"/>
	<circle id="Elipse_4708" class="st3" cx="-546.7" cy="1825.3" r="122.8"/>
	<g id="Grupo_64306" transform="translate(-671.75 1739.329)">
		
			<linearGradient id="Trazado_110869_1_" gradientUnits="userSpaceOnUse" x1="-19.5672" y1="641.8469" x2="-20.5052" y2="641.3829" gradientTransform="matrix(40.108 0 0 -40.109 821.305 25755.7637)">
			<stop  offset="0" style="stop-color:#50EEEF"/>
			<stop  offset="1" style="stop-color:#68A2F4"/>
		</linearGradient>
		<path id="Trazado_110869" class="st4" d="M40.1,20.1c0,11.1-9,20.1-20.1,20.1C9,40.1,0,31.1,0,20.1C0,9,9,0,20.1,0
			C31.1,0,40.1,9,40.1,20.1z"/>
		
			<linearGradient id="Trazado_110870_1_" gradientUnits="userSpaceOnUse" x1="-20.4714" y1="641.6441" x2="-19.4714" y2="641.6441" gradientTransform="matrix(37.8799 0 0 -40.109 775.4567 25755.7637)">
			<stop  offset="0" style="stop-color:#7D4CCA"/>
			<stop  offset="0.529" style="stop-color:#1B2AAB"/>
			<stop  offset="1" style="stop-color:#17256E"/>
		</linearGradient>
		<path id="Trazado_110870" class="st5" d="M32.7,30.2c-8.1,0-14.7-6.6-14.7-14.7l0,0c0-6.3,4-11.9,10-13.9c-2.5-1.1-5.2-1.7-8-1.7
			C9,0,0,9,0,20.1c0,11.1,9,20.1,20.1,20.1c7.5,0,14.4-4.2,17.8-10.9C36.2,29.9,34.5,30.2,32.7,30.2z"/>
	</g>
	<g id="Grupo_64307" transform="translate(-446.939 1852.081)">
		
			<linearGradient id="Trazado_110871_1_" gradientUnits="userSpaceOnUse" x1="-244.3782" y1="529.0945" x2="-245.3162" y2="528.6306" gradientTransform="matrix(40.108 0 0 -40.1079 9838.0254 21232.7969)">
			<stop  offset="0" style="stop-color:#50EEEF"/>
			<stop  offset="1" style="stop-color:#68A2F4"/>
		</linearGradient>
		<path id="Trazado_110871" class="st6" d="M40.1,20.1c0,11.1-9,20.1-20.1,20.1c0,0,0,0,0,0C9,40.1,0,31.1,0,20.1C0,9,9,0,20.1,0
			c0,0,0,0,0,0C31.1,0,40.1,9,40.1,20.1C40.1,20.1,40.1,20.1,40.1,20.1z"/>
		
			<linearGradient id="Trazado_110872_1_" gradientUnits="userSpaceOnUse" x1="-245.2824" y1="528.8917" x2="-244.2824" y2="528.8917" gradientTransform="matrix(37.878 0 0 -40.108 9290.8164 21232.8594)">
			<stop  offset="0" style="stop-color:#7D4CCA"/>
			<stop  offset="0.529" style="stop-color:#1B2AAB"/>
			<stop  offset="1" style="stop-color:#17256E"/>
		</linearGradient>
		<path id="Trazado_110872" class="st7" d="M32.7,30.2c-8.1,0-14.7-6.6-14.7-14.7c0-6.3,4-11.9,10-13.9c-2.5-1.1-5.2-1.7-8-1.7
			C9,0,0,9,0,20.1c0,0,0,0,0,0c0,11.1,9,20.1,20.1,20.1c7.5,0,14.4-4.2,17.8-10.9C36.2,29.9,34.5,30.2,32.7,30.2z"/>
	</g>
	<g id="Grupo_64308" transform="translate(-596.045 1802.353)">
		
			<linearGradient id="Elipse_4709_1_" gradientUnits="userSpaceOnUse" x1="-95.2698" y1="578.557" x2="-96.2078" y2="578.093" gradientTransform="matrix(39.164 0 0 -39.164 3766.79 22670.2441)">
			<stop  offset="0" style="stop-color:#7D4CCA"/>
			<stop  offset="0.529" style="stop-color:#1B2AAB"/>
			<stop  offset="1" style="stop-color:#17256E"/>
		</linearGradient>
		<circle id="Elipse_4709" class="st8" cx="19.6" cy="19.6" r="19.6"/>
		
			<linearGradient id="Trazado_110873_1_" gradientUnits="userSpaceOnUse" x1="-96.1739" y1="578.3542" x2="-95.1739" y2="578.3542" gradientTransform="matrix(36.988 0 0 -39.1642 3557.2837 22670.3516)">
			<stop  offset="0" style="stop-color:#7D4CCA"/>
			<stop  offset="0.529" style="stop-color:#1B2AAB"/>
			<stop  offset="1" style="stop-color:#17256E"/>
		</linearGradient>
		<path id="Trazado_110873" class="st9" d="M31.9,29.5c-7.9,0-14.3-6.4-14.3-14.3l0,0c0-6.1,4-11.6,9.8-13.5C24.9,0.6,22.3,0,19.6,0
			C8.8,0,0,8.8,0,19.6c0,0,0,0,0,0c0,10.8,8.8,19.6,19.6,19.6h0c7.3,0,14.1-4.1,17.4-10.6C35.4,29.2,33.7,29.5,31.9,29.5z"/>
	</g>
	<g id="Grupo_64309" transform="translate(-547.582 1802.353)">
		
			<linearGradient id="Elipse_4710_1_" gradientUnits="userSpaceOnUse" x1="-143.7328" y1="578.557" x2="-144.6709" y2="578.093" gradientTransform="matrix(39.164 0 0 -39.164 5664.7954 22670.2441)">
			<stop  offset="0" style="stop-color:#7D4CCA"/>
			<stop  offset="0.529" style="stop-color:#1B2AAB"/>
			<stop  offset="1" style="stop-color:#17256E"/>
		</linearGradient>
		<circle id="Elipse_4710" class="st10" cx="19.6" cy="19.6" r="19.6"/>
		
			<linearGradient id="Trazado_110874_1_" gradientUnits="userSpaceOnUse" x1="-144.6369" y1="578.3542" x2="-143.6369" y2="578.3542" gradientTransform="matrix(36.988 0 0 -39.1642 5349.8354 22670.3516)">
			<stop  offset="0" style="stop-color:#7D4CCA"/>
			<stop  offset="0.529" style="stop-color:#1B2AAB"/>
			<stop  offset="1" style="stop-color:#17256E"/>
		</linearGradient>
		<path id="Trazado_110874" class="st11" d="M31.9,29.5c-7.9,0-14.3-6.4-14.3-14.3l0,0c0-6.1,4-11.6,9.8-13.5
			C24.9,0.6,22.3,0,19.6,0C8.8,0,0,8.8,0,19.6l0,0c0,10.8,8.8,19.6,19.6,19.6h0c7.3,0,14.1-4.1,17.4-10.6
			C35.4,29.2,33.7,29.5,31.9,29.5z"/>
	</g>
	<g id="Grupo_64310" transform="translate(-566.622 1790.66)">
		
			<linearGradient id="Trazado_110875_1_" gradientUnits="userSpaceOnUse" x1="-124.491" y1="587.4796" x2="-125.241" y2="587.1216" gradientTransform="matrix(31.275 0 0 -31.2739 3927.4275 18379.6816)">
			<stop  offset="0" style="stop-color:#FCBAAA"/>
			<stop  offset="0.971" style="stop-color:#ED6BCF"/>
		</linearGradient>
		<path id="Trazado_110875" class="st12" d="M31.3,15.6c0,8.6-7,15.6-15.6,15.6C7,31.3,0,24.3,0,15.6S7,0,15.6,0
			C24.3,0,31.3,7,31.3,15.6z"/>
		
			<linearGradient id="Trazado_110876_1_" gradientUnits="userSpaceOnUse" x1="-125.5696" y1="587.1998" x2="-124.5696" y2="587.1998" gradientTransform="matrix(29.537 0 0 -31.2739 3708.9561 18379.6816)">
			<stop  offset="0" style="stop-color:#FCBAAA"/>
			<stop  offset="0.971" style="stop-color:#9A6BCF"/>
		</linearGradient>
		<path id="Trazado_110876" class="st13" d="M25.5,23.5c-6.3,0-11.4-5.1-11.4-11.4c0-4.9,3.2-9.3,7.8-10.8c-2-0.9-4.1-1.3-6.2-1.3
			C7,0,0,7,0,15.6c0,0,0,0,0,0c0,8.6,7,15.6,15.6,15.6c5.9,0,11.2-3.3,13.9-8.5C28.3,23.3,26.9,23.5,25.5,23.5z"/>
	</g>
	<g id="Grupo_64311" transform="translate(-566.622 1818.033)">
		
			<linearGradient id="Trazado_110877_1_" gradientUnits="userSpaceOnUse" x1="-124.491" y1="560.1067" x2="-125.241" y2="559.7487" gradientTransform="matrix(31.275 0 0 -31.2739 3927.4275 17523.6211)">
			<stop  offset="0" style="stop-color:#FCBAAA"/>
			<stop  offset="0.971" style="stop-color:#ED6BCF"/>
		</linearGradient>
		<path id="Trazado_110877" class="st14" d="M31.3,15.6c0,8.6-7,15.6-15.6,15.6C7,31.3,0,24.3,0,15.6C0,7,7,0,15.6,0c0,0,0,0,0,0
			C24.3,0,31.3,7,31.3,15.6C31.3,15.6,31.3,15.6,31.3,15.6z"/>
		
			<linearGradient id="Trazado_110878_1_" gradientUnits="userSpaceOnUse" x1="-125.5696" y1="559.8269" x2="-124.5696" y2="559.8269" gradientTransform="matrix(29.537 0 0 -31.2739 3708.9561 17523.6211)">
			<stop  offset="0" style="stop-color:#FCBAAA"/>
			<stop  offset="0.971" style="stop-color:#9A6BCF"/>
		</linearGradient>
		<path id="Trazado_110878" class="st15" d="M25.5,23.5c-6.3,0-11.4-5.1-11.4-11.4c0-4.9,3.2-9.3,7.8-10.8c-2-0.9-4.1-1.3-6.2-1.3
			C7,0,0,7,0,15.6c0,0,0,0,0,0c0,8.6,7,15.6,15.6,15.6c5.9,0,11.2-3.3,13.9-8.5C28.3,23.3,26.9,23.5,25.5,23.5z"/>
	</g>
	<g id="Grupo_64312" transform="translate(-657.124 1758.412)">
		<path id="Trazado_110879" class="st16" d="M8.3,3.6H0V0h8.3V3.6z"/>
	</g>
	<g id="Grupo_64313" transform="translate(-431.881 1871.912)">
		<path id="Trazado_110880" class="st16" d="M8.3,3.6H0V0h8.3L8.3,3.6z"/>
	</g>
	<g id="Grupo_64314" transform="translate(-558.435 1798.556)">
		<path id="Trazado_110881" class="st16" d="M9.1,5.2h4.7v4H9.1v5.4H4.7V9.2H0v-4h4.7V0h4.3V5.2z"/>
	</g>
	<g id="Grupo_64315" transform="translate(-556.261 1826.568)">
		<path id="Trazado_110882" class="st16" d="M9.1,5.2h4.7v4H9.1v5.4H4.7V9.2H0v-4h4.7V0h4.3V5.2z"/>
	</g>
</g>
</svg>
