<?xml version="1.0" encoding="utf-8"?>
<!-- Generator: Adobe Illustrator 25.2.3, SVG Export Plug-In . SVG Version: 6.00 Build 0)  -->
<!DOCTYPE svg PUBLIC "-//W3C//DTD SVG 1.1//EN" "http://www.w3.org/Graphics/SVG/1.1/DTD/svg11.dtd" [
	<!ENTITY ns_extend "http://ns.adobe.com/Extensibility/1.0/">
	<!ENTITY ns_ai "http://ns.adobe.com/AdobeIllustrator/10.0/">
	<!ENTITY ns_graphs "http://ns.adobe.com/Graphs/1.0/">
	<!ENTITY ns_vars "http://ns.adobe.com/Variables/1.0/">
	<!ENTITY ns_imrep "http://ns.adobe.com/ImageReplacement/1.0/">
	<!ENTITY ns_sfw "http://ns.adobe.com/SaveForWeb/1.0/">
	<!ENTITY ns_custom "http://ns.adobe.com/GenericCustomNamespace/1.0/">
	<!ENTITY ns_adobe_xpath "http://ns.adobe.com/XPath/1.0/">
]>
<svg version="1.1" id="Capa_1" xmlns:x="&ns_extend;" xmlns:i="&ns_ai;" xmlns:graph="&ns_graphs;"
	 xmlns="http://www.w3.org/2000/svg" xmlns:xlink="http://www.w3.org/1999/xlink" x="0px" y="0px" viewBox="0 0 307.7 372.1"
	 style="enable-background:new 0 0 307.7 372.1;" xml:space="preserve">
<style type="text/css">
	.st0{enable-background:new    ;}
	.st1{fill:#1B2D5B;}
	.st2{fill:none;stroke:#100142;stroke-miterlimit:10;}
	.st3{fill:url(#Trazado_110883_1_);}
	.st4{opacity:0.75;fill:url(#Trazado_110884_1_);enable-background:new    ;}
	.st5{fill:url(#Trazado_110885_1_);}
	.st6{opacity:0.75;fill:url(#Trazado_110886_1_);enable-background:new    ;}
	.st7{fill:url(#Trazado_110887_1_);}
	.st8{opacity:0.75;fill:url(#Trazado_110888_1_);enable-background:new    ;}
	.st9{fill:url(#Trazado_110889_1_);}
	.st10{opacity:0.75;fill:url(#Trazado_110890_1_);enable-background:new    ;}
	.st11{fill:url(#Trazado_110891_1_);}
	.st12{opacity:0.75;fill:url(#Trazado_110892_1_);enable-background:new    ;}
	.st13{fill:url(#Trazado_110893_1_);}
	.st14{opacity:0.75;fill:url(#Trazado_110894_1_);enable-background:new    ;}
	.st15{fill:url(#Trazado_110895_1_);}
	.st16{opacity:0.75;fill:url(#Trazado_110896_1_);enable-background:new    ;}
	.st17{fill:url(#Trazado_110897_1_);}
	.st18{opacity:0.75;fill:url(#Trazado_110898_1_);enable-background:new    ;}
	.st19{fill:url(#Trazado_110899_1_);}
	.st20{opacity:0.75;fill:url(#Trazado_110900_1_);enable-background:new    ;}
	.st21{fill:url(#Trazado_110901_1_);}
	.st22{fill:url(#Trazado_110902_1_);}
	.st23{fill:#FFFFFF;}
</style>
<metadata>
	<sfw  xmlns="&ns_sfw;">
		<slices></slices>
		<sliceSourceBounds  bottomLeftOrigin="true" height="369.3" width="307.7" x="0" y="0"></sliceSourceBounds>
	</sfw>
</metadata>
<g id="Grupo_64335" transform="translate(714.633 -1939.329)">
	<g class="st0">
		<path class="st1" d="M-650.8,1955.7h-4.6l-0.9,2.6h-2.8l4.8-12.8h2.4l4.8,12.8h-2.8L-650.8,1955.7z M-654.7,1953.6h3.2l-1.6-4.8
			L-654.7,1953.6z M-652.6,1942.1h2.8l-2.4,2.7h-2.1L-652.6,1942.1z"/>
		<path class="st1" d="M-643,1946.5v2.3h1.6v1.9h-1.6v4.7c0,0.4,0.1,0.6,0.2,0.8s0.4,0.2,0.8,0.2c0.3,0,0.5,0,0.7-0.1v1.9
			c-0.5,0.2-1,0.2-1.5,0.2c-1.8,0-2.7-0.9-2.7-2.7v-5.1h-1.4v-1.9h1.4v-2.3H-643z"/>
		<path class="st1" d="M-640.7,1953.5c0-0.9,0.2-1.8,0.5-2.5s0.9-1.3,1.6-1.7s1.5-0.6,2.4-0.6c1.3,0,2.3,0.4,3.1,1.2
			s1.3,1.9,1.4,3.2l0,0.7c0,1.5-0.4,2.6-1.2,3.5s-1.9,1.3-3.3,1.3s-2.5-0.4-3.3-1.3s-1.2-2.1-1.2-3.6V1953.5z M-638.1,1953.7
			c0,0.9,0.2,1.6,0.5,2.1c0.3,0.5,0.8,0.7,1.5,0.7c0.6,0,1.1-0.2,1.4-0.7c0.3-0.5,0.5-1.2,0.5-2.3c0-0.9-0.2-1.6-0.5-2.1
			s-0.8-0.7-1.5-0.7c-0.6,0-1.1,0.2-1.4,0.7C-638,1951.9-638.1,1952.7-638.1,1953.7z"/>
		<path class="st1" d="M-627.7,1948.8l0.1,1.1c0.7-0.8,1.6-1.2,2.7-1.2c1.2,0,2.1,0.5,2.5,1.5c0.7-1,1.6-1.5,2.9-1.5
			c1,0,1.8,0.3,2.3,0.9c0.5,0.6,0.8,1.5,0.8,2.7v6.1h-2.5v-6.1c0-0.5-0.1-0.9-0.3-1.2s-0.6-0.4-1.1-0.4c-0.8,0-1.3,0.4-1.6,1.1
			l0,6.5h-2.5v-6.1c0-0.6-0.1-0.9-0.3-1.2s-0.6-0.4-1.1-0.4c-0.7,0-1.2,0.3-1.6,0.9v6.7h-2.5v-9.5H-627.7z"/>
		<path class="st1" d="M-614.9,1953.5c0-0.9,0.2-1.8,0.5-2.5s0.9-1.3,1.6-1.7s1.5-0.6,2.4-0.6c1.3,0,2.3,0.4,3.1,1.2
			s1.3,1.9,1.4,3.2l0,0.7c0,1.5-0.4,2.6-1.2,3.5s-1.9,1.3-3.3,1.3s-2.5-0.4-3.3-1.3s-1.2-2.1-1.2-3.6V1953.5z M-612.4,1953.7
			c0,0.9,0.2,1.6,0.5,2.1c0.3,0.5,0.8,0.7,1.5,0.7c0.6,0,1.1-0.2,1.4-0.7c0.3-0.5,0.5-1.2,0.5-2.3c0-0.9-0.2-1.6-0.5-2.1
			s-0.8-0.7-1.5-0.7c-0.6,0-1.1,0.2-1.4,0.7C-612.2,1951.9-612.4,1952.7-612.4,1953.7z"/>
		<path class="st1" d="M-600.2,1953.5c0-1.5,0.3-2.7,1-3.5s1.6-1.3,2.7-1.3c0.9,0,1.7,0.3,2.3,1v-4.9h2.5v13.5h-2.3l-0.1-1
			c-0.6,0.8-1.4,1.2-2.4,1.2c-1.1,0-2-0.4-2.7-1.3S-600.2,1955.1-600.2,1953.5z M-597.7,1953.7c0,0.9,0.2,1.6,0.5,2.1
			s0.8,0.7,1.4,0.7c0.8,0,1.3-0.3,1.7-1v-3.8c-0.3-0.7-0.9-1-1.6-1C-597.1,1950.7-597.7,1951.7-597.7,1953.7z"/>
		<path class="st1" d="M-585.3,1958.5c-1.4,0-2.5-0.4-3.4-1.3s-1.3-2-1.3-3.4v-0.2c0-1,0.2-1.8,0.6-2.6s0.9-1.3,1.6-1.7
			s1.4-0.6,2.3-0.6c1.3,0,2.3,0.4,3.1,1.2s1.1,2,1.1,3.5v1h-6.1c0.1,0.6,0.3,1.1,0.7,1.5s0.9,0.6,1.6,0.6c1,0,1.7-0.4,2.3-1.1
			l1.2,1.4c-0.4,0.5-0.9,1-1.5,1.3C-583.8,1958.4-584.5,1958.5-585.3,1958.5z M-585.6,1950.7c-0.5,0-0.9,0.2-1.2,0.5
			c-0.3,0.3-0.5,0.8-0.6,1.5h3.5v-0.2c0-0.6-0.2-1-0.5-1.3C-584.7,1950.8-585.1,1950.7-585.6,1950.7z"/>
		<path class="st1" d="M-575.9,1953.5c0-0.9,0.2-1.8,0.5-2.5s0.9-1.3,1.6-1.7s1.5-0.6,2.4-0.6c1.3,0,2.3,0.4,3.1,1.2
			s1.3,1.9,1.4,3.2l0,0.7c0,1.5-0.4,2.6-1.2,3.5s-1.9,1.3-3.3,1.3s-2.5-0.4-3.3-1.3s-1.2-2.1-1.2-3.6V1953.5z M-573.3,1953.7
			c0,0.9,0.2,1.6,0.5,2.1c0.3,0.5,0.8,0.7,1.5,0.7c0.6,0,1.1-0.2,1.4-0.7c0.3-0.5,0.5-1.2,0.5-2.3c0-0.9-0.2-1.6-0.5-2.1
			s-0.8-0.7-1.5-0.7c-0.6,0-1.1,0.2-1.4,0.7C-573.2,1951.9-573.3,1952.7-573.3,1953.7z"/>
		<path class="st1" d="M-561.9,1951.7l1.6-2.8h2.7l-2.7,4.7l2.8,4.9h-2.7l-1.7-3l-1.7,3h-2.7l2.8-4.9l-2.7-4.7h2.7L-561.9,1951.7z"
			/>
		<path class="st1" d="M-553.6,1958.3h-2.5v-9.5h2.5V1958.3z M-554.3,1945h2.8l-2.4,2.7h-2.1L-554.3,1945z"/>
		<path class="st1" d="M-551.8,1953.5c0-1.5,0.3-2.6,1-3.5s1.6-1.3,2.8-1.3c1,0,1.9,0.4,2.4,1.1l0.1-0.9h2.3v9.2
			c0,0.8-0.2,1.6-0.6,2.2s-0.9,1.1-1.6,1.4s-1.5,0.5-2.4,0.5c-0.7,0-1.4-0.1-2-0.4s-1.2-0.6-1.5-1.1l1.1-1.5
			c0.6,0.7,1.4,1.1,2.3,1.1c0.7,0,1.2-0.2,1.6-0.5c0.4-0.4,0.6-0.9,0.6-1.5v-0.5c-0.6,0.7-1.4,1-2.3,1c-1.1,0-2.1-0.4-2.8-1.3
			s-1.1-2.1-1.1-3.6V1953.5z M-549.2,1953.7c0,0.9,0.2,1.5,0.5,2c0.3,0.5,0.8,0.7,1.4,0.7c0.8,0,1.3-0.3,1.7-0.9v-4
			c-0.3-0.6-0.9-0.9-1.6-0.9c-0.6,0-1.1,0.2-1.4,0.7C-549.1,1952-549.2,1952.7-549.2,1953.7z"/>
		<path class="st1" d="M-536.8,1958.5c-1.4,0-2.5-0.4-3.4-1.3s-1.3-2-1.3-3.4v-0.2c0-1,0.2-1.8,0.6-2.6s0.9-1.3,1.6-1.7
			s1.4-0.6,2.3-0.6c1.3,0,2.3,0.4,3.1,1.2s1.1,2,1.1,3.5v1h-6.1c0.1,0.6,0.3,1.1,0.7,1.5s0.9,0.6,1.6,0.6c1,0,1.7-0.4,2.3-1.1
			l1.2,1.4c-0.4,0.5-0.9,1-1.5,1.3C-535.2,1958.4-536,1958.5-536.8,1958.5z M-537,1950.7c-0.5,0-0.9,0.2-1.2,0.5
			c-0.3,0.3-0.5,0.8-0.6,1.5h3.5v-0.2c0-0.6-0.2-1-0.5-1.3C-536.1,1950.8-536.5,1950.7-537,1950.7z"/>
		<path class="st1" d="M-529.1,1948.8l0.1,1.1c0.7-0.8,1.6-1.3,2.7-1.3c1,0,1.8,0.3,2.2,0.9s0.7,1.5,0.8,2.7v6.1h-2.5v-6.1
			c0-0.5-0.1-0.9-0.4-1.2c-0.2-0.2-0.6-0.4-1.2-0.4c-0.7,0-1.3,0.3-1.6,0.9v6.7h-2.5v-9.5H-529.1z"/>
		<path class="st1" d="M-521.7,1953.5c0-0.9,0.2-1.8,0.5-2.5s0.9-1.3,1.6-1.7s1.5-0.6,2.4-0.6c1.3,0,2.3,0.4,3.1,1.2
			s1.3,1.9,1.4,3.2l0,0.7c0,1.5-0.4,2.6-1.2,3.5s-1.9,1.3-3.3,1.3s-2.5-0.4-3.3-1.3s-1.2-2.1-1.2-3.6V1953.5z M-519.2,1953.7
			c0,0.9,0.2,1.6,0.5,2.1c0.3,0.5,0.8,0.7,1.5,0.7c0.6,0,1.1-0.2,1.4-0.7c0.3-0.5,0.5-1.2,0.5-2.3c0-0.9-0.2-1.6-0.5-2.1
			s-0.8-0.7-1.5-0.7c-0.6,0-1.1,0.2-1.4,0.7C-519,1951.9-519.2,1952.7-519.2,1953.7z"/>
	</g>
	<circle id="Elipse_4711" class="st2" cx="-561.5" cy="2152.2" r="147.4"/>
	<circle id="Elipse_4712" class="st2" cx="-563.8" cy="2152.2" r="98.2"/>
	<g id="Grupo_64317" transform="translate(-534.626 2054.028)">
		
			<linearGradient id="Trazado_110883_1_" gradientUnits="userSpaceOnUse" x1="-261.4452" y1="659.1193" x2="-262.3832" y2="658.6553" gradientTransform="matrix(32.054 0 0 -32.0541 8409.5234 21136.9844)">
			<stop  offset="0" style="stop-color:#50EEEF"/>
			<stop  offset="1" style="stop-color:#68A2F4"/>
		</linearGradient>
		<path id="Trazado_110883" class="st3" d="M32.1,16c0,8.9-7.2,16-16,16h0c-8.9,0-16-7.2-16-16l0,0C0,7.2,7.2,0,16,0
			S32.1,7.2,32.1,16z"/>
		
			<linearGradient id="Trazado_110884_1_" gradientUnits="userSpaceOnUse" x1="-262.1991" y1="658.9165" x2="-261.1991" y2="658.9165" gradientTransform="matrix(30.272 0 0 -32.0543 7937.2842 21137.1484)">
			<stop  offset="0" style="stop-color:#7D4CCA"/>
			<stop  offset="0.529" style="stop-color:#1B2AAB"/>
			<stop  offset="1" style="stop-color:#17256E"/>
		</linearGradient>
		<path id="Trazado_110884" class="st4" d="M26.1,24.1c-6.5,0-11.7-5.3-11.7-11.7c0,0,0,0,0,0c0-5,3.2-9.5,8-11.1
			C20.4,0.5,18.2,0,16,0C7.2,0,0,7.2,0,16l0,0c0,8.9,7.2,16,16,16h0c6,0,11.5-3.4,14.2-8.7C29,23.9,27.6,24.1,26.1,24.1z"/>
	</g>
	<g id="Grupo_64318" transform="translate(-610.79 1988.82)">
		
			<linearGradient id="Trazado_110885_1_" gradientUnits="userSpaceOnUse" x1="-185.2811" y1="724.3273" x2="-186.2191" y2="723.8633" gradientTransform="matrix(32.053 0 0 -32.054 5967.98 23227.082)">
			<stop  offset="0" style="stop-color:#50EEEF"/>
			<stop  offset="1" style="stop-color:#68A2F4"/>
		</linearGradient>
		<path id="Trazado_110885" class="st5" d="M32.1,16c0,8.9-7.2,16-16,16c0,0,0,0,0,0c-8.9,0-16-7.2-16-16c0,0,0,0,0,0
			C0,7.2,7.2,0,16,0c0,0,0,0,0,0C24.9,0,32.1,7.2,32.1,16C32.1,16,32.1,16,32.1,16z"/>
		
			<linearGradient id="Trazado_110886_1_" gradientUnits="userSpaceOnUse" x1="-186.035" y1="724.1246" x2="-185.035" y2="724.1246" gradientTransform="matrix(30.271 0 0 -32.0541 5631.4673 23227.1719)">
			<stop  offset="0" style="stop-color:#7D4CCA"/>
			<stop  offset="0.529" style="stop-color:#1B2AAB"/>
			<stop  offset="1" style="stop-color:#17256E"/>
		</linearGradient>
		<path id="Trazado_110886" class="st6" d="M26.1,24.1c-6.5,0-11.7-5.3-11.7-11.7c0-5,3.2-9.5,8-11.1C20.4,0.5,18.2,0,16,0
			C7.2,0,0,7.2,0,16c0,0,0,0,0,0c0,8.9,7.2,16,16,16c0,0,0,0,0,0c6,0,11.5-3.4,14.2-8.7C29,23.9,27.6,24.1,26.1,24.1z"/>
	</g>
	<g id="Grupo_64319" transform="translate(-446.184 2069.014)">
		
			<linearGradient id="Trazado_110887_1_" gradientUnits="userSpaceOnUse" x1="-349.8871" y1="644.1334" x2="-350.8252" y2="643.6694" gradientTransform="matrix(32.054 0 0 -32.0541 11244.46 20656.627)">
			<stop  offset="0" style="stop-color:#50EEEF"/>
			<stop  offset="1" style="stop-color:#68A2F4"/>
		</linearGradient>
		<path id="Trazado_110887" class="st7" d="M32.1,16c0,8.9-7.2,16-16,16c0,0,0,0,0,0c-8.9,0-16-7.2-16-16l0,0C0,7.2,7.2,0,16,0
			C24.9,0,32.1,7.2,32.1,16C32.1,16,32.1,16,32.1,16z"/>
		
			<linearGradient id="Trazado_110888_1_" gradientUnits="userSpaceOnUse" x1="-350.6411" y1="643.9307" x2="-349.6411" y2="643.9307" gradientTransform="matrix(30.272 0 0 -32.0542 10614.6094 20656.709)">
			<stop  offset="0" style="stop-color:#7D4CCA"/>
			<stop  offset="0.529" style="stop-color:#1B2AAB"/>
			<stop  offset="1" style="stop-color:#17256E"/>
		</linearGradient>
		<path id="Trazado_110888" class="st8" d="M26.1,24.1c-6.5,0-11.7-5.3-11.7-11.7c0-5,3.2-9.5,8-11.1C20.4,0.5,18.2,0,16,0
			C7.2,0,0,7.2,0,16c0,8.9,7.2,16,16,16c0,0,0,0,0,0c6,0,11.5-3.4,14.2-8.7C29,23.9,27.6,24.1,26.1,24.1z"/>
	</g>
	<g id="Grupo_64320" transform="translate(-615.482 2227.788)">
		
			<linearGradient id="Trazado_110889_1_" gradientUnits="userSpaceOnUse" x1="-180.5891" y1="485.3585" x2="-181.5271" y2="484.8945" gradientTransform="matrix(32.054 0 0 -32.0522 5817.7681 15566.3555)">
			<stop  offset="0" style="stop-color:#50EEEF"/>
			<stop  offset="1" style="stop-color:#68A2F4"/>
		</linearGradient>
		<path id="Trazado_110889" class="st9" d="M32.1,16c0,8.9-7.2,16-16,16c-8.9,0-16-7.2-16-16C0,7.2,7.2,0,16,0h0
			C24.9,0,32.1,7.2,32.1,16L32.1,16z"/>
		
			<linearGradient id="Trazado_110890_1_" gradientUnits="userSpaceOnUse" x1="-181.3431" y1="485.1557" x2="-180.3431" y2="485.1557" gradientTransform="matrix(30.272 0 0 -32.0522 5489.6143 15566.3555)">
			<stop  offset="0" style="stop-color:#7D4CCA"/>
			<stop  offset="0.529" style="stop-color:#1B2AAB"/>
			<stop  offset="1" style="stop-color:#17256E"/>
		</linearGradient>
		<path id="Trazado_110890" class="st10" d="M26.1,24.1c-6.5,0-11.7-5.3-11.7-11.7c0-5,3.2-9.5,8-11.1C20.4,0.5,18.2,0,16,0
			C7.2,0,0,7.2,0,16l0,0c0,8.9,7.2,16,16,16c6,0,11.5-3.4,14.2-8.7C29,23.9,27.6,24.1,26.1,24.1z"/>
	</g>
	<g id="Grupo_64321" transform="translate(-543.225 2279.334)">
		
			<linearGradient id="Trazado_110891_1_" gradientUnits="userSpaceOnUse" x1="-252.8461" y1="433.8125" x2="-253.7841" y2="433.3485" gradientTransform="matrix(32.053 0 0 -32.052 8133.6396 13914.084)">
			<stop  offset="0" style="stop-color:#50EEEF"/>
			<stop  offset="1" style="stop-color:#68A2F4"/>
		</linearGradient>
		<path id="Trazado_110891" class="st11" d="M32.1,16c0,8.9-7.2,16-16,16c0,0,0,0,0,0c-8.9,0-16-7.2-16-16c0,0,0,0,0,0
			C0,7.2,7.2,0,16,0c0,0,0,0,0,0C24.9,0,32.1,7.2,32.1,16C32.1,16,32.1,16,32.1,16z"/>
		
			<linearGradient id="Trazado_110892_1_" gradientUnits="userSpaceOnUse" x1="-253.6001" y1="433.6098" x2="-252.6001" y2="433.6098" gradientTransform="matrix(30.271 0 0 -32.0522 7676.7261 13914.1963)">
			<stop  offset="0" style="stop-color:#7D4CCA"/>
			<stop  offset="0.529" style="stop-color:#1B2AAB"/>
			<stop  offset="1" style="stop-color:#17256E"/>
		</linearGradient>
		<path id="Trazado_110892" class="st12" d="M26.1,24.1c-6.5,0-11.7-5.3-11.7-11.7c0-5,3.2-9.5,8-11.1C20.4,0.5,18.2,0,16,0
			C7.2,0,0,7.2,0,16c0,0,0,0,0,0c0,8.9,7.2,16,16,16c0,0,0,0,0,0c6,0,11.5-3.4,14.2-8.7C29,23.9,27.6,24.1,26.1,24.1z"/>
	</g>
	<g id="Grupo_64322" transform="translate(-708.839 2205.991)">
		
			<linearGradient id="Trazado_110893_1_" gradientUnits="userSpaceOnUse" x1="-87.2321" y1="507.1564" x2="-88.1701" y2="506.6924" gradientTransform="matrix(32.053 0 0 -32.0542 2825.2173 16266.0205)">
			<stop  offset="0" style="stop-color:#50EEEF"/>
			<stop  offset="1" style="stop-color:#68A2F4"/>
		</linearGradient>
		<path id="Trazado_110893" class="st13" d="M32.1,16c0,8.9-7.2,16-16,16c0,0,0,0,0,0c-8.9,0-16-7.2-16-16c0,0,0,0,0,0
			C0,7.2,7.2,0,16,0c0,0,0,0,0,0C24.9,0,32.1,7.2,32.1,16C32.1,16,32.1,16,32.1,16z"/>
		
			<linearGradient id="Trazado_110894_1_" gradientUnits="userSpaceOnUse" x1="-87.986" y1="506.9537" x2="-86.986" y2="506.9537" gradientTransform="matrix(30.271 0 0 -32.0544 2663.425 16266.1455)">
			<stop  offset="0" style="stop-color:#7D4CCA"/>
			<stop  offset="0.529" style="stop-color:#1B2AAB"/>
			<stop  offset="1" style="stop-color:#17256E"/>
		</linearGradient>
		<path id="Trazado_110894" class="st14" d="M26.1,24.1c-6.5,0-11.7-5.3-11.7-11.7c0-5,3.2-9.5,8-11.1C20.4,0.5,18.2,0,16,0
			C7.2,0,0,7.2,0,16c0,0,0,0,0,0c0,8.9,7.2,16,16,16c0,0,0,0,0,0c6,0,11.5-3.4,14.2-8.7C29,23.9,27.6,24.1,26.1,24.1z"/>
	</g>
	<g id="Grupo_64323" transform="translate(-714.633 2085.041)">
		
			<linearGradient id="Trazado_110895_1_" gradientUnits="userSpaceOnUse" x1="-81.4381" y1="628.1065" x2="-82.3761" y2="627.6425" gradientTransform="matrix(32.054 0 0 -32.0544 2639.5862 20143.1289)">
			<stop  offset="0" style="stop-color:#50EEEF"/>
			<stop  offset="1" style="stop-color:#68A2F4"/>
		</linearGradient>
		<path id="Trazado_110895" class="st15" d="M32.1,16c0,8.9-7.2,16-16,16c0,0,0,0,0,0c-8.9,0-16-7.2-16-16l0,0C0,7.2,7.2,0,16,0h0
			C24.9,0,32.1,7.2,32.1,16C32.1,16,32.1,16,32.1,16z"/>
		
			<linearGradient id="Trazado_110896_1_" gradientUnits="userSpaceOnUse" x1="-82.1921" y1="627.9036" x2="-81.1921" y2="627.9036" gradientTransform="matrix(30.272 0 0 -32.0544 2488.1167 20143.1289)">
			<stop  offset="0" style="stop-color:#7D4CCA"/>
			<stop  offset="0.529" style="stop-color:#1B2AAB"/>
			<stop  offset="1" style="stop-color:#17256E"/>
		</linearGradient>
		<path id="Trazado_110896" class="st16" d="M26.1,24.1c-6.5,0-11.7-5.3-11.7-11.7c0-5,3.2-9.5,8-11.1C20.4,0.5,18.2,0,16,0
			C7.2,0,0,7.2,0,16l0,0c0,8.9,7.2,16,16,16h0c6,0,11.5-3.4,14.2-8.7C29,23.9,27.6,24.1,26.1,24.1z"/>
	</g>
	<g id="Grupo_64324" transform="translate(-465.641 2234.35)">
		
			<linearGradient id="Trazado_110897_1_" gradientUnits="userSpaceOnUse" x1="-330.4301" y1="478.7964" x2="-331.3681" y2="478.3324" gradientTransform="matrix(32.053 0 0 -32.052 10620.4492 15355.9082)">
			<stop  offset="0" style="stop-color:#50EEEF"/>
			<stop  offset="1" style="stop-color:#68A2F4"/>
		</linearGradient>
		<path id="Trazado_110897" class="st17" d="M32.1,16c0,8.9-7.2,16-16,16c0,0,0,0,0,0c-8.9,0-16-7.2-16-16c0,0,0,0,0,0
			C0,7.2,7.2,0,16,0c0,0,0,0,0,0C24.9,0,32.1,7.2,32.1,16L32.1,16z"/>
		
			<linearGradient id="Trazado_110898_1_" gradientUnits="userSpaceOnUse" x1="-331.1842" y1="478.5937" x2="-330.1842" y2="478.5937" gradientTransform="matrix(30.273 0 0 -32.0522 10025.9385 15356.0293)">
			<stop  offset="0" style="stop-color:#7D4CCA"/>
			<stop  offset="0.529" style="stop-color:#1B2AAB"/>
			<stop  offset="1" style="stop-color:#17256E"/>
		</linearGradient>
		<path id="Trazado_110898" class="st18" d="M26.1,24.1c-6.5,0-11.7-5.3-11.7-11.7c0,0,0,0,0,0c0-5,3.2-9.5,8-11.1
			C20.4,0.5,18.2,0,16,0C7.2,0,0,7.2,0,16c0,0,0,0,0,0c0,8.9,7.2,16,16,16c0,0,0,0,0,0c6,0,11.5-3.4,14.2-8.7
			C29,23.9,27.6,24.1,26.1,24.1z"/>
	</g>
	<g id="Grupo_64325" transform="translate(-438.952 2169.616)">
		
			<linearGradient id="Trazado_110899_1_" gradientUnits="userSpaceOnUse" x1="-357.1191" y1="543.5305" x2="-358.0571" y2="543.0665" gradientTransform="matrix(32.053 0 0 -32.0518 11475.9102 17430.6309)">
			<stop  offset="0" style="stop-color:#50EEEF"/>
			<stop  offset="1" style="stop-color:#68A2F4"/>
		</linearGradient>
		<path id="Trazado_110899" class="st19" d="M32.1,16c0,8.9-7.2,16-16,16c0,0,0,0,0,0c-8.9,0-16-7.2-16-16C0,7.2,7.2,0,16,0
			c0,0,0,0,0,0C24.9,0,32.1,7.2,32.1,16C32.1,16,32.1,16,32.1,16z"/>
		
			<linearGradient id="Trazado_110900_1_" gradientUnits="userSpaceOnUse" x1="-357.8732" y1="543.3277" x2="-356.8732" y2="543.3277" gradientTransform="matrix(30.273 0 0 -32.052 10833.8945 17430.7656)">
			<stop  offset="0" style="stop-color:#7D4CCA"/>
			<stop  offset="0.529" style="stop-color:#1B2AAB"/>
			<stop  offset="1" style="stop-color:#17256E"/>
		</linearGradient>
		<path id="Trazado_110900" class="st20" d="M26.1,24.1c-6.5,0-11.7-5.3-11.7-11.7c0,0,0,0,0,0c0-5,3.2-9.5,8-11.1
			C20.4,0.5,18.2,0,16,0C7.2,0,0,7.2,0,16c0,0,0,0,0,0c0,8.9,7.2,16,16,16c6,0,11.5-3.4,14.2-8.7C29,23.9,27.6,24.1,26.1,24.1z"/>
	</g>
	<g id="Grupo_64326" transform="translate(-595.135 2124.094)">
		
			<linearGradient id="Trazado_110901_1_" gradientUnits="userSpaceOnUse" x1="-201.8998" y1="594.6681" x2="-202.6498" y2="594.3101" gradientTransform="matrix(56.215 0 0 -56.2158 11410.8477 33442.1367)">
			<stop  offset="0" style="stop-color:#FCBAAA"/>
			<stop  offset="0.971" style="stop-color:#ED6BCF"/>
		</linearGradient>
		<path id="Trazado_110901" class="st21" d="M56.2,28.1c0,15.5-12.6,28.1-28.1,28.1C12.6,56.2,0,43.6,0,28.1C0,12.6,12.6,0,28.1,0
			c0,0,0,0,0,0C43.6,0,56.2,12.6,56.2,28.1C56.2,28.1,56.2,28.1,56.2,28.1z"/>
		
			<linearGradient id="Trazado_110902_1_" gradientUnits="userSpaceOnUse" x1="-202.897" y1="594.3883" x2="-201.897" y2="594.3883" gradientTransform="matrix(53.092 0 0 -56.2161 10772.1992 33442.2812)">
			<stop  offset="0" style="stop-color:#FCBAAA"/>
			<stop  offset="0.971" style="stop-color:#9A6BCF"/>
		</linearGradient>
		<path id="Trazado_110902" class="st22" d="M45.8,42.3c-11.4,0-20.6-9.2-20.6-20.6c0,0,0,0,0,0c0-8.8,5.7-16.6,14-19.4
			C35.8,0.8,32,0,28.1,0C12.6,0,0,12.6,0,28.1c0,0,0,0,0,0c0,15.5,12.6,28.1,28.1,28.1c10.5,0,20.2-5.9,25-15.3
			C50.8,41.8,48.3,42.3,45.8,42.3z"/>
	</g>
	<g id="Grupo_64327" transform="translate(-427.129 2184.21)">
		<path id="Trazado_110903" class="st23" d="M6.6,2.9H0V0h6.6V2.9z"/>
	</g>
	<g id="Grupo_64328" transform="translate(-433.469 2083.608)">
		<path id="Trazado_110904" class="st23" d="M6.6,2.9H0V0h6.6V2.9z"/>
	</g>
	<g id="Grupo_64329" transform="translate(-598.967 2003.414)">
		<path id="Trazado_110905" class="st23" d="M6.6,2.9H0V0h6.6V2.9z"/>
	</g>
	<g id="Grupo_64330" transform="translate(-702.809 2099.635)">
		<path id="Trazado_110906" class="st23" d="M6.6,2.9H0V0h6.6V2.9z"/>
	</g>
	<g id="Grupo_64331" transform="translate(-697.016 2220.586)">
		<path id="Trazado_110907" class="st23" d="M6.6,2.9H0V0h6.6V2.9z"/>
	</g>
	<g id="Grupo_64332" transform="translate(-602.766 2242.382)">
		<path id="Trazado_110908" class="st23" d="M6.6,2.9H0V0h6.6V2.9z"/>
	</g>
	<g id="Grupo_64333" transform="translate(-530.511 2293.928)">
		<path id="Trazado_110909" class="st23" d="M6.6,2.9H0V0h6.6V2.9z"/>
	</g>
	<g id="Grupo_64334" transform="translate(-452.927 2248.943)">
		<path id="Trazado_110910" class="st23" d="M6.6,2.9H0V0h6.6V2.9z"/>
	</g>
	<g class="st0">
		<path class="st23" d="M-571.6,2141.7c0,0.5-0.1,0.9-0.4,1.3s-0.6,0.7-1,0.9c0.5,0.2,0.9,0.6,1.1,1c0.3,0.4,0.4,0.9,0.4,1.4
			c0,0.9-0.3,1.6-0.9,2.1c-0.6,0.5-1.4,0.8-2.5,0.8s-1.9-0.3-2.5-0.8s-0.9-1.2-0.9-2.1c0-0.6,0.1-1,0.4-1.4s0.7-0.7,1.1-1
			c-0.4-0.2-0.8-0.5-1-0.9s-0.4-0.8-0.4-1.3c0-0.8,0.3-1.5,0.8-2c0.6-0.5,1.3-0.8,2.3-0.8c1,0,1.7,0.2,2.3,0.7
			C-571.9,2140.1-571.6,2140.8-571.6,2141.7z M-573.3,2146.1c0-0.4-0.1-0.8-0.4-1s-0.6-0.4-1-0.4c-0.4,0-0.8,0.1-1,0.4
			c-0.3,0.3-0.4,0.6-0.4,1c0,0.4,0.1,0.8,0.4,1s0.6,0.4,1,0.4c0.4,0,0.8-0.1,1-0.4S-573.3,2146.6-573.3,2146.1z M-573.5,2141.8
			c0-0.4-0.1-0.7-0.3-0.9c-0.2-0.2-0.5-0.4-0.9-0.4c-0.4,0-0.7,0.1-0.9,0.3s-0.3,0.5-0.3,0.9c0,0.4,0.1,0.7,0.3,1s0.5,0.4,0.9,0.4
			s0.7-0.1,0.9-0.4S-573.5,2142.2-573.5,2141.8z"/>
		<path class="st23" d="M-567.8,2145.5v3.5h-2.1v-10h3.9c0.7,0,1.4,0.1,2,0.4s1,0.7,1.3,1.2c0.3,0.5,0.5,1.1,0.5,1.7
			c0,1-0.3,1.7-1,2.3c-0.7,0.6-1.6,0.8-2.8,0.8H-567.8z M-567.8,2143.8h1.8c0.5,0,1-0.1,1.2-0.4s0.4-0.6,0.4-1.1
			c0-0.5-0.1-0.9-0.4-1.2s-0.7-0.5-1.2-0.5h-1.9V2143.8z"/>
		<path class="st23" d="M-556.9,2143.4h2.5v1.8h-2.5v2.8h-1.9v-2.8h-2.5v-1.8h2.5v-2.7h1.9V2143.4z"/>
	</g>
	<g class="st0">
		<path class="st23" d="M-571.6,2158.7c0,0.5-0.1,0.9-0.4,1.3s-0.6,0.7-1,0.9c0.5,0.2,0.9,0.6,1.1,1c0.3,0.4,0.4,0.9,0.4,1.4
			c0,0.9-0.3,1.6-0.9,2.1c-0.6,0.5-1.4,0.8-2.5,0.8s-1.9-0.3-2.5-0.8s-0.9-1.2-0.9-2.1c0-0.6,0.1-1,0.4-1.4s0.7-0.7,1.1-1
			c-0.4-0.2-0.8-0.5-1-0.9s-0.4-0.8-0.4-1.3c0-0.8,0.3-1.5,0.8-2c0.6-0.5,1.3-0.8,2.3-0.8c1,0,1.7,0.2,2.3,0.7
			C-571.9,2157.1-571.6,2157.8-571.6,2158.7z M-573.3,2163.1c0-0.4-0.1-0.8-0.4-1s-0.6-0.4-1-0.4c-0.4,0-0.8,0.1-1,0.4
			c-0.3,0.3-0.4,0.6-0.4,1c0,0.4,0.1,0.8,0.4,1s0.6,0.4,1,0.4c0.4,0,0.8-0.1,1-0.4S-573.3,2163.6-573.3,2163.1z M-573.5,2158.8
			c0-0.4-0.1-0.7-0.3-0.9c-0.2-0.2-0.5-0.4-0.9-0.4c-0.4,0-0.7,0.1-0.9,0.3s-0.3,0.5-0.3,0.9c0,0.4,0.1,0.7,0.3,1s0.5,0.4,0.9,0.4
			s0.7-0.1,0.9-0.4S-573.5,2159.2-573.5,2158.8z"/>
		<path class="st23" d="M-561.7,2166h-2.1l-4-6.5v6.5h-2.1v-10h2.1l4,6.6v-6.6h2V2166z"/>
	</g>
</g>
</svg>
