<svg xmlns="http://www.w3.org/2000/svg" xmlns:xlink="http://www.w3.org/1999/xlink" width="360.999" height="147.728" viewBox="0 0 360.999 147.728">
  <defs>
    <linearGradient id="linear-gradient" x1="1.086" y1="0.22" x2="0.336" y2="0.578" gradientUnits="objectBoundingBox">
      <stop offset="0" stop-color="#fcbaaa"/>
      <stop offset="0.971" stop-color="#ed6bcf"/>
    </linearGradient>
    <linearGradient id="linear-gradient-2" y1="0.5" x2="1" y2="0.5" gradientUnits="objectBoundingBox">
      <stop offset="0" stop-color="#fcbaaa"/>
      <stop offset="0.971" stop-color="#9a6bcf"/>
    </linearGradient>
    <linearGradient id="linear-gradient-13" x1="0.91" y1="0.297" x2="-0.028" y2="0.761" gradientUnits="objectBoundingBox">
      <stop offset="0" stop-color="#50eeef"/>
      <stop offset="1" stop-color="#68a2f4"/>
    </linearGradient>
    <linearGradient id="linear-gradient-14" y1="0.5" x2="1" y2="0.5" gradientUnits="objectBoundingBox">
      <stop offset="0" stop-color="#7d4cca"/>
      <stop offset="0.529" stop-color="#1b2aab"/>
      <stop offset="1" stop-color="#17256e"/>
    </linearGradient>
  </defs>
  <g id="Grupo_72834" data-name="Grupo 72834" transform="translate(-339.001 -2030.636)">
    <g id="Grupo_65911" data-name="Grupo 65911" transform="translate(-2331.926 -1252.612)">
      <g id="Grupo_65887" data-name="Grupo 65887" transform="translate(2684.466 3328.366)">
        <path id="Trazado_114201" data-name="Trazado 114201" d="M2707.885,3331.6a13.141,13.141,0,1,1-13.14-13.14A13.14,13.14,0,0,1,2707.885,3331.6Z" transform="translate(-2681.604 -3318.464)" fill="url(#linear-gradient)"/>
        <path id="Trazado_114202" data-name="Trazado 114202" d="M2703.036,3338.252a9.6,9.6,0,0,1-3.057-18.7,13.141,13.141,0,1,0,6.446,18.053A9.555,9.555,0,0,1,2703.036,3338.252Z" transform="translate(-2681.604 -3318.464)" fill="url(#linear-gradient-2)" style="mix-blend-mode: multiply;isolation: isolate"/>
      </g>
      <g id="Grupo_65888" data-name="Grupo 65888" transform="translate(2691.346 3335.001)">
        <path id="Trazado_114203" data-name="Trazado 114203" d="M2694.587,3328.048h3.952v3.349h-3.952v4.532h-3.65V3331.4h-3.962v-3.349h3.962v-4.4h3.65Z" transform="translate(-2686.974 -3323.643)" fill="#fff"/>
      </g>
      <g id="Grupo_65889" data-name="Grupo 65889" transform="translate(2715.895 3328.366)">
        <path id="Trazado_114204" data-name="Trazado 114204" d="M2732.415,3331.6a13.14,13.14,0,1,1-13.14-13.14A13.139,13.139,0,0,1,2732.415,3331.6Z" transform="translate(-2706.135 -3318.464)" fill="url(#linear-gradient)"/>
        <path id="Trazado_114205" data-name="Trazado 114205" d="M2727.567,3338.252a9.6,9.6,0,0,1-3.058-18.7,13.141,13.141,0,1,0,6.447,18.053A9.561,9.561,0,0,1,2727.567,3338.252Z" transform="translate(-2706.135 -3318.464)" fill="url(#linear-gradient-2)" style="mix-blend-mode: multiply;isolation: isolate"/>
      </g>
      <g id="Grupo_65890" data-name="Grupo 65890" transform="translate(2722.773 3335.001)">
        <path id="Trazado_114206" data-name="Trazado 114206" d="M2719.118,3328.048h3.952v3.349h-3.952v4.532h-3.65V3331.4H2711.5v-3.349h3.964v-4.4h3.65Z" transform="translate(-2711.504 -3323.643)" fill="#fff"/>
      </g>
      <g id="Grupo_65891" data-name="Grupo 65891" transform="translate(2747.539 3328.366)">
        <path id="Trazado_114207" data-name="Trazado 114207" d="M2757.114,3331.6a13.14,13.14,0,1,1-13.14-13.14A13.139,13.139,0,0,1,2757.114,3331.6Z" transform="translate(-2730.834 -3318.464)" fill="url(#linear-gradient)"/>
        <path id="Trazado_114208" data-name="Trazado 114208" d="M2752.266,3338.252a9.6,9.6,0,0,1-3.058-18.7,13.141,13.141,0,1,0,6.447,18.053A9.559,9.559,0,0,1,2752.266,3338.252Z" transform="translate(-2730.834 -3318.464)" fill="url(#linear-gradient-2)" style="mix-blend-mode: multiply;isolation: isolate"/>
      </g>
      <g id="Grupo_65892" data-name="Grupo 65892" transform="translate(2754.417 3335.001)">
        <path id="Trazado_114209" data-name="Trazado 114209" d="M2743.817,3328.048h3.952v3.349h-3.952v4.532h-3.65V3331.4H2736.2v-3.349h3.964v-4.4h3.65Z" transform="translate(-2736.203 -3323.643)" fill="#fff"/>
      </g>
      <g id="Grupo_65893" data-name="Grupo 65893" transform="translate(2778.95 3328.366)">
        <path id="Trazado_114210" data-name="Trazado 114210" d="M2781.631,3331.6a13.14,13.14,0,1,1-13.14-13.14A13.139,13.139,0,0,1,2781.631,3331.6Z" transform="translate(-2755.351 -3318.464)" fill="url(#linear-gradient)"/>
        <path id="Trazado_114211" data-name="Trazado 114211" d="M2776.783,3338.252a9.6,9.6,0,0,1-3.058-18.7,13.141,13.141,0,1,0,6.447,18.053A9.564,9.564,0,0,1,2776.783,3338.252Z" transform="translate(-2755.351 -3318.464)" fill="url(#linear-gradient-2)" style="mix-blend-mode: multiply;isolation: isolate"/>
      </g>
      <g id="Grupo_65894" data-name="Grupo 65894" transform="translate(2785.828 3335.001)">
        <path id="Trazado_114212" data-name="Trazado 114212" d="M2768.334,3328.048h3.953v3.349h-3.953v4.532h-3.65V3331.4h-3.964v-3.349h3.964v-4.4h3.65Z" transform="translate(-2760.72 -3323.643)" fill="#fff"/>
      </g>
      <g id="Grupo_65895" data-name="Grupo 65895" transform="translate(2810.378 3328.366)">
        <path id="Trazado_114213" data-name="Trazado 114213" d="M2806.162,3331.6a13.14,13.14,0,1,1-13.14-13.14A13.14,13.14,0,0,1,2806.162,3331.6Z" transform="translate(-2779.882 -3318.464)" fill="url(#linear-gradient)"/>
        <path id="Trazado_114214" data-name="Trazado 114214" d="M2801.312,3338.252a9.6,9.6,0,0,1-3.057-18.7,13.141,13.141,0,1,0,6.446,18.053A9.551,9.551,0,0,1,2801.312,3338.252Z" transform="translate(-2779.882 -3318.464)" fill="url(#linear-gradient-2)" style="mix-blend-mode: multiply;isolation: isolate"/>
      </g>
      <g id="Grupo_65896" data-name="Grupo 65896" transform="translate(2817.257 3335.001)">
        <path id="Trazado_114215" data-name="Trazado 114215" d="M2792.864,3328.048h3.952v3.349h-3.952v4.532h-3.649V3331.4h-3.964v-3.349h3.964v-4.4h3.649Z" transform="translate(-2785.251 -3323.643)" fill="#fff"/>
      </g>
      <g id="Grupo_65897" data-name="Grupo 65897" transform="translate(2842.022 3328.366)">
        <path id="Trazado_114216" data-name="Trazado 114216" d="M2830.861,3331.6a13.14,13.14,0,1,1-13.14-13.14A13.14,13.14,0,0,1,2830.861,3331.6Z" transform="translate(-2804.581 -3318.464)" fill="url(#linear-gradient)"/>
        <path id="Trazado_114217" data-name="Trazado 114217" d="M2826.011,3338.252a9.6,9.6,0,0,1-3.057-18.7,13.141,13.141,0,1,0,6.445,18.053A9.549,9.549,0,0,1,2826.011,3338.252Z" transform="translate(-2804.581 -3318.464)" fill="url(#linear-gradient-2)" style="mix-blend-mode: multiply;isolation: isolate"/>
      </g>
      <g id="Grupo_65898" data-name="Grupo 65898" transform="translate(2848.901 3335.001)">
        <path id="Trazado_114218" data-name="Trazado 114218" d="M2817.563,3328.048h3.953v3.349h-3.953v4.532h-3.649V3331.4h-3.964v-3.349h3.964v-4.4h3.649Z" transform="translate(-2809.95 -3323.643)" fill="#fff"/>
      </g>
      <g id="Grupo_65899" data-name="Grupo 65899" transform="translate(2684.375 3363.651)">
        <path id="Trazado_114219" data-name="Trazado 114219" d="M2707.04,3358.759A12.754,12.754,0,1,1,2694.286,3346,12.753,12.753,0,0,1,2707.04,3358.759Z" transform="translate(-2681.533 -3346.005)" fill="url(#linear-gradient-13)"/>
        <path id="Trazado_114220" data-name="Trazado 114220" d="M2702.333,3365.211a9.313,9.313,0,0,1-2.967-18.148,12.754,12.754,0,1,0,6.256,17.521A9.257,9.257,0,0,1,2702.333,3365.211Z" transform="translate(-2681.533 -3346.005)" opacity="0.75" fill="url(#linear-gradient-14)" style="mix-blend-mode: multiply;isolation: isolate"/>
      </g>
      <g id="Grupo_65900" data-name="Grupo 65900" transform="translate(2694.163 3375.122)">
        <path id="Trazado_114221" data-name="Trazado 114221" d="M2695.1,3357.524h-5.93v-2.566h5.93Z" transform="translate(-2689.173 -3354.958)" fill="#fff"/>
      </g>
      <g id="Grupo_65901" data-name="Grupo 65901" transform="translate(2715.551 3363.651)">
        <path id="Trazado_114222" data-name="Trazado 114222" d="M2731.374,3358.759A12.754,12.754,0,1,1,2718.62,3346,12.754,12.754,0,0,1,2731.374,3358.759Z" transform="translate(-2705.867 -3346.005)" fill="url(#linear-gradient-13)"/>
        <path id="Trazado_114223" data-name="Trazado 114223" d="M2726.667,3365.211a9.313,9.313,0,0,1-2.967-18.148,12.754,12.754,0,1,0,6.256,17.521A9.261,9.261,0,0,1,2726.667,3365.211Z" transform="translate(-2705.867 -3346.005)" opacity="0.75" fill="url(#linear-gradient-14)" style="mix-blend-mode: multiply;isolation: isolate"/>
      </g>
      <g id="Grupo_65902" data-name="Grupo 65902" transform="translate(2725.34 3375.122)">
        <path id="Trazado_114224" data-name="Trazado 114224" d="M2719.438,3357.524h-5.931v-2.566h5.931Z" transform="translate(-2713.507 -3354.958)" fill="#fff"/>
      </g>
      <g id="Grupo_65903" data-name="Grupo 65903" transform="translate(2747.448 3363.651)">
        <path id="Trazado_114225" data-name="Trazado 114225" d="M2756.269,3358.759A12.753,12.753,0,1,1,2743.516,3346,12.752,12.752,0,0,1,2756.269,3358.759Z" transform="translate(-2730.763 -3346.005)" fill="url(#linear-gradient-13)"/>
        <path id="Trazado_114226" data-name="Trazado 114226" d="M2751.563,3365.211a9.313,9.313,0,0,1-2.967-18.148,12.754,12.754,0,1,0,6.256,17.521A9.261,9.261,0,0,1,2751.563,3365.211Z" transform="translate(-2730.763 -3346.005)" opacity="0.75" fill="url(#linear-gradient-14)" style="mix-blend-mode: multiply;isolation: isolate"/>
      </g>
      <g id="Grupo_65904" data-name="Grupo 65904" transform="translate(2757.235 3375.122)">
        <path id="Trazado_114227" data-name="Trazado 114227" d="M2744.333,3357.524h-5.93v-2.566h5.93Z" transform="translate(-2738.402 -3354.958)" fill="#fff"/>
      </g>
      <g id="Grupo_65905" data-name="Grupo 65905" transform="translate(2778.606 3363.651)">
        <path id="Trazado_114228" data-name="Trazado 114228" d="M2780.59,3358.759A12.754,12.754,0,1,1,2767.836,3346,12.754,12.754,0,0,1,2780.59,3358.759Z" transform="translate(-2755.083 -3346.005)" fill="url(#linear-gradient-13)"/>
        <path id="Trazado_114229" data-name="Trazado 114229" d="M2775.883,3365.211a9.313,9.313,0,0,1-2.968-18.148,12.754,12.754,0,1,0,6.257,17.521A9.271,9.271,0,0,1,2775.883,3365.211Z" transform="translate(-2755.083 -3346.005)" opacity="0.75" fill="url(#linear-gradient-14)" style="mix-blend-mode: multiply;isolation: isolate"/>
      </g>
      <g id="Grupo_65906" data-name="Grupo 65906" transform="translate(2788.394 3375.122)">
        <path id="Trazado_114230" data-name="Trazado 114230" d="M2768.654,3357.524h-5.931v-2.566h5.931Z" transform="translate(-2762.723 -3354.958)" fill="#fff"/>
      </g>
      <g id="Grupo_65907" data-name="Grupo 65907" transform="translate(2810.765 3363.651)">
        <path id="Trazado_114231" data-name="Trazado 114231" d="M2805.69,3358.759A12.753,12.753,0,1,1,2792.937,3346,12.753,12.753,0,0,1,2805.69,3358.759Z" transform="translate(-2780.184 -3346.005)" fill="url(#linear-gradient-13)"/>
        <path id="Trazado_114232" data-name="Trazado 114232" d="M2800.984,3365.211a9.313,9.313,0,0,1-2.967-18.148,12.754,12.754,0,1,0,6.256,17.521A9.261,9.261,0,0,1,2800.984,3365.211Z" transform="translate(-2780.184 -3346.005)" opacity="0.75" fill="url(#linear-gradient-14)" style="mix-blend-mode: multiply;isolation: isolate"/>
      </g>
      <g id="Grupo_65908" data-name="Grupo 65908" transform="translate(2820.552 3375.122)">
        <path id="Trazado_114233" data-name="Trazado 114233" d="M2793.753,3357.524h-5.93v-2.566h5.93Z" transform="translate(-2787.823 -3354.958)" fill="#fff"/>
      </g>
      <g id="Grupo_65909" data-name="Grupo 65909" transform="translate(2841.679 3363.651)">
        <path id="Trazado_114234" data-name="Trazado 114234" d="M2829.819,3358.759A12.753,12.753,0,1,1,2817.066,3346,12.753,12.753,0,0,1,2829.819,3358.759Z" transform="translate(-2804.313 -3346.005)" fill="url(#linear-gradient-13)"/>
        <path id="Trazado_114235" data-name="Trazado 114235" d="M2825.113,3365.211a9.313,9.313,0,0,1-2.968-18.148,12.754,12.754,0,1,0,6.256,17.521A9.259,9.259,0,0,1,2825.113,3365.211Z" transform="translate(-2804.313 -3346.005)" opacity="0.75" fill="url(#linear-gradient-14)" style="mix-blend-mode: multiply;isolation: isolate"/>
      </g>
      <g id="Grupo_65910" data-name="Grupo 65910" transform="translate(2851.467 3375.122)">
        <path id="Trazado_114236" data-name="Trazado 114236" d="M2817.884,3357.524h-5.931v-2.566h5.931Z" transform="translate(-2811.953 -3354.958)" fill="#fff"/>
      </g>
      <rect id="Rectángulo_32278" data-name="Rectángulo 32278" width="202.999" height="90.753" transform="translate(2671.427 3311.237)" fill="none" stroke="#100142" stroke-miterlimit="10" stroke-width="1"/>
      <text id="Potencial_neutro" data-name="Potencial neutro" transform="translate(2671.426 3426.977)" fill="#1b2d5b" font-size="15" font-family="Roboto-Black, Roboto" font-weight="800"><tspan x="0" y="0">Potencial neutro</tspan></text>
      <text id="Caso_1" data-name="Caso 1" transform="translate(2671.426 3299.249)" fill="#1b2d5b" font-size="15" font-family="Roboto-Regular, Roboto"><tspan x="0" y="0">Caso 1</tspan></text>
    </g>
    <text id="Protones:_6_Electrones:_6" data-name="Protones: 6

Electrones: 6" transform="translate(560 2078)" fill="#12263f" font-size="13" font-family="Roboto-Bold, Roboto" font-weight="700"><tspan x="0" y="14">Protones:</tspan><tspan y="14" xml:space="preserve" font-family="Roboto-Regular, Roboto" font-weight="400"> 6</tspan><tspan font-family="Roboto-Regular, Roboto" font-weight="400"><tspan x="0" y="32"></tspan></tspan><tspan x="0" y="50">Electrones:</tspan><tspan y="50" xml:space="preserve" font-family="Roboto-Regular, Roboto" font-weight="400"> 6</tspan></text>
  </g>
</svg>
