<svg xmlns="http://www.w3.org/2000/svg" xmlns:xlink="http://www.w3.org/1999/xlink" width="360.999" height="146.77" viewBox="0 0 360.999 146.77">
  <defs>
    <linearGradient id="linear-gradient" x1="1.086" y1="0.22" x2="0.336" y2="0.578" gradientUnits="objectBoundingBox">
      <stop offset="0" stop-color="#fcbaaa"/>
      <stop offset="0.971" stop-color="#ed6bcf"/>
    </linearGradient>
    <linearGradient id="linear-gradient-2" y1="0.5" x2="1" y2="0.5" gradientUnits="objectBoundingBox">
      <stop offset="0" stop-color="#fcbaaa"/>
      <stop offset="0.971" stop-color="#9a6bcf"/>
    </linearGradient>
    <linearGradient id="linear-gradient-13" x1="0.91" y1="0.297" x2="-0.028" y2="0.761" gradientUnits="objectBoundingBox">
      <stop offset="0" stop-color="#50eeef"/>
      <stop offset="1" stop-color="#68a2f4"/>
    </linearGradient>
    <linearGradient id="linear-gradient-14" y1="0.5" x2="1" y2="0.5" gradientUnits="objectBoundingBox">
      <stop offset="0" stop-color="#7d4cca"/>
      <stop offset="0.529" stop-color="#1b2aab"/>
      <stop offset="1" stop-color="#17256e"/>
    </linearGradient>
  </defs>
  <g id="Grupo_72832" data-name="Grupo 72832" transform="translate(-339.001 -2320.418)">
    <g id="Grupo_65932" data-name="Grupo 65932" transform="translate(-2331.926 -1100.634)">
      <g id="Grupo_65912" data-name="Grupo 65912" transform="translate(2684.466 3466.169)">
        <path id="Trazado_114237" data-name="Trazado 114237" d="M2707.885,3469.407a13.141,13.141,0,1,1-13.14-13.14A13.139,13.139,0,0,1,2707.885,3469.407Z" transform="translate(-2681.604 -3456.267)" fill="url(#linear-gradient)"/>
        <path id="Trazado_114238" data-name="Trazado 114238" d="M2703.036,3476.056a9.6,9.6,0,0,1-3.057-18.7,13.14,13.14,0,1,0,6.445,18.053A9.537,9.537,0,0,1,2703.036,3476.056Z" transform="translate(-2681.604 -3456.267)" fill="url(#linear-gradient-2)" style="mix-blend-mode: multiply;isolation: isolate"/>
      </g>
      <g id="Grupo_65913" data-name="Grupo 65913" transform="translate(2691.346 3472.806)">
        <path id="Trazado_114239" data-name="Trazado 114239" d="M2694.587,3465.851h3.953v3.349h-3.953v4.531h-3.65V3469.2h-3.962v-3.349h3.962v-4.4h3.65Z" transform="translate(-2686.974 -3461.447)" fill="#fff"/>
      </g>
      <g id="Grupo_65914" data-name="Grupo 65914" transform="translate(2715.895 3466.169)">
        <path id="Trazado_114240" data-name="Trazado 114240" d="M2732.415,3469.407a13.14,13.14,0,1,1-13.14-13.14A13.139,13.139,0,0,1,2732.415,3469.407Z" transform="translate(-2706.135 -3456.267)" fill="url(#linear-gradient)"/>
        <path id="Trazado_114241" data-name="Trazado 114241" d="M2727.567,3476.056a9.6,9.6,0,0,1-3.058-18.7,13.14,13.14,0,1,0,6.447,18.053A9.547,9.547,0,0,1,2727.567,3476.056Z" transform="translate(-2706.135 -3456.267)" fill="url(#linear-gradient-2)" style="mix-blend-mode: multiply;isolation: isolate"/>
      </g>
      <g id="Grupo_65915" data-name="Grupo 65915" transform="translate(2722.773 3472.806)">
        <path id="Trazado_114242" data-name="Trazado 114242" d="M2719.118,3465.851h3.953v3.349h-3.953v4.531h-3.65V3469.2H2711.5v-3.349h3.964v-4.4h3.65Z" transform="translate(-2711.504 -3461.447)" fill="#fff"/>
      </g>
      <g id="Grupo_65916" data-name="Grupo 65916" transform="translate(2747.539 3466.169)">
        <path id="Trazado_114243" data-name="Trazado 114243" d="M2757.114,3469.407a13.14,13.14,0,1,1-13.14-13.14A13.139,13.139,0,0,1,2757.114,3469.407Z" transform="translate(-2730.834 -3456.267)" fill="url(#linear-gradient)"/>
        <path id="Trazado_114244" data-name="Trazado 114244" d="M2752.266,3476.056a9.6,9.6,0,0,1-3.058-18.7,13.14,13.14,0,1,0,6.447,18.053A9.546,9.546,0,0,1,2752.266,3476.056Z" transform="translate(-2730.834 -3456.267)" fill="url(#linear-gradient-2)" style="mix-blend-mode: multiply;isolation: isolate"/>
      </g>
      <g id="Grupo_65917" data-name="Grupo 65917" transform="translate(2754.417 3472.806)">
        <path id="Trazado_114245" data-name="Trazado 114245" d="M2743.817,3465.851h3.952v3.349h-3.952v4.531h-3.65V3469.2H2736.2v-3.349h3.964v-4.4h3.65Z" transform="translate(-2736.203 -3461.447)" fill="#fff"/>
      </g>
      <g id="Grupo_65918" data-name="Grupo 65918" transform="translate(2778.95 3466.169)">
        <path id="Trazado_114246" data-name="Trazado 114246" d="M2781.631,3469.407a13.14,13.14,0,1,1-13.14-13.14A13.139,13.139,0,0,1,2781.631,3469.407Z" transform="translate(-2755.351 -3456.267)" fill="url(#linear-gradient)"/>
        <path id="Trazado_114247" data-name="Trazado 114247" d="M2776.783,3476.056a9.6,9.6,0,0,1-3.058-18.7,13.14,13.14,0,1,0,6.447,18.053A9.548,9.548,0,0,1,2776.783,3476.056Z" transform="translate(-2755.351 -3456.267)" fill="url(#linear-gradient-2)" style="mix-blend-mode: multiply;isolation: isolate"/>
      </g>
      <g id="Grupo_65919" data-name="Grupo 65919" transform="translate(2785.828 3472.806)">
        <path id="Trazado_114248" data-name="Trazado 114248" d="M2768.334,3465.851h3.952v3.349h-3.952v4.531h-3.65V3469.2h-3.964v-3.349h3.964v-4.4h3.65Z" transform="translate(-2760.72 -3461.447)" fill="#fff"/>
      </g>
      <g id="Grupo_65920" data-name="Grupo 65920" transform="translate(2810.378 3466.169)">
        <path id="Trazado_114249" data-name="Trazado 114249" d="M2806.162,3469.407a13.14,13.14,0,1,1-13.14-13.14A13.139,13.139,0,0,1,2806.162,3469.407Z" transform="translate(-2779.883 -3456.267)" fill="url(#linear-gradient)"/>
        <path id="Trazado_114250" data-name="Trazado 114250" d="M2801.313,3476.056a9.6,9.6,0,0,1-3.057-18.7,13.14,13.14,0,1,0,6.446,18.053A9.534,9.534,0,0,1,2801.313,3476.056Z" transform="translate(-2779.883 -3456.267)" fill="url(#linear-gradient-2)" style="mix-blend-mode: multiply;isolation: isolate"/>
      </g>
      <g id="Grupo_65921" data-name="Grupo 65921" transform="translate(2817.257 3472.806)">
        <path id="Trazado_114251" data-name="Trazado 114251" d="M2792.864,3465.851h3.952v3.349h-3.952v4.531h-3.649V3469.2h-3.964v-3.349h3.964v-4.4h3.649Z" transform="translate(-2785.251 -3461.447)" fill="#fff"/>
      </g>
      <g id="Grupo_65922" data-name="Grupo 65922" transform="translate(2842.022 3466.169)">
        <path id="Trazado_114252" data-name="Trazado 114252" d="M2830.861,3469.407a13.14,13.14,0,1,1-13.14-13.14A13.139,13.139,0,0,1,2830.861,3469.407Z" transform="translate(-2804.581 -3456.267)" fill="url(#linear-gradient)"/>
        <path id="Trazado_114253" data-name="Trazado 114253" d="M2826.011,3476.056a9.6,9.6,0,0,1-3.057-18.7,13.14,13.14,0,1,0,6.445,18.053A9.532,9.532,0,0,1,2826.011,3476.056Z" transform="translate(-2804.581 -3456.267)" fill="url(#linear-gradient-2)" style="mix-blend-mode: multiply;isolation: isolate"/>
      </g>
      <g id="Grupo_65923" data-name="Grupo 65923" transform="translate(2848.901 3472.806)">
        <path id="Trazado_114254" data-name="Trazado 114254" d="M2817.563,3465.851h3.953v3.349h-3.953v4.531h-3.649V3469.2h-3.964v-3.349h3.964v-4.4h3.649Z" transform="translate(-2809.95 -3461.447)" fill="#fff"/>
      </g>
      <g id="Grupo_65924" data-name="Grupo 65924" transform="translate(2684.375 3501.454)">
        <path id="Trazado_114255" data-name="Trazado 114255" d="M2707.04,3496.563a12.754,12.754,0,1,1-12.754-12.754A12.754,12.754,0,0,1,2707.04,3496.563Z" transform="translate(-2681.533 -3483.809)" fill="url(#linear-gradient-13)"/>
        <path id="Trazado_114256" data-name="Trazado 114256" d="M2702.333,3503.015a9.313,9.313,0,0,1-2.968-18.148,12.754,12.754,0,1,0,6.256,17.522A9.258,9.258,0,0,1,2702.333,3503.015Z" transform="translate(-2681.533 -3483.809)" opacity="0.75" fill="url(#linear-gradient-14)" style="mix-blend-mode: multiply;isolation: isolate"/>
      </g>
      <g id="Grupo_65925" data-name="Grupo 65925" transform="translate(2694.163 3512.926)">
        <path id="Trazado_114257" data-name="Trazado 114257" d="M2695.1,3495.327h-5.93v-2.565h5.93Z" transform="translate(-2689.173 -3492.762)" fill="#fff"/>
      </g>
      <g id="Grupo_65926" data-name="Grupo 65926" transform="translate(2715.551 3501.454)">
        <path id="Trazado_114258" data-name="Trazado 114258" d="M2731.374,3496.563a12.754,12.754,0,1,1-12.754-12.754A12.754,12.754,0,0,1,2731.374,3496.563Z" transform="translate(-2705.867 -3483.809)" fill="url(#linear-gradient-13)"/>
        <path id="Trazado_114259" data-name="Trazado 114259" d="M2726.667,3503.015a9.313,9.313,0,0,1-2.968-18.148,12.754,12.754,0,1,0,6.256,17.522A9.261,9.261,0,0,1,2726.667,3503.015Z" transform="translate(-2705.867 -3483.809)" opacity="0.75" fill="url(#linear-gradient-14)" style="mix-blend-mode: multiply;isolation: isolate"/>
      </g>
      <g id="Grupo_65927" data-name="Grupo 65927" transform="translate(2725.34 3512.926)">
        <path id="Trazado_114260" data-name="Trazado 114260" d="M2719.438,3495.327h-5.93v-2.565h5.93Z" transform="translate(-2713.507 -3492.762)" fill="#fff"/>
      </g>
      <g id="Grupo_65928" data-name="Grupo 65928" transform="translate(2747.448 3501.454)">
        <path id="Trazado_114261" data-name="Trazado 114261" d="M2756.269,3496.563a12.753,12.753,0,1,1-12.753-12.754A12.752,12.752,0,0,1,2756.269,3496.563Z" transform="translate(-2730.763 -3483.809)" fill="url(#linear-gradient-13)"/>
        <path id="Trazado_114262" data-name="Trazado 114262" d="M2751.563,3503.015a9.313,9.313,0,0,1-2.967-18.148,12.754,12.754,0,1,0,6.256,17.522A9.261,9.261,0,0,1,2751.563,3503.015Z" transform="translate(-2730.763 -3483.809)" opacity="0.75" fill="url(#linear-gradient-14)" style="mix-blend-mode: multiply;isolation: isolate"/>
      </g>
      <g id="Grupo_65929" data-name="Grupo 65929" transform="translate(2757.235 3512.926)">
        <path id="Trazado_114263" data-name="Trazado 114263" d="M2744.333,3495.327H2738.4v-2.565h5.931Z" transform="translate(-2738.402 -3492.762)" fill="#fff"/>
      </g>
      <g id="Grupo_65930" data-name="Grupo 65930" transform="translate(2778.606 3501.454)">
        <path id="Trazado_114264" data-name="Trazado 114264" d="M2780.59,3496.563a12.753,12.753,0,1,1-12.754-12.754A12.754,12.754,0,0,1,2780.59,3496.563Z" transform="translate(-2755.083 -3483.809)" fill="url(#linear-gradient-13)"/>
        <path id="Trazado_114265" data-name="Trazado 114265" d="M2775.883,3503.015a9.313,9.313,0,0,1-2.967-18.148,12.754,12.754,0,1,0,6.257,17.522A9.273,9.273,0,0,1,2775.883,3503.015Z" transform="translate(-2755.083 -3483.809)" opacity="0.75" fill="url(#linear-gradient-14)" style="mix-blend-mode: multiply;isolation: isolate"/>
      </g>
      <g id="Grupo_65931" data-name="Grupo 65931" transform="translate(2788.394 3512.926)">
        <path id="Trazado_114266" data-name="Trazado 114266" d="M2768.654,3495.327h-5.931v-2.565h5.931Z" transform="translate(-2762.723 -3492.762)" fill="#fff"/>
      </g>
      <rect id="Rectángulo_32279" data-name="Rectángulo 32279" width="202.999" height="90.753" transform="translate(2671.427 3449.041)" fill="none" stroke="#100142" stroke-miterlimit="10" stroke-width="1"/>
      <text id="Potencial_positivo" data-name="Potencial positivo" transform="translate(2671.426 3563.822)" fill="#1b2d5b" font-size="14" font-family="Roboto-Black, Roboto" font-weight="800"><tspan x="0" y="0">Potencial positivo</tspan></text>
      <text id="Caso_2" data-name="Caso 2" transform="translate(2671.426 3436.052)" fill="#1b2d5b" font-size="14" font-family="Roboto-Regular, Roboto"><tspan x="0" y="0">Caso 2</tspan></text>
    </g>
    <text id="Protones:_6_Electrones:_4" data-name="Protones: 6

Electrones: 4" transform="translate(560 2367)" fill="#12263f" font-size="13" font-family="Roboto-Bold, Roboto" font-weight="700"><tspan x="0" y="14">Protones:</tspan><tspan y="14" xml:space="preserve" font-family="Roboto-Regular, Roboto" font-weight="400"> 6</tspan><tspan font-family="Roboto-Regular, Roboto" font-weight="400"><tspan x="0" y="32"></tspan></tspan><tspan x="0" y="50">Electrones:</tspan><tspan y="50" xml:space="preserve" font-family="Roboto-Regular, Roboto" font-weight="400"> 4</tspan></text>
  </g>
</svg>
