<?xml version="1.0" encoding="utf-8"?>
<!-- Generator: Adobe Illustrator 25.2.3, SVG Export Plug-In . SVG Version: 6.00 Build 0)  -->
<!DOCTYPE svg PUBLIC "-//W3C//DTD SVG 1.1//EN" "http://www.w3.org/Graphics/SVG/1.1/DTD/svg11.dtd" [
	<!ENTITY ns_extend "http://ns.adobe.com/Extensibility/1.0/">
	<!ENTITY ns_ai "http://ns.adobe.com/AdobeIllustrator/10.0/">
	<!ENTITY ns_graphs "http://ns.adobe.com/Graphs/1.0/">
	<!ENTITY ns_vars "http://ns.adobe.com/Variables/1.0/">
	<!ENTITY ns_imrep "http://ns.adobe.com/ImageReplacement/1.0/">
	<!ENTITY ns_sfw "http://ns.adobe.com/SaveForWeb/1.0/">
	<!ENTITY ns_custom "http://ns.adobe.com/GenericCustomNamespace/1.0/">
	<!ENTITY ns_adobe_xpath "http://ns.adobe.com/XPath/1.0/">
]>
<svg version="1.1" id="Capa_1" xmlns:x="&ns_extend;" xmlns:i="&ns_ai;" xmlns:graph="&ns_graphs;"
	 xmlns="http://www.w3.org/2000/svg" xmlns:xlink="http://www.w3.org/1999/xlink" x="0px" y="0px" viewBox="0 0 330.9 281.5"
	 style="enable-background:new 0 0 330.9 281.5;" xml:space="preserve">
<style type="text/css">
	.st0{enable-background:new    ;}
	.st1{fill:#1B2D5B;}
	.st2{fill:none;stroke:#808080;stroke-miterlimit:10;}
	.st3{fill:url(#Trazado_110911_1_);}
	.st4{fill:url(#Trazado_110912_1_);}
	.st5{fill:url(#Trazado_110913_1_);}
	.st6{fill:url(#Trazado_110914_1_);}
	.st7{fill:url(#Trazado_110915_1_);}
	.st8{fill:url(#Trazado_110916_1_);}
	.st9{fill:url(#Trazado_110917_1_);}
	.st10{fill:url(#Trazado_110918_1_);}
	.st11{fill:url(#Trazado_110919_1_);}
	.st12{fill:url(#Trazado_110920_1_);}
	.st13{fill:url(#Trazado_110921_1_);}
	.st14{fill:url(#Trazado_110922_1_);}
	.st15{fill:url(#Trazado_110923_1_);}
	.st16{fill:url(#Trazado_110924_1_);}
	.st17{fill:url(#Trazado_110925_1_);}
	.st18{fill:url(#Trazado_110926_1_);}
	.st19{fill:url(#Trazado_110927_1_);}
	.st20{fill:url(#Trazado_110928_1_);}
	.st21{fill:url(#Trazado_110929_1_);}
	.st22{fill:url(#Trazado_110930_1_);}
	.st23{fill:url(#Trazado_110931_1_);}
	.st24{fill:url(#Trazado_110932_1_);}
	.st25{fill:url(#Trazado_110933_1_);}
	.st26{fill:url(#Trazado_110934_1_);}
	.st27{fill:url(#Trazado_110935_1_);}
	.st28{fill:url(#Trazado_110936_1_);}
	.st29{fill:url(#Trazado_110937_1_);}
	.st30{fill:url(#Trazado_110938_1_);}
	.st31{fill:url(#Trazado_110939_1_);}
	.st32{opacity:0.5;fill:#D1EBFF;}
	.st33{opacity:9.000000e-02;fill:#D1EBFF;enable-background:new    ;}
</style>
<metadata>
	<sfw  xmlns="&ns_sfw;">
		<slices></slices>
		<sliceSourceBounds  bottomLeftOrigin="true" height="281.5" width="329.3" x="0.6" y="0"></sliceSourceBounds>
	</sfw>
</metadata>
<g id="Grupo_64351" transform="translate(-1320.779 -2754.491)">
	<g class="st0">
		<path class="st1" d="M1591.5,2921.3h-3.9v2.7h4.6v1.6h-6.7v-10h6.7v1.7h-4.6v2.4h3.9V2921.3z"/>
		<path class="st1" d="M1595.4,2925.6h-2v-10.5h2V2925.6z"/>
		<path class="st1" d="M1600.4,2925.7c-1.1,0-2-0.3-2.6-1s-1-1.6-1-2.7v-0.2c0-0.7,0.1-1.4,0.4-2c0.3-0.6,0.7-1,1.2-1.4
			c0.5-0.3,1.1-0.5,1.8-0.5c1,0,1.8,0.3,2.4,1s0.9,1.5,0.9,2.7v0.8h-4.7c0.1,0.5,0.3,0.9,0.6,1.2s0.7,0.4,1.2,0.4
			c0.8,0,1.4-0.3,1.8-0.8l1,1.1c-0.3,0.4-0.7,0.7-1.2,1C1601.6,2925.6,1601,2925.7,1600.4,2925.7z M1600.2,2919.7
			c-0.4,0-0.7,0.1-1,0.4s-0.4,0.6-0.5,1.1h2.7v-0.2c0-0.4-0.1-0.8-0.4-1C1600.9,2919.8,1600.6,2919.7,1600.2,2919.7z"/>
		<path class="st1" d="M1607.6,2924.2c0.4,0,0.7-0.1,0.9-0.3c0.2-0.2,0.3-0.5,0.4-0.8h1.9c0,0.5-0.1,1-0.4,1.4
			c-0.3,0.4-0.6,0.7-1.1,1c-0.5,0.2-1,0.3-1.5,0.3c-1.1,0-1.9-0.3-2.5-1c-0.6-0.7-0.9-1.6-0.9-2.8v-0.1c0-1.1,0.3-2,0.9-2.7
			c0.6-0.7,1.4-1,2.5-1c0.9,0,1.7,0.3,2.2,0.8c0.6,0.5,0.8,1.2,0.9,2.1h-1.9c0-0.4-0.1-0.7-0.4-0.9c-0.2-0.2-0.5-0.4-0.9-0.4
			c-0.5,0-0.8,0.2-1,0.5c-0.2,0.3-0.4,0.9-0.4,1.6v0.2c0,0.8,0.1,1.3,0.3,1.6S1607.2,2924.2,1607.6,2924.2z"/>
		<path class="st1" d="M1614.2,2916.4v1.8h1.3v1.4h-1.3v3.7c0,0.3,0.1,0.5,0.2,0.6c0.1,0.1,0.3,0.2,0.6,0.2c0.2,0,0.4,0,0.6,0v1.5
			c-0.4,0.1-0.8,0.2-1.2,0.2c-1.4,0-2.1-0.7-2.1-2.1v-4h-1.1v-1.4h1.1v-1.8H1614.2z"/>
		<path class="st1" d="M1620.7,2920.1c-0.3,0-0.5-0.1-0.7-0.1c-0.7,0-1.2,0.3-1.5,0.8v4.8h-2v-7.4h1.9l0.1,0.9c0.4-0.7,0.9-1,1.6-1
			c0.2,0,0.4,0,0.6,0.1L1620.7,2920.1z"/>
		<path class="st1" d="M1621.1,2921.8c0-0.7,0.1-1.4,0.4-2c0.3-0.6,0.7-1,1.2-1.3s1.1-0.5,1.8-0.5c1,0,1.8,0.3,2.4,0.9
			s1,1.4,1.1,2.5l0,0.5c0,1.1-0.3,2-0.9,2.7c-0.6,0.7-1.5,1-2.6,1s-1.9-0.3-2.6-1S1621.1,2923.1,1621.1,2921.8L1621.1,2921.8z
			 M1623.1,2922c0,0.7,0.1,1.2,0.4,1.6c0.3,0.4,0.6,0.6,1.1,0.6c0.5,0,0.9-0.2,1.1-0.6c0.3-0.4,0.4-1,0.4-1.8c0-0.7-0.1-1.2-0.4-1.6
			c-0.3-0.4-0.6-0.6-1.1-0.6c-0.5,0-0.9,0.2-1.1,0.6C1623.2,2920.6,1623.1,2921.2,1623.1,2922z"/>
		<path class="st1" d="M1631.2,2918.2l0.1,0.9c0.5-0.7,1.2-1,2.1-1c0.8,0,1.4,0.2,1.8,0.7s0.6,1.1,0.6,2.1v4.8h-2v-4.7
			c0-0.4-0.1-0.7-0.3-0.9c-0.2-0.2-0.5-0.3-0.9-0.3c-0.6,0-1,0.2-1.2,0.7v5.2h-2v-7.4H1631.2z"/>
		<path class="st1" d="M1640.6,2925.7c-1.1,0-2-0.3-2.6-1s-1-1.6-1-2.7v-0.2c0-0.7,0.1-1.4,0.4-2c0.3-0.6,0.7-1,1.2-1.4
			c0.5-0.3,1.1-0.5,1.8-0.5c1,0,1.8,0.3,2.4,1s0.9,1.5,0.9,2.7v0.8h-4.7c0.1,0.5,0.3,0.9,0.6,1.2s0.7,0.4,1.2,0.4
			c0.8,0,1.4-0.3,1.8-0.8l1,1.1c-0.3,0.4-0.7,0.7-1.2,1C1641.8,2925.6,1641.2,2925.7,1640.6,2925.7z M1640.4,2919.7
			c-0.4,0-0.7,0.1-1,0.4s-0.4,0.6-0.5,1.1h2.7v-0.2c0-0.4-0.1-0.8-0.4-1C1641.1,2919.8,1640.8,2919.7,1640.4,2919.7z"/>
		<path class="st1" d="M1648.8,2923.6c0-0.2-0.1-0.4-0.4-0.6c-0.2-0.1-0.6-0.3-1.2-0.4c-1.8-0.4-2.6-1.1-2.6-2.2
			c0-0.7,0.3-1.2,0.8-1.6c0.5-0.4,1.3-0.7,2.1-0.7c0.9,0,1.7,0.2,2.3,0.7s0.8,1,0.8,1.7h-2c0-0.3-0.1-0.5-0.3-0.7
			c-0.2-0.2-0.5-0.3-0.9-0.3c-0.3,0-0.6,0.1-0.8,0.2c-0.2,0.2-0.3,0.3-0.3,0.6c0,0.2,0.1,0.4,0.3,0.5c0.2,0.1,0.6,0.2,1,0.3
			c0.5,0.1,0.9,0.2,1.2,0.3c1,0.4,1.6,1,1.6,2c0,0.7-0.3,1.2-0.9,1.6c-0.6,0.4-1.3,0.6-2.2,0.6c-0.6,0-1.2-0.1-1.7-0.3
			c-0.5-0.2-0.9-0.5-1.1-0.9c-0.3-0.4-0.4-0.8-0.4-1.2h1.9c0,0.4,0.1,0.6,0.4,0.8c0.2,0.2,0.6,0.3,1,0.3c0.4,0,0.7-0.1,0.9-0.2
			C1648.7,2924,1648.8,2923.8,1648.8,2923.6z"/>
	</g>
	<g class="st0">
		<path class="st1" d="M1329.5,2911.5c-0.1,1.1-0.5,1.9-1.2,2.5s-1.7,0.9-2.8,0.9c-1.3,0-2.3-0.4-3-1.3c-0.7-0.9-1.1-2-1.1-3.5v-0.6
			c0-1,0.2-1.8,0.5-2.5s0.8-1.3,1.4-1.7c0.6-0.4,1.4-0.6,2.2-0.6c1.1,0,2.1,0.3,2.8,0.9s1.1,1.5,1.2,2.6h-2.1
			c-0.1-0.6-0.2-1.1-0.5-1.4c-0.3-0.3-0.8-0.4-1.4-0.4c-0.7,0-1.2,0.2-1.5,0.7c-0.3,0.5-0.5,1.2-0.5,2.3v0.8c0,1.1,0.2,1.9,0.5,2.4
			s0.8,0.7,1.5,0.7c0.6,0,1.1-0.1,1.4-0.4c0.3-0.3,0.5-0.7,0.5-1.3H1329.5z"/>
		<path class="st1" d="M1330.4,2911.1c0-0.7,0.1-1.4,0.4-2s0.7-1,1.2-1.3s1.1-0.5,1.8-0.5c1,0,1.8,0.3,2.4,0.9s1,1.4,1.1,2.5l0,0.5
			c0,1.1-0.3,2-1,2.7c-0.6,0.7-1.5,1-2.5,1s-1.9-0.3-2.6-1S1330.4,2912.3,1330.4,2911.1L1330.4,2911.1z M1332.4,2911.2
			c0,0.7,0.1,1.2,0.4,1.6s0.6,0.6,1.1,0.6c0.5,0,0.9-0.2,1.1-0.6c0.3-0.4,0.4-1,0.4-1.8c0-0.7-0.1-1.2-0.4-1.6s-0.6-0.6-1.1-0.6
			c-0.5,0-0.9,0.2-1.1,0.6C1332.5,2909.8,1332.4,2910.4,1332.4,2911.2z"/>
		<path class="st1" d="M1340.4,2907.4l0.1,0.9c0.5-0.7,1.2-1,2.1-1c0.8,0,1.4,0.2,1.8,0.7s0.6,1.1,0.6,2.1v4.8h-2v-4.7
			c0-0.4-0.1-0.7-0.3-0.9c-0.2-0.2-0.5-0.3-0.9-0.3c-0.6,0-1,0.2-1.3,0.7v5.2h-2v-7.4H1340.4z"/>
		<path class="st1" d="M1346.1,2911.1c0-1.2,0.3-2.1,0.8-2.8s1.2-1,2.1-1c0.7,0,1.3,0.3,1.8,0.8v-3.8h2v10.5h-1.8l-0.1-0.8
			c-0.5,0.6-1.1,0.9-1.9,0.9c-0.9,0-1.6-0.3-2.1-1C1346.4,2913.3,1346.1,2912.3,1346.1,2911.1z M1348.1,2911.2
			c0,0.7,0.1,1.2,0.4,1.6c0.2,0.4,0.6,0.6,1.1,0.6c0.6,0,1-0.3,1.3-0.8v-2.9c-0.2-0.5-0.7-0.8-1.3-0.8
			C1348.6,2908.9,1348.1,2909.7,1348.1,2911.2z"/>
		<path class="st1" d="M1358.8,2914.1c-0.5,0.6-1.2,0.9-2,0.9c-0.8,0-1.4-0.2-1.8-0.7s-0.6-1.1-0.6-2v-4.8h2v4.8
			c0,0.8,0.4,1.2,1.1,1.2c0.7,0,1.1-0.2,1.4-0.7v-5.2h2v7.4h-1.9L1358.8,2914.1z"/>
		<path class="st1" d="M1365.3,2913.4c0.4,0,0.7-0.1,0.9-0.3s0.3-0.5,0.4-0.8h1.9c0,0.5-0.1,1-0.4,1.4c-0.3,0.4-0.6,0.7-1.1,1
			c-0.5,0.2-1,0.3-1.5,0.3c-1.1,0-1.9-0.3-2.5-1c-0.6-0.7-0.9-1.6-0.9-2.8v-0.1c0-1.1,0.3-2,0.9-2.7s1.4-1,2.5-1
			c0.9,0,1.7,0.3,2.2,0.8c0.6,0.5,0.8,1.2,0.9,2.1h-1.9c0-0.4-0.1-0.7-0.4-0.9c-0.2-0.2-0.5-0.4-0.9-0.4c-0.5,0-0.8,0.2-1,0.5
			c-0.2,0.3-0.4,0.9-0.4,1.6v0.2c0,0.8,0.1,1.3,0.3,1.6S1364.8,2913.4,1365.3,2913.4z"/>
		<path class="st1" d="M1371.8,2905.6v1.8h1.3v1.4h-1.3v3.7c0,0.3,0.1,0.5,0.2,0.6s0.3,0.2,0.6,0.2c0.2,0,0.4,0,0.6,0v1.5
			c-0.4,0.1-0.8,0.2-1.2,0.2c-1.4,0-2.1-0.7-2.1-2.1v-4h-1.1v-1.4h1.1v-1.8H1371.8z"/>
		<path class="st1" d="M1373.7,2911.1c0-0.7,0.1-1.4,0.4-2s0.7-1,1.2-1.3s1.1-0.5,1.8-0.5c1,0,1.8,0.3,2.4,0.9s1,1.4,1.1,2.5l0,0.5
			c0,1.1-0.3,2-1,2.7c-0.6,0.7-1.5,1-2.5,1s-1.9-0.3-2.6-1S1373.7,2912.3,1373.7,2911.1L1373.7,2911.1z M1375.7,2911.2
			c0,0.7,0.1,1.2,0.4,1.6s0.6,0.6,1.1,0.6c0.5,0,0.9-0.2,1.1-0.6c0.3-0.4,0.4-1,0.4-1.8c0-0.7-0.1-1.2-0.4-1.6s-0.6-0.6-1.1-0.6
			c-0.5,0-0.9,0.2-1.1,0.6C1375.8,2909.8,1375.7,2910.4,1375.7,2911.2z"/>
		<path class="st1" d="M1386.1,2909.3c-0.3,0-0.5-0.1-0.7-0.1c-0.7,0-1.2,0.3-1.5,0.8v4.8h-2v-7.4h1.9l0.1,0.9c0.4-0.7,0.9-1,1.6-1
			c0.2,0,0.4,0,0.6,0.1L1386.1,2909.3z"/>
	</g>
	<line id="Línea_327" class="st2" x1="1468.9" y1="2922" x2="1575.8" y2="2922"/>
	<g id="Grupo_64350" transform="translate(1328.619 2754.491)">
		
			<linearGradient id="Trazado_110911_1_" gradientUnits="userSpaceOnUse" x1="-81.2749" y1="739.4166" x2="-80.8429" y2="739.7975" gradientTransform="matrix(208.9956 0 0 -237.0027 17030.1719 175397.9844)">
			<stop  offset="5.700000e-02" style="stop-color:#4BA8EB"/>
			<stop  offset="0.321" style="stop-color:#7DCFF6"/>
			<stop  offset="0.652" style="stop-color:#49A7EB"/>
		</linearGradient>
		<path id="Trazado_110911" class="st3" d="M125.3,224.5c0-31.5,25.5-57,57-57c9.3,0,18.5,2.3,26.7,6.6L41.7,9.4
			c-7.5-10.3-22-12.5-32.3-5c-10.3,7.5-12.5,22-5,32.3c0.9,1.3,2,2.4,3.2,3.5c22.9,37.7,111.2,183.3,119,196.8
			C125.7,232.9,125.3,228.7,125.3,224.5z"/>
		<g id="Grupo_64336" transform="translate(142.259 222.674)">
			
				<linearGradient id="Trazado_110912_1_" gradientUnits="userSpaceOnUse" x1="-220.4282" y1="503.1085" x2="-221.1782" y2="502.7505" gradientTransform="matrix(28.6301 0 0 -28.6299 6341.9819 14410.2422)">
				<stop  offset="0" style="stop-color:#FCBAAA"/>
				<stop  offset="0.971" style="stop-color:#ED6BCF"/>
			</linearGradient>
			<path id="Trazado_110912" class="st4" d="M28.6,14.3c0,7.9-6.4,14.3-14.3,14.3C6.4,28.6,0,22.2,0,14.3C0,6.4,6.4,0,14.3,0h0
				C22.2,0,28.6,6.4,28.6,14.3z"/>
			
				<linearGradient id="Trazado_110913_1_" gradientUnits="userSpaceOnUse" x1="-221.3637" y1="502.8334" x2="-220.3637" y2="502.8334" gradientTransform="matrix(27.0544 0 0 -28.6382 5988.8574 14414.5469)">
				<stop  offset="0" style="stop-color:#FCBAAA"/>
				<stop  offset="0.971" style="stop-color:#9A6BCF"/>
			</linearGradient>
			<path id="Trazado_110913" class="st5" d="M23.3,21.6c-5.8,0-10.5-4.7-10.5-10.4c0-4.5,2.9-8.5,7.2-9.9C12.8-2,4.3,1.4,1.2,8.6
				C-2,15.9,1.3,24.3,8.6,27.4c6.9,3,15,0.1,18.4-6.6C25.9,21.3,24.6,21.5,23.3,21.6z"/>
		</g>
		<g id="Grupo_64337" transform="translate(170.889 198.846)">
			
				<linearGradient id="Trazado_110914_1_" gradientUnits="userSpaceOnUse" x1="-249.0582" y1="526.9366" x2="-249.8082" y2="526.5786" gradientTransform="matrix(28.6301 0 0 -28.6301 7161.6626 15092.5635)">
				<stop  offset="0" style="stop-color:#FCBAAA"/>
				<stop  offset="0.971" style="stop-color:#ED6BCF"/>
			</linearGradient>
			<path id="Trazado_110914" class="st6" d="M28.6,14.3c0,7.9-6.4,14.3-14.3,14.3C6.4,28.6,0,22.2,0,14.3C0,6.4,6.4,0,14.3,0
				C22.2,0,28.6,6.4,28.6,14.3C28.6,14.3,28.6,14.3,28.6,14.3z"/>
			
				<linearGradient id="Trazado_110915_1_" gradientUnits="userSpaceOnUse" x1="-249.9937" y1="526.6614" x2="-248.9937" y2="526.6614" gradientTransform="matrix(27.0544 0 0 -28.6382 6763.4263 15096.9385)">
				<stop  offset="0" style="stop-color:#FCBAAA"/>
				<stop  offset="0.971" style="stop-color:#9A6BCF"/>
			</linearGradient>
			<path id="Trazado_110915" class="st7" d="M23.3,21.6c-5.8,0-10.5-4.7-10.5-10.4c0-4.5,2.9-8.5,7.2-9.9C12.8-2,4.3,1.4,1.2,8.6
				C-2,15.9,1.3,24.3,8.6,27.4c6.9,3,15,0.1,18.4-6.6C25.9,21.3,24.6,21.5,23.3,21.6z"/>
		</g>
		<g id="Grupo_64338" transform="translate(173.148 229.801)">
			
				<linearGradient id="Trazado_110916_1_" gradientUnits="userSpaceOnUse" x1="-251.3172" y1="495.9815" x2="-252.0672" y2="495.6235" gradientTransform="matrix(28.6301 0 0 -28.6299 7226.3364 14206.1973)">
				<stop  offset="0" style="stop-color:#FCBAAA"/>
				<stop  offset="0.971" style="stop-color:#ED6BCF"/>
			</linearGradient>
			<path id="Trazado_110916" class="st8" d="M28.6,14.3c0,7.9-6.4,14.3-14.3,14.3C6.4,28.6,0,22.2,0,14.3C0,6.4,6.4,0,14.3,0
				c0,0,0,0,0,0C22.2,0,28.6,6.4,28.6,14.3C28.6,14.3,28.6,14.3,28.6,14.3z"/>
			
				<linearGradient id="Trazado_110917_1_" gradientUnits="userSpaceOnUse" x1="-252.2527" y1="495.7064" x2="-251.2527" y2="495.7064" gradientTransform="matrix(27.0544 0 0 -28.6382 6824.542 14210.4404)">
				<stop  offset="0" style="stop-color:#FCBAAA"/>
				<stop  offset="0.971" style="stop-color:#9A6BCF"/>
			</linearGradient>
			<path id="Trazado_110917" class="st9" d="M23.3,21.6c-5.8,0-10.5-4.7-10.5-10.4c0-4.5,2.9-8.5,7.2-9.9C12.8-2,4.3,1.3,1.2,8.6
				C-2,15.8,1.3,24.3,8.6,27.4c6.9,3,15,0.1,18.4-6.6C25.9,21.3,24.6,21.5,23.3,21.6z"/>
		</g>
		<g id="Grupo_64339" transform="translate(190.577 208.359)">
			
				<linearGradient id="Trazado_110918_1_" gradientUnits="userSpaceOnUse" x1="-268.7462" y1="517.4235" x2="-269.4962" y2="517.0655" gradientTransform="matrix(28.6301 0 0 -28.6299 7725.332 14820.0801)">
				<stop  offset="0" style="stop-color:#FCBAAA"/>
				<stop  offset="0.971" style="stop-color:#ED6BCF"/>
			</linearGradient>
			<path id="Trazado_110918" class="st10" d="M28.6,14.3c0,7.9-6.4,14.3-14.3,14.3C6.4,28.6,0,22.2,0,14.3C0,6.4,6.4,0,14.3,0h0
				C22.2,0,28.6,6.4,28.6,14.3z"/>
			
				<linearGradient id="Trazado_110919_1_" gradientUnits="userSpaceOnUse" x1="-269.6818" y1="517.1485" x2="-268.6818" y2="517.1485" gradientTransform="matrix(27.0548 0 0 -28.6384 7296.1802 14824.6338)">
				<stop  offset="0" style="stop-color:#FCBAAA"/>
				<stop  offset="0.971" style="stop-color:#9A6BCF"/>
			</linearGradient>
			<path id="Trazado_110919" class="st11" d="M23.4,21.6c-5.8,0-10.5-4.6-10.5-10.4c0-4.5,2.9-8.5,7.2-9.9C12.8-2,4.3,1.4,1.2,8.6
				C-2,15.9,1.3,24.3,8.6,27.4c6.9,3,15,0.1,18.4-6.6C25.9,21.3,24.6,21.5,23.4,21.6z"/>
		</g>
		<g id="Grupo_64340" transform="translate(110.959 177.297)">
			
				<linearGradient id="Trazado_110920_1_" gradientUnits="userSpaceOnUse" x1="-189.1282" y1="548.4855" x2="-189.8782" y2="548.1275" gradientTransform="matrix(28.6301 0 0 -28.6299 5445.8589 15709.3809)">
				<stop  offset="0" style="stop-color:#FCBAAA"/>
				<stop  offset="0.971" style="stop-color:#ED6BCF"/>
			</linearGradient>
			<path id="Trazado_110920" class="st12" d="M28.6,14.3c0,7.9-6.4,14.3-14.3,14.3C6.4,28.6,0,22.2,0,14.3C0,6.4,6.4,0,14.3,0
				c0,0,0,0,0,0C22.2,0,28.6,6.4,28.6,14.3C28.6,14.3,28.6,14.3,28.6,14.3z"/>
			
				<linearGradient id="Trazado_110921_1_" gradientUnits="userSpaceOnUse" x1="-190.0637" y1="548.2104" x2="-189.0637" y2="548.2104" gradientTransform="matrix(27.0544 0 0 -28.6382 5142.0542 15714.0635)">
				<stop  offset="0" style="stop-color:#FCBAAA"/>
				<stop  offset="0.971" style="stop-color:#9A6BCF"/>
			</linearGradient>
			<path id="Trazado_110921" class="st13" d="M23.3,21.6c-5.8,0-10.5-4.7-10.5-10.4c0-4.5,2.9-8.5,7.1-9.9C12.8-2,4.3,1.4,1.2,8.6
				C-2,15.9,1.3,24.3,8.6,27.4c6.9,3,15,0.1,18.4-6.6C25.9,21.3,24.6,21.5,23.3,21.6z"/>
		</g>
		<g id="Grupo_64341" transform="translate(137.999 169.962)">
			
				<linearGradient id="Trazado_110922_1_" gradientUnits="userSpaceOnUse" x1="-216.1682" y1="555.8205" x2="-216.9182" y2="555.4625" gradientTransform="matrix(28.6301 0 0 -28.6299 6220.0171 15919.3809)">
				<stop  offset="0" style="stop-color:#FCBAAA"/>
				<stop  offset="0.971" style="stop-color:#ED6BCF"/>
			</linearGradient>
			<path id="Trazado_110922" class="st14" d="M28.6,14.3c0,7.9-6.4,14.3-14.3,14.3C6.4,28.6,0,22.2,0,14.3C0,6.4,6.4,0,14.3,0h0
				C22.2,0,28.6,6.4,28.6,14.3z"/>
			
				<linearGradient id="Trazado_110923_1_" gradientUnits="userSpaceOnUse" x1="-217.1039" y1="555.5466" x2="-216.1039" y2="555.5466" gradientTransform="matrix(27.0564 0 0 -28.6404 5874.0327 15925.3789)">
				<stop  offset="0" style="stop-color:#FCBAAA"/>
				<stop  offset="0.971" style="stop-color:#9A6BCF"/>
			</linearGradient>
			<path id="Trazado_110923" class="st15" d="M23.3,21.6c-5.8,0-10.5-4.7-10.5-10.4c0-4.5,2.9-8.5,7.2-9.9C12.8-2,4.3,1.3,1.2,8.6
				C-2,15.8,1.3,24.3,8.6,27.4c6.9,3,15,0.1,18.4-6.6C25.9,21.3,24.6,21.5,23.3,21.6z"/>
		</g>
		<g id="Grupo_64342" transform="translate(123.684 153.238)">
			
				<linearGradient id="Trazado_110924_1_" gradientUnits="userSpaceOnUse" x1="-201.8532" y1="572.5445" x2="-202.6032" y2="572.1865" gradientTransform="matrix(28.6301 0 0 -28.6299 5810.1772 16398.1875)">
				<stop  offset="0" style="stop-color:#FCBAAA"/>
				<stop  offset="0.971" style="stop-color:#ED6BCF"/>
			</linearGradient>
			<path id="Trazado_110924" class="st16" d="M28.6,14.3c0,7.9-6.4,14.3-14.3,14.3C6.4,28.6,0,22.2,0,14.3C0,6.4,6.4,0,14.3,0h0
				C22.2,0,28.6,6.4,28.6,14.3z"/>
			
				<linearGradient id="Trazado_110925_1_" gradientUnits="userSpaceOnUse" x1="-202.7887" y1="572.2693" x2="-201.7887" y2="572.2693" gradientTransform="matrix(27.0544 0 0 -28.6382 5486.3242 16403.0684)">
				<stop  offset="0" style="stop-color:#FCBAAA"/>
				<stop  offset="0.971" style="stop-color:#9A6BCF"/>
			</linearGradient>
			<path id="Trazado_110925" class="st17" d="M23.3,21.6c-5.8,0-10.5-4.7-10.5-10.4c0-4.5,2.9-8.5,7.1-9.9C12.8-2,4.3,1.4,1.2,8.6
				C-2,15.9,1.3,24.3,8.6,27.4c6.9,3,15,0.1,18.4-6.6C25.9,21.3,24.6,21.5,23.3,21.6z"/>
		</g>
		<g id="Grupo_64343" transform="translate(99.797 150.693)">
			
				<linearGradient id="Trazado_110926_1_" gradientUnits="userSpaceOnUse" x1="-177.1183" y1="569.8419" x2="-177.8683" y2="569.4839" gradientTransform="matrix(21.558 0 0 -21.5581 3841.7275 12289.459)">
				<stop  offset="0" style="stop-color:#FCBAAA"/>
				<stop  offset="0.971" style="stop-color:#ED6BCF"/>
			</linearGradient>
			<path id="Trazado_110926" class="st18" d="M21.6,10.8c0,6-4.8,10.8-10.8,10.8C4.8,21.6,0,16.7,0,10.8C0,4.8,4.8,0,10.8,0
				C16.7,0,21.6,4.8,21.6,10.8C21.6,10.8,21.6,10.8,21.6,10.8z"/>
			
				<linearGradient id="Trazado_110927_1_" gradientUnits="userSpaceOnUse" x1="-178.0041" y1="569.5667" x2="-177.0041" y2="569.5667" gradientTransform="matrix(20.3698 0 0 -21.5627 3625.8909 12292.1973)">
				<stop  offset="0" style="stop-color:#FCBAAA"/>
				<stop  offset="0.971" style="stop-color:#9A6BCF"/>
			</linearGradient>
			<path id="Trazado_110927" class="st19" d="M17.6,16.2c-4.3,0-7.9-3.5-7.9-7.8c0-3.4,2.2-6.4,5.4-7.5C9.6-1.5,3.3,1,0.9,6.5
				C-1.5,11.9,1,18.3,6.5,20.7c5.2,2.3,11.3,0.1,13.9-5C19.5,16,18.5,16.2,17.6,16.2z"/>
		</g>
		<g id="Grupo_64344" transform="translate(99.003 104.179)">
			
				<linearGradient id="Trazado_110928_1_" gradientUnits="userSpaceOnUse" x1="-176.3242" y1="616.3558" x2="-177.0742" y2="615.9979" gradientTransform="matrix(21.558 0 0 -21.5581 3824.6086 13292.2119)">
				<stop  offset="0" style="stop-color:#FCBAAA"/>
				<stop  offset="0.971" style="stop-color:#ED6BCF"/>
			</linearGradient>
			<path id="Trazado_110928" class="st20" d="M21.6,10.8c0,6-4.8,10.8-10.8,10.8C4.8,21.6,0,16.7,0,10.8C0,4.8,4.8,0,10.8,0
				c0,0,0,0,0,0C16.7,0,21.6,4.8,21.6,10.8C21.6,10.8,21.6,10.8,21.6,10.8z"/>
			
				<linearGradient id="Trazado_110929_1_" gradientUnits="userSpaceOnUse" x1="-177.2105" y1="616.0826" x2="-176.2105" y2="616.0826" gradientTransform="matrix(20.3717 0 0 -21.5647 3610.0667 13296.4121)">
				<stop  offset="0" style="stop-color:#FCBAAA"/>
				<stop  offset="0.971" style="stop-color:#9A6BCF"/>
			</linearGradient>
			<path id="Trazado_110929" class="st21" d="M17.6,16.2c-4.3,0-7.9-3.5-7.9-7.8c0-3.4,2.2-6.4,5.4-7.5C9.6-1.5,3.3,1,0.9,6.5
				C-1.5,11.9,1,18.3,6.5,20.7c5.2,2.3,11.3,0.1,13.9-5C19.5,16,18.5,16.2,17.6,16.2z"/>
		</g>
		<g id="Grupo_64345" transform="translate(62.415 89.864)">
			
				<linearGradient id="Trazado_110930_1_" gradientUnits="userSpaceOnUse" x1="-140.111" y1="632.9901" x2="-140.861" y2="632.6321" gradientTransform="matrix(24.2001 0 0 -24.2 3416.9897 15323.6631)">
				<stop  offset="0" style="stop-color:#FCBAAA"/>
				<stop  offset="0.971" style="stop-color:#ED6BCF"/>
			</linearGradient>
			<path id="Trazado_110930" class="st22" d="M24.2,12.1c0,6.7-5.4,12.1-12.1,12.1S0,18.8,0,12.1C0,5.4,5.4,0,12.1,0
				S24.2,5.4,24.2,12.1L24.2,12.1z"/>
			
				<linearGradient id="Trazado_110931_1_" gradientUnits="userSpaceOnUse" x1="-141.0204" y1="632.7239" x2="-140.0204" y2="632.7239" gradientTransform="matrix(22.8779 0 0 -24.2173 3226.2419 15334.958)">
				<stop  offset="0" style="stop-color:#FCBAAA"/>
				<stop  offset="0.971" style="stop-color:#9A6BCF"/>
			</linearGradient>
			<path id="Trazado_110931" class="st23" d="M19.7,18.2c-4.9,0-8.9-3.9-8.9-8.8c0-3.8,2.4-7.2,6-8.4C10.8-1.7,3.7,1.1,1,7.3
				s0.1,13.3,6.3,15.9c5.9,2.5,12.7,0.1,15.6-5.6C21.9,18,20.8,18.2,19.7,18.2z"/>
		</g>
		<g id="Grupo_64346" transform="translate(37.698 30.949)">
			
				<linearGradient id="Trazado_110932_1_" gradientUnits="userSpaceOnUse" x1="-114.3926" y1="685.7073" x2="-115.1426" y2="685.3493" gradientTransform="matrix(18.23 0 0 -18.23 2105.1748 12504.4463)">
				<stop  offset="0" style="stop-color:#FCBAAA"/>
				<stop  offset="0.971" style="stop-color:#ED6BCF"/>
			</linearGradient>
			<path id="Trazado_110932" class="st24" d="M18.2,9.1c0,5-4.1,9.1-9.1,9.1S0,14.1,0,9.1C0,4.1,4.1,0,9.1,0l0,0
				C14.1,0,18.2,4.1,18.2,9.1z"/>
			
				<linearGradient id="Trazado_110933_1_" gradientUnits="userSpaceOnUse" x1="-115.2426" y1="685.436" x2="-114.2426" y2="685.436" gradientTransform="matrix(17.2278 0 0 -18.2361 1985.3635 12508.7822)">
				<stop  offset="0" style="stop-color:#FCBAAA"/>
				<stop  offset="0.971" style="stop-color:#9A6BCF"/>
			</linearGradient>
			<path id="Trazado_110933" class="st25" d="M14.9,13.7c-3.7,0-6.7-3-6.7-6.6c0-2.9,1.8-5.4,4.6-6.3c-4.6-2-10,0.1-12,4.7
				c-2,4.6,0.1,10,4.7,12c4.4,1.9,9.6,0.1,11.7-4.2C16.5,13.6,15.7,13.7,14.9,13.7z"/>
		</g>
		<g id="Grupo_64347" transform="translate(31.273 53.423)">
			
				<linearGradient id="Trazado_110934_1_" gradientUnits="userSpaceOnUse" x1="-106.6364" y1="654.9944" x2="-107.3864" y2="654.6364" gradientTransform="matrix(13.728 0 0 -13.728 1478.8169 8994.8047)">
				<stop  offset="0" style="stop-color:#FCBAAA"/>
				<stop  offset="0.971" style="stop-color:#ED6BCF"/>
			</linearGradient>
			<path id="Trazado_110934" class="st26" d="M13.7,6.9c0,3.8-3.1,6.9-6.9,6.9S0,10.7,0,6.9C0,3.1,3.1,0,6.9,0S13.7,3.1,13.7,6.9
				L13.7,6.9z"/>
			
				<linearGradient id="Trazado_110935_1_" gradientUnits="userSpaceOnUse" x1="-107.4082" y1="654.7223" x2="-106.4082" y2="654.7223" gradientTransform="matrix(12.9716 0 0 -13.7312 1393.2408 8996.9863)">
				<stop  offset="0" style="stop-color:#FCBAAA"/>
				<stop  offset="0.971" style="stop-color:#9A6BCF"/>
			</linearGradient>
			<path id="Trazado_110935" class="st27" d="M11.2,10.3c-2.8,0-5-2.2-5-5c0-2.2,1.4-4.1,3.4-4.8c-3.5-1.5-7.5,0.1-9,3.6
				s0.1,7.5,3.6,9c3.3,1.4,7.2,0.1,8.8-3.2C12.4,10.2,11.8,10.3,11.2,10.3z"/>
		</g>
		<g id="Grupo_64348" transform="translate(17.546 31.028)">
			
				<linearGradient id="Trazado_110936_1_" gradientUnits="userSpaceOnUse" x1="-92.9087" y1="677.3846" x2="-93.6587" y2="677.0266" gradientTransform="matrix(13.7261 0 0 -13.7261 1290.1801 9300.8535)">
				<stop  offset="0" style="stop-color:#FCBAAA"/>
				<stop  offset="0.971" style="stop-color:#ED6BCF"/>
			</linearGradient>
			<path id="Trazado_110936" class="st28" d="M13.7,6.9c0,3.8-3.1,6.9-6.9,6.9C3.1,13.7,0,10.7,0,6.9C0,3.1,3.1,0,6.9,0
				C10.7,0,13.7,3.1,13.7,6.9L13.7,6.9z"/>
			
				<linearGradient id="Trazado_110937_1_" gradientUnits="userSpaceOnUse" x1="-93.6813" y1="677.1173" x2="-92.6813" y2="677.1173" gradientTransform="matrix(12.9719 0 0 -13.7312 1215.2172 9304.4961)">
				<stop  offset="0" style="stop-color:#FCBAAA"/>
				<stop  offset="0.971" style="stop-color:#9A6BCF"/>
			</linearGradient>
			<path id="Trazado_110937" class="st29" d="M11.2,10.3c-2.8,0-5-2.2-5-5c0-2.2,1.4-4.1,3.4-4.8c-3.5-1.5-7.5,0.1-9,3.6
				c-1.5,3.5,0.1,7.5,3.6,9c3.3,1.4,7.2,0.1,8.8-3.2C12.4,10.2,11.8,10.3,11.2,10.3z"/>
		</g>
		<g id="Grupo_64349" transform="translate(61.62 56.18)">
			
				<linearGradient id="Trazado_110938_1_" gradientUnits="userSpaceOnUse" x1="-138.8254" y1="663.6376" x2="-139.5754" y2="663.2795" gradientTransform="matrix(20.854 0 0 -20.854 2917.7166 13844.0928)">
				<stop  offset="0" style="stop-color:#FCBAAA"/>
				<stop  offset="0.971" style="stop-color:#ED6BCF"/>
			</linearGradient>
			<path id="Trazado_110938" class="st30" d="M20.9,10.4c0,5.8-4.7,10.4-10.4,10.4S0,16.2,0,10.4C0,4.7,4.7,0,10.4,0
				C16.2,0,20.9,4.7,20.9,10.4z"/>
			
				<linearGradient id="Trazado_110939_1_" gradientUnits="userSpaceOnUse" x1="-139.7053" y1="663.3668" x2="-138.7053" y2="663.3668" gradientTransform="matrix(19.7087 0 0 -20.8625 2753.4023 13849.9482)">
				<stop  offset="0" style="stop-color:#FCBAAA"/>
				<stop  offset="0.971" style="stop-color:#9A6BCF"/>
			</linearGradient>
			<path id="Trazado_110939" class="st31" d="M17,15.7c-4.2,0-7.6-3.4-7.6-7.6c0-3.3,2.1-6.2,5.2-7.2C9.3-1.4,3.2,1,0.9,6.3
				C-1.4,11.5,1,17.7,6.3,20c5,2.2,10.9,0.1,13.4-4.8C18.8,15.5,17.9,15.7,17,15.7z"/>
		</g>
		<circle id="Elipse_4713" class="st32" cx="182.3" cy="224.5" r="57"/>
		<path id="Rectángulo_32136" class="st33" d="M5.6,13.7l5.5-4.5c2.6-2.1,6.3-1.7,8.4,0.9l132.6,162.6c2.1,2.6,1.7,6.3-0.9,8.4
			l-5.5,4.5c-2.6,2.1-6.3,1.7-8.4-0.9L4.8,22.1C2.7,19.5,3.1,15.7,5.6,13.7z"/>
	</g>
</g>
</svg>
