<?xml version="1.0" encoding="utf-8"?>
<!-- Generator: Adobe Illustrator 25.2.3, SVG Export Plug-In . SVG Version: 6.00 Build 0)  -->
<!DOCTYPE svg PUBLIC "-//W3C//DTD SVG 1.1//EN" "http://www.w3.org/Graphics/SVG/1.1/DTD/svg11.dtd" [
	<!ENTITY ns_extend "http://ns.adobe.com/Extensibility/1.0/">
	<!ENTITY ns_ai "http://ns.adobe.com/AdobeIllustrator/10.0/">
	<!ENTITY ns_graphs "http://ns.adobe.com/Graphs/1.0/">
	<!ENTITY ns_vars "http://ns.adobe.com/Variables/1.0/">
	<!ENTITY ns_imrep "http://ns.adobe.com/ImageReplacement/1.0/">
	<!ENTITY ns_sfw "http://ns.adobe.com/SaveForWeb/1.0/">
	<!ENTITY ns_custom "http://ns.adobe.com/GenericCustomNamespace/1.0/">
	<!ENTITY ns_adobe_xpath "http://ns.adobe.com/XPath/1.0/">
]>
<svg version="1.1" id="Capa_1" xmlns:x="&ns_extend;" xmlns:i="&ns_ai;" xmlns:graph="&ns_graphs;"
	 xmlns="http://www.w3.org/2000/svg" xmlns:xlink="http://www.w3.org/1999/xlink" x="0px" y="0px" viewBox="0 0 424.3 296.1"
	 style="enable-background:new 0 0 424.3 296.1;" xml:space="preserve">
<style type="text/css">
	.st0{enable-background:new    ;}
	.st1{fill:#1B2D5B;}
	.st2{fill:#898989;}
	.st3{fill:#C5C5C5;}
	.st4{clip-path:url(#SVGID_2_);}
	.st5{fill:#B8B8B8;}
	.st6{fill:#BDBDBD;}
	.st7{fill:#C2C2C2;}
	.st8{fill:#C7C7C7;}
	.st9{fill:#CCCCCC;}
	.st10{fill:#D1D1D1;}
	.st11{fill:#D6D6D6;}
	.st12{fill:#DBDBDB;}
	.st13{fill:#E0E0E0;}
	.st14{fill:#E6E6E6;}
	.st15{fill:#EBEBEB;}
	.st16{fill:#EFEFEF;}
	.st17{fill:#F4F4F4;}
	.st18{fill:#F9F9F9;}
	.st19{fill:#FFFFFF;}
	.st20{clip-path:url(#SVGID_4_);}
	.st21{fill:#858585;}
	.st22{fill:#8A8A8A;}
	.st23{fill:#8F8F8F;}
	.st24{fill:#949494;}
	.st25{fill:#999999;}
	.st26{fill:#9E9E9E;}
	.st27{fill:#A4A4A4;}
	.st28{fill:#A9A9A9;}
	.st29{fill:#AEAEAE;}
	.st30{fill:#B3B3B3;}
	.st31{clip-path:url(#SVGID_6_);}
	.st32{fill:#DCDCDC;}
	.st33{fill:#2B2B2B;}
	.st34{fill:#414141;}
	.st35{fill:#4A4A4A;}
	.st36{clip-path:url(#SVGID_8_);}
	.st37{clip-path:url(#SVGID_10_);}
	.st38{clip-path:url(#SVGID_12_);}
	.st39{fill:none;stroke:#25FFFF;stroke-width:2;stroke-miterlimit:10;}
</style>
<metadata>
	<sfw  xmlns="&ns_sfw;">
		<slices></slices>
		<sliceSourceBounds  bottomLeftOrigin="true" height="283.9" width="422.2" x="0" y="5.8"></sliceSourceBounds>
	</sfw>
</metadata>
<g id="Grupo_72869" transform="translate(-1433.987 -2299.557)">
	<g id="Layer_1" transform="translate(1553.613 2299.557)">
		<g class="st0">
			<path class="st1" d="M128.1,11.4l0.1,1.5c0.9-1.1,2-1.7,3.5-1.7c2.5,0,3.7,1.4,3.7,4.2V23h-2v-7.7c0-0.8-0.2-1.5-0.6-1.9
				s-1-0.6-1.8-0.6c-0.6,0-1.2,0.2-1.7,0.5c-0.5,0.3-0.9,0.8-1.1,1.4V23h-2V11.4H128.1z"/>
			<path class="st1" d="M145.5,21.9c-0.8,0.9-1.9,1.4-3.4,1.4c-1.2,0-2.2-0.4-2.8-1.1c-0.6-0.7-1-1.8-1-3.2v-7.6h2v7.5
				c0,1.8,0.7,2.6,2.1,2.6c1.5,0,2.5-0.6,3-1.7v-8.5h2V23h-1.9L145.5,21.9z M143.9,6.5h2.4l-2.9,3.2l-1.6,0L143.9,6.5z"/>
			<path class="st1" d="M152.3,11.4l0.1,1.3c0.9-1,2-1.5,3.4-1.5c1.6,0,2.7,0.6,3.3,1.9c0.4-0.6,0.9-1,1.5-1.4s1.4-0.5,2.2-0.5
				c2.5,0,3.8,1.3,3.9,4V23h-2v-7.7c0-0.8-0.2-1.5-0.6-1.9c-0.4-0.4-1-0.6-1.9-0.6c-0.7,0-1.4,0.2-1.8,0.7c-0.5,0.4-0.8,1-0.8,1.8
				V23h-2v-7.6c0-1.7-0.8-2.5-2.5-2.5c-1.3,0-2.2,0.6-2.7,1.7V23h-2V11.4H152.3z"/>
			<path class="st1" d="M174.6,23.2c-1.6,0-2.9-0.5-3.8-1.6c-1-1-1.5-2.4-1.5-4.2v-0.4c0-1.2,0.2-2.2,0.7-3.1
				c0.4-0.9,1.1-1.6,1.8-2.1c0.8-0.5,1.6-0.8,2.6-0.8c1.5,0,2.7,0.5,3.5,1.5s1.3,2.4,1.3,4.3v0.8h-7.9c0,1.1,0.4,2.1,1,2.8
				c0.6,0.7,1.5,1.1,2.4,1.1c0.7,0,1.3-0.1,1.8-0.4c0.5-0.3,0.9-0.7,1.3-1.1L179,21C178,22.5,176.5,23.2,174.6,23.2z M174.3,12.8
				c-0.8,0-1.5,0.3-2,0.9c-0.5,0.6-0.9,1.4-1,2.5h5.8V16c-0.1-1-0.3-1.8-0.8-2.3C175.8,13.1,175.2,12.8,174.3,12.8z"/>
			<path class="st1" d="M187,13.2c-0.3,0-0.6-0.1-1-0.1c-1.3,0-2.2,0.6-2.7,1.7V23h-2V11.4h1.9l0,1.3c0.7-1,1.6-1.6,2.8-1.6
				c0.4,0,0.7,0,0.9,0.2V13.2z"/>
			<path class="st1" d="M188.1,17.1c0-1.1,0.2-2.2,0.7-3.1s1.1-1.6,1.9-2.1s1.7-0.7,2.7-0.7c1.6,0,2.9,0.5,3.8,1.6s1.5,2.6,1.5,4.4
				v0.1c0,1.1-0.2,2.1-0.7,3c-0.4,0.9-1.1,1.6-1.9,2.1s-1.7,0.8-2.8,0.8c-1.6,0-2.9-0.5-3.8-1.6s-1.5-2.5-1.5-4.4V17.1z M190.1,17.3
				c0,1.3,0.3,2.3,0.9,3.1s1.4,1.2,2.4,1.2c1,0,1.8-0.4,2.4-1.2c0.6-0.8,0.9-1.9,0.9-3.3c0-1.3-0.3-2.3-0.9-3.1
				c-0.6-0.8-1.4-1.2-2.4-1.2c-1,0-1.8,0.4-2.4,1.2S190.1,15.9,190.1,17.3z"/>
			<path class="st1" d="M206.6,8.3c0-0.3,0.1-0.6,0.3-0.8s0.5-0.3,0.9-0.3s0.7,0.1,0.9,0.3c0.2,0.2,0.3,0.5,0.3,0.8
				s-0.1,0.6-0.3,0.8c-0.2,0.2-0.5,0.3-0.9,0.3s-0.7-0.1-0.9-0.3S206.6,8.6,206.6,8.3z M208.8,23h-2V11.4h2V23z"/>
			<path class="st1" d="M213.9,11.4l0.1,1.5c0.9-1.1,2-1.7,3.5-1.7c2.5,0,3.7,1.4,3.7,4.2V23h-2v-7.7c0-0.8-0.2-1.5-0.6-1.9
				s-1-0.6-1.8-0.6c-0.6,0-1.2,0.2-1.7,0.5c-0.5,0.3-0.9,0.8-1.1,1.4V23h-2V11.4H213.9z"/>
			<path class="st1" d="M224.1,8.3c0-0.3,0.1-0.6,0.3-0.8s0.5-0.3,0.9-0.3s0.7,0.1,0.9,0.3c0.2,0.2,0.3,0.5,0.3,0.8
				s-0.1,0.6-0.3,0.8c-0.2,0.2-0.5,0.3-0.9,0.3s-0.7-0.1-0.9-0.3S224.1,8.6,224.1,8.3z M226.3,23h-2V11.4h2V23z"/>
			<path class="st1" d="M234.1,21.6c0.7,0,1.3-0.2,1.9-0.6c0.5-0.4,0.8-1,0.9-1.6h1.9c0,0.7-0.3,1.3-0.7,1.9c-0.4,0.6-1,1.1-1.7,1.4
				s-1.5,0.5-2.2,0.5c-1.6,0-2.8-0.5-3.8-1.6c-0.9-1.1-1.4-2.5-1.4-4.3V17c0-1.1,0.2-2.1,0.6-3c0.4-0.9,1-1.6,1.8-2.1
				s1.7-0.7,2.8-0.7c1.3,0,2.4,0.4,3.2,1.2s1.3,1.8,1.4,3h-1.9c-0.1-0.8-0.3-1.4-0.9-1.9c-0.5-0.5-1.1-0.7-1.9-0.7
				c-1,0-1.8,0.4-2.3,1.1c-0.6,0.7-0.8,1.8-0.8,3.2v0.4c0,1.3,0.3,2.4,0.8,3.1C232.3,21.2,233.1,21.6,234.1,21.6z"/>
			<path class="st1" d="M241,8.3c0-0.3,0.1-0.6,0.3-0.8s0.5-0.3,0.9-0.3s0.7,0.1,0.9,0.3c0.2,0.2,0.3,0.5,0.3,0.8s-0.1,0.6-0.3,0.8
				c-0.2,0.2-0.5,0.3-0.9,0.3s-0.7-0.1-0.9-0.3S241,8.6,241,8.3z M243.1,23h-2V11.4h2V23z"/>
			<path class="st1" d="M253.5,23c-0.1-0.2-0.2-0.6-0.3-1.2c-0.9,1-2,1.4-3.3,1.4c-1.1,0-2.1-0.3-2.8-1c-0.7-0.6-1.1-1.5-1.1-2.5
				c0-1.2,0.5-2.2,1.4-2.8c0.9-0.7,2.2-1,3.9-1h1.9V15c0-0.7-0.2-1.2-0.6-1.7c-0.4-0.4-1-0.6-1.8-0.6c-0.7,0-1.3,0.2-1.8,0.5
				c-0.5,0.4-0.7,0.8-0.7,1.3h-2c0-0.6,0.2-1.1,0.6-1.7c0.4-0.5,1-1,1.7-1.3s1.5-0.5,2.3-0.5c1.3,0,2.4,0.3,3.1,1
				c0.8,0.7,1.2,1.6,1.2,2.8v5.3c0,1.1,0.1,1.9,0.4,2.5V23H253.5z M250.2,21.5c0.6,0,1.2-0.2,1.8-0.5s1-0.7,1.2-1.3v-2.4h-1.6
				c-2.4,0-3.7,0.7-3.7,2.1c0,0.6,0.2,1.1,0.6,1.5C249,21.3,249.5,21.5,250.2,21.5z"/>
			<path class="st1" d="M260.4,23h-2V6.5h2V23z"/>
		</g>
		<g class="st0">
			<path class="st1" d="M128.1,49.8l0.1,1.3c0.9-1,2-1.5,3.4-1.5c1.6,0,2.7,0.6,3.3,1.9c0.4-0.6,0.9-1,1.5-1.4s1.4-0.5,2.2-0.5
				c2.5,0,3.8,1.3,3.9,4v7.8h-2v-7.7c0-0.8-0.2-1.5-0.6-1.9c-0.4-0.4-1-0.6-1.9-0.6c-0.7,0-1.4,0.2-1.8,0.7c-0.5,0.4-0.8,1-0.8,1.8
				v7.7h-2v-7.6c0-1.7-0.8-2.5-2.5-2.5c-1.3,0-2.2,0.6-2.7,1.7v8.5h-2V49.8H128.1z"/>
			<path class="st1" d="M152.7,60.2c-0.8,0.9-1.9,1.4-3.4,1.4c-1.2,0-2.2-0.4-2.8-1.1c-0.6-0.7-1-1.8-1-3.2v-7.6h2v7.5
				c0,1.8,0.7,2.6,2.1,2.6c1.5,0,2.5-0.6,3-1.7v-8.5h2v11.6h-1.9L152.7,60.2z"/>
			<path class="st1" d="M159.8,61.4h-2V44.9h2V61.4z"/>
			<path class="st1" d="M165.7,46.9v2.8h2.2v1.5h-2.2v7.2c0,0.5,0.1,0.8,0.3,1c0.2,0.2,0.5,0.3,1,0.3c0.2,0,0.5,0,0.9-0.1v1.6
				c-0.5,0.1-1,0.2-1.5,0.2c-0.9,0-1.6-0.3-2-0.8s-0.7-1.3-0.7-2.3v-7.2h-2.1v-1.5h2.1v-2.8H165.7z"/>
			<path class="st1" d="M170.2,46.7c0-0.3,0.1-0.6,0.3-0.8s0.5-0.3,0.9-0.3s0.7,0.1,0.9,0.3c0.2,0.2,0.3,0.5,0.3,0.8
				s-0.1,0.6-0.3,0.8c-0.2,0.2-0.5,0.3-0.9,0.3s-0.7-0.1-0.9-0.3S170.2,47,170.2,46.7z M172.3,61.4h-2V49.8h2V61.4z"/>
			<path class="st1" d="M185.3,55.7c0,1.8-0.4,3.2-1.2,4.3c-0.8,1.1-1.9,1.6-3.3,1.6c-1.4,0-2.5-0.4-3.3-1.3v5.6h-2V49.8h1.8
				l0.1,1.3c0.8-1,1.9-1.5,3.4-1.5c1.4,0,2.5,0.5,3.3,1.6s1.2,2.5,1.2,4.4V55.7z M183.3,55.5c0-1.3-0.3-2.3-0.8-3.1
				s-1.3-1.1-2.3-1.1c-1.2,0-2.1,0.5-2.7,1.6v5.6c0.6,1.1,1.5,1.6,2.7,1.6c1,0,1.7-0.4,2.3-1.1C183,58.1,183.3,57,183.3,55.5z"/>
			<path class="st1" d="M190,61.4h-2V44.9h2V61.4z"/>
			<path class="st1" d="M193.2,46.7c0-0.3,0.1-0.6,0.3-0.8s0.5-0.3,0.9-0.3s0.7,0.1,0.9,0.3c0.2,0.2,0.3,0.5,0.3,0.8
				s-0.1,0.6-0.3,0.8c-0.2,0.2-0.5,0.3-0.9,0.3s-0.7-0.1-0.9-0.3S193.2,47,193.2,46.7z M195.3,61.4h-2V49.8h2V61.4z"/>
			<path class="st1" d="M203.2,60c0.7,0,1.3-0.2,1.9-0.6c0.5-0.4,0.8-1,0.9-1.6h1.9c0,0.7-0.3,1.3-0.7,1.9c-0.4,0.6-1,1.1-1.7,1.4
				s-1.5,0.5-2.2,0.5c-1.6,0-2.8-0.5-3.8-1.6c-0.9-1.1-1.4-2.5-1.4-4.3v-0.3c0-1.1,0.2-2.1,0.6-3c0.4-0.9,1-1.6,1.8-2.1
				s1.7-0.7,2.8-0.7c1.3,0,2.4,0.4,3.2,1.2s1.3,1.8,1.4,3h-1.9c-0.1-0.8-0.3-1.4-0.9-1.9c-0.5-0.5-1.1-0.7-1.9-0.7
				c-1,0-1.8,0.4-2.3,1.1c-0.6,0.7-0.8,1.8-0.8,3.2v0.4c0,1.3,0.3,2.4,0.8,3.1C201.4,59.6,202.1,60,203.2,60z"/>
			<path class="st1" d="M217.2,61.4c-0.1-0.2-0.2-0.6-0.3-1.2c-0.9,1-2,1.4-3.3,1.4c-1.1,0-2.1-0.3-2.8-1c-0.7-0.6-1.1-1.5-1.1-2.5
				c0-1.2,0.5-2.2,1.4-2.8c0.9-0.7,2.2-1,3.9-1h1.9v-0.9c0-0.7-0.2-1.2-0.6-1.7c-0.4-0.4-1-0.6-1.8-0.6c-0.7,0-1.3,0.2-1.8,0.5
				c-0.5,0.4-0.7,0.8-0.7,1.3h-2c0-0.6,0.2-1.1,0.6-1.7c0.4-0.5,1-1,1.7-1.3s1.5-0.5,2.3-0.5c1.3,0,2.4,0.3,3.1,1
				c0.8,0.7,1.2,1.6,1.2,2.8v5.3c0,1.1,0.1,1.9,0.4,2.5v0.2H217.2z M213.9,59.9c0.6,0,1.2-0.2,1.8-0.5s1-0.7,1.2-1.3v-2.4h-1.6
				c-2.4,0-3.7,0.7-3.7,2.1c0,0.6,0.2,1.1,0.6,1.5C212.7,59.7,213.2,59.9,213.9,59.9z"/>
			<path class="st1" d="M221.5,55.5c0-1.8,0.4-3.2,1.3-4.3c0.8-1.1,2-1.6,3.3-1.6c1.4,0,2.4,0.5,3.2,1.4v-6.1h2v16.5h-1.8l-0.1-1.2
				c-0.8,1-1.9,1.5-3.3,1.5c-1.3,0-2.4-0.6-3.3-1.7s-1.3-2.5-1.3-4.3V55.5z M223.5,55.7c0,1.3,0.3,2.3,0.8,3.1
				c0.5,0.7,1.3,1.1,2.3,1.1c1.3,0,2.2-0.6,2.8-1.7v-5.3c-0.6-1.1-1.5-1.6-2.7-1.6c-1,0-1.7,0.4-2.3,1.1
				C223.8,53.1,223.5,54.2,223.5,55.7z"/>
			<path class="st1" d="M233.9,55.5c0-1.1,0.2-2.2,0.7-3.1s1.1-1.6,1.9-2.1s1.7-0.7,2.7-0.7c1.6,0,2.9,0.5,3.8,1.6s1.5,2.6,1.5,4.4
				v0.1c0,1.1-0.2,2.1-0.7,3c-0.4,0.9-1.1,1.6-1.9,2.1s-1.7,0.8-2.8,0.8c-1.6,0-2.9-0.5-3.8-1.6s-1.5-2.5-1.5-4.4V55.5z M235.9,55.7
				c0,1.3,0.3,2.3,0.9,3.1s1.4,1.2,2.4,1.2c1,0,1.8-0.4,2.4-1.2c0.6-0.8,0.9-1.9,0.9-3.3c0-1.3-0.3-2.3-0.9-3.1
				c-0.6-0.8-1.4-1.2-2.4-1.2c-1,0-1.8,0.4-2.4,1.2S235.9,54.2,235.9,55.7z"/>
			<path class="st1" d="M252.6,51.5c-0.3,0-0.6-0.1-1-0.1c-1.3,0-2.2,0.6-2.7,1.7v8.2h-2V49.8h1.9l0,1.3c0.7-1,1.6-1.6,2.8-1.6
				c0.4,0,0.7,0,0.9,0.2V51.5z"/>
		</g>
		<g class="st0">
			<path class="st1" d="M126.1,81c0-1.6,0.2-3.2,0.6-4.7s1.1-2.8,1.9-4.1s1.8-2.1,2.7-2.6l0.4,1.3c-1,0.8-1.9,2-2.6,3.7
				s-1,3.5-1.1,5.5l0,0.9c0,2.8,0.5,5.2,1.5,7.2c0.6,1.2,1.3,2.2,2.2,2.9l-0.4,1.2c-1-0.5-1.9-1.4-2.7-2.7
				C127,87.3,126.1,84.4,126.1,81z"/>
			<path class="st1" d="M135.6,75.8l0.1,1.5c0.9-1.1,2-1.7,3.5-1.7c2.5,0,3.7,1.4,3.7,4.2v7.7h-2v-7.7c0-0.8-0.2-1.5-0.6-1.9
				s-1-0.6-1.8-0.6c-0.6,0-1.2,0.2-1.7,0.5c-0.5,0.3-0.9,0.8-1.1,1.4v8.3h-2V75.8H135.6z"/>
			<path class="st1" d="M153,86.2c-0.8,0.9-1.9,1.4-3.4,1.4c-1.2,0-2.2-0.4-2.8-1.1c-0.6-0.7-1-1.8-1-3.2v-7.6h2v7.5
				c0,1.8,0.7,2.6,2.1,2.6c1.5,0,2.5-0.6,3-1.7v-8.5h2v11.6h-1.9L153,86.2z M151.4,70.9h2.4L151,74l-1.6,0L151.4,70.9z"/>
			<path class="st1" d="M159.9,75.8l0.1,1.3c0.9-1,2-1.5,3.4-1.5c1.6,0,2.7,0.6,3.3,1.9c0.4-0.6,0.9-1,1.5-1.4s1.4-0.5,2.2-0.5
				c2.5,0,3.8,1.3,3.9,4v7.8h-2v-7.7c0-0.8-0.2-1.5-0.6-1.9c-0.4-0.4-1-0.6-1.9-0.6c-0.7,0-1.4,0.2-1.8,0.7c-0.5,0.4-0.8,1-0.8,1.8
				v7.7h-2v-7.6c0-1.7-0.8-2.5-2.5-2.5c-1.3,0-2.2,0.6-2.7,1.7v8.5h-2V75.8H159.9z"/>
			<path class="st1" d="M182.1,87.6c-1.6,0-2.9-0.5-3.8-1.6c-1-1-1.5-2.4-1.5-4.2v-0.4c0-1.2,0.2-2.2,0.7-3.1
				c0.4-0.9,1.1-1.6,1.8-2.1c0.8-0.5,1.6-0.8,2.6-0.8c1.5,0,2.7,0.5,3.5,1.5s1.3,2.4,1.3,4.3v0.8h-7.9c0,1.1,0.4,2.1,1,2.8
				c0.6,0.7,1.5,1.1,2.4,1.1c0.7,0,1.3-0.1,1.8-0.4c0.5-0.3,0.9-0.7,1.3-1.1l1.2,0.9C185.5,86.8,184,87.6,182.1,87.6z M181.9,77.2
				c-0.8,0-1.5,0.3-2,0.9c-0.5,0.6-0.9,1.4-1,2.5h5.8v-0.2c-0.1-1-0.3-1.8-0.8-2.3C183.3,77.4,182.7,77.2,181.9,77.2z"/>
			<path class="st1" d="M194.6,77.5c-0.3,0-0.6-0.1-1-0.1c-1.3,0-2.2,0.6-2.7,1.7v8.2h-2V75.8h1.9l0,1.3c0.7-1,1.6-1.6,2.8-1.6
				c0.4,0,0.7,0,0.9,0.2V77.5z"/>
			<path class="st1" d="M195.6,81.5c0-1.1,0.2-2.2,0.7-3.1s1.1-1.6,1.9-2.1s1.7-0.7,2.7-0.7c1.6,0,2.9,0.5,3.8,1.6s1.5,2.6,1.5,4.4
				v0.1c0,1.1-0.2,2.1-0.7,3c-0.4,0.9-1.1,1.6-1.9,2.1s-1.7,0.8-2.8,0.8c-1.6,0-2.9-0.5-3.8-1.6s-1.5-2.5-1.5-4.4V81.5z M197.6,81.7
				c0,1.3,0.3,2.3,0.9,3.1s1.4,1.2,2.4,1.2c1,0,1.8-0.4,2.4-1.2c0.6-0.8,0.9-1.9,0.9-3.3c0-1.3-0.3-2.3-0.9-3.1
				c-0.6-0.8-1.4-1.2-2.4-1.2c-1,0-1.8,0.4-2.4,1.2S197.6,80.2,197.6,81.7z"/>
			<path class="st1" d="M213.7,81.5c0-1.8,0.4-3.2,1.3-4.3c0.8-1.1,2-1.6,3.3-1.6c1.4,0,2.4,0.5,3.2,1.4v-6.1h2v16.5h-1.8l-0.1-1.2
				c-0.8,1-1.9,1.5-3.3,1.5c-1.3,0-2.4-0.6-3.3-1.7s-1.3-2.5-1.3-4.3V81.5z M215.7,81.7c0,1.3,0.3,2.3,0.8,3.1
				c0.5,0.7,1.3,1.1,2.3,1.1c1.3,0,2.2-0.6,2.8-1.7v-5.3c-0.6-1.1-1.5-1.6-2.7-1.6c-1,0-1.7,0.4-2.3,1.1
				C215.9,79.1,215.7,80.2,215.7,81.7z"/>
			<path class="st1" d="M231.4,87.6c-1.6,0-2.9-0.5-3.8-1.6c-1-1-1.5-2.4-1.5-4.2v-0.4c0-1.2,0.2-2.2,0.7-3.1
				c0.4-0.9,1.1-1.6,1.8-2.1c0.8-0.5,1.6-0.8,2.6-0.8c1.5,0,2.7,0.5,3.5,1.5s1.3,2.4,1.3,4.3v0.8H228c0,1.1,0.4,2.1,1,2.8
				c0.6,0.7,1.5,1.1,2.4,1.1c0.7,0,1.3-0.1,1.8-0.4c0.5-0.3,0.9-0.7,1.3-1.1l1.2,0.9C234.8,86.8,233.3,87.6,231.4,87.6z M231.1,77.2
				c-0.8,0-1.5,0.3-2,0.9c-0.5,0.6-0.9,1.4-1,2.5h5.8v-0.2c-0.1-1-0.3-1.8-0.8-2.3C232.6,77.4,232,77.2,231.1,77.2z"/>
			<path class="st1" d="M248.3,86c0.7,0,1.3-0.2,1.9-0.6c0.5-0.4,0.8-1,0.9-1.6h1.9c0,0.7-0.3,1.3-0.7,1.9c-0.4,0.6-1,1.1-1.7,1.4
				s-1.5,0.5-2.2,0.5c-1.6,0-2.8-0.5-3.8-1.6c-0.9-1.1-1.4-2.5-1.4-4.3v-0.3c0-1.1,0.2-2.1,0.6-3c0.4-0.9,1-1.6,1.8-2.1
				s1.7-0.7,2.8-0.7c1.3,0,2.4,0.4,3.2,1.2s1.3,1.8,1.4,3h-1.9c-0.1-0.8-0.3-1.4-0.9-1.9c-0.5-0.5-1.1-0.7-1.9-0.7
				c-1,0-1.8,0.4-2.3,1.1c-0.6,0.7-0.8,1.8-0.8,3.2v0.4c0,1.3,0.3,2.4,0.8,3.1C246.5,85.6,247.3,86,248.3,86z"/>
			<path class="st1" d="M260,87.6c-1.6,0-2.9-0.5-3.8-1.6c-1-1-1.5-2.4-1.5-4.2v-0.4c0-1.2,0.2-2.2,0.7-3.1c0.4-0.9,1.1-1.6,1.8-2.1
				c0.8-0.5,1.6-0.8,2.6-0.8c1.5,0,2.7,0.5,3.5,1.5s1.3,2.4,1.3,4.3v0.8h-7.9c0,1.1,0.4,2.1,1,2.8c0.6,0.7,1.5,1.1,2.4,1.1
				c0.7,0,1.3-0.1,1.8-0.4c0.5-0.3,0.9-0.7,1.3-1.1l1.2,0.9C263.4,86.8,262,87.6,260,87.6z M259.8,77.2c-0.8,0-1.5,0.3-2,0.9
				c-0.5,0.6-0.9,1.4-1,2.5h5.8v-0.2c-0.1-1-0.3-1.8-0.8-2.3C261.2,77.4,260.6,77.2,259.8,77.2z"/>
			<path class="st1" d="M272.5,77.5c-0.3,0-0.6-0.1-1-0.1c-1.3,0-2.2,0.6-2.7,1.7v8.2h-2V75.8h1.9l0,1.3c0.7-1,1.6-1.6,2.8-1.6
				c0.4,0,0.7,0,0.9,0.2V77.5z"/>
			<path class="st1" d="M273.5,81.5c0-1.1,0.2-2.2,0.7-3.1s1.1-1.6,1.9-2.1s1.7-0.7,2.7-0.7c1.6,0,2.9,0.5,3.8,1.6s1.5,2.6,1.5,4.4
				v0.1c0,1.1-0.2,2.1-0.7,3c-0.4,0.9-1.1,1.6-1.9,2.1s-1.7,0.8-2.8,0.8c-1.6,0-2.9-0.5-3.8-1.6s-1.5-2.5-1.5-4.4V81.5z M275.5,81.7
				c0,1.3,0.3,2.3,0.9,3.1s1.4,1.2,2.4,1.2c1,0,1.8-0.4,2.4-1.2c0.6-0.8,0.9-1.9,0.9-3.3c0-1.3-0.3-2.3-0.9-3.1
				c-0.6-0.8-1.4-1.2-2.4-1.2c-1,0-1.8,0.4-2.4,1.2S275.5,80.2,275.5,81.7z"/>
			<path class="st1" d="M293.4,84.3c0-0.5-0.2-1-0.6-1.3c-0.4-0.3-1.1-0.6-2.1-0.8s-1.8-0.5-2.4-0.8s-1-0.7-1.3-1.1
				s-0.4-0.9-0.4-1.5c0-1,0.4-1.8,1.2-2.4s1.8-1,3.1-1c1.3,0,2.4,0.3,3.2,1s1.2,1.6,1.2,2.6h-2c0-0.5-0.2-1-0.7-1.4s-1-0.6-1.7-0.6
				c-0.7,0-1.3,0.2-1.7,0.5s-0.6,0.7-0.6,1.2c0,0.5,0.2,0.8,0.6,1.1c0.4,0.2,1.1,0.5,2.1,0.7s1.8,0.5,2.4,0.8
				c0.6,0.3,1.1,0.7,1.4,1.1c0.3,0.4,0.4,1,0.4,1.6c0,1-0.4,1.9-1.2,2.5c-0.8,0.6-1.9,0.9-3.2,0.9c-0.9,0-1.8-0.2-2.5-0.5
				c-0.7-0.3-1.3-0.8-1.7-1.4c-0.4-0.6-0.6-1.2-0.6-1.9h2c0,0.7,0.3,1.2,0.8,1.6c0.5,0.4,1.2,0.6,2,0.6c0.8,0,1.4-0.2,1.8-0.5
				C293.2,85.2,293.4,84.8,293.4,84.3z"/>
			<path class="st1" d="M302.5,81.1c0,1.6-0.2,3.1-0.6,4.6c-0.4,1.5-1.1,2.8-1.9,4.1s-1.8,2.1-2.7,2.6l-0.4-1.2
				c1.1-0.8,2-2.2,2.7-3.9c0.7-1.8,1-3.8,1-5.9V81c0-1.5-0.2-2.9-0.5-4.2c-0.3-1.3-0.8-2.5-1.3-3.5s-1.2-1.8-1.9-2.4l0.4-1.2
				c0.9,0.5,1.8,1.4,2.7,2.6s1.5,2.6,1.9,4S302.5,79.4,302.5,81.1z"/>
		</g>
		<g class="st0">
			<path class="st1" d="M-25.5,290.1h-10.2v-1.4l5.4-6c0.8-0.9,1.4-1.6,1.7-2.2c0.3-0.6,0.5-1.2,0.5-1.8c0-0.8-0.2-1.5-0.7-2
				s-1.2-0.8-2-0.8c-1,0-1.8,0.3-2.3,0.8c-0.5,0.6-0.8,1.3-0.8,2.3h-2c0-1.4,0.5-2.6,1.4-3.5c0.9-0.9,2.2-1.3,3.7-1.3
				c1.5,0,2.6,0.4,3.4,1.1c0.8,0.8,1.3,1.8,1.3,3c0,1.5-1,3.4-2.9,5.5l-4.2,4.5h7.9V290.1z"/>
			<path class="st1" d="M-13.5,283.5c0,2.3-0.4,4.1-1.2,5.2s-2,1.7-3.7,1.7c-1.7,0-2.9-0.6-3.7-1.7c-0.8-1.1-1.2-2.8-1.2-5v-2.7
				c0-2.3,0.4-4,1.2-5.1s2-1.7,3.7-1.7c1.7,0,2.9,0.5,3.7,1.6c0.8,1.1,1.2,2.7,1.2,5V283.5z M-15.5,280.8c0-1.7-0.2-2.9-0.7-3.7
				c-0.5-0.8-1.2-1.2-2.2-1.2c-1,0-1.8,0.4-2.2,1.1c-0.5,0.8-0.7,1.9-0.7,3.5v3.2c0,1.7,0.2,2.9,0.7,3.7c0.5,0.8,1.2,1.2,2.2,1.2
				c1,0,1.7-0.4,2.2-1.1c0.5-0.8,0.7-2,0.7-3.6V280.8z"/>
			<path class="st1" d="M0.4,281.7h4.4v1.9H0.4v4.9h-2v-4.9H-6v-1.9h4.4v-4.6h2V281.7z"/>
			<path class="st1" d="M22.2,283.5c0,2.3-0.4,4.1-1.2,5.2s-2,1.7-3.7,1.7c-1.7,0-2.9-0.6-3.7-1.7c-0.8-1.1-1.2-2.8-1.2-5v-2.7
				c0-2.3,0.4-4,1.2-5.1s2-1.7,3.7-1.7c1.7,0,2.9,0.5,3.7,1.6c0.8,1.1,1.2,2.7,1.2,5V283.5z M20.2,280.8c0-1.7-0.2-2.9-0.7-3.7
				c-0.5-0.8-1.2-1.2-2.2-1.2c-1,0-1.8,0.4-2.2,1.1c-0.5,0.8-0.7,1.9-0.7,3.5v3.2c0,1.7,0.2,2.9,0.7,3.7c0.5,0.8,1.2,1.2,2.2,1.2
				c1,0,1.7-0.4,2.2-1.1c0.5-0.8,0.7-2,0.7-3.6V280.8z"/>
			<path class="st1" d="M34.5,283.5c0,2.3-0.4,4.1-1.2,5.2s-2,1.7-3.7,1.7c-1.7,0-2.9-0.6-3.7-1.7c-0.8-1.1-1.2-2.8-1.2-5v-2.7
				c0-2.3,0.4-4,1.2-5.1s2-1.7,3.7-1.7c1.7,0,2.9,0.5,3.7,1.6c0.8,1.1,1.2,2.7,1.2,5V283.5z M32.5,280.8c0-1.7-0.2-2.9-0.7-3.7
				c-0.5-0.8-1.2-1.2-2.2-1.2c-1,0-1.8,0.4-2.2,1.1c-0.5,0.8-0.7,1.9-0.7,3.5v3.2c0,1.7,0.2,2.9,0.7,3.7c0.5,0.8,1.2,1.2,2.2,1.2
				c1,0,1.7-0.4,2.2-1.1c0.5-0.8,0.7-2,0.7-3.6V280.8z"/>
			<path class="st1" d="M46.9,283.5c0,2.3-0.4,4.1-1.2,5.2s-2,1.7-3.7,1.7c-1.7,0-2.9-0.6-3.7-1.7c-0.8-1.1-1.2-2.8-1.2-5v-2.7
				c0-2.3,0.4-4,1.2-5.1s2-1.7,3.7-1.7c1.7,0,2.9,0.5,3.7,1.6c0.8,1.1,1.2,2.7,1.2,5V283.5z M44.9,280.8c0-1.7-0.2-2.9-0.7-3.7
				c-0.5-0.8-1.2-1.2-2.2-1.2c-1,0-1.8,0.4-2.2,1.1c-0.5,0.8-0.7,1.9-0.7,3.5v3.2c0,1.7,0.2,2.9,0.7,3.7c0.5,0.8,1.2,1.2,2.2,1.2
				c1,0,1.7-0.4,2.2-1.1c0.5-0.8,0.7-2,0.7-3.6V280.8z"/>
			<path class="st1" d="M59.2,283.5c0,2.3-0.4,4.1-1.2,5.2s-2,1.7-3.7,1.7c-1.7,0-2.9-0.6-3.7-1.7c-0.8-1.1-1.2-2.8-1.2-5v-2.7
				c0-2.3,0.4-4,1.2-5.1s2-1.7,3.7-1.7c1.7,0,2.9,0.5,3.7,1.6c0.8,1.1,1.2,2.7,1.2,5V283.5z M57.3,280.8c0-1.7-0.2-2.9-0.7-3.7
				c-0.5-0.8-1.2-1.2-2.2-1.2c-1,0-1.8,0.4-2.2,1.1c-0.5,0.8-0.7,1.9-0.7,3.5v3.2c0,1.7,0.2,2.9,0.7,3.7c0.5,0.8,1.2,1.2,2.2,1.2
				c1,0,1.7-0.4,2.2-1.1c0.5-0.8,0.7-2,0.7-3.6V280.8z"/>
			<path class="st1" d="M71.6,283.5c0,2.3-0.4,4.1-1.2,5.2s-2,1.7-3.7,1.7c-1.7,0-2.9-0.6-3.7-1.7c-0.8-1.1-1.2-2.8-1.2-5v-2.7
				c0-2.3,0.4-4,1.2-5.1s2-1.7,3.7-1.7c1.7,0,2.9,0.5,3.7,1.6c0.8,1.1,1.2,2.7,1.2,5V283.5z M69.6,280.8c0-1.7-0.2-2.9-0.7-3.7
				c-0.5-0.8-1.2-1.2-2.2-1.2c-1,0-1.8,0.4-2.2,1.1c-0.5,0.8-0.7,1.9-0.7,3.5v3.2c0,1.7,0.2,2.9,0.7,3.7c0.5,0.8,1.2,1.2,2.2,1.2
				c1,0,1.7-0.4,2.2-1.1c0.5-0.8,0.7-2,0.7-3.6V280.8z"/>
			<path class="st1" d="M88.9,281.4h-9v-1.7h9V281.4z M88.9,285.9h-9v-1.7h9V285.9z"/>
			<path class="st1" d="M107.4,290.1H97.1v-1.4l5.4-6c0.8-0.9,1.4-1.6,1.7-2.2c0.3-0.6,0.5-1.2,0.5-1.8c0-0.8-0.2-1.5-0.7-2
				s-1.2-0.8-2-0.8c-1,0-1.8,0.3-2.3,0.8c-0.5,0.6-0.8,1.3-0.8,2.3h-2c0-1.4,0.5-2.6,1.4-3.5c0.9-0.9,2.2-1.3,3.7-1.3
				c1.5,0,2.6,0.4,3.4,1.1c0.8,0.8,1.3,1.8,1.3,3c0,1.5-1,3.4-2.9,5.5l-4.2,4.5h7.9V290.1z"/>
			<path class="st1" d="M109.7,289.1c0-0.3,0.1-0.6,0.3-0.9c0.2-0.2,0.5-0.3,0.9-0.3s0.7,0.1,0.9,0.3c0.2,0.2,0.3,0.5,0.3,0.9
				c0,0.3-0.1,0.6-0.3,0.8c-0.2,0.2-0.5,0.3-0.9,0.3s-0.7-0.1-0.9-0.3C109.8,289.7,109.7,289.4,109.7,289.1z"/>
			<path class="st1" d="M125.1,283.5c0,2.3-0.4,4.1-1.2,5.2s-2,1.7-3.7,1.7c-1.7,0-2.9-0.6-3.7-1.7c-0.8-1.1-1.2-2.8-1.2-5v-2.7
				c0-2.3,0.4-4,1.2-5.1s2-1.7,3.7-1.7c1.7,0,2.9,0.5,3.7,1.6c0.8,1.1,1.2,2.7,1.2,5V283.5z M123.1,280.8c0-1.7-0.2-2.9-0.7-3.7
				c-0.5-0.8-1.2-1.2-2.2-1.2c-1,0-1.8,0.4-2.2,1.1c-0.5,0.8-0.7,1.9-0.7,3.5v3.2c0,1.7,0.2,2.9,0.7,3.7c0.5,0.8,1.2,1.2,2.2,1.2
				c1,0,1.7-0.4,2.2-1.1c0.5-0.8,0.7-2,0.7-3.6V280.8z"/>
			<path class="st1" d="M137.4,283.5c0,2.3-0.4,4.1-1.2,5.2s-2,1.7-3.7,1.7c-1.7,0-2.9-0.6-3.7-1.7c-0.8-1.1-1.2-2.8-1.2-5v-2.7
				c0-2.3,0.4-4,1.2-5.1s2-1.7,3.7-1.7c1.7,0,2.9,0.5,3.7,1.6c0.8,1.1,1.2,2.7,1.2,5V283.5z M135.4,280.8c0-1.7-0.2-2.9-0.7-3.7
				c-0.5-0.8-1.2-1.2-2.2-1.2c-1,0-1.8,0.4-2.2,1.1c-0.5,0.8-0.7,1.9-0.7,3.5v3.2c0,1.7,0.2,2.9,0.7,3.7c0.5,0.8,1.2,1.2,2.2,1.2
				c1,0,1.7-0.4,2.2-1.1c0.5-0.8,0.7-2,0.7-3.6V280.8z"/>
			<path class="st1" d="M149.8,283.5c0,2.3-0.4,4.1-1.2,5.2s-2,1.7-3.7,1.7c-1.7,0-2.9-0.6-3.7-1.7c-0.8-1.1-1.2-2.8-1.2-5v-2.7
				c0-2.3,0.4-4,1.2-5.1s2-1.7,3.7-1.7c1.7,0,2.9,0.5,3.7,1.6c0.8,1.1,1.2,2.7,1.2,5V283.5z M147.8,280.8c0-1.7-0.2-2.9-0.7-3.7
				c-0.5-0.8-1.2-1.2-2.2-1.2c-1,0-1.8,0.4-2.2,1.1c-0.5,0.8-0.7,1.9-0.7,3.5v3.2c0,1.7,0.2,2.9,0.7,3.7c0.5,0.8,1.2,1.2,2.2,1.2
				c1,0,1.7-0.4,2.2-1.1c0.5-0.8,0.7-2,0.7-3.6V280.8z"/>
			<path class="st1" d="M152.6,289.1c0-0.3,0.1-0.6,0.3-0.9c0.2-0.2,0.5-0.3,0.9-0.3s0.7,0.1,0.9,0.3s0.3,0.5,0.3,0.9
				c0,0.3-0.1,0.6-0.3,0.8s-0.5,0.3-0.9,0.3s-0.7-0.1-0.9-0.3C152.7,289.7,152.6,289.4,152.6,289.1z"/>
			<path class="st1" d="M167.9,283.5c0,2.3-0.4,4.1-1.2,5.2s-2,1.7-3.7,1.7c-1.7,0-2.9-0.6-3.7-1.7c-0.8-1.1-1.2-2.8-1.2-5v-2.7
				c0-2.3,0.4-4,1.2-5.1s2-1.7,3.7-1.7c1.7,0,2.9,0.5,3.7,1.6c0.8,1.1,1.2,2.7,1.2,5V283.5z M165.9,280.8c0-1.7-0.2-2.9-0.7-3.7
				c-0.5-0.8-1.2-1.2-2.2-1.2c-1,0-1.8,0.4-2.2,1.1s-0.7,1.9-0.7,3.5v3.2c0,1.7,0.2,2.9,0.7,3.7c0.5,0.8,1.2,1.2,2.2,1.2
				c1,0,1.7-0.4,2.2-1.1s0.7-2,0.7-3.6V280.8z"/>
			<path class="st1" d="M180.3,283.5c0,2.3-0.4,4.1-1.2,5.2s-2,1.7-3.7,1.7c-1.7,0-2.9-0.6-3.7-1.7c-0.8-1.1-1.2-2.8-1.2-5v-2.7
				c0-2.3,0.4-4,1.2-5.1s2-1.7,3.7-1.7c1.7,0,2.9,0.5,3.7,1.6c0.8,1.1,1.2,2.7,1.2,5V283.5z M178.3,280.8c0-1.7-0.2-2.9-0.7-3.7
				c-0.5-0.8-1.2-1.2-2.2-1.2c-1,0-1.8,0.4-2.2,1.1s-0.7,1.9-0.7,3.5v3.2c0,1.7,0.2,2.9,0.7,3.7c0.5,0.8,1.2,1.2,2.2,1.2
				c1,0,1.7-0.4,2.2-1.1s0.7-2,0.7-3.6V280.8z"/>
			<path class="st1" d="M192.6,283.5c0,2.3-0.4,4.1-1.2,5.2s-2,1.7-3.7,1.7c-1.7,0-2.9-0.6-3.7-1.7c-0.8-1.1-1.2-2.8-1.2-5v-2.7
				c0-2.3,0.4-4,1.2-5.1s2-1.7,3.7-1.7c1.7,0,2.9,0.5,3.7,1.6c0.8,1.1,1.2,2.7,1.2,5V283.5z M190.6,280.8c0-1.7-0.2-2.9-0.7-3.7
				c-0.5-0.8-1.2-1.2-2.2-1.2c-1,0-1.8,0.4-2.2,1.1s-0.7,1.9-0.7,3.5v3.2c0,1.7,0.2,2.9,0.7,3.7c0.5,0.8,1.2,1.2,2.2,1.2
				c1,0,1.7-0.4,2.2-1.1s0.7-2,0.7-3.6V280.8z"/>
		</g>
	</g>
	<g id="Layer_5" transform="translate(1433.987 2318.871)">
		<g id="Grupo_72867" transform="translate(0 18.618)">
			<g id="Grupo_72849" transform="translate(10.787 6.057)">
				<path id="Trazado_144139" class="st2" d="M65.4,0.5c-0.1,0-0.1-0.1-0.2-0.1s-0.1-0.1-0.2-0.1s-0.1-0.1-0.2-0.1s-0.1,0-0.2-0.1
					l-0.1,0l0,0l-0.1,0c-0.1,0-0.1,0-0.2,0s-0.1,0-0.2,0S64,0,64,0s-0.1,0-0.2,0h-0.1c-0.1,0-0.1,0-0.2,0c-0.1,0-0.2,0-0.2,0
					c-0.1,0-0.2,0-0.3,0c0,0,0,0-0.1,0l-0.1,0c-0.1,0-0.1,0-0.2,0.1c-0.2,0.1-0.3,0.1-0.5,0.2l-60,34.9c0.1,0,0.1,0,0.2-0.1
					C1,35.9,0.1,37.7,0,40.4l0,15.3c0.3,4.9,2.9,9.5,7,12.2l60-34.9l0-2.3c-0.4-0.2-0.7-0.4-1-0.7l0,0c-0.3-0.3-0.6-0.6-0.9-0.9l0,0
					c-0.3-0.3-0.6-0.7-0.8-1l0,0c-0.3-0.4-0.5-0.7-0.7-1.1l0,0c-0.2-0.4-0.4-0.8-0.6-1.2v0c-0.2-0.4-0.3-0.8-0.5-1.2v0
					c-0.1-0.4-0.2-0.8-0.3-1.2v0C62.1,22.9,62,22.4,62,22l0-12L70,5.4l0-2.3l-4.4-2.6L65.4,0.5z M2.9,35C2.9,35,2.9,35,2.9,35
					c0.2,0,0.2,0,0.3,0C3,35,2.8,35,2.6,35.1C2.7,35,2.8,35,2.9,35L2.9,35z M2.1,40.5L2.1,40.5L2.1,40.5z M2.3,39.5L2.3,39.5
					L2.3,39.5z M2.6,38.8c0,0,0-0.1,0.1-0.1C2.7,38.7,2.7,38.8,2.6,38.8L2.6,38.8z M3,38.2c0.2-0.2,0.3-0.4,0.6-0.5
					C3.4,37.8,3.2,38,3,38.2L3,38.2z M3.6,37.7L3.6,37.7z M3.5,34.9c0.1,0,0.1,0,0.2,0h0c0.2,0,0.3,0,0.5,0.1
					C4,34.9,3.7,34.9,3.5,34.9L3.5,34.9z M4.5,35C4.5,35,4.5,35,4.5,35l0.1,0c0.3,0.1,0.6,0.2,0.9,0.4C5.2,35.3,4.8,35.1,4.5,35
					L4.5,35z"/>
				<g id="Grupo_72848">
					<g id="Grupo_72847">
						<g id="Grupo_72833" transform="translate(7.028 30.717)">
							<path id="Trazado_144140" class="st3" d="M0,37.2L60,2.3L60,0L0,34.9L0,37.2z"/>
						</g>
						<g id="Grupo_72836" transform="translate(2.012 22.039)">
							<g>
								<defs>
									<path id="SVGID_1_" d="M0,34.9L60,0c0.2,3.5,2.1,6.8,5,8.7L5,43.6C2.1,41.6,0.2,38.4,0,34.9z"/>
								</defs>
								<clipPath id="SVGID_2_">
									<use xlink:href="#SVGID_1_"  style="overflow:visible;"/>
								</clipPath>
								<g id="Grupo_72835" class="st4">
									<g id="Grupo_72834" transform="translate(-0.001 0)">
										<path id="Trazado_144141" class="st5" d="M0,34.9C0,35,0,35,0,35.1L60,0.2c0-0.1,0-0.1,0-0.2L0,34.9z"/>
										<path id="Trazado_144142" class="st6" d="M0,35.1c0,0.1,0,0.2,0,0.2L60,0.5c0-0.1,0-0.2,0-0.2L0,35.1z"/>
										<path id="Trazado_144143" class="st7" d="M0,35.4c0,0.1,0,0.2,0,0.2l60-34.9c0-0.1,0-0.2,0-0.2L0,35.4z"/>
										<path id="Trazado_144144" class="st8" d="M0,35.6c0,0.1,0,0.2,0,0.2L60.1,1c0-0.1,0-0.2,0-0.2L0,35.6z"/>
										<path id="Trazado_144145" class="st9" d="M0.1,35.8c0,0.1,0,0.2,0,0.3l60-34.9c0-0.1,0-0.2,0-0.3L0.1,35.8z"/>
										<path id="Trazado_144146" class="st10" d="M0.1,36.1c0,0.1,0,0.2,0,0.3l60-34.9c0-0.1,0-0.2,0-0.3L0.1,36.1z"/>
										<path id="Trazado_144147" class="st11" d="M0.1,36.3c0,0.1,0,0.2,0.1,0.3l60-34.9c0-0.1,0-0.2-0.1-0.3L0.1,36.3z"/>
										<path id="Trazado_144148" class="st12" d="M0.2,36.6c0,0.1,0,0.2,0.1,0.3L60.3,2c0-0.1,0-0.2-0.1-0.3L0.2,36.6z"/>
										<path id="Trazado_144149" class="st13" d="M0.3,36.9c0,0.1,0,0.2,0.1,0.3l60-34.9c0-0.1,0-0.2-0.1-0.3L0.3,36.9z"/>
										<path id="Trazado_144150" class="st14" d="M0.3,37.1c0,0.1,0.1,0.2,0.1,0.3l60-34.9c0-0.1-0.1-0.2-0.1-0.3L0.3,37.1z"/>
										<path id="Trazado_144151" class="st15" d="M0.4,37.4c0,0.1,0.1,0.2,0.1,0.3l60-34.9c0-0.1-0.1-0.2-0.1-0.3L0.4,37.4z"/>
										<path id="Trazado_144152" class="st16" d="M0.5,37.7c0,0.1,0.1,0.2,0.1,0.3L60.6,3c0-0.1-0.1-0.2-0.1-0.3L0.5,37.7z"/>
										<path id="Trazado_144153" class="st17" d="M0.6,37.9c0,0.1,0.1,0.2,0.1,0.2l60-34.9c0-0.1-0.1-0.2-0.1-0.2L0.6,37.9z"/>
										<path id="Trazado_144154" class="st18" d="M0.7,38.2c0,0.1,0.1,0.2,0.1,0.2l60-34.9c0-0.1-0.1-0.2-0.1-0.2L0.7,38.2z"/>
										<path id="Trazado_144155" class="st19" d="M0.8,38.4c0,0.1,0.1,0.2,0.1,0.2l60-34.9c0-0.1-0.1-0.2-0.1-0.2L0.8,38.4z"/>
										<path id="Trazado_144156" class="st19" d="M0.9,38.6c0,0.1,0.1,0.2,0.1,0.2L61,4c0-0.1-0.1-0.2-0.1-0.2L0.9,38.6z"/>
										<path id="Trazado_144157" class="st19" d="M1,38.9c0,0.1,0.1,0.2,0.1,0.3l60-34.9C61.1,4.2,61,4.1,61,4L1,38.9z"/>
										<path id="Trazado_144158" class="st19" d="M1.1,39.1c0,0.1,0.1,0.2,0.2,0.3l60-34.9c-0.1-0.1-0.1-0.2-0.2-0.3L1.1,39.1z"
											/>
										<path id="Trazado_144159" class="st19" d="M1.3,39.4c0.1,0.1,0.2,0.3,0.2,0.4L61.5,5c-0.1-0.1-0.2-0.3-0.2-0.4L1.3,39.4z"
											/>
										<path id="Trazado_144160" class="st19" d="M1.5,39.9c0.1,0.2,0.3,0.4,0.4,0.6l60-34.9c-0.1-0.2-0.3-0.4-0.4-0.6L1.5,39.9z
											"/>
										<path id="Trazado_144161" class="st19" d="M1.9,40.5c0.1,0.2,0.2,0.3,0.3,0.5l60-34.9c-0.1-0.1-0.2-0.3-0.3-0.5L1.9,40.5z
											"/>
										<path id="Trazado_144162" class="st19" d="M2.2,40.9c0.1,0.1,0.1,0.2,0.2,0.3l60-34.9c-0.1-0.1-0.1-0.2-0.2-0.3L2.2,40.9z
											"/>
										<path id="Trazado_144163" class="st19" d="M2.4,41.2c0.1,0.1,0.1,0.2,0.2,0.2l60-34.9c-0.1-0.1-0.1-0.2-0.2-0.2L2.4,41.2z
											"/>
										<path id="Trazado_144164" class="st19" d="M2.6,41.5c0.1,0.1,0.1,0.2,0.2,0.2l60-34.9c-0.1-0.1-0.1-0.2-0.2-0.2L2.6,41.5z
											"/>
										<path id="Trazado_144165" class="st19" d="M2.8,41.7C2.9,41.8,3,41.9,3,41.9L63,7C63,7,62.9,6.9,62.8,6.8L2.8,41.7z"/>
										<path id="Trazado_144166" class="st18" d="M3,41.9c0.1,0.1,0.1,0.1,0.2,0.2l60-34.9C63.2,7.2,63.1,7.1,63,7L3,41.9z"/>
										<path id="Trazado_144167" class="st17" d="M3.2,42.1c0.1,0.1,0.1,0.1,0.2,0.2l60-34.9c-0.1-0.1-0.1-0.1-0.2-0.2L3.2,42.1z
											"/>
										<path id="Trazado_144168" class="st16" d="M3.4,42.4c0.1,0.1,0.1,0.1,0.2,0.2l60-34.9c-0.1-0.1-0.1-0.1-0.2-0.2L3.4,42.4z
											"/>
										<path id="Trazado_144169" class="st15" d="M3.7,42.6c0.1,0.1,0.1,0.1,0.2,0.2l60-34.9c-0.1-0.1-0.2-0.1-0.2-0.2L3.7,42.6z
											"/>
										<path id="Trazado_144170" class="st14" d="M3.9,42.8C4,42.8,4,42.9,4.1,42.9l60-34.9C64.1,8,64,7.9,63.9,7.9L3.9,42.8z"/>
										<path id="Trazado_144171" class="st13" d="M4.1,42.9c0.1,0.1,0.1,0.1,0.2,0.2l60-34.9c-0.1-0.1-0.1-0.1-0.2-0.2L4.1,42.9z
											"/>
										<path id="Trazado_144172" class="st12" d="M4.3,43.1c0.1,0.1,0.1,0.1,0.2,0.2l60-34.9c-0.1-0.1-0.1-0.1-0.2-0.2L4.3,43.1z
											"/>
										<path id="Trazado_144173" class="st11" d="M4.5,43.3c0.1,0,0.1,0.1,0.2,0.1l60-34.9c-0.1,0-0.1-0.1-0.2-0.1L4.5,43.3z"/>
										<path id="Trazado_144174" class="st10" d="M4.8,43.4c0.1,0,0.1,0.1,0.2,0.1L65,8.6c-0.1,0-0.1-0.1-0.2-0.1L4.8,43.4z"/>
										<path id="Trazado_144175" class="st9" d="M5,43.5L5,43.5L65.1,8.7l0,0L5,43.5z"/>
									</g>
								</g>
							</g>
						</g>
						<g id="Grupo_72837" transform="translate(2.011 6.709)">
							<path id="Trazado_144177" class="st3" d="M0,50.2l60-34.9l0-15.3L0,34.9L0,50.2z"/>
						</g>
						<g id="Grupo_72840" transform="translate(2.055 2.813)">
							<g>
								<defs>
									<path id="SVGID_3_" d="M1.5,34.9L61.6,0C60.7,0.5,60,1.9,60,3.9L0,38.8C0,36.8,0.6,35.4,1.5,34.9z"/>
								</defs>
								<clipPath id="SVGID_4_">
									<use xlink:href="#SVGID_3_"  style="overflow:visible;"/>
								</clipPath>
								<g id="Grupo_72839" class="st20">
									<g id="Grupo_72838">
										<path id="Trazado_144178" class="st21" d="M0.7,35.7l60-34.9C61,0.5,61.2,0.2,61.6,0l-60,34.9C1.2,35.1,0.9,35.4,0.7,35.7
											z"/>
										<path id="Trazado_144179" class="st22" d="M0.5,36.1l60-34.9c0.1-0.1,0.1-0.3,0.2-0.4l-60,34.9
											C0.7,35.8,0.6,35.9,0.5,36.1z"/>
										<path id="Trazado_144180" class="st23" d="M0.4,36.4l60-34.9c0-0.1,0.1-0.2,0.1-0.4l-60,34.9C0.5,36.2,0.4,36.3,0.4,36.4z
											"/>
										<path id="Trazado_144181" class="st24" d="M0.3,36.8l60-34.9c0-0.1,0.1-0.2,0.1-0.3l-60,34.9C0.3,36.5,0.3,36.7,0.3,36.8z
											"/>
										<path id="Trazado_144182" class="st25" d="M0.2,37.1l60-34.9c0-0.1,0.1-0.2,0.1-0.3l-60,34.9C0.2,36.9,0.2,37,0.2,37.1z"
											/>
										<path id="Trazado_144183" class="st26" d="M0.1,37.4l60-34.9c0-0.1,0-0.2,0.1-0.3l-60,34.9C0.2,37.2,0.1,37.3,0.1,37.4z"
											/>
										<path id="Trazado_144184" class="st27" d="M0.1,37.8l60-34.9c0-0.1,0-0.2,0-0.3l-60,34.9C0.1,37.5,0.1,37.7,0.1,37.8z"/>
										<path id="Trazado_144185" class="st28" d="M0,38.1l60-34.9c0-0.1,0-0.2,0-0.3l-60,34.9C0,37.9,0,38,0,38.1z"/>
										<path id="Trazado_144186" class="st29" d="M0,38.4L60,3.5c0-0.1,0-0.2,0-0.3L0,38.1C0,38.2,0,38.3,0,38.4z"/>
										<path id="Trazado_144187" class="st30" d="M0,38.8L60,3.9c0-0.1,0-0.2,0-0.3L0,38.4C0,38.5,0,38.6,0,38.8z"/>
										<path id="Trazado_144188" class="st5" d="M0,38.8L60,3.9v0L0,38.8L0,38.8z"/>
									</g>
								</g>
							</g>
						</g>
						<g id="Grupo_72843" transform="translate(2.168)">
							<g>
								<defs>
									<path id="SVGID_5_" d="M0,35.3L60,0.4c1.1-0.6,2.4-0.5,3.3,0.2l-60,34.9C2.4,34.8,1.1,34.7,0,35.3z"/>
								</defs>
								<clipPath id="SVGID_6_">
									<use xlink:href="#SVGID_5_"  style="overflow:visible;"/>
								</clipPath>
								<g id="Grupo_72842" class="st31">
									<g id="Grupo_72841" transform="translate(-0.001 0)">
										<path id="Trazado_144190" class="st21" d="M0,35.3c0.2-0.1,0.3-0.2,0.5-0.2l60-34.9c-0.2,0.1-0.3,0.1-0.5,0.2L0,35.3z"/>
										<path id="Trazado_144191" class="st22" d="M0.5,35c0.1,0,0.2-0.1,0.4-0.1l60-34.9c-0.1,0-0.2,0.1-0.4,0.1L0.5,35z"/>
										<path id="Trazado_144192" class="st23" d="M0.8,34.9c0.1,0,0.2,0,0.3,0L61.1,0c-0.1,0-0.2,0-0.3,0L0.8,34.9z"/>
										<path id="Trazado_144193" class="st24" d="M1.1,34.9c0.1,0,0.2,0,0.2,0L61.4,0c-0.1,0-0.2,0-0.2,0L1.1,34.9z"/>
										<path id="Trazado_144194" class="st25" d="M1.4,34.9c0.1,0,0.2,0,0.2,0L61.6,0c-0.1,0-0.2,0-0.2,0L1.4,34.9z"/>
										<path id="Trazado_144195" class="st26" d="M1.6,34.9c0.1,0,0.1,0,0.2,0L61.8,0c-0.1,0-0.1,0-0.2,0L1.6,34.9z"/>
										<path id="Trazado_144196" class="st27" d="M1.8,34.9c0.1,0,0.1,0,0.2,0L62,0.1c-0.1,0-0.1,0-0.2,0L1.8,34.9z"/>
										<path id="Trazado_144197" class="st28" d="M2,34.9c0.1,0,0.1,0,0.2,0l60-34.9c-0.1,0-0.1,0-0.2,0L2,34.9z"/>
										<path id="Trazado_144198" class="st29" d="M2.2,35c0.1,0,0.1,0,0.2,0l60-34.9c-0.1,0-0.1,0-0.2,0L2.2,35z"/>
										<path id="Trazado_144199" class="st30" d="M2.3,35c0.1,0,0.1,0,0.2,0.1l60-34.9c-0.1,0-0.1,0-0.2-0.1L2.3,35z"/>
										<path id="Trazado_144200" class="st5" d="M2.5,35.1c0.1,0,0.1,0,0.2,0.1l60-34.9c-0.1,0-0.1,0-0.2-0.1L2.5,35.1z"/>
										<path id="Trazado_144201" class="st6" d="M2.7,35.2c0.1,0,0.1,0,0.2,0.1l60-34.9c-0.1,0-0.1-0.1-0.2-0.1L2.7,35.2z"/>
										<path id="Trazado_144202" class="st7" d="M2.9,35.2c0.1,0,0.1,0.1,0.2,0.1l60-34.9c-0.1,0-0.1-0.1-0.2-0.1L2.9,35.2z"/>
										<path id="Trazado_144203" class="st8" d="M3,35.3c0.1,0,0.1,0.1,0.2,0.1l60-34.9c-0.1,0-0.1-0.1-0.2-0.1L3,35.3z"/>
										<path id="Trazado_144204" class="st9" d="M3.2,35.4l0.1,0.1l60-34.9l-0.1-0.1L3.2,35.4z"/>
									</g>
								</g>
							</g>
						</g>
						<g id="Grupo_72844" transform="translate(9.92 3.138)">
							<path id="Trazado_144206" class="st3" d="M0,37.2L60,2.3L60,0L0,34.9L0,37.2z"/>
						</g>
						<g id="Grupo_72845" transform="translate(5.503 0.584)">
							<path id="Trazado_144207" class="st32" d="M0,34.9l4.4,2.6l60-34.9L60,0L0,34.9z"/>
						</g>
						<g id="Grupo_72846" transform="translate(0 34.885)">
							<path id="Trazado_144208" class="st2" d="M0,5.5l0,15.3c0.3,4.9,2.9,9.5,7,12.2l0-2.3c-3-1.9-4.8-5.1-5-8.7l0-15.3
								c0-3.1,1.6-4.9,3.4-3.8l4.4,2.6l0-2.3L5.5,0.6C2.5-1.1,0.1,1.1,0,5.5z"/>
						</g>
					</g>
				</g>
			</g>
			<g id="Grupo_72851">
				<path id="Trazado_144209" class="st33" d="M100.1,0L0,58.1V109l181,104.5l100.1-58.1v-50.8L100.1,0z"/>
				<g id="Grupo_72850" transform="translate(0)">
					<path id="Trazado_144210" class="st34" d="M181,162.7v50.8l100.1-58.1v-50.8L181,162.7z"/>
					<path id="Trazado_144211" class="st35" d="M100.1,0L0,58.1l181,104.5l100.1-58.1L100.1,0z"/>
					<path id="Trazado_144212" class="st33" d="M0,58.1V109l181,104.5v-50.8L0,58.1z"/>
				</g>
			</g>
			<g id="Grupo_72866" transform="translate(199.614 136.831)">
				<path id="Trazado_144213" class="st2" d="M69.8,13c0-0.1,0-0.3,0-0.4s0-0.3,0-0.4v0v0c0-0.1,0-0.3-0.1-0.4s0-0.3-0.1-0.4
					s-0.1-0.3-0.1-0.4c0-0.1-0.1-0.2-0.1-0.3c0,0,0,0,0,0s0,0,0-0.1c0-0.1-0.1-0.3-0.1-0.4c0-0.1-0.1-0.3-0.1-0.4s-0.1-0.3-0.1-0.4
					C69,9,69,8.9,69,8.8l0,0c0,0,0,0,0-0.1c0-0.1-0.1-0.2-0.1-0.4S68.7,8.1,68.7,8c0-0.1-0.1-0.2-0.1-0.3s-0.1-0.2-0.1-0.3
					c0,0,0-0.1-0.1-0.1l0,0L68.2,7c-0.1-0.1-0.1-0.2-0.2-0.4c-0.1-0.2-0.2-0.4-0.3-0.5c-0.1-0.1-0.1-0.2-0.2-0.3
					c0-0.1-0.1-0.1-0.1-0.2c-0.1-0.1-0.1-0.2-0.2-0.3C67.2,5.2,67,5,66.9,4.9c-0.1-0.1-0.1-0.2-0.2-0.3c-0.1-0.1-0.1-0.1-0.2-0.2
					l0,0c0,0,0,0,0,0c-0.1-0.1-0.1-0.1-0.2-0.2S66.2,4,66.2,4C66.1,3.9,66,3.8,66,3.8s-0.1-0.1-0.2-0.2s-0.1-0.1-0.2-0.2l0,0l0,0
					c0,0-0.1-0.1-0.1-0.1c-0.1-0.1-0.1-0.1-0.2-0.2S65.1,3,65,2.9s-0.1-0.1-0.2-0.1s-0.1-0.1-0.2-0.1s-0.1-0.1-0.2-0.1l0,0L60,0
					L0,34.9l0,2.3l4.4,2.6c1.8,1.1,3.4,4.6,3.4,7.8l0,15.3l-5.1,2.9l0,2.3c2.2,1.3,4.2,1.2,5.5,0.1c-0.1,0.1-0.3,0.3-0.5,0.4l0,0
					l0,0l60-34.9c0.3-0.2,0.5-0.4,0.8-0.6c0.1-0.1,0.1-0.2,0.2-0.2c0.1-0.1,0.2-0.2,0.3-0.3c0.1-0.2,0.2-0.3,0.3-0.5l0,0l0,0
					c0.1-0.1,0.1-0.2,0.2-0.4s0.1-0.2,0.1-0.4s0.1-0.2,0.1-0.4c0,0,0-0.1,0-0.1l0,0c0-0.1,0-0.1,0-0.2c0-0.1,0-0.2,0.1-0.3
					s0-0.2,0-0.3s0-0.2,0-0.3s0-0.2,0-0.3v0l0-15.3c0-0.1,0-0.3,0-0.4S69.9,13.1,69.8,13z M3.7,66.2L3.7,66.2L3.7,66.2L3.7,66.2z
					 M4.7,66.4L4.7,66.4L4.7,66.4L4.7,66.4z M5.5,66.3L5.5,66.3z M6.3,66.1L6.3,66.1L6.3,66.1z M8.7,67.6L8.7,67.6
					c0.1-0.1,0.2-0.3,0.3-0.4C8.9,67.4,8.8,67.5,8.7,67.6L8.7,67.6z M9.2,66.8L9.2,66.8L9.2,66.8c0.1-0.3,0.2-0.5,0.3-0.8
					C9.4,66.3,9.4,66.5,9.2,66.8L9.2,66.8z M9.7,65.5C9.7,65.5,9.7,65.5,9.7,65.5c0.1-0.5,0.1-1,0.1-1.5C9.8,64.5,9.8,65,9.7,65.5
					L9.7,65.5z"/>
				<path id="Trazado_144214" class="st2" d="M7.7,68.5"/>
				<g id="Grupo_72865" transform="translate(0 0)">
					<g id="Grupo_72864">
						<g id="Grupo_72854" transform="translate(2.733 30.824)">
							<g>
								<defs>
									<path id="SVGID_7_" d="M63.6,0.4l-60,34.9C2.4,35.8,1,35.6,0,34.9L60,0C61.1,0.8,62.4,0.9,63.6,0.4z"/>
								</defs>
								<clipPath id="SVGID_8_">
									<use xlink:href="#SVGID_7_"  style="overflow:visible;"/>
								</clipPath>
								<g id="Grupo_72853" class="st36">
									<g id="Grupo_72852">
										<path id="Trazado_144215" class="st9" d="M0,34.9c0.1,0,0.1,0.1,0.2,0.1l60-34.9C60.1,0.1,60.1,0,60,0L0,34.9z"/>
										<path id="Trazado_144216" class="st8" d="M0.2,35c0.1,0,0.1,0.1,0.2,0.1l60-34.9c-0.1,0-0.1-0.1-0.2-0.1L0.2,35z"/>
										<path id="Trazado_144217" class="st7" d="M0.4,35.1c0.1,0,0.1,0.1,0.2,0.1l60-34.9c-0.1,0-0.1-0.1-0.2-0.1L0.4,35.1z"/>
										<path id="Trazado_144218" class="st6" d="M0.6,35.2c0.1,0,0.1,0.1,0.2,0.1l60-34.9c-0.1,0-0.1-0.1-0.2-0.1L0.6,35.2z"/>
										<path id="Trazado_144219" class="st5" d="M0.8,35.3c0.1,0,0.1,0.1,0.2,0.1L61,0.5c-0.1,0-0.1-0.1-0.2-0.1L0.8,35.3z"/>
										<path id="Trazado_144220" class="st30" d="M1,35.3c0.1,0,0.1,0,0.2,0.1l60-34.9c-0.1,0-0.1,0-0.2-0.1L1,35.3z"/>
										<path id="Trazado_144221" class="st29" d="M1.2,35.4c0.1,0,0.1,0,0.2,0.1l60-34.9c-0.1,0-0.1,0-0.2-0.1L1.2,35.4z"/>
										<path id="Trazado_144222" class="st28" d="M1.4,35.5c0.1,0,0.1,0,0.2,0l60-34.9c-0.1,0-0.1,0-0.2,0L1.4,35.5z"/>
										<path id="Trazado_144223" class="st27" d="M1.6,35.5c0.1,0,0.1,0,0.2,0l60-34.9c-0.1,0-0.1,0-0.2,0L1.6,35.5z"/>
										<path id="Trazado_144224" class="st26" d="M1.8,35.5c0.1,0,0.2,0,0.2,0l60-34.9c-0.1,0-0.1,0-0.2,0L1.8,35.5z"/>
										<path id="Trazado_144225" class="st25" d="M2,35.6c0.1,0,0.2,0,0.2,0l60-34.9c-0.1,0-0.2,0-0.2,0L2,35.6z"/>
										<path id="Trazado_144226" class="st24" d="M2.3,35.6c0.1,0,0.2,0,0.3,0l60-34.9c-0.1,0-0.2,0-0.3,0L2.3,35.6z"/>
										<path id="Trazado_144227" class="st23" d="M2.5,35.6c0.1,0,0.2,0,0.3,0l60-34.9c-0.1,0-0.2,0-0.3,0L2.5,35.6z"/>
										<path id="Trazado_144228" class="st22" d="M2.8,35.5c0.1,0,0.2-0.1,0.4-0.1l60-34.9c-0.1,0-0.2,0.1-0.4,0.1L2.8,35.5z"/>
										<path id="Trazado_144229" class="st21" d="M3.2,35.4c0.1-0.1,0.3-0.1,0.4-0.2l60-34.9c-0.1,0.1-0.3,0.1-0.4,0.2L3.2,35.4z
											"/>
									</g>
								</g>
							</g>
						</g>
						<g id="Grupo_72857" transform="translate(7.738 29.125)">
							<g>
								<defs>
									<path id="SVGID_9_" d="M60,4.5L0,39.4c1.3-0.7,2.1-2.3,2.1-4.5L62.1,0C62.1,2.2,61.3,3.8,60,4.5z"/>
								</defs>
								<clipPath id="SVGID_10_">
									<use xlink:href="#SVGID_9_"  style="overflow:visible;"/>
								</clipPath>
								<g id="Grupo_72856" class="st37">
									<g id="Grupo_72855" transform="translate(0 0)">
										<path id="Trazado_144231" class="st5" d="M2.1,34.9L62.1,0v0L2.1,34.9L2.1,34.9z"/>
										<path id="Trazado_144232" class="st30" d="M2.1,35.2l60-34.9c0-0.1,0-0.2,0-0.3l-60,34.9C2.1,35,2.1,35.1,2.1,35.2z"/>
										<path id="Trazado_144233" class="st29" d="M2,35.6l60-34.9c0-0.1,0-0.2,0-0.3l-60,34.9C2,35.4,2,35.5,2,35.6z"/>
										<path id="Trazado_144234" class="st28" d="M2,35.9L62,1c0-0.1,0-0.2,0-0.3L2,35.6C2,35.7,2,35.8,2,35.9z"/>
										<path id="Trazado_144235" class="st27" d="M1.9,36.2L62,1.4C62,1.2,62,1.1,62,1L2,35.9C2,36,2,36.1,1.9,36.2z"/>
										<path id="Trazado_144236" class="st26" d="M1.9,36.6l60-34.9c0-0.1,0-0.2,0.1-0.3l-60,34.9C1.9,36.4,1.9,36.5,1.9,36.6z"
											/>
										<path id="Trazado_144237" class="st25" d="M1.8,36.9l60-34.9c0-0.1,0.1-0.2,0.1-0.4l-60,34.9C1.9,36.7,1.8,36.8,1.8,36.9z
											"/>
										<path id="Trazado_144238" class="st24" d="M1.7,37.3l60-34.9c0-0.1,0.1-0.2,0.1-0.4l-60,34.9C1.7,37.1,1.7,37.2,1.7,37.3z
											"/>
										<path id="Trazado_144239" class="st23" d="M1.5,37.7l60-34.9c0.1-0.1,0.1-0.3,0.2-0.4l-60,34.9
											C1.6,37.5,1.6,37.6,1.5,37.7z"/>
										<path id="Trazado_144240" class="st22" d="M1.2,38.2l60-34.9c0.1-0.2,0.2-0.3,0.3-0.5l-60,34.9C1.4,37.9,1.3,38,1.2,38.2z
											"/>
										<path id="Trazado_144241" class="st21" d="M0,39.4L60,4.5c0.5-0.3,0.9-0.7,1.2-1.2l-60,34.9C0.9,38.7,0.5,39.1,0,39.4z"/>
									</g>
								</g>
							</g>
						</g>
						<g id="Grupo_72858" transform="translate(9.8 13.796)">
							<path id="Trazado_144243" class="st3" d="M0,50.2l60-34.9l0-15.3L0,34.9L0,50.2z"/>
						</g>
						<g id="Grupo_72859" transform="translate(0.006)">
							<path id="Trazado_144244" class="st32" d="M0,34.9l4.4,2.6l60-34.9L60,0L0,34.9z"/>
						</g>
						<g id="Grupo_72862" transform="translate(4.429 2.554)">
							<g>
								<defs>
									<path id="SVGID_11_" d="M0,34.9L60,0c3,1.7,5.4,6.8,5.4,11.2l-60,34.9C5.4,41.7,3,36.6,0,34.9z"/>
								</defs>
								<clipPath id="SVGID_12_">
									<use xlink:href="#SVGID_11_"  style="overflow:visible;"/>
								</clipPath>
								<g id="Grupo_72861" class="st38">
									<g id="Grupo_72860">
										<path id="Trazado_144245" class="st9" d="M0,34.9C0,34.9,0,34.9,0,34.9L60.1,0l0,0L0,34.9z"/>
										<path id="Trazado_144246" class="st10" d="M0,34.9c0.1,0,0.1,0.1,0.2,0.1l60-34.9c-0.1,0-0.1-0.1-0.2-0.1L0,34.9z"/>
										<path id="Trazado_144247" class="st11" d="M0.2,35c0.1,0,0.1,0.1,0.2,0.1l60-34.9c-0.1,0-0.1-0.1-0.2-0.1L0.2,35z"/>
										<path id="Trazado_144248" class="st12" d="M0.4,35.1c0.1,0,0.1,0.1,0.2,0.1l60-34.9c-0.1,0-0.1-0.1-0.2-0.1L0.4,35.1z"/>
										<path id="Trazado_144249" class="st13" d="M0.6,35.3c0.1,0,0.1,0.1,0.2,0.1l60-34.9c-0.1,0-0.1-0.1-0.2-0.1L0.6,35.3z"/>
										<path id="Trazado_144250" class="st14" d="M0.8,35.4c0.1,0.1,0.1,0.1,0.2,0.2L61,0.7c-0.1-0.1-0.1-0.1-0.2-0.2L0.8,35.4z"
											/>
										<path id="Trazado_144251" class="st15" d="M1,35.6c0.1,0.1,0.1,0.1,0.2,0.2l60-34.9C61.1,0.8,61,0.7,61,0.7L1,35.6z"/>
										<path id="Trazado_144252" class="st16" d="M1.1,35.7c0.1,0.1,0.1,0.1,0.2,0.2L61.4,1c-0.1-0.1-0.1-0.1-0.2-0.2L1.1,35.7z"
											/>
										<path id="Trazado_144253" class="st17" d="M1.3,35.9C1.4,36,1.5,36,1.5,36.1l60-34.9c-0.1-0.1-0.1-0.1-0.2-0.2L1.3,35.9z"
											/>
										<path id="Trazado_144254" class="st18" d="M1.5,36.1c0.1,0.1,0.1,0.1,0.2,0.2l60-34.9c-0.1-0.1-0.1-0.1-0.2-0.2L1.5,36.1z
											"/>
										<path id="Trazado_144255" class="st19" d="M1.7,36.3c0.1,0.1,0.1,0.1,0.2,0.2l60-34.9c-0.1-0.1-0.1-0.1-0.2-0.2L1.7,36.3z
											"/>
										<path id="Trazado_144256" class="st19" d="M1.9,36.5C2,36.6,2,36.6,2.1,36.7l60-34.9C62,1.7,62,1.7,61.9,1.6L1.9,36.5z"/>
										<path id="Trazado_144257" class="st19" d="M2.1,36.7c0.1,0.1,0.1,0.2,0.2,0.2l60-34.9c-0.1-0.1-0.1-0.2-0.2-0.2L2.1,36.7z
											"/>
										<path id="Trazado_144258" class="st19" d="M2.3,37c0.1,0.1,0.1,0.2,0.2,0.3l60-34.9c-0.1-0.1-0.1-0.2-0.2-0.3L2.3,37z"/>
										<path id="Trazado_144259" class="st19" d="M2.5,37.2c0.1,0.1,0.2,0.3,0.3,0.5l60-34.9c-0.1-0.2-0.2-0.3-0.3-0.5L2.5,37.2z
											"/>
										<path id="Trazado_144260" class="st19" d="M2.8,37.7c0.2,0.2,0.3,0.5,0.5,0.7l60-34.9C63.1,3.3,63,3,62.8,2.8L2.8,37.7z"
											/>
										<path id="Trazado_144261" class="st19" d="M3.3,38.4c0.1,0.2,0.2,0.4,0.3,0.5L63.6,4c-0.1-0.2-0.2-0.4-0.3-0.5L3.3,38.4z"
											/>
										<path id="Trazado_144262" class="st19" d="M3.6,38.9c0.1,0.1,0.1,0.2,0.2,0.4l60-34.9c-0.1-0.1-0.1-0.2-0.2-0.4L3.6,38.9z
											"/>
										<path id="Trazado_144263" class="st19" d="M3.7,39.3c0.1,0.1,0.1,0.2,0.2,0.3l60-34.9c-0.1-0.1-0.1-0.2-0.2-0.3L3.7,39.3z
											"/>
										<path id="Trazado_144264" class="st19" d="M3.9,39.6C4,39.7,4,39.9,4.1,40l60-34.9C64,5,64,4.9,63.9,4.7L3.9,39.6z"/>
										<path id="Trazado_144265" class="st19" d="M4.1,40c0,0.1,0.1,0.2,0.1,0.3l60-34.9c0-0.1-0.1-0.2-0.1-0.3L4.1,40z"/>
										<path id="Trazado_144266" class="st18" d="M4.2,40.3c0,0.1,0.1,0.2,0.1,0.3l60-34.9c0-0.1-0.1-0.2-0.1-0.3L4.2,40.3z"/>
										<path id="Trazado_144267" class="st17" d="M4.3,40.6c0,0.1,0.1,0.2,0.1,0.4l60-34.9c0-0.1-0.1-0.2-0.1-0.4L4.3,40.6z"/>
										<path id="Trazado_144268" class="st16" d="M4.5,41c0,0.1,0.1,0.3,0.1,0.4l60-34.9c0-0.1-0.1-0.3-0.1-0.4L4.5,41z"/>
										<path id="Trazado_144269" class="st15" d="M4.6,41.4c0,0.1,0.1,0.3,0.1,0.4l60-34.9c0-0.1-0.1-0.3-0.1-0.4L4.6,41.4z"/>
										<path id="Trazado_144270" class="st14" d="M4.7,41.8c0,0.1,0.1,0.3,0.1,0.4l60-34.9c0-0.1-0.1-0.3-0.1-0.4L4.7,41.8z"/>
										<path id="Trazado_144271" class="st13" d="M4.9,42.2c0,0.1,0.1,0.3,0.1,0.4L65,7.8c0-0.1-0.1-0.3-0.1-0.4L4.9,42.2z"/>
										<path id="Trazado_144272" class="st12" d="M5,42.7c0,0.1,0.1,0.3,0.1,0.4l60-34.9c0-0.1-0.1-0.3-0.1-0.4L5,42.7z"/>
										<path id="Trazado_144273" class="st11" d="M5.1,43.1c0,0.1,0.1,0.3,0.1,0.4l60-34.9c0-0.1-0.1-0.3-0.1-0.4L5.1,43.1z"/>
										<path id="Trazado_144274" class="st10" d="M5.2,43.5c0,0.1,0.1,0.3,0.1,0.4l60-34.9c0-0.1,0-0.3-0.1-0.4L5.2,43.5z"/>
										<path id="Trazado_144275" class="st9" d="M5.2,44c0,0.1,0,0.3,0.1,0.4l60-34.9c0-0.1,0-0.3-0.1-0.4L5.2,44z"/>
										<path id="Trazado_144276" class="st8" d="M5.3,44.4c0,0.1,0,0.3,0,0.4l60-34.9c0-0.1,0-0.3,0-0.4L5.3,44.4z"/>
										<path id="Trazado_144277" class="st7" d="M5.4,44.9c0,0.1,0,0.3,0,0.4l60-34.9c0-0.1,0-0.3,0-0.4L5.4,44.9z"/>
										<path id="Trazado_144278" class="st6" d="M5.4,45.3c0,0.1,0,0.3,0,0.4l60-34.9c0-0.1,0-0.3,0-0.4L5.4,45.3z"/>
										<path id="Trazado_144279" class="st5" d="M5.4,45.7c0,0.1,0,0.3,0,0.4l60-34.9c0-0.1,0-0.3,0-0.4L5.4,45.7z"/>
									</g>
								</g>
							</g>
						</g>
						<g id="Grupo_72863" transform="translate(0 34.884)">
							<path id="Trazado_144281" class="st2" d="M4.4,2.6L0,0l0,2.3l4.4,2.6c1.8,1.1,3.4,4.6,3.4,7.8l0,15.3c0,3.2-2.3,4.5-5.1,2.9
								l0,2.3c3.9,2.2,7.1,0.4,7.1-4l0-15.3C9.9,9.3,7.4,4.3,4.4,2.6z"/>
						</g>
					</g>
				</g>
			</g>
		</g>
		<g id="Grupo_72868" transform="translate(84.056 66.307)">
			<path id="Trazado_144282" class="st19" d="M0,19.2l3.3-1.8l7.6-0.1c18.2,0,27.1-0.4,33.2-3.7c4-2.2,6.1-5.2,1.1-8.3
				c-3-1.9-7.4-2.4-10.4-2.5L37.1,0c4.7,0.1,9.3,1.3,13.5,3.6c7.2,4.4,4.3,9.4-1.3,12.5c-7.3,4-17.7,4.5-32.8,4.5l-5.6,0l-0.1,0.1
				l15,9.2l-4.5,2.4L0,19.2z"/>
			<path id="Trazado_144283" class="st19" d="M68.7,37.9c-13.5,7.3-25.1,8.8-32.5,4.3c-6.5-4-3.7-10.6,9.4-17.8
				c13.3-7.2,25.4-8.2,32.2-4.1C84.8,24.6,81.3,31,68.7,37.9z M50,27.1c-10.3,5.6-13.5,10.4-9.4,12.9c4.6,2.8,13.2,0.7,23.4-4.8
				C73.7,30,78,25.2,73.4,22.3C69.4,19.9,60.8,21.3,50,27.1z"/>
			<path id="Trazado_144284" class="st19" d="M107.7,44.6l-12.7-7.8l-11.5,4.7c1,0.4,2,1,3,1.5c2.6,1.6,4.5,3.5,5,5.6
				c0.8,2.6-0.4,5.7-5.4,8.5c-7.8,4.2-18.7,4.2-26-0.2c-3.6-2.2-5.5-4.8-5.9-6.4l5.2-1.5c1,2.4,2.7,4.3,4.9,5.6
				c4.3,2.6,11.2,3.1,16.5,0.2c5.1-2.8,5.9-6.6-0.8-10.6c-1.6-1-3.3-1.8-5-2.6l21.2-9l15.9,9.8L107.7,44.6z"/>
		</g>
		<line id="Línea_352" class="st39" x1="131.7" y1="74" x2="131.7" y2="0"/>
		<line id="Línea_353" class="st39" x1="155.5" y1="83.9" x2="155.5" y2="0"/>
		<line id="Línea_354" class="st39" x1="131.7" y1="0" x2="226.6" y2="0"/>
		<path id="Trazado_144285" class="st39" d="M184.7,101.3V37H231"/>
	</g>
</g>
</svg>
