<svg xmlns="http://www.w3.org/2000/svg" width="1250.511" height="942.262" viewBox="0 0 1250.511 942.262">
  <g id="Grupo_974073" data-name="Grupo 974073" transform="translate(-159.489 -386.309)">
    <line id="Línea_237_10_" x1="0.5" y1="180" transform="translate(161 626.5)" fill="none" stroke="#38235b" stroke-linecap="round" stroke-width="3" stroke-dasharray="0 6"/>
    <line id="Línea_237_10_2" data-name="Línea_237_10_" x2="42.5" y2="0.305" transform="translate(161 627.5)" fill="none" stroke="#38235b" stroke-linecap="round" stroke-width="3" stroke-dasharray="0 6"/>
    <g id="Grupo_973976" data-name="Grupo 973976" transform="translate(189.176 810.533) rotate(180)">
      <line id="Línea_237_10_3" data-name="Línea_237_10_" x1="22" transform="translate(6 4.313)" fill="none" stroke="#38235b" stroke-linecap="round" stroke-width="3" stroke-dasharray="0 6"/>
      <path id="Trazado_704865" data-name="Trazado 704865" d="M8,8.624,0,4.059,8,0" fill="none" stroke="#38235b" stroke-linejoin="round" stroke-width="2"/>
    </g>
    <g id="Grupo_974072" data-name="Grupo 974072">
      <path id="Trazado_140660" d="M1831.311,515.675l-857.65-.087H928.6" transform="translate(-580.604 3.079)" fill="none" stroke="#38235b" stroke-linecap="round" stroke-width="3" stroke-dasharray="0 6"/>
      <g id="Grupo_973472" data-name="Grupo 973472" transform="translate(664 386.309)">
        <path id="Rectángulo_31002" d="M1255.568,182.125h235.186c10.187,0,18.441,9.953,18.441,22.236v47.812H1237.113V204.361C1237.118,192.078,1245.385,182.125,1255.568,182.125Z" transform="translate(-1237.113 -182.125)" fill="#0b428a"/>
        <rect id="Rectángulo_31003" width="272.067" height="8.904" transform="translate(0.005 65.604)" fill="#25ffff"/>
      </g>
      <g id="Grupo" transform="translate(679 398.409)">
        <text id="Conceptos_básicos_de_electricidad" data-name="Conceptos básicos de electricidad" transform="translate(-10 -6)" fill="#fff" font-size="20" font-family="Roboto-BoldItalic, Roboto" font-weight="700" font-style="italic"><tspan x="34.11" y="21">Conceptos básicos de </tspan><tspan x="79.145" y="42">electricidad</tspan></text>
      </g>
      <g id="Grupo_973939" data-name="Grupo 973939" transform="translate(663.625 579)">
        <path id="Rectángulo_31015_11_" d="M813.592,585.355h259.623c14.274,0,15.383,9.311,15.383,13.009v64.117H800.619V598.364C800.619,596.083,798.65,585.355,813.592,585.355Z" transform="translate(-800.533 -585.355)" fill="#25ffff"/>
        <rect id="Rectángulo_31016_11_" width="287.173" height="5.498" transform="translate(0.086 71.628)" fill="#cfb7ff"/>
      </g>
      <g id="Grupo_974055" data-name="Grupo 974055" transform="translate(204.694 579)">
        <path id="Rectángulo_31015_11_2" data-name="Rectángulo_31015_11_" d="M813.592,585.355h259.623c14.274,0,15.383,9.5,15.383,13.009v64.117H800.619V598.364C800.619,596.083,799.6,585.4,813.592,585.355Z" transform="translate(-800.603 -585.355)" fill="#25ffff"/>
        <rect id="Rectángulo_31016_11_2" data-name="Rectángulo_31016_11_" width="287.173" height="5.498" transform="translate(0.016 71.628)" fill="#cfb7ff"/>
      </g>
      <g id="Grupo_974060" data-name="Grupo 974060" transform="translate(414.694 1018)">
        <path id="Rectángulo_31015_11_3" data-name="Rectángulo_31015_11_" d="M813.592,585.355h259.623c14.274,0,15.383,9.5,15.383,13.009v64.117H800.619V598.364C800.619,596.083,799.6,585.4,813.592,585.355Z" transform="translate(-800.603 -585.355)" fill="#25ffff"/>
        <rect id="Rectángulo_31016_11_3" data-name="Rectángulo_31016_11_" width="287.173" height="5.498" transform="translate(0.016 71.628)" fill="#cfb7ff"/>
      </g>
      <g id="Grupo_974061" data-name="Grupo 974061" transform="translate(868.694 1018)">
        <path id="Rectángulo_31015_11_4" data-name="Rectángulo_31015_11_" d="M813.592,585.355h259.623c14.274,0,15.383,9.5,15.383,13.009v64.117H800.619V598.364C800.619,596.083,799.6,585.4,813.592,585.355Z" transform="translate(-800.603 -585.355)" fill="#25ffff"/>
        <rect id="Rectángulo_31016_11_4" data-name="Rectángulo_31016_11_" width="287.173" height="5.498" transform="translate(0.016 71.628)" fill="#cfb7ff"/>
      </g>
      <g id="Grupo_974056" data-name="Grupo 974056" transform="translate(1106.532 579)">
        <path id="Rectángulo_31015_11_5" data-name="Rectángulo_31015_11_" d="M813.592,585.355h259.623c14.274,0,15.383,9.553,15.383,13.009v64.117H800.619V598.364C800.619,596.083,797.908,585.355,813.592,585.355Z" transform="translate(-800.44 -585.355)" fill="#25ffff"/>
        <rect id="Rectángulo_31016_11_5" data-name="Rectángulo_31016_11_" width="287.173" height="5.498" transform="translate(0.179 71.628)" fill="#cfb7ff"/>
      </g>
      <text id="Sistemas_de_unidades_" data-name="Sistemas de unidades​" transform="translate(267 588)" fill="#12263f" font-size="24" font-family="Roboto-Black, Roboto" font-weight="800"><tspan x="14.975" y="23">Sistemas de </tspan><tspan x="32.325" y="53">unidades​</tspan></text>
      <text id="Naturaleza_eléctrica_de_la_materia_" data-name="Naturaleza eléctrica de la materia​" transform="translate(447 1027)" fill="#12263f" font-size="24" font-family="Roboto-Black, Roboto" font-weight="800"><tspan x="3.045" y="23">Naturaleza eléctrica </tspan><tspan x="41.5" y="53">de la materia​</tspan></text>
      <text id="Formas_de_onda_de_energía_eléctrica" data-name="Formas de onda de energía eléctrica" transform="translate(901 1027)" fill="#12263f" font-size="24" font-family="Roboto-Black, Roboto" font-weight="800"><tspan x="9.268" y="23">Formas de onda de </tspan><tspan x="20.881" y="53">energía eléctrica</tspan></text>
      <text id="Definición_de_magnitudes_eléctricas" data-name="Definición de magnitudes eléctricas" transform="translate(678 588)" fill="#12263f" font-size="24" font-family="Roboto-Black, Roboto" font-weight="800"><tspan x="58.537" y="23">Definición de </tspan><tspan x="9.541" y="53">magnitudes eléctricas</tspan></text>
      <text id="Elementos_de_circuito" data-name="Elementos de circuito" transform="translate(1169 588)" fill="#12263f" font-size="24" font-family="Roboto-Black, Roboto" font-weight="800"><tspan x="8.424" y="23">Elementos de </tspan><tspan x="40.756" y="53">circuito</tspan></text>
      <g id="Grupo_973975" data-name="Grupo 973975" transform="translate(-307.188 1774.633) rotate(-90)">
        <line id="Línea_237_10_4" data-name="Línea_237_10_" x1="43.621" transform="translate(1270.195 1107.5)" fill="none" stroke="#38235b" stroke-linecap="round" stroke-width="3" stroke-dasharray="0 6"/>
        <path id="Trazado_704865-2" data-name="Trazado 704865" d="M-11482.938-8568.876l-9.561-4.565,9.561-4.059" transform="translate(12753.132 9680.688)" fill="none" stroke="#38235b" stroke-linejoin="round" stroke-width="2"/>
      </g>
      <g id="Grupo_974057" data-name="Grupo 974057" transform="translate(142.813 1832.482) rotate(-90)">
        <line id="Línea_237_10_5" data-name="Línea_237_10_" x1="43.621" transform="translate(1270.195 1107.5)" fill="none" stroke="#38235b" stroke-linecap="round" stroke-width="3" stroke-dasharray="0 6"/>
        <path id="Trazado_704865-3" data-name="Trazado 704865" d="M-11482.938-8568.876l-9.561-4.565,9.561-4.059" transform="translate(12753.132 9680.688)" fill="none" stroke="#38235b" stroke-linejoin="round" stroke-width="2"/>
      </g>
      <g id="Grupo_974058" data-name="Grupo 974058" transform="translate(-365.188 1832.482) rotate(-90)">
        <line id="Línea_237_10_6" data-name="Línea_237_10_" x1="43.621" transform="translate(1270.195 1107.5)" fill="none" stroke="#38235b" stroke-linecap="round" stroke-width="3" stroke-dasharray="0 6"/>
        <path id="Trazado_704865-4" data-name="Trazado 704865" d="M-11482.938-8568.876l-9.561-4.565,9.561-4.059" transform="translate(12753.132 9680.688)" fill="none" stroke="#38235b" stroke-linejoin="round" stroke-width="2"/>
      </g>
      <g id="Grupo_974062" data-name="Grupo 974062" transform="translate(-535.188 2267.072) rotate(-90)">
        <line id="Línea_237_10_7" data-name="Línea_237_10_" x1="470.683" transform="translate(1270.572 1107.5)" fill="none" stroke="#38235b" stroke-linecap="round" stroke-width="3" stroke-dasharray="0 6"/>
        <line id="Línea_237_10_8" data-name="Línea_237_10_" x1="470.683" transform="translate(1270.572 1562.876)" fill="none" stroke="#38235b" stroke-linecap="round" stroke-width="3" stroke-dasharray="0 6"/>
        <path id="Trazado_704865-5" data-name="Trazado 704865" d="M-11482.938-8568.876l-9.561-4.565,9.561-4.059" transform="translate(12753.132 9680.688)" fill="none" stroke="#38235b" stroke-linejoin="round" stroke-width="2"/>
        <path id="Trazado_704866" data-name="Trazado 704866" d="M-11482.938-8568.876l-9.561-4.565,9.561-4.059" transform="translate(12753.132 10136.063)" fill="none" stroke="#38235b" stroke-linejoin="round" stroke-width="2"/>
      </g>
      <g id="Grupo_974059" data-name="Grupo 974059" transform="translate(-759.188 1832.482) rotate(-90)">
        <line id="Línea_237_10_9" data-name="Línea_237_10_" x1="43.621" transform="translate(1270.195 1107.5)" fill="none" stroke="#38235b" stroke-linecap="round" stroke-width="3" stroke-dasharray="0 6"/>
        <path id="Trazado_704865-6" data-name="Trazado 704865" d="M-11482.938-8568.876l-9.561-4.565,9.561-4.059" transform="translate(12753.132 9680.688)" fill="none" stroke="#38235b" stroke-linejoin="round" stroke-width="2"/>
      </g>
      <text id="Definido_por_" data-name="Definido por​" transform="translate(685 477)" fill="#12263f" font-size="16" font-family="Roboto-Regular, Roboto"><tspan x="9.918" y="15">Definido por​</tspan></text>
      <text id="Se_conceptúa_mediante" data-name="Se conceptúa ​mediante" transform="translate(164 705)" fill="#12263f" font-size="16" font-family="Roboto-Regular, Roboto"><tspan x="14.281" y="15">Se conceptúa ​mediante</tspan></text>
      <text id="Tiene_en_cuenta_" data-name="Tiene en cuenta​" transform="translate(626 700)" fill="#12263f" font-size="16" font-family="Roboto-Regular, Roboto"><tspan x="9.066" y="15">Tiene en cuenta​</tspan></text>
      <text id="Elementos_presentes_" data-name="Elementos ​presentes​" transform="translate(1066 703)" fill="#12263f" font-size="16" font-family="Roboto-Regular, Roboto"><tspan x="3.293" y="15">Elementos ​presentes​</tspan></text>
      <line id="Línea_237_10_10" data-name="Línea_237_10_" x1="0.5" y1="195.404" transform="translate(372.194 1056.563)" fill="none" stroke="#38235b" stroke-linecap="round" stroke-width="3" stroke-dasharray="0 6"/>
      <line id="Línea_237_10_11" data-name="Línea_237_10_" x1="0.5" y1="195.404" transform="translate(808 1056.563)" fill="none" stroke="#38235b" stroke-linecap="round" stroke-width="3" stroke-dasharray="0 6"/>
      <line id="Línea_237_10_12" data-name="Línea_237_10_" y1="179.586" transform="translate(621.125 626.5)" fill="none" stroke="#38235b" stroke-linecap="round" stroke-width="3" stroke-dasharray="0 6"/>
      <line id="Línea_237_10_13" data-name="Línea_237_10_" y1="179.586" transform="translate(1064.032 626.5)" fill="none" stroke="#38235b" stroke-linecap="round" stroke-width="3" stroke-dasharray="0 6"/>
      <line id="Línea_237_10_14" data-name="Línea_237_10_" x2="42.5" y2="0.305" transform="translate(372.194 1057.563)" fill="none" stroke="#38235b" stroke-linecap="round" stroke-width="3" stroke-dasharray="0 6"/>
      <line id="Línea_237_10_15" data-name="Línea_237_10_" x2="60.194" transform="translate(808.5 1057.867)" fill="none" stroke="#38235b" stroke-linecap="round" stroke-width="3" stroke-dasharray="0 6"/>
      <line id="Línea_237_10_16" data-name="Línea_237_10_" x2="42.5" y2="0.305" transform="translate(621.125 627.5)" fill="none" stroke="#38235b" stroke-linecap="round" stroke-width="3" stroke-dasharray="0 6"/>
      <line id="Línea_237_10_17" data-name="Línea_237_10_" x2="42.5" y2="0.305" transform="translate(1064.032 627.5)" fill="none" stroke="#38235b" stroke-linecap="round" stroke-width="3" stroke-dasharray="0 6"/>
      <g id="Grupo_974069" data-name="Grupo 974069" transform="translate(410 1256) rotate(180)">
        <line id="Línea_237_10_18" data-name="Línea_237_10_" x1="31.5" transform="translate(6 4.313)" fill="none" stroke="#38235b" stroke-linecap="round" stroke-width="3" stroke-dasharray="0 6"/>
        <path id="Trazado_704865-7" data-name="Trazado 704865" d="M8,8.624,0,4.059,8,0" transform="translate(0 0)" fill="none" stroke="#38235b" stroke-linejoin="round" stroke-width="2"/>
      </g>
      <g id="Grupo_974070" data-name="Grupo 974070" transform="translate(845.5 1256) rotate(180)">
        <line id="Línea_237_10_19" data-name="Línea_237_10_" x1="31.5" transform="translate(6 4.313)" fill="none" stroke="#38235b" stroke-linecap="round" stroke-width="3" stroke-dasharray="0 6"/>
        <path id="Trazado_704865-8" data-name="Trazado 704865" d="M8,8.624,0,4.059,8,0" transform="translate(0 0)" fill="none" stroke="#38235b" stroke-linejoin="round" stroke-width="2"/>
      </g>
      <g id="Grupo_974064" data-name="Grupo 974064" transform="translate(1112.032 808.242) rotate(180)">
        <line id="Línea_237_10_20" data-name="Línea_237_10_" x1="42.468" transform="translate(5.532 2.156)" fill="none" stroke="#38235b" stroke-linecap="round" stroke-width="3" stroke-dasharray="0 6"/>
        <path id="Trazado_704865-9" data-name="Trazado 704865" d="M8,4.312,0,2.029,8,0" fill="none" stroke="#38235b" stroke-linejoin="round" stroke-width="2"/>
      </g>
      <g id="Grupo_973946" data-name="Grupo 973946" transform="translate(194.017 761.5)">
        <path id="Rectángulo_31015_2_" d="M479.034,966.833H733.371c20.479-.194,38.094,17,38.094,30.021v107.133H443.825V996.853S442.265,966.114,479.034,966.833Z" transform="translate(-443.815 -966.82)" fill="#dee9f0"/>
        <path id="Rectángulo_31016_2_" d="M0,0H327.642V7.809H0Z" transform="translate(0.008 133.261)" fill="#12263f"/>
      </g>
      <g id="Grupo_974067" data-name="Grupo 974067" transform="translate(413.588 1187.5)">
        <path id="Rectángulo_31015_2_2" data-name="Rectángulo_31015_2_" d="M475.076,966.833H700.828c18.178-.194,33.813,17,33.813,30.021v107.133H443.824V996.853S442.439,966.114,475.076,966.833Z" transform="translate(-443.815 -966.82)" fill="#dee9f0"/>
        <path id="Rectángulo_31016_2_2" data-name="Rectángulo_31016_2_" d="M0,0H290.817V7.809H0Z" transform="translate(0.008 133.261)" fill="#12263f"/>
      </g>
      <g id="Grupo_974068" data-name="Grupo 974068" transform="translate(859.763 1187.5)">
        <path id="Rectángulo_31015_2_3" data-name="Rectángulo_31015_2_" d="M479.034,966.833H733.371c20.479-.194,38.094,17,38.094,30.021v107.133H443.825V996.853S442.265,966.114,479.034,966.833Z" transform="translate(-443.815 -966.82)" fill="#dee9f0"/>
        <path id="Rectángulo_31016_2_3" data-name="Rectángulo_31016_2_" d="M0,0H327.642V7.809H0Z" transform="translate(0.008 133.261)" fill="#12263f"/>
      </g>
      <g id="Grupo_974065" data-name="Grupo 974065" transform="translate(680 761.5)">
        <path id="Rectángulo_31015_2_4" data-name="Rectángulo_31015_2_" d="M472.2,966.833H677.19c16.506-.194,30.7,17,30.7,30.021v107.133H443.823V996.853S442.566,966.114,472.2,966.833Z" transform="translate(-443.815 -966.82)" fill="#dee9f0"/>
        <path id="Rectángulo_31016_2_4" data-name="Rectángulo_31016_2_" d="M0,0H264.071V7.809H0Z" transform="translate(0.006 133.261)" fill="#12263f"/>
      </g>
      <g id="Grupo_974066" data-name="Grupo 974066" transform="translate(1112.208 761.5)">
        <path id="Rectángulo_31015_2_5" data-name="Rectángulo_31015_2_" d="M475.825,966.833h231.16c18.613-.194,34.623,17,34.623,30.021v107.133H443.824V996.853S442.406,966.114,475.825,966.833Z" transform="translate(-443.815 -966.82)" fill="#dee9f0"/>
        <path id="Rectángulo_31016_2_5" data-name="Rectángulo_31016_2_" d="M0,0H297.784V7.809H0Z" transform="translate(0.008 133.261)" fill="#12263f"/>
      </g>
      <text id="_Unidades_básicas_Unidades_derivadas_Prefijos_de_los_sistemas_internacionales_Notación_científica_Simbología_eléctrica" data-name="• Unidades básicas​
• Unidades derivadas​
• Prefijos de los sistemas internacionales​
• Notación científica​
• Simbología eléctrica" transform="translate(215.231 773.67)" fill="#12263f" font-size="16" font-family="Roboto-Regular, Roboto"><tspan x="0" y="15">• Unidades básicas​</tspan><tspan x="0" y="39">• Unidades derivadas​</tspan><tspan x="0" y="63">• Prefijos de los sistemas internacionales​</tspan><tspan x="0" y="87">• Notación científica​</tspan><tspan x="0" y="111">• Simbología eléctrica</tspan></text>
      <text id="_Diferencia_del_potencial_Corriente_eléctrica_Efecto_Joule" data-name="• Diferencia del potencial​
• Corriente eléctrica ​
• Efecto Joule" transform="translate(715 785)" fill="#12263f" font-size="16" font-family="Roboto-Regular, Roboto"><tspan x="0" y="15">• Diferencia del potencial​</tspan><tspan x="0" y="39">• Corriente eléctrica ​</tspan><tspan x="0" y="63">• Efecto Joule</tspan></text>
      <text id="_Resistencia_Inductancia_Capacitancia_Fuentes_independientes_Fuentes_dependientes_" data-name="• Resistencia​
• Inductancia​
• Capacitancia​
• Fuentes independientes​
• Fuentes dependientes​" transform="translate(1164 770)" fill="#12263f" font-size="16" font-family="Roboto-Regular, Roboto"><tspan x="0" y="15">• Resistencia​</tspan><tspan x="0" y="39">• Inductancia​</tspan><tspan x="0" y="63">• Capacitancia​</tspan><tspan x="0" y="87">• Fuentes independientes​</tspan><tspan x="0" y="111">• Fuentes dependientes​</tspan></text>
      <g id="Grupo_974063" data-name="Grupo 974063" transform="translate(680 810.533) rotate(180)">
        <line id="Línea_237_10_21" data-name="Línea_237_10_" x1="51.5" transform="translate(6 4.313)" fill="none" stroke="#38235b" stroke-linecap="round" stroke-width="3" stroke-dasharray="0 6"/>
        <path id="Trazado_704865-10" data-name="Trazado 704865" d="M8,8.624,0,4.059,8,0" fill="none" stroke="#38235b" stroke-linejoin="round" stroke-width="2"/>
      </g>
      <text id="Se_explica_por" data-name="Se explica ​por" transform="translate(382 1133)" fill="#12263f" font-size="16" font-family="Roboto-Regular, Roboto"><tspan x="24.684" y="15">Se explica ​por</tspan></text>
      <text id="Medida_por_" data-name="Medida​ por​" transform="translate(836 1133)" fill="#12263f" font-size="16" font-family="Roboto-Regular, Roboto"><tspan x="34.223" y="15">Medida​ por​</tspan></text>
      <text id="_Teoría_atómica_Los_tipos_de_enlace_molecular_La_conducción_de_los_materiales_La_conductividad_o_resistividad_de_los_elementos" data-name="• Teoría atómica​
• Los tipos de enlace molecular​
• La conducción de los materiales​
• La conductividad o resistividad 
  de los elementos" transform="translate(436 1195.5)" fill="#12263f" font-size="16" font-family="Roboto-Regular, Roboto"><tspan x="0" y="15">• Teoría atómica​</tspan><tspan x="0" y="39">• Los tipos de enlace molecular​</tspan><tspan x="0" y="63">• La conducción de los materiales​</tspan><tspan x="0" y="87">• La conductividad o resistividad </tspan><tspan x="0" y="111" xml:space="preserve">  de los elementos</tspan></text>
      <text id="_Corriente_continua_Corriente_alterna_Valores_medio_Amed_y_eficaz_A_o_RMS" data-name="• Corriente continua​
• Corriente alterna​
• Valores medio (Amed) y eficaz (A) o RMS" transform="translate(877.5 1220)" fill="#12263f" font-size="16" font-family="Roboto-Regular, Roboto"><tspan x="0" y="15">• Corriente continua​</tspan><tspan x="0" y="39">• Corriente alterna​</tspan><tspan x="0" y="63">• Valores medio (Amed) y eficaz (A) o RMS</tspan></text>
    </g>
  </g>
</svg>
